<svg width="213" height="100" viewBox="0 0 213 100" fill="none" xmlns="http://www.w3.org/2000/svg">
<path d="M18.876 41.0141C18.876 52.1251 21.514 55.6781 25.827 55.6781C30.139 55.6781 32.777 52.1251 32.777 41.0141C32.777 29.9021 30.139 26.3501 25.827 26.3501C21.514 26.3501 18.876 29.9021 18.876 41.0141ZM41.557 84.5491C41.557 81.7571 40.288 80.237 35.569 80.237H17.707C15.273 82.57 14.156 86.223 14.156 88.457C14.156 94.392 19.281 97.437 25.827 97.437C34.199 97.437 41.557 92.7191 41.557 84.5491ZM34.959 25.487C42.927 27.517 48.204 32.4891 48.204 41.0141C48.204 52.4311 38.613 57.5551 25.827 57.5551C22.579 57.5551 19.535 57.2511 16.846 56.5401C13.346 58.6201 10.91 60.295 10.91 62.933C10.91 65.318 12.38 66.384 15.172 66.384H39.07C46.63 66.384 53.126 69.073 53.126 77.547C53.126 87.543 43.689 99.2121 23.036 99.2121C7.35801 99.2121 0 95.203 0 90.231C0 83.636 10.199 84.043 15.73 80.237H13.294C9.33701 80.237 1.67599 78.8671 1.67599 70.5961C1.67599 64.7101 5.02301 60.6501 14.919 55.9821C7.96601 53.6991 3.50101 48.8271 3.50101 41.0141C3.50101 29.5461 13.04 24.472 25.827 24.472C28.566 24.472 31.206 24.725 33.591 25.183L34.959 25.487Z" fill="#2F2E41"/>
<path d="M51.631 0C51.631 0 53.069 9.027 48.397 15.522C43.722 22.02 34.707 23.528 34.707 23.528C34.707 23.528 33.267 14.502 37.94 8.004C42.614 1.507 51.631 0 51.631 0Z" fill="#2F2E41"/>
<path d="M54.112 23.299C54.112 23.299 50.621 25.65 46.074 26.091C41.526 26.528 37.648 24.8899 37.648 24.8899C37.648 24.8899 41.139 22.539 45.686 22.098C50.233 21.66 54.112 23.299 54.112 23.299Z" fill="#2F2E41"/>
<path d="M32.658 22.9459C32.658 22.9459 28.91 21.0349 26.316 17.2739C23.725 13.5119 23.277 9.32495 23.277 9.32495C23.277 9.32495 27.027 11.2379 29.619 14.9979C32.209 18.7589 32.658 22.9459 32.658 22.9459Z" fill="#2F2E41"/>
<path d="M60.819 94.861H62.226C64.173 94.861 65.681 93.919 65.681 91.82C65.681 89.719 64.173 88.778 62.226 88.778H60.819V94.861ZM60.136 88.158H62.402C66.21 88.158 66.365 91.282 66.365 91.82C66.365 92.358 66.21 95.482 62.402 95.482H60.136V88.158Z" fill="#2F2E41"/>
<path d="M69.063 88.158H69.746V95.482H69.063V88.158Z" fill="#2F2E41"/>
<path d="M73.542 91.386H74.989C76.427 91.386 76.707 90.59 76.707 90.083C76.707 89.575 76.427 88.779 74.989 88.779H73.542V91.386ZM72.858 88.158H74.782C75.362 88.158 77.39 88.158 77.39 90.083C77.39 91.479 76.324 91.861 75.517 91.965L77.648 95.482H76.872L74.814 92.006H73.542V95.482H72.858V88.158Z" fill="#2F2E41"/>
<path d="M80.119 88.158H84.598V88.778H80.802V91.386H84.36V92.006H80.802V94.861H84.764V95.482H80.119V88.158Z" fill="#2F2E41"/>
<path d="M93.322 94.3339C92.63 95.2859 91.677 95.6689 90.602 95.6689C88.367 95.6689 86.815 94.0549 86.815 91.8199C86.815 89.5849 88.367 87.9709 90.602 87.9709C91.595 87.9709 92.485 88.3029 93.126 89.1199L92.567 89.5849C92.112 88.9029 91.337 88.5919 90.602 88.5919C88.688 88.5919 87.498 89.9989 87.498 91.8199C87.498 93.6399 88.688 95.0479 90.602 95.0479C91.337 95.0479 92.247 94.6959 92.764 93.9099L93.322 94.3339Z" fill="#2F2E41"/>
<path d="M97.554 88.778H95.051V88.158H100.741V88.778H98.237V95.482H97.554V88.778Z" fill="#2F2E41"/>
<path d="M107.221 94.861H108.627C110.573 94.861 112.083 93.919 112.083 91.82C112.083 89.719 110.573 88.778 108.627 88.778H107.221V94.861ZM106.538 88.158H108.804C112.611 88.158 112.767 91.282 112.767 91.82C112.767 92.358 112.611 95.482 108.804 95.482H106.538V88.158Z" fill="#2F2E41"/>
<path d="M115.451 88.158H119.931V88.778H116.135V91.386H119.693V92.006H116.135V94.861H120.097V95.482H115.451V88.158Z" fill="#2F2E41"/>
<path d="M122.593 88.158H123.276V94.861H126.69V95.482H122.593V88.158Z" fill="#2F2E41"/>
<path d="M128.965 88.158H129.649V95.482H128.965V88.158Z" fill="#2F2E41"/>
<path d="M131.865 88.158H132.598L134.958 94.582L137.337 88.158H138.061L135.278 95.482H134.595L131.865 88.158Z" fill="#2F2E41"/>
<path d="M140.288 88.158H144.767V88.778H140.971V91.386H144.529V92.006H140.971V94.861H144.933V95.482H140.288V88.158Z" fill="#2F2E41"/>
<path d="M148.113 91.386H149.561C150.999 91.386 151.278 90.59 151.278 90.083C151.278 89.575 150.999 88.779 149.561 88.779H148.113V91.386ZM147.429 88.158H149.354C149.933 88.158 151.961 88.158 151.961 90.083C151.961 91.479 150.895 91.861 150.088 91.965L152.219 95.482H151.443L149.384 92.006H148.113V95.482H147.429V88.158Z" fill="#2F2E41"/>
<path d="M156.306 92.327L153.617 88.1589H154.434L156.648 91.6339L158.913 88.1589H159.678L156.99 92.327V95.4819H156.306V92.327Z" fill="#2F2E41"/>
<path d="M165.581 94.1269C165.943 94.7369 166.532 95.0479 167.257 95.0479C168.178 95.0479 168.902 94.4889 168.902 93.6099C168.902 91.5619 165.126 92.7609 165.126 89.9789C165.126 88.6749 166.243 87.9709 167.476 87.9709C168.271 87.9709 168.975 88.2399 169.471 88.8929L168.881 89.3159C168.54 88.8409 168.085 88.5919 167.453 88.5919C166.574 88.5919 165.809 89.0479 165.809 89.9789C165.809 92.1819 169.585 90.8579 169.585 93.6099C169.585 94.9339 168.499 95.6689 167.31 95.6689C166.347 95.6689 165.498 95.3579 164.929 94.5609L165.581 94.1269Z" fill="#2F2E41"/>
<path d="M172.211 88.158H176.691V88.778H172.895V91.386H176.453V92.006H172.895V94.861H176.856V95.482H172.211V88.158Z" fill="#2F2E41"/>
<path d="M180.038 91.386H181.485C182.923 91.386 183.202 90.59 183.202 90.083C183.202 89.575 182.923 88.779 181.485 88.779H180.038V91.386ZM179.354 88.158H181.278C181.858 88.158 183.886 88.158 183.886 90.083C183.886 91.479 182.819 91.861 182.013 91.965L184.143 95.482H183.368L181.309 92.006H180.038V95.482H179.354V88.158Z" fill="#2F2E41"/>
<path d="M185.665 88.158H186.398L188.759 94.582L191.138 88.158H191.862L189.079 95.482H188.394L185.665 88.158Z" fill="#2F2E41"/>
<path d="M194.088 88.158H194.77V95.482H194.088V88.158Z" fill="#2F2E41"/>
<path d="M203.959 94.3339C203.266 95.2859 202.315 95.6689 201.239 95.6689C199.002 95.6689 197.451 94.0549 197.451 91.8199C197.451 89.5849 199.002 87.9709 201.239 87.9709C202.231 87.9709 203.122 88.3029 203.76 89.1199L203.203 89.5849C202.748 88.9029 201.974 88.5919 201.239 88.5919C199.325 88.5919 198.135 89.9989 198.135 91.8199C198.135 93.6399 199.325 95.0479 201.239 95.0479C201.974 95.0479 202.882 94.6959 203.398 93.9099L203.959 94.3339Z" fill="#2F2E41"/>
<path d="M206.335 88.158H210.815V88.778H207.019V91.386H210.577V92.006H207.019V94.861H210.98V95.482H206.335V88.158Z" fill="#2F2E41"/>
<path d="M66.091 71.4469C66.091 70.7969 66.14 70.3079 65.96 69.9989C65.798 69.6899 65.441 69.5439 64.611 69.6089V72.2599H67.376V74.9759H64.611V76.7489C64.611 77.2709 64.562 77.7909 65.082 78.1159V80.5889H59.796V78.1159C60.317 77.7909 60.268 77.2709 60.268 76.7489V70.4879C60.268 69.7559 60.219 69.3159 59.715 69.1209V66.6479H69.848V71.4469H66.091Z" fill="#2F2E41"/>
<path d="M75.182 76.7659C75.182 76.8639 75.133 77.8559 76.028 77.8559C76.923 77.8559 76.873 76.8639 76.873 76.7659V70.4549C76.873 70.3569 76.923 69.3809 76.028 69.3809C75.133 69.3809 75.182 70.3569 75.182 70.4549V76.7659ZM81.217 76.5549C81.217 80.0029 79.102 80.8649 76.028 80.8649C72.953 80.8649 70.839 80.0029 70.839 76.5549V70.6819C70.839 67.2349 72.953 66.3719 76.028 66.3719C79.102 66.3719 81.217 67.2349 81.217 70.6819V76.5549Z" fill="#2F2E41"/>
<path d="M86.887 76.7659C86.887 76.8639 86.838 77.8559 87.733 77.8559C88.627 77.8559 88.578 76.8639 88.578 76.7659V70.4549C88.578 70.3569 88.627 69.3809 87.733 69.3809C86.838 69.3809 86.887 70.3569 86.887 70.4549V76.7659ZM92.921 76.5549C92.921 80.0029 90.807 80.8649 87.733 80.8649C84.658 80.8649 82.543 80.0029 82.543 76.5549V70.6819C82.543 67.2349 84.658 66.3719 87.733 66.3719C90.807 66.3719 92.921 67.2349 92.921 70.6819V76.5549Z" fill="#2F2E41"/>
<path d="M99.069 77.6439H99.411C100.353 77.6439 100.647 77.3029 100.647 76.2939V71.0399C100.647 70.0319 100.353 69.6899 99.411 69.6899H99.069V77.6439ZM100.191 66.6479C101.379 66.6479 102.745 66.6649 103.737 67.4299C104.876 68.3239 104.99 69.5929 104.99 70.9269V76.1479C104.99 77.5149 104.924 78.5709 103.868 79.5639C102.875 80.5069 101.638 80.5889 100.322 80.5889H94.173V78.1169C94.66 77.9049 94.71 77.4819 94.725 77.0099V70.2269C94.71 69.7399 94.676 69.3319 94.173 69.1209V66.6479H100.191Z" fill="#2F2E41"/>
<path d="M117.781 70.8609C117.781 70.2429 117.765 69.3809 116.92 69.3809C116.367 69.3809 116.073 69.7869 116.073 70.3079C116.073 70.5849 116.106 70.8609 116.334 71.0889C116.578 71.3499 117.195 71.5449 117.553 71.6419C118.594 71.9179 119.994 72.2929 120.872 72.8779C121.377 73.2199 121.751 73.6269 121.946 74.2129C122.174 74.8139 122.271 75.4809 122.271 76.1319V76.1969C122.271 78.8809 121.083 80.8649 116.935 80.8649C115.163 80.8649 113.292 80.5229 111.877 79.4019V75.6599H116.122C116.122 76.4889 116.106 77.1069 116.252 77.4009C116.399 77.6759 116.708 77.8559 117.033 77.8559C117.619 77.8559 117.879 77.2859 117.879 76.7819C117.879 75.3509 116.984 75.2369 115.78 74.9439C113.145 74.2929 111.665 73.6589 111.665 70.6499V70.34C111.73 68.844 111.973 68.0959 113.113 67.2349C114.04 66.5339 115.389 66.3719 116.691 66.3719C118.578 66.3719 120.254 66.7459 121.832 67.8359V71.1219H117.781V70.8609Z" fill="#2F2E41"/>
<path d="M129.272 66.6479H134.314V69.1209C133.729 69.4459 133.777 69.9659 133.777 70.4869V76.1309C133.744 77.6119 133.63 78.7829 132.443 79.8239C131.418 80.7179 130.003 80.8649 128.751 80.8649C127.498 80.8649 126.083 80.7179 125.058 79.8239C123.872 78.7829 123.757 77.6119 123.725 76.1309V70.4869C123.725 69.9659 123.773 69.4459 123.252 69.1209V66.6479H128.54V69.1209C128.019 69.4459 128.068 69.9659 128.068 70.4869V76.8479C128.068 77.1239 128.132 77.8389 128.929 77.8389C129.727 77.8389 129.792 77.1239 129.792 76.8479V70.4869C129.776 69.9659 129.824 69.4459 129.272 69.1209V66.6479Z" fill="#2F2E41"/>
<path d="M140.346 73.643H140.752C142.037 73.643 141.989 72.911 141.989 71.609C141.989 70.292 142.037 69.56 140.752 69.56H140.346V73.643ZM136.002 70.488C136.002 69.967 136.052 69.446 135.531 69.121V66.648H141.208C142.396 66.648 143.99 66.632 144.966 67.38C146.56 68.601 146.332 70.83 146.332 71.187V72.293C146.332 74.945 145.453 76.587 141.892 76.587H140.346C140.346 77.271 140.297 77.791 140.818 78.117V80.589H135.531V78.117C136.052 77.791 136.002 77.271 136.002 76.749V70.488Z" fill="#2F2E41"/>
<path d="M152.203 73.643H152.609C153.894 73.643 153.846 72.911 153.846 71.609C153.846 70.292 153.894 69.56 152.609 69.56H152.203V73.643ZM147.859 70.488C147.859 69.967 147.908 69.446 147.388 69.121V66.648H153.064C154.253 66.648 155.847 66.632 156.822 67.38C158.417 68.601 158.189 70.83 158.189 71.187V72.293C158.189 74.945 157.31 76.587 153.748 76.587H152.203C152.203 77.271 152.154 77.791 152.675 78.117V80.589H147.388V78.117C147.908 77.791 147.859 77.271 147.859 76.749V70.488Z" fill="#2F2E41"/>
<path d="M159.105 80.5891V78.1171C159.626 77.7921 159.578 77.271 159.578 76.75V70.4881C159.578 69.9671 159.626 69.446 159.105 69.121V66.649H164.393V69.121C163.873 69.446 163.919 69.9671 163.919 70.4881V77.629H164.343C165.45 77.629 165.433 76.9621 165.433 76.0831V73.8221H169.256V80.5891H159.105Z" fill="#2F2E41"/>
<path d="M170.954 70.4881C170.954 69.9671 171.003 69.446 170.482 69.121V66.649H175.768V69.121C175.249 69.446 175.298 69.9671 175.298 70.4881V76.75C175.298 77.271 175.249 77.7921 175.768 78.1171V80.5891H170.482V78.1171C171.003 77.7921 170.954 77.271 170.954 76.75V70.4881Z" fill="#2F2E41"/>
<path d="M187.458 75.5459V80.5879H177.015V78.1159C177.534 77.7909 177.487 77.2709 177.487 76.7489V70.4869C177.487 69.9659 177.534 69.4459 177.015 69.1209V66.6479H187.458V71.3659H183.456V70.9419C183.456 69.9989 183.325 69.6079 182.155 69.6079H181.894V72.0979H184.644V74.8139H181.894V77.6289H182.155C183.456 77.6289 183.438 77.1399 183.456 76.0019V75.5459H187.458Z" fill="#2F2E41"/>
<path d="M193.393 72.374H193.831C194.776 72.374 195.067 71.886 195.067 70.91C195.067 70.015 194.776 69.527 193.831 69.527H193.393V72.374ZM193.393 76.749C193.393 77.27 193.344 77.791 193.864 78.116V80.588H188.577V78.116C189.098 77.791 189.049 77.27 189.049 76.749V70.487C189.049 69.966 189.098 69.446 188.577 69.121V66.648H194.612C195.686 66.648 197.036 66.632 197.979 67.202C199.118 67.868 199.508 69.056 199.508 70.324C199.508 71.853 199.051 73.187 197.426 73.594V73.626C198.793 73.952 199.248 74.538 199.248 75.953V76.749C199.248 77.221 199.248 77.904 199.786 78.116V80.588H195.118C194.938 79.824 194.823 79.173 194.872 76.848C194.872 75.741 194.758 75.187 193.571 75.155H193.393V76.749Z" fill="#2F2E41"/>
<path d="M207.016 70.8609C207.016 70.2429 207 69.3809 206.155 69.3809C205.602 69.3809 205.309 69.7869 205.309 70.3079C205.309 70.5849 205.34 70.8609 205.569 71.0889C205.813 71.3499 206.43 71.5449 206.787 71.6419C207.829 71.9179 209.227 72.2929 210.108 72.8779C210.612 73.2199 210.987 73.6269 211.18 74.2129C211.409 74.8139 211.506 75.4809 211.506 76.1319V76.1969C211.506 78.8809 210.319 80.8649 206.17 80.8649C204.397 80.8649 202.526 80.5229 201.112 79.4019V75.6599H205.358C205.358 76.4889 205.34 77.1069 205.489 77.4009C205.635 77.6759 205.944 77.8559 206.268 77.8559C206.854 77.8559 207.114 77.2859 207.114 76.7819C207.114 75.3509 206.219 75.2369 205.016 74.9439C202.379 74.2929 200.901 73.6589 200.901 70.6499V70.34C200.965 68.844 201.209 68.0959 202.346 67.2349C203.276 66.5339 204.625 66.3719 205.926 66.3719C207.815 66.3719 209.491 66.7459 211.067 67.8359V71.1219H207.016V70.8609Z" fill="#2F2E41"/>
<path d="M80.873 43.211H71.636V42.528C71.636 41.162 71.923 38.539 69.803 38.539C68.005 38.539 67.861 40.228 67.861 41.558V55.252C67.861 55.575 68.005 57.265 69.803 57.265C71.923 57.265 71.636 54.641 71.636 53.239V51.873H69.981V45.871H80.873V60.571C77.853 63.303 73.289 63.914 69.371 63.914C66.603 63.914 63.44 63.699 61.248 61.865C58.408 59.457 58.265 56.654 58.265 53.274V41.558C58.265 38.826 58.588 36.166 60.816 34.297C63.045 32.392 66.101 31.889 68.939 31.889C73.144 31.889 77.494 32.859 80.873 35.447V43.211Z" fill="#2F2E41"/>
<path d="M94.085 45.152H95.056C97.14 45.152 97.787 44.073 97.787 41.917C97.787 39.941 97.14 38.862 95.056 38.862H94.085V45.152ZM94.085 54.82C94.085 55.971 93.977 57.121 95.127 57.84V63.303H83.445V57.84C84.596 57.121 84.487 55.971 84.487 54.82V40.983C84.487 39.833 84.596 38.682 83.445 37.964V32.5H96.78C99.152 32.5 102.136 32.464 104.221 33.722C106.736 35.195 107.599 37.82 107.599 40.623C107.599 44.002 106.593 46.949 102.998 47.847V47.92C106.018 48.638 107.024 49.932 107.024 53.059V54.82C107.024 55.862 107.024 57.373 108.21 57.84V63.303H97.895C97.499 61.613 97.247 60.176 97.356 55.036C97.356 52.592 97.104 51.37 94.481 51.298H94.085V54.82Z" fill="#2F2E41"/>
<path d="M133.894 52.161V63.303H110.818V57.84C111.968 57.121 111.861 55.971 111.861 54.821V40.983C111.861 39.833 111.968 38.682 110.818 37.964V32.5H133.894V42.923H125.052V41.989C125.052 39.905 124.764 39.041 122.176 39.041H121.601V44.541H127.675V50.543H121.601V56.762H122.176C125.052 56.762 125.016 55.683 125.052 53.168V52.161H133.894Z" fill="#2F2E41"/>
<path d="M159.316 52.161V63.303H136.24V57.84C137.39 57.121 137.283 55.971 137.283 54.821V40.983C137.283 39.833 137.39 38.682 136.24 37.964V32.5H159.316V42.923H150.473V41.989C150.473 39.905 150.186 39.041 147.598 39.041H147.023V44.541H153.097V50.543H147.023V56.762H147.598C150.473 56.762 150.438 55.683 150.473 53.168V52.161H159.316Z" fill="#2F2E41"/>
<path d="M177.614 46.41H177.684V40.983C177.684 39.833 177.794 38.682 176.643 37.964V32.5H186.491V37.964C185.341 38.682 185.448 39.833 185.448 40.983V63.303H176.139L170.425 49.466H170.353V54.821C170.353 55.971 170.245 57.121 171.395 57.84V63.303H161.835V57.84C162.984 57.121 162.878 55.971 162.878 54.821V40.983C162.878 39.833 162.984 38.682 161.835 37.964V32.5H172.259L177.614 46.41Z" fill="#2F2E41"/>
<path d="M202.678 41.809C202.678 40.443 202.643 38.538 200.772 38.538C199.553 38.538 198.905 39.437 198.905 40.587C198.905 41.198 198.977 41.809 199.479 42.312C200.02 42.887 201.385 43.319 202.174 43.534C204.475 44.145 207.565 44.972 209.506 46.267C210.621 47.021 211.448 47.919 211.879 49.213C212.381 50.543 212.598 52.017 212.598 53.455V53.598C212.598 59.529 209.973 63.914 200.811 63.914C196.891 63.914 192.758 63.159 189.631 60.679V52.412H199.012C199.012 54.245 198.977 55.611 199.299 56.258C199.621 56.869 200.305 57.265 201.026 57.265C202.319 57.265 202.895 56.006 202.895 54.892C202.895 51.729 200.916 51.478 198.256 50.83C192.434 49.392 189.162 47.992 189.162 41.342V40.659C189.309 37.352 189.846 35.699 192.362 33.794C194.41 32.248 197.395 31.889 200.27 31.889C204.44 31.889 208.141 32.715 211.629 35.123V42.384H202.678V41.809Z" fill="#2F2E41"/>
<path d="M60.136 85.06C59.781 85.06 59.495 84.77 59.495 84.416C59.495 84.061 59.781 83.774 60.136 83.774H210.815C211.168 83.774 211.455 84.061 211.455 84.416C211.455 84.77 211.168 85.06 210.815 85.06H60.136Z" fill="#2F2E41"/>
</svg>
