<svg width="171" height="89" viewBox="0 0 171 89" fill="none" xmlns="http://www.w3.org/2000/svg">
<g clip-path="url(#clip0)">
<path d="M54.235 88.486C54.232 88.486 54.23 88.486 54.228 88.486C51.612 88.484 49.235 88.075 47.16 87.274C45.226 86.528 43.625 85.675 42.269 84.667C41.835 84.353 41.418 84.018 41.014 83.662C40.053 84.436 38.987 85.099 37.835 85.635C36.764 86.138 35.624 86.58 34.453 86.947C34.415 86.96 34.377 86.971 34.337 86.983C31.775 87.729 28.874 88.182 25.715 88.328C24.579 88.382 23.557 88.407 22.59 88.407C21.461 88.407 20.445 88.373 19.487 88.301C17.447 88.149 15.719 87.872 14.201 87.455C12.525 86.997 11.028 86.377 9.762 85.618C8.469 84.846 7.353 83.923 6.452 82.881C4.331 80.559 3.136 77.674 3 74.53C2.997 74.443 2.995 74.357 2.995 74.272C2.995 72.179 3.325 70.411 4.004 68.872C4.692 67.284 5.708 65.966 7.01 64.962C6.422 63.849 5.932 62.737 5.553 61.661C4.576 58.716 4.264 55.869 4.59 53.099C4.597 53.046 4.603 52.989 4.612 52.935C4.908 50.903 5.459 49.193 6.292 47.71C7.146 46.179 8.241 44.899 9.532 43.918C10.677 43.044 11.97 42.369 13.356 41.926C13.434 41.902 13.513 41.877 13.594 41.852C12.803 41.589 12.046 41.226 11.328 40.763C8.594 39.034 6.801 36.079 6.447 32.68C6.047 28.838 7.52 24.877 10.39 22.082C13.03 19.534 16.584 18.14 20.42 18.14C23.303 18.14 26.148 18.957 28.431 20.439C28.742 20.641 29.048 20.861 29.359 21.101C29.365 21.065 29.375 21.029 29.38 20.994C29.664 19.633 29.976 18.407 30.326 17.282L30.29 17.406C30.782 15.708 31.439 14.175 32.246 12.845C33.03 11.563 33.901 10.433 34.841 9.47599C35.881 8.41899 37.015 7.54999 38.211 6.89599C39.193 6.36399 40.16 5.93099 41.101 5.60299C41.153 5.58499 41.205 5.56799 41.258 5.55199C42.89 5.03299 44.609 4.77099 46.36 4.77099C47.054 4.77099 47.764 4.81099 48.473 4.89399C51.339 5.08499 53.812 5.85499 55.828 7.18499C57.551 8.32499 58.959 9.60299 60.023 10.984C60.243 11.267 60.452 11.559 60.652 11.855C61.526 10.522 62.445 9.41799 63.433 8.51399C64.796 7.26799 66.112 6.34699 67.453 5.70499C68.884 5.01399 70.193 4.61899 71.443 4.49899C72.331 4.41199 72.616 4.39499 72.911 4.39499C73.073 4.39499 73.54 4.41599 74.326 4.48299C75.494 4.57699 76.717 4.91399 78.157 5.53599C79.37 6.05899 80.625 6.81399 81.981 7.84199C83.023 8.63099 84.002 9.59799 84.942 10.777C85.052 10.629 85.165 10.482 85.279 10.341C86.141 9.28099 87.102 8.36199 88.144 7.59899C89.189 6.83099 90.329 6.20699 91.531 5.75299C92.444 5.40999 93.367 5.12899 94.279 4.91599C94.315 4.90699 94.353 4.89699 94.389 4.89099C95.862 4.57699 97.436 4.41699 99.064 4.41699C99.629 4.41699 100.208 4.43499 100.789 4.47299C103.29 4.54899 105.369 4.90199 107.148 5.55099C107.742 5.76899 108.297 5.99299 108.814 6.22899C109.366 5.83899 109.959 5.49699 110.578 5.21399C112.005 4.53999 113.724 4.09599 115.617 3.92499C115.715 3.91899 115.812 3.91199 115.909 3.90699C116.19 3.89599 116.466 3.89099 116.738 3.89099C117.703 3.89099 118.646 3.96299 119.542 4.10399C120.632 4.27699 121.658 4.52799 122.597 4.85399C123.555 5.18799 124.397 5.57299 125.176 6.02599C126.283 5.36099 127.435 4.86699 128.614 4.55799C129.813 4.22399 131.154 4.04199 132.515 4.04199C132.898 4.04199 133.285 4.05599 133.672 4.08399C134.935 4.18099 136.016 4.35499 136.994 4.62099C138.118 4.93099 139.059 5.30999 139.896 5.78899C140.933 6.37899 141.809 7.10399 142.501 7.94899C142.638 8.11499 142.767 8.28299 142.893 8.45599C144.726 7.67499 146.767 7.25699 148.826 7.25699C152.659 7.25699 156.217 8.64899 158.838 11.18C161.726 13.993 163.199 17.954 162.799 21.793C162.446 25.192 160.655 28.147 157.887 29.901C157.065 30.428 156.185 30.826 155.26 31.091C155.269 31.257 155.273 31.421 155.273 31.587C155.273 31.983 155.249 32.371 155.199 32.755C156.268 33.388 157.267 34.149 158.193 35.037C159.856 36.626 161.297 38.373 162.472 40.223C163.696 42.125 164.778 44.274 165.667 46.573C165.683 46.616 165.698 46.656 165.713 46.699C166.791 49.69 167.646 52.665 168.249 55.544C168.828 58.321 169.245 60.712 169.521 62.859C169.851 65.48 170.032 67.844 170.072 70.103C170.117 72.043 170.005 73.756 169.733 75.31C169.438 76.972 169.014 78.402 168.438 79.69C167.829 81.051 167.067 82.264 166.173 83.285C165.343 84.235 164.441 85.05 163.492 85.707C161.246 87.297 158.672 88.153 155.885 88.218C155.829 88.22 155.775 88.22 155.719 88.22C153.186 88.209 150.894 87.609 148.904 86.442C147.106 85.387 145.545 83.963 144.265 82.212C143.169 80.712 142.247 79.01 141.525 77.155C141.277 76.526 141.048 75.886 140.835 75.24C140.417 75.3 139.99 75.332 139.563 75.332C139.242 75.332 138.916 75.314 138.593 75.278C138.013 75.24 137.449 75.159 136.902 75.038C136.441 76.516 135.919 77.852 135.34 79.022C134.575 80.56 133.797 81.835 132.957 82.92C132.934 82.954 132.905 82.985 132.882 83.019C129.852 86.767 126.447 87.871 124.123 88.138C123.897 88.163 123.649 88.176 123.421 88.176C121.2 88.176 119.169 87.779 117.386 86.993C115.733 86.261 114.272 85.294 113.032 84.115C112.88 83.971 112.731 83.823 112.586 83.672C112.2 84.126 111.79 84.555 111.357 84.959C110.189 86.052 108.827 86.915 107.314 87.514C105.799 88.116 104.124 88.419 102.327 88.419C100.343 88.419 98.483 88.035 96.803 87.274C95.362 86.62 94.059 85.776 92.921 84.761C91.793 83.755 90.837 82.613 90.074 81.366C90.024 81.284 89.974 81.204 89.928 81.123C89.196 82.1 88.411 82.973 87.59 83.727C86.666 84.578 85.679 85.317 84.66 85.916C83.68 86.489 82.706 86.947 81.75 87.283C79.75 88.018 77.618 88.388 75.425 88.388C73.566 88.388 71.859 88.173 70.328 87.75C68.848 87.339 67.51 86.794 66.345 86.131C65.822 85.831 65.328 85.509 64.863 85.166C64.27 85.628 63.635 86.048 62.96 86.424C61.774 87.079 60.431 87.593 58.958 87.957C57.532 88.313 55.985 88.486 54.235 88.486Z" fill="#F2F2F2"/>
<mask id="path-2-inside-1" fill="white">
<path d="M51.241 84.594C51.239 84.594 51.236 84.594 51.234 84.594C48.618 84.592 46.241 84.183 44.166 83.382C42.232 82.636 40.631 81.783 39.275 80.775C38.842 80.461 38.424 80.126 38.021 79.769C37.06 80.543 35.994 81.206 34.842 81.743C33.77 82.245 32.63 82.688 31.459 83.054C31.421 83.068 31.383 83.079 31.343 83.09C28.781 83.835 25.88 84.289 22.721 84.435C21.584 84.489 20.562 84.514 19.595 84.514C18.466 84.514 17.45 84.48 16.492 84.408C14.452 84.255 12.724 83.979 11.206 83.562C9.53 83.104 8.033 82.484 6.767 81.725C5.474 80.953 4.358 80.03 3.457 78.988C1.336 76.666 0.141 73.781 0.005 70.637C0.002 70.55 0 70.464 0 70.379C0 68.286 0.33 66.519 1.008 64.979C1.697 63.392 2.713 62.074 4.014 61.07C3.426 59.956 2.936 58.844 2.557 57.769C1.58 54.823 1.268 51.976 1.594 49.207C1.601 49.153 1.608 49.097 1.617 49.043C1.913 47.011 2.463 45.3 3.297 43.818C4.152 42.286 5.246 41.006 6.537 40.025C7.682 39.151 8.975 38.476 10.36 38.033C10.439 38.008 10.517 37.984 10.598 37.959C9.807 37.696 9.05 37.333 8.332 36.87C5.598 35.141 3.805 32.186 3.451 28.787C3.051 24.945 4.524 20.984 7.394 18.189C10.034 15.64 13.589 14.246 17.424 14.246C20.307 14.246 23.152 15.063 25.435 16.545C25.746 16.748 26.053 16.967 26.363 17.208C26.369 17.171 26.378 17.136 26.384 17.1C26.668 15.739 26.979 14.514 27.33 13.388L27.294 13.512C27.786 11.815 28.443 10.281 29.25 8.951C30.034 7.669 30.905 6.54 31.845 5.583C32.885 4.526 34.019 3.657 35.215 3.004C36.196 2.471 37.164 2.038 38.106 1.71C38.158 1.692 38.209 1.674 38.263 1.659C39.895 1.14 41.613 0.878 43.364 0.878C44.058 0.878 44.767 0.918 45.477 1.001C48.342 1.192 50.816 1.962 52.832 3.292C54.555 4.432 55.962 5.71 57.027 7.091C57.246 7.374 57.456 7.666 57.656 7.962C58.529 6.629 59.449 5.526 60.437 4.621C61.8 3.374 63.116 2.454 64.457 1.812C65.887 1.121 67.197 0.726 68.447 0.607C69.335 0.519 69.619 0.503 69.915 0.503C70.077 0.503 70.544 0.524 71.33 0.591C72.498 0.685 73.722 1.022 75.161 1.644C76.374 2.167 77.628 2.921 78.985 3.95C80.027 4.738 81.006 5.706 81.947 6.885C82.057 6.737 82.17 6.591 82.284 6.449C83.146 5.389 84.107 4.47 85.148 3.708C86.193 2.939 87.333 2.316 88.535 1.862C89.448 1.519 90.371 1.238 91.283 1.025C91.319 1.016 91.357 1.006 91.393 1C92.866 0.686 94.44 0.526 96.067 0.526C96.633 0.526 97.212 0.544 97.792 0.582C100.294 0.659 102.373 1.011 104.151 1.66C104.747 1.878 105.301 2.102 105.817 2.338C106.369 1.947 106.962 1.607 107.582 1.323C109.009 0.649 110.728 0.205 112.621 0.034C112.718 0.027 112.816 0.021 112.912 0.016C113.194 0.005 113.469 0 113.741 0C114.707 0 115.65 0.072 116.545 0.214C117.636 0.386 118.661 0.638 119.6 0.964C120.56 1.299 121.401 1.683 122.18 2.136C123.286 1.471 124.438 0.977 125.618 0.668C126.817 0.333 128.157 0.152 129.518 0.152C129.902 0.152 130.288 0.165 130.676 0.194C131.938 0.291 133.02 0.466 133.997 0.731C135.121 1.041 136.062 1.42 136.9 1.899C137.937 2.489 138.812 3.214 139.504 4.059C139.641 4.225 139.772 4.393 139.897 4.566C141.729 3.785 143.77 3.367 145.83 3.367C149.663 3.367 153.22 4.759 155.843 7.289C158.729 10.103 160.203 14.064 159.803 17.903C159.45 21.303 157.658 24.257 154.89 26.011C154.069 26.539 153.188 26.936 152.263 27.201C152.273 27.367 152.277 27.531 152.277 27.697C152.277 28.093 152.253 28.481 152.203 28.865C153.272 29.498 154.271 30.259 155.196 31.147C156.859 32.736 158.3 34.483 159.475 36.333C160.7 38.235 161.781 40.384 162.67 42.683C162.686 42.726 162.701 42.766 162.717 42.809C163.795 45.8 164.649 48.775 165.252 51.654C165.831 54.431 166.248 56.822 166.525 58.969C166.855 61.589 167.036 63.954 167.076 66.213C167.12 68.153 167.008 69.866 166.736 71.42C166.443 73.081 166.017 74.512 165.441 75.8C164.832 77.16 164.071 78.373 163.177 79.395C162.346 80.345 161.444 81.16 160.496 81.818C158.25 83.408 155.675 84.264 152.889 84.329C152.832 84.331 152.779 84.331 152.722 84.331C150.19 84.32 147.897 83.72 145.909 82.553C144.11 81.498 142.549 80.074 141.268 78.323C140.173 76.823 139.25 75.121 138.528 73.266C138.281 72.637 138.051 71.997 137.839 71.351C137.421 71.411 136.994 71.443 136.567 71.443C136.245 71.443 135.919 71.425 135.596 71.389C135.016 71.351 134.453 71.27 133.905 71.149C133.446 72.627 132.923 73.963 132.343 75.132C131.578 76.671 130.8 77.945 129.96 79.03C129.936 79.063 129.907 79.094 129.884 79.128C126.855 82.876 123.45 83.981 121.126 84.248C120.899 84.272 120.653 84.286 120.424 84.286C118.202 84.286 116.171 83.889 114.388 83.102C112.736 82.371 111.275 81.403 110.034 80.224C109.882 80.081 109.733 79.932 109.588 79.782C109.203 80.236 108.793 80.665 108.36 81.069C107.191 82.163 105.829 83.025 104.315 83.624C102.801 84.226 101.125 84.529 99.329 84.529C97.344 84.529 95.484 84.145 93.804 83.384C92.363 82.73 91.061 81.886 89.923 80.871C88.795 79.865 87.839 78.722 87.075 77.476C87.026 77.395 86.976 77.314 86.929 77.233C86.198 78.21 85.414 79.083 84.592 79.837C83.669 80.689 82.681 81.427 81.662 82.026C80.683 82.599 79.708 83.056 78.752 83.393C76.752 84.128 74.62 84.498 72.427 84.498C70.568 84.498 68.861 84.283 67.33 83.86C65.851 83.449 64.512 82.903 63.347 82.241C62.824 81.941 62.33 81.619 61.865 81.276C61.272 81.738 60.637 82.158 59.962 82.533C58.776 83.188 57.434 83.702 55.96 84.066C54.54 84.421 52.993 84.594 51.241 84.594Z"/>
</mask>
<path d="M51.241 84.594C51.239 84.594 51.236 84.594 51.234 84.594C48.618 84.592 46.241 84.183 44.166 83.382C42.232 82.636 40.631 81.783 39.275 80.775C38.842 80.461 38.424 80.126 38.021 79.769C37.06 80.543 35.994 81.206 34.842 81.743C33.77 82.245 32.63 82.688 31.459 83.054C31.421 83.068 31.383 83.079 31.343 83.09C28.781 83.835 25.88 84.289 22.721 84.435C21.584 84.489 20.562 84.514 19.595 84.514C18.466 84.514 17.45 84.48 16.492 84.408C14.452 84.255 12.724 83.979 11.206 83.562C9.53 83.104 8.033 82.484 6.767 81.725C5.474 80.953 4.358 80.03 3.457 78.988C1.336 76.666 0.141 73.781 0.005 70.637C0.002 70.55 0 70.464 0 70.379C0 68.286 0.33 66.519 1.008 64.979C1.697 63.392 2.713 62.074 4.014 61.07C3.426 59.956 2.936 58.844 2.557 57.769C1.58 54.823 1.268 51.976 1.594 49.207C1.601 49.153 1.608 49.097 1.617 49.043C1.913 47.011 2.463 45.3 3.297 43.818C4.152 42.286 5.246 41.006 6.537 40.025C7.682 39.151 8.975 38.476 10.36 38.033C10.439 38.008 10.517 37.984 10.598 37.959C9.807 37.696 9.05 37.333 8.332 36.87C5.598 35.141 3.805 32.186 3.451 28.787C3.051 24.945 4.524 20.984 7.394 18.189C10.034 15.64 13.589 14.246 17.424 14.246C20.307 14.246 23.152 15.063 25.435 16.545C25.746 16.748 26.053 16.967 26.363 17.208C26.369 17.171 26.378 17.136 26.384 17.1C26.668 15.739 26.979 14.514 27.33 13.388L27.294 13.512C27.786 11.815 28.443 10.281 29.25 8.951C30.034 7.669 30.905 6.54 31.845 5.583C32.885 4.526 34.019 3.657 35.215 3.004C36.196 2.471 37.164 2.038 38.106 1.71C38.158 1.692 38.209 1.674 38.263 1.659C39.895 1.14 41.613 0.878 43.364 0.878C44.058 0.878 44.767 0.918 45.477 1.001C48.342 1.192 50.816 1.962 52.832 3.292C54.555 4.432 55.962 5.71 57.027 7.091C57.246 7.374 57.456 7.666 57.656 7.962C58.529 6.629 59.449 5.526 60.437 4.621C61.8 3.374 63.116 2.454 64.457 1.812C65.887 1.121 67.197 0.726 68.447 0.607C69.335 0.519 69.619 0.503 69.915 0.503C70.077 0.503 70.544 0.524 71.33 0.591C72.498 0.685 73.722 1.022 75.161 1.644C76.374 2.167 77.628 2.921 78.985 3.95C80.027 4.738 81.006 5.706 81.947 6.885C82.057 6.737 82.17 6.591 82.284 6.449C83.146 5.389 84.107 4.47 85.148 3.708C86.193 2.939 87.333 2.316 88.535 1.862C89.448 1.519 90.371 1.238 91.283 1.025C91.319 1.016 91.357 1.006 91.393 1C92.866 0.686 94.44 0.526 96.067 0.526C96.633 0.526 97.212 0.544 97.792 0.582C100.294 0.659 102.373 1.011 104.151 1.66C104.747 1.878 105.301 2.102 105.817 2.338C106.369 1.947 106.962 1.607 107.582 1.323C109.009 0.649 110.728 0.205 112.621 0.034C112.718 0.027 112.816 0.021 112.912 0.016C113.194 0.005 113.469 0 113.741 0C114.707 0 115.65 0.072 116.545 0.214C117.636 0.386 118.661 0.638 119.6 0.964C120.56 1.299 121.401 1.683 122.18 2.136C123.286 1.471 124.438 0.977 125.618 0.668C126.817 0.333 128.157 0.152 129.518 0.152C129.902 0.152 130.288 0.165 130.676 0.194C131.938 0.291 133.02 0.466 133.997 0.731C135.121 1.041 136.062 1.42 136.9 1.899C137.937 2.489 138.812 3.214 139.504 4.059C139.641 4.225 139.772 4.393 139.897 4.566C141.729 3.785 143.77 3.367 145.83 3.367C149.663 3.367 153.22 4.759 155.843 7.289C158.729 10.103 160.203 14.064 159.803 17.903C159.45 21.303 157.658 24.257 154.89 26.011C154.069 26.539 153.188 26.936 152.263 27.201C152.273 27.367 152.277 27.531 152.277 27.697C152.277 28.093 152.253 28.481 152.203 28.865C153.272 29.498 154.271 30.259 155.196 31.147C156.859 32.736 158.3 34.483 159.475 36.333C160.7 38.235 161.781 40.384 162.67 42.683C162.686 42.726 162.701 42.766 162.717 42.809C163.795 45.8 164.649 48.775 165.252 51.654C165.831 54.431 166.248 56.822 166.525 58.969C166.855 61.589 167.036 63.954 167.076 66.213C167.12 68.153 167.008 69.866 166.736 71.42C166.443 73.081 166.017 74.512 165.441 75.8C164.832 77.16 164.071 78.373 163.177 79.395C162.346 80.345 161.444 81.16 160.496 81.818C158.25 83.408 155.675 84.264 152.889 84.329C152.832 84.331 152.779 84.331 152.722 84.331C150.19 84.32 147.897 83.72 145.909 82.553C144.11 81.498 142.549 80.074 141.268 78.323C140.173 76.823 139.25 75.121 138.528 73.266C138.281 72.637 138.051 71.997 137.839 71.351C137.421 71.411 136.994 71.443 136.567 71.443C136.245 71.443 135.919 71.425 135.596 71.389C135.016 71.351 134.453 71.27 133.905 71.149C133.446 72.627 132.923 73.963 132.343 75.132C131.578 76.671 130.8 77.945 129.96 79.03C129.936 79.063 129.907 79.094 129.884 79.128C126.855 82.876 123.45 83.981 121.126 84.248C120.899 84.272 120.653 84.286 120.424 84.286C118.202 84.286 116.171 83.889 114.388 83.102C112.736 82.371 111.275 81.403 110.034 80.224C109.882 80.081 109.733 79.932 109.588 79.782C109.203 80.236 108.793 80.665 108.36 81.069C107.191 82.163 105.829 83.025 104.315 83.624C102.801 84.226 101.125 84.529 99.329 84.529C97.344 84.529 95.484 84.145 93.804 83.384C92.363 82.73 91.061 81.886 89.923 80.871C88.795 79.865 87.839 78.722 87.075 77.476C87.026 77.395 86.976 77.314 86.929 77.233C86.198 78.21 85.414 79.083 84.592 79.837C83.669 80.689 82.681 81.427 81.662 82.026C80.683 82.599 79.708 83.056 78.752 83.393C76.752 84.128 74.62 84.498 72.427 84.498C70.568 84.498 68.861 84.283 67.33 83.86C65.851 83.449 64.512 82.903 63.347 82.241C62.824 81.941 62.33 81.619 61.865 81.276C61.272 81.738 60.637 82.158 59.962 82.533C58.776 83.188 57.434 83.702 55.96 84.066C54.54 84.421 52.993 84.594 51.241 84.594Z" fill="#2F2E41" stroke="#F2F2F2" stroke-width="2" mask="url(#path-2-inside-1)"/>
<path d="M10.676 65.484C10.676 66.4742 9.87325 67.277 8.883 67.277C7.89275 67.277 7.09 66.4742 7.09 65.484C7.09 64.4937 7.89275 63.691 8.883 63.691C9.87325 63.691 10.676 64.4937 10.676 65.484Z" fill="#2F2E41" stroke="#F2F2F2"/>
<path d="M8.049 56.855C8.049 57.3703 7.63128 57.788 7.116 57.788C6.60072 57.788 6.183 57.3703 6.183 56.855C6.183 56.3397 6.60072 55.922 7.116 55.922C7.63128 55.922 8.049 56.3397 8.049 56.855Z" fill="#2F2E41" stroke="#F2F2F2"/>
<path d="M4.162 50.764C4.162 50.8838 4.06485 50.981 3.945 50.981C3.82515 50.981 3.728 50.8838 3.728 50.764C3.728 50.6442 3.82515 50.547 3.945 50.547C4.06485 50.547 4.162 50.6442 4.162 50.764Z" fill="#2F2E41" stroke="#F2F2F2"/>
<path d="M11.543 40.764C11.543 40.8838 11.4458 40.981 11.326 40.981C11.2062 40.981 11.109 40.8838 11.109 40.764C11.109 40.6442 11.2062 40.547 11.326 40.547C11.4458 40.547 11.543 40.6442 11.543 40.764Z" fill="#2F2E41" stroke="#F2F2F2"/>
<path d="M56.456 53.153C56.456 54.1432 55.6532 54.946 54.663 54.946C53.6728 54.946 52.87 54.1432 52.87 53.153C52.87 52.1627 53.6728 51.36 54.663 51.36C55.6532 51.36 56.456 52.1627 56.456 53.153Z" fill="#2F2E41" stroke="#F2F2F2"/>
<path d="M59.571 47.302C59.571 47.8178 59.1528 48.236 58.637 48.236C58.1212 48.236 57.703 47.8178 57.703 47.302C57.703 46.7861 58.1212 46.368 58.637 46.368C59.1528 46.368 59.571 46.7861 59.571 47.302Z" fill="#2F2E41" stroke="#F2F2F2"/>
<path d="M55.795 41.87C55.795 41.9898 55.6978 42.087 55.578 42.087C55.4582 42.087 55.361 41.9898 55.361 41.87C55.361 41.7501 55.4582 41.653 55.578 41.653C55.6978 41.653 55.795 41.7501 55.795 41.87Z" fill="#2F2E41" stroke="#F2F2F2"/>
<path d="M57.068 33.666C57.068 33.7858 56.9708 33.883 56.851 33.883C56.7312 33.883 56.634 33.7858 56.634 33.666C56.634 33.5461 56.7312 33.449 56.851 33.449C56.9708 33.449 57.068 33.5461 57.068 33.666Z" fill="#2F2E41" stroke="#F2F2F2"/>
<path d="M71.224 42.312C71.224 42.4318 71.1268 42.529 71.007 42.529C70.8872 42.529 70.79 42.4318 70.79 42.312C70.79 42.1921 70.8872 42.095 71.007 42.095C71.1268 42.095 71.224 42.1921 71.224 42.312Z" fill="#2F2E41" stroke="#F2F2F2"/>
<path d="M162.224 69.109C162.224 70.0993 161.421 70.902 160.431 70.902C159.441 70.902 158.638 70.0993 158.638 69.109C158.638 68.1188 159.441 67.316 160.431 67.316C161.421 67.316 162.224 68.1188 162.224 69.109Z" fill="#2F2E41" stroke="#F2F2F2"/>
<path d="M164.587 62.732C164.587 63.2473 164.169 63.665 163.654 63.665C163.139 63.665 162.721 63.2473 162.721 62.732C162.721 62.2167 163.139 61.799 163.654 61.799C164.169 61.799 164.587 62.2167 164.587 62.732Z" fill="#2F2E41" stroke="#F2F2F2"/>
<path d="M159.884 56.16C159.884 56.2798 159.787 56.377 159.667 56.377C159.547 56.377 159.45 56.2798 159.45 56.16C159.45 56.0402 159.547 55.943 159.667 55.943C159.787 55.943 159.884 56.0401 159.884 56.16Z" fill="#2F2E41" stroke="#F2F2F2"/>
<path d="M162.431 49.231C162.431 49.3503 162.334 49.447 162.215 49.447C162.096 49.447 161.999 49.3503 161.999 49.231C161.999 49.1117 162.096 49.015 162.215 49.015C162.334 49.015 162.431 49.1117 162.431 49.231Z" fill="#2F2E41" stroke="#F2F2F2"/>
<path d="M115.248 44.439C115.248 45.4287 114.446 46.231 113.456 46.231C112.466 46.231 111.664 45.4287 111.664 44.439C111.664 43.4493 112.466 42.647 113.456 42.647C114.446 42.647 115.248 43.4493 115.248 44.439Z" fill="#2F2E41" stroke="#F2F2F2"/>
<path d="M111.167 38.062C111.167 38.5778 110.749 38.996 110.233 38.996C109.717 38.996 109.299 38.5778 109.299 38.062C109.299 37.5462 109.717 37.128 110.233 37.128C110.749 37.128 111.167 37.5462 111.167 38.062Z" fill="#2F2E41" stroke="#F2F2F2"/>
<path d="M114.438 31.49C114.438 31.6099 114.341 31.707 114.221 31.707C114.101 31.707 114.004 31.6099 114.004 31.49C114.004 31.3702 114.101 31.273 114.221 31.273C114.341 31.273 114.438 31.3702 114.438 31.49Z" fill="#2F2E41" stroke="#F2F2F2"/>
<path d="M111.889 24.561C111.889 24.6808 111.792 24.778 111.672 24.778C111.552 24.778 111.455 24.6808 111.455 24.561C111.455 24.4411 111.552 24.344 111.672 24.344C111.792 24.344 111.889 24.4412 111.889 24.561Z" fill="#2F2E41" stroke="#F2F2F2"/>
<mask id="path-20-inside-2" fill="white">
<path d="M52.743 79.507C51.046 79.505 49.572 79.266 48.357 78.799C47.084 78.306 46.033 77.757 45.236 77.167C44.26 76.458 43.466 75.646 42.795 74.676C41.86 73.254 41.127 71.68 40.635 70.032C40.125 68.324 39.737 66.671 39.484 65.108C39.197 63.322 39.036 61.506 39.003 59.714C38.933 58.39 38.99 57.258 39.171 56.296C39.348 55.329 39.609 54.476 39.946 53.755C40.274 53.053 40.651 52.462 41.067 51.998C41.509 51.503 41.964 51.092 42.421 50.772C43.538 49.969 44.783 49.495 46.253 49.31C46.387 49.304 46.61 49.297 46.829 49.297C47.818 49.297 48.702 49.443 49.459 49.728C50.398 50.086 51.214 50.585 51.886 51.211C52.582 51.865 53.179 52.634 53.657 53.494C54.164 54.406 54.575 55.334 54.88 56.253C55.592 58.345 55.992 60.709 56.071 63.291C56.095 64.101 56.758 64.74 57.563 64.74C57.572 64.74 57.583 64.74 57.592 64.74C58.41 64.727 59.067 64.057 59.062 63.239C59.056 61.828 59.264 60.67 59.662 59.893C60.148 58.941 60.684 58.219 61.257 57.746C61.918 57.204 62.658 56.862 63.52 56.705C63.866 56.641 64.188 56.608 64.472 56.608C64.695 56.608 64.899 56.628 65.076 56.668C65.514 56.762 65.883 56.902 66.172 57.085C66.47 57.275 66.717 57.503 66.925 57.774C67.159 58.08 67.345 58.401 67.484 58.735C67.815 59.608 68.005 60.707 68.037 61.963C68.059 62.775 68.724 63.421 69.534 63.421C69.54 63.421 69.547 63.421 69.554 63.421C70.372 63.41 71.032 62.742 71.032 61.924C71.032 59.92 71.165 58.094 71.428 56.499C71.693 54.895 72.047 53.436 72.481 52.166C72.912 50.901 73.4 49.803 73.936 48.899C74.479 47.98 75.037 47.194 75.599 46.564C76.894 45.091 78.339 44.074 79.903 43.531C80.702 43.345 81.431 43.249 82.072 43.249C82.278 43.249 82.477 43.257 82.667 43.277C83.428 43.356 84.083 43.541 84.61 43.829C85.148 44.122 85.586 44.478 85.949 44.919C86.336 45.389 86.651 45.917 86.889 46.486C87.524 47.937 87.874 49.729 87.942 51.839C87.942 54.795 87.743 57.581 87.349 60.069C86.951 62.592 86.495 64.798 85.993 66.628C85.419 68.731 84.769 70.622 84.062 72.253C83.622 73.283 83.141 74.165 82.633 74.877C82.121 75.595 81.583 76.214 81.032 76.724C80.493 77.219 79.933 77.641 79.364 77.976C78.806 78.302 78.265 78.558 77.769 78.733C76.533 79.193 75.285 79.412 73.924 79.414C72.737 79.414 71.703 79.292 70.825 79.047C69.951 78.804 69.186 78.498 68.549 78.137C67.947 77.793 67.442 77.402 67.048 76.975C66.637 76.528 66.311 76.076 66.079 75.631C65.435 74.451 65.112 73.13 65.081 71.563C65.066 70.788 64.46 70.153 63.685 70.1C63.65 70.098 63.617 70.096 63.582 70.096C62.853 70.096 62.223 70.63 62.105 71.361C61.84 73.042 61.315 74.514 60.541 75.736C60.213 76.278 59.825 76.773 59.376 77.231C58.943 77.671 58.422 78.06 57.827 78.389C57.227 78.723 56.499 78.997 55.665 79.203C54.833 79.405 53.85 79.507 52.743 79.507ZM100.824 79.44C99.906 79.44 99.086 79.278 98.385 78.96C97.643 78.621 96.974 78.19 96.404 77.68C95.828 77.17 95.342 76.594 94.958 75.964C94.535 75.275 94.165 74.563 93.861 73.856C93.177 72.167 92.738 70.311 92.531 68.21C92.307 66.626 92.174 64.95 92.121 63.168C92.066 61.314 92.056 59.59 92.093 58.043C92.128 56.189 92.202 54.294 92.315 52.408C92.483 50.207 92.92 48.128 93.612 46.257C93.91 45.487 94.291 44.686 94.737 43.891C95.158 43.142 95.675 42.44 96.276 41.799C96.874 41.162 97.587 40.587 98.389 40.09C99.161 39.611 100.073 39.255 101.094 39.033C101.422 38.992 101.741 38.97 102.05 38.97C102.864 38.97 103.597 39.114 104.291 39.414C104.694 39.588 105.119 39.847 105.554 40.182C105.96 40.497 106.352 40.937 106.722 41.494C107.115 42.09 107.471 42.84 107.78 43.722C108.099 44.635 108.346 45.742 108.517 47.017C108.801 49.62 108.965 52.256 109.004 54.819C109.039 57.421 109.022 59.778 108.949 61.822C108.84 64.183 108.691 66.49 108.51 68.663C108.268 70.742 107.812 72.66 107.162 74.313C106.878 74.953 106.516 75.646 106.104 76.32C105.735 76.933 105.277 77.498 104.748 77.994C104.263 78.45 103.691 78.81 103.053 79.064C102.423 79.313 101.674 79.44 100.824 79.44ZM21.089 79.427C20.164 79.427 19.308 79.399 18.546 79.342C17.001 79.228 15.738 79.031 14.69 78.742C13.657 78.462 12.794 78.115 12.115 77.707C11.469 77.32 10.952 76.895 10.576 76.444C9.558 75.352 9.039 74.116 8.979 72.709C8.981 71.768 9.11 70.945 9.353 70.394C9.572 69.895 9.848 69.54 10.198 69.309C10.605 69.04 11.079 68.862 11.644 68.77C12.159 68.685 12.695 68.643 13.233 68.643C13.371 68.643 13.511 68.645 13.649 68.65C15.216 68.734 17.179 69.125 19.63 69.84C19.768 69.88 19.908 69.899 20.046 69.899C20.674 69.899 21.258 69.501 21.468 68.877C21.722 68.113 21.329 67.286 20.578 67.002C19.09 66.44 17.786 65.774 16.703 65.026C15.652 64.301 14.744 63.505 14 62.657C13.278 61.837 12.679 60.99 12.219 60.138C11.761 59.289 11.392 58.464 11.121 57.687C10.53 55.913 10.329 54.151 10.525 52.479C10.68 51.426 10.947 50.538 11.317 49.883C11.676 49.24 12.092 48.739 12.555 48.386C13.052 48.01 13.568 47.739 14.14 47.554C14.742 47.366 15.363 47.246 15.978 47.204C16.271 47.184 16.569 47.176 16.871 47.176C18.197 47.176 19.67 47.37 21.248 47.758C24.369 48.384 27.277 48.994 29.269 49.762C31.195 50.497 32.536 51.21 33.378 51.95C34.162 52.638 34.641 53.32 34.803 53.979C35.003 54.784 35.075 55.495 35.015 56.093C34.943 56.664 34.767 57.139 34.488 57.502C34.168 57.916 33.779 58.244 33.296 58.504C32.759 58.791 32.14 59.009 31.453 59.15C30.757 59.295 30.039 59.366 29.32 59.366C29.307 59.366 29.202 59.366 29.189 59.366L28.839 59.371C27.019 59.371 25.053 59.045 22.998 58.404C22.849 58.358 22.701 58.336 22.552 58.336C21.922 58.336 21.337 58.734 21.129 59.364C20.876 60.141 21.289 60.979 22.064 61.246C23.894 61.878 25.81 62.557 27.43 63.226C29.006 63.878 30.268 64.476 31.294 65.058C32.376 65.671 33.22 66.238 33.872 66.791C34.544 67.36 35.098 67.907 35.52 68.419C36.42 69.518 36.872 70.596 36.903 71.714C36.903 72.708 36.745 73.561 36.422 74.279C36.1 74.992 35.682 75.576 35.141 76.064C34.572 76.581 33.932 77.003 33.176 77.353C32.382 77.728 31.559 78.046 30.727 78.305C28.757 78.879 26.444 79.235 23.873 79.353C22.889 79.402 21.96 79.427 21.089 79.427ZM154.217 79.243C153.02 79.234 152.03 78.989 151.197 78.494C150.283 77.962 149.482 77.224 148.806 76.301C148.093 75.324 147.482 74.192 146.99 72.935C146.485 71.646 146.067 70.302 145.748 68.948C144.958 65.749 144.542 62.21 144.51 58.413C144.503 57.61 143.862 56.955 143.061 56.929C143.045 56.929 143.03 56.929 143.014 56.929C142.232 56.929 141.576 57.531 141.52 58.317C141.303 61.297 140.846 62.866 140.5 63.658C139.862 65.114 139.357 65.672 139.11 65.875C138.62 66.308 138.279 66.354 138.06 66.354C137.99 66.354 137.917 66.348 137.843 66.337C137.788 66.328 137.736 66.323 137.681 66.321C136.683 66.278 135.965 65.923 135.423 65.198C134.713 64.257 134.175 63.205 133.82 62.067C133.373 60.697 133.098 59.143 132.995 57.432C132.944 56.64 132.291 56.027 131.501 56.027C131.485 56.027 131.47 56.027 131.455 56.027C130.646 56.053 130.004 56.715 130.004 57.524C130.004 60.194 129.867 62.614 129.602 64.721C129.33 66.858 128.978 68.724 128.555 70.271C128.135 71.824 127.656 73.146 127.131 74.201C126.601 75.269 126.065 76.157 125.535 76.845C124.408 78.237 123.195 79.013 121.854 79.198C120.698 79.189 119.707 79.006 118.901 78.648C118.044 78.27 117.299 77.784 116.686 77.2C116.061 76.605 115.54 75.922 115.139 75.167C114.701 74.348 114.343 73.51 114.078 72.676C113.46 70.656 113.145 68.362 113.145 65.873C113.145 62.299 113.349 59.165 113.771 56.29C114.177 53.487 114.643 51.042 115.156 49.024C115.754 46.759 116.443 44.68 117.2 42.859C118.073 40.66 119.107 39.014 120.277 37.944C121.457 36.867 122.588 36.092 123.641 35.637C124.772 35.16 125.94 34.915 127.102 34.915L127.295 34.917L127.643 34.913C128.59 34.913 129.449 35.046 130.195 35.311C131.01 35.6 131.715 35.98 132.28 36.44C132.86 36.911 133.352 37.458 133.745 38.068C134.168 38.726 134.513 39.407 134.773 40.088C135.412 41.791 135.773 43.786 135.84 46.016C135.863 46.802 136.495 47.436 137.28 47.465C137.301 47.465 137.32 47.467 137.34 47.467C138.101 47.467 138.744 46.891 138.825 46.128C139.062 43.898 139.573 41.979 140.346 40.427C140.658 39.821 141.052 39.213 141.51 38.639C141.924 38.116 142.42 37.667 142.987 37.299C143.523 36.956 144.163 36.713 144.886 36.584C145.159 36.534 145.451 36.51 145.753 36.51C146.272 36.51 146.84 36.582 147.448 36.724C148.978 37.081 150.344 37.827 151.509 38.943C152.744 40.125 153.799 41.398 154.647 42.733C155.624 44.252 156.474 45.946 157.181 47.773C158.137 50.427 158.894 53.065 159.419 55.581C159.944 58.1 160.341 60.367 160.596 62.321C160.883 64.602 161.048 66.761 161.082 68.736C161.117 70.2 161.04 71.469 160.856 72.518C160.675 73.542 160.421 74.422 160.102 75.128C159.793 75.824 159.436 76.404 159.036 76.859C158.604 77.351 158.165 77.754 157.724 78.06C156.665 78.816 155.489 79.21 154.217 79.243Z"/>
</mask>
<path d="M52.743 79.507C51.046 79.505 49.572 79.266 48.357 78.799C47.084 78.306 46.033 77.757 45.236 77.167C44.26 76.458 43.466 75.646 42.795 74.676C41.86 73.254 41.127 71.68 40.635 70.032C40.125 68.324 39.737 66.671 39.484 65.108C39.197 63.322 39.036 61.506 39.003 59.714C38.933 58.39 38.99 57.258 39.171 56.296C39.348 55.329 39.609 54.476 39.946 53.755C40.274 53.053 40.651 52.462 41.067 51.998C41.509 51.503 41.964 51.092 42.421 50.772C43.538 49.969 44.783 49.495 46.253 49.31C46.387 49.304 46.61 49.297 46.829 49.297C47.818 49.297 48.702 49.443 49.459 49.728C50.398 50.086 51.214 50.585 51.886 51.211C52.582 51.865 53.179 52.634 53.657 53.494C54.164 54.406 54.575 55.334 54.88 56.253C55.592 58.345 55.992 60.709 56.071 63.291C56.095 64.101 56.758 64.74 57.563 64.74C57.572 64.74 57.583 64.74 57.592 64.74C58.41 64.727 59.067 64.057 59.062 63.239C59.056 61.828 59.264 60.67 59.662 59.893C60.148 58.941 60.684 58.219 61.257 57.746C61.918 57.204 62.658 56.862 63.52 56.705C63.866 56.641 64.188 56.608 64.472 56.608C64.695 56.608 64.899 56.628 65.076 56.668C65.514 56.762 65.883 56.902 66.172 57.085C66.47 57.275 66.717 57.503 66.925 57.774C67.159 58.08 67.345 58.401 67.484 58.735C67.815 59.608 68.005 60.707 68.037 61.963C68.059 62.775 68.724 63.421 69.534 63.421C69.54 63.421 69.547 63.421 69.554 63.421C70.372 63.41 71.032 62.742 71.032 61.924C71.032 59.92 71.165 58.094 71.428 56.499C71.693 54.895 72.047 53.436 72.481 52.166C72.912 50.901 73.4 49.803 73.936 48.899C74.479 47.98 75.037 47.194 75.599 46.564C76.894 45.091 78.339 44.074 79.903 43.531C80.702 43.345 81.431 43.249 82.072 43.249C82.278 43.249 82.477 43.257 82.667 43.277C83.428 43.356 84.083 43.541 84.61 43.829C85.148 44.122 85.586 44.478 85.949 44.919C86.336 45.389 86.651 45.917 86.889 46.486C87.524 47.937 87.874 49.729 87.942 51.839C87.942 54.795 87.743 57.581 87.349 60.069C86.951 62.592 86.495 64.798 85.993 66.628C85.419 68.731 84.769 70.622 84.062 72.253C83.622 73.283 83.141 74.165 82.633 74.877C82.121 75.595 81.583 76.214 81.032 76.724C80.493 77.219 79.933 77.641 79.364 77.976C78.806 78.302 78.265 78.558 77.769 78.733C76.533 79.193 75.285 79.412 73.924 79.414C72.737 79.414 71.703 79.292 70.825 79.047C69.951 78.804 69.186 78.498 68.549 78.137C67.947 77.793 67.442 77.402 67.048 76.975C66.637 76.528 66.311 76.076 66.079 75.631C65.435 74.451 65.112 73.13 65.081 71.563C65.066 70.788 64.46 70.153 63.685 70.1C63.65 70.098 63.617 70.096 63.582 70.096C62.853 70.096 62.223 70.63 62.105 71.361C61.84 73.042 61.315 74.514 60.541 75.736C60.213 76.278 59.825 76.773 59.376 77.231C58.943 77.671 58.422 78.06 57.827 78.389C57.227 78.723 56.499 78.997 55.665 79.203C54.833 79.405 53.85 79.507 52.743 79.507ZM100.824 79.44C99.906 79.44 99.086 79.278 98.385 78.96C97.643 78.621 96.974 78.19 96.404 77.68C95.828 77.17 95.342 76.594 94.958 75.964C94.535 75.275 94.165 74.563 93.861 73.856C93.177 72.167 92.738 70.311 92.531 68.21C92.307 66.626 92.174 64.95 92.121 63.168C92.066 61.314 92.056 59.59 92.093 58.043C92.128 56.189 92.202 54.294 92.315 52.408C92.483 50.207 92.92 48.128 93.612 46.257C93.91 45.487 94.291 44.686 94.737 43.891C95.158 43.142 95.675 42.44 96.276 41.799C96.874 41.162 97.587 40.587 98.389 40.09C99.161 39.611 100.073 39.255 101.094 39.033C101.422 38.992 101.741 38.97 102.05 38.97C102.864 38.97 103.597 39.114 104.291 39.414C104.694 39.588 105.119 39.847 105.554 40.182C105.96 40.497 106.352 40.937 106.722 41.494C107.115 42.09 107.471 42.84 107.78 43.722C108.099 44.635 108.346 45.742 108.517 47.017C108.801 49.62 108.965 52.256 109.004 54.819C109.039 57.421 109.022 59.778 108.949 61.822C108.84 64.183 108.691 66.49 108.51 68.663C108.268 70.742 107.812 72.66 107.162 74.313C106.878 74.953 106.516 75.646 106.104 76.32C105.735 76.933 105.277 77.498 104.748 77.994C104.263 78.45 103.691 78.81 103.053 79.064C102.423 79.313 101.674 79.44 100.824 79.44ZM21.089 79.427C20.164 79.427 19.308 79.399 18.546 79.342C17.001 79.228 15.738 79.031 14.69 78.742C13.657 78.462 12.794 78.115 12.115 77.707C11.469 77.32 10.952 76.895 10.576 76.444C9.558 75.352 9.039 74.116 8.979 72.709C8.981 71.768 9.11 70.945 9.353 70.394C9.572 69.895 9.848 69.54 10.198 69.309C10.605 69.04 11.079 68.862 11.644 68.77C12.159 68.685 12.695 68.643 13.233 68.643C13.371 68.643 13.511 68.645 13.649 68.65C15.216 68.734 17.179 69.125 19.63 69.84C19.768 69.88 19.908 69.899 20.046 69.899C20.674 69.899 21.258 69.501 21.468 68.877C21.722 68.113 21.329 67.286 20.578 67.002C19.09 66.44 17.786 65.774 16.703 65.026C15.652 64.301 14.744 63.505 14 62.657C13.278 61.837 12.679 60.99 12.219 60.138C11.761 59.289 11.392 58.464 11.121 57.687C10.53 55.913 10.329 54.151 10.525 52.479C10.68 51.426 10.947 50.538 11.317 49.883C11.676 49.24 12.092 48.739 12.555 48.386C13.052 48.01 13.568 47.739 14.14 47.554C14.742 47.366 15.363 47.246 15.978 47.204C16.271 47.184 16.569 47.176 16.871 47.176C18.197 47.176 19.67 47.37 21.248 47.758C24.369 48.384 27.277 48.994 29.269 49.762C31.195 50.497 32.536 51.21 33.378 51.95C34.162 52.638 34.641 53.32 34.803 53.979C35.003 54.784 35.075 55.495 35.015 56.093C34.943 56.664 34.767 57.139 34.488 57.502C34.168 57.916 33.779 58.244 33.296 58.504C32.759 58.791 32.14 59.009 31.453 59.15C30.757 59.295 30.039 59.366 29.32 59.366C29.307 59.366 29.202 59.366 29.189 59.366L28.839 59.371C27.019 59.371 25.053 59.045 22.998 58.404C22.849 58.358 22.701 58.336 22.552 58.336C21.922 58.336 21.337 58.734 21.129 59.364C20.876 60.141 21.289 60.979 22.064 61.246C23.894 61.878 25.81 62.557 27.43 63.226C29.006 63.878 30.268 64.476 31.294 65.058C32.376 65.671 33.22 66.238 33.872 66.791C34.544 67.36 35.098 67.907 35.52 68.419C36.42 69.518 36.872 70.596 36.903 71.714C36.903 72.708 36.745 73.561 36.422 74.279C36.1 74.992 35.682 75.576 35.141 76.064C34.572 76.581 33.932 77.003 33.176 77.353C32.382 77.728 31.559 78.046 30.727 78.305C28.757 78.879 26.444 79.235 23.873 79.353C22.889 79.402 21.96 79.427 21.089 79.427ZM154.217 79.243C153.02 79.234 152.03 78.989 151.197 78.494C150.283 77.962 149.482 77.224 148.806 76.301C148.093 75.324 147.482 74.192 146.99 72.935C146.485 71.646 146.067 70.302 145.748 68.948C144.958 65.749 144.542 62.21 144.51 58.413C144.503 57.61 143.862 56.955 143.061 56.929C143.045 56.929 143.03 56.929 143.014 56.929C142.232 56.929 141.576 57.531 141.52 58.317C141.303 61.297 140.846 62.866 140.5 63.658C139.862 65.114 139.357 65.672 139.11 65.875C138.62 66.308 138.279 66.354 138.06 66.354C137.99 66.354 137.917 66.348 137.843 66.337C137.788 66.328 137.736 66.323 137.681 66.321C136.683 66.278 135.965 65.923 135.423 65.198C134.713 64.257 134.175 63.205 133.82 62.067C133.373 60.697 133.098 59.143 132.995 57.432C132.944 56.64 132.291 56.027 131.501 56.027C131.485 56.027 131.47 56.027 131.455 56.027C130.646 56.053 130.004 56.715 130.004 57.524C130.004 60.194 129.867 62.614 129.602 64.721C129.33 66.858 128.978 68.724 128.555 70.271C128.135 71.824 127.656 73.146 127.131 74.201C126.601 75.269 126.065 76.157 125.535 76.845C124.408 78.237 123.195 79.013 121.854 79.198C120.698 79.189 119.707 79.006 118.901 78.648C118.044 78.27 117.299 77.784 116.686 77.2C116.061 76.605 115.54 75.922 115.139 75.167C114.701 74.348 114.343 73.51 114.078 72.676C113.46 70.656 113.145 68.362 113.145 65.873C113.145 62.299 113.349 59.165 113.771 56.29C114.177 53.487 114.643 51.042 115.156 49.024C115.754 46.759 116.443 44.68 117.2 42.859C118.073 40.66 119.107 39.014 120.277 37.944C121.457 36.867 122.588 36.092 123.641 35.637C124.772 35.16 125.94 34.915 127.102 34.915L127.295 34.917L127.643 34.913C128.59 34.913 129.449 35.046 130.195 35.311C131.01 35.6 131.715 35.98 132.28 36.44C132.86 36.911 133.352 37.458 133.745 38.068C134.168 38.726 134.513 39.407 134.773 40.088C135.412 41.791 135.773 43.786 135.84 46.016C135.863 46.802 136.495 47.436 137.28 47.465C137.301 47.465 137.32 47.467 137.34 47.467C138.101 47.467 138.744 46.891 138.825 46.128C139.062 43.898 139.573 41.979 140.346 40.427C140.658 39.821 141.052 39.213 141.51 38.639C141.924 38.116 142.42 37.667 142.987 37.299C143.523 36.956 144.163 36.713 144.886 36.584C145.159 36.534 145.451 36.51 145.753 36.51C146.272 36.51 146.84 36.582 147.448 36.724C148.978 37.081 150.344 37.827 151.509 38.943C152.744 40.125 153.799 41.398 154.647 42.733C155.624 44.252 156.474 45.946 157.181 47.773C158.137 50.427 158.894 53.065 159.419 55.581C159.944 58.1 160.341 60.367 160.596 62.321C160.883 64.602 161.048 66.761 161.082 68.736C161.117 70.2 161.04 71.469 160.856 72.518C160.675 73.542 160.421 74.422 160.102 75.128C159.793 75.824 159.436 76.404 159.036 76.859C158.604 77.351 158.165 77.754 157.724 78.06C156.665 78.816 155.489 79.21 154.217 79.243Z" fill="#2F2E41" stroke="#F2F2F2" stroke-width="2" mask="url(#path-20-inside-2)"/>
<path d="M51.245 77.111C49.549 77.109 48.074 76.87 46.859 76.402C45.586 75.91 44.535 75.36 43.738 74.77C42.762 74.061 41.968 73.249 41.297 72.279C40.362 70.857 39.63 69.283 39.137 67.635C38.628 65.927 38.24 64.274 37.986 62.711C37.699 60.925 37.537 59.109 37.505 57.317C37.435 55.993 37.492 54.861 37.673 53.899C37.851 52.932 38.111 52.079 38.448 51.358C38.776 50.656 39.152 50.065 39.568 49.601C40.01 49.106 40.465 48.695 40.922 48.375C42.039 47.572 43.283 47.097 44.754 46.913C44.888 46.907 45.111 46.9 45.33 46.9C46.319 46.9 47.203 47.046 47.96 47.331C48.899 47.689 49.715 48.188 50.387 48.814C51.083 49.468 51.68 50.236 52.158 51.097C52.666 52.009 53.077 52.937 53.381 53.856C54.092 55.948 54.492 58.312 54.571 60.894C54.595 61.704 55.259 62.343 56.064 62.343C56.073 62.343 56.084 62.343 56.092 62.343C56.91 62.33 57.567 61.66 57.563 60.842C57.557 59.431 57.765 58.273 58.163 57.496C58.648 56.545 59.185 55.822 59.758 55.35C60.419 54.807 61.159 54.465 62.021 54.308C62.367 54.244 62.689 54.211 62.973 54.211C63.197 54.211 63.4 54.231 63.577 54.271C64.015 54.365 64.384 54.505 64.673 54.688C64.97 54.878 65.218 55.106 65.426 55.377C65.66 55.683 65.846 56.005 65.984 56.338C66.315 57.211 66.505 58.309 66.537 59.566C66.559 60.378 67.225 61.024 68.035 61.024C68.041 61.024 68.048 61.024 68.055 61.024C68.873 61.013 69.532 60.345 69.532 59.527C69.532 57.523 69.665 55.697 69.928 54.102C70.193 52.498 70.547 51.039 70.981 49.769C71.412 48.504 71.9 47.406 72.436 46.502C72.979 45.583 73.537 44.797 74.099 44.167C75.394 42.694 76.839 41.677 78.403 41.134C79.202 40.948 79.931 40.852 80.572 40.852C80.778 40.852 80.977 40.86 81.167 40.88C81.929 40.959 82.583 41.143 83.11 41.432C83.648 41.725 84.086 42.081 84.449 42.522C84.837 42.992 85.152 43.52 85.39 44.089C86.025 45.54 86.375 47.332 86.442 49.442C86.442 52.398 86.243 55.185 85.849 57.672C85.451 60.195 84.996 62.401 84.493 64.231C83.919 66.335 83.269 68.225 82.562 69.856C82.122 70.886 81.641 71.768 81.133 72.48C80.621 73.198 80.083 73.817 79.531 74.327C78.992 74.821 78.432 75.244 77.863 75.578C77.305 75.904 76.765 76.16 76.268 76.335C75.032 76.795 73.785 77.014 72.423 77.016C71.236 77.016 70.202 76.894 69.324 76.648C68.45 76.405 67.685 76.099 67.048 75.738C66.446 75.394 65.941 75.003 65.547 74.576C65.136 74.129 64.81 73.677 64.578 73.232C63.934 72.052 63.611 70.731 63.58 69.164C63.565 68.389 62.958 67.754 62.184 67.701C62.149 67.699 62.117 67.697 62.081 67.697C61.352 67.697 60.722 68.231 60.603 68.962C60.338 70.643 59.813 72.115 59.039 73.337C58.711 73.879 58.323 74.374 57.875 74.832C57.441 75.271 56.921 75.661 56.325 75.989C55.725 76.323 54.997 76.597 54.163 76.803C53.334 77.009 52.352 77.111 51.245 77.111ZM99.329 77.043C98.411 77.043 97.591 76.881 96.888 76.564C96.145 76.225 95.477 75.794 94.906 75.284C94.33 74.774 93.844 74.199 93.46 73.568C93.037 72.879 92.667 72.167 92.363 71.46C91.68 69.771 91.24 67.915 91.033 65.814C90.809 64.23 90.676 62.554 90.623 60.772C90.568 58.918 90.558 57.194 90.596 55.647C90.63 53.793 90.704 51.898 90.817 50.012C90.985 47.811 91.422 45.732 92.115 43.861C92.413 43.091 92.793 42.29 93.239 41.495C93.66 40.746 94.177 40.044 94.778 39.403C95.376 38.766 96.089 38.191 96.892 37.694C97.667 37.215 98.578 36.858 99.599 36.637C99.927 36.596 100.246 36.574 100.555 36.574C101.369 36.574 102.102 36.718 102.796 37.018C103.198 37.193 103.624 37.451 104.059 37.786C104.465 38.101 104.858 38.541 105.227 39.099C105.62 39.694 105.976 40.445 106.284 41.327C106.604 42.24 106.851 43.347 107.022 44.622C107.306 47.225 107.47 49.861 107.509 52.424C107.544 55.026 107.527 57.383 107.454 59.427C107.346 61.788 107.196 64.095 107.015 66.268C106.772 68.347 106.318 70.265 105.666 71.918C105.383 72.558 105.02 73.251 104.609 73.925C104.24 74.538 103.782 75.103 103.253 75.599C102.768 76.055 102.196 76.415 101.558 76.669C100.927 76.916 100.179 77.043 99.329 77.043ZM19.592 77.03C18.667 77.03 17.811 77.002 17.049 76.945C15.504 76.831 14.241 76.634 13.193 76.345C12.16 76.065 11.297 75.718 10.618 75.31C9.973 74.923 9.456 74.498 9.079 74.047C8.061 72.955 7.543 71.719 7.482 70.312C7.484 69.371 7.613 68.548 7.856 67.997C8.075 67.498 8.351 67.143 8.702 66.912C9.108 66.643 9.583 66.466 10.148 66.374C10.663 66.288 11.199 66.247 11.737 66.247C11.875 66.247 12.015 66.249 12.153 66.254C13.719 66.339 15.682 66.729 18.133 67.444C18.271 67.484 18.411 67.503 18.549 67.503C19.177 67.503 19.762 67.105 19.971 66.482C20.225 65.718 19.831 64.89 19.08 64.607C17.592 64.045 16.288 63.379 15.205 62.631C14.155 61.906 13.246 61.11 12.502 60.262C11.78 59.442 11.18 58.595 10.721 57.743C10.263 56.894 9.894 56.069 9.622 55.292C9.031 53.518 8.83 51.756 9.027 50.084C9.182 49.031 9.449 48.143 9.819 47.489C10.177 46.845 10.593 46.344 11.057 45.992C11.554 45.616 12.07 45.345 12.641 45.16C13.243 44.972 13.864 44.852 14.479 44.81C14.772 44.79 15.07 44.782 15.372 44.782C16.698 44.782 18.171 44.976 19.749 45.364C22.869 45.99 25.778 46.6 27.77 47.368C29.696 48.104 31.037 48.817 31.879 49.556C32.663 50.244 33.142 50.926 33.304 51.585C33.504 52.39 33.575 53.101 33.516 53.699C33.444 54.27 33.268 54.745 32.988 55.108C32.669 55.522 32.279 55.85 31.796 56.11C31.26 56.397 30.641 56.615 29.953 56.756C29.257 56.9 28.539 56.972 27.82 56.972C27.807 56.972 27.702 56.972 27.688 56.972L27.338 56.977C25.518 56.977 23.552 56.651 21.498 56.01C21.349 55.964 21.2 55.942 21.052 55.942C20.422 55.942 19.837 56.34 19.629 56.97C19.376 57.747 19.789 58.585 20.564 58.852C22.394 59.484 24.311 60.163 25.93 60.832C27.505 61.484 28.768 62.082 29.794 62.664C30.875 63.276 31.72 63.844 32.372 64.397C33.044 64.966 33.598 65.513 34.02 66.025C34.92 67.124 35.373 68.202 35.403 69.32C35.403 70.314 35.245 71.167 34.922 71.885C34.6 72.598 34.182 73.182 33.642 73.671C33.073 74.187 32.432 74.609 31.677 74.96C30.883 75.334 30.06 75.653 29.228 75.911C27.259 76.485 24.946 76.841 22.374 76.959C21.391 77.006 20.462 77.03 19.592 77.03ZM152.722 76.847C151.525 76.838 150.536 76.593 149.701 76.098C148.789 75.566 147.986 74.828 147.311 73.905C146.598 72.929 145.988 71.796 145.495 70.539C144.99 69.25 144.572 67.907 144.252 66.552C143.463 63.353 143.047 59.814 143.014 56.017C143.008 55.214 142.367 54.559 141.565 54.533C141.55 54.533 141.535 54.533 141.519 54.533C140.737 54.533 140.081 55.135 140.025 55.921C139.808 58.901 139.351 60.47 139.005 61.262C138.367 62.718 137.862 63.275 137.615 63.479C137.125 63.912 136.784 63.958 136.565 63.958C136.495 63.958 136.422 63.952 136.348 63.941C136.293 63.932 136.241 63.927 136.186 63.925C135.188 63.882 134.47 63.527 133.928 62.802C133.218 61.861 132.68 60.809 132.325 59.671C131.878 58.301 131.603 56.748 131.5 55.036C131.449 54.244 130.795 53.631 130.006 53.631C129.99 53.631 129.975 53.631 129.959 53.631C129.151 53.657 128.509 54.319 128.509 55.128C128.509 57.798 128.372 60.218 128.107 62.325C127.835 64.462 127.483 66.328 127.06 67.875C126.64 69.428 126.161 70.75 125.635 71.805C125.106 72.873 124.569 73.762 124.04 74.449C122.913 75.841 121.7 76.617 120.358 76.802C119.202 76.793 118.212 76.609 117.406 76.252C116.549 75.874 115.804 75.388 115.191 74.804C114.566 74.209 114.045 73.526 113.644 72.771C113.206 71.952 112.848 71.114 112.583 70.28C111.965 68.26 111.65 65.966 111.65 63.477C111.65 59.903 111.853 56.769 112.276 53.894C112.682 51.091 113.148 48.646 113.661 46.628C114.259 44.363 114.948 42.284 115.705 40.463C116.579 38.264 117.611 36.618 118.782 35.548C119.962 34.471 121.093 33.697 122.145 33.241C123.277 32.764 124.445 32.519 125.607 32.519L125.8 32.521L126.148 32.516C127.095 32.516 127.954 32.65 128.7 32.915C129.516 33.204 130.22 33.584 130.785 34.044C131.365 34.515 131.857 35.062 132.25 35.672C132.673 36.33 133.018 37.011 133.278 37.692C133.917 39.395 134.278 41.39 134.345 43.62C134.368 44.406 135 45.04 135.785 45.069C135.805 45.069 135.824 45.071 135.844 45.071C136.606 45.071 137.249 44.495 137.33 43.732C137.566 41.502 138.078 39.583 138.851 38.031C139.163 37.425 139.557 36.817 140.014 36.243C140.428 35.72 140.924 35.271 141.492 34.903C142.028 34.56 142.667 34.317 143.391 34.188C143.664 34.138 143.955 34.114 144.258 34.114C144.777 34.114 145.345 34.186 145.953 34.328C147.483 34.685 148.849 35.431 150.014 36.547C151.249 37.729 152.304 39.003 153.151 40.337C154.128 41.856 154.979 43.55 155.686 45.377C156.642 48.031 157.399 50.669 157.924 53.185C158.449 55.704 158.845 57.971 159.101 59.925C159.388 62.206 159.552 64.365 159.587 66.34C159.622 67.804 159.545 69.073 159.361 70.122C159.18 71.146 158.926 72.026 158.606 72.732C158.297 73.428 157.942 74.008 157.54 74.464C157.109 74.956 156.67 75.359 156.228 75.665C155.169 76.419 153.994 76.813 152.722 76.847Z" fill="#F2F2F2"/>
<path d="M123.44 13.3796L123.926 14.4442L124.359 13.3571C124.897 12.008 125.566 11.1108 126.341 10.5397C127.168 9.93276 127.975 9.5432 128.765 9.33435L128.765 9.33439L128.771 9.33265C129.703 9.07313 130.677 8.98265 131.696 9.05956L131.697 9.05959C132.531 9.122 133.228 9.23218 133.791 9.38526C134.368 9.54418 134.828 9.72543 135.183 9.92743C135.546 10.1347 135.808 10.3509 135.987 10.5692L135.988 10.5707C136.188 10.8132 136.343 11.0567 136.458 11.2957C136.672 11.8466 136.704 12.4863 136.518 13.2382C136.195 14.1649 135.666 14.9871 134.924 15.6928C134.141 16.4376 133.351 17.057 132.556 17.5447L132.556 17.5447L132.551 17.5477C131.614 18.1368 130.598 18.6448 129.501 19.072L129.027 19.2564L129.219 19.7268C129.734 20.9889 129.955 22.1404 129.906 23.1586C129.853 24.2379 129.712 25.1651 129.486 25.9276C129.205 26.8271 128.816 27.6411 128.316 28.3681C127.742 29.088 127.109 29.601 126.419 29.9189C125.711 30.2452 124.863 30.4406 123.866 30.4988C123.036 30.5472 122.336 30.5128 121.762 30.3995L121.762 30.3994C121.153 30.2797 120.679 30.1364 120.327 29.974L120.319 29.9703L120.311 29.9668C119.871 29.7823 119.519 29.5664 119.248 29.3257C118.854 28.9606 118.532 28.5632 118.278 28.1328C118.017 27.6905 117.811 27.2256 117.662 26.7384C117.51 26.2431 117.409 25.7431 117.361 25.2399L117.361 25.238C117.308 24.7151 117.283 24.2249 117.283 23.767C117.283 22.6771 117.423 21.5623 117.709 20.4346L117.83 19.954L117.351 19.8283C116.018 19.479 114.808 19.0154 113.722 18.4333L113.719 18.4316C113.257 18.1881 112.799 17.9074 112.347 17.5899C111.903 17.2781 111.49 16.9286 111.109 16.5421C110.737 16.1643 110.421 15.7486 110.162 15.2962C109.909 14.8552 109.732 14.3773 109.637 13.8643L109.637 13.8642L109.635 13.8578C109.511 13.2371 109.505 12.7141 109.596 12.2795L109.596 12.2784C109.692 11.8113 109.846 11.4173 110.052 11.0861C110.265 10.7433 110.517 10.4561 110.806 10.2211L110.807 10.2207C111.109 9.97476 111.427 9.77666 111.762 9.62391L111.762 9.62395L111.768 9.62129C112.585 9.23636 113.552 8.99581 114.684 8.89307C115.534 8.85921 116.313 8.90397 117.024 9.01581C117.75 9.13211 118.398 9.28967 118.967 9.48884L118.968 9.48917C119.544 9.68992 120.048 9.92059 120.484 10.1791C120.931 10.4438 121.313 10.7184 121.632 11.0033L121.632 11.0035L121.642 11.0117C122.418 11.668 123.014 12.4469 123.44 13.3796Z" fill="#2F2E41" stroke="#F2F2F2"/>
<path d="M46.3874 9.86018L46.3699 9.85796C44.7248 9.64872 43.1809 9.77679 41.7327 10.2362C41.1204 10.4519 40.4851 10.7376 39.8228 11.0963C39.1905 11.4412 38.5735 11.9161 37.9739 12.5262C37.3753 13.1361 36.8141 13.8678 36.295 14.719C35.7873 15.5542 35.3623 16.5531 35.024 17.7139L35.0214 17.723L35.0213 17.723C34.7313 18.6515 34.4692 19.698 34.2296 20.8535L34.2289 20.857L34.2288 20.857C34.0194 21.8318 33.8347 23.0225 33.6748 24.4223L46.3874 9.86018ZM46.3874 9.86018L46.4049 9.86116M46.3874 9.86018L46.4049 9.86116M46.4049 9.86116C48.246 9.96479 49.687 10.3965 50.7598 11.1034C51.8902 11.8512 52.7618 12.6315 53.3888 13.446L53.3894 13.4468M46.4049 9.86116L53.3894 13.4468M53.3894 13.4468C54.1225 14.3949 54.6547 15.4643 54.9883 16.6546M53.3894 13.4468L54.9883 16.6546M54.9883 16.6546C55.3776 18.4798 55.4177 19.9444 55.1468 21.1174C54.8622 22.349 54.4647 23.3366 53.9677 24.1082L53.9662 24.1104C53.3824 25.0273 52.665 25.7902 51.8071 26.407L50.9837 26.999L51.9547 27.2917C53.1247 27.6443 53.9874 28.1556 54.5804 28.8105C55.221 29.5193 55.6669 30.1949 55.9341 30.8491L55.9353 30.8518C56.2606 31.6348 56.4502 32.4847 56.5006 33.408C56.5516 34.6198 56.4482 35.6834 56.1962 36.6178L56.1961 36.6184C55.9405 37.5707 55.5836 38.3963 55.1327 39.1016L55.1323 39.1023C54.6749 39.8202 54.1426 40.4494 53.535 40.9891L53.5343 40.9897C52.9126 41.5439 52.2858 42.0032 51.6474 42.3733C50.1002 43.2617 48.3284 43.8691 46.3256 44.1588C45.2323 44.3092 44.2415 44.337 43.3472 44.2561C42.4375 44.1717 41.6276 44.0173 40.916 43.8007C40.1924 43.5798 39.5524 43.3177 38.9984 43.0204L38.9978 43.02C38.4345 42.7189 37.9574 42.3948 37.5605 42.0544L37.5534 42.0483L37.5462 42.0426C36.5572 41.2563 35.8158 40.3368 35.3136 39.2923L35.3137 39.2923L35.309 39.283C34.5342 37.7535 34.0271 36.0848 33.7929 34.2712L54.9883 16.6546ZM43.4954 20.4317L43.4967 20.4301C43.8911 19.9563 44.4063 19.6933 45.0155 19.6811M43.4954 20.4317L46.6657 23.8827C46.978 23.3385 47.134 22.7455 47.134 22.11C47.134 21.503 46.9743 20.9506 46.6444 20.4693L46.6443 20.469C46.2671 19.9194 45.696 19.666 45.0155 19.6811M43.4954 20.4317C43.0996 20.9112 42.92 21.5114 42.92 22.187C42.92 22.8108 43.0492 23.3918 43.3122 23.9214L43.3126 23.9222M43.4954 20.4317L43.3126 23.9222M45.0155 19.6811C45.0152 19.6811 45.015 19.6811 45.0148 19.6811L45.026 20.181L45.0161 19.6811C45.0159 19.6811 45.0157 19.6811 45.0155 19.6811ZM43.3126 23.9222C43.47 24.2377 43.7049 24.4877 44.0164 24.6501C44.3219 24.8094 44.6711 24.8689 45.0398 24.8588L45.04 24.8588M43.3126 23.9222L45.04 24.8588M45.04 24.8588C45.7517 24.8388 46.3109 24.5013 46.6657 23.8828L45.04 24.8588ZM45.3682 31.7093L45.3683 31.7093C46.038 31.683 46.5976 31.9467 46.9688 32.5033C47.2931 32.988 47.455 33.5384 47.455 34.136C47.455 34.7679 47.2775 35.3242 46.8853 35.7617L46.8832 35.7641C46.4955 36.1911 45.995 36.4228 45.4089 36.4485M45.3682 31.7093L45.387 35.949M45.3682 31.7093C44.7388 31.7342 44.2165 32.0489 43.81 32.5659L43.8099 32.566C43.4028 33.084 43.2173 33.6758 43.2831 34.3153M45.3682 31.7093L43.2831 34.3153M45.4089 36.4485L45.387 35.949M45.4089 36.4485C45.4093 36.4485 45.4097 36.4484 45.4101 36.4484L45.387 35.949M45.4089 36.4485C44.8588 36.4736 44.3555 36.3407 43.9575 35.9985M45.387 35.949C44.932 35.97 44.563 35.86 44.283 35.619M43.9575 35.9985C43.9578 35.9987 43.958 35.9989 43.9583 35.9992L44.283 35.619M43.9575 35.9985C43.523 35.6269 43.3406 35.0098 43.2831 34.3153M43.9575 35.9985C43.9573 35.9983 43.9571 35.9981 43.9568 35.9979L44.283 35.619M44.283 35.619L43.2831 34.3153M33.7929 34.2709C33.5553 32.4224 33.436 30.6699 33.436 29.031C33.436 27.3507 33.5173 25.8109 33.6748 24.4225L33.7929 34.2709Z" fill="#2F2E41" stroke="#F2F2F2"/>
<path d="M96.1114 15.9642L96.1121 15.9636C96.5084 15.6021 96.997 15.4043 97.5464 15.3523C98.1556 15.2933 98.7183 15.393 99.1308 15.7608L99.1337 15.7635L99.1337 15.7635C99.4981 16.0937 99.699 16.5177 99.699 17.015C99.699 17.5167 99.5156 17.9789 99.195 18.397L96.1114 15.9642ZM96.1114 15.9642C95.702 16.339 95.488 16.8169 95.488 17.368C95.488 17.8579 95.6342 18.3081 95.9313 18.6944C96.3257 19.2093 96.9854 19.2988 97.6559 19.2152L97.656 19.2151M96.1114 15.9642L97.656 19.2151M97.656 19.2151C98.294 19.1354 98.8282 18.8758 99.1947 18.3974L97.656 19.2151ZM98.9642 9.45687L98.9744 9.45756L98.9846 9.45783C100.855 9.508 102.331 9.75068 103.429 10.1488C104.571 10.5659 105.44 10.9949 106.057 11.4418L106.057 11.4421C106.772 11.9591 107.27 12.5326 107.577 13.1702C107.944 14.1923 107.969 15.0169 107.728 15.6904C107.454 16.455 107.07 17.1019 106.584 17.6323L106.582 17.6346C106.006 18.2719 105.286 18.8431 104.415 19.3434L103.136 20.0778L104.598 20.2726C105.785 20.4307 106.646 20.736 107.226 21.1503C107.858 21.6048 108.281 22.0488 108.53 22.4761L108.531 22.4789C108.838 22.9993 109.018 23.5826 109.065 24.2462C109.116 25.1338 109.015 25.9456 108.77 26.6831L108.769 26.6838C108.518 27.4425 108.167 28.1277 107.717 28.7357L107.716 28.7368C107.26 29.3577 106.725 29.9253 106.111 30.438L106.109 30.4391C105.485 30.9639 104.852 31.4204 104.205 31.8107C102.641 32.7474 100.847 33.5129 98.8211 34.0984C97.7174 34.4116 96.7165 34.6189 95.8124 34.7201C94.8933 34.822 94.078 34.8559 93.3647 34.8177L93.3639 34.8177C92.6359 34.7799 91.9972 34.6941 91.4456 34.5618L91.445 34.5617C90.8825 34.4274 90.4135 34.2606 90.031 34.0635L90.0199 34.0578L90.0085 34.0527C89.0371 33.612 88.3271 33.0167 87.8511 32.2734L87.8471 32.2671L87.8429 32.261C87.0862 31.1534 86.5884 29.8704 86.3579 28.4112C86.1214 26.9095 86.003 25.4857 86.003 24.155C86.003 22.7874 86.0839 21.5429 86.2392 20.4305C86.3984 19.3022 86.5808 18.3613 86.7885 17.5972L86.7885 17.5972L86.7897 17.5927C87.0276 16.6843 87.2883 15.8764 87.5745 15.1685L87.5746 15.1685L87.5785 15.1582C87.9106 14.2822 88.3268 13.5406 88.8232 12.9281C89.3343 12.2989 89.8865 11.7703 90.4793 11.3365L90.4796 11.3363C91.0732 10.9012 91.6883 10.5683 92.3274 10.3268C92.9914 10.0768 93.6309 9.88265 94.25 9.738C95.7207 9.42434 97.2916 9.34347 98.9642 9.45687ZM96.396 24.7853L96.395 24.7864C95.9974 25.24 95.7765 25.7648 95.8526 26.335C95.9136 26.9045 96.1159 27.4484 96.6196 27.7117C97.0378 27.9323 97.5348 27.9483 98.0478 27.8525L98.0489 27.8523C98.5948 27.7491 99.0644 27.5106 99.4377 27.1284L99.4377 27.1284C99.8214 26.7355 100.022 26.2517 100.022 25.702C100.022 25.181 99.837 24.7246 99.4768 24.3577L99.4755 24.3564C99.0558 23.9321 98.4788 23.8329 97.8718 23.9371C97.2941 24.0353 96.7997 24.3275 96.396 24.7853Z" fill="#2F2E41" stroke="#F2F2F2"/>
<path d="M72.1031 34.509C72.2 34.963 72.3835 35.4613 72.6612 36.0044C72.9329 36.5347 73.3005 37.061 73.7697 37.5795C74.2057 38.0612 74.7822 38.4518 75.5228 38.7417C76.1487 38.9732 76.7781 39.0617 77.4118 39.0135C78.0868 38.9611 78.6957 38.8428 79.2423 38.6662L79.2474 38.6646L79.2474 38.6646C79.905 38.4599 80.5398 38.1831 81.1511 37.8345C81.6503 37.5403 82.0735 37.2106 82.428 36.847C82.791 36.4746 83.0941 36.0811 83.3395 35.6657L83.3399 35.665C83.5921 35.2396 83.7986 34.8022 83.9617 34.3502L83.9618 34.3499C84.1272 33.8928 84.2454 33.4569 84.321 33.0398L84.3226 33.0312L84.3227 33.0312C84.5256 32.0137 84.5903 30.9602 84.5152 29.8693L84.5143 29.8568L84.5145 29.8568C84.4335 27.9992 84.2226 26.3264 83.8833 24.8192C83.5406 23.3027 83.1134 21.9242 82.6049 20.6756C82.0906 19.4164 81.5386 18.2807 80.9508 17.2653C80.3525 16.2365 79.7634 15.2901 79.1835 14.4287C78.3189 13.1533 77.4457 12.1791 76.5674 11.5148C75.6494 10.8204 74.8221 10.3097 74.0844 9.9923L74.0832 9.99178C73.3144 9.65868 72.7167 9.48384 72.2768 9.44838L72.274 9.44815L72.274 9.44814C72.0144 9.42572 71.8112 9.40917 71.6637 9.39826C71.5899 9.3928 71.5314 9.38885 71.4874 9.38629C71.4655 9.38502 71.4481 9.38415 71.435 9.38361L71.4198 9.38309C71.4191 9.38307 71.4185 9.38306 71.418 9.38305C71.4174 9.38307 71.4168 9.38309 71.416 9.38312L71.4006 9.38383C71.3874 9.38451 71.37 9.38558 71.348 9.38709C71.304 9.39013 71.2454 9.3947 71.1716 9.40096C71.0242 9.41345 70.8211 9.43222 70.5617 9.45762C70.1237 9.50049 69.5273 9.68441 68.7646 10.0531L68.7635 10.0537C68.0323 10.4049 67.2167 10.9798 66.3176 11.8028L66.3174 11.803C65.4503 12.5959 64.5796 13.7799 63.7115 15.3784L72.1031 34.509ZM72.1031 34.509C71.9957 34.0041 71.9316 33.6781 71.908 33.5276L70.9194 33.5319C70.8954 33.694 70.8308 34.0463 70.7225 34.594L70.7223 34.5952C70.6238 35.0994 70.4356 35.6863 70.1515 36.3613C69.871 37.0244 69.4909 37.7273 69.0089 38.4684C68.5455 39.1807 67.9341 39.8559 67.1671 40.4904M72.1031 34.509L67.1671 40.4904M67.1671 40.4904C66.5082 41.0192 65.8565 41.3911 65.2137 41.6158C64.5333 41.8525 63.9252 41.9893 63.387 42.0369L63.387 42.0369L63.3815 42.0374C62.7317 42.1021 62.1111 42.0812 61.519 41.9749C61.0417 41.8778 60.6466 41.7149 60.3252 41.4939L60.3235 41.4928C59.9867 41.2633 59.7124 40.9859 59.4943 40.6606L59.4938 40.6599C59.2619 40.3151 59.0658 39.9324 58.9041 39.5087L58.904 39.5084C58.7411 39.0823 58.6229 38.6555 58.5487 38.2267L58.5488 38.2267L58.5467 38.216C58.3423 37.1712 58.2629 36.0109 58.3156 34.7346L58.3157 34.7325C58.3949 32.5926 58.6067 30.5685 58.9489 28.6846L67.1671 40.4904ZM61.9212 18.9839L61.921 18.9845C61.3144 20.2989 60.7546 21.7758 60.2376 23.4051L61.9212 18.9839ZM61.9212 18.9839C62.5326 17.6549 63.1287 16.4531 63.7114 15.3786L61.9212 18.9839ZM70.1896 28.753L70.1886 28.7523C69.7168 28.431 69.5283 27.8324 69.4714 27.1836C69.4037 26.5718 69.5946 25.9943 69.995 25.4748C70.3912 24.9587 70.8949 24.623 71.502 24.5361L70.1896 28.753ZM70.1896 28.753C70.6116 29.0388 71.1215 29.0923 71.6553 29.0043C72.2229 28.9108 72.7023 28.6457 73.0752 28.2162C73.459 27.7772 73.638 27.2401 73.638 26.641C73.638 26.0732 73.4713 25.5608 73.1307 25.1257L73.1291 25.1238M70.1896 28.753L73.1291 25.1238M73.1291 25.1238C72.7291 24.6182 72.1519 24.4429 71.5021 24.536L73.1291 25.1238ZM58.9489 28.6844C59.2937 26.7923 59.7239 25.0253 60.2376 23.4052L58.9489 28.6844Z" fill="#2F2E41" stroke="#F2F2F2"/>
<path d="M122.4 10.776C122.962 9.36598 123.679 8.38198 124.55 7.74098C125.42 7.10198 126.284 6.68198 127.142 6.45498C128.133 6.17898 129.165 6.08398 130.238 6.16398C131.093 6.22798 131.825 6.34198 132.428 6.50698C133.031 6.67298 133.533 6.86798 133.935 7.09698C134.337 7.32598 134.652 7.57898 134.879 7.85698C135.108 8.13398 135.288 8.41698 135.422 8.69998C135.689 9.37498 135.717 10.136 135.503 10.985C135.154 11.997 134.577 12.894 133.774 13.659C132.97 14.424 132.152 15.066 131.322 15.575C130.357 16.182 129.312 16.704 128.187 17.142C128.722 18.454 128.963 19.679 128.91 20.787C128.855 21.895 128.71 22.865 128.468 23.677C128.173 24.628 127.759 25.494 127.222 26.27C126.606 27.047 125.91 27.619 125.133 27.977C124.356 28.335 123.445 28.541 122.4 28.602C121.543 28.652 120.798 28.618 120.17 28.494C119.54 28.37 119.024 28.217 118.622 28.032C118.141 27.83 117.739 27.586 117.417 27.3C116.988 26.903 116.634 26.467 116.352 25.991C116.071 25.515 115.849 25.014 115.689 24.489C115.529 23.964 115.42 23.431 115.368 22.892C115.314 22.354 115.287 21.847 115.287 21.371C115.287 20.238 115.433 19.082 115.728 17.916C114.363 17.557 113.116 17.081 111.991 16.478C111.509 16.224 111.033 15.932 110.564 15.603C110.095 15.274 109.66 14.905 109.258 14.497C108.857 14.089 108.513 13.639 108.233 13.149C107.951 12.66 107.757 12.128 107.65 11.56C107.516 10.891 107.504 10.297 107.611 9.78198C107.716 9.26598 107.891 8.81498 108.132 8.42598C108.373 8.03798 108.661 7.70898 108.996 7.43698C109.33 7.16498 109.685 6.94398 110.061 6.77298C110.945 6.35598 111.976 6.10398 113.156 5.99798C114.04 5.96198 114.857 6.00798 115.608 6.12598C116.357 6.24598 117.035 6.40998 117.637 6.62098C118.24 6.83098 118.775 7.07498 119.244 7.35298C119.714 7.63098 120.121 7.92398 120.47 8.23398C121.301 8.93698 121.943 9.77498 122.4 10.776Z" fill="#F2F2F2"/>
<path d="M44.935 6.966C46.836 7.073 48.37 7.521 49.536 8.29C50.7 9.06 51.617 9.876 52.286 10.745C53.063 11.75 53.626 12.883 53.975 14.139C54.376 16.012 54.428 17.56 54.135 18.834C53.841 20.106 53.425 21.151 52.889 21.983C52.272 22.952 51.51 23.762 50.599 24.417C51.83 24.788 52.781 25.339 53.451 26.079C54.119 26.818 54.602 27.542 54.897 28.264C55.246 29.104 55.447 30.011 55.5 30.988C55.553 32.24 55.448 33.358 55.179 34.352C54.912 35.347 54.537 36.221 54.054 36.975C53.573 37.73 53.011 38.394 52.367 38.967C51.723 39.541 51.069 40.021 50.399 40.41C48.792 41.333 46.958 41.96 44.896 42.258C43.77 42.413 42.74 42.443 41.802 42.358C40.864 42.271 40.02 42.111 39.271 41.883C38.521 41.654 37.85 41.38 37.262 41.065C36.671 40.749 36.163 40.405 35.735 40.038C34.69 39.208 33.9 38.23 33.363 37.113C32.561 35.53 32.038 33.806 31.797 31.939C31.557 30.072 31.436 28.298 31.436 26.635C31.436 24.939 31.518 23.38 31.677 21.97C31.838 20.56 32.025 19.352 32.239 18.355C32.482 17.188 32.747 16.126 33.044 15.177C33.391 13.983 33.833 12.942 34.368 12.062C34.904 11.182 35.488 10.42 36.117 9.779C36.746 9.139 37.402 8.632 38.084 8.26C38.769 7.889 39.431 7.591 40.074 7.365C41.601 6.881 43.221 6.747 44.935 6.966ZM43.528 17.784C43.073 17.793 42.691 17.983 42.383 18.352C42.075 18.724 41.922 19.204 41.922 19.789C41.922 20.342 42.035 20.846 42.262 21.301C42.49 21.758 42.911 21.978 43.527 21.961C44.063 21.946 44.465 21.705 44.733 21.236C45.001 20.769 45.135 20.262 45.135 19.712C45.135 19.197 45.001 18.745 44.733 18.354C44.466 17.963 44.064 17.773 43.528 17.784ZM43.89 29.813C43.435 29.831 43.04 30.053 42.705 30.479C42.371 30.904 42.229 31.37 42.283 31.873C42.337 32.534 42.504 32.982 42.785 33.222C43.066 33.463 43.435 33.573 43.889 33.552C44.345 33.532 44.719 33.357 45.015 33.031C45.308 32.703 45.457 32.274 45.457 31.739C45.457 31.236 45.322 30.783 45.055 30.384C44.787 29.982 44.398 29.792 43.89 29.813Z" fill="#F2F2F2"/>
<path d="M97.502 6.56199C99.403 6.61199 100.938 6.85999 102.104 7.28299C103.268 7.70799 104.185 8.15599 104.854 8.64099C105.631 9.20299 106.194 9.84499 106.543 10.581C106.944 11.685 106.996 12.642 106.703 13.463C106.409 14.284 105.992 14.99 105.457 15.574C104.84 16.255 104.079 16.858 103.168 17.381C104.399 17.546 105.35 17.868 106.02 18.348C106.688 18.828 107.171 19.321 107.466 19.829C107.815 20.421 108.016 21.082 108.068 21.818C108.122 22.762 108.016 23.639 107.748 24.444C107.481 25.25 107.106 25.983 106.623 26.636C106.142 27.29 105.579 27.887 104.935 28.425C104.292 28.965 103.638 29.437 102.967 29.842C101.361 30.804 99.526 31.586 97.463 32.182C96.337 32.501 95.307 32.715 94.369 32.82C93.431 32.924 92.588 32.96 91.839 32.92C91.088 32.881 90.418 32.792 89.83 32.651C89.239 32.51 88.73 32.331 88.303 32.111C87.258 31.637 86.467 30.983 85.932 30.146C85.13 28.972 84.606 27.618 84.366 26.092C84.126 24.568 84.005 23.118 84.005 21.758C84.005 20.371 84.086 19.103 84.246 17.964C84.407 16.823 84.594 15.86 84.808 15.069C85.051 14.145 85.317 13.316 85.613 12.584C85.961 11.666 86.402 10.876 86.937 10.216C87.473 9.55599 88.057 8.99699 88.686 8.53599C89.315 8.07499 89.97 7.71999 90.654 7.46199C91.339 7.20399 92.001 7.00299 92.644 6.85299C94.168 6.52799 95.79 6.44499 97.502 6.56199ZM96.096 13.453C95.641 13.496 95.258 13.656 94.951 13.936C94.643 14.217 94.49 14.563 94.49 14.97C94.49 15.355 94.603 15.697 94.83 15.992C95.059 16.29 95.48 16.398 96.096 16.321C96.632 16.254 97.034 16.044 97.302 15.695C97.57 15.347 97.704 14.989 97.704 14.617C97.704 14.269 97.569 13.977 97.302 13.737C97.034 13.498 96.632 13.401 96.096 13.453ZM96.458 22.033C96.004 22.11 95.609 22.338 95.274 22.719C94.939 23.1 94.797 23.488 94.852 23.878C94.905 24.393 95.072 24.725 95.354 24.872C95.634 25.02 96.003 25.049 96.458 24.964C96.915 24.878 97.289 24.684 97.585 24.382C97.879 24.081 98.027 23.722 98.027 23.305C98.027 22.913 97.892 22.583 97.625 22.311C97.356 22.041 96.966 21.946 96.458 22.033Z" fill="#F2F2F2"/>
<path d="M79.905 35.87C79.262 36.237 78.593 36.529 77.898 36.745C77.31 36.935 76.662 37.06 75.952 37.115C75.243 37.169 74.54 37.069 73.846 36.812C73.043 36.498 72.396 36.066 71.9 35.518C71.405 34.971 71.011 34.409 70.717 33.835C70.423 33.262 70.223 32.722 70.114 32.216C70.007 31.712 69.94 31.374 69.914 31.208C69.887 31.384 69.821 31.748 69.713 32.294C69.606 32.842 69.406 33.463 69.112 34.159C68.818 34.854 68.423 35.583 67.928 36.343C67.432 37.105 66.785 37.817 65.983 38.481C65.287 39.039 64.585 39.443 63.878 39.691C63.169 39.938 62.519 40.086 61.931 40.138C61.237 40.207 60.568 40.185 59.925 40.069C59.391 39.961 58.93 39.775 58.542 39.509C58.153 39.244 57.834 38.921 57.579 38.542C57.324 38.163 57.11 37.746 56.937 37.29C56.763 36.835 56.636 36.377 56.555 35.915C56.342 34.826 56.262 33.625 56.315 32.317C56.395 30.157 56.608 28.109 56.956 26.199C57.304 24.289 57.739 22.501 58.26 20.858C58.781 19.213 59.348 17.717 59.965 16.379C60.58 15.043 61.181 13.831 61.77 12.745C62.653 11.119 63.555 9.88298 64.478 9.03898C65.4 8.19498 66.256 7.58698 67.046 7.20798C67.834 6.82698 68.49 6.61598 69.011 6.56498C69.533 6.51398 69.833 6.48898 69.913 6.48798C69.992 6.48798 70.293 6.50998 70.815 6.55498C71.336 6.59698 71.993 6.79698 72.78 7.13798C73.568 7.47698 74.431 8.01298 75.367 8.72098C76.303 9.42898 77.212 10.45 78.096 11.754C78.684 12.626 79.279 13.582 79.881 14.619C80.482 15.657 81.044 16.814 81.566 18.091C82.086 19.368 82.521 20.773 82.869 22.313C83.216 23.854 83.43 25.557 83.512 27.439C83.59 28.572 83.524 29.67 83.311 30.733C83.231 31.18 83.104 31.644 82.93 32.124C82.756 32.606 82.536 33.071 82.268 33.523C82.001 33.975 81.673 34.4 81.285 34.8C80.9 35.199 80.439 35.556 79.905 35.87ZM70.075 22.634C69.621 22.699 69.226 22.949 68.893 23.383C68.557 23.819 68.417 24.272 68.47 24.737C68.524 25.351 68.692 25.752 68.971 25.942C69.252 26.133 69.62 26.189 70.074 26.114C70.529 26.039 70.903 25.831 71.198 25.491C71.493 25.154 71.638 24.738 71.638 24.243C71.638 23.78 71.504 23.377 71.237 23.036C70.971 22.698 70.584 22.561 70.075 22.634Z" fill="#F2F2F2"/>
<path d="M93.5585 52.0888C94.3984 52.3127 95.7642 49.9256 96.6089 46.757C97.4537 43.5883 97.4577 40.8381 96.6178 40.6142C95.7779 40.3903 94.4121 42.7774 93.5673 45.946C92.7226 49.1147 92.7186 51.8649 93.5585 52.0888Z" fill="#2F2E41"/>
<path d="M72.6735 55.7734C73.4929 56.0638 75.0451 53.7932 76.1404 50.702C77.2358 47.6108 77.4595 44.8695 76.6401 44.5791C75.8207 44.2888 74.2685 46.5593 73.1731 49.6506C72.0778 52.7418 71.8541 55.4831 72.6735 55.7734Z" fill="#2F2E41"/>
<path d="M40.1632 58.228C41.1456 58.5315 42.539 56.8459 43.2752 54.463C44.0115 52.0802 43.8119 49.9024 42.8294 49.5988C41.8469 49.2952 40.4536 50.9808 39.7173 53.3637C38.9811 55.7466 39.1807 57.9244 40.1632 58.228Z" fill="#2F2E41"/>
<path d="M11.6154 53.1977C12.5292 53.4803 13.7001 52.319 14.2307 50.6038C14.7612 48.8886 14.4505 47.269 13.5367 46.9863C12.6229 46.7036 11.4521 47.865 10.9215 49.5802C10.3909 51.2954 10.7016 52.915 11.6154 53.1977Z" fill="#2F2E41"/>
<path d="M39.73 13.429C38.537 14.77 36.994 15.346 36.277 14.715C35.56 14.079 35.947 12.476 37.136 11.131C38.327 9.78699 39.873 9.21299 40.589 9.84499C41.306 10.479 40.92 12.083 39.73 13.429Z" fill="#2F2E41"/>
<path d="M87.8736 13.2062C88.4296 13.6988 89.6296 13.2523 90.554 12.2089C91.4783 11.1655 91.7769 9.92039 91.2209 9.42782C90.6649 8.93525 89.4648 9.38178 88.5405 10.4252C87.6162 11.4685 87.3176 12.7137 87.8736 13.2062Z" fill="#2F2E41"/>
<path d="M109.986 10.8171C110.497 11.2698 111.387 11.0997 111.974 10.4371C112.562 9.77457 112.623 8.87045 112.113 8.41774C111.602 7.96502 110.712 8.13514 110.124 8.79771C109.537 9.46028 109.475 10.3644 109.986 10.8171Z" fill="#2F2E41"/>
<path d="M152.015 21.4296L152.012 21.4316C151.111 22.0122 150.219 22.0857 149.188 21.9417C148.664 21.8684 148.115 21.7406 147.511 21.596C147.472 21.5868 147.434 21.5776 147.395 21.5683C146.83 21.4328 146.221 21.2869 145.574 21.1731C144.181 20.928 142.595 20.8277 140.741 21.2655C139.11 21.6506 137.296 22.4463 135.237 23.8913C135.443 21.5296 136.338 19.158 137.519 17.111C138.874 14.7645 140.571 12.9036 141.95 12.002C144.711 10.2105 149.196 10.2122 151.935 12.8539C153.303 14.1865 153.98 15.9327 153.98 17.5478C153.98 19.1623 153.308 20.6111 152.015 21.4296ZM143.117 24.9942L143.117 24.9942L143.125 24.9955C144.945 25.3144 146.388 26.9835 146.388 28.596C146.388 29.3785 146.052 29.9759 145.524 30.3447C144.99 30.719 144.216 30.8858 143.312 30.7002L143.312 30.7001L143.3 30.698C142.698 30.5892 142.302 30.3366 141.937 29.9871C141.747 29.8055 141.567 29.599 141.364 29.3624C141.342 29.3366 141.32 29.3105 141.298 29.284C141.117 29.0726 140.92 28.841 140.699 28.6087C139.808 27.6738 138.559 26.7575 136.077 26.3011C136.97 25.8262 138.04 25.4648 139.123 25.2273C140.687 24.8841 142.193 24.818 143.117 24.9942Z" fill="#2F2E41" stroke="#F2F2F2"/>
<path d="M151.418 20.5325L151.415 20.5345C150.513 21.1152 149.622 21.1887 148.59 21.0446C148.066 20.9714 147.517 20.8436 146.913 20.699C146.875 20.6898 146.836 20.6805 146.797 20.6712C146.232 20.5358 145.623 20.3899 144.976 20.276C143.583 20.0309 141.997 19.9306 140.143 20.3685C138.512 20.7536 136.698 21.5493 134.639 22.9941C134.846 20.632 135.74 18.2601 136.922 16.213C138.276 13.8664 139.973 12.0055 141.352 11.1039C144.112 9.31164 148.597 9.31307 151.338 11.9568C152.706 13.2895 153.383 15.0356 153.383 16.6507C153.383 18.2652 152.711 19.7141 151.418 20.5325Z" fill="#2F2E41" stroke="#F2F2F2"/>
<path d="M142.519 24.0952L142.519 24.0952L142.526 24.0965C144.347 24.4163 145.79 26.0847 145.79 27.697C145.79 28.4796 145.454 29.077 144.927 29.4458C144.392 29.82 143.618 29.9868 142.714 29.8012L142.714 29.8011L142.702 29.799C142.1 29.6902 141.705 29.4377 141.339 29.0881C141.149 28.9065 140.969 28.7 140.767 28.4634C140.745 28.4377 140.723 28.4117 140.7 28.3853C140.52 28.1738 140.322 27.9421 140.101 27.7097C139.211 26.7748 137.961 25.8586 135.479 25.4022C136.372 24.9272 137.443 24.5658 138.525 24.3283C140.09 23.9851 141.595 23.919 142.519 24.0952Z" fill="#2F2E41" stroke="#F2F2F2"/>
<path d="M146.472 13.09C144.784 12.869 143.493 12.099 143.587 11.367C143.685 10.635 145.13 10.222 146.815 10.438C148.503 10.66 149.794 11.431 149.701 12.162C149.603 12.895 148.158 13.307 146.472 13.09Z" fill="#F2F2F2"/>
<path d="M142.823 25.693C142.113 25.402 141.653 24.89 141.792 24.549C141.936 24.208 142.623 24.171 143.33 24.46C144.037 24.752 144.499 25.265 144.358 25.605C144.217 25.946 143.53 25.984 142.823 25.693Z" fill="#F2F2F2"/>
<path d="M67.391 13.921C65.722 16.104 63.758 17.403 62.996 16.827C62.235 16.244 62.973 14.004 64.638 11.819C66.305 9.63403 68.273 8.33503 69.033 8.91203C69.794 9.49403 69.059 11.735 67.391 13.921Z" fill="#2F2E41"/>
<path d="M59.7928 59.9751C60.2734 60.1239 60.8911 59.5075 61.1724 58.5984C61.4537 57.6894 61.2921 56.8319 60.8114 56.6832C60.3308 56.5344 59.7131 57.1508 59.4318 58.0599C59.1505 58.9689 59.3121 59.8264 59.7928 59.9751Z" fill="#2F2E41"/>
<path d="M116.767 48.8375C117.844 49.284 119.939 46.6982 121.446 43.062C122.953 39.4258 123.301 36.1161 122.223 35.6696C121.146 35.2231 119.051 37.8089 117.544 41.4451C116.037 45.0813 115.689 48.391 116.767 48.8375Z" fill="#2F2E41"/>
<path d="M139.868 42.9551C140.413 43.1629 141.423 41.8408 142.125 40.0019C142.827 38.1631 142.955 36.504 142.411 36.2961C141.867 36.0883 140.856 37.4105 140.154 39.2493C139.452 41.0881 139.324 42.7473 139.868 42.9551Z" fill="#2F2E41"/>
<path d="M26.9338 27.9936C28.1154 30.0405 29.0097 32.4122 29.2159 34.7743C27.1574 33.3293 25.3431 32.5337 23.7124 32.1485C21.8582 31.7107 20.2722 31.811 18.8794 32.0561C18.2321 32.17 17.6233 32.3158 17.0581 32.4513C17.0192 32.4606 16.9805 32.4698 16.9421 32.479C16.3378 32.6236 15.7893 32.7514 15.2651 32.8247C14.234 32.9687 13.3425 32.8952 12.4407 32.3146L12.4375 32.3126C11.1451 31.4941 10.4733 30.0453 10.4733 28.4308C10.4733 26.8157 11.1504 25.0696 12.518 23.737C15.2571 21.0942 19.7422 21.0925 22.5031 22.885C23.8821 23.7866 25.5795 25.6473 26.9338 27.9936ZM21.1521 41.581L21.1521 41.5808L21.1404 41.5832C20.2366 41.7688 19.4628 41.6018 18.9282 41.2274C18.4012 40.8585 18.065 40.261 18.065 39.479C18.065 37.8665 19.5083 36.1973 21.3273 35.8785L21.3273 35.8786L21.3346 35.8772C22.2593 35.701 23.7651 35.7671 25.3294 36.1103C26.4121 36.3478 27.482 36.7091 28.3751 37.1841C25.8923 37.6405 24.6428 38.5568 23.7525 39.4917C23.5312 39.7242 23.3337 39.9559 23.1534 40.1674C23.1309 40.1937 23.1087 40.2198 23.0868 40.2455C22.8848 40.482 22.7045 40.6885 22.5147 40.8702C22.1494 41.2197 21.754 41.4722 21.1521 41.581Z" fill="#2F2E41" stroke="#F2F2F2"/>
<path d="M26.3332 27.0951C27.5146 29.1422 28.4088 31.5141 28.6149 33.8763C26.5564 32.4313 24.7421 31.6357 23.1114 31.2506C21.2572 30.8127 19.6712 30.913 18.2784 31.1581C17.6311 31.272 17.0223 31.4178 16.4571 31.5533C16.4182 31.5626 16.3795 31.5718 16.3411 31.581C15.7368 31.7256 15.1883 31.8534 14.6641 31.9267C13.633 32.0707 12.7415 31.9972 11.8397 31.4166L11.8365 31.4146C10.5442 30.5961 9.87225 29.1471 9.87225 27.5323C9.87225 25.917 10.5494 24.1706 11.917 22.838C14.6571 20.1961 19.1424 20.1946 21.9022 21.986C23.2816 22.8877 24.979 24.7485 26.3332 27.0951Z" fill="#2F2E41" stroke="#F2F2F2"/>
<path d="M20.7273 34.9795L20.7273 34.9796L20.7346 34.9782C21.6588 34.802 23.1645 34.8681 24.729 35.2113C25.8118 35.4488 26.8819 35.8102 27.7751 36.2851C25.2923 36.7415 24.0431 37.6578 23.1529 38.5927C22.9316 38.8251 22.7342 39.0568 22.554 39.2682C22.5315 39.2946 22.5092 39.3207 22.4872 39.3465C22.2852 39.583 22.105 39.7895 21.9152 39.9711C21.5498 40.3207 21.1543 40.5732 20.5521 40.682L20.5521 40.6818L20.5404 40.6842C19.6365 40.8698 18.8627 40.703 18.3281 40.3288C17.8013 39.96 17.465 39.3626 17.465 38.58C17.465 36.9675 18.9083 35.2984 20.7273 34.9795Z" fill="#2F2E41" stroke="#F2F2F2"/>
<path d="M19.903 36.685C20.466 36.105 20.665 35.511 20.341 35.358C20.014 35.206 19.299 35.554 18.731 36.132C18.169 36.712 17.973 37.307 18.297 37.46C18.62 37.612 19.34 37.265 19.903 36.685Z" fill="#F2F2F2"/>
<path d="M11.6827 24.7496C12.032 25.2595 13.2774 25.0136 14.4643 24.2005C15.6512 23.3873 16.3303 22.3148 15.981 21.8049C15.6317 21.2951 14.3863 21.541 13.1994 22.3541C12.0125 23.1673 11.3334 24.2398 11.6827 24.7496Z" fill="#F2F2F2"/>
</g>
<defs>
<clipPath id="clip0">
<rect width="170.079" height="88.486" fill="white"/>
</clipPath>
</defs>
</svg>
