<svg width="208" height="70" viewBox="0 0 208 70" fill="none" xmlns="http://www.w3.org/2000/svg">
<g clip-path="url(#clip0)">
<path d="M10.859 14.1189C10.859 12.9879 10.621 12.6279 10.621 12.2119C10.621 11.6129 11.339 11.1959 12.172 11.1959C14.143 11.1959 15.515 12.3899 15.515 13.8219V35.9629C15.515 41.6899 17.426 43.9579 20.945 43.9579C24.288 43.9579 26.795 41.3329 26.795 37.8709C26.795 32.5009 22.678 30.8909 18.918 30.8909C17.844 30.8909 16.828 26.4129 18.617 26.4129C21.425 26.4129 28.286 24.5649 28.286 15.9119C28.286 11.3749 25.363 6.72295 18.022 6.72295C8.413 6.72295 4.535 13.0479 4.535 20.3269C4.535 25.5779 6.683 27.4299 6.803 27.6079C7.461 27.4289 7.699 27.8459 7.699 28.4439C7.699 29.5189 6.089 33.4569 4.356 32.1439C3.402 31.2479 0 27.6669 0 20.6869C0 9.52695 7.341 2.24695 17.962 2.24695C26.973 2.24695 32.881 7.31895 32.881 15.7939C32.881 22.2979 29.538 26.2959 25.184 28.6229C28.643 29.6389 31.45 32.6209 31.45 37.7529C31.45 43.7209 26.914 48.0759 21.005 48.0759C13.189 48.0759 10.86 43.1229 10.86 35.7819V14.1189H10.859Z" fill="#2F2E41"/>
<path d="M38.599 39.422C39.436 41.452 41.046 43.122 44.151 43.122C48.803 43.122 50.714 39.243 51.432 35.602C51.968 32.917 55.311 34.111 55.07 36.201C54.653 39.842 52.265 47.059 43.494 47.059C38.064 47.059 32.932 42.705 32.932 35.245C32.932 27.667 37.468 21.999 42.061 21.999C45.405 21.999 47.431 24.446 47.431 28.023C47.431 32.441 44.389 37.692 38.599 39.422ZM37.885 36.142C40.867 34.77 42.779 31.664 42.779 28.083C42.779 26.771 42.3 25.997 41.526 25.997C38.599 25.997 37.707 32.56 37.826 35.066C37.826 35.424 37.885 35.781 37.885 36.142Z" fill="#2F2E41"/>
<path d="M72.32 36.677C72.558 35.424 73.157 34.889 73.752 34.889C74.708 34.889 75.842 36.201 75.842 37.335C75.842 37.395 75.842 37.514 75.782 37.752C74.767 41.69 72.38 47.06 67.248 47.06C65.158 47.06 63.548 46.048 62.652 44.614C61.461 45.986 59.788 47.06 57.52 47.06C52.867 47.06 50.42 43.122 50.42 38.05C50.42 28.083 57.341 21.999 64.622 21.999C66.232 21.999 67.366 22.951 67.366 24.506C67.366 25.518 67.187 25.878 66.592 25.878C66.054 25.878 65.458 25.759 64.86 25.759C60.327 25.759 55.013 29.638 55.013 38.229C55.013 41.333 56.325 43.123 58.415 43.123C60.025 43.123 61.101 41.69 61.758 40.021V30.832C61.758 29.698 61.52 29.338 61.52 28.921C61.52 28.325 62.235 27.905 63.071 27.905C65.039 27.905 66.293 29.099 66.293 30.531V40.378C66.293 41.69 66.891 43.123 68.322 43.123C70.709 43.122 71.784 39.303 72.32 36.677Z" fill="#2F2E41"/>
<path d="M84.082 42.8239C82.649 45.3299 80.738 47.1189 78.113 47.1189C74.115 47.1189 71.788 43.7199 71.788 38.5289C71.788 32.2029 73.936 25.0999 73.936 25.0999C74.353 24.0849 73.936 22.8909 77.098 22.8909C80.021 22.8909 78.291 25.2789 78.053 26.1749C76.979 30.5889 76.324 33.2139 76.324 38.2279C76.324 41.4519 77.336 43.1809 79.068 43.1809C81.456 43.1809 83.245 39.3019 83.963 35.1249V25.5169C83.963 23.7879 83.364 23.6679 83.364 23.2509C83.364 22.8309 84.438 22.5939 85.275 22.5939C87.243 22.5939 88.496 23.7869 88.496 25.2189V40.3759C88.496 40.9119 88.496 43.1209 90.047 43.1209C92.435 43.1209 93.509 39.3019 94.048 36.6759C94.286 35.4229 94.881 34.8879 95.48 34.8879C96.432 34.8879 97.567 36.1999 97.567 37.3339C97.567 37.3939 97.567 37.5129 97.507 37.7509C96.432 41.6889 94.108 47.0589 88.976 47.0589C86.287 47.0599 84.498 45.2109 84.082 42.8239Z" fill="#2F2E41"/>
<path d="M94.292 17.522V7.43798C94.292 5.70898 93.693 5.58898 93.693 5.16898C93.693 4.75198 94.768 4.51398 95.604 4.51398C97.572 4.51398 98.825 5.70798 98.825 7.13998V17.582C102.466 17.582 106.643 17.522 110.702 17.344C112.372 15.555 111.834 21.282 110.283 21.341C105.508 21.46 101.99 21.46 98.825 21.46V40.377C98.825 42.288 99.602 43.122 100.855 43.122C103.243 43.122 104.317 39.303 104.854 36.677C105.092 35.424 105.69 34.889 106.286 34.889C107.241 34.889 108.376 36.201 108.376 37.335C108.376 37.395 108.376 37.514 108.316 37.752C107.3 41.69 104.914 47.06 99.781 47.06C96.557 47.06 94.292 45.153 94.292 40.437V21.46C91.667 21.46 90.172 21.341 90.172 21.341C88.264 21.341 87.19 17.344 88.919 17.344C88.918 17.344 91.068 17.463 94.292 17.522Z" fill="#2F2E41"/>
<path d="M127.708 34.889C128.664 34.889 129.798 36.201 129.798 37.335C129.798 37.395 129.798 37.692 129.738 37.931C127.708 44.855 124.25 48.373 121.025 51.18V61.503C121.025 67.769 117.864 69.975 114.819 69.975C111.479 69.975 109.091 66.933 109.091 63.114C109.091 57.087 112.554 54.044 116.491 50.582V43.004C115.056 45.391 113.208 47.12 110.642 47.12C106.644 47.12 104.315 43.721 104.315 38.53C104.315 32.204 106.465 25.101 106.465 25.101C106.882 24.086 106.465 22.892 109.626 22.892C112.553 22.892 110.819 25.28 110.582 26.176C109.507 30.59 108.853 33.215 108.853 38.229C108.853 41.453 109.865 43.182 111.597 43.182C113.985 43.182 115.774 39.303 116.491 35.126V25.518C116.491 24.383 116.25 24.027 116.25 23.61C116.25 23.011 116.968 22.595 117.804 22.595C119.772 22.595 121.025 23.788 121.025 25.22V46.167C123.174 43.779 125.083 40.794 126.276 36.677C126.637 35.424 127.113 34.889 127.708 34.889ZM116.492 61.503V55.118C114.581 57.086 113.268 59.353 113.268 62.934C113.268 64.783 113.867 66.214 114.819 66.214C116.73 66.215 116.492 62.637 116.492 61.503Z" fill="#2F2E41"/>
<path d="M134.952 14.1189C134.952 12.9879 134.714 12.6279 134.714 12.2119C134.714 11.6129 135.432 11.1959 136.265 11.1959C138.236 11.1959 139.608 12.3899 139.608 13.8219V35.9629C139.608 41.6899 141.519 43.9579 145.038 43.9579C148.381 43.9579 150.888 41.3329 150.888 37.8709C150.888 32.5009 146.771 30.8909 143.011 30.8909C141.937 30.8909 140.921 26.4129 142.71 26.4129C145.518 26.4129 152.379 24.5649 152.379 15.9119C152.379 11.3749 149.456 6.72295 142.115 6.72295C132.506 6.72295 128.628 13.0479 128.628 20.3269C128.628 25.5779 130.776 27.4299 130.896 27.6079C131.554 27.4289 131.792 27.8459 131.792 28.4439C131.792 29.5189 130.182 33.4569 128.449 32.1439C127.496 31.2479 124.094 27.6669 124.094 20.6869C124.094 9.52695 131.435 2.24695 142.056 2.24695C151.067 2.24695 156.975 7.31895 156.975 15.7939C156.975 22.2979 153.632 26.2959 149.278 28.6229C152.737 29.6389 155.544 32.6209 155.544 37.7529C155.544 43.7209 151.008 48.0759 145.099 48.0759C137.283 48.0759 134.954 43.1229 134.954 35.7819V14.1189H134.952Z" fill="#2F2E41"/>
<path d="M183.041 37.275C182.327 40.496 179.88 43.181 175.822 43.181C174.748 43.181 173.793 43.062 172.899 42.764C171.405 45.329 169.139 47.059 165.737 47.059C159.71 47.059 157.024 41.927 157.024 35.962C157.024 27.19 161.799 21.879 163.112 21.879C164.663 21.879 165.856 25.04 164.305 26.056C163.35 27.488 161.561 29.697 161.561 35.602C161.561 40.615 163.529 43.122 165.856 43.122C167.526 43.122 168.601 42.228 169.377 40.853C166.573 38.468 165.079 34.528 165.079 30.232C165.079 26.472 166.692 23.252 169.913 23.252C172.717 23.252 174.985 27.488 174.985 33.274C174.985 35.483 174.747 37.692 174.148 39.722C174.568 39.841 174.925 39.841 175.342 39.841C177.907 39.841 179.282 37.87 179.64 35.542C179.88 34.171 183.818 33.933 183.041 37.275ZM170.513 36.975C170.631 36.023 170.691 35.126 170.691 34.231C170.691 30.173 170.513 27.191 169.259 27.191C168.602 27.191 168.244 28.143 168.244 29.995C168.244 32.68 169.14 35.186 170.513 36.975Z" fill="#2F2E41"/>
<path d="M179.467 36.38C180.065 34.171 181.021 27.904 181.021 24.862C181.021 22.773 182.036 21.999 184.54 21.999C185.495 21.999 186.927 22.356 187.704 23.609C189.136 25.937 190.329 28.264 191.82 31.425C193.85 28.323 195.461 25.457 196.476 23.549C197.011 22.475 197.491 21.939 198.146 21.939C199.339 21.939 200.652 23.668 200.652 25.041C200.652 25.398 200.592 25.699 200.414 25.937L193.672 35.542C195.938 40.376 197.551 43.358 199.757 43.358C202.144 43.358 203.159 39.301 203.698 36.675C203.935 35.422 204.531 34.887 205.13 34.887C206.082 34.887 207.216 36.199 207.216 37.333C207.216 37.393 207.216 37.512 207.156 37.75C206.141 41.688 204.054 47.058 199.22 47.058C195.639 47.058 193.43 45.032 190.865 39.599L186.867 45.27C186.034 46.582 185.257 47.058 184.182 47.058C182.81 47.058 181.08 46.225 181.08 45.091C181.08 44.314 181.734 44.671 183.645 42.465C185.494 40.316 187.345 37.929 189.015 35.541C187.762 32.678 186.39 29.992 184.78 27.248C184.661 29.873 183.705 35.184 182.809 38.048C182.035 40.556 178.931 38.41 179.467 36.38Z" fill="#2F2E41"/>
<path d="M86.177 2.44897C86.177 2.44897 84.303 -1.25103 77.571 0.443974C72.58 1.69997 65.834 5.35397 63.557 6.63497C63.532 6.51297 63.428 6.41897 63.3 6.41897H59.286C59.154 6.41897 59.051 6.51297 59.029 6.63497C56.748 5.35397 50.003 1.69997 45.015 0.444974C38.279 -1.25003 36.405 2.44997 36.405 2.44997C34.711 5.70497 35.917 7.62597 36.941 8.69397C37.965 9.76497 40.331 12.218 46.619 12.218H55.79L47.381 17.648C47.256 17.726 47.221 17.892 47.303 18.014L49.28 20.959C49.365 21.081 49.531 21.112 49.653 21.031L58.174 15.313L59.017 12.217V15.604C59.017 15.754 59.136 15.874 59.287 15.874H63.3C63.446 15.874 63.566 15.755 63.566 15.604V12.217L64.413 15.313L72.934 21.031C73.056 21.112 73.222 21.081 73.303 20.959L75.281 18.014C75.362 17.892 75.328 17.726 75.206 17.648L66.794 12.218H75.964C82.252 12.218 84.617 9.76497 85.642 8.69397C86.669 7.62497 87.872 5.70397 86.177 2.44897ZM40.777 8.24797C39.039 8.24797 37.966 7.48997 37.966 7.48997C37.966 7.48997 36.898 6.90997 36.685 5.68197C36.685 5.68197 36.864 6.56197 37.945 7.14797C37.92 6.46797 37.966 4.88897 38.816 3.56397C38.816 3.56397 39.975 1.37997 43.274 1.37997C45.326 1.37997 52.479 6.17397 54.775 7.74897L57.861 8.24697H40.777V8.24797ZM84.617 7.48997C84.617 7.48997 83.546 8.24797 81.806 8.24797H64.722L67.808 7.74997C70.105 6.17497 77.26 1.38097 79.31 1.38097C82.609 1.38097 83.768 3.56497 83.768 3.56497C84.617 4.88997 84.664 6.46897 84.639 7.14897C85.719 6.56297 85.898 5.68297 85.898 5.68297C85.685 6.90997 84.617 7.48997 84.617 7.48997Z" fill="#2F2E41"/>
<path d="M61.294 12.794C61.698 11.967 64.107 11.222 64.107 9.44496C64.107 8.51696 63.355 7.76196 62.428 7.76196C61.992 7.76196 61.591 7.93096 61.293 8.20996C60.992 7.93096 60.592 7.76196 60.156 7.76196C59.228 7.76196 58.476 8.51696 58.476 9.44496C58.478 11.222 60.887 11.967 61.294 12.794Z" fill="#2F2E41"/>
</g>
<defs>
<clipPath id="clip0">
<rect width="208" height="70" fill="white"/>
</clipPath>
</defs>
</svg>
