<svg width="185" height="45" viewBox="0 0 185 45" fill="none" xmlns="http://www.w3.org/2000/svg">
<path d="M15.558 20.267C15.558 21.495 14.564 22.492 13.335 22.492C12.106 22.492 11.11 21.495 11.11 20.267V15.783H1.914L0 28.714H24.755V15.782H15.558V20.267ZM182.337 15.782H173.14V20.266C173.14 21.495 172.146 22.491 170.917 22.491C169.688 22.491 168.692 21.496 168.692 20.266V15.782H159.497V28.714H184.251L182.337 15.782Z" fill="#2F2E41"/>
<path d="M182.337 0H173.14V4.485C173.14 5.714 172.146 6.71 170.917 6.71C169.688 6.71 168.692 5.714 168.692 4.485V0H15.558V4.485C15.558 5.713 14.564 6.71 13.335 6.71C12.106 6.71 11.11 5.713 11.11 4.485V0H1.914L0 12.933H184.251L182.337 0Z" fill="#2F2E41"/>
<path d="M182.337 31.563H173.14V36.049C173.14 37.278 172.146 38.272 170.917 38.272C169.688 38.272 168.692 37.278 168.692 36.049V31.563H15.558V36.049C15.558 37.276 14.564 38.272 13.335 38.272C12.106 38.272 11.11 37.276 11.11 36.049V31.563H1.914L0 44.496H184.251L182.337 31.563Z" fill="#2F2E41"/>
<path d="M15.558 36.05H168.693V31.564H15.558V36.05ZM182.337 31.563H173.14V36.049H183.001L182.337 31.563ZM1.25 36.05H11.11V31.564H1.914L1.25 36.05Z" fill="#2F2E41"/>
<path d="M159.497 20.267H168.692V15.783H159.497V20.267ZM1.25 20.267H11.11V15.783H1.914L1.25 20.267ZM182.337 15.782H173.14V20.266H183.001L182.337 15.782ZM15.558 20.267H24.755V15.783H15.558V20.267Z" fill="#2F2E41"/>
<path d="M15.558 4.485H168.693V0H15.558V4.485ZM182.337 0H173.14V4.485H183.001L182.337 0ZM1.25 4.485H11.11V0H1.914L1.25 4.485Z" fill="#2F2E41"/>
<path d="M29.927 16.763C31.347 16.614 32.648 16.538 33.828 16.538C34.969 16.538 35.947 16.618 36.763 16.778C37.579 16.938 38.248 17.185 38.774 17.52C39.299 17.856 39.687 18.289 39.937 18.819C40.187 19.349 40.312 19.979 40.312 20.71C40.312 22.11 39.777 23.163 38.707 23.869C37.636 24.574 36.03 24.927 33.89 24.927H33.454V27.793H29.928V16.763H29.927ZM34.519 22.24C34.95 22.24 35.307 22.218 35.592 22.173C35.877 22.128 36.103 22.046 36.268 21.926C36.433 21.806 36.55 21.648 36.621 21.453C36.69 21.258 36.725 21.01 36.725 20.71C36.725 20.42 36.698 20.177 36.643 19.982C36.587 19.787 36.485 19.631 36.335 19.516C36.185 19.402 35.98 19.321 35.72 19.276C35.459 19.231 35.119 19.209 34.699 19.209C34.509 19.209 34.288 19.214 34.039 19.225C33.788 19.235 33.594 19.249 33.453 19.27V22.151C33.793 22.211 34.148 22.24 34.519 22.24Z" fill="#2F2E41"/>
<path d="M41.424 16.688H50.668V19.33H44.95V20.921H50.067V23.563H44.95V25.154H50.818V27.795H41.423V16.688H41.424Z" fill="#2F2E41"/>
<path d="M54.834 19.329H51.638V16.687H61.573V19.329H58.36V27.7929H54.834V19.329Z" fill="#2F2E41"/>
<path d="M62.675 16.688H71.919V19.33H66.201V20.921H71.318V23.563H66.201V25.154H72.069V27.795H62.674V16.688H62.675Z" fill="#2F2E41"/>
<path d="M76.52 16.688C76.53 16.789 76.544 16.906 76.565 17.042C76.585 17.177 76.595 17.314 76.595 17.454C76.595 17.755 76.565 18.077 76.504 18.422C76.444 18.768 76.352 19.12 76.227 19.481C76.102 19.842 75.947 20.204 75.762 20.569C75.576 20.934 75.359 21.282 75.109 21.612H73.143C73.353 21.261 73.513 20.801 73.623 20.231C73.732 19.661 73.788 19.076 73.788 18.475C73.788 18.125 73.767 17.815 73.727 17.544C73.687 17.274 73.597 16.989 73.457 16.689H76.52V16.688Z" fill="#2F2E41"/>
<path d="M82.253 27.974C81.923 27.974 81.558 27.963 81.157 27.944C80.757 27.923 80.346 27.894 79.927 27.854C79.508 27.814 79.091 27.766 78.682 27.711C78.271 27.656 77.891 27.598 77.541 27.538V24.747C78.501 24.936 79.334 25.072 80.039 25.152C80.745 25.232 81.402 25.272 82.013 25.272C82.643 25.272 83.081 25.229 83.326 25.144C83.571 25.059 83.693 24.902 83.693 24.671C83.693 24.411 83.566 24.213 83.31 24.078C83.055 23.943 82.618 23.836 81.998 23.755C80.487 23.585 79.384 23.202 78.688 22.608C77.993 22.012 77.645 21.155 77.645 20.034C77.645 19.484 77.76 18.991 77.991 18.556C78.22 18.12 78.553 17.753 78.989 17.452C79.424 17.152 79.954 16.922 80.579 16.762C81.205 16.603 81.913 16.522 82.703 16.522C82.974 16.522 83.241 16.53 83.506 16.544C83.771 16.56 84.062 16.585 84.376 16.619C84.691 16.654 85.042 16.702 85.427 16.762C85.812 16.823 86.26 16.898 86.77 16.988V19.764C86.21 19.594 85.6 19.461 84.94 19.366C84.28 19.271 83.674 19.224 83.124 19.224C81.954 19.224 81.368 19.458 81.368 19.929C81.368 20.219 81.506 20.442 81.781 20.597C82.056 20.752 82.534 20.879 83.214 20.979C84.695 21.209 85.766 21.587 86.426 22.113C87.086 22.639 87.416 23.376 87.416 24.326C87.416 25.567 86.993 26.485 86.148 27.08C85.302 27.676 84.004 27.974 82.253 27.974Z" fill="#2F2E41"/>
<path d="M97.44 27.943C96.509 27.943 95.609 27.925 94.739 27.89C93.868 27.855 92.932 27.797 91.932 27.717V16.763C92.783 16.683 93.598 16.626 94.378 16.591C95.158 16.556 95.943 16.538 96.733 16.538C98.574 16.538 99.924 16.796 100.786 17.31C101.646 17.826 102.076 18.633 102.076 19.734C102.076 20.915 101.401 21.685 100.051 22.046V22.106C100.831 22.247 101.426 22.542 101.836 22.992C102.246 23.442 102.451 24.017 102.451 24.718C102.451 25.838 102.049 26.656 101.243 27.172C100.439 27.686 99.171 27.943 97.44 27.943ZM96.885 21.085C97.526 21.085 97.973 21.005 98.228 20.845C98.484 20.685 98.611 20.4 98.611 19.99C98.611 19.591 98.484 19.31 98.228 19.15C97.973 18.99 97.526 18.91 96.885 18.91C96.574 18.91 96.284 18.917 96.015 18.932C95.744 18.947 95.509 18.969 95.31 18.999V21.085H96.885ZM97.2 25.558C97.82 25.558 98.27 25.46 98.551 25.265C98.832 25.07 98.971 24.762 98.971 24.342C98.971 23.942 98.838 23.659 98.574 23.494C98.308 23.328 97.851 23.246 97.201 23.246H95.31V25.512C95.379 25.523 95.45 25.53 95.52 25.534C95.589 25.54 95.69 25.545 95.82 25.55C95.95 25.555 96.123 25.558 96.338 25.558C96.553 25.558 96.84 25.558 97.2 25.558Z" fill="#2F2E41"/>
<path d="M103.881 16.688H107.407V25.167H112.375V27.793H103.881V16.688Z" fill="#2F2E41"/>
<path d="M113.427 16.688H116.953V27.793H113.427V16.688Z" fill="#2F2E41"/>
<path d="M118.891 16.688H121.622L125.959 21.611L126.964 22.872H127.114V16.688H130.176V27.793H127.445L123.318 23.111L122.102 21.61H121.953V27.793H118.891V16.688Z" fill="#2F2E41"/>
<path d="M135.834 27.943C135.483 27.943 135.133 27.938 134.783 27.928C134.432 27.917 134.093 27.906 133.762 27.89C133.432 27.875 133.126 27.855 132.847 27.83C132.567 27.805 132.326 27.777 132.126 27.747V16.717C133.177 16.657 134.064 16.613 134.79 16.582C135.515 16.552 136.147 16.537 136.688 16.537C137.858 16.537 138.866 16.649 139.711 16.875C140.557 17.1 141.254 17.444 141.805 17.91C142.355 18.375 142.763 18.968 143.028 19.688C143.294 20.409 143.425 21.263 143.425 22.254C143.425 23.275 143.285 24.145 143.005 24.865C142.725 25.585 142.282 26.173 141.677 26.628C141.072 27.084 140.286 27.416 139.322 27.626C138.357 27.838 137.194 27.943 135.834 27.943ZM137.305 25.197C137.794 25.197 138.2 25.152 138.52 25.061C138.84 24.971 139.098 24.814 139.293 24.588C139.488 24.363 139.625 24.061 139.705 23.681C139.785 23.3 139.825 22.826 139.825 22.255C139.825 21.704 139.78 21.239 139.69 20.859C139.6 20.478 139.455 20.173 139.254 19.943C139.054 19.714 138.786 19.548 138.451 19.448C138.116 19.348 137.703 19.298 137.213 19.298C137.033 19.298 136.825 19.304 136.591 19.314C136.356 19.324 136.043 19.343 135.653 19.374V25.077C135.873 25.117 136.131 25.147 136.426 25.167C136.722 25.188 137.014 25.197 137.305 25.197Z" fill="#2F2E41"/>
<path d="M149.163 27.974C148.833 27.974 148.468 27.963 148.067 27.944C147.667 27.923 147.256 27.894 146.837 27.854C146.418 27.814 146.001 27.766 145.592 27.711C145.181 27.656 144.801 27.598 144.451 27.538V24.747C145.411 24.936 146.244 25.072 146.949 25.152C147.655 25.232 148.312 25.272 148.923 25.272C149.553 25.272 149.991 25.229 150.236 25.144C150.481 25.059 150.603 24.902 150.603 24.671C150.603 24.411 150.476 24.213 150.22 24.078C149.965 23.943 149.528 23.836 148.908 23.755C147.397 23.585 146.294 23.202 145.598 22.608C144.903 22.012 144.555 21.155 144.555 20.034C144.555 19.484 144.67 18.991 144.901 18.556C145.13 18.12 145.463 17.753 145.899 17.452C146.334 17.152 146.864 16.922 147.489 16.762C148.115 16.603 148.823 16.522 149.613 16.522C149.884 16.522 150.151 16.53 150.416 16.544C150.681 16.56 150.972 16.585 151.286 16.619C151.601 16.654 151.952 16.702 152.337 16.762C152.722 16.823 153.17 16.898 153.68 16.988V19.764C153.12 19.594 152.51 19.461 151.85 19.366C151.19 19.271 150.584 19.224 150.034 19.224C148.864 19.224 148.278 19.458 148.278 19.929C148.278 20.219 148.416 20.442 148.691 20.597C148.966 20.752 149.444 20.879 150.124 20.979C151.605 21.209 152.676 21.587 153.336 22.113C153.996 22.639 154.326 23.376 154.326 24.326C154.326 25.567 153.903 26.485 153.058 27.08C152.212 27.676 150.914 27.974 149.163 27.974Z" fill="#2F2E41"/>
</svg>
