<svg width="198" height="56" viewBox="0 0 198 56" fill="none" xmlns="http://www.w3.org/2000/svg">
<g clip-path="url(#clip0)">
<path d="M17.108 10.189L17.147 9.43501H16.909L16.633 10.189L13.469 19.365H16.395L17.108 10.189ZM5.71698 29.806L16.276 0.734009H21.4969L19.717 29.806H15.565L16.001 23.873H11.887L9.87 29.806H5.71698Z" fill="#F2F2F2"/>
<path d="M39.215 0.734009L34.311 23.832C33.994 25.019 33.52 26.088 32.928 26.996C32.334 27.787 31.6619 28.541 30.7519 29.132C29.8029 29.806 28.656 30.123 27.272 30.123C25.887 30.123 24.86 29.806 24.147 29.132C23.475 28.541 23.119 27.787 22.961 26.996C22.684 26.088 22.684 25.06 22.92 23.832L27.824 0.734009H32.0959L27.192 23.832C26.994 24.586 27.074 25.218 27.391 25.652C27.549 25.851 27.785 25.968 28.141 25.968C28.893 25.968 29.367 25.494 29.645 24.902C29.764 24.664 29.922 24.306 30.039 23.832L34.944 0.734009H39.215Z" fill="#F2F2F2"/>
<path d="M39.381 5.12604L40.33 0.733032H52.67L51.7209 5.12604H47.688L42.467 29.806H38.1949L43.416 5.12604H39.381Z" fill="#F2F2F2"/>
<path d="M59.501 6.70799C59.659 5.91699 59.581 5.32099 59.303 4.88799C59.146 4.68799 58.868 4.57098 58.513 4.57098C57.761 4.57098 57.286 5.12599 57.011 5.63799C56.853 5.95399 56.733 6.31199 56.652 6.70799L53.014 23.831C52.816 24.585 52.897 25.218 53.214 25.651C53.372 25.851 53.608 25.968 53.964 25.968C54.716 25.968 55.19 25.493 55.467 24.901C55.587 24.663 55.745 24.306 55.862 23.831L59.501 6.70799ZM60.134 23.831C59.816 25.019 59.342 26.087 58.751 26.995C58.157 27.786 57.485 28.54 56.575 29.132C55.626 29.806 54.48 30.122 53.095 30.122C51.709 30.122 50.683 29.806 49.97 29.132C49.298 28.54 48.941 27.786 48.784 26.995C48.506 26.087 48.506 25.06 48.743 23.831L52.381 6.70799C52.659 5.55999 53.095 4.52999 53.728 3.58099C54.321 2.78999 54.954 1.999 55.862 1.407C56.772 0.812998 57.959 0.416992 59.384 0.416992C60.808 0.416992 61.795 0.812998 62.467 1.407C63.139 1.999 63.536 2.78999 63.694 3.58099C63.972 4.45199 63.972 5.47899 63.772 6.70799L60.134 23.831Z" fill="#F2F2F2"/>
<path d="M73.592 8.52706C73.791 7.57806 73.987 6.50905 73.869 5.67905C73.75 4.88805 73.434 4.33605 72.762 4.33605C71.654 4.37305 71.061 5.52105 70.705 7.22005C70.506 8.21105 70.664 9.24005 71.102 10.347C71.535 11.455 72.051 12.5991 72.643 13.8281C73.395 15.2891 73.987 16.7931 74.461 18.2571C74.899 19.7181 75.094 21.2221 74.74 22.8041C74.303 24.7441 73.67 26.5211 72.446 27.9081C71.219 29.2911 69.637 30.1231 67.264 30.1231C64.535 30.1231 63.192 29.0931 62.676 27.5111C62.084 25.9291 62.401 23.8731 62.834 21.6581L67.106 21.2631C66.83 22.4881 66.631 23.7151 66.75 24.6231C66.867 25.5721 67.184 26.2051 68.096 26.2051C69.362 26.2051 70.072 24.8611 70.506 23.0041C70.705 22.0541 70.506 20.9471 70.072 19.7981C69.953 19.5231 69.836 19.2071 69.715 18.9271C69.598 18.6521 69.479 18.336 69.362 18.058C69.082 17.466 68.766 16.8341 68.449 16.1601C68.133 15.4881 67.817 14.8141 67.5 14.0641C66.83 12.5621 66.473 11.058 66.356 9.55605C66.235 8.80205 66.356 8.01105 66.514 7.22005C66.83 5.63805 67.541 3.93905 68.766 2.63205C69.914 1.36705 71.496 0.459048 73.512 0.418048C76.164 0.381048 77.389 1.44705 77.905 2.99005C78.379 4.57205 78.221 6.50905 77.863 8.13205L73.592 8.52706Z" fill="#F2F2F2"/>
<path d="M83.626 13.828C84.931 13.828 85.84 13.589 86.433 12.915C87.064 12.282 87.381 11.216 87.738 9.59303C88.095 7.97303 88.214 6.86703 87.897 6.11203C87.581 5.44203 86.79 5.08504 85.483 5.08504L83.626 13.828ZM82.16 0.733032H86.433C88.293 0.733032 90.034 1.17103 91.178 2.55403C92.327 3.93803 92.84 6.11204 92.09 9.43404C91.337 12.757 89.954 14.893 88.253 16.278C86.553 17.662 84.574 18.177 82.715 18.177L80.263 29.806H75.991L82.16 0.733032Z" fill="#F2F2F2"/>
<path d="M95.793 0.734009H105.563L104.613 5.127H99.115L97.494 12.757H101.449L100.459 17.425H96.504L94.805 25.414H100.301L99.3929 29.806H89.623L95.793 0.734009Z" fill="#F2F2F2"/>
<path d="M107.883 0.734009H117.651L116.701 5.127H111.205L109.582 12.757H113.537L112.551 17.425H108.596L106.893 25.414H112.393L111.481 29.806H101.713L107.883 0.734009Z" fill="#F2F2F2"/>
<path d="M118.944 25.535C120.409 25.535 121.278 25.376 122.028 23.953C122.702 22.645 123.257 20.313 123.651 18.415C123.848 17.503 124.048 16.436 124.323 15.251C124.559 14.063 124.798 12.995 124.997 12.046C125.391 10.188 125.866 7.97303 125.708 6.55003C125.589 5.16303 124.798 5.00504 123.335 5.00504L118.944 25.535ZM113.801 29.805L119.971 0.733032H123.335C127.29 0.733032 129.188 1.52404 129.938 3.74004C130.571 5.95404 129.979 9.55504 128.753 15.288C127.528 20.983 126.616 24.585 125.034 26.8C123.415 29.014 121.12 29.805 117.165 29.805H113.801Z" fill="#F2F2F2"/>
<path d="M5.49296 45.076C5.58496 44.613 5.68394 44.096 5.62394 43.686C5.56494 43.305 5.41294 43.031 5.08494 43.031C4.54394 43.05 4.25292 43.606 4.08292 44.438C3.98292 44.925 4.06095 45.427 4.27195 45.96C4.48695 46.507 4.73498 47.067 5.02598 47.66C5.39498 48.38 5.68395 49.119 5.91495 49.829C6.12995 50.542 6.22298 51.276 6.05198 52.048C5.83498 52.994 5.53192 53.865 4.93192 54.539C4.32892 55.214 3.55898 55.622 2.40098 55.622C1.06698 55.622 0.410973 55.119 0.158973 54.345C-0.130027 53.574 0.0219762 52.563 0.236976 51.492L2.32096 51.294C2.18996 51.891 2.09098 52.494 2.15098 52.938C2.20998 53.395 2.36192 53.708 2.80692 53.708C3.42292 53.708 3.77195 53.052 3.98295 52.141C4.08295 51.68 3.98295 51.139 3.77195 50.583C3.71395 50.444 3.65494 50.292 3.59794 50.151C3.53794 50.02 3.48095 49.87 3.42295 49.729C3.28595 49.44 3.13393 49.136 2.98093 48.804C2.82493 48.473 2.66698 48.147 2.51298 47.779C2.18998 47.05 2.01597 46.313 1.95597 45.576C1.89697 45.206 1.95597 44.826 2.03397 44.438C2.18997 43.665 2.53195 42.833 3.13395 42.199C3.69595 41.583 4.46996 41.134 5.45396 41.117C6.74496 41.093 7.34695 41.62 7.59495 42.374C7.82695 43.147 7.75093 44.096 7.57493 44.887L5.49296 45.076Z" fill="#F2F2F2"/>
<path d="M11.934 45.89L11.952 45.522H11.84L11.702 45.89L10.159 50.372H11.588L11.934 45.89ZM6.37 55.464L11.526 41.275H14.079L13.209 55.464H11.18L11.391 52.564H9.38098L8.401 55.464H6.37Z" fill="#F2F2F2"/>
<path d="M18.192 55.464L18.7549 46.548L18.796 45.943H18.676L16.6689 55.464H14.735L17.753 41.275H20.297L20.145 47.761L20.087 48.511H20.126L20.378 47.761L23.001 41.275H25.551L22.54 55.464H20.608L22.618 45.943H22.5049L22.305 46.548L19.081 55.464H18.192Z" fill="#F2F2F2"/>
<path d="M27.844 41.275H32.612L32.155 43.414H29.467L28.676 47.144H30.608L30.127 49.423H28.194L27.364 53.326H30.047L29.6 55.464H24.832L27.844 41.275Z" fill="#F2F2F2"/>
<path d="M37.225 53.3781C37.944 53.3781 38.366 53.3021 38.735 52.6051C39.057 51.9721 39.33 50.8311 39.526 49.9091C39.62 49.4601 39.717 48.939 39.848 48.358C39.967 47.778 40.0819 47.2611 40.1819 46.7881C40.3749 45.8901 40.606 44.808 40.528 44.114C40.469 43.437 40.082 43.36 39.37 43.36L37.225 53.3781ZM34.715 55.4641L37.731 41.274H39.37C41.299 41.274 42.2289 41.661 42.5959 42.737C42.9009 43.821 42.6139 45.5751 42.0179 48.3801C41.4179 51.1631 40.973 52.9171 40.2 54.0011C39.409 55.0771 38.286 55.4641 36.356 55.4641H34.715Z" fill="#F2F2F2"/>
<path d="M47.381 45.89L47.399 45.522H47.283L47.145 45.89L45.604 50.372H47.033L47.381 45.89ZM41.818 55.464L46.975 41.275H49.526L48.654 55.464H46.629L46.844 52.564H44.828L43.844 55.464H41.818Z" fill="#F2F2F2"/>
<path d="M54.206 45.814L54.227 45.943H54.265L54.364 45.814L56.373 41.275H58.4189L54.558 49.423L53.284 55.464H51.196L52.472 49.423L52.089 41.275H54.134L54.206 45.814Z" fill="#F2F2F2"/>
<path d="M65.254 45.89L65.274 45.522H65.1559L65.02 45.89L63.479 50.372H64.904L65.254 45.89ZM59.69 55.464L64.844 41.275H67.395L66.525 55.464H64.502L64.713 52.564H62.701L61.715 55.464H59.69Z" fill="#F2F2F2"/>
<path d="M76.547 41.275L74.152 52.546C73.998 53.132 73.764 53.654 73.481 54.093C73.186 54.486 72.859 54.855 72.416 55.136C71.951 55.464 71.391 55.623 70.715 55.623C70.039 55.623 69.537 55.464 69.188 55.136C68.859 54.855 68.688 54.486 68.608 54.093C68.477 53.654 68.477 53.152 68.588 52.546L70.988 41.275H73.07L70.676 52.546C70.58 52.918 70.615 53.232 70.774 53.433C70.85 53.537 70.969 53.591 71.139 53.591C71.506 53.591 71.74 53.355 71.871 53.074C71.93 52.957 72.01 52.783 72.063 52.546L74.461 41.275H76.547Z" fill="#F2F2F2"/>
<path d="M77.126 43.4131L77.595 41.274H83.618L83.152 43.4131H81.186L78.636 55.4641H76.548L79.1 43.4131H77.126Z" fill="#F2F2F2"/>
<path d="M87.4499 44.1931C87.5279 43.8001 87.4869 43.5071 87.3559 43.3061C87.2759 43.2031 87.1449 43.1481 86.9709 43.1481C86.6059 43.1481 86.374 43.4141 86.237 43.6661C86.159 43.8221 86.102 43.9941 86.061 44.1931L84.2859 52.5471C84.1859 52.9181 84.2249 53.2321 84.3799 53.4331C84.4579 53.5371 84.575 53.5911 84.753 53.5911C85.114 53.5911 85.35 53.3551 85.483 53.0741C85.544 52.9571 85.616 52.7831 85.675 52.5471L87.4499 44.1931ZM87.763 52.5471C87.608 53.1321 87.376 53.6541 87.087 54.0931C86.796 54.4861 86.466 54.8551 86.022 55.1361C85.563 55.4641 84.997 55.6231 84.323 55.6231C83.649 55.6231 83.143 55.4641 82.798 55.1361C82.471 54.8551 82.2939 54.4861 82.2209 54.0931C82.0829 53.6541 82.0829 53.1521 82.2019 52.5471L83.975 44.1931C84.112 43.6251 84.323 43.1251 84.634 42.6581C84.925 42.2771 85.231 41.8841 85.675 41.6031C86.12 41.3101 86.696 41.1171 87.397 41.1171C88.089 41.1171 88.571 41.3101 88.899 41.6031C89.227 41.8841 89.4249 42.2771 89.4989 42.6581C89.6379 43.0861 89.6379 43.5881 89.5379 44.1931L87.763 52.5471Z" fill="#F2F2F2"/>
<path d="M96.235 47.66C96.874 47.66 97.317 47.551 97.61 47.221C97.917 46.91 98.067 46.39 98.243 45.599C98.419 44.808 98.477 44.267 98.323 43.898C98.167 43.57 97.786 43.396 97.145 43.396L96.235 47.66ZM95.524 41.275H97.61C98.516 41.275 99.368 41.486 99.923 42.16C100.487 42.834 100.735 43.898 100.37 45.522C100.001 47.144 99.3269 48.187 98.4969 48.861C97.6649 49.541 96.702 49.793 95.792 49.793L94.594 55.465H92.508L95.524 41.275Z" fill="#F2F2F2"/>
<path d="M104.508 45.89L104.528 45.522H104.412L104.272 45.89L102.731 50.372H104.158L104.508 45.89ZM98.9449 55.464L104.098 41.275H106.651L105.779 55.464H103.756L103.967 52.564H101.957L100.973 55.464H98.9449Z" fill="#F2F2F2"/>
<path d="M111.075 47.55C111.37 47.55 111.753 47.527 112.122 47.237C112.483 46.946 112.852 46.446 113.063 45.443C113.274 44.439 113.143 43.915 112.893 43.624C112.639 43.343 112.253 43.343 111.968 43.343L111.075 47.55ZM111.036 55.464L111.212 49.478H110.653L109.397 55.464H107.309L110.325 41.275H112.411C114.897 41.275 115.655 42.657 115.093 45.364C114.784 46.771 114.145 48.052 113.237 48.591L113.124 55.464H111.036Z" fill="#F2F2F2"/>
<path d="M116.295 43.4131L116.762 41.274H122.787L122.324 43.4131H120.356L117.803 55.4641H115.721L118.272 43.4131H116.295Z" fill="#F2F2F2"/>
<path d="M126.399 45.076C126.491 44.613 126.59 44.096 126.532 43.686C126.473 43.305 126.321 43.031 125.991 43.031C125.45 43.05 125.161 43.606 124.989 44.438C124.891 44.925 124.969 45.427 125.18 45.96C125.393 46.507 125.641 47.067 125.93 47.66C126.299 48.38 126.59 49.119 126.821 49.829C127.036 50.542 127.131 51.276 126.958 52.048C126.743 52.994 126.438 53.865 125.84 54.539C125.235 55.214 124.465 55.622 123.309 55.622C121.973 55.622 121.317 55.119 121.067 54.345C120.778 53.574 120.928 52.563 121.143 51.492L123.229 51.294C123.098 51.891 122.999 52.494 123.057 52.938C123.116 53.395 123.268 53.708 123.713 53.708C124.329 53.708 124.68 53.052 124.891 52.141C124.989 51.68 124.891 51.139 124.68 50.583C124.62 50.444 124.563 50.292 124.504 50.151C124.444 50.02 124.389 49.87 124.329 49.729C124.19 49.44 124.04 49.136 123.889 48.804C123.731 48.473 123.573 48.147 123.42 47.779C123.098 47.05 122.922 46.313 122.862 45.576C122.805 45.206 122.862 44.826 122.94 44.438C123.098 43.665 123.44 42.833 124.04 42.199C124.602 41.583 125.376 41.134 126.36 41.117C127.651 41.093 128.251 41.62 128.503 42.374C128.733 43.147 128.659 44.096 128.483 44.887L126.399 45.076Z" fill="#F2F2F2"/>
<path d="M153.971 35.257C153.971 36.134 154.682 36.8391 155.553 36.8391H168.592C169.463 36.8391 170.174 36.134 170.174 35.257C170.174 34.384 169.463 33.675 168.592 33.675H155.553C154.682 33.675 153.971 34.384 153.971 35.257Z" fill="#F2F2F2"/>
<path d="M180.948 42.505C184.059 42.499 186.579 39.984 186.591 36.862C186.579 33.751 184.059 31.23 180.948 31.23C177.829 31.23 175.311 33.751 175.305 36.862C175.311 39.984 177.829 42.499 180.948 42.505ZM172.141 36.862C172.141 32.005 176.081 28.066 180.948 28.066C185.809 28.066 189.755 31.997 189.755 36.862C189.755 41.726 185.809 45.669 180.948 45.669C176.081 45.669 172.141 41.726 172.141 36.862Z" fill="#F2F2F2"/>
<path d="M143.196 42.505C146.313 42.499 148.833 39.984 148.839 36.862C148.833 33.751 146.313 31.23 143.196 31.23C140.085 31.23 137.565 33.751 137.557 36.862C137.565 39.984 140.085 42.499 143.196 42.505ZM134.393 36.862C134.393 31.997 138.339 28.066 143.196 28.066C148.059 28.066 152.003 31.997 152.003 36.862C152.003 41.726 148.059 45.669 143.196 45.669C138.339 45.669 134.393 41.726 134.393 36.862Z" fill="#F2F2F2"/>
<path d="M197.178 29.445C196.821 28.711 196.346 27.962 195.75 27.207C194.567 25.687 192.949 24.111 191.032 22.66L169.078 6.04905C166.785 4.31205 163.715 2.84304 160.496 1.75904C157.276 0.681038 153.94 0.0020355 151.061 3.55006e-05H139.463C138.436 -0.0039645 137.434 0.330036 136.703 1.01304C135.957 1.68304 135.555 2.68504 135.557 3.67904C135.557 4.15204 135.641 4.62504 135.795 5.08204L140.699 19.918C140.76 20.08 140.776 20.211 140.776 20.314C140.77 20.526 140.721 20.631 140.58 20.789C140.44 20.941 140.157 21.123 139.715 21.218C133.563 22.584 128.752 27.47 127.492 33.658H4.15997C3.29097 33.658 2.578 34.371 2.578 35.24C2.578 36.125 3.29097 36.832 4.15997 36.832H128.666C129.537 36.925 130.319 36.304 130.416 35.433C131.02 29.939 135.104 25.482 140.405 24.306C141.35 24.101 142.213 23.666 142.873 22.976C143.537 22.291 143.942 21.318 143.94 20.314C143.94 19.851 143.86 19.377 143.705 18.92L138.801 4.09005C138.742 3.91605 138.721 3.78104 138.721 3.67904C138.733 3.46504 138.783 3.41203 138.844 3.33603C138.918 3.27103 139.076 3.16604 139.463 3.16404H151.061C153.432 3.16004 156.532 3.75704 159.485 4.75904C162.449 5.75004 165.285 7.13804 167.168 8.56604L189.127 25.177C191.701 27.111 193.657 29.384 194.33 30.81C194.553 31.267 194.623 31.625 194.617 31.722L193.035 34.466C192.602 35.222 192.858 36.189 193.617 36.627C193.867 36.769 194.137 36.84 194.407 36.84C194.953 36.84 195.481 36.558 195.776 36.049L197.397 33.242C197.682 32.75 197.782 32.216 197.782 31.734C197.776 30.916 197.533 30.187 197.178 29.445Z" fill="#F2F2F2"/>
</g>
<defs>
<clipPath id="clip0">
<rect width="197.782" height="55.623" fill="white"/>
</clipPath>
</defs>
</svg>
