<svg width="229" height="59" viewBox="0 0 229 59" fill="none" xmlns="http://www.w3.org/2000/svg">
<path d="M76.385 15.103C75.502 13.961 74.051 13.322 72.62 13.322C69.121 13.322 66.809 16.12 66.809 19.662C66.809 22.944 68.985 25.741 72.62 25.741C74.403 25.741 75.77 24.944 76.696 23.646L78.477 24.991C78.014 25.629 76.143 27.718 72.574 27.718C67.622 27.718 64.559 23.579 64.559 19.662C64.559 14.815 67.889 11.338 72.685 11.338C74.737 11.338 76.892 12.109 78.146 13.764L76.385 15.103Z" fill="#2F2E41"/>
<path d="M82.991 18.602H85.766C87.438 18.602 89.115 18.207 89.115 16.098C89.115 13.984 87.438 13.585 85.766 13.585H82.991V18.602ZM80.874 11.734H86.358C90.343 11.734 91.356 14.133 91.356 16.098C91.356 18.08 89.886 19.948 87.526 20.215L91.948 27.323H89.311L85.345 20.453H82.991V27.323H80.874V11.734Z" fill="#2F2E41"/>
<path d="M107.292 19.533C107.292 16.119 104.981 13.322 101.417 13.322C97.849 13.322 95.542 16.119 95.542 19.533C95.542 22.943 97.849 25.74 101.417 25.74C104.981 25.74 107.292 22.943 107.292 19.533ZM93.292 19.533C93.292 14.903 96.662 11.339 101.417 11.339C106.167 11.339 109.542 14.903 109.542 19.533C109.542 24.152 106.167 27.718 101.417 27.718C96.662 27.718 93.292 24.152 93.292 19.533Z" fill="#2F2E41"/>
<path d="M112.6 11.734H122.401V13.717H114.717V18.602H121.869V20.588H114.717V27.323H112.6V11.734Z" fill="#2F2E41"/>
<path d="M128.988 13.717H123.972V11.734H136.125V13.717H131.103V27.322H128.988V13.717Z" fill="#2F2E41"/>
<path d="M140.168 17.148H138.448V11.734H140.168V17.148Z" fill="#2F2E41"/>
<path d="M143.323 24.068C144.07 25.208 145.368 25.741 146.624 25.741C148.008 25.741 149.73 24.859 149.73 23.142C149.73 19.551 142.04 21.776 142.04 15.702C142.04 13.87 143.583 11.339 147.327 11.339C149.021 11.339 150.656 11.69 151.822 13.126L150.102 14.687C149.572 13.87 148.54 13.322 147.327 13.322C144.993 13.322 144.29 14.734 144.29 15.702C144.29 19.639 151.974 17.289 151.974 22.901C151.974 25.914 149.55 27.718 146.554 27.718C144.551 27.718 142.64 27.036 141.583 25.563L143.323 24.068Z" fill="#2F2E41"/>
<path d="M74.2061 40.843L71.302 33.692H71.257L68.304 40.843H74.2061ZM70.4211 30.9611H72.3311L79.009 46.5441H76.5401L74.979 42.6951H67.5591L66.0181 46.5441H63.55L70.4211 30.9611Z" fill="#2F2E41"/>
<path d="M91.33 34.3299C90.444 33.1869 88.9951 32.5429 87.5591 32.5429C84.0591 32.5429 81.7511 35.3409 81.7511 38.8859C81.7511 42.1659 83.9271 44.9619 87.5591 44.9619C89.3451 44.9619 90.709 44.1709 91.632 42.8729L93.4191 44.2119C92.9531 44.8549 91.0851 46.9389 87.5171 46.9389C82.5611 46.9389 79.5031 42.8069 79.5031 38.8859C79.5031 34.0399 82.8281 30.5649 87.6241 30.5649C89.6751 30.5649 91.8311 31.3379 93.0891 32.9899L91.33 34.3299Z" fill="#2F2E41"/>
<path d="M106.378 34.3299C105.491 33.1869 104.045 32.5429 102.608 32.5429C99.108 32.5429 96.8 35.3409 96.8 38.8859C96.8 42.1659 98.977 44.9619 102.608 44.9619C104.394 44.9619 105.759 44.1709 106.682 42.8729L108.469 44.2119C108.005 44.8549 106.134 46.9389 102.564 46.9389C97.611 46.9389 94.553 42.8069 94.553 38.8859C94.553 34.0399 97.88 30.5649 102.674 30.5649C104.725 30.5649 106.88 31.3379 108.138 32.9899L106.378 34.3299Z" fill="#2F2E41"/>
<path d="M123.596 38.754C123.596 35.341 121.288 32.543 117.723 32.543C114.152 32.543 111.843 35.341 111.843 38.754C111.843 42.166 114.152 44.962 117.723 44.962C121.288 44.962 123.596 42.166 123.596 38.754ZM109.594 38.754C109.594 34.133 112.965 30.566 117.723 30.566C122.475 30.566 125.844 34.133 125.844 38.754C125.844 43.374 122.475 46.94 117.723 46.94C112.965 46.94 109.594 43.374 109.594 38.754Z" fill="#2F2E41"/>
<path d="M130.781 30.9611V40.5141C130.781 42.4511 131.751 44.9621 134.701 44.9621C137.645 44.9621 138.616 42.4511 138.616 40.5141V30.9611H140.73V40.843C140.73 44.459 138.111 46.94 134.701 46.94C131.282 46.94 128.666 44.459 128.666 40.843V30.9611H130.781Z" fill="#2F2E41"/>
<path d="M144.512 30.9611H147.286L155.876 43.7751H155.917V30.9611H158.032V46.5441H155.346L146.674 33.7361H146.627V46.5441H144.512V30.9611Z" fill="#2F2E41"/>
<path d="M165.282 32.9391H160.265V30.9611H172.415V32.9391H167.399V46.5441H165.282V32.9391Z" fill="#2F2E41"/>
<path d="M181.927 40.843L179.02 33.692H178.975L176.027 40.843H181.927ZM178.142 30.9611H180.055L186.727 46.5441H184.259L182.698 42.6951H175.28L173.737 46.5441H171.268L178.142 30.9611Z" fill="#2F2E41"/>
<path d="M188.836 30.9611H191.61L200.197 43.7751H200.238V30.9611H202.351V46.5441H199.665L190.998 33.7361H190.951V46.5441H188.836V30.9611Z" fill="#2F2E41"/>
<path d="M209.606 32.9391H204.586V30.9611H216.738V32.9391H211.722V46.5441H209.606V32.9391Z" fill="#2F2E41"/>
<path d="M219.598 43.2909C220.346 44.4349 221.648 44.9619 222.902 44.9619C224.285 44.9619 226.006 44.0819 226.006 42.3629C226.006 38.7729 218.32 40.996 218.32 34.924C218.32 33.097 219.862 30.5649 223.606 30.5649C225.301 30.5649 226.933 30.9159 228.098 32.3469L226.379 33.9079C225.848 33.0969 224.815 32.5429 223.606 32.5429C221.273 32.5429 220.567 33.957 220.567 34.924C220.567 38.861 228.254 36.5099 228.254 42.1259C228.254 45.1409 225.828 46.9389 222.834 46.9389C220.83 46.9389 218.92 46.2569 217.858 44.7849L219.598 43.2909Z" fill="#2F2E41"/>
<path d="M58.289 29.142C58.289 45.241 45.237 58.286 29.14 58.286C13.052 58.286 0 45.241 0 29.142C0 13.046 13.052 0 29.14 0C45.237 0 58.289 13.046 58.289 29.142Z" fill="#2F2E41"/>
<path d="M39.801 38.6857V49.7809L14.163 34.9773V23.885L39.801 38.6857Z" fill="white" stroke="#2F2E41"/>
<path d="M14.163 34.3999V23.3077L39.801 8.50401V19.5982L14.163 34.3999Z" fill="white" stroke="#2F2E41"/>
</svg>
