<svg width="213" height="93" viewBox="0 0 213 93" fill="none" xmlns="http://www.w3.org/2000/svg">
<g clip-path="url(#clip0)">
<path d="M8.538 82.317H9.684V90.5H8.538V86.722H4.536V90.5H3.39V82.317H4.536V85.729H8.538V82.317Z" fill="#F2F2F2"/>
<path d="M11.224 91.6461C11.311 91.6861 11.423 91.7231 11.562 91.7581C11.699 91.7951 11.835 91.8111 11.969 91.8111C12.402 91.8111 12.741 91.7141 12.985 91.5211C13.229 91.3291 13.449 91.0161 13.647 90.5831C13.15 89.6381 12.689 88.6371 12.259 87.5781C11.83 86.5181 11.474 85.4461 11.19 84.3601H12.371C12.458 84.7141 12.563 85.0961 12.684 85.5061C12.806 85.9151 12.941 86.3361 13.091 86.7691C13.241 87.2021 13.402 87.6351 13.575 88.0691C13.748 88.5021 13.93 88.9191 14.118 89.3201C14.417 88.4931 14.677 87.6751 14.898 86.8631C15.118 86.0531 15.327 85.2181 15.523 84.3611H16.657C16.374 85.5181 16.059 86.6301 15.712 87.6961C15.366 88.7631 14.992 89.7601 14.59 90.6901C14.433 91.0441 14.269 91.3501 14.1 91.6061C13.931 91.8611 13.744 92.0721 13.538 92.2371C13.334 92.4031 13.103 92.5251 12.848 92.6031C12.592 92.6821 12.303 92.7221 11.979 92.7221C11.893 92.7221 11.802 92.7161 11.708 92.7041C11.614 92.6921 11.521 92.6761 11.432 92.6571C11.341 92.6371 11.259 92.6151 11.182 92.5911C11.108 92.5691 11.054 92.5491 11.023 92.5331L11.224 91.6461Z" fill="#F2F2F2"/>
<path d="M21.84 89.8871C21.745 89.9491 21.562 90.0311 21.291 90.1291C21.019 90.2281 20.702 90.2771 20.339 90.2771C19.97 90.2771 19.621 90.2171 19.295 90.1001C18.967 89.9811 18.682 89.7981 18.438 89.5501C18.195 89.3021 18.001 88.9941 17.86 88.6241C17.718 88.2541 17.647 87.8131 17.647 87.3011C17.647 86.8531 17.714 86.4421 17.848 86.0681C17.982 85.6941 18.177 85.3711 18.432 85.0991C18.688 84.8281 19 84.6151 19.371 84.4611C19.74 84.3081 20.158 84.2321 20.622 84.2321C21.134 84.2321 21.58 84.2691 21.962 84.3431C22.344 84.4191 22.665 84.4871 22.925 84.5501V90.0291C22.925 90.9751 22.681 91.6591 22.193 92.0841C21.705 92.5091 20.965 92.7221 19.973 92.7221C19.587 92.7221 19.223 92.6911 18.881 92.6271C18.538 92.5651 18.241 92.4901 17.989 92.4041L18.19 91.4471C18.41 91.5341 18.68 91.6111 18.999 91.6761C19.318 91.7441 19.65 91.7771 19.997 91.7771C20.65 91.7771 21.12 91.6471 21.408 91.3871C21.695 91.1271 21.839 90.7151 21.839 90.1471V89.8871H21.84ZM21.829 85.3291C21.718 85.2971 21.571 85.2671 21.385 85.2401C21.201 85.2121 20.95 85.1991 20.636 85.1991C20.045 85.1991 19.591 85.3921 19.272 85.7771C18.953 86.1621 18.794 86.675 18.794 87.312C18.794 87.667 18.839 87.9701 18.929 88.2221C19.02 88.4731 19.142 88.6821 19.296 88.8471C19.449 89.0131 19.627 89.1351 19.826 89.2131C20.028 89.2911 20.234 89.3311 20.446 89.3311C20.737 89.3311 21.005 89.2901 21.249 89.2071C21.493 89.1241 21.686 89.0281 21.828 88.9181V85.3291H21.829Z" fill="#F2F2F2"/>
<path d="M25.599 83.2501C25.402 83.2501 25.235 83.1851 25.098 83.0551C24.961 82.9251 24.891 82.7501 24.891 82.5291C24.891 82.3091 24.96 82.1341 25.098 82.0041C25.236 81.8741 25.403 81.8101 25.599 81.8101C25.795 81.8101 25.963 81.8741 26.101 82.0041C26.239 82.1341 26.308 82.3101 26.308 82.5291C26.308 82.7501 26.239 82.9251 26.101 83.0551C25.963 83.1851 25.795 83.2501 25.599 83.2501ZM26.154 90.5001H25.055V84.3601H26.154V90.5001Z" fill="#F2F2F2"/>
<path d="M27.94 87.4421C27.94 86.8991 28.019 86.4241 28.176 86.0201C28.333 85.6141 28.542 85.2771 28.802 85.0101C29.062 84.7421 29.361 84.5421 29.699 84.4071C30.037 84.2731 30.384 84.2061 30.738 84.2061C31.565 84.2061 32.198 84.4651 32.639 84.9801C33.08 85.4961 33.301 86.2811 33.301 87.3351C33.301 87.3821 33.301 87.4441 33.301 87.5181C33.301 87.5931 33.296 87.6621 33.289 87.7241H29.085C29.132 88.3631 29.317 88.8471 29.64 89.1771C29.963 89.5081 30.467 89.6741 31.152 89.6741C31.538 89.6741 31.862 89.6401 32.126 89.5731C32.39 89.5061 32.588 89.4421 32.723 89.3781L32.877 90.2991C32.743 90.3701 32.509 90.4461 32.174 90.5241C31.839 90.6021 31.459 90.6421 31.034 90.6421C30.498 90.6421 30.036 90.5611 29.646 90.4001C29.256 90.2381 28.936 90.0161 28.684 89.7321C28.432 89.4491 28.245 89.1121 28.122 88.7231C28.001 88.3331 27.94 87.9061 27.94 87.4421ZM32.156 86.8391C32.163 86.3431 32.04 85.9361 31.784 85.6171C31.528 85.2991 31.175 85.1391 30.726 85.1391C30.475 85.1391 30.252 85.1881 30.06 85.2871C29.867 85.3841 29.703 85.5131 29.57 85.6711C29.436 85.8281 29.332 86.0081 29.257 86.2131C29.183 86.4181 29.133 86.6271 29.11 86.8381H32.156V86.8391Z" fill="#F2F2F2"/>
<path d="M35.11 84.5371C35.362 84.4741 35.697 84.4071 36.114 84.3361C36.531 84.2651 37.011 84.2311 37.555 84.2311C38.043 84.2311 38.448 84.2991 38.772 84.4371C39.094 84.5751 39.352 84.7681 39.545 85.0161C39.739 85.2641 39.873 85.5601 39.953 85.9071C40.031 86.2541 40.071 86.6361 40.071 87.0531V90.5001H38.973V87.2881C38.973 86.9111 38.947 86.5881 38.896 86.3211C38.844 86.0531 38.76 85.8361 38.642 85.6721C38.524 85.5061 38.366 85.3851 38.169 85.3111C37.971 85.2361 37.728 85.1991 37.437 85.1991C37.318 85.1991 37.197 85.2031 37.071 85.2101C36.945 85.2181 36.825 85.2281 36.711 85.2401C36.597 85.2511 36.494 85.2651 36.404 85.2811C36.314 85.2971 36.248 85.3091 36.21 85.3171V90.5001H35.11V84.5371Z" fill="#F2F2F2"/>
<path d="M41.804 87.4421C41.804 86.8991 41.882 86.4241 42.04 86.0201C42.197 85.6141 42.406 85.2771 42.665 85.0101C42.925 84.7421 43.224 84.5421 43.562 84.4071C43.901 84.2731 44.248 84.2061 44.601 84.2061C45.428 84.2061 46.062 84.4651 46.503 84.9801C46.944 85.4961 47.164 86.2811 47.164 87.3351C47.164 87.3821 47.164 87.4441 47.164 87.5181C47.164 87.5931 47.16 87.6621 47.153 87.7241H42.95C42.996 88.3631 43.181 88.8471 43.505 89.1771C43.827 89.5081 44.331 89.6741 45.017 89.6741C45.402 89.6741 45.727 89.6401 45.991 89.5731C46.254 89.5061 46.453 89.4421 46.588 89.3781L46.741 90.2991C46.606 90.3701 46.373 90.4461 46.038 90.5241C45.703 90.6021 45.323 90.6421 44.898 90.6421C44.363 90.6421 43.901 90.5611 43.51 90.4001C43.121 90.2381 42.8 90.0161 42.548 89.7321C42.296 89.4491 42.109 89.1121 41.987 88.7231C41.865 88.3331 41.804 87.9061 41.804 87.4421ZM46.02 86.8391C46.027 86.3431 45.903 85.9361 45.647 85.6171C45.391 85.2991 45.038 85.1391 44.59 85.1391C44.339 85.1391 44.116 85.1881 43.923 85.2871C43.731 85.3841 43.566 85.5131 43.433 85.6711C43.299 85.8281 43.195 86.0081 43.121 86.2131C43.046 86.4181 42.996 86.6271 42.974 86.8381H46.02V86.8391Z" fill="#F2F2F2"/>
<path d="M53.448 89.6861C54.644 89.6861 55.242 89.2771 55.242 88.4581C55.242 88.2061 55.19 87.9911 55.083 87.8131C54.976 87.6351 54.833 87.4821 54.651 87.3531C54.47 87.2231 54.263 87.1121 54.031 87.0171C53.8 86.9221 53.553 86.8281 53.293 86.7331C52.994 86.6311 52.711 86.5151 52.443 86.3851C52.174 86.2551 51.942 86.1021 51.746 85.9251C51.549 85.7481 51.393 85.5381 51.279 85.2931C51.165 85.0501 51.108 84.7541 51.108 84.4081C51.108 83.6911 51.352 83.1331 51.84 82.7311C52.327 82.3301 53.001 82.1281 53.859 82.1281C54.355 82.1281 54.806 82.1811 55.212 82.2891C55.617 82.3941 55.915 82.5111 56.103 82.6371L55.738 83.5691C55.573 83.4671 55.326 83.3661 55 83.2681C54.673 83.1691 54.293 83.1201 53.86 83.1201C53.639 83.1201 53.435 83.1441 53.246 83.1921C53.058 83.2391 52.892 83.3101 52.751 83.4041C52.609 83.4991 52.497 83.6191 52.413 83.7651C52.331 83.9101 52.289 84.0821 52.289 84.2781C52.289 84.4991 52.332 84.6841 52.419 84.8331C52.505 84.9831 52.628 85.115 52.785 85.229C52.942 85.343 53.125 85.4481 53.334 85.5421C53.542 85.6371 53.772 85.7301 54.025 85.8251C54.379 85.9671 54.705 86.1101 54.999 86.2511C55.294 86.3931 55.549 86.5621 55.767 86.7591C55.984 86.9561 56.151 87.1901 56.269 87.4621C56.387 87.7331 56.447 88.0621 56.447 88.4471C56.447 89.1631 56.185 89.7151 55.661 90.1011C55.137 90.4861 54.399 90.6791 53.447 90.6791C53.124 90.6791 52.827 90.6571 52.554 90.6141C52.283 90.5711 52.041 90.5191 51.828 90.4601C51.615 90.4011 51.432 90.3381 51.279 90.2721C51.125 90.2051 51.006 90.1471 50.919 90.1011L51.262 89.1551C51.443 89.2581 51.719 89.3721 52.088 89.4981C52.459 89.6231 52.912 89.6861 53.448 89.6861Z" fill="#F2F2F2"/>
<path d="M57.813 87.4421C57.813 86.8991 57.891 86.4241 58.049 86.0201C58.206 85.6141 58.415 85.2771 58.674 85.0101C58.933 84.7431 59.233 84.5421 59.572 84.4071C59.91 84.2731 60.257 84.2061 60.611 84.2061C61.438 84.2061 62.071 84.4651 62.512 84.9801C62.953 85.4961 63.174 86.2811 63.174 87.3351C63.174 87.3821 63.174 87.4441 63.174 87.5181C63.174 87.5931 63.169 87.6621 63.162 87.7241H58.958C59.005 88.3631 59.189 88.8471 59.513 89.1771C59.835 89.5081 60.339 89.6741 61.025 89.6741C61.41 89.6741 61.735 89.6401 61.999 89.5731C62.263 89.5061 62.461 89.4421 62.596 89.3781L62.749 90.2991C62.615 90.3701 62.381 90.4461 62.047 90.5241C61.712 90.6021 61.332 90.6421 60.907 90.6421C60.372 90.6421 59.909 90.5611 59.519 90.4001C59.13 90.2381 58.809 90.0161 58.557 89.7321C58.305 89.4491 58.118 89.1121 57.996 88.7231C57.874 88.3331 57.813 87.9061 57.813 87.4421ZM62.029 86.8391C62.036 86.3431 61.913 85.9361 61.657 85.6171C61.4 85.2991 61.049 85.1391 60.599 85.1391C60.348 85.1391 60.125 85.1881 59.932 85.2871C59.74 85.3841 59.575 85.5131 59.443 85.6711C59.308 85.8281 59.204 86.0081 59.13 86.2131C59.055 86.4181 59.006 86.6271 58.982 86.8381H62.029V86.8391Z" fill="#F2F2F2"/>
<path d="M67.251 84.2301C67.345 84.2301 67.454 84.2351 67.575 84.2481C67.697 84.2591 67.818 84.2751 67.935 84.2951C68.053 84.3151 68.162 84.3351 68.259 84.3541C68.357 84.3751 68.43 84.3911 68.478 84.4071L68.289 85.3641C68.203 85.3331 68.06 85.2951 67.858 85.2511C67.656 85.2071 67.4 85.1871 67.084 85.1871C66.879 85.1871 66.677 85.2081 66.476 85.2511C66.275 85.2941 66.143 85.3251 66.081 85.3401V90.5001H64.982V84.6201C65.242 84.5251 65.564 84.4371 65.951 84.3541C66.338 84.2711 66.771 84.2301 67.251 84.2301Z" fill="#F2F2F2"/>
<path d="M75.007 84.3601C74.699 85.5091 74.339 86.6111 73.926 87.6671C73.512 88.7221 73.113 89.6671 72.727 90.5001H71.735C71.349 89.6671 70.95 88.7221 70.537 87.6671C70.123 86.6111 69.764 85.5091 69.457 84.3601H70.637C70.731 84.7451 70.844 85.1571 70.974 85.5941C71.104 86.0301 71.242 86.4631 71.387 86.8931C71.533 87.3221 71.68 87.7361 71.829 88.1381C71.979 88.5401 72.121 88.8971 72.254 89.2131C72.388 88.8981 72.529 88.5411 72.68 88.1381C72.829 87.7361 72.977 87.3221 73.122 86.8931C73.268 86.4631 73.406 86.0301 73.536 85.5941C73.666 85.1571 73.778 84.7451 73.872 84.3601H75.007Z" fill="#F2F2F2"/>
<path d="M76.975 83.2501C76.778 83.2501 76.611 83.1851 76.473 83.0551C76.335 82.9251 76.266 82.7501 76.266 82.5291C76.266 82.3091 76.334 82.1341 76.473 82.0041C76.611 81.8741 76.778 81.8101 76.975 81.8101C77.171 81.8101 77.339 81.8741 77.477 82.0041C77.615 82.1341 77.683 82.3101 77.683 82.5291C77.683 82.7501 77.615 82.9251 77.477 83.0551C77.338 83.1851 77.171 83.2501 76.975 83.2501ZM77.53 90.5001H76.431V84.3601H77.53V90.5001Z" fill="#F2F2F2"/>
<path d="M82.321 90.642C81.825 90.642 81.39 90.563 81.016 90.407C80.642 90.249 80.327 90.028 80.071 89.745C79.816 89.461 79.625 89.125 79.499 88.736C79.373 88.345 79.311 87.915 79.311 87.443C79.311 86.971 79.379 86.538 79.517 86.144C79.655 85.75 79.85 85.41 80.102 85.122C80.353 84.835 80.663 84.61 81.028 84.45C81.395 84.289 81.802 84.207 82.25 84.207C82.526 84.207 82.801 84.231 83.078 84.278C83.353 84.326 83.617 84.401 83.869 84.503L83.622 85.435C83.455 85.357 83.266 85.293 83.048 85.247C82.832 85.2 82.602 85.176 82.358 85.176C81.744 85.176 81.274 85.37 80.946 85.755C80.62 86.14 80.456 86.704 80.456 87.443C80.456 87.774 80.494 88.077 80.569 88.353C80.643 88.628 80.761 88.865 80.923 89.061C81.084 89.258 81.291 89.409 81.542 89.515C81.794 89.622 82.102 89.675 82.463 89.675C82.754 89.675 83.018 89.647 83.254 89.592C83.491 89.538 83.675 89.478 83.81 89.415L83.964 90.336C83.901 90.376 83.81 90.413 83.692 90.449C83.574 90.485 83.441 90.515 83.291 90.543C83.142 90.57 82.982 90.594 82.813 90.614C82.642 90.631 82.479 90.642 82.321 90.642Z" fill="#F2F2F2"/>
<path d="M84.983 87.4421C84.983 86.8991 85.061 86.4241 85.219 86.0201C85.376 85.6141 85.585 85.2771 85.845 85.0101C86.104 84.7421 86.404 84.5421 86.743 84.4071C87.081 84.2731 87.428 84.2061 87.782 84.2061C88.609 84.2061 89.242 84.4651 89.683 84.9801C90.124 85.4961 90.345 86.2811 90.345 87.3351C90.345 87.3821 90.345 87.4441 90.345 87.5181C90.345 87.5931 90.341 87.6621 90.333 87.7241H86.129C86.176 88.3631 86.36 88.8471 86.684 89.1771C87.006 89.5081 87.51 89.6741 88.196 89.6741C88.581 89.6741 88.906 89.6401 89.17 89.5731C89.434 89.5061 89.632 89.4421 89.767 89.3781L89.92 90.2991C89.785 90.3701 89.552 90.4461 89.217 90.5241C88.882 90.6021 88.502 90.6421 88.077 90.6421C87.542 90.6421 87.08 90.5611 86.689 90.4001C86.3 90.2381 85.979 90.0161 85.727 89.7321C85.475 89.4491 85.288 89.1121 85.166 88.7231C85.044 88.3331 84.983 87.9061 84.983 87.4421ZM89.199 86.8391C89.206 86.3431 89.083 85.9361 88.827 85.6171C88.57 85.2991 88.218 85.1391 87.769 85.1391C87.518 85.1391 87.295 85.1881 87.102 85.2871C86.909 85.3841 86.745 85.5131 86.612 85.6711C86.477 85.8281 86.373 86.0081 86.299 86.2131C86.224 86.4181 86.175 86.6271 86.152 86.8381H89.199V86.8391Z" fill="#F2F2F2"/>
<path d="M93.58 89.709C94.028 89.709 94.36 89.65 94.577 89.533C94.794 89.414 94.902 89.226 94.902 88.966C94.902 88.698 94.796 88.486 94.583 88.328C94.37 88.17 94.02 87.993 93.532 87.796C93.296 87.701 93.069 87.605 92.853 87.506C92.636 87.408 92.449 87.292 92.291 87.158C92.133 87.025 92.007 86.863 91.913 86.675C91.819 86.486 91.772 86.254 91.772 85.978C91.772 85.435 91.973 85.004 92.374 84.685C92.776 84.367 93.322 84.207 94.015 84.207C94.188 84.207 94.362 84.217 94.535 84.237C94.708 84.257 94.869 84.28 95.019 84.308C95.167 84.335 95.3 84.365 95.415 84.396C95.528 84.427 95.617 84.456 95.681 84.479L95.479 85.423C95.361 85.361 95.176 85.296 94.924 85.229C94.672 85.162 94.369 85.128 94.014 85.128C93.707 85.128 93.439 85.189 93.211 85.312C92.983 85.434 92.868 85.625 92.868 85.885C92.868 86.019 92.895 86.136 92.946 86.239C92.997 86.341 93.076 86.433 93.182 86.516C93.288 86.599 93.42 86.676 93.578 86.746C93.734 86.817 93.924 86.892 94.144 86.971C94.435 87.08 94.695 87.189 94.923 87.295C95.152 87.401 95.346 87.525 95.508 87.668C95.669 87.809 95.793 87.98 95.88 88.181C95.966 88.381 96.01 88.628 96.01 88.919C96.01 89.486 95.799 89.915 95.379 90.206C94.956 90.498 94.357 90.643 93.578 90.643C93.035 90.643 92.609 90.598 92.302 90.507C91.996 90.417 91.786 90.348 91.677 90.3L91.877 89.356C92.003 89.404 92.205 89.474 92.48 89.568C92.757 89.663 93.124 89.709 93.58 89.709Z" fill="#F2F2F2"/>
<path d="M10.431 75.7559C8.874 75.7559 7.455 75.5009 6.176 74.9879C4.896 74.4759 3.797 73.7299 2.881 72.7479C1.964 71.7679 1.254 70.5569 0.753 69.1159C0.251 67.6779 0 66.0299 0 64.1739C0 62.3179 0.283 60.6709 0.848 59.2309C1.413 57.7909 2.176 56.5809 3.136 55.5989C4.096 54.6189 5.216 53.8719 6.496 53.3599C7.776 52.8479 9.141 52.5909 10.591 52.5909C11.508 52.5909 12.334 52.6549 13.07 52.7829C13.806 52.9109 14.445 53.0609 14.99 53.2309C15.533 53.4019 15.976 53.5719 16.318 53.7429C16.659 53.9139 16.894 54.0419 17.022 54.1269L16.126 56.6859C15.934 56.5589 15.656 56.4199 15.294 56.2699C14.931 56.1209 14.521 55.9709 14.062 55.8219C13.604 55.6729 13.103 55.5509 12.558 55.4539C12.015 55.3579 11.465 55.3099 10.911 55.3099C9.737 55.3099 8.682 55.5129 7.743 55.9179C6.805 56.3229 6.005 56.9099 5.343 57.6779C4.682 58.4459 4.176 59.3779 3.823 60.4769C3.471 61.5749 3.296 62.8069 3.296 64.1719C3.296 65.4939 3.45 66.6999 3.759 67.7869C4.068 68.8749 4.532 69.8079 5.151 70.5869C5.77 71.3659 6.543 71.9679 7.471 72.3949C8.399 72.8219 9.481 73.0339 10.719 73.0339C12.148 73.0339 13.331 72.8859 14.27 72.5869C15.208 72.2889 15.913 72.0219 16.382 71.7869L17.182 74.3459C17.033 74.4529 16.766 74.5859 16.382 74.7459C15.998 74.9069 15.518 75.0609 14.942 75.2099C14.366 75.3579 13.694 75.4869 12.926 75.5939C12.158 75.7029 11.326 75.7559 10.431 75.7559Z" fill="#F2F2F2"/>
<path d="M18.912 75.276V50.96L21.888 50.448V58.958C22.442 58.745 23.034 58.579 23.663 58.462C24.292 58.345 24.916 58.286 25.535 58.286C26.857 58.286 27.955 58.472 28.83 58.846C29.705 59.219 30.403 59.742 30.926 60.413C31.447 61.085 31.816 61.89 32.03 62.829C32.243 63.768 32.349 64.802 32.349 65.933V75.276H29.373V66.573C29.373 65.549 29.304 64.675 29.165 63.949C29.026 63.224 28.797 62.637 28.477 62.19C28.157 61.742 27.73 61.417 27.197 61.213C26.663 61.01 26.002 60.909 25.214 60.909C24.894 60.909 24.562 60.931 24.221 60.974C23.88 61.016 23.554 61.065 23.245 61.117C22.935 61.171 22.658 61.229 22.413 61.294C22.168 61.358 21.992 61.411 21.886 61.454V75.276H18.912V75.276Z" fill="#F2F2F2"/>
<path d="M34.625 66.99C34.625 65.518 34.837 64.233 35.264 63.135C35.691 62.037 36.256 61.125 36.96 60.399C37.664 59.674 38.474 59.13 39.392 58.768C40.309 58.405 41.248 58.224 42.207 58.224C44.447 58.224 46.164 58.923 47.359 60.319C48.553 61.716 49.151 63.844 49.151 66.703C49.151 66.83 49.151 66.996 49.151 67.199C49.151 67.402 49.14 67.589 49.119 67.759H37.729C37.856 69.487 38.358 70.799 39.233 71.695C40.107 72.591 41.472 73.038 43.328 73.038C44.373 73.038 45.253 72.948 45.968 72.767C46.682 72.586 47.22 72.41 47.583 72.239L47.999 74.735C47.636 74.928 47.002 75.13 46.095 75.343C45.189 75.556 44.16 75.663 43.008 75.663C41.557 75.663 40.304 75.444 39.249 75.007C38.193 74.57 37.324 73.967 36.642 73.199C35.959 72.43 35.453 71.519 35.122 70.463C34.79 69.406 34.625 68.249 34.625 66.99ZM46.047 65.358C46.068 64.014 45.732 62.91 45.039 62.046C44.346 61.183 43.391 60.75 42.175 60.75C41.492 60.75 40.89 60.883 40.367 61.15C39.845 61.417 39.402 61.764 39.04 62.191C38.677 62.617 38.394 63.108 38.192 63.662C37.989 64.217 37.856 64.782 37.792 65.358H46.047Z" fill="#F2F2F2"/>
<path d="M55.53 73.132C56.746 73.132 57.647 72.972 58.234 72.652C58.82 72.332 59.114 71.82 59.114 71.117C59.114 70.391 58.826 69.816 58.25 69.389C57.673 68.962 56.725 68.483 55.402 67.949C54.761 67.694 54.149 67.432 53.562 67.165C52.976 66.898 52.469 66.584 52.043 66.221C51.616 65.859 51.274 65.421 51.019 64.909C50.763 64.398 50.635 63.769 50.635 63.021C50.635 61.55 51.178 60.382 52.266 59.518C53.354 58.655 54.836 58.223 56.713 58.223C57.182 58.223 57.651 58.25 58.121 58.303C58.59 58.357 59.028 58.421 59.433 58.495C59.838 58.57 60.195 58.651 60.505 58.735C60.814 58.82 61.054 58.895 61.225 58.959L60.681 61.519C60.362 61.349 59.86 61.173 59.177 60.992C58.494 60.81 57.673 60.719 56.714 60.719C55.882 60.719 55.157 60.885 54.539 61.215C53.92 61.547 53.611 62.063 53.611 62.767C53.611 63.13 53.68 63.45 53.819 63.726C53.958 64.003 54.171 64.254 54.46 64.478C54.748 64.703 55.104 64.91 55.531 65.103C55.958 65.295 56.469 65.497 57.067 65.71C57.856 66.009 58.559 66.303 59.178 66.59C59.797 66.878 60.324 67.214 60.762 67.598C61.199 67.982 61.534 68.446 61.77 68.99C62.004 69.533 62.122 70.2 62.122 70.99C62.122 72.525 61.551 73.689 60.41 74.477C59.269 75.266 57.643 75.661 55.531 75.661C54.059 75.661 52.907 75.538 52.075 75.293C51.243 75.048 50.678 74.861 50.379 74.732L50.923 72.173C51.264 72.301 51.808 72.493 52.555 72.749C53.301 73.005 54.292 73.132 55.53 73.132Z" fill="#F2F2F2"/>
<path d="M64.226 75.276V50.96L67.202 50.448V58.958C67.756 58.745 68.348 58.579 68.977 58.462C69.606 58.345 70.23 58.286 70.849 58.286C72.171 58.286 73.269 58.472 74.144 58.846C75.019 59.219 75.717 59.742 76.24 60.413C76.761 61.085 77.13 61.89 77.344 62.829C77.557 63.768 77.663 64.802 77.663 65.933V75.276H74.687V66.573C74.687 65.549 74.618 64.675 74.479 63.949C74.34 63.224 74.111 62.637 73.791 62.19C73.471 61.742 73.044 61.417 72.511 61.213C71.977 61.01 71.316 60.909 70.528 60.909C70.208 60.909 69.877 60.931 69.535 60.974C69.194 61.016 68.868 61.065 68.559 61.117C68.249 61.171 67.972 61.229 67.727 61.294C67.482 61.358 67.306 61.411 67.2 61.454V75.276H64.226V75.276Z" fill="#F2F2F2"/>
<path d="M82.242 55.631C81.708 55.631 81.255 55.455 80.882 55.103C80.508 54.751 80.322 54.276 80.322 53.68C80.322 53.082 80.508 52.608 80.882 52.256C81.255 51.903 81.708 51.728 82.242 51.728C82.775 51.728 83.228 51.904 83.602 52.256C83.975 52.608 84.162 53.082 84.162 53.68C84.162 54.277 83.975 54.752 83.602 55.103C83.229 55.456 82.775 55.631 82.242 55.631ZM83.746 75.276H80.77V58.639H83.746V75.276Z" fill="#F2F2F2"/>
<path d="M93.245 58.288C93.501 58.288 93.794 58.303 94.125 58.335C94.456 58.367 94.781 58.41 95.102 58.463C95.421 58.516 95.715 58.569 95.981 58.623C96.247 58.677 96.445 58.725 96.573 58.767L96.061 61.359C95.826 61.274 95.437 61.172 94.894 61.055C94.35 60.938 93.65 60.879 92.798 60.879C92.242 60.879 91.694 60.938 91.15 61.055C90.606 61.173 90.249 61.253 90.079 61.295V75.276H87.103V59.343C87.807 59.088 88.682 58.847 89.727 58.623C90.772 58.399 91.944 58.288 93.245 58.288Z" fill="#F2F2F2"/>
<path d="M96.617 66.99C96.617 65.518 96.83 64.233 97.257 63.135C97.683 62.037 98.249 61.125 98.952 60.399C99.656 59.674 100.466 59.13 101.384 58.768C102.301 58.405 103.24 58.224 104.199 58.224C106.439 58.224 108.156 58.923 109.35 60.319C110.545 61.716 111.142 63.844 111.142 66.703C111.142 66.83 111.142 66.996 111.142 67.199C111.142 67.402 111.131 67.589 111.11 67.759H99.72C99.847 69.487 100.349 70.799 101.224 71.695C102.098 72.591 103.463 73.038 105.319 73.038C106.364 73.038 107.243 72.948 107.959 72.767C108.673 72.586 109.211 72.41 109.574 72.239L109.99 74.735C109.627 74.928 108.992 75.13 108.086 75.343C107.18 75.556 106.151 75.663 104.999 75.663C103.548 75.663 102.295 75.444 101.24 75.007C100.183 74.57 99.314 73.967 98.632 73.199C97.949 72.43 97.443 71.519 97.112 70.463C96.782 69.406 96.617 68.249 96.617 66.99ZM108.04 65.358C108.06 64.014 107.724 62.91 107.031 62.046C106.338 61.183 105.383 60.75 104.167 60.75C103.484 60.75 102.882 60.883 102.359 61.15C101.837 61.417 101.394 61.764 101.032 62.191C100.669 62.617 100.386 63.108 100.183 63.662C99.98 64.217 99.847 64.782 99.783 65.358H108.04Z" fill="#F2F2F2"/>
<path d="M129.347 75.7559C127.79 75.7559 126.372 75.5009 125.092 74.9879C123.813 74.4759 122.714 73.7299 121.796 72.7479C120.879 71.7679 120.169 70.5569 119.669 69.1159C119.167 67.6769 118.917 66.0289 118.917 64.1739C118.917 62.3179 119.199 60.6709 119.765 59.2309C120.329 57.7909 121.093 56.5809 122.052 55.5989C123.013 54.6189 124.132 53.8719 125.412 53.3599C126.691 52.8479 128.057 52.5909 129.507 52.5909C130.424 52.5909 131.251 52.6549 131.987 52.7829C132.722 52.9109 133.362 53.0609 133.906 53.2309C134.45 53.4019 134.892 53.5719 135.234 53.7429C135.575 53.9139 135.809 54.0419 135.938 54.1269L135.042 56.6859C134.85 56.5589 134.572 56.4199 134.21 56.2699C133.848 56.1209 133.437 55.9709 132.979 55.8219C132.52 55.6729 132.019 55.5509 131.475 55.4539C130.931 55.3579 130.382 55.3099 129.828 55.3099C128.654 55.3099 127.599 55.5129 126.66 55.9179C125.722 56.3229 124.922 56.9099 124.261 57.6779C123.6 58.4459 123.094 59.3779 122.74 60.4769C122.388 61.5749 122.213 62.8069 122.213 64.1719C122.213 65.4939 122.367 66.6999 122.678 67.7869C122.987 68.8749 123.45 69.8079 124.069 70.5869C124.688 71.3659 125.462 71.9679 126.389 72.3949C127.316 72.8219 128.399 73.0339 129.637 73.0339C131.065 73.0339 132.249 72.8859 133.188 72.5869C134.126 72.2889 134.831 72.0219 135.299 71.7869L136.1 74.3459C135.95 74.4529 135.683 74.5859 135.299 74.7459C134.915 74.9069 134.436 75.0609 133.86 75.2099C133.284 75.3579 132.612 75.4869 131.844 75.5939C131.075 75.7029 130.243 75.7559 129.347 75.7559Z" fill="#F2F2F2"/>
<path d="M152.159 66.958C152.159 68.281 151.967 69.476 151.583 70.541C151.198 71.607 150.66 72.524 149.967 73.293C149.274 74.061 148.447 74.652 147.488 75.068C146.527 75.484 145.482 75.692 144.352 75.692C143.22 75.692 142.176 75.484 141.216 75.068C140.256 74.652 139.429 74.06 138.737 73.293C138.044 72.524 137.505 71.607 137.121 70.541C136.737 69.475 136.546 68.281 136.546 66.958C136.546 65.658 136.737 64.468 137.121 63.391C137.505 62.314 138.044 61.391 138.737 60.623C139.429 59.855 140.257 59.264 141.216 58.848C142.175 58.432 143.22 58.224 144.352 58.224C145.482 58.224 146.527 58.432 147.488 58.848C148.447 59.264 149.273 59.856 149.967 60.623C150.66 61.392 151.198 62.314 151.583 63.391C151.967 64.468 152.159 65.657 152.159 66.958ZM149.056 66.958C149.056 65.081 148.634 63.593 147.791 62.495C146.948 61.396 145.802 60.847 144.353 60.847C142.902 60.847 141.755 61.396 140.913 62.495C140.07 63.593 139.649 65.081 139.649 66.958C139.649 68.835 140.07 70.323 140.913 71.421C141.756 72.52 142.902 73.069 144.353 73.069C145.802 73.069 146.949 72.52 147.791 71.421C148.634 70.322 149.056 68.835 149.056 66.958Z" fill="#F2F2F2"/>
<path d="M167.874 74.796C167.19 74.967 166.291 75.148 165.172 75.339C164.051 75.531 162.756 75.627 161.283 75.627C160.005 75.627 158.927 75.44 158.052 75.067C157.177 74.694 156.474 74.166 155.941 73.484C155.408 72.802 155.024 71.996 154.79 71.068C154.555 70.14 154.437 69.111 154.437 67.981V58.639H157.414V67.341C157.414 69.368 157.732 70.818 158.373 71.693C159.014 72.568 160.09 73.005 161.605 73.005C161.924 73.005 162.253 72.995 162.595 72.973C162.937 72.952 163.256 72.925 163.556 72.893C163.855 72.861 164.127 72.828 164.372 72.797C164.617 72.765 164.791 72.728 164.899 72.685V58.639H167.874V74.796Z" fill="#F2F2F2"/>
<path d="M171.23 59.119C171.912 58.949 172.818 58.767 173.951 58.576C175.079 58.384 176.383 58.288 177.853 58.288C179.175 58.288 180.273 58.474 181.149 58.848C182.023 59.221 182.721 59.744 183.246 60.415C183.767 61.087 184.136 61.892 184.349 62.831C184.562 63.77 184.668 64.804 184.668 65.935V75.278H181.692V66.575C181.692 65.551 181.623 64.677 181.484 63.951C181.345 63.226 181.117 62.639 180.797 62.192C180.476 61.744 180.049 61.419 179.517 61.215C178.983 61.012 178.322 60.911 177.534 60.911C177.215 60.911 176.883 60.923 176.541 60.943C176.2 60.965 175.875 60.992 175.566 61.023C175.256 61.055 174.979 61.092 174.734 61.135C174.489 61.177 174.311 61.21 174.205 61.231V75.277H171.23V59.119Z" fill="#F2F2F2"/>
<path d="M190.66 58.639H196.964V61.135H190.66V68.813C190.66 69.645 190.724 70.333 190.854 70.877C190.979 71.42 191.173 71.848 191.427 72.157C191.684 72.467 192.005 72.685 192.389 72.813C192.773 72.94 193.221 73.005 193.732 73.005C194.628 73.005 195.348 72.903 195.891 72.701C196.436 72.498 196.814 72.354 197.027 72.268L197.604 74.731C197.304 74.881 196.782 75.067 196.037 75.292C195.289 75.516 194.437 75.627 193.476 75.627C192.345 75.627 191.412 75.483 190.676 75.195C189.941 74.907 189.349 74.475 188.901 73.9C188.454 73.323 188.138 72.615 187.958 71.772C187.778 70.929 187.686 69.954 187.686 68.844V54L190.661 53.488V58.639H190.66Z" fill="#F2F2F2"/>
<path d="M197.882 78.38C198.117 78.486 198.421 78.588 198.795 78.684C199.165 78.78 199.535 78.829 199.898 78.829C201.071 78.829 201.988 78.567 202.649 78.044C203.31 77.521 203.907 76.673 204.441 75.501C203.097 72.941 201.844 70.227 200.682 67.358C199.519 64.489 198.553 61.584 197.786 58.64H200.985C201.22 59.599 201.503 60.635 201.834 61.744C202.164 62.853 202.533 63.994 202.937 65.167C203.343 66.34 203.781 67.513 204.249 68.687C204.719 69.86 205.211 70.991 205.722 72.078C206.534 69.838 207.237 67.62 207.833 65.423C208.429 63.226 208.995 60.965 209.529 58.64H212.599C211.831 61.776 210.978 64.789 210.041 67.679C209.101 70.57 208.088 73.273 207 75.789C206.574 76.749 206.132 77.575 205.673 78.268C205.213 78.961 204.706 79.533 204.152 79.98C203.597 80.428 202.975 80.758 202.282 80.972C201.589 81.185 200.804 81.292 199.93 81.292C199.695 81.292 199.45 81.276 199.195 81.244C198.937 81.212 198.687 81.169 198.442 81.117C198.197 81.063 197.972 81.005 197.769 80.94C197.566 80.877 197.424 80.823 197.337 80.78L197.882 78.38Z" fill="#F2F2F2"/>
<path d="M194.373 13.842C194.369 13.816 194.369 13.801 194.351 13.739C194.292 13.671 194.431 13.736 194.138 13.396L194.144 13.391C194.129 13.375 194.112 13.358 194.091 13.341C194.059 13.301 193.977 13.25 193.866 13.21C193.766 13.168 193.655 13.141 193.551 13.147C193.531 13.149 193.515 13.152 193.495 13.154C193.45 13.156 193.405 13.163 193.358 13.174C193.073 13.222 193.07 13.273 192.747 13.375C190.704 14.138 182.991 17.172 172.823 19.148C169.574 14.338 167.1 9.826 165.399 6.448C164.488 4.635 163.795 3.149 163.325 2.11C163.088 1.592 162.907 1.189 162.778 0.905C162.714 0.761 162.661 0.652 162.617 0.561C162.595 0.514 162.575 0.474 162.537 0.421C162.52 0.391 162.505 0.36 162.453 0.301C162.37 0.268 162.401 0.08 161.824 0C161.223 0.08 161.253 0.267 161.173 0.301C160.955 0.605 160.973 0.658 160.802 1.002C159.882 3.022 156.576 10.595 150.804 19.148C145.179 18.055 140.29 16.636 136.712 15.46C134.788 14.826 133.242 14.261 132.155 13.857C131.612 13.653 131.184 13.489 130.877 13.376C130.538 13.27 130.55 13.216 130.225 13.168L130.226 13.166C130.193 13.161 130.146 13.153 130.088 13.151C130.082 13.15 130.077 13.15 130.071 13.149C129.974 13.139 129.869 13.164 129.768 13.206C129.741 13.217 129.712 13.228 129.684 13.242C129.604 13.287 129.538 13.338 129.483 13.39C129.412 13.456 129.358 13.526 129.333 13.59C129.246 13.75 129.237 13.894 129.239 13.927C129.236 13.98 129.239 13.98 129.236 13.984C129.294 14.468 129.343 14.405 129.464 14.789C130.259 16.917 133.523 25.191 135.484 35.997C136.997 42.106 139.592 47.654 144.908 50.027C146.621 50.842 148.636 51.273 150.736 51.273C154.51 51.273 158.58 49.869 161.815 46.849C165.034 49.864 169.107 51.272 172.888 51.272C174.99 51.272 176.999 50.844 178.738 50.02C184.032 47.658 186.63 42.106 188.132 36.05C189.26 29.827 190.807 24.472 192.076 20.627C192.71 18.703 193.27 17.157 193.68 16.071C193.879 15.527 194.042 15.099 194.16 14.788C194.255 14.474 194.308 14.462 194.356 14.199C194.376 14.131 194.385 14.059 194.385 13.986C194.385 13.985 194.385 13.985 194.385 13.984V13.979C194.385 13.979 194.385 13.979 194.385 13.978C194.386 13.923 194.383 13.884 194.373 13.842ZM172.189 21.161C174.441 24.896 175.999 28.699 175.992 32.234C175.992 33.596 175.766 34.922 175.266 36.218C173.835 40.311 169.383 44.14 163.762 44.792C166.213 41.736 167.361 38.067 167.361 34.648C167.361 32.546 166.932 30.532 166.103 28.795C165.387 27.187 164.349 25.853 163.117 24.697C165.486 23.019 168.5 21.846 171.835 21.019V21.02C171.912 21.005 171.986 20.99 172.064 20.976C172.105 21.039 172.147 21.099 172.189 21.161ZM151.559 20.976C151.625 20.988 151.689 21.001 151.755 21.013C155.109 21.842 158.137 23.017 160.512 24.7C159.276 25.86 158.232 27.2 157.509 28.819C156.691 30.536 156.262 32.547 156.262 34.648C156.262 38.067 157.407 41.728 159.867 44.794C154.241 44.143 149.79 40.316 148.366 36.243C147.857 34.924 147.631 33.598 147.631 32.239C147.624 28.69 149.191 24.873 151.458 21.127C151.493 21.075 151.524 21.026 151.559 20.976ZM164.604 29.487C165.326 30.994 165.709 32.771 165.709 34.649C165.709 37.99 164.471 41.616 161.812 44.511C159.143 41.605 157.912 37.986 157.912 34.647C157.912 32.773 158.301 30.996 159.008 29.509C159.653 28.042 160.627 26.812 161.815 25.741C162.995 26.806 163.966 28.03 164.604 29.487ZM161.803 2.795C161.807 2.788 161.81 2.781 161.813 2.774C163.121 5.65 166.217 12.222 171.075 19.518C167.635 20.405 164.392 21.67 161.815 23.595C159.24 21.672 155.993 20.407 152.545 19.519C155.649 14.861 158.038 10.493 159.699 7.191C160.624 5.354 161.325 3.844 161.803 2.795ZM145.598 48.528C141.022 46.52 138.554 41.553 137.097 35.654C135.971 29.434 134.404 24.009 133.118 20.111C132.473 18.161 131.901 16.591 131.491 15.492C131.473 15.445 131.457 15.398 131.44 15.353C134.392 16.461 141.236 18.922 149.83 20.645C147.595 24.435 145.984 28.347 145.978 32.238C145.978 33.781 146.239 35.321 146.816 36.813C148.501 41.542 153.47 45.74 159.771 46.438C157.022 48.611 153.762 49.621 150.735 49.621C148.858 49.62 147.081 49.236 145.598 48.528ZM186.517 35.702C185.075 41.551 182.601 46.518 178.049 48.515C176.539 49.234 174.762 49.621 172.888 49.621C169.855 49.621 166.591 48.607 163.85 46.436C170.15 45.741 175.125 41.543 176.817 36.791C177.384 35.315 177.644 33.776 177.644 32.233C177.637 28.326 176.017 24.406 173.794 20.641C179.231 19.549 183.94 18.174 187.426 17.027C189.377 16.383 190.947 15.811 192.044 15.401C192.093 15.383 192.14 15.366 192.187 15.349C190.994 18.522 188.237 26.192 186.517 35.702Z" fill="#F2F2F2"/>
</g>
<defs>
<clipPath id="clip0">
<rect width="212.599" height="92.72" fill="white"/>
</clipPath>
</defs>
</svg>
