<svg width="227" height="83" viewBox="0 0 227 83" fill="none" xmlns="http://www.w3.org/2000/svg">
<path d="M126.804 51.062L127.866 58.928L131.541 51.062H133.78L128.642 61.57H126.316L124.694 51.062H126.804Z" fill="#F2F2F2"/>
<path d="M133.783 53.9469H135.793L134.587 61.5689H132.577L133.783 53.9469ZM134.07 51.5509C134.098 51.3349 134.242 51.1919 134.472 51.1919H135.978C136.194 51.1919 136.28 51.3499 136.252 51.5509L136.05 52.8269C136.021 53.0429 135.878 53.1569 135.677 53.1569H134.169C133.968 53.1569 133.855 53.0279 133.882 52.8269L134.07 51.5509Z" fill="#F2F2F2"/>
<path d="M137.222 53.947H138.915L139.072 54.909C139.69 54.391 140.479 53.876 141.426 53.876C141.756 53.876 142.072 53.876 142.259 53.962L141.957 55.9C141.756 55.886 141.297 55.857 140.865 55.857C140.034 55.857 139.402 56.001 138.785 56.704L138.023 61.57H136.013L137.222 53.947Z" fill="#F2F2F2"/>
<path d="M145.765 53.804C146.857 53.746 148.593 53.991 149.326 54.694L148.322 61.555H146.771L146.47 60.766C146.097 61.24 145.077 61.656 144.159 61.656C142.68 61.656 141.559 60.451 142.163 57.306C142.766 54.163 144.417 53.876 145.765 53.804ZM144.89 59.947C145.723 59.947 146.183 59.675 146.642 59.23L147.187 55.554C146.743 55.397 146.082 55.325 145.666 55.426C145.02 55.554 144.418 55.755 144.116 57.679C143.9 59.114 144 59.947 144.89 59.947Z" fill="#F2F2F2"/>
<path d="M151.386 50.33H153.396L152.089 58.54C151.901 59.732 152.117 59.876 152.534 60.033C152.534 60.033 153.309 60.32 153.366 60.32L153.178 61.569H151.887C150.523 61.569 149.72 60.808 150.034 58.857L151.386 50.33Z" fill="#F2F2F2"/>
<path d="M160.271 51.062H163.012L163.645 58.24L166.5 51.062H169.329L168.653 61.57H166.657L167.161 54.551L164.318 61.57H162.036L161.39 54.551L159.697 61.57H157.674L160.271 51.062Z" fill="#F2F2F2"/>
<path d="M173.74 53.804C174.832 53.746 176.568 53.991 177.301 54.694L176.297 61.555H174.744L174.443 60.766C174.072 61.24 173.05 61.656 172.134 61.656C170.654 61.656 169.534 60.451 170.136 57.306C170.74 54.163 172.392 53.876 173.74 53.804ZM172.865 59.947C173.697 59.947 174.156 59.675 174.615 59.23L175.162 55.554C174.719 55.397 174.057 55.325 173.641 55.426C172.995 55.554 172.393 55.755 172.09 57.679C171.875 59.114 171.974 59.947 172.865 59.947Z" fill="#F2F2F2"/>
<path d="M178.857 53.947H180.552L180.708 54.909C181.325 54.391 182.114 53.876 183.062 53.876C183.394 53.876 183.708 53.876 183.896 53.962L183.593 55.9C183.394 55.886 182.933 55.857 182.501 55.857C181.669 55.857 181.036 56.001 180.421 56.704L179.659 61.57H177.651L178.857 53.947Z" fill="#F2F2F2"/>
<path d="M185.173 50.344H187.183L186.163 56.719C187.284 56.316 188.647 55.182 189.005 53.948H191.146C190.615 55.828 189.236 56.977 188.345 57.436L190.685 61.57H188.447L186.511 58.068L185.964 58.082L185.403 61.57H183.393L185.173 50.344Z" fill="#F2F2F2"/>
<path d="M195.248 53.8039C196.885 53.7889 198.348 54.2489 198.232 55.9999C198.003 59.4739 193.798 58.7989 193.265 58.5839C193.066 59.7459 193.353 60.0479 194.372 60.0629C195.22 60.0919 196.597 59.9619 197.485 59.8189L197.241 61.2549C196.095 61.5999 194.858 61.7719 193.264 61.6709C191.442 61.5849 190.854 60.0489 191.371 57.2649C191.816 54.9239 192.447 53.8179 195.248 53.8039ZM196.167 56.2719C196.294 55.5689 195.907 55.4119 195.103 55.4259C193.74 55.4399 193.611 56.3149 193.423 57.2629C193.423 57.2639 195.921 57.6799 196.167 56.2719Z" fill="#F2F2F2"/>
<path d="M198.896 54.35L200.189 53.933L200.861 51.809H202.543L202.197 53.933H203.906L203.662 55.469H201.953L201.48 58.526C201.292 59.733 201.496 59.89 201.91 60.048C201.91 60.048 202.685 60.32 202.758 60.32L202.557 61.584H201.178C199.914 61.584 199.112 60.795 199.412 58.842L199.945 55.469H198.722L198.896 54.35Z" fill="#F2F2F2"/>
<path d="M204.716 53.9469H206.724L205.519 61.5689H203.509L204.716 53.9469ZM205.003 51.5509C205.03 51.3349 205.175 51.1919 205.405 51.1919H206.911C207.126 51.1919 207.214 51.3499 207.184 51.5509L206.983 52.8269C206.956 53.0429 206.809 53.1569 206.61 53.1569H205.102C204.903 53.1569 204.788 53.0279 204.815 52.8269L205.003 51.5509Z" fill="#F2F2F2"/>
<path d="M208.156 53.947H209.763L210.034 54.765C210.766 54.291 211.442 53.818 212.604 53.818C214.383 53.818 214.686 55.038 214.456 56.488L213.651 61.569H211.641L212.446 56.459C212.561 55.714 212.272 55.427 211.772 55.427C210.967 55.427 210.479 55.641 209.819 56.086L208.958 61.569H206.948L208.156 53.947Z" fill="#F2F2F2"/>
<path d="M214.744 63.794H217.974C218.691 63.794 219.265 63.35 219.41 62.431L219.625 61.039C218.994 61.427 218.291 61.584 217.645 61.584C215.407 61.584 215.018 59.861 215.42 57.32C215.822 54.751 217.057 53.818 218.764 53.818C220.285 53.818 222.037 54.047 222.741 54.249L221.407 62.661C221.091 64.627 219.956 65.689 217.946 65.474L214.53 65.129L214.744 63.794ZM218.191 60.005C218.836 60.005 219.179 59.947 219.841 59.69L220.529 55.355H218.994C217.846 55.355 217.558 56.775 217.43 57.537C217.226 58.885 217.056 60.005 218.191 60.005Z" fill="#F2F2F2"/>
<path d="M64.517 28.812C65.228 24.363 68.38 23.25 71.161 23.25C71.161 23.25 77 23.25 80.554 23.745L79.78 28.78H72.149C70.542 28.78 70.388 29.676 70.264 30.511L70.048 31.869L77.679 32.209L76.907 37.185L69.152 37.463L67.823 45.866H61.829L64.517 28.812Z" fill="#F2F2F2"/>
<path d="M86.3699 29.152C88.9039 29.152 92.5799 29.553 94.1559 31.067L91.9929 45.805H87.2659L86.3389 44.26C85.5969 45.619 83.6509 46.021 82.0139 46.021C79.0779 46.021 76.7299 42.437 78.0589 36.226C79.5109 29.368 83.1569 29.152 86.3699 29.152ZM84.8869 41.232C86.1849 41.232 86.8029 40.645 86.8959 39.626L87.7299 33.756C87.4829 33.539 86.7099 33.478 86.0929 33.632C85.1969 33.848 84.3009 34.28 83.9299 36.969C83.6199 39.132 83.3419 41.232 84.8869 41.232Z" fill="#F2F2F2"/>
<path d="M94.295 41.356H101.432C101.957 41.356 102.05 41.139 102.112 40.831L102.143 40.677C102.205 40.306 102.112 40.12 101.618 40.12H98.682C95.777 40.12 94.047 37.988 94.541 34.807L94.789 33.385C95.19 30.851 96.612 29.307 99.794 29.307C104.212 29.307 108.106 29.214 108.909 30.418L108.353 33.94H101.463C101.062 33.94 100.783 33.94 100.691 34.497L100.66 34.683C100.567 35.177 100.908 35.177 101.278 35.177H104.368C107.86 35.177 108.693 37.803 108.292 40.244L108.014 42.067C107.489 45.434 105.233 46.021 103.256 46.021C98.838 46.021 94.667 46.145 93.739 44.878L94.295 41.356Z" fill="#F2F2F2"/>
<path d="M109.366 30.604L111.868 29.429L113.474 24.856H118.603L117.862 29.429H120.612L119.963 33.57H117.214L116.379 38.76C116.04 40.954 116.409 41.386 117.028 41.757C117.028 41.757 118.232 42.405 118.449 42.405L117.893 45.897H114.185C111.713 45.897 109.519 44.351 110.199 39.996L111.219 33.569H108.902L109.366 30.604Z" fill="#F2F2F2"/>
<path d="M129.669 23.25H139.185C144.005 23.25 145.612 26.216 144.994 30.048C144.685 31.964 143.202 33.941 140.946 34.126C143.202 34.497 144.437 36.876 144.036 39.812C143.202 45.682 140.514 45.868 135.756 45.868H126.085L129.669 23.25ZM136.25 40.8C137.425 40.8 137.888 39.997 138.104 38.638C138.289 37.494 138.134 36.412 136.929 36.412H133.562L132.882 40.8H136.25ZM137.393 31.654C138.32 31.654 138.907 30.943 139.031 30.079C139.247 28.72 138.598 28.317 137.918 28.317H134.859L134.334 31.654H137.393Z" fill="#F2F2F2"/>
<path d="M153.212 29.152C155.746 29.152 159.423 29.553 160.999 31.067L158.835 45.805H154.108L153.18 44.26C152.44 45.619 150.492 46.021 148.855 46.021C145.919 46.021 143.572 42.437 144.901 36.226C146.353 29.368 150 29.152 153.212 29.152ZM151.73 41.232C153.027 41.232 153.646 40.645 153.738 39.626L154.572 33.756C154.325 33.539 153.552 33.478 152.935 33.632C152.039 33.848 151.142 34.28 150.771 36.969C150.463 39.132 150.185 41.232 151.73 41.232Z" fill="#F2F2F2"/>
<path d="M162.784 29.461H167.789L168.531 31.067C169.705 30.109 170.847 29.182 173.351 29.182C177.615 29.182 177.675 31.901 177.121 35.362L175.453 45.867H169.459L171.127 35.238C171.344 33.94 171.066 33.632 170.385 33.632C169.242 33.632 168.44 33.941 167.944 34.776L166.184 45.868H160.19L162.784 29.461Z" fill="#F2F2F2"/>
<path d="M186.099 29.152C188.632 29.152 192.31 29.553 193.884 31.067L191.722 45.805H186.995L186.067 44.26C185.325 45.619 183.378 46.021 181.741 46.021C178.805 46.021 176.458 42.437 177.786 36.226C179.24 29.368 182.884 29.152 186.099 29.152ZM184.615 41.232C185.912 41.232 186.531 40.645 186.625 39.626L187.457 33.756C187.211 33.539 186.439 33.478 185.82 33.632C184.925 33.848 184.029 34.28 183.658 36.969C183.349 39.132 183.07 41.232 184.615 41.232Z" fill="#F2F2F2"/>
<path d="M195.669 29.461H200.675L201.417 31.067C202.591 30.109 203.733 29.182 206.235 29.182C210.501 29.182 210.561 31.901 210.005 35.362L208.337 45.867H202.343L204.013 35.238C204.228 33.94 203.951 33.632 203.271 33.632C202.126 33.632 201.324 33.941 200.83 34.776L199.068 45.868H193.076L195.669 29.461Z" fill="#F2F2F2"/>
<path d="M218.986 29.152C221.519 29.152 225.195 29.553 226.771 31.067L224.609 45.805H219.88L218.954 44.26C218.212 45.619 216.265 46.021 214.628 46.021C211.692 46.021 209.345 42.437 210.673 36.226C212.126 29.368 215.771 29.152 218.986 29.152ZM217.501 41.232C218.8 41.232 219.417 40.645 219.509 39.626L220.343 33.756C220.097 33.539 219.325 33.478 218.706 33.632C217.811 33.848 216.913 34.28 216.544 36.969C216.236 39.132 215.957 41.232 217.501 41.232Z" fill="#F2F2F2"/>
<path d="M55.44 10.5L28.36 7.60797L56.914 4.71997L55.44 10.5Z" fill="#F2F2F2"/>
<path d="M43.854 22.0599L15.681 19.1679L45.331 16.2789L43.854 22.0599Z" fill="#F2F2F2"/>
<path d="M40.9081 33.619L6.38306 30.728L42.3811 27.839L40.9081 33.619Z" fill="#F2F2F2"/>
<path d="M37.96 45.18L0 42.287L39.434 39.397L37.96 45.18Z" fill="#F2F2F2"/>
<path d="M35.0141 56.738L6.38306 53.847L36.4861 50.958L35.0141 56.738Z" fill="#F2F2F2"/>
<path d="M41.232 68.412L15.681 65.521L42.706 62.631L41.232 68.412Z" fill="#F2F2F2"/>
<path d="M55.542 79.9619L28.36 77.0689L57.016 74.1809L55.542 79.9619Z" fill="#F2F2F2"/>
<path d="M56.986 3.47796C58.148 3.12096 63.239 1.58196 63.865 2.29796C64.491 3.01296 66.17 4.76196 66.727 5.60696C67.443 6.69096 66.996 6.85896 66.459 7.66496C65.922 8.47096 62.792 12.138 59.572 14.016C56.351 15.894 56.529 17.684 56.799 19.204C57.067 20.725 58.14 24.302 55.457 30.294C52.773 36.287 50.537 44.337 54.026 52.209C57.515 60.08 61.808 66.341 62.345 69.292C62.881 72.244 62.345 73.765 63.327 74.928C64.312 76.09 63.865 80.563 58.945 79.847C54.025 79.131 42.398 76.717 36.136 66.431C29.875 56.144 26.656 40.67 32.738 28.506C38.82 16.342 47.23 13.478 50.896 12.137C54.563 10.795 55.824 3.83596 56.986 3.47796Z" fill="#2F2E41"/>
<path d="M62.346 69.291C61.809 66.34 57.516 60.079 54.027 52.208C50.538 44.336 52.775 36.286 55.458 30.293C58.141 24.301 57.068 20.724 56.8 19.203C56.732 18.822 56.67 18.426 56.666 18.015C55.758 17.971 52.828 18.375 51.436 19.632C46.798 23.821 41.971 32.54 43.138 44.175C44.429 57.047 50.732 71.488 63.751 76.519C63.772 75.851 63.608 75.255 63.329 74.926C62.346 73.764 62.882 72.243 62.346 69.291Z" fill="#2F2E41"/>
<path d="M43.018 37.2831C43.018 37.2831 43.097 36.8051 43.29 35.9951C44.378 28.4511 47.959 22.7701 51.433 19.6331C52.239 18.9061 53.558 18.4651 54.703 18.2311C54.703 18.2311 54.703 18.2301 54.704 18.2301C54.704 18.2301 53.791 12.4541 48.099 13.2221C43.874 15.0451 37.57 18.8331 32.735 28.5051C29.321 35.3331 28.839 43.2051 30.179 50.6151C31.179 44.1221 35.267 22.2121 43.018 37.2831Z" fill="#2F2E41"/>
<path d="M59.958 82.031C59.535 82.031 59.099 81.999 58.642 81.932C56.077 81.558 51.741 80.744 47.163 78.642C42.591 76.544 37.735 73.112 34.335 67.525C30.224 60.755 27.388 51.974 27.38 43.096C27.38 37.795 28.404 32.45 30.852 27.56C34.032 21.188 37.905 17.139 41.484 14.552C45.052 11.966 48.35 10.821 50.17 10.154C50.679 9.99 51.382 9.347 52.025 8.309C52.669 7.288 53.229 5.993 53.723 4.848C54.066 4.075 54.344 3.398 54.79 2.719C55.074 2.354 55.351 1.828 56.365 1.461C56.854 1.312 58.011 0.959 59.281 0.638C60.576 0.321 61.884 0.015 63.114 0C63.405 0.001 63.701 0.015 64.072 0.102C64.43 0.196 64.94 0.344 65.454 0.909C65.72 1.215 66.31 1.847 66.892 2.495C67.486 3.163 68.057 3.803 68.49 4.446C68.837 4.989 69.192 5.602 69.209 6.516C69.214 7.289 68.865 7.925 68.659 8.22C68.438 8.539 68.314 8.683 68.216 8.833C67.979 9.184 67.667 9.572 67.209 10.108C66.755 10.633 66.181 11.261 65.515 11.927C64.178 13.259 62.498 14.744 60.636 15.836C59.635 16.419 59.189 16.902 58.996 17.201C58.811 17.506 58.788 17.651 58.777 17.969C58.775 18.185 58.811 18.471 58.876 18.834C58.976 19.413 59.353 20.877 59.348 22.813C59.35 24.964 58.903 27.768 57.385 31.154C55.75 34.795 54.343 39.15 54.349 43.586C54.349 46.158 54.807 48.757 55.956 51.351C58.508 57.115 61.525 62.019 63.217 65.58C63.782 66.786 64.216 67.828 64.423 68.913C64.848 71.39 64.712 73.075 64.872 73.412C64.91 73.533 64.909 73.516 64.942 73.564C65.684 74.497 65.84 75.421 65.865 76.407C65.86 77.607 65.504 78.961 64.509 80.121C63.537 81.272 61.905 82.032 60.041 82.032C60.011 82.032 59.984 82.031 59.958 82.031ZM57.451 6.861C56.852 8.222 56.097 9.992 54.903 11.554C54.104 12.588 53.065 13.582 51.622 14.117C49.776 14.791 47.035 15.749 43.96 17.97C40.898 20.191 37.527 23.654 34.626 29.448C32.521 33.653 31.599 38.334 31.599 43.096C31.59 51.058 34.211 59.221 37.94 65.331C40.801 70.03 44.888 72.949 48.926 74.808C52.957 76.663 56.895 77.416 59.245 77.756C59.514 77.795 59.751 77.811 59.958 77.811C60.88 77.788 61.113 77.562 61.319 77.356C61.517 77.141 61.648 76.739 61.642 76.407C61.644 76.307 61.632 76.222 61.622 76.171C61.217 75.661 60.945 75.069 60.801 74.527C60.641 73.938 60.596 73.411 60.563 72.911C60.503 71.912 60.503 70.964 60.268 69.667C60.206 69.278 59.903 68.431 59.402 67.385C58.903 66.332 58.22 65.049 57.436 63.598C55.865 60.689 53.887 57.1 52.097 53.062C50.686 49.883 50.125 46.663 50.127 43.587C50.131 38.266 51.767 33.38 53.53 29.432C54.821 26.537 55.123 24.394 55.127 22.815C55.123 21.357 54.879 20.44 54.719 19.569C54.647 19.144 54.557 18.606 54.555 17.97C54.545 17.065 54.78 15.93 55.451 14.91C56.116 13.884 57.123 13 58.507 12.191C60.554 11.014 62.863 8.699 64.01 7.353C64.388 6.915 64.669 6.546 64.7 6.495C64.71 6.48 64.718 6.467 64.728 6.453C64.489 6.153 64.119 5.719 63.75 5.313C63.411 4.935 63.069 4.565 62.772 4.238C62.207 4.3 61.21 4.494 60.312 4.729C59.489 4.937 58.697 5.166 58.143 5.331C57.974 5.659 57.728 6.216 57.451 6.861ZM57.226 4.257L56.985 3.478L57.226 4.257Z" fill="#F2F2F2"/>
</svg>
