<svg width="284" height="79" viewBox="0 0 284 79" fill="none" xmlns="http://www.w3.org/2000/svg">
<g clip-path="url(#clip0)">
<path d="M10.237 63.063V53.865L0.76 44.388C0.28 43.908 0 43.268 0 42.588C0 41.229 1.2 40.028 2.56 40.028C3.241 40.028 3.88 40.308 4.361 40.788L12.798 49.226L21.236 40.788C21.716 40.309 22.356 40.028 23.036 40.028C24.396 40.028 25.596 41.228 25.596 42.588C25.596 43.268 25.316 43.908 24.836 44.388L15.357 53.866V63.064C15.357 64.463 14.197 65.624 12.797 65.624C11.398 65.623 10.237 64.463 10.237 63.063Z" fill="#F2F2F2"/>
<path d="M37.213 40.028C44.291 40.028 50.01 45.747 50.01 52.826C50.01 59.904 44.291 65.623 37.213 65.623C30.135 65.623 24.416 59.904 24.416 52.826C24.416 45.747 30.135 40.028 37.213 40.028ZM37.213 60.504C41.452 60.504 44.892 57.065 44.892 52.826C44.892 48.587 41.453 45.147 37.213 45.147C32.973 45.147 29.534 48.586 29.534 52.826C29.534 57.064 32.974 60.504 37.213 60.504Z" fill="#F2F2F2"/>
<path d="M74.647 60.064C74.647 60.503 74.527 60.903 74.326 61.263C74.726 61.783 74.967 62.382 74.967 63.063C74.967 64.663 73.688 65.942 72.088 65.942C71.088 65.942 70.208 65.463 69.688 64.663C68.129 65.303 66.489 65.623 64.85 65.623C57.772 65.623 52.052 59.904 52.052 52.826C52.052 45.747 57.772 40.028 64.85 40.028C68.129 40.028 71.368 41.308 73.887 43.787C74.366 44.267 74.648 44.947 74.648 45.588C74.648 46.987 73.448 48.147 72.088 48.147C71.407 48.147 70.768 47.907 70.287 47.387C68.808 45.867 66.808 45.148 64.849 45.148C60.61 45.148 57.17 48.587 57.17 52.827C57.17 57.065 60.609 60.505 64.849 60.505C66.488 60.505 68.128 60.025 69.528 58.945V55.385H67.408C66.009 55.385 64.849 54.226 64.849 52.826C64.849 51.426 66.008 50.265 67.408 50.265H72.088C73.487 50.265 74.648 51.425 74.648 52.826V60.064H74.647Z" fill="#F2F2F2"/>
<path d="M101.904 63.063C101.904 64.462 100.744 65.623 99.343 65.623C97.945 65.623 96.784 64.463 96.784 63.063V57.944H83.988V63.063C83.988 64.462 82.828 65.623 81.428 65.623C80.028 65.623 78.868 64.463 78.868 63.063V51.546C78.868 45.188 84.027 40.028 90.386 40.028C96.745 40.028 101.904 45.187 101.904 51.546V63.063ZM83.988 52.826H96.785V51.546C96.785 48.026 93.906 45.148 90.387 45.148C86.868 45.148 83.989 48.027 83.989 51.546V52.826H83.988Z" fill="#F2F2F2"/>
<path d="M183.092 65.623C181.694 65.623 180.533 64.463 180.533 63.063V42.588C180.533 41.188 181.693 40.028 183.092 40.028H194.61C198.85 40.028 202.288 43.467 202.288 47.707C202.288 49.347 201.768 50.865 200.89 52.105C202.531 53.505 203.57 55.625 203.57 57.944C203.57 62.183 200.131 65.623 195.89 65.623H183.092ZM185.653 45.147V50.265H194.61C196.01 50.265 197.171 49.106 197.171 47.706C197.171 46.306 196.011 45.146 194.61 45.146H185.653V45.147ZM185.653 55.385V60.504H195.889C197.289 60.504 198.45 59.344 198.45 57.944C198.45 56.544 197.29 55.384 195.889 55.384H185.653V55.385Z" fill="#F2F2F2"/>
<path d="M229.729 63.063C229.729 64.462 228.569 65.623 227.17 65.623C225.771 65.623 224.611 64.463 224.611 63.063V57.944H211.812V63.063C211.812 64.462 210.654 65.623 209.253 65.623C207.855 65.623 206.692 64.463 206.692 63.063V51.546C206.692 45.188 211.852 40.028 218.21 40.028C224.569 40.028 229.728 45.187 229.728 51.546V63.063H229.729ZM211.813 52.826H224.612V51.546C224.612 48.026 221.733 45.148 218.212 45.148C214.694 45.148 211.814 48.027 211.814 51.546V52.826H211.813Z" fill="#F2F2F2"/>
<path d="M236.68 65.623C235.28 65.623 234.119 64.463 234.119 63.063V42.588C234.119 41.188 235.279 40.028 236.68 40.028H248.198C252.436 40.028 255.876 43.467 255.876 47.707C255.876 49.347 255.355 50.865 254.476 52.105C256.117 53.505 257.156 55.625 257.156 57.944C257.156 62.183 253.717 65.623 249.478 65.623H236.68ZM239.239 45.147V50.265H248.198C249.596 50.265 250.757 49.106 250.757 47.706C250.757 46.306 249.597 45.146 248.198 45.146H239.239V45.147ZM239.239 55.385V60.504H249.477C250.875 60.504 252.038 59.344 252.038 57.944C252.038 56.544 250.876 55.384 249.477 55.384H239.239V55.385Z" fill="#F2F2F2"/>
<path d="M268.108 63.063V53.865L258.628 44.387C258.149 43.908 257.87 43.267 257.87 42.587C257.87 41.228 259.069 40.027 260.429 40.027C261.109 40.027 261.749 40.307 262.23 40.787L270.668 49.225L279.106 40.787C279.586 40.308 280.227 40.027 280.907 40.027C282.266 40.027 283.466 41.227 283.466 42.587C283.466 43.267 283.185 43.907 282.706 44.387L273.227 53.865V63.063C273.227 64.462 272.067 65.623 270.668 65.623C269.269 65.623 268.108 64.463 268.108 63.063Z" fill="#F2F2F2"/>
<path d="M134.084 44.07C134.084 41.59 132.07 39.578 129.591 39.578C128.551 39.578 127.599 39.933 126.837 40.525L126.833 40.522L113.353 51.006L113.357 51.009C112.299 51.831 111.616 53.113 111.616 54.555C111.616 57.036 113.63 59.048 116.111 59.048C117.149 59.048 118.103 58.693 118.865 58.101L118.868 58.104L132.347 47.62L132.345 47.617C133.4 46.794 134.084 45.514 134.084 44.07Z" fill="#2F2E41"/>
<path d="M141.218 40.175C151.145 40.175 159.192 32.1278 159.192 22.201C159.192 12.2743 151.145 4.22705 141.218 4.22705C131.291 4.22705 123.244 12.2743 123.244 22.201C123.244 32.1278 131.291 40.175 141.218 40.175Z" fill="#2F2E41"/>
<path d="M141.218 71.032C151.145 71.032 159.192 63.655 159.192 54.555C159.192 45.455 151.145 38.078 141.218 38.078C131.291 38.078 123.244 45.455 123.244 54.555C123.244 63.655 131.291 71.032 141.218 71.032Z" fill="#2F2E41"/>
<path d="M129.713 39.5801H133.907L132.279 40.4721L129.713 39.5801Z" fill="#2F2E41"/>
<path d="M148.352 44.07C148.352 41.59 150.366 39.578 152.846 39.578C153.885 39.578 154.838 39.933 155.6 40.525L155.604 40.522L169.083 51.006L169.081 51.009C170.136 51.831 170.819 53.113 170.819 54.555C170.819 57.036 168.807 59.048 166.325 59.048C165.288 59.048 164.335 58.693 163.571 58.101L163.569 58.104L150.09 47.62L150.092 47.617C149.036 46.794 148.352 45.514 148.352 44.07Z" fill="#2F2E41"/>
<path d="M152.721 39.5801H148.53L150.155 40.4721L152.721 39.5801Z" fill="#2F2E41"/>
<path d="M123.559 23.283C122.334 23.283 121.345 22.293 121.345 21.072C121.345 19.849 122.334 18.859 123.559 18.859V23.283Z" fill="#2F2E41"/>
<path d="M158.877 23.283C160.1 23.283 161.092 22.293 161.092 21.072C161.092 19.849 160.1 18.859 158.877 18.859V23.283Z" fill="#2F2E41"/>
<path d="M128.105 68.2581L156.928 56.4951L156.932 56.4981C157.627 56.2131 158.389 56.0531 159.192 56.0531C162.499 56.0531 165.182 58.7371 165.182 62.0451C165.182 64.9531 163.11 67.3761 160.362 67.9201V67.9221L129.821 73.9701L129.82 73.9691C129.632 74.0071 129.435 74.0281 129.236 74.0281C127.582 74.0281 126.24 72.6861 126.24 71.0321C126.24 69.7771 127.01 68.7041 128.105 68.2581Z" fill="#2F2E41"/>
<path d="M154.331 68.2581L125.506 56.4951V56.4981C124.809 56.2131 124.045 56.0531 123.244 56.0531C119.935 56.0531 117.252 58.7371 117.252 62.0451C117.252 64.9531 119.326 67.3761 122.075 67.9201V67.9221L152.616 73.9701V73.9691C152.804 74.0071 153.001 74.0281 153.2 74.0281C154.854 74.0281 156.196 72.6861 156.196 71.0321C156.196 69.7771 155.424 68.7041 154.331 68.2581Z" fill="#2F2E41"/>
<path d="M129.657 58.188H152.778L141.219 62.906L129.657 58.188Z" fill="#F2F2F2"/>
<path d="M120.88 56.5391L129.579 49.7721L123.316 56.0551L120.88 56.5391Z" fill="#F2F2F2"/>
<path d="M161.555 56.5391L152.856 49.7721L159.12 56.0551L161.555 56.5391Z" fill="#F2F2F2"/>
<path d="M134.688 29.616C134.688 30.485 134.334 31.272 133.764 31.842C133.194 32.41 132.407 32.764 131.54 32.764C130.673 32.764 129.885 32.41 129.316 31.842C128.746 31.273 128.392 30.486 128.392 29.616C128.392 28.746 128.746 27.959 129.316 27.39C129.884 26.822 130.672 26.469 131.54 26.469C132.406 26.469 133.193 26.822 133.764 27.39C134.335 27.958 134.688 28.747 134.688 29.616Z" fill="#F2F2F2"/>
<path d="M147.749 29.616C147.749 30.485 148.101 31.272 148.671 31.842C149.243 32.41 150.03 32.764 150.896 32.764C151.763 32.764 152.55 32.41 153.121 31.842C153.691 31.273 154.043 30.486 154.043 29.616C154.043 28.746 153.691 27.959 153.121 27.39C152.551 26.821 151.764 26.469 150.896 26.469C150.031 26.469 149.244 26.822 148.671 27.39C148.1 27.959 147.749 28.747 147.749 29.616Z" fill="#F2F2F2"/>
<path d="M134.752 12.2521C133.685 11.6191 132.9 10.6571 132.896 9.47705C132.896 9.12705 133.178 8.84405 133.529 8.84405C133.88 8.84405 134.165 9.12705 134.165 9.47705C134.159 10.0391 134.557 10.6551 135.403 11.1641C136.236 11.6641 137.456 12.0001 138.811 11.9981C138.931 11.9981 139.051 11.9961 139.168 11.9911C138.311 11.3671 137.716 10.5051 137.712 9.47705C137.717 8.69505 138.232 8.09305 138.861 7.72005C139.504 7.33805 140.322 7.12905 141.218 7.12805C142.114 7.12905 142.933 7.33805 143.574 7.72005C144.205 8.09305 144.717 8.69505 144.724 9.47705C144.72 10.5041 144.124 11.3671 143.267 11.9911C143.386 11.9961 143.505 11.9981 143.624 11.9981C144.978 12.0001 146.2 11.6641 147.032 11.1641C147.876 10.6551 148.274 10.0401 148.268 9.47705H148.272C148.272 9.12705 148.555 8.84405 148.903 8.84405C149.251 8.84405 149.54 9.12705 149.54 9.47705C149.532 10.6581 148.747 11.6201 147.683 12.2521C146.607 12.8931 145.185 13.2641 143.624 13.2641C142.769 13.2641 141.956 13.1531 141.217 12.9461C140.479 13.1531 139.663 13.2641 138.809 13.2661C137.248 13.2641 135.829 12.8931 134.752 12.2521ZM139.512 8.80805C139.102 9.05705 138.973 9.31305 138.979 9.47705C138.975 10.0391 139.373 10.6551 140.217 11.1641C140.506 11.3391 140.845 11.4931 141.219 11.6201C141.592 11.4931 141.93 11.3391 142.22 11.1641C143.063 10.6551 143.462 10.0401 143.458 9.47705C143.464 9.31305 143.335 9.05705 142.925 8.80805C142.527 8.56905 141.909 8.39505 141.219 8.39505C141.213 8.39505 141.211 8.39505 141.207 8.39505C140.521 8.39505 139.91 8.56905 139.512 8.80805Z" fill="#F2F2F2"/>
<path d="M141.22 35.15C139.065 35.15 137.01 34.478 135.158 33.277C134.963 33.15 134.908 32.888 135.034 32.693C135.162 32.496 135.424 32.441 135.619 32.567C137.356 33.693 139.241 34.303 141.221 34.303C143.197 34.303 145.078 33.691 146.816 32.567H146.818C147.013 32.439 147.275 32.496 147.402 32.691C147.531 32.887 147.474 33.149 147.277 33.276C145.425 34.476 143.377 35.15 141.225 35.15C141.223 35.15 141.22 35.15 141.22 35.15Z" fill="#F2F2F2"/>
<path d="M134.207 25.43C135.99 25.43 137.436 23.9844 137.436 22.201C137.436 20.4177 135.99 18.972 134.207 18.972C132.424 18.972 130.978 20.4177 130.978 22.201C130.978 23.9844 132.424 25.43 134.207 25.43Z" fill="#F2F2F2"/>
<path d="M135.822 23.8151C135.822 24.2611 135.641 24.6641 135.349 24.9571C135.055 25.2481 134.652 25.4291 134.207 25.4291C133.762 25.4291 133.358 25.2481 133.066 24.9571C132.773 24.6641 132.593 24.2621 132.593 23.8151C132.593 23.3681 132.773 22.9651 133.066 22.6731C133.358 22.3811 133.761 22.2001 134.207 22.2001C134.651 22.2001 135.055 22.3811 135.349 22.6731C135.642 22.9661 135.822 23.3691 135.822 23.8151Z" fill="#2F2E41"/>
<path d="M135.35 23.4811C135.796 23.4811 136.157 23.1198 136.157 22.6741C136.157 22.2284 135.796 21.8671 135.35 21.8671C134.904 21.8671 134.543 22.2284 134.543 22.6741C134.543 23.1198 134.904 23.4811 135.35 23.4811Z" fill="#F2F2F2"/>
<path d="M148.227 25.43C150.01 25.43 151.456 23.9844 151.456 22.201C151.456 20.4177 150.01 18.972 148.227 18.972C146.444 18.972 144.998 20.4177 144.998 22.201C144.998 23.9844 146.444 25.43 148.227 25.43Z" fill="#F2F2F2"/>
<path d="M149.842 23.8151C149.842 24.2611 149.66 24.6641 149.367 24.9571C149.076 25.2481 148.674 25.4291 148.228 25.4291C147.782 25.4291 147.378 25.2481 147.083 24.9571C146.794 24.6641 146.61 24.2621 146.61 23.8151C146.61 23.3681 146.794 22.9651 147.083 22.6731C147.378 22.3811 147.782 22.2001 148.228 22.2001C148.674 22.2001 149.076 22.3811 149.367 22.6731C149.661 22.9661 149.842 23.3691 149.842 23.8151Z" fill="#2F2E41"/>
<path d="M149.368 23.4811C149.814 23.4811 150.175 23.1198 150.175 22.6741C150.175 22.2284 149.814 21.8671 149.368 21.8671C148.922 21.8671 148.561 22.2284 148.561 22.6741C148.561 23.1198 148.922 23.4811 149.368 23.4811Z" fill="#F2F2F2"/>
<path d="M141.219 71.713L134.145 70.312L139.602 72.033L141.219 71.713Z" fill="white"/>
<path d="M141.219 62.9061L148.293 65.7931L142.502 62.3831L141.219 62.9061Z" fill="#F2F2F2"/>
<path d="M141.218 55.203C141.575 55.203 141.864 54.9138 141.864 54.557C141.864 54.2002 141.575 53.911 141.218 53.911C140.861 53.911 140.572 54.2002 140.572 54.557C140.572 54.9138 140.861 55.203 141.218 55.203Z" fill="#F2F2F2"/>
<path d="M171.674 47.675L158.197 37.186C158.08 37.096 157.963 37.009 157.842 36.924C160.557 33.86 162.408 30.059 163.104 25.915C164.467 24.728 165.319 22.985 165.319 21.072C165.319 18.842 164.178 16.874 162.452 15.717C159.643 6.479 151.069 0 141.219 0V4.227C150.005 4.227 157.317 10.536 158.878 18.87V18.86C160.101 18.86 161.093 19.85 161.093 21.073C161.093 22.198 160.245 23.118 159.159 23.257C158.737 30.55 153.968 36.676 147.405 39.083C147.85 39.232 148.284 39.401 148.71 39.581H152.722L152.71 39.585C152.757 39.584 152.8 39.579 152.847 39.579C153.886 39.579 154.839 39.934 155.601 40.526L155.605 40.523L169.084 51.007L169.082 51.01C170.137 51.832 170.82 53.114 170.82 54.556C170.82 57.037 168.808 59.049 166.326 59.049C165.422 59.049 164.586 58.779 163.879 58.32C164.695 59.342 165.184 60.636 165.184 62.046C165.184 64.954 163.112 67.377 160.364 67.921V67.923L155.317 68.922C155.86 69.463 156.198 70.206 156.198 71.032C156.198 72.686 154.856 74.028 153.202 74.028C153.003 74.028 152.806 74.007 152.618 73.969V73.97L141.221 71.713V76.022L151.796 78.118C152.259 78.208 152.732 78.255 153.202 78.255C156.774 78.255 159.749 75.65 160.325 72.24L161.186 72.069C165.729 71.168 169.086 67.296 169.389 62.722C172.692 61.481 175.047 58.288 175.047 54.556C175.045 51.85 173.817 49.341 171.674 47.675Z" fill="#F2F2F2"/>
<path d="M110.762 47.675L124.24 37.186C124.356 37.096 124.474 37.009 124.594 36.924C121.88 33.86 120.028 30.059 119.332 25.915C117.97 24.728 117.118 22.985 117.118 21.072C117.118 18.842 118.258 16.874 119.985 15.717C122.793 6.479 131.367 0 141.219 0V4.227C132.432 4.227 125.119 10.536 123.559 18.87V18.86C122.336 18.86 121.345 19.85 121.345 21.073C121.345 22.198 122.192 23.118 123.279 23.257C123.701 30.55 128.469 36.676 135.033 39.083C134.588 39.232 134.154 39.401 133.727 39.581H129.715L129.728 39.585C129.681 39.584 129.637 39.579 129.591 39.579C128.552 39.579 127.599 39.934 126.837 40.526L126.833 40.523L113.354 51.007L113.357 51.01C112.301 51.832 111.618 53.114 111.618 54.556C111.618 57.037 113.63 59.049 116.112 59.049C117.016 59.049 117.853 58.779 118.559 58.32C117.744 59.342 117.254 60.636 117.254 62.046C117.254 64.954 119.326 67.377 122.075 67.921V67.923L127.121 68.922C126.579 69.463 126.24 70.206 126.24 71.032C126.24 72.686 127.582 74.028 129.236 74.028C129.435 74.028 129.632 74.007 129.821 73.969V73.97L141.218 71.713V76.022L130.642 78.118C130.179 78.208 129.706 78.255 129.236 78.255C125.665 78.255 122.689 75.65 122.113 72.24L121.252 72.069C116.709 71.168 113.353 67.296 113.049 62.722C109.747 61.481 107.391 58.288 107.391 54.556C107.391 51.85 108.619 49.341 110.762 47.675Z" fill="#F2F2F2"/>
</g>
<defs>
<clipPath id="clip0">
<rect width="283.463" height="78.254" fill="white"/>
</clipPath>
</defs>
</svg>
