<svg width="148" height="114" viewBox="0 0 148 114" fill="none" xmlns="http://www.w3.org/2000/svg">
<g clip-path="url(#clip0)">
<path d="M3.39801 43.188V37.243H5.64201C6.10301 37.243 6.46401 37.259 6.86501 37.52C7.26301 37.79 7.49101 38.205 7.49101 38.69C7.49101 39.366 7.09301 39.869 6.44001 40.023V40.042C7.17601 40.197 7.66901 40.788 7.66901 41.55C7.66901 42.056 7.49901 42.495 7.10001 42.808C6.64701 43.165 6.18001 43.189 5.63301 43.189H3.39801V43.188ZM5.29701 39.791C5.66901 39.791 6.07601 39.8 6.38101 39.565C6.62501 39.389 6.75201 39.072 6.75201 38.787C6.75201 38.43 6.61501 38.179 6.30901 37.996C6.05001 37.85 5.78401 37.85 5.48901 37.85H4.14301V39.79H5.29701V39.791ZM5.60101 42.556C5.92801 42.556 6.29501 42.522 6.55501 42.313C6.80501 42.125 6.92501 41.838 6.92501 41.516C6.92501 41.16 6.77001 40.806 6.49401 40.588C6.20901 40.362 5.83501 40.362 5.49601 40.362H4.14301V42.555H5.60101V42.556Z" fill="#F2F2F2"/>
<path d="M15.25 41.0051C15.25 41.5941 15.215 42.1401 14.813 42.6171C14.416 43.0941 13.817 43.2761 13.211 43.2761C12.631 43.2761 12.013 43.1521 11.615 42.7041C11.18 42.2201 11.147 41.6201 11.147 41.0051V37.2431H11.892V41.0051C11.892 41.3601 11.902 41.8461 12.117 42.1561C12.361 42.5131 12.865 42.6171 13.27 42.6171C13.651 42.6171 14.085 42.4951 14.336 42.1921C14.624 41.8531 14.624 41.4111 14.624 41.0041V37.2421H15.248V41.0051H15.25Z" fill="#F2F2F2"/>
<path d="M19.064 43.188V37.243H19.809V43.188H19.064Z" fill="#F2F2F2"/>
<path d="M27.145 43.188H23.633V37.243H24.38V42.529H27.145V43.188Z" fill="#F2F2F2"/>
<path d="M30.37 37.243H32.252C33.098 37.243 33.734 37.415 34.294 38.083C34.81 38.681 35.017 39.426 35.017 40.197C35.017 40.926 34.825 41.645 34.403 42.243C33.924 42.911 33.308 43.188 32.493 43.188H30.37V37.243ZM32.206 42.556C32.893 42.556 33.437 42.401 33.825 41.802C34.124 41.352 34.261 40.738 34.261 40.198C34.261 39.593 34.105 38.96 33.715 38.473C33.308 37.962 32.831 37.867 32.206 37.867H31.112V42.556H32.206Z" fill="#F2F2F2"/>
<path d="M38.5 43.188V37.243H39.245V43.188H38.5Z" fill="#F2F2F2"/>
<path d="M47.412 43.188H46.683L43.657 38.003V43.188H43.036V37.243H43.969L46.784 42.089V37.243H47.412V43.188V43.188Z" fill="#F2F2F2"/>
<path d="M55.68 43.232H55.222L55.021 42.495C54.65 43.04 54.025 43.276 53.378 43.276C52.576 43.276 51.991 42.993 51.52 42.357C51.07 41.742 50.898 41.03 50.898 40.276C50.898 38.716 51.711 37.155 53.47 37.155C54.606 37.155 55.342 37.798 55.619 38.863L54.918 39.036C54.769 38.291 54.195 37.779 53.419 37.779C52.074 37.779 51.701 39.148 51.701 40.242C51.701 40.753 51.796 41.36 52.039 41.818C52.307 42.321 52.838 42.669 53.426 42.669C54.345 42.669 54.918 42.044 54.918 41.143V40.814H53.437V40.19H55.68V43.232V43.232Z" fill="#F2F2F2"/>
<path d="M68.106 41.334C67.83 42.461 67.16 43.276 65.905 43.276C64.191 43.276 63.485 41.62 63.485 40.155C63.485 38.622 64.243 37.155 65.964 37.155C67.16 37.155 67.863 37.962 68.107 39.052L67.408 39.184C67.199 38.429 66.824 37.779 65.94 37.779C64.648 37.779 64.302 39.184 64.302 40.217C64.302 40.684 64.381 41.263 64.579 41.697C64.821 42.228 65.284 42.65 65.905 42.65C66.817 42.65 67.24 41.965 67.432 41.187L68.106 41.334Z" fill="#F2F2F2"/>
<path d="M71.274 40.258C71.274 38.775 72.003 37.155 73.716 37.155C75.39 37.155 76.163 38.68 76.163 40.146C76.163 41.603 75.416 43.276 73.726 43.276C72.021 43.276 71.274 41.75 71.274 40.258ZM75.383 40.19C75.383 39.661 75.296 39.044 75.03 38.569C74.759 38.1 74.301 37.769 73.744 37.769C72.418 37.769 72.053 39.201 72.053 40.266C72.053 41.29 72.47 42.668 73.728 42.668C75.003 42.669 75.383 41.212 75.383 40.19Z" fill="#F2F2F2"/>
<path d="M84.029 43.188H83.3L80.274 38.003V43.188H79.65V37.243H80.587L83.405 42.089V37.243H84.03V43.188H84.029Z" fill="#F2F2F2"/>
<path d="M89.659 43.188H88.91V37.89H87.222V37.243H91.347V37.89H89.659V43.188V43.188Z" fill="#F2F2F2"/>
<path d="M98.052 43.188L96.952 40.615H95.303V43.188H94.557V37.243H96.787C97.272 37.243 97.74 37.303 98.138 37.604C98.539 37.91 98.771 38.404 98.771 38.907C98.771 39.607 98.355 40.242 97.661 40.43L98.831 43.188H98.052ZM96.698 40.009C97.095 40.009 97.427 39.983 97.72 39.678C97.929 39.47 98.023 39.185 98.023 38.899C98.023 38.552 97.896 38.265 97.608 38.076C97.349 37.891 97.095 37.884 96.787 37.884H95.303V40.01H96.698V40.009Z" fill="#F2F2F2"/>
<path d="M106.572 43.188H105.811L105.21 41.455H103.01L102.481 43.188H101.856L103.781 37.243H104.637L106.572 43.188ZM104.135 38.04L103.22 40.893H105.047L104.135 38.04Z" fill="#F2F2F2"/>
<path d="M113.888 41.334C113.61 42.461 112.943 43.276 111.686 43.276C109.97 43.276 109.269 41.62 109.269 40.155C109.269 38.622 110.023 37.155 111.747 37.155C112.943 37.155 113.644 37.962 113.889 39.052L113.188 39.184C112.978 38.429 112.603 37.779 111.719 37.779C110.432 37.779 110.083 39.184 110.083 40.217C110.083 40.684 110.162 41.263 110.36 41.697C110.602 42.228 111.063 42.65 111.686 42.65C112.596 42.65 113.022 41.965 113.211 41.187L113.888 41.334Z" fill="#F2F2F2"/>
<path d="M119.167 43.188H118.419V37.89H116.73V37.243H120.857V37.89H119.168V43.188H119.167Z" fill="#F2F2F2"/>
<path d="M123.604 40.258C123.604 38.775 124.335 37.155 126.049 37.155C127.723 37.155 128.493 38.68 128.493 40.146C128.493 41.603 127.747 43.276 126.058 43.276C124.349 43.276 123.604 41.75 123.604 40.258ZM127.716 40.19C127.716 39.661 127.628 39.044 127.36 38.569C127.092 38.1 126.634 37.769 126.077 37.769C124.752 37.769 124.387 39.201 124.387 40.266C124.387 41.29 124.804 42.668 126.061 42.668C127.333 42.669 127.716 41.212 127.716 40.19Z" fill="#F2F2F2"/>
<path d="M135.492 43.188L134.39 40.615H132.742V43.188H131.998V37.243H134.225C134.71 37.243 135.177 37.303 135.576 37.604C135.976 37.91 136.21 38.404 136.21 38.907C136.21 39.607 135.793 40.242 135.102 40.43L136.273 43.188H135.492ZM134.14 40.009C134.536 40.009 134.868 39.983 135.162 39.678C135.369 39.47 135.466 39.185 135.466 38.899C135.466 38.552 135.334 38.265 135.05 38.076C134.789 37.891 134.536 37.884 134.225 37.884H132.743V40.01H134.14V40.009Z" fill="#F2F2F2"/>
<path d="M139.977 41.4381C140.219 42.2631 140.903 42.6441 141.735 42.6441C142.092 42.6441 142.524 42.5661 142.803 42.3491C143.03 42.1751 143.169 41.8701 143.169 41.5841C143.169 40.9861 142.672 40.7441 142.151 40.6151L141.164 40.3701C140.766 40.2761 140.403 40.1821 140.092 39.8941C139.777 39.6181 139.605 39.2091 139.605 38.7941C139.605 37.6481 140.592 37.1541 141.623 37.1541C142.62 37.1541 143.421 37.6481 143.742 38.6091L143.063 38.7941C142.936 38.1431 142.241 37.7451 141.608 37.7451C141.043 37.7451 140.334 38.0391 140.334 38.6891C140.334 39.3561 140.854 39.5031 141.409 39.6341L142.302 39.8501C142.692 39.9361 143.082 40.0491 143.384 40.3091C143.757 40.6141 143.939 41.0211 143.939 41.4891C143.939 42.0261 143.705 42.5121 143.272 42.8421C142.839 43.1721 142.257 43.2761 141.723 43.2761C140.506 43.2761 139.71 42.7381 139.312 41.5841L139.977 41.4381Z" fill="#F2F2F2"/>
<path d="M0 26.042C0.832 26.175 1.013 26.175 1.537 26.175C3.598 26.175 3.956 25.383 3.956 22.398V0.483032H8.345V22.222C8.345 24.636 8.345 29.994 2.37 29.994C2.019 29.994 0.966 29.994 0 29.686V26.042H0Z" fill="#F2F2F2"/>
<path d="M19.203 29.775L18.193 21.694H14.68L13.76 29.775H9.84802L14.372 0.483032H18.675L23.33 29.775H19.203ZM17.798 18.14L17.139 12.911C16.963 11.507 16.351 5.75403 16.26 4.91903C16.214 5.75403 16.173 6.49903 16.04 7.86003C15.775 10.672 15.733 10.979 15.557 12.955L14.987 18.14H17.798Z" fill="#F2F2F2"/>
<path d="M38.085 29.775V18.709C38.085 17.215 38.17 12.386 38.217 8.03603C38.128 8.56403 37.204 15.678 36.77 18.709L35.055 29.775H31.805L30.005 18.445C28.993 12.077 28.993 12.033 28.6 8.03603C28.731 13.79 28.819 17.171 28.819 18.578V29.775H25.393V0.483032H30.136L32.551 15.852C32.903 17.829 33.164 20.771 33.472 24.153C33.604 21.257 33.868 19.322 34.438 15.852L36.77 0.483032H41.643V29.775H38.085V29.775Z" fill="#F2F2F2"/>
<path d="M45.153 29.775V0.483032H55.122V4.21503H49.543V12.56H53.585V16.291H49.543V26.041H55.517V29.774H45.153V29.775Z" fill="#F2F2F2"/>
<path d="M61.096 22.619C61.144 24.462 61.227 26.481 62.941 26.481C64.215 26.481 64.828 25.252 64.828 22.31C64.828 18.972 63.774 18.049 61.01 15.722C59.914 14.798 57.365 12.251 57.365 7.72898C57.365 3.64498 58.901 0.130981 63.029 0.130981C67.244 0.130981 68.476 3.59998 68.693 6.54298L64.609 7.06998C64.301 3.81998 63.687 3.81998 63.074 3.81998C62.017 3.81998 61.711 5.18298 61.711 7.33298C61.711 9.44298 62.194 10.452 64.609 12.472C67.199 14.712 69.175 16.866 69.175 21.521C69.175 25.166 68.387 30.126 62.985 30.126C57.887 30.126 57.012 25.866 57.012 23.055L61.096 22.619Z" fill="#F2F2F2"/>
<path d="M94.017 22.619C94.057 24.462 94.147 26.481 95.861 26.481C97.133 26.481 97.749 25.252 97.749 22.31C97.749 18.972 96.694 18.049 93.931 15.722C92.829 14.798 90.283 12.251 90.283 7.72898C90.283 3.64498 91.817 0.130981 95.946 0.130981C100.165 0.130981 101.395 3.59998 101.614 6.54298L97.526 7.06998C97.218 3.81998 96.608 3.81998 95.989 3.81998C94.937 3.81998 94.629 5.18298 94.629 7.33298C94.629 9.44298 95.114 10.452 97.526 12.472C100.118 14.712 102.092 16.866 102.092 21.521C102.092 25.166 101.304 30.126 95.902 30.126C90.807 30.126 89.932 25.866 89.932 23.055L94.017 22.619Z" fill="#F2F2F2"/>
<path d="M110.657 0.131958C115.314 0.131958 117.332 3.81996 117.332 15.152C117.332 26.482 115.314 30.127 110.657 30.127C104.729 30.127 104.025 23.759 104.025 15.152C104.025 6.85296 104.598 0.131958 110.657 0.131958ZM109.076 24.727C109.251 25.561 109.559 26.482 110.657 26.482C111.756 26.482 112.063 25.602 112.24 24.727C112.636 22.749 112.636 16.426 112.636 15.899C112.636 11.727 112.591 9.87996 112.415 6.76296C112.325 4.61196 111.8 3.77696 110.657 3.77696C109.559 3.77696 109.251 4.61196 109.076 5.53396C108.723 7.37696 108.723 14.974 108.723 15.152C108.724 17.437 108.724 22.749 109.076 24.727Z" fill="#F2F2F2"/>
<path d="M129.252 29.775L125.343 16.82C125.211 16.381 124.288 13.439 123.458 9.44303C123.59 12.78 123.806 18.488 123.806 20.332V29.775H120.204V0.483032H123.895L127.627 13.659C128.638 17.215 128.991 18.534 129.648 21.345C129.429 17.874 129.252 14.099 129.252 10.892V0.483032H132.81V29.775H129.252V29.775Z" fill="#F2F2F2"/>
<path d="M139.256 22.619C139.3 24.462 139.388 26.481 141.1 26.481C142.372 26.481 142.988 25.252 142.988 22.31C142.988 18.972 141.935 18.049 139.167 15.722C138.071 14.798 135.521 12.251 135.521 7.72898C135.521 3.64498 137.058 0.130981 141.187 0.130981C145.402 0.130981 146.634 3.59998 146.85 6.54298L142.769 7.06898C142.462 3.81898 141.846 3.81898 141.232 3.81898C140.177 3.81898 139.868 5.18198 139.868 7.33198C139.868 9.44198 140.356 10.451 142.769 12.471C145.361 14.711 147.337 16.865 147.337 21.52C147.337 25.165 146.544 30.125 141.144 30.125C136.05 30.125 135.172 25.865 135.172 23.054L139.256 22.619Z" fill="#F2F2F2"/>
<path d="M85.538 23.873C85.187 24.05 84.906 24.122 84.414 24.122C83.216 24.122 82.581 23.416 81.981 22.571C81.454 23.169 80.541 24.155 78.601 24.155C74.834 24.155 73.565 20.811 73.565 17.676C73.565 14.156 74.94 12.253 76.455 10.141C75.328 7.922 74.587 6.514 74.587 4.718C74.587 2.535 75.891 0 78.531 0C80.785 0 82.546 1.688 82.546 4.684C82.546 6.374 81.982 8.135 79.766 10.599L82.3 16.199C82.546 15.072 82.685 12.713 82.685 12.327L85.26 12.64C85.08 15.389 84.695 17.255 83.815 19.402C84.166 20.284 84.626 21.023 85.26 21.023C85.402 21.023 85.466 20.987 85.538 20.951V23.873V23.873ZM77.758 13.029C76.838 14.966 76.838 17.008 76.838 17.536C76.838 19.191 77.266 21.267 78.883 21.267C79.164 21.267 80.224 21.199 80.89 20.074L77.758 13.029ZM78.602 8.1C79.06 7.5 79.905 6.409 79.905 4.65C79.905 3.276 79.344 2.712 78.747 2.712C78.11 2.712 77.58 3.381 77.58 4.65C77.579 6.092 78.355 7.604 78.602 8.1Z" fill="#F2F2F2"/>
<path d="M85.538 26.042H73.566V29.775H85.538V26.042Z" fill="#F2F2F2"/>
<path d="M35.317 76.483L3.362 58.032V50.653L35.317 69.104V76.483Z" fill="#F2F2F2"/>
<path d="M35.317 76.483L67.276 58.032V50.653L35.317 69.104V76.483Z" fill="#F2F2F2"/>
<path d="M35.317 91.2449L3.362 72.7929V65.4149L35.317 83.8659V91.2449Z" fill="#F2F2F2"/>
<path d="M35.317 91.2449L48.101 83.8639L41.711 80.174L35.317 83.8659V91.2449Z" fill="#F2F2F2"/>
<path d="M73.669 98.624L41.711 80.174V72.793L73.669 91.245V98.624Z" fill="#F2F2F2"/>
<path d="M73.669 98.624L105.624 80.174V72.793L73.669 91.245V98.624Z" fill="#F2F2F2"/>
<path d="M112.016 76.483L80.06 58.032V50.653L112.016 69.104V76.483Z" fill="#F2F2F2"/>
<path d="M112.016 76.483L143.973 58.032V50.653L112.016 69.104V76.483Z" fill="#F2F2F2"/>
<path d="M73.669 113.385L41.711 94.9359V87.5549L73.669 106.004V113.385Z" fill="#F2F2F2"/>
<path d="M73.669 113.385L105.624 94.9359V87.5549L73.669 106.004V113.385Z" fill="#F2F2F2"/>
<path d="M112.016 91.2449L105.604 87.5419L105.624 80.174L112.016 83.8659V91.2449Z" fill="#F2F2F2"/>
<path d="M112.016 91.2449L143.973 72.7929V65.4149L112.016 83.8659V91.2449Z" fill="#F2F2F2"/>
</g>
<defs>
<clipPath id="clip0">
<rect width="147.337" height="113.385" fill="white"/>
</clipPath>
</defs>
</svg>
