<svg width="171" height="69" viewBox="0 0 171 69" fill="none" xmlns="http://www.w3.org/2000/svg">
<g clip-path="url(#clip0)">
<path d="M75.798 3.02698C75.798 3.85998 75.798 4.69398 75.798 5.52698C74.667 5.64898 73.536 5.76998 72.405 5.88798C72.405 8.77098 72.405 11.654 72.405 14.537C71.513 14.63 70.621 14.722 69.729 14.812C69.729 11.929 69.729 9.04598 69.729 6.16298C68.614 6.27598 67.499 6.38598 66.384 6.49298C66.384 5.65998 66.384 4.82598 66.384 3.99298C69.523 3.69198 72.661 3.36598 75.798 3.02698Z" fill="#F2F2F2"/>
<path d="M89.9231 1.45801C89.9231 5.17401 89.9231 8.89101 89.9231 12.607C89.0311 12.706 88.1391 12.805 87.2471 12.905C87.2471 11.461 87.2471 10.016 87.2471 8.57201C85.8561 8.72701 84.4651 8.88401 83.0741 9.03901C83.0741 10.483 83.0741 11.928 83.0741 13.372C82.1821 13.472 81.2901 13.571 80.3981 13.67C80.3981 9.95401 80.3981 6.23701 80.3981 2.52101C81.2901 2.42201 82.1821 2.32201 83.0741 2.22301C83.0741 3.66201 83.0741 5.10001 83.0741 6.53901C84.4651 6.38301 85.8561 6.22701 87.2471 6.07201C87.2471 4.63301 87.2471 3.19401 87.2471 1.75601C88.1391 1.65601 89.0311 1.55701 89.9231 1.45801Z" fill="#F2F2F2"/>
<path d="M103.932 8.639C103.932 9.472 103.932 10.306 103.932 11.14C101.198 11.401 98.462 11.682 95.728 11.974C95.728 8.257 95.728 4.541 95.728 0.825C98.43 0.536 101.133 0.259 103.835 0C103.835 0.833 103.835 1.667 103.835 2.5C102.024 2.673 100.214 2.855 98.403 3.043C98.403 3.653 98.403 4.264 98.403 4.875C99.821 4.728 101.24 4.584 102.658 4.446C102.658 5.226 102.658 6.007 102.658 6.788C101.24 6.926 99.821 7.07 98.403 7.217C98.403 7.875 98.403 8.533 98.403 9.192C100.246 9 102.089 8.815 103.932 8.639Z" fill="#F2F2F2"/>
<path d="M52.672 60.803C52.402 59.832 51.541 59.425 50.746 59.47C49.949 59.515 49.488 59.938 49.488 60.385C49.488 61.116 50.601 61.329 51.955 61.74C53.612 62.244 55.348 63.06 55.348 64.971C55.348 67.009 53.597 68.589 51 68.741C48.674 68.876 47.018 67.657 46.287 65.601C47.141 65.337 47.995 65.069 48.849 64.797C49.136 65.626 49.932 66.43 51.112 66.361C52.067 66.304 52.513 65.829 52.513 65.287C52.513 64.395 51.207 64.256 49.615 63.737C48.276 63.3 46.732 62.635 46.732 60.675C46.732 58.939 48.484 57.29 50.905 57.15C53.039 57.026 54.729 58.212 55.253 59.928C54.391 60.224 53.532 60.515 52.672 60.803Z" fill="#F2F2F2"/>
<path d="M68.862 55.9121C68.862 56.7451 68.862 57.5791 68.862 58.4131C67.731 58.5261 66.6 58.6361 65.468 58.7431C65.468 61.6261 65.468 64.5091 65.468 67.3911C64.576 67.4751 63.685 67.5571 62.793 67.6361C62.793 64.7531 62.793 61.8701 62.793 58.9881C61.677 59.0881 60.562 59.1831 59.446 59.2741C59.446 58.4411 59.446 57.6071 59.446 56.7731C62.585 56.5171 65.724 56.2261 68.862 55.9121Z" fill="#F2F2F2"/>
<path d="M83.198 54.3711C83.198 56.4361 83.198 58.5021 83.198 60.5671C83.198 63.9111 81.222 65.9661 78.277 66.2901C75.313 66.6161 73.353 64.9901 73.353 61.6451C73.353 59.5801 73.353 57.5141 73.353 55.4491C74.246 55.3541 75.138 55.2591 76.031 55.1621C76.031 57.2061 76.031 59.2511 76.031 61.2951C76.031 63.2061 76.811 63.9501 78.277 63.7891C79.741 63.6281 80.522 62.7131 80.522 60.8021C80.522 58.7581 80.522 56.7141 80.522 54.6691C81.414 54.5701 82.306 54.4711 83.198 54.3711Z" fill="#F2F2F2"/>
<path d="M93.721 53.2021C96.908 52.8551 99.488 54.8701 99.488 58.2161C99.488 61.5611 96.908 64.0051 93.721 64.3521C92.097 64.5281 90.472 64.7081 88.848 64.8891C88.848 61.1721 88.848 57.4561 88.848 53.7401C90.472 53.5581 92.097 53.3781 93.721 53.2021ZM93.721 61.8511C95.316 61.6781 96.7 60.4161 96.7 58.5051C96.7 56.5931 95.315 55.5291 93.721 55.7021C92.989 55.7821 92.257 55.8621 91.525 55.9421C91.525 57.9921 91.525 60.0411 91.525 62.0901C92.257 62.0111 92.988 61.9311 93.721 61.8511Z" fill="#F2F2F2"/>
<path d="M104.629 63.2351C104.629 59.5181 104.629 55.8021 104.629 52.0861C105.522 52.0021 106.413 51.9201 107.306 51.8401C107.306 55.5561 107.306 59.2731 107.306 62.9891C106.413 63.0691 105.521 63.1511 104.629 63.2351Z" fill="#F2F2F2"/>
<path d="M118.232 50.7891C121.433 50.5931 124.03 52.9291 124.03 56.2891C124.03 59.6501 121.433 62.1881 118.232 62.3851C115.03 62.5801 112.451 60.3491 112.451 56.9881C112.451 53.6271 115.03 50.9831 118.232 50.7891ZM118.232 59.7401C120.048 59.6301 121.242 58.2821 121.242 56.4181C121.242 54.5391 120.049 53.3231 118.232 53.4331C116.431 53.5431 115.238 54.9031 115.238 56.7821C115.238 58.6461 116.432 59.8501 118.232 59.7401Z" fill="#F2F2F2"/>
<path d="M12.956 22.077C20.874 23.103 27.287 28.934 27.287 37.264C27.287 45.56 20.874 50.814 12.956 49.788C8.91899 49.265 4.88099 48.579 0.843994 47.701C0.843994 38.464 0.843994 29.227 0.843994 19.99C4.88099 20.868 8.91799 21.554 12.956 22.077ZM12.956 43.572C16.915 44.089 20.359 41.58 20.359 36.832C20.359 32.08 16.915 28.81 12.956 28.293C11.135 28.057 9.31399 27.788 7.49399 27.483C7.49399 32.576 7.49399 37.67 7.49399 42.762C9.31399 43.067 11.135 43.336 12.956 43.572Z" fill="#F2F2F2"/>
<path d="M54.444 46.144C50.789 46.394 47.134 46.588 43.479 46.704C42.951 48.173 42.423 49.64 41.895 51.105C39.507 51.166 37.119 51.193 34.731 51.179C38.425 41.963 42.12 32.651 45.814 23.264C47.912 23.179 50.01 23.07 52.108 22.941C55.803 31.95 59.498 40.897 63.192 49.801C60.804 50.016 58.415 50.213 56.027 50.387C55.5 48.974 54.972 47.559 54.444 46.144ZM52.306 40.464C51.646 38.711 50.987 36.955 50.327 35.198C49.734 33.647 49.021 31.19 48.982 31.192C48.969 31.192 48.955 31.193 48.942 31.194C48.902 31.196 48.191 33.727 47.597 35.339C46.937 37.164 46.277 38.987 45.618 40.808C47.847 40.719 50.077 40.603 52.306 40.464Z" fill="#F2F2F2"/>
<path d="M98.4249 18.34C98.4249 27.577 98.4249 36.814 98.4249 46.051C96.3399 46.267 94.2539 46.492 92.1689 46.72C90.2809 44.354 88.3949 41.991 86.5069 39.629C83.9749 36.429 80.2539 31.58 80.2139 31.584C80.2009 31.585 80.1879 31.587 80.1739 31.588C80.1359 31.592 80.2139 35.859 80.2139 41.916C80.2139 43.961 80.2139 46.007 80.2139 48.053C77.9979 48.299 75.7809 48.542 73.5649 48.777C73.5649 39.54 73.5649 30.303 73.5649 21.066C75.6499 20.845 77.7339 20.617 79.8189 20.386C81.7849 22.807 83.7519 25.225 85.7179 27.644C87.4979 29.818 91.7339 35.327 91.7729 35.324C91.7859 35.323 91.7989 35.322 91.8119 35.32C91.8529 35.315 91.7729 30.414 91.7729 25.387C91.7729 23.276 91.7729 21.164 91.7729 19.053C93.9899 18.81 96.2069 18.57 98.4249 18.34Z" fill="#F2F2F2"/>
<path d="M130.537 24.754C129.27 23.189 126.896 22.254 124.719 22.341C120.127 22.524 117.277 26.019 117.277 30.564C117.277 35.358 120.405 38.108 124.719 37.939C127.372 37.834 129.905 36.438 131.053 34.524C133.296 35.074 135.538 35.656 137.782 36.275C135.487 41.14 130.538 44.356 124.72 44.589C116.763 44.903 110.35 39.438 110.35 31.072C110.35 22.731 116.763 16.084 124.72 15.77C130.183 15.552 134.853 18.492 137.308 22.967C135.05 23.528 132.794 24.125 130.537 24.754Z" fill="#F2F2F2"/>
<path d="M169.473 41.164C169.473 43.236 169.473 45.308 169.473 47.38C162.678 45.889 155.882 44.942 149.087 44.408C149.087 35.171 149.087 25.934 149.087 16.697C155.804 17.225 162.52 18.156 169.236 19.617C169.236 21.689 169.236 23.761 169.236 25.833C164.736 24.854 160.236 24.113 155.736 23.572C155.736 25.09 155.736 26.607 155.736 28.124C159.259 28.548 162.783 29.094 166.306 29.781C166.306 31.72 166.306 33.66 166.306 35.599C162.783 34.912 159.259 34.366 155.736 33.942C155.736 35.579 155.736 37.215 155.736 38.851C160.315 39.402 164.894 40.16 169.473 41.164Z" fill="#F2F2F2"/>
<path d="M33.589 31.561C33.979 32.764 34.368 33.966 34.758 35.166C36.017 35.173 37.277 35.168 38.536 35.154C37.517 35.906 36.498 36.651 35.48 37.388C35.869 38.587 36.258 39.785 36.647 40.982C35.627 40.245 34.608 39.501 33.589 38.749C32.569 39.478 31.549 40.2 30.529 40.914C30.919 39.726 31.308 38.537 31.698 37.347C30.678 36.586 29.659 35.818 28.64 35.042C29.9 35.087 31.16 35.12 32.419 35.141C32.809 33.949 33.199 32.755 33.589 31.561Z" fill="#F2F2F2"/>
<path d="M65.769 29.9551C66.158 31.1171 66.548 32.2781 66.937 33.4381C68.197 33.3161 69.457 33.1901 70.716 33.0611C69.696 33.9061 68.677 34.7481 67.658 35.5881C68.048 36.7481 68.438 37.9071 68.827 39.0671C67.807 38.4281 66.788 37.7871 65.768 37.1431C64.748 37.9801 63.728 38.8141 62.708 39.6461C63.097 38.4131 63.486 37.1801 63.875 35.9461C62.856 35.2991 61.837 34.6491 60.818 33.9961C62.078 33.8891 63.339 33.7771 64.599 33.6601C64.991 32.4251 65.38 31.1901 65.769 29.9551Z" fill="#F2F2F2"/>
<path d="M104.385 25.85C104.775 27.012 105.165 28.174 105.555 29.336C106.815 29.219 108.074 29.107 109.333 29.001C108.313 29.827 107.295 30.657 106.275 31.49C106.665 32.653 107.053 33.816 107.443 34.98C106.423 34.33 105.404 33.683 104.384 33.039C103.364 33.876 102.344 34.716 101.324 35.558C101.714 34.321 102.104 33.084 102.494 31.848C101.474 31.208 100.455 30.571 99.4349 29.935C100.695 29.806 101.956 29.68 103.215 29.559C103.606 28.321 103.995 27.085 104.385 25.85Z" fill="#F2F2F2"/>
<path d="M142.47 24.405C142.86 25.619 143.249 26.835 143.639 28.052C144.899 28.112 146.158 28.185 147.417 28.271C146.398 28.941 145.379 29.62 144.36 30.307C144.75 31.525 145.138 32.745 145.528 33.966C144.508 33.166 143.489 32.375 142.469 31.593C141.449 32.291 140.429 32.998 139.409 33.713C139.799 32.525 140.189 31.338 140.579 30.151C139.559 29.379 138.54 28.615 137.52 27.859C138.78 27.88 140.04 27.911 141.299 27.955C141.69 26.771 142.08 25.587 142.47 24.405Z" fill="#F2F2F2"/>
<path d="M166.5 59.829C166.034 59.738 165.658 59.288 165.658 58.825C165.658 58.357 166.034 58.054 166.5 58.146C167.411 58.325 168.323 58.514 169.234 58.712C169.7 58.813 170.079 59.273 170.079 59.74C170.079 60.204 169.7 60.496 169.234 60.395C168.323 60.197 167.411 60.008 166.5 59.829ZM160.364 58.763C159.896 58.692 159.521 58.26 159.521 57.796C159.521 57.328 159.896 57.008 160.364 57.08C161.386 57.235 162.409 57.401 163.431 57.579C163.896 57.66 164.275 58.102 164.275 58.57C164.275 59.034 163.896 59.343 163.431 59.263C162.409 59.084 161.387 58.918 160.364 58.763ZM154.227 57.96C153.76 57.908 153.385 57.491 153.385 57.027C153.385 56.559 153.76 56.224 154.227 56.276C155.25 56.389 156.273 56.512 157.296 56.646C157.759 56.707 158.138 57.132 158.138 57.6C158.138 58.064 157.759 58.39 157.296 58.329C156.272 58.196 155.25 58.073 154.227 57.96ZM148.091 57.4C147.623 57.366 147.248 56.963 147.248 56.499C147.248 56.031 147.623 55.682 148.091 55.716C149.113 55.79 150.136 55.874 151.158 55.967C151.621 56.01 152 56.42 152 56.888C152 57.352 151.621 57.693 151.158 57.651C150.136 57.558 149.113 57.474 148.091 57.4ZM141.953 57.06C141.488 57.042 141.111 56.652 141.111 56.188C141.111 55.72 141.488 55.359 141.953 55.376C142.975 55.416 143.999 55.463 145.021 55.52C145.485 55.546 145.864 55.943 145.864 56.411C145.864 56.875 145.485 57.23 145.021 57.204C143.999 57.147 142.976 57.1 141.953 57.06ZM135.814 56.92C135.349 56.916 134.973 56.537 134.973 56.073C134.973 55.605 135.349 55.232 135.814 55.236C136.837 55.244 137.861 55.259 138.884 55.282C139.347 55.293 139.726 55.677 139.726 56.145C139.726 56.609 139.347 56.977 138.884 56.966C137.861 56.943 136.838 56.928 135.814 56.92ZM129.679 56.958C129.215 56.967 128.836 56.598 128.836 56.134C128.836 55.667 129.215 55.283 129.679 55.275C130.701 55.255 131.725 55.242 132.747 55.235C133.212 55.232 133.59 55.605 133.59 56.073C133.59 56.537 133.212 56.916 132.747 56.919C131.725 56.924 130.701 56.938 129.679 56.958Z" fill="#F2F2F2"/>
<path d="M37.666 64.243C37.2 64.246 36.822 63.87 36.822 63.407C36.822 62.941 37.2 62.561 37.666 62.557C38.577 62.55 39.488 62.537 40.398 62.519C40.864 62.51 41.243 62.88 41.243 63.346C41.243 63.809 40.865 64.196 40.398 64.204C39.488 64.224 38.577 64.236 37.666 64.243ZM31.53 64.204C31.062 64.194 30.683 63.806 30.683 63.343C30.683 62.877 31.062 62.508 31.53 62.518C32.551 62.539 33.573 62.553 34.595 62.56C35.061 62.563 35.44 62.942 35.44 63.408C35.44 63.871 35.061 64.248 34.595 64.245C33.574 64.239 32.552 64.226 31.53 64.204ZM25.393 63.978C24.927 63.953 24.548 63.553 24.548 63.09C24.548 62.624 24.927 62.267 25.393 62.292C26.416 62.347 27.438 62.392 28.461 62.43C28.923 62.447 29.302 62.838 29.302 63.304C29.302 63.767 28.923 64.133 28.461 64.116C27.438 64.078 26.416 64.032 25.393 63.978ZM19.255 63.542C18.789 63.5 18.41 63.086 18.41 62.624C18.41 62.158 18.789 61.815 19.255 61.856C20.278 61.947 21.301 62.029 22.324 62.101C22.787 62.134 23.166 62.538 23.166 63.003C23.166 63.466 22.787 63.819 22.324 63.786C21.301 63.715 20.278 63.633 19.255 63.542ZM13.119 62.876C12.651 62.816 12.277 62.388 12.277 61.925C12.277 61.459 12.651 61.131 13.119 61.191C14.141 61.322 15.164 61.443 16.187 61.554C16.65 61.604 17.028 62.022 17.028 62.488C17.028 62.951 16.65 63.29 16.187 63.24C15.165 63.129 14.142 63.008 13.119 62.876ZM6.98101 61.959C6.51501 61.879 6.13601 61.434 6.13601 60.971C6.13601 60.505 6.51501 60.194 6.98101 60.274C8.00301 60.449 9.02601 60.612 10.049 60.765C10.512 60.834 10.891 61.267 10.891 61.733C10.891 62.196 10.512 62.52 10.049 62.45C9.02601 62.297 8.00301 62.134 6.98101 61.959ZM0.844014 60.768C0.378014 60.666 0.00201416 60.204 0.00201416 59.741C0.00201416 59.275 0.377014 58.981 0.844014 59.082C1.86701 59.304 2.89001 59.515 3.91301 59.713C4.37601 59.803 4.75401 60.253 4.75401 60.718C4.75401 61.181 4.37601 61.488 3.91301 61.398C2.89001 61.201 1.86701 60.99 0.844014 60.768Z" fill="#F2F2F2"/>
<path d="M57.975 11.148C57.509 11.184 57.132 10.834 57.132 10.37C57.132 9.90301 57.509 9.49601 57.975 9.46001C58.817 9.39401 59.658 9.32601 60.5 9.25501C60.964 9.21601 61.343 9.56301 61.343 10.029C61.343 10.493 60.964 10.904 60.5 10.944C59.658 11.014 58.816 11.083 57.975 11.148ZM52.26 11.55C51.794 11.579 51.419 11.222 51.419 10.758C51.419 10.291 51.794 9.89001 52.26 9.86101C53.213 9.80201 54.166 9.73801 55.119 9.67201C55.583 9.63901 55.962 9.99001 55.962 10.457C55.962 10.921 55.583 11.328 55.119 11.36C54.166 11.428 53.213 11.491 52.26 11.55ZM46.548 11.852C46.084 11.873 45.705 11.509 45.705 11.044C45.705 10.577 46.084 10.184 46.548 10.163C47.501 10.122 48.454 10.076 49.406 10.025C49.869 10.001 50.249 10.358 50.249 10.825C50.249 11.289 49.869 11.689 49.406 11.714C48.454 11.765 47.5 11.811 46.548 11.852ZM40.836 12.038C40.37 12.048 39.993 11.676 39.993 11.212C39.993 10.745 40.37 10.359 40.836 10.35C41.788 10.33 42.74 10.304 43.691 10.273C44.155 10.258 44.534 10.623 44.534 11.09C44.534 11.554 44.155 11.947 43.691 11.962C42.74 11.992 41.788 12.018 40.836 12.038ZM35.124 12.089C34.656 12.088 34.278 11.705 34.278 11.241C34.278 10.774 34.656 10.398 35.124 10.4C36.075 10.404 37.027 10.401 37.978 10.392C38.442 10.388 38.821 10.762 38.821 11.228C38.821 11.692 38.442 12.076 37.978 12.08C37.026 12.09 36.075 12.093 35.124 12.089ZM29.409 11.989C28.941 11.974 28.566 11.581 28.566 11.117C28.566 10.65 28.941 10.285 29.409 10.3C30.361 10.33 31.313 10.354 32.264 10.37C32.73 10.378 33.11 10.762 33.11 11.228C33.11 11.692 32.73 12.066 32.264 12.058C31.313 12.042 30.361 12.019 29.409 11.989ZM23.695 11.72C23.229 11.691 22.852 11.286 22.852 10.822C22.852 10.355 23.229 10.002 23.695 10.031C24.647 10.091 25.599 10.143 26.55 10.188C27.018 10.21 27.393 10.605 27.393 11.071C27.393 11.535 27.018 11.898 26.55 11.876C25.599 11.832 24.646 11.78 23.695 11.72ZM17.98 11.264C17.514 11.219 17.138 10.801 17.138 10.338C17.138 9.87101 17.513 9.53101 17.98 9.57601C18.933 9.66901 19.886 9.75301 20.839 9.82801C21.303 9.86501 21.682 10.272 21.682 10.739C21.682 11.203 21.304 11.554 20.839 11.517C19.886 11.441 18.934 11.357 17.98 11.264ZM12.268 10.605C11.803 10.543 11.425 10.11 11.425 9.64701C11.425 9.18001 11.803 8.85501 12.268 8.91701C13.221 9.04501 14.174 9.16401 15.127 9.27301C15.59 9.32601 15.968 9.74601 15.968 10.213C15.968 10.677 15.59 11.015 15.127 10.962C14.173 10.852 13.221 10.733 12.268 10.605ZM6.557 9.72701C6.09 9.64501 5.713 9.19801 5.713 8.73401C5.713 8.26701 6.09 7.95701 6.557 8.03801C7.508 8.20401 8.46 8.36001 9.412 8.50601C9.874 8.57701 10.255 9.01201 10.255 9.47901C10.255 9.94301 9.875 10.266 9.412 10.195C8.46 10.048 7.508 9.89201 6.557 9.72701ZM0.842 8.60801C0.375 8.50701 0 8.04301 0 7.58001C0 7.11301 0.375 6.81901 0.842 6.92001C1.794 7.12701 2.746 7.32301 3.697 7.50901C4.162 7.60001 4.541 8.05001 4.541 8.51701C4.541 8.98101 4.163 9.28801 3.698 9.19801C2.746 9.01201 1.793 8.81501 0.842 8.60801Z" fill="#F2F2F2"/>
<path d="M166.713 7.71C166.247 7.618 165.868 7.168 165.868 6.704C165.868 6.236 166.247 5.933 166.713 6.026C167.554 6.193 168.394 6.367 169.234 6.55C169.7 6.652 170.079 7.112 170.079 7.579C170.079 8.043 169.7 8.335 169.234 8.234C168.394 8.051 167.554 7.876 166.713 7.71ZM160.998 6.7C160.53 6.627 160.155 6.193 160.155 5.729C160.155 5.261 160.53 4.942 160.998 5.016C161.95 5.164 162.901 5.323 163.853 5.491C164.316 5.573 164.7 6.018 164.7 6.486C164.7 6.95 164.316 7.257 163.853 7.175C162.901 7.006 161.95 6.848 160.998 6.7ZM155.285 5.919C154.818 5.864 154.442 5.445 154.442 4.981C154.442 4.513 154.818 4.18 155.285 4.234C156.237 4.346 157.189 4.466 158.141 4.596C158.605 4.659 158.984 5.089 158.984 5.556C158.984 6.019 158.605 6.344 158.141 6.28C157.189 6.152 156.237 6.031 155.285 5.919ZM149.572 5.353C149.104 5.315 148.725 4.908 148.725 4.444C148.725 3.976 149.104 3.63 149.572 3.668C150.524 3.746 151.475 3.832 152.427 3.926C152.892 3.972 153.271 4.387 153.271 4.854C153.271 5.318 152.892 5.656 152.427 5.61C151.476 5.517 150.524 5.431 149.572 5.353ZM143.856 4.982C143.39 4.96 143.014 4.565 143.014 4.101C143.014 3.633 143.39 3.275 143.856 3.297C144.808 3.343 145.761 3.398 146.713 3.459C147.179 3.489 147.558 3.891 147.558 4.358C147.558 4.822 147.179 5.173 146.713 5.143C145.762 5.083 144.809 5.028 143.856 4.982ZM138.146 4.79C137.678 4.781 137.303 4.398 137.303 3.934C137.303 3.466 137.678 3.096 138.146 3.105C139.098 3.123 140.049 3.148 141.001 3.18C141.469 3.196 141.848 3.585 141.848 4.053C141.848 4.517 141.469 4.88 141.001 4.865C140.049 4.833 139.098 4.808 138.146 4.79ZM132.433 4.759C131.965 4.762 131.589 4.389 131.589 3.925C131.589 3.457 131.965 3.078 132.433 3.074C133.385 3.067 134.336 3.066 135.288 3.071C135.752 3.073 136.131 3.452 136.131 3.92C136.131 4.384 135.752 4.758 135.288 4.756C134.336 4.75 133.385 4.751 132.433 4.759ZM126.717 4.872C126.252 4.887 125.873 4.522 125.873 4.058C125.873 3.59 126.252 3.202 126.717 3.187C127.67 3.157 128.622 3.133 129.575 3.114C130.04 3.105 130.419 3.474 130.419 3.942C130.419 4.406 130.04 4.79 129.575 4.799C128.622 4.817 127.67 4.842 126.717 4.872ZM121.004 5.111C120.537 5.135 120.162 4.778 120.162 4.314C120.162 3.846 120.537 3.451 121.004 3.426C121.956 3.377 122.909 3.332 123.861 3.292C124.326 3.272 124.705 3.633 124.705 4.101C124.705 4.565 124.326 4.957 123.861 4.977C122.909 5.017 121.956 5.062 121.004 5.111ZM115.292 5.459C114.825 5.492 114.449 5.141 114.449 4.677C114.449 4.209 114.825 3.807 115.292 3.775C116.244 3.709 117.195 3.647 118.147 3.588C118.611 3.56 118.99 3.913 118.99 4.38C118.99 4.844 118.611 5.244 118.147 5.272C117.195 5.331 116.244 5.393 115.292 5.459ZM109.58 5.899C109.111 5.938 108.736 5.593 108.736 5.129C108.736 4.661 109.111 4.254 109.58 4.214C110.532 4.134 111.483 4.057 112.435 3.984C112.899 3.948 113.278 4.295 113.278 4.763C113.278 5.227 112.899 5.633 112.435 5.669C111.483 5.742 110.532 5.819 109.58 5.899Z" fill="#F2F2F2"/>
</g>
<defs>
<clipPath id="clip0">
<rect width="170.079" height="68.751" fill="white"/>
</clipPath>
</defs>
</svg>
