<svg width="171" height="93" viewBox="0 0 171 93" fill="none" xmlns="http://www.w3.org/2000/svg">
<g clip-path="url(#clip0)">
<path d="M5.906 80.085C4.393 80.085 2.031 79.801 0.424 79.377V75.926C1.89 76.304 3.826 76.635 6.38 76.635C9.64 76.635 11.058 74.744 11.058 70.822C11.058 66.238 9.782 64.915 7.229 64.395C1.984 63.308 0 61.039 0 55.462C0 48.703 3.875 46.34 9.309 46.34C10.87 46.34 12.949 46.671 14.32 47.049V50.499C12.714 50.121 10.491 49.791 8.838 49.791C6.474 49.791 4.206 51.209 4.206 54.942C4.206 58.77 4.868 59.857 7.845 60.471C12.382 61.416 15.265 63.402 15.265 70.348C15.264 78.195 11.531 80.085 5.906 80.085Z" fill="#F2F2F2"/>
<path d="M18.842 87.789V56.124H22.151L22.528 58.156C23.993 56.644 25.883 55.793 28.106 55.793C33.634 55.793 35.572 59.385 35.572 66.426C35.572 76.776 33.021 80.085 25.506 80.085C24.418 80.085 23.568 79.99 22.859 79.896V87.789H18.842V87.789ZM22.859 63.212V76.493C23.568 76.588 24.561 76.682 25.98 76.682C30.468 76.682 31.462 73.421 31.462 66.899C31.462 60.897 30.374 59.195 27.35 59.195C24.704 59.196 22.859 61.512 22.859 63.212Z" fill="#F2F2F2"/>
<path d="M55.363 79.7551C54.464 79.7551 52.526 79.3771 51.817 77.4391C50.636 79.1411 48.745 80.0861 45.579 80.0861C42.129 80.0861 38.537 78.9511 38.537 73.0911C38.537 67.9871 41.704 65.1981 46.95 65.1981H50.682V62.6451C50.682 60.6601 49.5 59.1951 47.138 59.1951C44.444 59.1951 42.647 59.5261 40.285 60.1871V56.7371C42.035 56.2171 44.349 55.7921 46.664 55.7921C52.81 55.7921 54.7 58.2021 54.7 63.5901V74.9321C54.7 75.8771 55.267 76.4441 56.779 76.4441V79.7531H55.363V79.7551ZM50.683 73.3751V68.4121H46.714C44.682 68.4121 42.649 69.6891 42.649 72.8081C42.649 75.7391 44.02 76.6831 46.525 76.6831C49.785 76.6831 50.683 74.3201 50.683 73.3751Z" fill="#F2F2F2"/>
<path d="M72.714 79.33C71.2 79.755 69.264 80.086 67.562 80.086C62.126 80.086 59.291 78.29 59.291 67.467C59.291 59.008 61.843 55.794 67.514 55.794C69.074 55.794 71.343 56.172 72.714 56.502V59.999C70.964 59.621 69.641 59.337 67.231 59.337C64.49 59.337 63.404 61.417 63.404 68.412C63.404 75.501 64.869 76.541 67.231 76.541C69.783 76.541 71.343 76.116 72.714 75.833V79.33Z" fill="#F2F2F2"/>
<path d="M79.544 69.357C79.685 75.595 81.198 76.682 83.561 76.682C86.16 76.682 88.475 76.256 89.894 75.926V79.329C88.382 79.754 85.733 80.085 84.033 80.085C78.597 80.085 75.526 78.478 75.526 67.939C75.526 59.195 78.455 55.793 84.128 55.793C89.562 55.793 91.736 59.573 91.736 65.812V69.357H79.544V69.357ZM79.59 66.144H87.813V64.868C87.813 61.276 86.822 59.149 84.034 59.149C81.009 59.148 79.827 60.708 79.59 66.144Z" fill="#F2F2F2"/>
<path d="M109.848 79.281C108.809 79.565 106.16 80.085 104.602 80.085C97.844 80.085 95.057 76.776 95.057 62.693C95.057 48.751 98.268 46.34 105.167 46.34C106.682 46.34 108.57 46.671 109.848 47.002V50.5C108.287 50.122 106.16 49.886 104.318 49.886C100.868 49.886 99.26 51.588 99.26 63.025C99.26 74.934 100.964 76.541 104.364 76.541C106.302 76.541 108.667 76.116 109.848 75.833V79.281V79.281Z" fill="#F2F2F2"/>
<path d="M125.474 79.755L125.142 77.817C123.82 79.281 122.117 80.086 119.708 80.086C114.459 80.086 112.901 77.297 112.901 71.532V56.124H116.92V72.003C116.92 74.981 117.44 76.682 120.319 76.682C122.92 76.682 124.67 74.46 124.762 72.807V56.124H128.78V79.755H125.474Z" fill="#F2F2F2"/>
<path d="M140.268 80.085C136.865 80.085 135.353 79.754 133.603 79.518V46.672H137.62V57.873C139.038 56.549 140.787 55.793 142.869 55.793C148.395 55.793 150.334 59.385 150.334 66.426C150.333 76.777 147.782 80.085 140.268 80.085ZM137.619 63.212V76.493C138.329 76.588 139.321 76.682 140.741 76.682C145.229 76.682 146.221 73.421 146.221 66.899C146.221 60.897 145.132 59.195 142.109 59.195C139.464 59.196 137.619 61.512 137.619 63.212Z" fill="#F2F2F2"/>
<path d="M157.888 69.357C158.027 75.595 159.541 76.682 161.903 76.682C164.504 76.682 166.818 76.256 168.237 75.926V79.329C166.725 79.754 164.077 80.085 162.377 80.085C156.943 80.085 153.87 78.478 153.87 67.939C153.87 59.195 156.8 55.793 162.474 55.793C167.908 55.793 170.08 59.573 170.08 65.812V69.357H157.888V69.357ZM157.934 66.144H166.157V64.868C166.157 61.276 165.165 59.149 162.377 59.149C159.353 59.148 158.169 60.708 157.934 66.144Z" fill="#F2F2F2"/>
<path d="M57.777 24.08L57.773 43.452L74.162 33.988L74.549 33.312L74.552 14.401L57.777 24.08Z" fill="#2F2E41"/>
<path d="M56.226 24.08L56.232 43.452L39.841 33.988L39.453 33.312L39.452 14.401L56.226 24.08Z" fill="#2F2E41"/>
<path d="M56.998 22.73L73.777 13.049L57.386 3.586L56.609 3.589L40.229 13.042L56.998 22.73Z" fill="#2F2E41"/>
<path d="M76.889 11.252L57.777 0.210018C57.294 -0.0709824 56.702 -0.0709824 56.223 0.210018L37.1 11.25C36.623 11.529 36.327 12.041 36.327 12.599V34.664C36.327 35.221 36.623 35.733 37.1 36.013L56.214 47.05C56.456 47.189 56.726 47.259 56.994 47.259C57.264 47.259 57.532 47.189 57.772 47.05L76.886 36.013C77.368 35.734 77.663 35.219 77.663 34.664L77.666 12.601C77.668 12.045 77.37 11.53 76.889 11.252ZM56.216 43.453L39.832 33.992L53.407 26.154C53.595 26.047 53.659 25.808 53.551 25.622C53.444 25.437 53.204 25.373 53.016 25.48L39.44 33.318V14.396L56.221 24.08L56.216 43.453ZM56.998 22.73L40.218 13.048L56.615 3.58002V19.26C56.615 19.474 56.786 19.649 57.002 19.649C57.217 19.647 57.391 19.474 57.391 19.258V3.58002L73.776 13.051L56.998 22.73ZM57.777 24.08L74.551 14.401L74.549 33.313L60.976 25.479C60.792 25.374 60.554 25.437 60.449 25.623C60.338 25.809 60.405 26.049 60.591 26.154L74.161 33.99L57.772 43.453L57.777 24.08Z" fill="#F2F2F2"/>
<path d="M100.002 92.423L99.641 90.728H97.771L97.397 92.423H96.546L98.163 85.717H99.264L100.855 92.423H100.002ZM98.701 86.35L97.925 90.009H99.487L98.701 86.35Z" fill="#F2F2F2"/>
<path d="M107.696 89.511L109.006 92.423H108.089L106.86 89.645H106.007V92.423H105.176V85.717C105.176 85.717 105.998 85.65 106.795 85.65C108.248 85.65 108.652 86.426 108.652 87.605C108.653 88.591 108.376 89.243 107.696 89.511ZM106.907 86.34C106.383 86.34 106.008 86.398 106.008 86.398V88.946H106.907C107.445 88.946 107.801 88.717 107.801 87.673C107.801 86.742 107.587 86.34 106.907 86.34Z" fill="#F2F2F2"/>
<path d="M116.069 92.327C115.859 92.385 115.321 92.49 115.006 92.49C113.638 92.49 113.071 91.819 113.071 88.965C113.071 86.139 113.722 85.65 115.121 85.65C115.43 85.65 115.81 85.717 116.069 85.784V86.493C115.754 86.417 115.321 86.368 114.951 86.368C114.249 86.368 113.925 86.713 113.925 89.031C113.925 91.445 114.271 91.771 114.961 91.771C115.354 91.771 115.831 91.685 116.069 91.628V92.327Z" fill="#F2F2F2"/>
<path d="M123.298 92.423V89.338H121.325V92.423H120.491V85.717H121.325V88.63H123.298V85.717H124.132V92.423H123.298Z" fill="#F2F2F2"/>
<path d="M128.552 92.423V91.724H129.223V86.417H128.552V85.717H130.729V86.417H130.055V91.724H130.729V92.423H128.552Z" fill="#F2F2F2"/>
<path d="M137.083 86.446V92.423H136.249V86.446H134.774V85.717H138.558V86.446H137.083Z" fill="#F2F2F2"/>
<path d="M142.821 92.423V85.717H145.962V86.417H143.653V88.61H145.723V89.31H143.653V91.723H145.962V92.422H142.821V92.423Z" fill="#F2F2F2"/>
<path d="M153.247 92.327C153.037 92.385 152.5 92.49 152.187 92.49C150.814 92.49 150.249 91.819 150.249 88.965C150.249 86.139 150.901 85.65 152.299 85.65C152.608 85.65 152.988 85.717 153.247 85.784V86.493C152.932 86.417 152.5 86.368 152.128 86.368C151.428 86.368 151.103 86.713 151.103 89.031C151.103 91.445 151.449 91.771 152.138 91.771C152.531 91.771 153.01 91.685 153.247 91.628V92.327V92.327Z" fill="#F2F2F2"/>
<path d="M159.609 86.446V92.423H158.775V86.446H157.3V85.717H161.083V86.446H159.609Z" fill="#F2F2F2"/>
<path d="M166.338 92.49C166.032 92.49 165.553 92.432 165.227 92.346V91.646C165.527 91.723 165.919 91.79 166.435 91.79C167.097 91.79 167.384 91.407 167.384 90.612C167.384 89.683 167.123 89.415 166.608 89.31C165.546 89.088 165.14 88.629 165.14 87.498C165.14 86.129 165.928 85.649 167.029 85.649C167.344 85.649 167.767 85.716 168.047 85.792V86.492C167.719 86.416 167.268 86.348 166.934 86.348C166.455 86.348 165.997 86.636 165.997 87.392C165.997 88.168 166.13 88.389 166.731 88.513C167.65 88.704 168.237 89.107 168.237 90.515C168.236 92.107 167.477 92.49 166.338 92.49Z" fill="#F2F2F2"/>
</g>
<defs>
<clipPath id="clip0">
<rect width="170.079" height="92.49" fill="white"/>
</clipPath>
</defs>
</svg>
