<svg width="577" height="208" viewBox="0 0 577 208" fill="none" xmlns="http://www.w3.org/2000/svg">
<path d="M251.976 83.2831C254.476 83.2831 256.815 82.8451 258.976 81.9631C261.143 81.0851 263.204 79.9671 265.169 78.6151L270.443 85.9211C268.111 87.916 265.276 89.5311 261.944 90.7691C258.613 92.0011 255.169 92.619 251.619 92.619C246.139 92.619 241.445 91.4611 237.536 89.1451C233.63 86.828 230.647 83.5811 228.608 79.4021C226.559 75.2251 225.532 70.3291 225.532 64.7121C225.532 59.2681 226.579 54.4041 228.656 50.1261C230.738 45.8441 233.739 42.4621 237.663 39.9751C241.587 37.4901 246.305 36.2471 251.82 36.2471C258.995 36.2471 265.182 38.3951 270.393 42.6911L265.167 49.8461C263.067 48.3911 260.919 47.2831 258.72 46.5211C256.522 45.7601 254.292 45.3781 252.025 45.3781C247.761 45.3781 244.296 46.9361 241.621 50.0461C238.945 53.1581 237.614 58.0461 237.614 64.7101C237.614 71.4101 238.968 76.1791 241.675 79.0221C244.379 81.8631 247.812 83.2831 251.976 83.2831Z" fill="#EB007D"/>
<path d="M308.5 36.246C316.349 36.246 322.334 38.8 326.466 43.907C330.587 49.016 332.652 55.83 332.652 64.357C332.652 70.04 331.716 74.998 329.836 79.222C327.961 83.452 325.221 86.742 321.617 89.093C318.013 91.444 313.626 92.616 308.449 92.616C300.636 92.616 294.647 90.093 290.486 85.032C286.325 79.974 284.247 73.117 284.247 64.456C284.247 58.909 285.18 54.012 287.06 49.768C288.937 45.524 291.685 42.206 295.31 39.822C298.925 37.436 303.323 36.246 308.5 36.246ZM316.671 8.896L321.435 18.028L299.214 26.957L295.864 21.072L316.671 8.896ZM308.5 45.075C304.404 45.075 301.329 46.639 299.264 49.768C297.2 52.898 296.17 57.792 296.17 64.456C296.17 71.121 297.19 76.019 299.235 79.145C301.284 82.277 304.353 83.839 308.447 83.839C312.539 83.839 315.607 82.266 317.656 79.119C319.701 75.973 320.728 71.052 320.728 64.353C320.728 57.754 319.71 52.895 317.681 49.765C315.65 46.639 312.592 45.075 308.5 45.075Z" fill="#EB007D"/>
<path d="M379.384 14.8821L390.752 16.1521V91.2501H380.752L379.941 84.6551C378.117 87.1901 375.934 89.1531 373.397 90.5401C370.859 91.9261 368.017 92.6181 364.871 92.6181C360.271 92.6181 356.489 91.4441 353.533 89.0951C350.567 86.7421 348.364 83.4541 346.911 79.2241C345.454 74.9991 344.726 70.0751 344.726 64.4591C344.726 59.0141 345.572 54.1671 347.264 49.9221C348.956 45.6781 351.372 42.3351 354.517 39.9011C357.664 37.4651 361.455 36.2481 365.885 36.2481C371.402 36.2481 375.9 38.1911 379.382 42.0831L379.384 14.8821ZM368.881 44.9711C365.059 44.9711 362.081 46.5541 359.95 49.7181C357.82 52.8801 356.755 57.7921 356.755 64.4561C356.755 71.2891 357.725 76.2371 359.672 79.2961C361.617 82.3611 364.349 83.8911 367.865 83.8911C370.437 83.8911 372.671 83.1481 374.564 81.6601C376.459 80.1711 378.069 78.3801 379.382 76.2811V50.9101C378.069 49.0161 376.523 47.5531 374.765 46.5191C373.01 45.4891 371.045 44.9711 368.881 44.9711Z" fill="#EB007D"/>
<path d="M438.092 37.6651V82.9301H452.655V91.2491H410.692V82.9301H426.718V45.9891H411.198V37.6661H438.092V37.6651ZM430.176 11.4341C432.411 11.4341 434.21 12.1091 435.58 13.4611C436.951 14.8151 437.639 16.5061 437.639 18.5361C437.639 20.5651 436.951 22.2741 435.58 23.6611C434.21 25.0481 432.411 25.7431 430.176 25.7431C428.015 25.7431 426.238 25.0481 424.849 23.6611C423.459 22.2751 422.767 20.5661 422.767 18.5361C422.767 16.5061 423.459 14.8151 424.849 13.4611C426.237 12.1091 428.015 11.4341 430.176 11.4341Z" fill="#EB007D"/>
<path d="M514.811 30.866L517.858 40.305C515.724 41.017 513.383 41.489 510.829 41.725C508.278 41.963 505.427 42.08 502.281 42.08C505.494 43.501 507.911 45.319 509.542 47.535C511.16 49.75 511.974 52.466 511.974 55.68C511.974 59.163 511.126 62.276 509.436 65.016C507.744 67.756 505.316 69.904 502.154 71.458C498.993 73.016 495.231 73.793 490.866 73.793C489.307 73.793 487.968 73.727 486.834 73.588C485.697 73.455 484.595 73.234 483.507 72.931C481.918 73.979 481.123 75.452 481.123 77.347C481.123 78.43 481.568 79.368 482.47 80.162C483.363 80.957 485.149 81.352 487.821 81.352H497.16C500.982 81.352 504.355 82.004 507.282 83.308C510.206 84.609 512.512 86.385 514.182 88.631C515.859 90.885 516.693 93.428 516.693 96.272C516.693 101.615 514.394 105.757 509.794 108.703C505.193 111.647 498.563 113.117 489.903 113.117C483.745 113.117 478.936 112.489 475.47 111.24C471.998 109.988 469.559 108.128 468.135 105.659C466.707 103.189 466.002 100.161 466.002 96.579H476.201C476.201 98.472 476.563 100.027 477.291 101.244C478.021 102.461 479.381 103.366 481.377 103.958C483.372 104.551 486.249 104.851 490.005 104.851C495.582 104.851 499.526 104.163 501.822 102.792C504.127 101.423 505.278 99.503 505.278 97.033C505.278 94.833 504.328 93.15 502.435 91.983C500.539 90.818 498.003 90.233 494.822 90.233H485.639C480.566 90.233 476.849 89.201 474.499 87.14C472.146 85.076 470.975 82.669 470.975 79.933C470.975 76.077 472.97 72.847 476.957 70.241C473.746 68.552 471.402 66.494 469.935 64.076C468.46 61.658 467.727 58.723 467.727 55.271C467.727 51.483 468.671 48.167 470.572 45.325C472.461 42.484 475.09 40.27 478.46 38.679C481.823 37.09 485.705 36.294 490.106 36.294C494.403 36.327 497.988 36.108 500.863 35.635C503.736 35.161 506.25 34.512 508.399 33.68C510.541 32.854 512.683 31.915 514.811 30.866ZM490.199 44.109C486.584 44.109 483.856 45.131 482.033 47.179C480.204 49.227 479.291 51.89 479.291 55.169C479.291 58.553 480.223 61.27 482.085 63.315C483.945 65.362 486.701 66.384 490.355 66.384C493.703 66.384 496.263 65.404 498.043 63.442C499.813 61.479 500.705 58.691 500.705 55.068C500.705 47.764 497.205 44.109 490.199 44.109Z" fill="#EB007D"/>
<path d="M552.058 36.2461C559.902 36.2461 565.896 38.8001 570.019 43.9071C574.145 49.0161 576.211 55.8301 576.211 64.3571C576.211 70.0401 575.272 74.9981 573.394 79.2221C571.517 83.4521 568.775 86.7421 565.172 89.0931C561.57 91.4441 557.182 92.6161 552.009 92.6161C544.195 92.6161 538.209 90.0931 534.046 85.0321C529.882 79.9741 527.804 73.1171 527.804 64.4561C527.804 58.9091 528.742 54.0121 530.617 49.7681C532.498 45.5241 535.245 42.2061 538.862 39.8221C542.485 37.4361 546.883 36.2461 552.058 36.2461ZM552.058 45.0751C547.965 45.0751 544.888 46.6391 542.825 49.7681C540.762 52.8981 539.725 57.7921 539.725 64.4561C539.725 71.1211 540.748 76.0191 542.794 79.1451C544.843 82.2771 547.914 83.8391 552.009 83.8391C556.1 83.8391 559.168 82.2661 561.218 79.1191C563.26 75.9731 564.283 71.0521 564.283 64.3531C564.283 57.7541 563.27 52.8951 561.242 49.7651C559.214 46.6391 556.151 45.0751 552.058 45.0751Z" fill="#EB007D"/>
<path d="M258.721 119.562C262.003 119.562 264.94 119.841 267.528 120.401C270.115 120.959 272.507 121.713 274.705 122.657L271.357 130.523C269.567 129.78 267.694 129.24 265.752 128.9C263.809 128.561 261.837 128.391 259.84 128.391C252.939 128.391 249.487 131.165 249.487 136.714V146.201H267.398L266.186 154.572H249.487V195.928H238.17V154.572H225.996V146.201H238.17V136.61C238.17 131.537 240.048 127.425 243.806 124.28C247.563 121.136 252.532 119.562 258.721 119.562Z" fill="#EB007D"/>
<path d="M327.987 182.786C327.987 184.919 328.303 186.456 328.948 187.404C329.591 188.353 330.619 189.062 332.044 189.536L329.509 197.248C326.867 196.943 324.593 196.218 322.683 195.068C320.771 193.918 319.342 192.174 318.395 189.839C316.433 192.344 313.945 194.212 310.938 195.444C307.92 196.68 304.709 197.298 301.294 197.298C295.85 197.298 291.551 195.767 288.404 192.705C285.258 189.644 283.686 185.627 283.686 180.652C283.686 175.005 285.88 170.657 290.283 167.611C294.678 164.568 300.971 163.047 309.159 163.047H316.82V159.545C316.82 156.062 315.77 153.566 313.678 152.061C311.574 150.556 308.652 149.803 304.895 149.803C303.137 149.803 301.008 150.031 298.5 150.487C295.996 150.945 293.377 151.648 290.637 152.594L287.844 144.575C291.194 143.323 294.476 142.403 297.69 141.81C300.903 141.218 303.88 140.921 306.618 140.921C313.788 140.921 319.148 142.514 322.681 145.691C326.218 148.871 327.987 153.27 327.987 158.883V182.786ZM304.74 188.927C307.047 188.927 309.291 188.32 311.493 187.1C313.69 185.884 315.467 184.176 316.819 181.975V170.154H310.526C305.181 170.154 301.359 171.043 299.061 172.817C296.757 174.591 295.607 177.037 295.607 180.148C295.608 186.002 298.655 188.927 304.74 188.927Z" fill="#EB007D"/>
<path d="M371.474 120.829V181.315C371.474 183.784 372.222 185.535 373.728 186.566C375.234 187.599 377.186 188.114 379.592 188.114C381.113 188.114 382.572 187.954 383.98 187.635C385.38 187.312 386.742 186.88 388.063 186.339L390.956 194.255C389.362 195.068 387.407 195.776 385.099 196.385C382.778 196.994 380.132 197.3 377.156 197.3C371.776 197.3 367.591 195.778 364.595 192.732C361.604 189.688 360.108 185.544 360.108 180.3V129.203H343.919V120.828H371.474V120.829Z" fill="#EB007D"/>
<path d="M449.764 182.786C449.764 184.919 450.086 186.456 450.729 187.404C451.368 188.353 452.398 189.062 453.822 189.536L451.289 197.248C448.647 196.943 446.372 196.218 444.458 195.068C442.551 193.918 441.119 192.174 440.176 189.839C438.21 192.344 435.725 194.212 432.719 195.444C429.703 196.68 426.49 197.298 423.076 197.298C417.626 197.298 413.328 195.767 410.184 192.705C407.036 189.644 405.465 185.627 405.465 180.652C405.465 175.005 407.663 170.657 412.062 167.611C416.459 164.568 422.751 163.047 430.94 163.047H438.6V159.545C438.6 156.062 437.554 153.566 435.455 152.061C433.356 150.556 430.431 149.803 426.676 149.803C424.915 149.803 422.783 150.031 420.282 150.487C417.777 150.945 415.157 151.648 412.414 152.594L409.628 144.575C412.972 143.323 416.258 142.403 419.471 141.81C422.685 141.218 425.659 140.921 428.399 140.921C435.571 140.921 440.927 142.514 444.457 145.691C447.997 148.871 449.766 153.27 449.766 158.883L449.764 182.786ZM426.526 188.927C428.825 188.927 431.068 188.32 433.272 187.1C435.471 185.884 437.249 184.176 438.599 181.975V170.154H432.307C426.959 170.154 423.14 171.043 420.836 172.817C418.536 174.591 417.386 177.037 417.386 180.148C417.387 186.002 420.436 188.927 426.526 188.927Z" fill="#EB007D"/>
<path d="M501.16 119.562L512.527 120.83V195.932H502.532L501.719 189.332C499.894 191.869 497.712 193.831 495.174 195.22C492.633 196.61 489.799 197.302 486.65 197.302C482.046 197.302 478.268 196.125 475.309 193.775C472.347 191.422 470.141 188.134 468.688 183.907C467.232 179.678 466.506 174.758 466.506 169.138C466.506 163.693 467.349 158.848 469.041 154.604C470.732 150.356 473.149 147.016 476.298 144.581C479.443 142.143 483.233 140.929 487.665 140.929C493.179 140.929 497.677 142.873 501.158 146.764L501.16 119.562ZM490.66 149.652C486.837 149.652 483.856 151.234 481.73 154.397C479.597 157.56 478.525 162.474 478.525 169.135C478.525 175.968 479.504 180.915 481.45 183.98C483.395 187.041 486.125 188.572 489.642 188.572C492.217 188.572 494.447 187.828 496.338 186.34C498.233 184.852 499.841 183.059 501.158 180.962V155.593C499.841 153.697 498.3 152.235 496.546 151.2C494.785 150.17 492.826 149.652 490.66 149.652Z" fill="#EB007D"/>
<path d="M552.058 140.926C559.902 140.926 565.896 143.48 570.019 148.586C574.145 153.696 576.211 160.511 576.211 169.035C576.211 174.721 575.272 179.675 573.394 183.904C571.517 188.133 568.775 191.421 565.172 193.772C561.57 196.123 557.182 197.299 552.009 197.299C544.195 197.299 538.209 194.769 534.046 189.713C529.882 184.655 527.804 177.796 527.804 169.135C527.804 163.589 528.742 158.693 530.617 154.447C532.498 150.203 535.245 146.887 538.862 144.502C542.485 142.118 546.883 140.926 552.058 140.926ZM552.058 149.756C547.965 149.756 544.888 151.32 542.825 154.447C540.762 157.576 539.725 162.474 539.725 169.135C539.725 175.802 540.748 180.698 542.794 183.826C544.843 186.956 547.914 188.518 552.009 188.518C556.1 188.518 559.168 186.947 561.218 183.799C563.26 180.653 564.283 175.731 564.283 169.031C564.283 162.435 563.27 157.572 561.242 154.443C559.214 151.32 556.151 149.756 552.058 149.756Z" fill="#EB007D"/>
<path d="M158.559 64.2979C158.559 64.2979 189.737 71.6338 185.957 107.386C185.957 107.386 183.635 132.454 163.971 141.468L143.864 108.391L158.559 64.2979Z" fill="#EB007D"/>
<path d="M153.438 98.8138C153.438 98.8138 158.781 86.5658 159.456 78.1028C159.456 78.1028 173.927 82.3348 175.044 101.04C175.044 101.04 175.487 117.963 161.902 128.209C161.902 128.209 152.79 112.776 148.542 109.945C144.286 107.119 148.542 108.836 148.542 108.836C148.542 108.836 152.774 101.709 167.025 103.156C167.025 103.156 162.796 99.9258 153.438 98.8138Z" fill="#E2CFC0"/>
<path d="M28.683 64.2979C28.683 64.2979 -2.48801 71.6338 1.29399 107.386C1.29399 107.386 3.61698 132.454 23.284 141.468L43.382 108.391L28.683 64.2979Z" fill="#EB007D"/>
<path d="M33.804 98.8138C33.804 98.8138 28.465 86.5658 27.796 78.1028C27.796 78.1028 13.32 82.3348 12.21 101.04C12.21 101.04 11.764 117.963 25.346 128.209C25.346 128.209 34.453 112.776 38.712 109.945C42.961 107.119 38.712 108.836 38.712 108.836C38.712 108.836 34.473 101.709 20.218 103.156C20.216 103.156 24.453 99.9258 33.804 98.8138Z" fill="#E2CFC0"/>
<path d="M75.234 192.534C72.97 197.061 77.624 203.865 77.624 203.865C77.022 196.588 83.94 193.602 83.94 193.602C80.246 203.386 88.717 207.682 88.717 207.682C86.334 198.733 92.297 195.156 92.297 195.156C135.971 189.668 152.913 172.244 152.913 172.244C185.371 142.413 152.195 105.901 152.195 105.901C161.265 89.433 159.835 73.92 159.835 73.92C159.358 24.043 130.481 14.498 130.481 14.498L129.291 27.625C119.268 -3.16302 105.104 1.13297 105.104 1.13297C110.516 12.35 107.969 21.818 107.969 21.818C107.969 21.818 105.104 1.13296 60.56 5.58896C60.56 5.58896 41.468 5.27196 39.233 3.35996C37.01 1.45396 39 4.42497 39.233 4.63297C43.976 8.78997 56.418 13.544 57.69 21.819H46.555C46.555 21.819 52.601 27.865 50.689 33.911C50.689 33.911 42.257 27.707 34.466 31.047C34.466 31.047 36.976 43.05 30.801 53.956C24.345 65.362 17.839 80.603 37.883 105.903L38.02 106.366C38.02 106.366 4.84801 142.879 37.302 172.707C37.302 172.707 53.323 187.665 73.615 192.197L75.234 192.534Z" fill="#EB007D"/>
<path d="M94.446 185.37C81.562 183.936 78.221 177.255 78.221 177.255C44.051 172.724 39.72 143.608 43.143 131.436C46.267 120.321 60.794 108.287 60.794 108.287C49.825 101.128 42.903 89.9111 42.903 89.9111C30.254 64.1381 49.343 47.1961 49.343 47.1961C71.297 27.3891 90.631 49.58 90.631 49.58C92.777 52.208 95.401 51.7301 95.401 51.7301H94.815C94.815 51.7301 97.44 52.208 99.592 49.58C99.592 49.58 118.918 27.3901 140.878 47.1961C140.878 47.1961 159.968 64.1371 147.319 89.9111C147.319 89.9111 140.398 101.128 129.422 108.287C129.422 108.287 143.956 120.321 147.08 131.436C150.506 143.608 145.72 175.11 111.998 177.255C111.998 177.255 108.662 183.938 95.769 185.37H94.446Z" fill="#E2CFC0"/>
<path opacity="0.2" d="M112.106 177.495C145.818 175.347 150.607 143.848 147.188 131.676C144.064 120.558 129.526 108.528 129.526 108.528C129.526 108.528 164.522 154.982 112.106 177.495Z" fill="#EB007D"/>
<path d="M60.757 59.763C60.757 59.763 61.4569 59.148 62.6519 58.488C63.2489 58.154 63.965 57.808 64.752 57.496C65.543 57.171 66.4149 56.909 67.3009 56.681C67.7469 56.595 68.188 56.486 68.646 56.426C69.0929 56.354 69.54 56.3159 69.9799 56.2999C70.412 56.2649 70.837 56.28 71.241 56.319C71.64 56.332 72.03 56.404 72.38 56.488C72.554 56.531 72.722 56.5579 72.878 56.6099C73.032 56.6729 73.18 56.734 73.312 56.786C73.582 56.894 73.808 56.998 73.978 57.14C74.319 57.391 74.4859 57.536 74.4859 57.536L74.437 57.6189C74.437 57.6189 74.234 57.5319 73.88 57.3819C73.713 57.2899 73.482 57.246 73.218 57.193C72.958 57.124 72.664 57.07 72.332 57.062C72.002 57.031 71.642 57.0139 71.267 57.0409C70.883 57.0429 70.49 57.08 70.071 57.138C69.658 57.172 69.241 57.254 68.815 57.333C68.377 57.399 67.956 57.5189 67.524 57.6099C64.063 58.4119 60.796 59.857 60.796 59.857L60.757 59.763Z" fill="#EB007D"/>
<path d="M131.957 60.7489C131.957 60.7489 131.04 60.637 129.739 60.351C129.085 60.214 128.329 60.044 127.539 59.8449C127.14 59.7409 126.726 59.671 126.313 59.548C125.9 59.45 125.481 59.3379 125.059 59.2479C124.64 59.1539 124.221 59.026 123.808 58.958C123.396 58.883 122.997 58.762 122.603 58.708C122.212 58.639 121.833 58.5599 121.479 58.5199C121.115 58.4599 120.778 58.4199 120.466 58.4089C120.142 58.3699 119.86 58.3669 119.609 58.3819C119.344 58.3899 119.102 58.3749 118.928 58.4249C118.559 58.4869 118.317 58.519 118.317 58.519L118.273 58.436C118.273 58.436 118.475 58.344 118.838 58.186C119.011 58.086 119.245 58.04 119.509 57.979C119.773 57.911 120.078 57.85 120.411 57.833C120.747 57.799 121.107 57.774 121.493 57.799C121.877 57.797 122.277 57.825 122.7 57.876C123.119 57.909 123.543 57.985 123.975 58.058C124.406 58.119 124.838 58.235 125.277 58.324C128.745 59.17 131.994 60.6629 131.994 60.6629L131.957 60.7489Z" fill="#EB007D"/>
<path d="M78.765 84.857C78.296 86.534 76.78 87.768 74.952 87.768C72.758 87.768 70.974 85.988 70.974 83.79C70.974 82.292 71.812 81.004 73.035 80.327C72.371 80.166 71.685 80.073 70.974 80.073C66.146 80.073 62.225 83.992 62.225 88.824C62.225 93.655 66.145 97.573 70.974 97.573C75.809 97.573 79.728 93.655 79.728 88.824C79.729 87.396 79.375 86.05 78.765 84.857Z" fill="#EB007D"/>
<path d="M130.316 84.857C129.85 86.534 128.328 87.768 126.503 87.768C124.307 87.768 122.525 85.988 122.525 83.79C122.525 82.292 123.362 81.004 124.585 80.327C123.919 80.166 123.231 80.073 122.525 80.073C117.692 80.073 113.775 83.992 113.775 88.824C113.775 93.655 117.692 97.573 122.525 97.573C127.357 97.573 131.275 93.655 131.275 88.824C131.276 87.396 130.922 86.05 130.316 84.857Z" fill="#EB007D"/>
<path d="M66.485 9.00901C66.485 9.00901 90.113 5.18801 103.953 20.466C103.952 20.466 98.223 12.827 66.485 9.00901Z" fill="#E2CFC0"/>
<path d="M136.647 20.4661C136.647 20.4661 154.819 32.1981 155.975 65.3291C155.975 65.3291 148.818 31.4411 136.647 20.4661Z" fill="#E2CFC0"/>
<path opacity="0.2" d="M99.591 49.5781C99.591 49.5781 149.438 25.1921 143.021 95.6641C142.627 100.004 147.319 89.8051 147.319 89.8051C159.966 64.0331 140.878 47.0901 140.878 47.0901C118.919 27.2821 99.592 49.4761 99.592 49.4761" fill="#EB007D"/>
<path d="M53.814 151.913C53.814 151.913 109.469 151.909 130.899 121.491C130.899 121.491 131.957 192.866 53.814 151.913Z" fill="#EB007D"/>
<path opacity="0.2" d="M78.954 110.815C78.954 106.485 86.049 102.878 95.092 102.878C104.141 102.878 111.265 106.223 111.265 110.556C111.265 114.043 106.72 117.162 100.143 118.183C98.547 118.431 96.854 117.621 95.092 117.621C93.803 117.621 92.272 117.475 91.075 117.611C90.601 117.667 90.504 118.03 90.041 117.958C83.513 116.927 78.954 114.29 78.954 110.815Z" fill="#EB007D"/>
<path d="M110.396 113.26L94.782 117.682C94.783 117.681 105.44 120.285 110.396 113.26Z" fill="#EB007D"/>
<path d="M79.822 113.365L95.51 117.53C95.508 117.53 84.893 120.309 79.822 113.365Z" fill="#EB007D"/>
<path opacity="0.2" d="M85.932 178.939C85.932 180.93 89.898 182.543 94.784 182.543C99.672 182.543 103.635 180.932 103.635 178.939C103.635 176.952 99.673 175.337 94.784 175.337C89.898 175.339 85.932 176.952 85.932 178.939Z" fill="#EB007D"/>
</svg>
