<svg width="600" height="600" viewBox="0 0 600 600" fill="none" xmlns="http://www.w3.org/2000/svg">
<path d="M600 108.497C595.987 116.97 588.517 127.673 577.592 140.604C566.667 153.536 553.178 164.907 537.123 174.718C537.57 178.286 537.905 181.63 538.127 184.751C539.859 232.811 528.346 282.675 512.375 324.216C481.416 401.453 433.977 463.614 366.22 505.821C295.563 546.35 213.274 554.97 137.458 547.627C87.125 541.847 37.5165 525.411 0 494.45C68.6165 502.652 132.652 479.31 183.277 441.607C127.041 443.03 86.182 402.35 66.89 355.319C75.5865 357.599 84.684 357.324 92.977 356.658C103.185 355.699 112.875 354.741 122.409 352.645C86.55 341.075 55.174 319.807 38.7965 287.761C29.19 267.456 24.8525 248.12 24.75 226.223C41.5525 235.069 61.764 243.691 80.2685 242.945C52.3225 219.271 29.9185 189.016 25.7535 154.316C23.124 125.383 30.364 98.972 40.804 74.383C82.6075 120.325 129.512 158.134 183.613 181.406C220.612 196.557 257.506 204.66 295.654 204.817C291.25 170.745 294.674 137.792 310.704 109.834C329.569 79.775 357.093 62.335 387.962 53.6465C432.13 42.3205 475.21 58.319 502.344 89.098C531.604 85.9375 559.634 72.9565 581.942 59.6665C572.463 88.3715 554.005 116.912 527.093 130.569C552.716 125.825 577.167 118.24 600 108.497Z" fill="white"/>
</svg>
