<svg width="470" height="374" viewBox="0 0 470 374" fill="none" xmlns="http://www.w3.org/2000/svg">
<g clip-path="url(#clip0)">
<path opacity="0.1" d="M275.639 63.2042C245.899 62.1693 217.571 52.5613 190.524 42.0472C163.478 31.5331 136.689 19.883 107.662 14.3132C88.9923 10.7303 67.6391 10.2243 52.5995 20.2417C38.1205 29.9003 33.4428 46.5269 30.9293 61.9715C29.0361 73.5895 27.9241 85.8145 33.1119 96.692C36.7098 104.244 43.1016 110.591 47.5174 117.849C62.897 143.017 52.0297 174.053 35.3635 198.627C27.5519 210.158 18.4767 221.164 12.448 233.426C6.41928 245.688 3.62549 259.757 8.90061 272.276C14.1344 284.695 26.6007 294.004 40.101 300.558C67.5288 313.873 99.8366 317.681 131.363 319.838C201.13 324.617 271.264 322.547 341.215 320.478C367.103 319.709 393.102 318.932 418.568 314.926C432.711 312.7 447.31 309.172 457.58 300.645C470.611 289.823 473.841 271.495 465.111 257.926C450.457 235.164 409.97 229.512 399.714 205.08C394.081 191.636 399.87 176.661 408.059 164.187C425.63 137.438 455.08 113.967 456.633 83.3907C457.699 62.3855 443.537 41.3573 421.646 31.4181C398.703 20.9638 366.878 22.2884 349.959 39.5313C332.525 57.2986 301.895 64.1148 275.639 63.2042Z" fill="#00ADB5"/>
<path d="M200.091 317.584L42.8121 316.816L27.1843 280.127L82.4444 276.112L72.8132 235.886L182.111 221.707L77.4496 185.289L86.6948 183.091L254.988 210.572L245.72 273.348L232.473 307.848L200.091 317.584Z" fill="#00ADB5"/>
<path d="M45.2245 301.45C45.2245 301.45 54.8741 299.905 60.6639 306.73C60.6639 306.73 56.418 310.078 47.2831 305.442L45.2245 301.45Z" fill="#00ADB5"/>
<path d="M44.2136 301.298C44.2136 301.298 38.0562 308.883 41.0889 317.327C41.0889 317.327 46.1067 315.317 46.6535 305.079L44.2136 301.298Z" fill="#00ADB5"/>
<path d="M38.6812 288.829C38.6812 288.829 42.541 281.742 57.9804 291.663C57.9804 291.663 55.9218 296.428 49.1027 296.041C42.2837 295.655 40.4824 292.564 38.6812 288.829Z" fill="#00ADB5"/>
<path d="M37.684 288.319C37.684 288.319 29.6748 287.399 28.8983 305.75C28.8983 305.75 33.9758 306.804 37.5829 300.999C41.19 295.195 39.7104 291.939 37.684 288.319Z" fill="#00ADB5"/>
<path d="M33.02 273.679C33.02 273.679 37.5232 261.187 53.8632 270.073C53.8632 270.073 50.132 281.535 34.6926 277.929L33.02 273.679Z" fill="#00ADB5"/>
<path d="M28.0023 255.006C28.0023 255.006 36.4939 242.385 51.5473 254.086C51.5473 254.086 46.2722 265.934 29.2889 259.495L28.0023 255.006Z" fill="#00ADB5"/>
<path d="M26.201 237.234C26.201 237.234 36.1079 225.639 51.0143 237.234C51.0143 237.234 41.622 247.408 26.201 240.196V237.234Z" fill="#00ADB5"/>
<path d="M24.657 219.973C24.657 219.973 34.6926 207.867 48.974 219.329C48.974 219.329 37.6518 230.018 24.657 222.806V219.973Z" fill="#00ADB5"/>
<path d="M25.5577 204.648C25.5577 204.648 36.1263 189.065 49.4887 199.625C49.4887 199.625 38.1665 213.018 25.5577 207.61V204.648Z" fill="#00ADB5"/>
<path d="M28.0023 186.747C28.0023 186.747 39.1958 171.293 52.1906 183.141C52.1906 183.141 38.9385 196.534 28.0023 189.58V186.747Z" fill="#00ADB5"/>
<path d="M31.7334 170.746C31.7334 170.746 44.9855 156.221 56.5467 162.007C56.5467 162.007 42.7385 177.433 31.1544 174.6L31.7334 170.746Z" fill="#00ADB5"/>
<path d="M36.3652 155.577C36.3652 155.577 51.6575 137.787 60.5535 143.729C60.5535 143.729 49.2865 157.527 35.2808 158.907L36.3652 155.577Z" fill="#00ADB5"/>
<path d="M43.051 137.985C43.051 137.985 56.4364 123.46 66.2146 127.066C66.2146 127.066 54.7638 142.133 41.2543 142.52L43.051 137.985Z" fill="#00ADB5"/>
<path d="M49.1027 121.528C49.1027 121.528 63.8988 107.62 70.3318 110.067C70.3318 110.067 59.653 125.521 48.4594 124.619L49.1027 121.528Z" fill="#00ADB5"/>
<path d="M55.0211 106.332C55.0211 106.332 67.7586 89.7147 74.7109 91.0026C74.7109 91.0026 66.9866 105.817 55.0211 108.02V106.332Z" fill="#00ADB5"/>
<path d="M61.445 85.8421C61.445 85.8421 72.7029 73.1065 78.7867 73.1341C78.7867 73.1341 69.8999 90.1517 60.9809 89.9953L61.445 85.8421Z" fill="#00ADB5"/>
<path d="M65.2497 72.2004L76.1262 45.6714C76.1262 45.6714 76.6684 69.6524 63.8666 77.1217L65.2497 72.2004Z" fill="#00ADB5"/>
<path d="M69.6655 42.9441C69.6655 42.9441 71.4668 20.789 70.3088 18.9861C70.3088 18.9861 78.0836 37.4065 69.592 52.7315L69.6655 42.9441Z" fill="#00ADB5"/>
<path d="M32.5973 273.385C32.5973 273.385 21.321 266.389 14.0195 283.503C14.0195 283.503 24.0551 290.172 33.9252 277.75L32.5973 273.385Z" fill="#00ADB5"/>
<path d="M27.6392 254.293C27.6392 254.293 13.8081 247.978 7.09937 265.847C7.09937 265.847 17.7829 273.205 28.8983 258.81L27.6392 254.293Z" fill="#00ADB5"/>
<path d="M25.5576 238.296C25.5576 238.296 15.6507 226.701 0.744385 238.296C0.744385 238.296 10.1367 248.47 25.5576 241.258V238.296Z" fill="#00ADB5"/>
<path d="M24.317 219.973C24.317 219.973 14.2814 207.867 0 219.329C0 219.329 11.3222 230.018 24.317 222.806V219.973Z" fill="#00ADB5"/>
<path d="M25.5577 205.089C25.5577 205.089 18.5181 187.635 3.21655 195.141C3.21655 195.141 11.4876 210.618 24.9328 207.987L25.5577 205.089Z" fill="#00ADB5"/>
<path d="M28.8891 186.66C28.8891 186.66 21.8908 168.902 6.37335 177.134C6.37335 177.134 15.8759 193.412 28.1998 189.401L28.8891 186.66Z" fill="#00ADB5"/>
<path d="M33.2268 170.833C33.2268 170.833 30.4698 151.364 17.6036 149.621C17.6036 149.621 20.3331 170.153 31.4945 174.343L33.2268 170.833Z" fill="#00ADB5"/>
<path d="M36.6915 155.614C36.6915 155.614 35.6162 132.157 24.9787 131.339C24.9787 131.339 25.3371 149.143 35.4922 158.935L36.6915 155.614Z" fill="#00ADB5"/>
<path d="M44.1538 137.327C44.1538 137.327 40.9832 117.821 30.8282 115.439C30.8282 115.439 32.0872 134.328 43.1475 142.115L44.1538 137.327Z" fill="#00ADB5"/>
<path d="M50.3066 121.689C50.3066 121.689 50.2009 101.369 43.9976 98.3845C43.9976 98.3845 40.1515 116.782 48.5099 124.283L50.3066 121.689Z" fill="#00ADB5"/>
<path d="M55.4944 106.102C55.4944 106.102 54.6259 85.1798 48.202 82.2316C48.202 82.2316 46.0056 98.7892 54.534 107.473L55.4944 106.102Z" fill="#00ADB5"/>
<path d="M62.341 87.5117C62.341 87.5117 62.3043 70.4941 57.7184 66.5019C57.7184 66.5019 53.1601 85.143 59.947 90.9336L62.341 87.5117Z" fill="#00ADB5"/>
<path d="M64.7121 71.3634L60.2503 43.0406C60.2503 43.0406 54.1894 66.2489 64.9234 76.4778L64.7121 71.3634Z" fill="#00ADB5"/>
<path d="M65.5805 43.2108C65.5805 43.2108 54.1297 24.1695 54.364 22.0538C54.364 22.0538 55.5817 42.0104 69.9872 51.9495L65.5805 43.2108Z" fill="#00ADB5"/>
<path d="M66.9223 37.5858C66.9223 37.5858 56.1147 10.5417 51.2256 8.3524C51.2256 8.3524 66.6649 16.2081 67.8229 36.8131L66.9223 37.5858Z" fill="#00ADB5"/>
<path d="M60.9258 90.1563L60.186 89.931C69.3071 60.1594 71.5817 41.1779 66.5961 36.4176L67.1245 35.8565C72.4134 40.879 70.2675 59.6535 60.9258 90.1563Z" fill="#444053"/>
<path d="M35.8092 159.864L34.7156 159.473C35.6851 156.746 36.7282 153.977 37.8218 151.249C47.3428 127.498 55.4484 105.403 60.6454 88.4407L61.5966 87.9808C56.3904 104.975 48.4272 127.917 38.8971 151.7C37.808 154.377 36.7696 157.132 35.8092 159.864Z" fill="#444053"/>
<path d="M58.8212 323.729C58.6742 323.568 43.8919 306.905 33.5852 278.458C27.5461 261.803 24.1852 244.295 23.6278 226.587C22.9201 204.45 27.5611 179.733 35.5106 157.279L36.3744 158.291C18.5273 208.686 25.6174 251.869 35.0235 277.874C45.2199 306.063 59.8367 322.543 59.9792 322.708L58.8212 323.729Z" fill="#444053"/>
<path d="M289.824 288.351C289.824 288.351 279.407 301.077 287.678 320.316L204.507 356.421L196.526 358.095L192.85 341.998L195.308 321.683V310.58L289.824 288.351Z" fill="#D5D6DB"/>
<path d="M27.1843 280.127L142.3 259.122L294.832 283.444L200.091 317.584L27.1843 280.127Z" fill="#00ADB5"/>
<path d="M27.1843 280.127L142.3 259.122L294.832 283.444L200.091 317.584L27.1843 280.127Z" fill="#00ADB5"/>
<path d="M27.1843 280.123C27.1843 280.123 16.4181 300.539 28.8247 319.397L199.531 356.421C199.531 356.421 188.935 340.158 200.078 317.584L27.1843 280.123Z" fill="#00ADB5"/>
<path opacity="0.1" d="M27.1843 280.123C27.1843 280.123 16.4181 300.539 28.8247 319.397L199.531 356.421C199.531 356.421 188.935 340.158 200.078 317.584L27.1843 280.123Z" fill="black"/>
<path opacity="0.1" d="M32.2711 287.201C32.2711 287.201 26.1183 302.14 32.2711 311.808V287.201Z" fill="black"/>
<path d="M199.531 356.421L294.832 315.717C294.832 315.717 300.162 316.867 296.716 320.776C293.27 324.686 201.369 360.331 201.369 360.331L28.8248 319.397L199.531 356.421Z" fill="#00ADB5"/>
<path opacity="0.1" d="M199.531 356.421L294.832 315.717C294.832 315.717 300.162 316.867 296.716 320.776C293.27 324.686 201.369 360.331 201.369 360.331L28.8248 319.397L199.531 356.421Z" fill="black"/>
<path opacity="0.1" d="M191.719 321.696C191.719 321.696 182.529 332.735 191.719 349.292V321.696Z" fill="black"/>
<path opacity="0.1" d="M236.212 321.51L194.99 335.275L195.135 335.711L236.357 321.946L236.212 321.51Z" fill="black"/>
<path opacity="0.1" d="M244.468 320.14L194.977 338.977L195.14 339.407L244.632 320.57L244.468 320.14Z" fill="black"/>
<path opacity="0.1" d="M252.051 320.074L195.253 343.344L195.427 343.769L252.225 320.499L252.051 320.074Z" fill="black"/>
<path opacity="0.1" d="M260.296 318.081L195.916 347.191L196.105 347.61L260.486 318.5L260.296 318.081Z" fill="black"/>
<path opacity="0.1" d="M267.224 318.091L196.426 349.065L196.61 349.487L267.408 318.512L267.224 318.091Z" fill="black"/>
<path opacity="0.1" d="M282.376 315.515L197.493 352.211L197.676 352.633L282.558 315.937L282.376 315.515Z" fill="black"/>
<path opacity="0.3" d="M69.9504 282.372L150.823 265.354L200.091 274.783L133.822 296.17L69.9504 282.372Z" fill="white"/>
<path d="M294.832 283.444C294.832 283.444 299.014 285.132 296.56 287.739C294.106 290.347 200.078 317.584 200.078 317.584L294.832 283.444Z" fill="#00ADB5"/>
<path d="M335.448 244.115C335.448 244.115 325.035 256.836 333.306 276.08L250.136 312.185L242.154 313.868L238.478 297.771L240.974 277.46V266.343L335.448 244.115Z" fill="#D5D6DB"/>
<path d="M72.8131 235.886L187.924 214.886L340.461 239.207L245.72 273.348L72.8131 235.886Z" fill="#3A3768"/>
<path d="M72.7947 235.886C72.7947 235.886 62.0239 256.303 74.4306 275.16L245.137 312.185C245.137 312.185 234.545 295.908 245.702 273.343L72.7947 235.886Z" fill="#3A3768"/>
<path opacity="0.1" d="M72.7947 235.886C72.7947 235.886 62.0239 256.303 74.4306 275.16L245.137 312.185C245.137 312.185 234.545 295.908 245.702 273.343L191.719 261.647L72.7947 235.886Z" fill="black"/>
<path opacity="0.1" d="M77.8952 242.965C77.8952 242.965 71.7471 257.899 77.8952 267.571V242.965Z" fill="black"/>
<path d="M245.155 312.185L340.461 271.481C340.461 271.481 345.787 272.631 342.34 276.54C338.894 280.449 246.993 316.094 246.993 316.094L74.449 275.16L245.155 312.185Z" fill="#3A3768"/>
<path opacity="0.1" d="M245.155 312.185L340.461 271.481C340.461 271.481 345.787 272.631 342.34 276.54C338.894 280.449 246.993 316.094 246.993 316.094L74.449 275.16L245.155 312.185Z" fill="black"/>
<path opacity="0.1" d="M237.343 277.46C237.343 277.46 228.153 288.498 237.343 305.056V277.46Z" fill="black"/>
<path opacity="0.1" d="M281.84 277.278L240.618 291.044L240.763 291.48L281.985 277.714L281.84 277.278Z" fill="black"/>
<path opacity="0.1" d="M290.102 275.906L240.611 294.743L240.774 295.173L290.265 276.336L290.102 275.906Z" fill="black"/>
<path opacity="0.1" d="M297.678 275.834L240.88 299.104L241.054 299.529L297.852 276.259L297.678 275.834Z" fill="black"/>
<path opacity="0.1" d="M305.929 273.842L241.548 302.951L241.737 303.371L306.118 274.261L305.929 273.842Z" fill="black"/>
<path opacity="0.1" d="M312.849 273.846L242.051 304.82L242.235 305.242L313.033 274.267L312.849 273.846Z" fill="black"/>
<path opacity="0.1" d="M328.005 271.27L243.123 307.966L243.305 308.388L328.187 271.692L328.005 271.27Z" fill="black"/>
<path opacity="0.45" d="M115.579 238.136L196.452 221.118L245.72 230.547L179.45 251.934L115.579 238.136Z" fill="white"/>
<path d="M340.461 239.207C340.461 239.207 344.638 240.895 342.189 243.498C339.74 246.102 245.72 273.343 245.72 273.343L340.461 239.207Z" fill="#3A3768"/>
<path d="M339.767 193.508C339.767 193.508 329.35 216.353 337.621 235.592L254.451 261.578L246.488 263.266L242.812 247.169L245.27 226.853V215.737L339.767 193.508Z" fill="#D5D6DB"/>
<path d="M77.1462 185.284L192.261 164.279L344.799 188.601L250.053 222.741L77.1462 185.284Z" fill="#00ADB5"/>
<path d="M77.1463 185.28C77.1463 185.28 66.3617 205.696 78.7683 224.554L249.474 261.578C249.474 261.578 238.878 245.301 250.035 222.741L77.1463 185.28Z" fill="#00ADB5"/>
<path opacity="0.1" d="M77.1463 185.28C77.1463 185.28 66.3617 205.696 78.7683 224.554L249.474 261.578C249.474 261.578 238.878 245.301 250.035 222.741L77.1463 185.28Z" fill="black"/>
<path opacity="0.1" d="M82.233 192.358C82.233 192.358 76.0802 207.297 82.233 216.965V192.358Z" fill="black"/>
<path d="M249.493 261.578L344.794 230.993C344.794 230.993 350.124 232.143 346.678 236.052C343.232 239.961 251.331 265.488 251.331 265.488L78.7867 224.554L249.493 261.578Z" fill="#00ADB5"/>
<path opacity="0.1" d="M249.493 261.578L344.794 230.993C344.794 230.993 350.124 232.143 346.678 236.052C343.232 239.961 251.331 265.488 251.331 265.488L78.7867 224.554L249.493 261.578Z" fill="black"/>
<path opacity="0.1" d="M241.681 226.853C241.681 226.853 232.491 237.892 241.681 254.449V226.853Z" fill="black"/>
<path opacity="0.1" d="M286.179 226.671L244.957 240.436L245.102 240.872L286.324 227.107L286.179 226.671Z" fill="black"/>
<path opacity="0.1" d="M294.438 225.301L244.946 244.138L245.11 244.568L294.601 225.731L294.438 225.301Z" fill="black"/>
<path opacity="0.1" d="M302.009 225.231L245.212 248.501L245.386 248.926L302.183 225.656L302.009 225.231Z" fill="black"/>
<path opacity="0.1" d="M310.267 223.235L245.886 252.344L246.076 252.764L310.456 223.654L310.267 223.235Z" fill="black"/>
<path opacity="0.1" d="M317.19 223.243L246.392 254.218L246.576 254.639L317.374 223.664L317.19 223.243Z" fill="black"/>
<path opacity="0.1" d="M332.344 220.67L247.461 257.366L247.644 257.789L332.526 221.093L332.344 220.67Z" fill="black"/>
<path opacity="0.3" d="M119.912 187.529L200.785 170.511L250.053 179.94L183.784 201.327L119.912 187.529Z" fill="white"/>
<path d="M344.794 188.601C344.794 188.601 348.976 190.289 346.522 192.896C344.068 195.504 250.053 222.741 250.053 222.741L344.794 188.601Z" fill="#00ADB5"/>
<path d="M142.64 48.983C142.64 48.983 125.178 47.9297 127.219 60.1916C127.219 60.1916 126.81 62.3579 128.772 63.3421C128.772 63.3421 128.804 62.4222 130.564 62.7396C131.192 62.8476 131.831 62.8785 132.466 62.8316C133.323 62.7729 134.137 62.4371 134.787 61.8749C134.787 61.8749 139.699 59.842 141.61 51.8024C141.61 51.8024 143.025 50.05 142.989 49.5993L140.03 50.8595C140.03 50.8595 141.036 52.989 140.245 54.7597C140.245 54.7597 140.149 50.9377 139.579 51.0251C139.464 51.0251 138.049 51.7656 138.049 51.7656C138.049 51.7656 139.781 55.4772 138.472 58.1725C138.472 58.1725 138.968 53.6007 137.507 52.0323L135.43 53.2466C135.43 53.2466 137.456 57.0778 136.082 60.2054C136.082 60.2054 136.436 55.4082 134.993 53.5409L133.109 55.0127C133.109 55.0127 135.016 58.7888 133.854 61.3828C133.854 61.3828 133.702 55.7992 132.705 55.3761C132.705 55.3761 131.055 56.8294 130.807 57.4274C130.807 57.4274 132.112 60.187 131.299 61.6174C131.299 61.6174 130.807 57.8965 130.38 57.8781C130.38 57.8781 128.739 60.3433 128.569 62.0175C128.649 60.4567 129.135 58.944 129.98 57.6297C129.035 57.8088 128.162 58.2613 127.471 58.9313C127.471 58.9313 127.724 57.1882 130.389 57.0364C130.389 57.0364 131.745 55.1645 132.108 55.0541C132.108 55.0541 129.456 54.8287 127.853 55.5416C127.853 55.5416 129.268 53.8997 132.59 54.6218L134.428 53.104C134.428 53.104 130.945 52.644 129.465 53.1546C129.465 53.1546 131.17 51.7012 134.929 52.759L136.955 51.5494C136.955 51.5494 133.982 50.9101 132.213 51.1401C132.213 51.1401 134.079 50.1328 137.548 51.2228L138.991 50.5743C138.991 50.5743 136.818 50.1466 136.179 50.0776C135.54 50.0086 135.508 49.8338 135.508 49.8338C136.887 49.6071 138.303 49.7662 139.598 50.2938C139.598 50.2938 142.699 49.1761 142.64 48.983Z" fill="#00ADB5"/>
<path opacity="0.1" d="M388.291 99.3826C388.291 99.3826 370.83 98.3293 372.87 110.591C372.87 110.591 372.461 112.757 374.423 113.742C374.423 113.742 374.455 112.822 376.215 113.139C376.843 113.245 377.482 113.276 378.117 113.231C378.966 113.169 379.772 112.833 380.415 112.275C380.415 112.275 385.332 110.242 387.239 102.202C387.239 102.202 388.654 100.45 388.617 99.9989L385.667 101.259C385.667 101.259 386.673 103.389 385.883 105.159C385.883 105.159 385.787 101.337 385.221 101.425C385.106 101.425 383.687 102.165 383.687 102.165C383.687 102.165 385.419 105.877 384.114 108.572C384.114 108.572 384.61 104 383.144 102.432L381.067 103.646C381.067 103.646 383.094 107.477 381.72 110.605C381.72 110.605 382.074 105.808 380.631 103.941L378.752 105.412C378.752 105.412 380.654 109.188 379.491 111.782C379.491 111.782 379.34 106.199 378.343 105.776C378.343 105.776 376.698 107.229 376.445 107.827C376.445 107.827 377.75 110.587 376.941 112.017C376.941 112.017 376.445 108.296 376.022 108.278C376.022 108.278 374.382 110.743 374.212 112.417C374.291 110.856 374.779 109.343 375.627 108.029C374.68 108.209 373.807 108.661 373.113 109.331C373.113 109.331 373.371 107.588 376.031 107.436C376.031 107.436 377.387 105.564 377.75 105.449C377.75 105.449 375.103 105.228 373.495 105.941C373.495 105.941 374.91 104.299 378.232 105.021L380.07 103.504C380.07 103.504 376.583 103.044 375.108 103.554C375.108 103.554 376.808 102.101 380.571 103.159L382.593 101.949C382.593 101.949 379.62 101.31 377.851 101.54C377.851 101.54 379.716 100.532 383.186 101.622L384.633 100.974C384.633 100.974 382.455 100.546 381.816 100.477C381.178 100.408 381.146 100.233 381.146 100.233C382.525 100.004 383.941 100.163 385.235 100.693C385.235 100.693 388.346 99.5757 388.291 99.3826Z" fill="#00ADB5"/>
<path opacity="0.1" d="M172.048 124.734C172.048 124.734 164.438 108.945 154.752 116.727C154.752 116.727 152.661 117.426 152.762 119.62C152.762 119.62 153.567 119.201 154.141 120.894C154.356 121.492 154.639 122.063 154.986 122.595C155.457 123.317 156.148 123.866 156.958 124.159C156.958 124.159 161.125 127.462 169.07 125.208C169.07 125.208 171.29 125.59 171.653 125.323L169.116 123.359C169.116 123.359 167.738 125.277 165.817 125.447C165.817 125.447 169.107 123.502 168.753 123.051C168.68 122.959 167.375 122.071 167.375 122.071C167.375 122.071 164.981 125.396 161.994 125.567C161.994 125.567 166.221 123.773 166.874 121.726L164.806 120.503C164.806 120.503 162.449 124.145 159.053 124.467C159.053 124.467 163.409 122.439 164.333 120.268L162.136 119.348C162.136 119.348 159.77 122.853 156.939 123.106C156.939 123.106 161.737 120.25 161.617 119.169C161.617 119.169 159.545 118.442 158.901 118.511C158.901 118.511 157.146 120.99 155.492 120.99C155.492 120.99 158.492 118.741 158.309 118.378C158.309 118.378 155.359 118.148 153.806 118.838C155.205 118.142 156.762 117.824 158.322 117.918C157.704 117.179 156.883 116.637 155.961 116.359C155.961 116.359 157.606 115.733 159.035 117.982C159.035 117.982 161.332 118.254 161.603 118.516C161.603 118.516 160.505 116.097 159.104 115.043C159.104 115.043 161.227 115.471 162.196 118.723L164.425 119.606C164.425 119.606 163.143 116.331 161.962 115.296C161.962 115.296 164.057 116.074 164.971 119.896L167.012 121.073C167.012 121.073 166.125 118.162 165.059 116.731C165.059 116.731 166.846 117.872 167.586 121.432L168.859 122.379C168.859 122.379 168.17 120.268 167.94 119.679C167.71 119.091 167.825 118.971 167.825 118.971C168.699 120.063 169.253 121.377 169.424 122.766C169.424 122.766 171.882 124.872 172.048 124.734Z" fill="#00ADB5"/>
<path opacity="0.1" d="M348.397 77.0758C348.397 77.0758 340.792 61.2862 331.101 69.0683C331.101 69.0683 329.015 69.7674 329.111 71.9613C329.111 71.9613 329.92 71.5474 330.49 73.2353C330.704 73.8361 330.989 74.409 331.34 74.9417C331.808 75.6619 332.499 76.2093 333.306 76.5009C333.306 76.5009 337.479 79.8032 345.419 77.5541C345.419 77.5541 347.638 77.9313 348.006 77.6645L345.483 75.696C345.483 75.696 344.105 77.6185 342.189 77.7887C342.189 77.7887 345.474 75.8386 345.12 75.3878C345.047 75.2958 343.742 74.4082 343.742 74.4082C343.742 74.4082 341.352 77.7335 338.361 77.9037C338.361 77.9037 342.593 76.1099 343.246 74.0678L341.146 72.8536C341.146 72.8536 338.793 76.4917 335.393 76.8182C335.393 76.8182 339.749 74.7853 340.677 72.6144L338.476 71.6946C338.476 71.6946 336.109 75.2038 333.284 75.4522C333.284 75.4522 338.076 72.596 337.957 71.5198C337.957 71.5198 335.889 70.7885 335.246 70.8621C335.246 70.8621 333.49 73.3365 331.831 73.3365C331.831 73.3365 334.837 71.0874 334.653 70.7241C334.653 70.7241 331.703 70.4941 330.145 71.184C331.545 70.4876 333.102 70.1704 334.662 70.2642C334.045 69.525 333.226 68.9829 332.305 68.705C332.305 68.705 333.95 68.0795 335.379 70.3285C335.379 70.3285 337.676 70.6045 337.947 70.8667C337.947 70.8667 336.849 68.4428 335.443 67.3896C335.443 67.3896 337.566 67.8219 338.536 71.092L340.769 71.9751C340.769 71.9751 339.487 68.6958 338.306 67.6609C338.306 67.6609 340.401 68.4382 341.311 72.2603L343.356 73.4377C343.356 73.4377 342.464 70.5309 341.398 69.0959C341.398 69.0959 343.19 70.2366 343.926 73.7964L345.198 74.7439C345.198 74.7439 344.514 72.6328 344.279 72.0441C344.045 71.4554 344.165 71.3404 344.165 71.3404C345.036 72.4334 345.588 73.7468 345.759 75.1349C345.759 75.1349 348.254 77.223 348.397 77.0758Z" fill="#00ADB5"/>
<path opacity="0.1" d="M372.7 155.177C372.7 155.177 365.095 139.383 355.39 147.165C355.39 147.165 353.304 147.864 353.401 150.058C353.401 150.058 354.209 149.644 354.779 151.332C354.992 151.933 355.276 152.506 355.625 153.038C356.093 153.759 356.784 154.306 357.591 154.598C357.591 154.598 361.764 157.905 369.708 155.651C369.708 155.651 371.923 156.033 372.291 155.761L369.754 153.797C369.754 153.797 368.376 155.72 366.455 155.89C366.455 155.89 369.741 153.94 369.387 153.489C369.313 153.397 368.008 152.51 368.008 152.51C368.008 152.51 365.619 155.835 362.627 156.01C362.627 156.01 366.86 154.211 367.512 152.169L365.44 150.946C365.44 150.946 363.087 154.588 359.687 154.91C359.687 154.91 364.043 152.878 364.971 150.707L362.77 149.787C362.77 149.787 360.403 153.291 357.578 153.544C357.578 153.544 362.375 150.688 362.255 149.607C362.255 149.607 360.183 148.876 359.54 148.95C359.54 148.95 357.784 151.424 356.125 151.424C356.125 151.424 359.131 149.175 358.947 148.812C358.947 148.812 355.997 148.582 354.439 149.272C355.84 148.576 357.399 148.258 358.961 148.352C358.343 147.611 357.522 147.069 356.599 146.793C356.599 146.793 358.244 146.162 359.673 148.416C359.673 148.416 361.97 148.687 362.241 148.95C362.241 148.95 361.143 146.53 359.742 145.473C359.742 145.473 361.865 145.905 362.834 149.175L365.063 150.058C365.063 150.058 363.781 146.779 362.6 145.749C362.6 145.749 364.695 146.521 365.605 150.348L367.65 151.521C367.65 151.521 366.758 148.614 365.692 147.179C365.692 147.179 367.484 148.32 368.224 151.884L369.497 152.804C369.497 152.804 368.808 150.693 368.578 150.104C368.348 149.515 368.463 149.4 368.463 149.4C369.337 150.492 369.889 151.806 370.058 153.195C370.058 153.195 372.557 155.315 372.7 155.177Z" fill="#00ADB5"/>
<path opacity="0.1" d="M92.797 360.662C98.6313 360.662 103.361 360.133 103.361 359.48C103.361 358.827 98.6313 358.298 92.797 358.298C86.9626 358.298 82.233 358.827 82.233 359.48C82.233 360.133 86.9626 360.662 92.797 360.662Z" fill="#00ADB5"/>
<path opacity="0.1" d="M23.545 340.572C29.3794 340.572 34.1091 340.043 34.1091 339.39C34.1091 338.737 29.3794 338.208 23.545 338.208C17.7107 338.208 12.981 338.737 12.981 339.39C12.981 340.043 17.7107 340.572 23.545 340.572Z" fill="#00ADB5"/>
<path opacity="0.1" d="M145.585 374.005C151.419 374.005 156.149 373.475 156.149 372.823C156.149 372.17 151.419 371.641 145.585 371.641C139.751 371.641 135.021 372.17 135.021 372.823C135.021 373.475 139.751 374.005 145.585 374.005Z" fill="#00ADB5"/>
<path opacity="0.1" d="M416.095 344.941C421.93 344.941 426.659 344.412 426.659 343.759C426.659 343.106 421.93 342.577 416.095 342.577C410.261 342.577 405.531 343.106 405.531 343.759C405.531 344.412 410.261 344.941 416.095 344.941Z" fill="#00ADB5"/>
<path opacity="0.1" d="M328.188 339.206C334.022 339.206 338.752 338.677 338.752 338.024C338.752 337.371 334.022 336.842 328.188 336.842C322.353 336.842 317.624 337.371 317.624 338.024C317.624 338.677 322.353 339.206 328.188 339.206Z" fill="#00ADB5"/>
<path opacity="0.1" d="M271.319 367.179C278.219 367.179 283.813 366.218 283.813 365.031C283.813 363.845 278.219 362.883 271.319 362.883C264.419 362.883 258.825 363.845 258.825 365.031C258.825 366.218 264.419 367.179 271.319 367.179Z" fill="#00ADB5"/>
<path d="M276.893 343.442C276.893 343.442 259.496 352.438 268.484 363.035C268.484 363.035 269.33 365.335 271.774 365.174C271.774 365.174 271.287 364.282 273.153 363.569C273.816 363.312 274.447 362.977 275.032 362.571C275.822 362.024 276.413 361.234 276.714 360.322C276.714 360.322 280.27 355.557 277.513 346.74C277.513 346.74 277.872 344.247 277.559 343.842L275.446 346.744C275.446 346.744 277.628 348.212 277.881 350.369C277.881 350.369 275.583 346.749 275.124 347.149C275.023 347.232 274.076 348.736 274.076 348.736C274.076 348.736 277.863 351.307 278.143 354.646C278.143 354.646 276.011 349.968 273.709 349.302L272.39 351.656C272.39 351.656 276.525 354.177 276.985 357.967C276.985 357.967 274.582 353.16 272.128 352.19L271.158 354.678C271.158 354.678 275.147 357.217 275.515 360.372C275.515 360.372 272.179 355.097 270.979 355.262C270.979 355.262 270.226 357.599 270.327 358.321C270.327 358.321 273.143 360.207 273.194 362.06C273.194 362.06 270.593 358.772 270.193 358.988C270.193 358.988 270.028 362.295 270.828 364.015C270.828 364.015 269.449 361.559 269.674 358.988C268.868 359.701 268.289 360.635 268.006 361.674C268.006 361.674 267.257 359.857 269.725 358.183C269.725 358.183 269.959 355.612 270.244 355.294C270.244 355.294 267.574 356.601 266.439 358.201C266.439 358.201 266.857 355.814 270.478 354.628L271.397 352.107C271.397 352.107 267.776 353.643 266.66 354.996C266.66 354.996 267.464 352.627 271.682 351.491L272.932 349.191C272.932 349.191 269.716 350.277 268.144 351.491C268.144 351.491 269.362 349.453 273.318 348.515L274.334 347.066C274.334 347.066 271.999 347.899 271.347 348.198C270.694 348.497 270.566 348.349 270.566 348.349C271.758 347.34 273.207 346.681 274.752 346.445C274.752 346.445 277.054 343.598 276.893 343.442Z" fill="#00ADB5"/>
<path d="M328.528 173.529C325.522 165.355 308.98 164.587 301.803 166.671C296.702 168.156 285.95 169.831 280.206 170.672L279.834 170.318C280.578 170.097 280.597 169.555 280.505 168.75C280.451 167.689 280.467 166.626 280.551 165.567C284.071 166.662 287.204 164.072 287.204 164.072C291.34 162.233 290.228 154.358 291.018 152.206C291.611 150.596 292.25 141.112 292.535 136.384H292.594L292.627 134.797C292.668 134.112 292.686 133.712 292.686 133.712C292.686 133.712 293.091 122.149 293.881 119.808C294.616 117.656 295.214 106.81 295.305 105.09C295.305 104.943 295.305 104.865 295.305 104.865L295.246 103.862C295.287 103.131 295.305 102.317 295.301 101.461C295.301 97.529 294.892 92.5755 294.841 91.7752C294.841 91.6603 294.841 91.5223 294.841 91.3567C294.873 89.6779 294.662 81.2704 287.517 78.0922C284.884 76.9148 281.718 75.512 278.653 74.146C277.863 67.316 276.057 60.5227 276.213 53.6421C276.213 52.6073 276.305 51.5724 276.406 50.5422C276.406 50.8411 276.374 51.1447 276.369 51.462C276.369 52.1289 276.369 52.8004 276.369 53.4673C276.64 44.862 279.889 36.2106 279.586 27.7892C279.558 28.6125 279.498 29.4404 279.42 30.2683C279.579 27.4198 279.281 24.5643 278.538 21.8101C278.262 20.8396 277.89 19.837 277.095 19.1884C276.344 18.6662 275.482 18.3246 274.577 18.1904C272.403 17.6333 270.194 17.2215 267.965 16.9578C267.626 15.92 267.124 14.9433 266.476 14.0648C261.817 7.6625 254.915 1.64656 246.754 0.266759C242.66 -0.423142 237.95 0.151775 235.165 3.08156C234.875 3.33893 234.601 3.61551 234.348 3.90944C232.85 5.69858 232.206 8.04885 230.671 9.83339C230.57 9.95297 230.456 10.0634 230.345 10.1783C227.34 12.869 222.658 13.4301 219.317 15.8447C218.728 16.2782 218.177 16.7597 217.668 17.2843C216.321 18.6195 215.114 20.0881 214.065 21.6675C212.562 23.7832 211.018 25.9863 210.541 28.5113C209.58 33.5706 213.022 38.3677 213.661 43.4592C215.085 54.8517 202.49 64.9611 204.875 76.2019C205.511 78.9634 206.916 81.4879 208.928 83.4826C204.016 87.9348 199.834 92.2536 199.834 92.2536V92.5111H199.058L199.136 93.431H199.058L199.485 98.4213L199.058 105.688C199.058 105.688 199.058 105.766 199.058 105.914V105.95V106.148C199.058 106.148 199.058 106.226 199.058 106.374H199.085C199.228 109.037 199.793 118.612 200.464 120.632C201.254 122.973 201.654 134.535 201.654 134.535C201.654 134.535 202.527 150.877 203.326 153.038C204.126 155.2 202.991 163.051 207.14 164.905C208.354 165.837 209.791 166.433 211.308 166.634C211.097 168.354 211.23 169.601 211.914 169.992C212.208 170.164 212.54 170.259 212.879 170.268C212.598 170.686 212.348 171.124 212.13 171.578C210.484 171.406 208.865 171.025 207.315 170.442C202.858 168.603 188.066 164.463 183.77 167.375C179.473 170.286 169.135 172.926 173.909 184.645C178.683 196.364 180.907 196.659 180.907 196.659C182.377 197.726 183.666 199.023 184.726 200.499C186.159 202.656 199.517 207.591 202.858 207.591C204.278 207.569 205.697 207.64 207.108 207.803C207.108 207.803 203.483 210.986 203.965 212.834C204.448 214.683 202.862 229.484 202.862 229.484C202.862 229.484 206.538 233.191 208.11 228.33L208.165 228.403C208.459 228.803 210.049 230.611 213.04 228.33C214.265 227.4 215.565 226.575 216.928 225.864L231.411 223.813C232.921 223.719 234.435 223.708 235.947 223.781C238.244 223.969 240.5 222.608 241.92 221.555C244.921 222.695 248.293 223.942 249.897 224.397C253.15 225.317 268.103 229.332 271.6 228.077C272.326 227.787 272.973 227.327 273.484 226.734L276.82 226.839L275.257 227.152C275.257 227.152 278.299 227.203 282.435 227.258L282.26 227.359L287.448 227.313C295.039 227.382 303.567 227.405 304.689 227.152C306.444 226.761 315.565 227.037 318.253 227.152H319.002C319.002 227.152 329.024 225.152 324.888 214.973C321.709 207.154 311.935 204.882 307.597 204.257C308.819 204.013 309.872 203.824 310.57 203.714C313.598 203.254 319.48 200.494 319.958 199.552C320.436 198.609 325.366 195.872 326.639 194.313C327.912 192.754 331.547 181.702 328.528 173.529ZM245.518 196.401L245.026 196.562L244.696 196.672L244.061 197.298C243.556 196.958 243.014 196.599 242.449 196.231C243.446 196.291 244.47 196.35 245.518 196.401Z" fill="url(#paint0_linear)"/>
<path d="M274.816 147.906C274.816 147.906 281.847 166.303 285.844 164.463C289.842 162.623 288.757 154.805 289.52 152.661C290.283 150.518 291.129 134.264 291.129 134.264C291.129 134.264 291.514 122.766 292.277 120.438C292.985 118.3 293.559 107.514 293.656 105.817C293.656 105.67 293.656 105.592 293.656 105.592L292.898 92.2536L288.606 91.1819L278.653 94.8614L277.274 102.74L276.737 105.817L276.507 107.128L274.816 147.906Z" fill="#BE6F72"/>
<path opacity="0.1" d="M277.132 144.824C277.132 144.824 283.841 150.32 285.863 150.803C287.884 151.286 289.125 155.573 289.125 155.573" fill="black"/>
<path d="M219.836 148.71C219.836 148.71 212.806 167.108 208.808 165.268C204.811 163.428 205.895 155.609 205.132 153.466C204.369 151.323 203.524 135.069 203.524 135.069C203.524 135.069 203.138 123.57 202.375 121.243C201.667 119.105 201.093 108.319 200.997 106.622C200.997 106.475 200.997 106.397 200.997 106.397L201.759 93.0585L206.051 91.9868L216.004 95.6663L217.383 103.545L217.92 106.622L218.15 107.933L219.836 148.71Z" fill="#BE6F72"/>
<path d="M265.617 50.257H249.925V74.7393H265.617V50.257Z" fill="#3E373A"/>
<path opacity="0.1" d="M265.617 50.257H249.925V74.7393H265.617V50.257Z" fill="black"/>
<path d="M217.079 167.034C217.079 167.034 211.717 172.935 213.707 174.007C215.696 175.078 228.567 195.164 228.567 195.164C228.567 195.164 270.841 200.375 278.814 192.556C286.786 184.737 286.625 170.769 286.625 170.769C286.625 170.769 280.22 172.149 279.521 171.399C278.823 170.649 274.986 167.034 274.986 167.034C274.986 167.034 220.755 163.741 217.079 167.034Z" fill="#4B4B5B"/>
<path opacity="0.02" d="M217.079 167.034C217.079 167.034 211.717 172.935 213.707 174.007C215.696 175.078 228.567 195.164 228.567 195.164C228.567 195.164 270.841 200.375 278.814 192.556C286.786 184.737 286.625 170.769 286.625 170.769C286.625 170.769 280.22 172.149 279.521 171.399C278.823 170.649 274.986 167.034 274.986 167.034C274.986 167.034 220.755 163.741 217.079 167.034Z" fill="black"/>
<path d="M293.183 92.4467L279.397 103.485L275.23 103.789L273.7 103.899L247.999 105.785L221.348 103.835L217.383 103.545L212.328 103.177L201.759 93.0585C201.759 93.0585 209.24 85.0372 215.793 79.6238C218.375 77.4851 220.815 75.7557 222.593 75.075L222.897 74.9692C224.015 74.5326 225.014 73.8358 225.81 72.9363C230.984 67.5965 235.767 54.4194 235.767 54.4194C235.767 54.4194 258.591 42.6175 255.834 58.0989C253.077 73.5802 266.095 69.7536 266.095 69.7536L270.387 71.7129L272.082 72.4902L276.406 74.4725L286.161 78.9523C293.817 82.48 293.183 92.4467 293.183 92.4467Z" fill="#BE6F72"/>
<path opacity="0.1" d="M246.929 67.0262C258.265 67.0262 267.455 57.8278 267.455 46.4809C267.455 35.1341 258.265 25.9357 246.929 25.9357C235.593 25.9357 226.403 35.1341 226.403 46.4809C226.403 57.8278 235.593 67.0262 246.929 67.0262Z" fill="black"/>
<path opacity="0.1" d="M293.215 107.082H200.997C200.997 106.935 200.997 106.856 200.997 106.856L201.759 93.5184C201.759 93.5184 209.24 85.4971 215.793 80.0837L273.69 77.784L276.383 74.9417L286.138 79.4214C293.798 82.9445 293.182 92.9113 293.182 92.9113C293.182 92.9113 294.23 104.46 293.215 107.082Z" fill="black"/>
<path d="M293.215 106.622H200.997C200.997 106.475 200.997 106.397 200.997 106.397L201.759 93.0585C201.759 93.0585 209.24 85.0372 215.793 79.6238L273.69 77.3241L276.383 74.4818L286.138 78.9615C293.798 82.4846 293.182 92.4514 293.182 92.4514C293.182 92.4514 294.23 104 293.215 106.622Z" fill="#E7C7CA"/>
<path opacity="0.1" d="M232.147 69.2201C232.147 69.2201 246.694 87.7738 266.072 68.8383C285.449 49.9029 268.218 111.074 268.218 111.074L226.403 116.041L232.147 69.2201Z" fill="black"/>
<path d="M232.147 70.14C232.147 70.14 246.694 88.6937 266.072 69.7582C285.449 50.8227 268.218 111.994 268.218 111.994L226.403 116.961L232.147 70.14Z" fill="#E7C7CA"/>
<path opacity="0.1" d="M272.059 73.3963L273.598 96.8943L275.248 104.713L276.507 110.692C276.507 110.692 279.724 156.686 278.805 158.985C277.886 161.285 279.264 163.125 279.457 164.348C279.65 165.572 279.264 168.644 279.416 170.024C279.567 171.404 279.416 172.015 275.896 171.523C272.376 171.031 267.469 170.176 267.469 170.176C267.469 170.176 255.062 171.095 250.775 169.564C246.488 168.032 238.368 168.028 238.368 168.028C238.368 168.028 226.113 168.336 222.134 167.876C218.155 167.416 216.004 172.783 213.403 171.247C210.802 169.711 216.464 154.846 218.302 150.55C220.14 146.254 215.852 135.372 215.852 135.372L221.367 104.755L222.593 97.8142V75.9949L222.897 75.8891C224.015 75.4525 225.014 74.7557 225.81 73.8562L227.188 95.8135L270.382 97.3497V72.6374" fill="black"/>
<path d="M272.059 72.4764L273.598 95.9745L275.248 103.793L276.507 109.772C276.507 109.772 279.724 155.766 278.805 158.066C277.886 160.365 279.264 162.205 279.457 163.428C279.65 164.652 279.264 167.724 279.416 169.104C279.567 170.484 279.416 171.095 275.896 170.603C272.376 170.111 267.469 169.256 267.469 169.256C267.469 169.256 255.062 170.176 250.775 168.644C246.488 167.112 238.368 167.108 238.368 167.108C238.368 167.108 226.113 167.416 222.134 166.956C218.155 166.496 216.004 171.864 213.403 170.327C210.802 168.791 216.464 153.926 218.302 149.63C220.14 145.335 215.852 134.453 215.852 134.453L221.367 103.835L222.593 96.8943V75.075L222.897 74.9693C224.015 74.5327 225.014 73.8358 225.81 72.9364L227.188 94.8936L270.382 96.4298V71.7175" fill="#E7C7CA"/>
<path opacity="0.1" d="M277.026 23.4382C276.765 22.477 276.401 21.4789 275.648 20.835C274.928 20.3178 274.097 19.9775 273.222 19.8416C271.126 19.2899 268.995 18.8812 266.844 18.6181C266.536 17.5969 266.071 16.63 265.465 15.7527C260.962 9.38725 254.299 3.38511 246.46 2.02831C242.357 1.31541 237.601 1.95472 234.972 5.19265C233.53 6.9726 232.909 9.33206 231.453 11.0798C228.645 14.4741 223.577 14.8927 220.039 17.5189C218.15 18.8987 216.781 20.8994 215.444 22.8403C213.996 24.9422 212.507 27.1315 212.048 29.6428C211.129 34.6606 214.442 39.4439 215.053 44.5078C216.431 55.836 204.301 65.8856 206.593 77.062C207.931 83.5792 213.946 88.1694 220.167 90.4966C222.359 91.3199 224.863 92.1386 225.888 94.2451C226.348 95.165 226.426 96.2274 226.858 97.1565C228.31 100.256 233.084 100.376 235.648 98.1177C238.212 95.8595 239.021 92.2076 239.324 88.7995C240.555 73.916 234.6 59.2119 235.294 44.2916C235.501 39.7797 236.769 34.6606 240.808 32.6185C246.244 29.8589 252.783 34.4583 258.766 33.5798C261.597 40.4748 262.198 48.0846 260.484 55.3393C259.533 59.3085 257.888 63.1581 257.769 67.2516C257.589 73.4837 260.948 79.1777 263.852 84.6877C264.476 85.718 264.892 86.86 265.079 88.0498C265.125 89.257 264.9 90.4591 264.422 91.5683C262.782 95.9882 259.951 100.091 259.63 104.796C259.535 105.345 259.659 105.91 259.974 106.369C260.298 106.676 260.716 106.864 261.16 106.902C266.122 107.753 270.414 103.352 272.836 98.9318C275.536 94.05 277.109 88.6249 277.44 83.0549C277.941 73.6906 274.586 64.4782 274.793 55.1047C275.032 44.448 279.843 33.7178 277.026 23.4382Z" fill="black"/>
<path d="M277.486 22.9783C277.224 22.017 276.861 21.019 276.107 20.3751C275.388 19.8579 274.557 19.5175 273.681 19.3816C271.585 18.83 269.454 18.4212 267.303 18.1582C266.996 17.1369 266.531 16.1701 265.925 15.2928C261.422 8.92731 254.759 2.92517 246.92 1.56836C242.816 0.855465 238.06 1.49477 235.432 4.73271C233.989 6.51265 233.369 8.87212 231.912 10.6199C229.105 14.0142 224.036 14.4327 220.498 17.0589C218.609 18.4387 217.24 20.4395 215.903 22.3804C214.456 24.4823 212.967 26.6716 212.507 29.1828C211.588 34.2007 214.901 38.984 215.512 44.0479C216.891 55.376 204.76 65.4256 207.053 76.602C208.39 83.1193 214.405 87.7094 220.627 90.0367C222.819 90.86 225.323 91.6786 226.348 93.7851C226.807 94.705 226.885 95.7675 227.317 96.6965C228.769 99.7965 233.543 99.9161 236.107 97.6578C238.671 95.3995 239.48 91.7476 239.783 88.3395C241.015 73.4561 235.06 58.752 235.754 43.8317C235.96 39.3198 237.229 34.2007 241.268 32.1586C246.704 29.399 253.242 33.9983 259.225 33.1198C262.056 40.0149 262.657 47.6247 260.944 54.8793C259.993 58.8486 258.347 62.6982 258.228 66.7916C258.049 73.0237 261.408 78.7177 264.312 84.2277C264.935 85.2581 265.352 86.4 265.539 87.5898C265.584 88.797 265.36 89.9992 264.882 91.1083C263.241 95.5283 260.411 99.6309 260.089 104.336C259.995 104.885 260.118 105.45 260.434 105.909C260.757 106.216 261.175 106.404 261.619 106.443C266.582 107.293 270.874 102.892 273.295 98.4719C275.995 93.5901 277.568 88.165 277.899 82.5949C278.4 73.2307 275.046 64.0182 275.253 54.6448C275.492 43.9881 280.303 33.2578 277.486 22.9783Z" fill="#3E373A"/>
<path d="M267.335 226.623L285.564 227.207L282.949 213.676L268.985 215.005L267.335 226.623Z" fill="#C3C7D9"/>
<path d="M323.818 194.552C322.591 196.084 317.844 198.843 317.385 199.763C316.925 200.683 311.259 203.443 308.346 203.903C305.433 204.363 296.247 206.359 294.561 207.43C293.352 208.203 283.652 210.65 277.279 212.007C275.553 212.415 273.806 212.73 272.045 212.95C269.288 213.101 239.117 202.831 239.117 202.831L244.934 196.852L245.256 196.741C246.901 196.185 254.501 193.614 258.72 192.39C263.471 191.011 268.985 185.34 268.985 185.34C268.985 185.34 277.1 182.58 278.175 182.272C279.25 181.964 275.418 171.542 275.418 171.542C275.418 171.542 293.031 169.095 299.923 167.021C306.816 164.946 322.747 165.714 325.656 173.841C328.564 181.968 325.063 193.021 323.818 194.552Z" fill="#4B4B5B"/>
<path d="M243.556 220.46C243.556 220.46 240.036 224.14 236.512 223.836C232.987 223.533 220.663 224.756 220.663 224.756C218.43 225.648 216.339 226.861 214.456 228.357C211.574 230.629 210.044 228.817 209.759 228.431L209.709 228.357C208.174 233.191 204.654 229.507 204.654 229.507C204.654 229.507 206.184 214.789 205.716 212.95C205.247 211.11 208.744 207.95 208.744 207.95L212.879 206.897L223.356 204.211L238.368 209.422L243.556 220.46Z" fill="#E7C7CA"/>
<path opacity="0.1" d="M212.861 206.897L209.759 228.431L209.709 228.357C208.174 233.191 204.654 229.507 204.654 229.507C204.654 229.507 206.184 214.789 205.716 212.95C205.247 211.11 208.744 207.95 208.744 207.95L212.861 206.897Z" fill="black"/>
<path opacity="0.1" d="M234.541 145.643C234.541 145.643 242.655 148.402 249.704 145.643H234.541Z" fill="black"/>
<path opacity="0.1" d="M262.244 150.858C262.244 150.858 265.612 152.542 268.218 150.858H262.244Z" fill="black"/>
<path opacity="0.1" d="M262.244 154.851C262.244 154.851 267.91 155.61 268.985 154.078L262.244 154.851Z" fill="black"/>
<path opacity="0.1" d="M260.406 163.428C260.406 163.428 271.048 162.049 273.69 160.209L260.406 163.428Z" fill="black"/>
<path opacity="0.1" d="M227.933 160.209C227.933 160.209 233.906 163.58 238.35 163.428L227.933 160.209Z" fill="black"/>
<path opacity="0.1" d="M277.274 212.007C275.548 212.415 273.801 212.73 272.041 212.949C269.284 213.101 239.113 202.831 239.113 202.831L244.93 196.852L245.252 196.741C246.171 197.39 246.924 197.946 247.462 198.37C249.994 200.366 252.438 197.758 253.357 197.758C254.276 197.758 262.239 204.349 262.239 204.349C262.239 204.349 269.592 206.037 270.818 207.568C272.045 209.1 276.333 208.796 277.095 209.868C277.325 210.199 277.353 211.013 277.274 212.007Z" fill="black"/>
<path d="M220.663 172.167C220.663 172.167 213.229 172.595 208.941 170.787C204.654 168.98 190.41 164.808 186.274 167.738C182.139 170.668 172.181 173.257 176.776 184.912C181.371 196.567 183.517 196.87 183.517 196.87C184.939 197.937 186.18 199.226 187.193 200.688C188.572 202.836 201.438 207.738 204.654 207.738C207.871 207.738 213.537 207.738 221.5 213.258C229.463 218.777 236.663 219.393 236.663 219.393C236.663 219.393 246.773 223.533 249.92 224.452C253.068 225.372 267.45 229.355 270.823 228.132C274.196 226.908 276.337 219.237 276.337 219.237C276.337 219.237 277.867 212.338 277.1 211.266C276.332 210.194 272.045 210.498 270.823 208.966C269.601 207.435 262.244 205.747 262.244 205.747C262.244 205.747 254.299 199.151 253.38 199.151C252.461 199.151 250.017 201.755 247.485 199.763C242.441 196.024 237.142 192.643 231.627 189.645C225.81 186.577 220.663 172.167 220.663 172.167Z" fill="#4B4B5B"/>
<path opacity="0.1" d="M205.716 176.615C207.04 176.344 208.408 176.383 209.714 176.728C211.021 177.074 212.23 177.716 213.247 178.606C216.923 181.674 229.293 187.833 229.293 187.833" fill="black"/>
<path opacity="0.1" d="M297.626 176.422C297.626 176.422 281.235 178.905 278.175 182.276L297.626 176.422Z" fill="black"/>
<path d="M316.466 227.207H315.744C313.153 227.115 304.371 226.839 302.68 227.207C300.691 227.667 274.343 227.207 274.343 227.207L279.494 226.136C279.494 226.136 277.582 219.43 278.795 218.873C278.795 218.873 271.903 214.329 277.1 211.262C282.297 208.194 287.898 209.486 287.898 209.486L300.944 205.062L303.448 204.211C303.448 204.211 318.152 204.979 322.131 215.097C326.111 225.216 316.466 227.207 316.466 227.207Z" fill="#E7C7CA"/>
<path opacity="0.1" d="M316.466 227.207H315.744C320.022 223.675 329.699 212.922 300.944 205.085L303.448 204.234C303.448 204.234 318.152 205.002 322.131 215.12C326.111 225.239 316.466 227.207 316.466 227.207Z" fill="black"/>
<path d="M289.433 215.286C289.877 215.286 290.237 214.926 290.237 214.481C290.237 214.037 289.877 213.676 289.433 213.676C288.989 213.676 288.629 214.037 288.629 214.481C288.629 214.926 288.989 215.286 289.433 215.286Z" fill="#4B4B5B"/>
<path d="M284.76 216.615C285.204 216.615 285.564 216.255 285.564 215.81C285.564 215.366 285.204 215.005 284.76 215.005C284.316 215.005 283.956 215.366 283.956 215.81C283.956 216.255 284.316 216.615 284.76 216.615Z" fill="#4B4B5B"/>
<g opacity="0.1">
<path opacity="0.1" d="M261.991 45.722C262.17 40.6631 261.27 35.6242 259.354 30.9398C253.38 31.832 246.837 27.2189 241.396 29.9785C237.371 32.0206 236.107 37.1397 235.882 41.6516C235.827 42.8429 235.818 44.0341 235.841 45.2253C235.841 44.8022 235.841 44.3744 235.882 43.9513C236.094 39.4393 237.357 34.3203 241.396 32.2782C246.837 29.5186 253.371 34.1179 259.354 33.2394C260.977 37.2073 261.871 41.4361 261.991 45.722Z" fill="black"/>
<path opacity="0.1" d="M215.701 44.8804C215.779 43.8782 215.759 42.8707 215.641 41.8724C215.154 37.825 212.944 33.9569 212.544 30.0107C212.029 34.771 215.057 39.3428 215.641 44.1721C215.701 44.4204 215.701 44.6412 215.701 44.8804Z" fill="black"/>
<path opacity="0.1" d="M239.912 86.1548C239.627 89.5676 238.823 93.2148 236.236 95.4777C233.649 97.7406 228.884 97.6164 227.446 94.5164C226.986 93.5966 226.917 92.5249 226.472 91.6051C225.451 89.4986 222.943 88.6799 220.751 87.8566C214.524 85.5247 208.519 80.9576 207.182 74.4219C207.062 73.8298 206.981 73.2307 206.938 72.6282C206.825 73.9973 206.907 75.3756 207.182 76.7216C208.519 83.2389 214.534 87.8244 220.751 90.1563C222.943 90.9795 225.451 91.7982 226.472 93.9047C226.931 94.8246 227.009 95.887 227.446 96.8161C228.893 99.9161 233.667 100.036 236.236 97.7774C238.805 95.5191 239.604 91.8672 239.912 88.4545C240.052 86.6583 240.1 84.856 240.055 83.0549C240.055 84.0989 239.995 85.1292 239.912 86.1548Z" fill="black"/>
<path opacity="0.1" d="M275.404 52.4647C275.404 53.1316 275.404 53.7939 275.404 54.4562C275.662 45.9014 278.795 37.3006 278.488 28.9252C278.249 36.6705 275.579 44.5906 275.404 52.4647Z" fill="black"/>
<path opacity="0.1" d="M265.543 87.0701C265.656 86.5244 265.692 85.9654 265.649 85.4097C265.464 84.2194 265.047 83.0771 264.422 82.0476C261.766 76.9884 258.738 71.8095 258.38 66.1937C258.38 66.4329 258.347 66.6536 258.343 66.9112C258.159 73.1387 261.518 78.8373 264.422 84.3473C264.916 85.2007 265.293 86.1165 265.543 87.0701Z" fill="black"/>
<path opacity="0.1" d="M278.046 80.4149C277.703 85.9871 276.119 91.4119 273.41 96.2918C270.984 100.712 266.697 105.113 261.729 104.262C261.284 104.224 260.866 104.034 260.544 103.724C260.451 103.619 260.377 103.497 260.328 103.366C260.273 103.724 260.227 104.088 260.199 104.456C260.104 105.003 260.228 105.567 260.544 106.024C260.866 106.334 261.284 106.524 261.729 106.562C266.697 107.413 270.984 103.011 273.41 98.5915C276.119 93.7115 277.703 88.2867 278.046 82.7145C278.102 81.6383 278.106 80.5666 278.074 79.495C278.065 79.8032 278.065 80.1067 278.046 80.4149Z" fill="black"/>
</g>
<path opacity="0.1" d="M278.795 218.873C278.795 218.873 290.425 223.758 298.095 212.949" stroke="black" stroke-miterlimit="10"/>
<path opacity="0.1" d="M281.084 227.41C281.084 227.41 290.582 221.228 302.68 227.207" stroke="black" stroke-miterlimit="10"/>
<path opacity="0.1" d="M217.507 226.007C217.507 226.007 221.495 217.002 232.147 223.868" stroke="black" stroke-miterlimit="10"/>
<path opacity="0.1" d="M204.576 92.8285L212.709 85.4695C212.709 85.4695 244.245 83.3998 245.55 94.1301C245.55 94.1301 256.73 81.4083 280.243 84.2415L290.191 92.1708L262.694 104.249L235.974 113.526L216.294 104.709L204.576 92.8285Z" fill="black"/>
<path d="M204.576 93.2884L212.709 85.9295C212.709 85.9295 244.245 83.8598 245.55 94.59C245.55 94.59 256.73 81.8682 280.243 84.7014L290.191 92.6307L262.694 104.709L235.974 113.985L216.294 105.169L204.576 93.2884Z" fill="#D5D6DB"/>
<path opacity="0.1" d="M200.978 94.2083L204.576 137.29L242.715 139.208L241.061 96.3102L241.029 95.5881L200.978 94.2083Z" fill="black"/>
<path d="M200.978 93.2884L204.576 136.37L242.715 138.288L241.061 95.3903L241.029 94.6682L200.978 93.2884Z" fill="#00ADB5"/>
<path opacity="0.1" d="M291.937 93.2884L252.594 99.194V142.469L291.041 136.909L291.937 93.2884Z" fill="black"/>
<path d="M291.937 92.3686L252.594 98.2741V141.549L291.041 135.989L291.937 92.3686Z" fill="#00ADB5"/>
<path opacity="0.3" d="M282.66 102.929L261.408 105.293L261.872 112.541L282.646 110.269L282.66 102.929Z" fill="white"/>
<path d="M206.644 159.441L208.808 165.268C208.808 165.268 212.025 168.028 215.545 166.648C219.064 165.268 222.134 164.583 223.664 163.24C225.194 161.897 227.34 155.15 227.34 155.15C227.34 155.15 229.486 147.791 231.627 145.951C233.769 144.111 239.439 118.764 231.627 121.243C223.816 123.722 217.842 146.719 217.842 146.719C217.842 146.719 216.464 148.402 214.474 148.559C212.484 148.715 208.5 148.251 207.733 149.939C206.966 151.626 204.346 156.069 206.644 159.441Z" fill="#BE6F72"/>
<path opacity="0.1" d="M252.594 99.1894C250.58 99.6437 248.488 99.6199 246.484 99.12C244.481 98.6201 242.622 97.6578 241.056 96.3102L242.715 139.204C242.715 139.204 246.621 143.435 252.594 142.469V99.1894Z" fill="black"/>
<path d="M252.594 98.2695C250.58 98.7239 248.488 98.7001 246.484 98.2002C244.481 97.7002 242.622 96.738 241.056 95.3904L242.715 138.284C242.715 138.284 246.621 142.515 252.594 141.549V98.2695Z" fill="#00ADB5"/>
<path opacity="0.1" d="M252.594 98.2695C250.58 98.7239 248.488 98.7001 246.484 98.2002C244.481 97.7002 242.622 96.738 241.056 95.3904L242.715 138.284C242.715 138.284 246.621 142.515 252.594 141.549V98.2695Z" fill="black"/>
<path opacity="0.1" d="M253.513 93.4356C253.513 93.4356 269.518 88.5373 273.69 89.2272L253.513 93.4356Z" fill="black"/>
<path opacity="0.1" d="M235.611 91.2969C235.611 91.2969 220.098 87.6174 217.507 88.6615L235.611 91.2969Z" fill="black"/>
<path opacity="0.1" d="M263.604 94.0473C263.604 94.0473 274.306 90.1195 278.175 91.9868L263.604 94.0473Z" fill="black"/>
<path opacity="0.1" d="M258.214 192.579C259.873 191.332 261.638 190.235 263.489 189.3C266.246 187.97 271.301 184.521 271.301 184.521" fill="black"/>
<path opacity="0.1" d="M217.507 145.643C217.507 145.643 210.793 151.139 208.776 151.622C206.759 152.105 205.514 156.391 205.514 156.391" fill="black"/>
<path d="M287.99 158.622L285.849 164.463C285.849 164.463 282.632 167.223 279.108 165.843C275.583 164.463 272.523 163.778 270.988 162.435C269.454 161.092 267.312 154.345 267.312 154.345C267.312 154.345 265.171 146.986 263.025 145.146C260.879 143.306 255.214 117.959 263.025 120.438C270.837 122.917 276.81 145.914 276.81 145.914C276.81 145.914 278.189 147.597 280.179 147.754C282.168 147.91 286.152 147.446 286.919 149.134C287.687 150.822 290.288 155.265 287.99 158.622Z" fill="#BE6F72"/>
<path opacity="0.1" d="M284.236 147.878C284.236 147.878 288.624 150.702 288.606 154.078L284.236 147.878Z" fill="black"/>
<path d="M247.002 66.0189C258.338 66.0189 267.528 56.8205 267.528 45.4737C267.528 34.1268 258.338 24.9284 247.002 24.9284C235.666 24.9284 226.476 34.1268 226.476 45.4737C226.476 56.8205 235.666 66.0189 247.002 66.0189Z" fill="#BE6F72"/>
<path d="M234.113 39.9591C236.604 39.5681 238.786 38.1193 241.167 37.2869C246.492 35.4149 252.383 36.6981 257.773 38.3861C259.841 39.0346 261.941 39.7659 264.11 39.7659C266.278 39.7659 268.581 38.8782 269.688 37.0063C270.708 35.2861 270.511 33.0509 269.651 31.2433C268.792 29.4358 267.354 27.9824 265.902 26.6118C261.123 22.0952 255.195 17.873 248.638 18.333C246.001 18.5216 243.478 19.4644 241.052 20.5085C237.997 21.8262 235.023 23.3252 232.146 24.9974C229.936 26.2806 225.842 27.9962 224.569 30.3419C221.674 35.6265 229.61 40.6674 234.113 39.9591Z" fill="#3E373A"/>
<path opacity="0.1" d="M269.688 35.0746C268.581 36.9465 266.279 37.8342 264.11 37.8342C261.941 37.8342 259.841 37.1305 257.769 36.482C252.379 34.794 246.492 33.5062 241.162 35.3827C238.786 36.2152 236.599 37.6824 234.109 38.0504C230.479 38.6207 224.634 35.4563 223.999 31.4319C223.287 36.0818 230.065 40.0649 234.109 39.4302C236.599 39.0392 238.786 37.5904 241.162 36.7625C246.492 34.886 252.379 36.1738 257.769 37.8618C259.841 38.5103 261.936 39.2416 264.11 39.214C266.283 39.1864 268.581 38.3309 269.688 36.4544C270.262 35.4335 270.488 34.2532 270.331 33.0923C270.26 33.7912 270.04 34.4669 269.688 35.0746Z" fill="black"/>
<path d="M436.263 284.336C436.263 284.336 438.988 287.9 435.004 293.286C431.02 298.672 427.739 303.216 429.063 306.574C429.063 306.574 435.073 296.575 439.962 296.432C444.851 296.29 441.635 290.347 436.263 284.336Z" fill="#00ADB5"/>
<path opacity="0.1" d="M436.263 284.336C436.5 284.68 436.688 285.056 436.819 285.454C441.589 291.065 444.134 296.303 439.544 296.432C435.271 296.556 430.147 304.205 428.92 306.132C428.96 306.288 429.007 306.441 429.063 306.592C429.063 306.592 435.073 296.593 439.962 296.451C444.851 296.308 441.635 290.347 436.263 284.336Z" fill="black"/>
<path d="M441.318 288.88C441.318 290.136 441.175 291.152 441.005 291.152C440.835 291.152 440.688 290.136 440.688 288.88C440.688 287.624 440.863 288.218 441.037 288.218C441.212 288.218 441.318 287.624 441.318 288.88Z" fill="#FFD037"/>
<path d="M443.059 290.379C441.961 290.977 441.001 291.341 440.918 291.189C440.835 291.037 441.658 290.425 442.756 289.809C443.854 289.193 443.422 289.643 443.505 289.809C443.588 289.975 444.162 289.777 443.059 290.379Z" fill="#FFD037"/>
<path d="M421.862 284.336C421.862 284.336 419.137 287.9 423.121 293.286C427.105 298.672 430.386 303.216 429.058 306.574C429.058 306.574 423.052 296.575 418.159 296.432C413.265 296.29 416.504 290.347 421.862 284.336Z" fill="#00ADB5"/>
<path opacity="0.1" d="M421.862 284.336C421.625 284.68 421.438 285.056 421.306 285.454C416.537 291.065 413.991 296.303 418.581 296.432C422.85 296.556 427.978 304.205 429.205 306.132C429.167 306.289 429.117 306.442 429.058 306.592C429.058 306.592 423.052 296.593 418.159 296.451C413.265 296.308 416.504 290.347 421.862 284.336Z" fill="black"/>
<path d="M416.799 288.88C416.799 290.136 416.936 291.152 417.111 291.152C417.286 291.152 417.428 290.136 417.428 288.88C417.428 287.624 417.249 288.218 417.079 288.218C416.909 288.218 416.799 287.624 416.799 288.88Z" fill="#FFD037"/>
<path d="M415.062 290.379C416.16 290.977 417.12 291.341 417.203 291.189C417.286 291.037 416.463 290.425 415.365 289.809C414.267 289.193 414.699 289.643 414.616 289.809C414.533 289.975 413.959 289.777 415.062 290.379Z" fill="#FFD037"/>
<path opacity="0.1" d="M429.063 333.857C444.797 333.857 457.552 331.899 457.552 329.483C457.552 327.067 444.797 325.109 429.063 325.109C413.329 325.109 400.573 327.067 400.573 329.483C400.573 331.899 413.329 333.857 429.063 333.857Z" fill="#00ADB5"/>
<path d="M443.725 301.767L443.588 302.88L443.395 304.453L443.316 305.111L443.124 306.684L443.041 307.342L442.852 308.91L440.67 326.802C440.477 328.398 437.871 329.644 434.724 329.644H423.397C420.249 329.644 417.649 328.398 417.451 326.802L415.268 308.91L415.075 307.342L414.997 306.684L414.804 305.111L414.721 304.453L414.533 302.88L414.395 301.767C414.29 300.848 415.696 300.102 417.479 300.102H440.647C442.425 300.102 443.836 300.861 443.725 301.767Z" fill="#65617D"/>
<path d="M443.588 302.88L443.399 304.453H414.726L414.533 302.88H443.588Z" fill="#9D9CB5"/>
<path d="M443.317 305.111L443.128 306.684H414.997L414.804 305.111H443.317Z" fill="#9D9CB5"/>
<path d="M443.045 307.342L442.852 308.915H415.268L415.08 307.342H443.045Z" fill="#9D9CB5"/>
</g>
<defs>
<linearGradient id="paint0_linear" x1="251.184" y1="230.85" x2="251.184" y2="-3.70915e-06" gradientUnits="userSpaceOnUse">
<stop stop-color="#808080" stop-opacity="0.25"/>
<stop offset="0.54" stop-color="#808080" stop-opacity="0.12"/>
<stop offset="1" stop-color="#808080" stop-opacity="0.1"/>
</linearGradient>
<clipPath id="clip0">
<rect width="470" height="374" fill="white"/>
</clipPath>
</defs>
</svg>
