<svg width="624" height="449" viewBox="0 0 624 449" fill="none" xmlns="http://www.w3.org/2000/svg">
<g clip-path="url(#clip0)">
<path d="M307.106 449C394.614 449 465.553 440.101 465.553 429.125C465.553 418.148 394.614 409.249 307.106 409.249C219.598 409.249 148.659 418.148 148.659 429.125C148.659 440.101 219.598 449 307.106 449Z" fill="#3F3D56"/>
<path d="M575.136 259.181L513.882 288.161L568.094 247.639C559.283 233.891 549.385 220.87 538.495 208.702L272.847 274.707L512.802 183.205C501.837 173.533 490.192 164.661 477.957 156.655L73.1727 221.832C30.1949 275.557 6.76638 342.293 6.73329 411.084H616.043C616.019 357.733 601.907 305.334 575.136 259.181Z" fill="#F2F2F2"/>
<path d="M444.828 137.839C403.269 117.576 357.627 107.076 311.388 107.142C217.281 107.142 133.144 149.799 77.2597 216.823C172.956 195.862 339.57 159.578 444.828 137.839Z" fill="#F2F2F2"/>
<path opacity="0.4" d="M504.755 167.125C509.796 167.125 513.882 163.04 513.882 158.001C513.882 152.962 509.796 148.876 504.755 148.876C499.714 148.876 495.627 152.962 495.627 158.001C495.627 163.04 499.714 167.125 504.755 167.125Z" fill="#00ADB5"/>
<path opacity="0.4" d="M487.862 168.76C491.398 168.76 494.265 165.894 494.265 162.359C494.265 158.824 491.398 155.958 487.862 155.958C484.326 155.958 481.459 158.824 481.459 162.359C481.459 165.894 484.326 168.76 487.862 168.76Z" fill="#00ADB5"/>
<path opacity="0.4" d="M72.6484 201.29C83.2061 201.29 91.7648 192.734 91.7648 182.18C91.7648 171.626 83.2061 163.071 72.6484 163.071C62.0907 163.071 53.532 171.626 53.532 182.18C53.532 192.734 62.0907 201.29 72.6484 201.29Z" fill="#00ADB5"/>
<path opacity="0.4" d="M37.2688 204.713C44.6749 204.713 50.6788 198.711 50.6788 191.307C50.6788 183.904 44.6749 177.902 37.2688 177.902C29.8627 177.902 23.8588 183.904 23.8588 191.307C23.8588 198.711 29.8627 204.713 37.2688 204.713Z" fill="#00ADB5"/>
<path d="M624 410.472H0V411.695H624V410.472Z" fill="#2F2E41"/>
<path d="M553.305 410.472L504.706 338.309C504.706 338.309 578.305 363.994 569.953 410.472H553.305Z" fill="#3F3D56"/>
<path d="M555.213 410.472L603.812 338.309C603.812 338.309 530.212 363.994 538.565 410.472H555.213Z" fill="#00ADB5"/>
<path d="M127.247 81.1964C127.247 77.2232 121.58 74.0024 114.589 74.0024C114.45 74.0024 114.314 74.0058 114.176 74.0083C112.067 67.5458 102.098 62.6517 90.1163 62.6517C79.9219 62.6517 71.1847 66.1947 67.5055 71.2319C64.7871 70.5127 61.9859 70.1542 59.174 70.1655C48.4545 70.1655 39.7647 75.1042 39.7647 81.1964C39.7647 86.7305 46.9357 91.3118 56.2845 92.105C63.0779 93.3467 73.6894 94.1457 85.6156 94.1457C105.863 94.1457 120.678 90.2848 121.05 87.3826C124.76 86.1283 127.247 83.8279 127.247 81.1964Z" fill="#F2F2F2"/>
<path d="M433.129 84.2542C433.129 80.281 427.462 77.0601 420.471 77.0601C420.333 77.0601 420.196 77.0635 420.059 77.066C417.95 70.6035 407.98 65.7095 395.999 65.7095C385.804 65.7095 377.067 69.2524 373.388 74.2896C370.669 73.5705 367.868 73.212 365.056 73.2233C354.337 73.2233 345.647 78.162 345.647 84.2542C345.647 89.7882 352.818 94.3696 362.167 95.1627C368.96 96.4044 379.572 97.2035 391.498 97.2035C411.745 97.2035 426.561 93.3425 426.932 90.4403C430.642 89.186 433.129 86.8856 433.129 84.2542Z" fill="#F2F2F2"/>
<path d="M603.812 32.5505C603.812 25.5766 593.864 19.9231 581.594 19.9231C581.351 19.9231 581.11 19.9291 580.869 19.9335C577.168 8.59026 559.669 -3.05176e-05 538.638 -3.05176e-05C520.745 -3.05176e-05 505.409 6.21872 498.951 15.0603C494.179 13.798 489.262 13.1687 484.327 13.1885C465.512 13.1885 450.259 21.8572 450.259 32.5504C450.259 42.2641 462.846 50.3055 479.255 51.6977C491.179 53.8771 509.805 55.2797 530.738 55.2797C566.278 55.2797 592.282 48.5027 592.934 43.4087C599.446 41.2071 603.812 37.1693 603.812 32.5505Z" fill="#F2F2F2"/>
<path d="M348.81 177.294C336.156 155.92 311.12 154.924 311.12 154.924C311.12 154.924 286.725 151.805 271.076 184.358C256.489 214.7 236.358 243.996 267.835 251.099L273.52 233.409L277.041 252.416C281.523 252.738 286.019 252.815 290.509 252.646C324.218 251.558 356.321 252.964 355.288 240.872C353.913 224.798 360.985 197.86 348.81 177.294Z" fill="#2F2E41"/>
<path d="M266.038 364.477C265.666 366.828 265.126 369.149 264.423 371.423C263.631 373.649 262.409 375.708 261.685 377.957C259.377 385.125 262.576 393.117 267.686 398.65C272.118 403.429 277.837 406.825 284.156 408.426C288.766 409.585 293.559 409.752 298.309 409.913C311.464 410.359 324.957 410.758 337.422 406.532C341.36 405.164 345.163 403.437 348.785 401.372C349.928 400.827 350.936 400.034 351.733 399.051C352.684 397.698 352.806 395.943 352.797 394.29C352.769 388.715 351.639 383.169 351.907 377.6C352.056 374.516 352.633 371.434 352.349 368.36C351.956 364.868 350.492 361.582 348.159 358.954C345.826 356.325 342.738 354.481 339.316 353.675C335.78 352.916 332.113 353.329 328.513 353.675C319.168 354.573 309.784 354.993 300.396 354.932C290.805 354.871 281.272 353.407 271.729 353.255C268.906 353.209 268.963 354.079 268.065 356.81C267.237 359.323 266.56 361.883 266.038 364.477Z" fill="#2F2E41"/>
<path d="M293.258 226.825C292.797 229.238 292.299 231.739 290.848 233.722C289.179 236.003 286.459 237.306 284.664 239.489C281.962 242.775 281.806 247.399 281.795 251.653C281.785 255.571 281.865 259.751 284.051 263.004C285.469 265.115 287.628 266.595 289.738 268.016C297.936 273.539 306.794 279.16 316.678 279.343C320.773 279.418 325.164 278.361 327.859 275.277C329.023 273.829 329.937 272.197 330.566 270.449C333.093 264.221 334.625 257.635 335.106 250.932C335.331 247.778 335.31 244.532 334.242 241.556C333.041 238.209 330.613 235.456 329.009 232.283C327.112 228.51 326.418 224.246 327.021 220.067C327.101 219.772 327.076 219.459 326.951 219.181C326.819 219.032 326.655 218.916 326.47 218.841C326.286 218.767 326.086 218.736 325.888 218.751L306.29 217.34C304.465 217.25 302.647 217.042 300.848 216.718C299.792 216.503 297.001 215.003 295.994 215.402C294.129 216.14 293.64 224.825 293.258 226.825Z" fill="#FFB8B8"/>
<path opacity="0.1" d="M293.258 226.825C292.797 229.238 292.299 231.739 290.848 233.722C289.179 236.003 286.459 237.306 284.664 239.489C281.962 242.775 281.806 247.399 281.795 251.653C281.785 255.571 281.865 259.751 284.051 263.004C285.469 265.115 287.628 266.595 289.738 268.016C297.936 273.539 306.794 279.16 316.678 279.343C320.773 279.418 325.164 278.361 327.859 275.277C329.023 273.829 329.937 272.197 330.566 270.449C333.093 264.221 334.625 257.635 335.106 250.932C335.331 247.778 335.31 244.532 334.242 241.556C333.041 238.209 330.613 235.456 329.009 232.283C327.112 228.51 326.418 224.246 327.021 220.067C327.101 219.772 327.076 219.459 326.951 219.181C326.819 219.032 326.655 218.916 326.47 218.841C326.286 218.767 326.086 218.736 325.888 218.751L306.29 217.34C304.465 217.25 302.647 217.042 300.848 216.718C299.792 216.503 297.001 215.003 295.994 215.402C294.129 216.14 293.64 224.825 293.258 226.825Z" fill="black"/>
<path d="M312 229.452C327.88 229.452 340.753 216.584 340.753 200.709C340.753 184.835 327.88 171.966 312 171.966C296.12 171.966 283.247 184.835 283.247 200.709C283.247 216.584 296.12 229.452 312 229.452Z" fill="#FFB8B8"/>
<path d="M297.291 265.087C298.789 266.653 300.377 268.203 302.341 269.121C304.34 269.947 306.487 270.356 308.65 270.322C313.833 270.468 319.452 269.518 323.057 265.793C327.705 260.992 327.552 253.247 331.195 247.645C331.489 247.137 331.889 246.7 332.369 246.362C332.98 246.029 333.671 245.871 334.366 245.903C338.967 245.86 342.975 248.843 346.592 251.686C348.212 252.959 349.873 254.279 350.895 256.068C351.61 257.463 352.1 258.963 352.346 260.511C354.141 269.27 354.723 278.226 355.3 287.149C355.618 292.077 355.937 297.01 355.913 301.949C355.835 318.22 352.052 334.218 348.29 350.048C347.805 352.088 347.142 354.368 345.287 355.345C344.459 355.717 343.571 355.933 342.666 355.984C331.89 357.249 321.093 358.516 310.245 358.683C306.011 358.748 301.78 358.646 297.55 358.376C296.822 358.366 296.1 358.24 295.411 358.003C294.477 357.555 293.674 356.873 293.08 356.024C287.212 348.632 286.866 338.413 286.903 328.977C286.995 305.906 287.82 282.853 289.377 259.819C289.506 257.918 289.534 255.609 288.163 254.114C290.631 258.062 294.063 261.714 297.291 265.087Z" fill="#D0CDE1"/>
<path d="M291.2 231.899C290.229 233.656 283.069 238.02 281.687 239.476C273.964 247.613 259.869 247.308 252.806 256.024C250.321 259.09 249.03 262.944 248.081 266.774C246.738 272.192 246.02 278.1 248.27 283.209C250.435 288.124 254.992 291.522 258.086 295.913C261.483 300.734 263.01 306.588 264.474 312.3C265.555 316.518 266.645 320.841 266.224 325.175C265.745 330.102 263.36 334.614 261.952 339.36C260.543 344.106 260.3 349.759 263.556 353.489C265.949 356.229 269.701 357.315 273.288 357.926C277.881 358.616 282.513 359.019 287.157 359.133C291.257 359.314 295.776 359.35 298.928 356.722C301.415 354.649 302.496 351.285 302.636 348.051C302.776 344.817 302.103 341.611 301.681 338.402C301.244 335.075 301.076 331.719 300.936 328.366C300.305 313.322 300.219 298.269 300.677 283.207C300.773 280.072 300.889 276.9 300.22 273.836C299.341 269.806 297.163 266.205 295.345 262.503C291.737 255.155 290.031 248.016 290.588 239.849C291.139 231.787 294.656 225.645 291.2 231.899Z" fill="#00ADB5"/>
<path d="M331.576 232.51C333.056 234.03 338.082 234.531 339.963 235.51C341.733 236.327 343.58 236.966 345.477 237.418C352.34 239.397 358.869 242.393 364.845 246.304C366.087 247.03 367.185 247.978 368.084 249.101C369.137 250.565 369.519 252.391 369.876 254.159C370.797 258.721 371.723 263.338 371.516 267.988C371.296 272.923 369.809 277.704 368.334 282.419L362.821 300.037C358.706 313.188 354.565 326.468 353.407 340.199C352.766 347.809 353.051 355.468 354.255 363.009C354.376 363.768 354.478 364.637 353.977 365.219C353.614 365.578 353.136 365.797 352.627 365.84C349.966 366.256 347.391 364.899 344.981 363.699C337.613 360.034 329.749 357.462 321.639 356.064C324.808 351.486 327.253 346.447 328.889 341.124C329.817 337.745 330.549 334.314 331.079 330.849L333.644 316.022C334.687 310.603 335.422 305.128 335.844 299.626C336.037 297.561 335.917 295.478 335.487 293.449C334.896 291.518 334.111 289.652 333.144 287.879C328.918 279.091 326.935 269.062 328.598 259.453C329.326 255.248 330.74 251.038 330.15 246.811C329.583 242.748 330.172 239.589 329.129 235.568C324.847 219.056 328.794 229.651 331.576 232.51Z" fill="#00ADB5"/>
<path d="M252.733 269.919C250.806 273.916 247.585 277.321 246.489 281.62C246.062 283.63 245.879 285.683 245.944 287.736C245.918 290.83 245.901 293.987 246.852 296.932C247.464 298.828 248.459 300.577 249.176 302.435C250.176 305.032 250.621 307.809 250.484 310.588C250.29 314.438 248.982 318.176 248.88 322.029C248.719 328.089 251.523 333.786 254.259 339.196C254.947 337.492 256 335.958 257.344 334.702C258.687 333.447 260.289 332.5 262.037 331.928C263.785 331.356 265.637 331.173 267.463 331.391C269.289 331.609 271.045 332.223 272.609 333.191C273.331 332.525 273.408 331.43 273.436 330.449C273.638 323.418 273.833 316.387 274.021 309.356C274.317 298.482 274.6 287.463 272.097 276.877C270.968 272.097 269.21 267.335 265.987 263.628C264.29 261.676 258.53 256.534 255.744 258.721C254.491 259.704 254.784 262.382 254.586 263.737C254.286 265.88 253.661 267.965 252.733 269.919Z" fill="#00ADB5"/>
<path d="M372.079 258.401C372.991 261.238 373.045 264.269 373.063 267.248C373.1 273.326 373.02 279.403 372.822 285.479C372.72 288.59 372.58 291.743 371.637 294.709C371.015 296.665 370.054 298.499 369.412 300.449C367.486 306.291 368.538 312.627 368.703 318.776C368.82 320.767 368.65 322.763 368.199 324.705C367.182 328.517 364.451 331.597 362.545 335.051C360.734 338.332 359.642 342.009 357.48 345.069C355.317 348.129 351.574 350.554 347.946 349.615C345.197 348.903 343.243 346.47 341.892 343.973C338.944 338.484 337.936 332.16 339.03 326.025C340.387 318.562 344.772 311.942 346.354 304.523C348.526 294.335 345.225 283.823 345.323 273.407C345.278 271.774 345.5 270.145 345.979 268.583C346.809 266.204 348.59 264.304 350.236 262.396C352.293 260.011 354.204 257.505 355.958 254.89C357.136 253.133 358.737 248.615 360.826 248.239C365.49 247.4 370.922 254.799 372.079 258.401Z" fill="#00ADB5"/>
<path d="M228.531 359.946C225.952 359.298 223.294 359.016 220.636 359.107C217.844 359.262 215.116 360.009 212.635 361.298C210.153 362.588 207.975 364.391 206.244 366.588C204.514 368.784 203.271 371.324 202.598 374.037C201.926 376.751 201.839 379.577 202.343 382.327C202.987 385.306 204.04 388.182 205.472 390.873C207.565 395.12 210.076 399.358 213.952 402.079C216.22 403.672 218.844 404.664 221.437 405.641L241.851 413.328C244.854 414.459 247.857 415.59 250.89 416.639C266.127 421.904 282.012 425.061 298.104 426.022C303.006 426.314 307.982 426.395 312.764 425.28C313.899 425.015 315.109 424.62 315.766 423.658C316.155 422.98 316.385 422.223 316.437 421.443L317.693 412.652C317.87 411.415 318.04 410.112 317.586 408.947C317.011 407.469 315.568 406.54 314.193 405.75C300.773 398.045 285.102 393.794 273.806 383.218C271.147 380.728 268.921 376.782 265.69 375.091C262.026 373.173 257.711 372.078 253.924 370.311C245.645 366.448 237.504 362.008 228.531 359.946Z" fill="#2F2E41"/>
<path opacity="0.1" d="M248.911 371.798C256.127 374.058 286.59 389.716 291.812 395.183C291.112 395.435 267.365 382.132 266.653 381.918C260.175 379.975 253.662 378.019 247.511 375.175C246.274 374.603 239.472 371.914 239.781 370.353C240.128 368.592 247.63 371.396 248.911 371.798Z" fill="black"/>
<path d="M338.928 430.581C339.338 430.611 339.744 430.492 340.072 430.245C340.216 430.06 340.322 429.849 340.383 429.623C340.444 429.397 340.46 429.161 340.429 428.929C340.418 424.937 340.407 420.945 340.396 416.953C336.951 415.312 333.097 414.786 329.315 414.281L311.666 411.922C312.072 411.977 308.907 419.521 309.392 420.528C310.247 422.304 316.784 423.877 318.629 424.715C325.042 427.629 331.705 430.832 338.928 430.581Z" fill="#FFB8B8"/>
<path d="M283.556 416.911C280.224 417.442 276.505 417.911 274.347 420.504C271.61 423.792 272.775 428.694 274.08 432.768C274.274 433.592 274.664 434.357 275.216 434.999C276.107 435.878 277.472 436.007 278.721 436.086C281.76 436.278 284.994 436.429 287.649 434.939C288.852 434.144 290.009 433.284 291.117 432.362C293.075 431.059 295.227 430.076 297.494 429.447C301.66 428.137 305.949 427.254 310.294 426.81C312.006 426.732 313.701 426.434 315.336 425.922C316.938 425.319 318.422 424.122 318.887 422.475C319.502 420.299 318.237 418.08 317.023 416.171C315.512 413.794 313.91 411.29 311.656 409.54C308.367 406.986 306.741 408.946 303.428 410.58C297.159 413.674 290.46 415.808 283.556 416.911Z" fill="#FFB8B8"/>
<path d="M274.848 419.912L253.69 413.66C251.116 412.9 248.499 412.133 245.816 412.135C243.133 412.137 240.325 413.016 238.585 415.058C236.944 416.983 236.475 419.614 236.066 422.11L235.191 427.448C234.746 430.161 234.301 432.926 234.701 435.646C235.101 438.366 236.49 441.083 238.904 442.4C241.832 443.997 245.421 443.217 248.688 442.549C255.289 441.2 262.002 440.481 268.739 440.399C271.271 440.369 273.928 440.401 276.166 439.215C278.826 437.806 280.417 434.826 280.691 431.829C281.107 427.269 279.587 421.312 274.848 419.912Z" fill="#2F2E41"/>
<path d="M347.245 414.464C349.988 413.983 352.409 412.425 355.037 411.505C358.736 410.211 362.745 410.211 366.665 410.225C368.104 410.23 369.636 410.262 370.834 411.06C372.56 412.209 373.003 414.508 373.296 416.56L375.067 428.944C375.401 431.273 375.732 433.665 375.212 435.96C374.693 438.255 373.128 440.467 370.85 441.059C368.083 441.778 365.371 440.011 362.758 438.851C356.229 435.95 348.639 436.691 341.831 434.523C340.568 434.121 339.215 433.506 338.699 432.284C338.466 431.597 338.383 430.867 338.456 430.144C338.572 426.164 337.732 420.728 338.931 416.924C340.009 413.503 344.183 414.464 347.245 414.464Z" fill="#2F2E41"/>
<path d="M392.021 354.962C396.249 353.902 400.631 353.603 404.964 354.078C408.424 354.459 411.989 355.421 414.515 357.816C417.59 360.73 418.578 365.236 418.661 369.471C418.796 377.905 415.998 386.125 410.743 392.726C409.46 394.396 407.935 395.864 406.217 397.082C404.364 398.241 402.389 399.193 400.328 399.92L354.612 417.945C342.585 422.687 330.516 427.443 317.971 430.569C317.628 430.735 317.255 430.83 316.875 430.849C316.495 430.869 316.114 430.812 315.756 430.682C315.398 430.552 315.07 430.352 314.79 430.094C314.511 429.835 314.286 429.523 314.128 429.176C310.123 423.457 306.763 417.312 304.109 410.854C303.983 410.701 303.896 410.519 303.856 410.325C303.815 410.131 303.822 409.93 303.875 409.739C303.929 409.548 304.028 409.373 304.163 409.228C304.299 409.083 304.467 408.973 304.655 408.908L336.99 390.335C339.306 389.005 341.648 387.655 343.571 385.802C344.969 384.448 346.113 382.856 346.95 381.1C347.62 379.7 347.683 376.398 348.539 375.363C349.377 374.35 352.245 374.27 353.569 373.871C355.437 373.299 357.266 372.608 359.045 371.802C366.278 368.567 372.719 363.867 379.653 360.08C383.542 357.857 387.698 356.137 392.021 354.962Z" fill="#2F2E41"/>
<path opacity="0.1" d="M373.69 368.832C368.134 373.003 360.941 376.837 355.435 381.118C353.556 382.579 322.231 400.184 321.788 402.522C326.925 403.387 359.646 380.504 364.328 378.221C369.009 375.937 373.159 372.717 377.272 369.521C378.32 368.707 382.761 366.258 379.753 365.348C378.058 364.835 374.941 367.998 373.69 368.832Z" fill="black"/>
<path d="M343.215 175.233L318.482 162.282L284.326 167.58L277.259 198.781L294.851 198.105L299.765 186.642V197.916L307.882 197.603L312.593 179.355L315.537 198.781L344.393 198.192L343.215 175.233Z" fill="#2F2E41"/>
<path d="M337.694 239.237H284.471V303.45H337.694V239.237Z" fill="#3F3D56"/>
<path d="M259.204 350.921C260.426 352.744 261.858 354.528 263.821 355.512C265.072 356.083 266.438 356.361 267.813 356.324C269.189 356.288 270.538 355.937 271.757 355.299C274.192 353.994 276.185 351.996 277.484 349.559C280.172 344.814 280.729 339.136 280.394 333.693C280.058 328.25 278.896 322.891 278.381 317.462C278.007 313.516 277.977 309.546 277.947 305.582C277.854 304.749 278.029 303.907 278.446 303.18C279.041 302.367 280.131 302.143 281.097 301.856C286.523 300.245 290.124 295.161 292.705 290.127C294.429 286.765 295.928 283.09 295.596 279.327C295.263 275.564 292.557 271.773 288.798 271.389C285.699 271.073 282.837 273.041 280.601 275.21C274.961 280.716 271.337 287.957 270.31 295.77C269.819 299.597 269.959 303.527 268.918 307.241C266.696 315.172 259.741 320.035 256.275 327.172C252.456 335.035 254.564 343.963 259.204 350.921Z" fill="#FFB8B8"/>
<path d="M361.548 320.621C360.757 322.46 359.606 324.122 358.161 325.51C356.717 326.897 355.01 327.981 353.14 328.697C350.815 329.631 348.251 329.788 345.83 329.145C344.629 328.812 343.522 328.207 342.593 327.376C341.664 326.546 340.94 325.513 340.475 324.357C340.105 323.193 339.902 321.982 339.872 320.761C339.524 315.412 339.659 309.901 341.602 304.906C342.352 302.979 343.362 301.152 343.954 299.171C344.535 296.883 344.833 294.533 344.84 292.172L345.478 277.579C345.584 276.52 345.511 275.45 345.262 274.415C344.624 272.303 342.65 270.931 340.839 269.672C336.464 266.631 332.141 263.082 330.022 258.195C329.293 256.724 329.033 255.065 329.274 253.442C329.872 250.544 332.797 248.668 335.689 248.036C337.581 247.622 339.537 247.596 341.439 247.958C343.341 248.321 345.151 249.064 346.758 250.144C348.365 251.224 349.737 252.618 350.791 254.242C351.845 255.866 352.559 257.687 352.89 259.594C353.176 261.241 353.172 262.923 353.34 264.586C353.695 268.114 354.815 271.515 355.516 274.991C357.243 283.552 356.348 292.402 358.055 300.962C359.483 308.119 364.865 312.79 361.548 320.621Z" fill="#FFB8B8"/>
<path d="M32.1977 409.873L30.9742 409.849C31.4474 396.249 32.8989 382.702 35.3175 369.311C40.6083 340.64 49.406 321.811 61.4662 313.346L62.1688 314.347C33.996 334.121 32.212 409.117 32.1977 409.873Z" fill="#2F2E41"/>
<path d="M47.4918 409.58L46.2683 409.556C46.2946 408.202 47.0593 376.279 59.6309 367.456L60.3335 368.457C48.2691 376.924 47.4978 409.254 47.4918 409.58Z" fill="#2F2E41"/>
<path d="M69.1294 314.458C72.5081 314.458 75.2471 311.72 75.2471 308.343C75.2471 304.965 72.5081 302.227 69.1294 302.227C65.7507 302.227 63.0118 304.965 63.0118 308.343C63.0118 311.72 65.7507 314.458 69.1294 314.458Z" fill="#00ADB5"/>
<path d="M66.0999 367.052C69.4785 367.052 72.2175 364.314 72.2175 360.936C72.2175 357.559 69.4785 354.821 66.0999 354.821C62.7212 354.821 59.9822 357.559 59.9822 360.936C59.9822 364.314 62.7212 367.052 66.0999 367.052Z" fill="#00ADB5"/>
<path d="M44.6401 318.124C45.7899 325.465 42.7933 332.031 42.7933 332.031C42.7933 332.031 37.9326 326.695 36.7829 319.354C35.6332 312.013 38.6298 305.447 38.6298 305.447C38.6298 305.447 43.4904 310.783 44.6401 318.124Z" fill="#2F2E41"/>
<path d="M64.6371 335.953C57.6061 338.364 50.6162 336.559 50.6162 336.559C50.6162 336.559 55.0257 330.844 62.0567 328.433C69.0877 326.022 76.0776 327.828 76.0776 327.828C76.0776 327.828 71.6681 333.543 64.6371 335.953Z" fill="#2F2E41"/>
<path d="M64.8629 382.53C61.6807 383.529 58.2919 383.675 55.0354 382.954C57.1031 380.323 59.8879 378.345 63.0543 377.259C66.2207 376.173 69.6336 376.026 72.8818 376.835C70.7538 379.402 67.9886 381.366 64.8629 382.53Z" fill="#2F2E41"/>
</g>
<defs>
<clipPath id="clip0">
<rect width="624" height="449" fill="white"/>
</clipPath>
</defs>
</svg>
