<svg width="466" height="405" viewBox="0 0 466 405" fill="none" xmlns="http://www.w3.org/2000/svg">
<g clip-path="url(#clip0)">
<path d="M41.3583 346.54C59.3349 346.54 73.9079 344.278 73.9079 341.489C73.9079 338.699 59.3349 336.438 41.3583 336.438C23.3816 336.438 8.80862 338.699 8.80862 341.489C8.80862 344.278 23.3816 346.54 41.3583 346.54Z" fill="#3F3D56"/>
<path d="M272.192 363.033C363.938 363.033 438.313 288.447 438.313 196.441C438.313 104.434 363.938 29.8479 272.192 29.8479C180.445 29.8479 106.07 104.434 106.07 196.441C106.07 288.447 180.445 363.033 272.192 363.033Z" fill="#EEEEEE"/>
<path d="M283.959 365.116C282.038 365.116 280.098 365.085 278.194 365.025L278.237 363.639C280.972 363.724 283.762 363.748 286.509 363.71L286.528 365.098C285.673 365.11 284.816 365.115 283.959 365.116ZM294.857 364.794L294.776 363.408C297.514 363.246 300.288 363.018 303.019 362.732L303.164 364.112C300.411 364.401 297.617 364.631 294.857 364.794H294.857ZM269.872 364.577C267.111 364.365 264.321 364.087 261.579 363.75L261.748 362.372C264.469 362.707 267.238 362.983 269.978 363.193L269.872 364.577ZM311.43 363.051L311.222 361.679C313.943 361.265 316.685 360.784 319.369 360.249L319.639 361.61C316.933 362.149 314.172 362.634 311.43 363.051H311.43ZM253.332 362.543C250.605 362.079 247.851 361.547 245.149 360.958L245.442 359.601C248.124 360.186 250.856 360.714 253.563 361.174L253.332 362.543ZM327.774 359.793L327.442 358.445C330.112 357.783 332.798 357.051 335.424 356.27L335.817 357.601C333.171 358.388 330.465 359.126 327.774 359.793ZM237.047 358.997C234.371 358.283 231.679 357.498 229.044 356.663L229.461 355.339C232.076 356.168 234.748 356.947 237.403 357.655L237.047 358.997ZM343.751 355.04L343.297 353.729C345.888 352.825 348.495 351.848 351.045 350.825L351.559 352.114C348.99 353.145 346.363 354.129 343.751 355.04H343.751ZM221.136 353.952C218.537 352.995 215.922 351.961 213.364 350.88L213.902 349.601C216.44 350.673 219.035 351.699 221.614 352.65L221.136 353.952ZM359.207 348.838L358.633 347.574C361.122 346.44 363.624 345.23 366.069 343.976L366.699 345.213C364.235 346.476 361.714 347.695 359.207 348.838H359.207ZM205.745 347.454C203.247 346.26 200.739 344.99 198.293 343.679L198.945 342.455C201.373 343.756 203.861 345.016 206.34 346.201L205.745 347.454ZM374.018 341.245L373.333 340.04C375.719 338.674 378.102 337.238 380.413 335.772L381.153 336.945C378.824 338.423 376.424 339.87 374.018 341.245ZM191.024 339.567C188.648 338.149 186.269 336.655 183.953 335.125L184.715 333.966C187.013 335.484 189.374 336.967 191.732 338.374L191.024 339.567ZM388.085 332.32L387.293 331.183C389.541 329.608 391.783 327.959 393.959 326.282L394.803 327.383C392.611 329.073 390.35 330.734 388.085 332.32ZM177.093 330.365C174.859 328.738 172.627 327.033 170.459 325.297L171.323 324.212C173.474 325.935 175.689 327.627 177.906 329.242L177.093 330.365ZM401.29 322.143L400.398 321.081C402.493 319.309 404.577 317.462 406.595 315.591L407.534 316.61C405.502 318.495 403.401 320.357 401.29 322.143ZM164.063 319.932C161.982 318.104 159.915 316.203 157.919 314.282L158.877 313.28C160.858 315.187 162.91 317.074 164.975 318.888L164.063 319.932ZM413.523 310.796L412.537 309.821C414.468 307.859 416.379 305.828 418.214 303.786L419.243 304.714C417.393 306.773 415.469 308.819 413.523 310.796ZM152.039 308.358C150.129 306.345 148.244 304.264 146.434 302.174L147.48 301.264C149.276 303.339 151.147 305.404 153.042 307.401L152.039 308.358ZM424.681 298.377L423.611 297.496C425.356 295.366 427.073 293.169 428.718 290.964L429.827 291.795C428.17 294.018 426.439 296.232 424.681 298.377ZM141.118 295.741C139.403 293.569 137.715 291.326 136.1 289.074L137.223 288.264C138.826 290.497 140.501 292.723 142.203 294.88L141.118 295.741ZM434.668 284.984L433.523 284.205C435.066 281.925 436.579 279.579 438.016 277.23L439.197 277.957C437.747 280.323 436.223 282.688 434.668 284.984ZM131.392 282.187C129.883 279.868 128.407 277.482 127.003 275.093L128.196 274.388C129.589 276.759 131.054 279.127 132.551 281.428L131.392 282.187ZM443.4 270.727L442.188 270.056C443.517 267.644 444.808 265.167 446.027 262.693L447.268 263.309C446.041 265.801 444.739 268.297 443.4 270.727ZM122.944 267.808C121.653 265.361 120.401 262.85 119.223 260.346L120.475 259.753C121.644 262.238 122.886 264.73 124.167 267.158L122.944 267.808ZM450.792 255.719L449.524 255.161C450.628 252.635 451.687 250.048 452.673 247.472L453.965 247.969C452.972 250.566 451.904 253.173 450.792 255.719ZM115.849 252.723C114.787 250.169 113.771 247.556 112.828 244.955L114.129 244.481C115.065 247.062 116.073 249.654 117.126 252.189L115.849 252.723ZM456.779 240.079L455.465 239.642C456.329 237.032 457.144 234.364 457.887 231.711L459.22 232.087C458.471 234.76 457.649 237.449 456.779 240.079V240.079ZM110.161 237.037C109.338 234.391 108.564 231.688 107.861 229.003L109.2 228.65C109.897 231.315 110.666 233.998 111.483 236.623L110.161 237.037ZM461.291 223.99L459.942 223.676C460.562 221 461.128 218.268 461.627 215.556L462.988 215.807C462.486 218.54 461.915 221.293 461.291 223.99V223.99ZM105.933 220.871C105.356 218.159 104.834 215.397 104.381 212.659L105.746 212.431C106.196 215.149 106.714 217.89 107.287 220.581L105.933 220.871ZM464.307 207.555L462.935 207.366C463.308 204.647 463.622 201.875 463.87 199.126L465.249 199.25C464.999 202.021 464.682 204.815 464.307 207.555V207.555ZM103.205 204.385C102.879 201.637 102.611 198.838 102.408 196.066L103.789 195.965C103.99 198.716 104.256 201.493 104.58 204.221L103.205 204.385ZM465.813 190.912L464.43 190.85C464.553 188.099 464.616 185.309 464.616 182.558H466C466 185.33 465.937 188.141 465.813 190.913V190.912ZM101.989 187.718C101.942 186.016 101.918 184.28 101.917 182.558C101.917 181.489 101.926 180.423 101.945 179.359L103.329 179.383C103.311 180.439 103.302 181.498 103.302 182.558C103.302 184.267 103.326 185.99 103.373 187.68L101.989 187.718ZM464.605 180.621C464.577 177.869 464.485 175.079 464.333 172.329L465.715 172.251C465.868 175.023 465.961 177.833 465.99 180.606L464.605 180.621ZM103.657 171.095L102.276 171.009C102.449 168.235 102.687 165.433 102.984 162.681L104.36 162.831C104.065 165.562 103.829 168.342 103.657 171.095ZM463.686 164.06C463.409 161.324 463.065 158.555 462.664 155.829L464.033 155.627C464.437 158.372 464.784 161.163 465.063 163.92L463.686 164.06ZM105.438 154.608L104.07 154.395C104.494 151.649 104.987 148.881 105.535 146.167L106.892 146.442C106.348 149.136 105.859 151.883 105.438 154.608ZM461.266 147.655C460.738 144.947 460.143 142.221 459.495 139.553L460.84 139.225C461.493 141.914 462.093 144.661 462.625 147.389L461.266 147.655ZM108.717 138.353L107.374 138.015C108.047 135.327 108.791 132.616 109.588 129.957L110.913 130.356C110.123 132.995 109.384 135.685 108.717 138.353ZM457.354 131.541C456.582 128.898 455.738 126.239 454.847 123.637L456.155 123.186C457.054 125.807 457.905 128.487 458.683 131.151L457.354 131.541ZM113.483 122.448L112.177 121.988C113.097 119.363 114.09 116.726 115.129 114.15L116.413 114.671C115.381 117.227 114.396 119.844 113.483 122.448H113.483ZM451.978 115.857C450.968 113.302 449.887 110.738 448.763 108.236L450.026 107.666C451.158 110.188 452.248 112.771 453.265 115.346L451.978 115.857ZM119.696 107.04L118.438 106.46C119.594 103.935 120.825 101.403 122.096 98.9344L123.326 99.5709C122.065 102.021 120.843 104.534 119.696 107.04ZM445.203 100.768C443.964 98.3172 442.651 95.8613 441.301 93.4694L442.506 92.7855C443.867 95.196 445.189 97.6705 446.437 100.14L445.203 100.768ZM127.294 92.2791L126.094 91.5863C127.475 89.1816 128.932 86.7745 130.423 84.4324L131.59 85.1795C130.11 87.5038 128.664 89.8927 127.294 92.2791ZM437.07 86.3545C435.607 84.0193 434.076 81.6928 432.518 79.4396L433.654 78.6485C435.225 80.9191 436.769 83.2631 438.242 85.6163L437.07 86.3545ZM136.204 78.2862L135.073 77.4863C136.669 75.2165 138.337 72.9541 140.033 70.7619L141.127 71.6126C139.444 73.7886 137.788 76.0337 136.204 78.2862ZM427.653 72.7385C425.985 70.5473 424.248 68.369 422.488 66.2642L423.55 65.3725C425.322 67.4935 427.073 69.6881 428.754 71.896L427.653 72.7385ZM146.347 65.1732L145.293 64.273C147.084 62.1635 148.951 60.0638 150.841 58.0322L151.853 58.9792C149.977 60.9955 148.125 63.0796 146.347 65.1732ZM417.035 60.0309C415.175 58.001 413.246 55.9891 411.302 54.0518L412.278 53.0668C414.237 55.0194 416.18 57.0463 418.054 59.0914L417.035 60.0309ZM157.633 53.0451L156.665 52.0527C158.644 50.1107 160.693 48.1906 162.753 46.3461L163.675 47.3819C161.63 49.2121 159.597 51.1176 157.633 53.0451ZM405.304 48.3391C403.266 46.4854 401.162 44.6572 399.051 42.9053L399.933 41.8356C402.061 43.6008 404.181 45.4429 406.235 47.3107L405.304 48.3391ZM169.966 42.0003L169.092 40.9239C171.233 39.1753 173.446 37.4508 175.669 35.7982L176.494 36.9133C174.287 38.5537 172.091 40.265 169.966 42.0003ZM392.556 37.7613C390.357 36.1008 388.095 34.4716 385.832 32.9189L386.613 31.7733C388.894 33.3375 391.173 34.979 393.389 36.6523L392.556 37.7613ZM183.243 32.1316L182.471 30.9799C184.762 29.4337 187.121 27.9196 189.483 26.4788L190.202 27.6651C187.859 29.0947 185.518 30.5976 183.243 32.1316ZM378.892 28.3894C376.553 26.9374 374.151 25.5221 371.752 24.1819L372.426 22.9692C374.843 24.3195 377.263 25.7461 379.621 27.2086L378.892 28.3894ZM197.355 23.5233L196.691 22.3052C199.115 20.9749 201.601 19.6842 204.079 18.4685L204.687 19.7158C202.228 20.922 199.761 22.2029 197.355 23.5233L197.355 23.5233ZM364.425 20.3069C361.962 19.0762 359.439 17.8872 356.925 16.7731L357.485 15.5035C360.018 16.626 362.561 17.8242 365.043 19.0643L364.425 20.3069ZM212.183 16.2502L211.633 14.9765C214.166 13.8753 216.758 12.8191 219.335 11.8372L219.827 13.1354C217.269 14.1095 214.697 15.1574 212.183 16.2502ZM349.269 13.5885C346.706 12.5917 344.082 11.6407 341.471 10.7621L341.912 9.44573C344.543 10.3314 347.186 11.2895 349.769 12.2945L349.269 13.5885ZM227.624 10.37L227.193 9.05088C229.824 8.18592 232.508 7.37146 235.171 6.63089L235.541 7.96832C232.898 8.70347 230.235 9.51149 227.624 10.37ZM333.571 8.3059C330.93 7.5511 328.237 6.84815 325.567 6.21671L325.884 4.86572C328.576 5.5019 331.289 6.21027 333.95 6.9705L333.571 8.3059ZM243.559 5.93506L243.251 4.5817C245.948 3.9638 248.696 3.40085 251.417 2.90872L251.663 4.27462C248.962 4.76337 246.236 5.32193 243.559 5.93506ZM317.475 4.50035C314.779 3.99297 312.034 3.54153 309.313 3.15851L309.505 1.7838C312.246 2.16984 315.014 2.62469 317.73 3.1358L317.475 4.50035ZM259.834 2.98972L259.651 1.61365C262.391 1.24693 265.178 0.938497 267.934 0.697857L268.054 2.0807C265.319 2.31999 262.554 2.62571 259.834 2.98972ZM301.099 2.19323C298.372 1.93564 295.596 1.73702 292.849 1.60382L292.916 0.216919C295.684 0.351473 298.481 0.551465 301.228 0.811065L301.099 2.19323ZM276.309 1.54824L276.251 0.161333C278.795 0.0549048 281.388 0.000676053 283.959 0L284.585 0.00099365L284.581 1.38927L283.959 1.38825C281.408 1.38894 278.834 1.44283 276.309 1.54824Z" fill="#3F3D56"/>
<path d="M60.1872 314.534C56.0322 329.937 41.8005 339.476 41.8005 339.476C41.8005 339.476 34.3053 324.042 38.4603 308.639C42.6153 293.237 56.847 283.697 56.847 283.697C56.847 283.697 64.3422 299.131 60.1872 314.534Z" fill="#00ADB5"/>
<path d="M22.3885 314.534C26.5435 329.937 40.7752 339.476 40.7752 339.476C40.7752 339.476 48.2704 324.042 44.1154 308.639C39.9604 293.237 25.7287 283.697 25.7287 283.697C25.7287 283.697 18.2335 299.131 22.3885 314.534Z" fill="#00ADB5"/>
<path d="M28.4939 311.223C39.8952 322.354 41.2878 339.463 41.2878 339.463C41.2878 339.463 24.1952 338.528 12.7939 327.397C1.39259 316.267 7.62939e-06 299.157 7.62939e-06 299.157C7.62939e-06 299.157 17.0926 300.093 28.4939 311.223Z" fill="#3F3D56"/>
<path d="M54.0817 311.223C42.6804 322.354 41.2878 339.463 41.2878 339.463C41.2878 339.463 58.3804 338.528 69.7817 327.397C81.1831 316.267 82.5756 299.157 82.5756 299.157C82.5756 299.157 65.4831 300.093 54.0817 311.223Z" fill="#3F3D56"/>
<path d="M411.165 405C434.432 405 453.294 402.073 453.294 398.462C453.294 394.852 434.432 391.925 411.165 391.925C387.898 391.925 369.036 394.852 369.036 398.462C369.036 402.073 387.898 405 411.165 405Z" fill="#3F3D56"/>
<path d="M435.535 363.574C430.158 383.51 411.737 395.857 411.737 395.857C411.737 395.857 402.036 375.881 407.414 355.945C412.792 336.009 431.212 323.662 431.212 323.662C431.212 323.662 440.913 343.638 435.535 363.574Z" fill="#00ADB5"/>
<path d="M386.612 363.574C391.99 383.51 410.41 395.857 410.41 395.857C410.41 395.857 420.111 375.881 414.734 355.945C409.356 336.009 390.935 323.662 390.935 323.662C390.935 323.662 381.234 343.638 386.612 363.574Z" fill="#00ADB5"/>
<path d="M394.515 359.29C409.271 373.696 411.074 395.841 411.074 395.841C411.074 395.841 388.951 394.63 374.194 380.224C359.437 365.818 357.635 343.673 357.635 343.673C357.635 343.673 379.758 344.884 394.515 359.29Z" fill="#3F3D56"/>
<path d="M427.633 359.29C412.876 373.696 411.074 395.841 411.074 395.841C411.074 395.841 433.197 394.63 447.954 380.224C462.71 365.818 464.513 343.673 464.513 343.673C464.513 343.673 442.39 344.884 427.633 359.29Z" fill="#3F3D56"/>
<path d="M203.449 381.097C270.111 381.097 324.15 372.711 324.15 362.367C324.15 352.023 270.111 343.637 203.449 343.637C136.788 343.637 82.7486 352.023 82.7486 362.367C82.7486 372.711 136.788 381.097 203.449 381.097Z" fill="#3F3D56"/>
<path d="M261.063 123.25C265.619 123.25 269.313 119.546 269.313 114.977C269.313 110.408 265.619 106.704 261.063 106.704C256.507 106.704 252.813 110.408 252.813 114.977C252.813 119.546 256.507 123.25 261.063 123.25Z" fill="#2F2E41"/>
<path d="M252.224 111.431C252.224 109.391 252.977 107.423 254.336 105.904C255.696 104.386 257.567 103.426 259.59 103.207C258.438 103.081 257.272 103.2 256.169 103.555C255.066 103.911 254.049 104.496 253.187 105.272C252.324 106.048 251.634 106.997 251.161 108.059C250.689 109.12 250.445 110.269 250.445 111.431C250.445 112.594 250.689 113.743 251.161 114.804C251.634 115.865 252.324 116.815 253.187 117.591C254.049 118.367 255.066 118.952 256.169 119.307C257.272 119.663 258.438 119.782 259.59 119.656C257.567 119.437 255.696 118.476 254.336 116.958C252.977 115.44 252.224 113.472 252.224 111.431Z" fill="#2F2E41"/>
<path d="M252.813 114.977C252.813 114.977 251.532 120.886 259.539 123.25L252.813 114.977Z" fill="#00ADB5"/>
<path d="M264.475 171.171C279.771 171.171 292.17 158.737 292.17 143.398C292.17 128.059 279.771 115.624 264.475 115.624C249.179 115.624 236.78 128.059 236.78 143.398C236.78 158.737 249.179 171.171 264.475 171.171Z" fill="#2F2E41"/>
<path d="M237.734 230.031L236.743 250.909L284.329 266.816C284.329 266.816 281.851 240.47 283.338 237.984L237.734 230.031Z" fill="#A0616A"/>
<path d="M160.406 322.988L155.945 340.386H176.764V322.988H160.406Z" fill="#A0616A"/>
<path d="M268.467 327.613L277.885 330.941L282.842 318.46L274.415 311.803L268.467 327.613Z" fill="#A0616A"/>
<path d="M285.156 305.949C285.156 305.949 299.2 304.098 299.2 316.029C299.2 327.959 301.183 357.288 281.355 353.808C281.355 353.808 272.432 354.802 275.902 344.363C275.902 344.363 279.434 340.117 278.164 337.517C276.894 334.918 269.458 332.93 270.45 331.439C271.441 329.947 282.346 318.017 282.346 318.017L285.156 305.949Z" fill="#2F2E41"/>
<path d="M285.32 264.33L236.743 247.429L233.768 259.359C233.768 259.359 160.902 217.106 156.441 245.938C156.441 245.938 152.475 269.301 158.423 300.122L158.919 324.976C158.919 324.976 171.311 327.959 177.26 325.474L177.755 298.63C177.755 298.63 182.712 281.232 180.234 267.81C180.234 267.81 217.411 297.139 234.264 300.619C234.264 300.619 175.277 346.352 182.217 360.767C189.156 375.183 197.583 377.669 208.488 375.183C216.003 373.47 249.648 346.262 269.84 329.511C283.804 317.927 291.734 300.434 290.74 282.287C290.378 275.693 288.861 269.301 285.32 264.33Z" fill="#2F2E41"/>
<path d="M159.415 333.924C159.415 333.924 158.919 327.959 155.945 330.444C152.971 332.93 142.561 342.375 142.561 342.375C142.561 342.375 104.889 352.317 127.69 361.762C127.69 361.762 142.561 364.744 158.423 357.785C158.423 357.785 183.759 358.513 183.236 352.184C182.712 345.855 176.764 335.284 176.764 335.284C176.764 335.284 169.824 340.386 161.893 333.427L159.415 333.924Z" fill="#2F2E41"/>
<path d="M257.562 172.864C267.691 172.864 275.902 164.63 275.902 154.472C275.902 144.314 267.691 136.079 257.562 136.079C247.432 136.079 239.221 144.314 239.221 154.472C239.221 164.63 247.432 172.864 257.562 172.864Z" fill="#A0616A"/>
<path d="M272.432 155.466C272.432 155.466 275.407 170.379 280.859 173.859L250.622 209.65L239.221 198.714L247.648 183.801C247.648 183.801 257.066 178.333 254.092 170.876L272.432 155.466Z" fill="#A0616A"/>
<path d="M283.338 175.35C283.338 175.35 305.148 179.824 307.627 194.24C310.105 208.655 305.148 235.002 305.148 235.002L294.739 312.549C294.739 312.549 294.243 345.357 281.355 339.889C268.467 334.421 284.825 309.566 284.825 309.566L289.286 260.851C289.286 260.851 291.269 219.592 287.303 214.621L271.441 209.65C271.441 209.65 274.911 176.841 283.338 175.35Z" fill="#A0616A"/>
<path d="M247.648 183.801C247.648 183.801 232.777 183.304 223.359 195.234C213.941 207.164 191.139 216.112 191.139 216.112L134.134 238.481C134.134 238.481 123.725 220.089 117.281 226.551C110.837 233.013 129.177 249.418 137.604 247.429C146.031 245.441 197.087 230.031 197.087 230.031L237.734 211.638L247.648 183.801Z" fill="#A0616A"/>
<path d="M280.091 172.674C280.091 172.674 261.031 198.216 252.605 197.719C244.178 197.222 249.853 182.119 249.853 182.119L243.905 183.61C243.905 183.61 235.751 199.211 234.76 200.205C234.76 200.205 222.863 219.592 236.247 224.066L236.743 234.505C236.743 234.505 269.954 233.013 284.329 240.47L287.303 214.621C287.303 214.621 268.467 205.176 278.876 186.783C278.876 186.783 282.569 177.148 286.535 176.154L280.091 172.674Z" fill="#D0CDE1"/>
<path opacity="0.1" d="M285.073 309.318L209.232 364.993C209.232 364.993 285.568 319.757 285.073 309.318Z" fill="black"/>
<path d="M258.558 132.883C248.795 132.883 240.88 137.513 240.88 143.224C240.88 145.779 242.471 148.115 245.097 149.919L248.5 147.447L247.575 151.321C247.959 151.499 248.351 151.672 248.76 151.831L253.844 145.883V153.191C255.403 153.441 256.979 153.566 258.558 153.565C268.321 153.565 276.236 148.935 276.236 143.224C276.236 137.513 268.321 132.883 258.558 132.883Z" fill="#2F2E41"/>
<path d="M294.77 136.175C299.326 136.175 303.02 132.471 303.02 127.902C303.02 123.332 299.326 119.628 294.77 119.628C290.214 119.628 286.52 123.332 286.52 127.902C286.52 132.471 290.214 136.175 294.77 136.175Z" fill="#2F2E41"/>
<path d="M285.931 124.356C285.931 122.315 286.684 120.347 288.043 118.829C289.403 117.311 291.274 116.35 293.297 116.132C292.145 116.006 290.979 116.124 289.876 116.48C288.773 116.836 287.756 117.421 286.894 118.197C286.031 118.973 285.341 119.922 284.868 120.983C284.396 122.045 284.152 123.194 284.152 124.356C284.152 125.518 284.396 126.667 284.868 127.729C285.341 128.79 286.031 129.739 286.894 130.515C287.756 131.291 288.773 131.876 289.876 132.232C290.979 132.588 292.145 132.706 293.297 132.58C291.274 132.362 289.403 131.401 288.043 129.883C286.684 128.365 285.931 126.396 285.931 124.356Z" fill="#2F2E41"/>
<path d="M286.52 127.902C286.52 127.902 285.239 133.811 293.246 136.175L286.52 127.902Z" fill="#00ADB5"/>
<path d="M276.646 156.212C277.437 156.212 278.078 154.765 278.078 152.981C278.078 151.196 277.437 149.749 276.646 149.749C275.855 149.749 275.214 151.196 275.214 152.981C275.214 154.765 275.855 156.212 276.646 156.212Z" fill="#A0616A"/>
<path d="M118.599 165.481L96.8633 170.762L96.7925 170.778L94.4298 172.924L93.7497 173.54L92.2919 173.275L89.7111 172.807L91.5095 166.72L91.8467 155.11L90.6103 148.008L97.4669 143.274C97.4669 143.274 110.843 142.485 118.599 165.481Z" fill="#D0CDE1"/>
<path opacity="0.1" d="M96.8633 170.762C96.5688 171.392 97.1859 170.976 96.8487 171.624L93.7014 172.638L92.2918 173.275L89.7111 172.807L91.5095 166.72L91.8467 155.11L90.6103 148.009L97.4669 143.274C97.4669 143.274 104.826 153.726 96.8633 170.762Z" fill="black"/>
<path d="M144.227 148.798C144.227 148.798 115.676 162.099 104.099 164.128C92.5212 166.157 93.5328 177.767 93.5328 177.767L158.39 167.622C158.39 167.622 156.142 157.139 144.227 148.798Z" fill="#D0CDE1"/>
<path d="M89.149 146.543C89.149 146.543 94.0948 158.604 88.587 173.597L94.994 176.527L97.4669 173.597L97.5231 173.315L90.7227 172.695C90.7227 172.695 96.3429 157.59 91.7343 147.107C91.7343 147.107 90.7227 144.852 89.149 146.543Z" fill="#00ADB5"/>
<path d="M183.456 235.932C158.165 230.296 134.616 241.963 134.616 241.963L134.552 241.905L125.174 233.509L88.5308 173.54L97.4669 173.597C122.308 158.717 157.266 160.746 157.266 160.746C172.328 177.88 183.456 235.932 183.456 235.932Z" fill="#00ADB5"/>
<path opacity="0.1" d="M134.552 241.905L125.174 233.509L88.5308 173.54L97.4669 173.597C97.4669 173.597 133.083 220.77 134.552 241.905Z" fill="black"/>
<path d="M138.668 195.115C146.324 192.76 151.321 186.894 149.828 182.014C148.335 177.133 140.919 175.086 133.262 177.441C125.606 179.796 120.61 185.661 122.103 190.542C123.595 195.422 131.012 197.47 138.668 195.115Z" fill="#D0CDE1"/>
</g>
<defs>
<clipPath id="clip0">
<rect width="466" height="405" fill="white"/>
</clipPath>
</defs>
</svg>
