<svg width="12" height="12" viewBox="0 0 12 12" fill="none" xmlns="http://www.w3.org/2000/svg">
<path d="M0.268123 2.42296C0.66806 1.27884 1.61062 0.329152 2.80125 0.19809C3.47625 0.13359 4.15518 0.178402 4.77393 0.490402C5.26031 0.735652 5.65012 1.14665 6.00018 1.57096C6.43143 1.05459 6.9075 0.59334 7.53656 0.35334C7.91531 0.209152 8.32631 0.16734 8.72756 0.169777C9.07481 0.17259 9.42543 0.207465 9.7575 0.320527C10.3657 0.527527 10.8744 0.957465 11.2545 1.48715C11.3656 1.64333 11.4632 1.80875 11.5461 1.98159C11.6301 2.15428 11.7017 2.3339 11.7628 2.51615C12.3004 4.30978 11.976 6.51478 10.2214 7.52484C10.0444 7.64634 9.86062 7.76296 9.67406 7.8764C9.1155 8.21803 8.53218 8.53959 8.02237 8.93728C7.87781 9.07322 7.74975 9.2174 7.6455 9.37378C7.43718 9.68653 7.33087 10.0473 7.38225 10.4787C7.33106 10.9079 7.7145 11.2148 7.7145 11.6752C7.63743 12.2883 5.067 10.894 4.84856 10.7508C3.03619 9.68109 1.1955 8.30015 0.476248 6.18515C0.358294 5.91311 0.260223 5.63288 0.18281 5.34665C-0.07444 4.39828 -0.0555029 3.3494 0.268684 2.42296" fill="#DF394C"/>
</svg>
