<svg width="1257" height="430" viewBox="0 0 1257 430" fill="none" xmlns="http://www.w3.org/2000/svg">
<path fill-rule="evenodd" clip-rule="evenodd" d="M1257 0.00012207L1222.38 33.6693C1186.71 67.3384 1117.46 134.677 1047.17 185.18C976.873 235.684 907.628 269.353 837.333 319.857C767.039 370.361 697.794 437.699 627.5 429.282C557.206 420.864 487.961 336.692 417.667 252.519C347.373 168.346 278.128 84.1729 207.833 92.5902C137.539 101.007 68.2942 202.015 32.6225 252.519L-1.99999 303.022L-1.99996 1.2005e-05L32.6225 1.50318e-05C68.2942 1.81504e-05 137.539 2.42039e-05 207.833 3.03493e-05C278.128 3.64946e-05 347.373 4.25482e-05 417.667 4.86935e-05C487.961 5.48388e-05 557.206 6.08924e-05 627.5 6.70377e-05C697.794 7.3183e-05 767.039 7.92366e-05 837.333 8.53819e-05C907.628 9.15272e-05 976.873 9.75808e-05 1047.17 0.000103726C1117.46 0.000109871 1186.71 0.000115925 1222.38 0.000119044L1257 0.00012207Z" fill="#10C4CC" fill-opacity="0.05"/>
</svg>
