<svg id="b5ecd551-b8d9-47b1-bd91-255ff33e7450" data-name="Layer 1" xmlns="http://www.w3.org/2000/svg" width="1057.9767" height="682.62379" viewBox="0 0 1057.9767 682.62379"><title>team_chat</title><path d="M438.87325,480.68068c.894,2.08315,1.84014,4.18894,2.81131,6.25818l-2.08144.9769c-.98214-2.09262-1.93829-4.221-2.84273-6.32777Z" transform="translate(-71.01165 -108.6881)" fill="#e6e6e6"/><path d="M810.09969,314.02841c1.31318,2.798,2.57432,5.64886,3.7492,8.47451l-2.1233.88244c-1.75874-4.23086-3.704-8.49448-5.75619-12.61863l2.0595-1.02364Q809.08511,311.86668,810.09969,314.02841Zm-8.73847-16.62374-1.98459,1.16212c-2.33-3.98137-4.82261-7.92359-7.40827-11.72047l1.90047-1.29378C796.48307,289.39181,799.00424,293.37893,801.36122,297.40467ZM818.794,335.62374c1.49443,4.41816,2.85227,8.9364,4.036,13.42971l-2.22338.58464c-1.17041-4.44126-2.513-8.90838-3.99154-13.27694Zm-33.213-61.38259-1.80822,1.42163c-2.84626-3.61751-5.85606-7.18183-8.94549-10.59344l1.70377-1.54376C779.65669,266.97726,782.70165,270.58213,785.581,274.24115Zm40.35165,88.489c.87288,4.571,1.59681,9.23419,2.15245,13.85856l-2.282.27481c-.55038-4.57352-1.2666-9.1833-2.12919-13.70329ZM766.76384,253.46167l-1.59311,1.658c-3.31744-3.18925-6.78645-6.30242-10.30875-9.25166l1.47717-1.76235C759.90079,247.08855,763.40812,250.23581,766.76384,253.46167Zm62.51459,137.122c.23454,4.6616.30959,9.385.22211,14.03964l-2.2997-.043c.08641-4.6014.01256-9.27206-.21952-13.88087ZM745.29249,235.48558l-1.352,1.85987c-3.72476-2.70416-7.589-5.31435-11.485-7.75457l1.22064-1.94952C737.61664,230.11031,741.52432,232.74971,745.29249,235.48558Zm83.46466,183.15493c-.40722,4.64716-.97964,9.33342-1.703,13.93055l-2.27129-.35776c.71455-4.54461,1.28166-9.17876,1.68458-13.77431ZM721.54935,220.60965l-1.085,2.02722c-4.0594-2.17256-8.24416-4.23172-12.43967-6.12088l.94306-2.097C713.212,216.32991,717.44487,218.41236,721.54935,220.60965ZM824.40209,446.35047c-1.03532,4.53765-2.241,9.1007-3.58435,13.5634l-2.20143-.66339c1.32751-4.41186,2.5199-8.924,3.54392-13.41172ZM695.9914,209.09937l-.79886,2.15587c-4.31771-1.5999-8.74556-3.07245-13.16205-4.37546l.65144-2.20573C687.14776,205.99235,691.62543,207.4812,695.9914,209.09937ZM816.31768,473.19889c-1.64385,4.3588-3.45891,8.71486-5.39316,12.94642l-2.0907-.956c1.913-4.18437,3.70649-8.49125,5.33231-12.80128ZM669.09652,201.167l-.4997,2.24365c-4.49036-.998-9.07917-1.85425-13.63742-2.545l.34472-2.27262C659.914,199.29058,664.55473,200.1572,669.09652,201.167ZM804.66388,498.69149c-2.21987,4.09338-4.60983,8.15994-7.10129,12.08686l-1.94222-1.23152c2.46375-3.88291,4.82672-7.90393,7.02311-11.95218ZM641.36256,196.96954l-.18748,2.29059c-4.59419-.37627-9.258-.59707-13.86464-.65623l.03-2.29852C631.99923,196.36484,636.71626,196.588,641.36256,196.96954ZM789.65347,522.34892c-2.756,3.74909-5.67752,7.44937-8.68267,10.9979l-1.75409-1.486c2.97051-3.50871,5.85961-7.1671,8.58466-10.87377ZM613.30281,196.60715l.12982,2.29545c-4.60345.25934-9.25667.68217-13.83081,1.25764L599.315,197.879C603.9415,197.29626,608.64809,196.86822,613.30281,196.60715ZM771.55713,543.71734c-3.2473,3.33911-6.65251,6.606-10.12,9.71111l-1.53348-1.71356c3.42844-3.06943,6.79407-6.29912,10.00577-9.60044ZM585.46694,200.112l.44418,2.25706c-4.51865.88924-9.06209,1.94763-13.50451,3.14463l-.59778-2.21969C576.30181,202.08323,580.89677,201.01307,585.46694,200.112ZM750.67088,562.41536c-3.67406,2.85791-7.496,5.62526-11.35928,8.22408L738.028,568.7317c3.81983-2.56978,7.59834-5.30556,11.23041-8.13137Zm-192.268-355.00968.74859,2.1737c-4.34592,1.49773-8.70164,3.16749-12.94745,4.96177l-.89464-2.11757C549.60188,210.60861,554.00728,208.9205,558.40285,207.40568ZM727.41543,578.06444c-4.02543,2.32459-8.18865,4.54456-12.3741,6.59824l-1.01247-2.06474c4.13942-2.03022,8.25582-4.22573,12.23618-6.52483ZM533.6192,220.37075c-4.11568,2.0755-8.20784,4.31607-12.16243,6.6595l-1.17234-1.97731c3.99946-2.37069,8.13745-4.63649,12.29892-6.736Zm-23.84233,14.13306c-3.79517,2.61835-7.54259,5.39659-11.13792,8.25972L497.207,240.9651c3.63582-2.89577,7.42572-5.70636,11.26481-8.354Zm-21.67918,17.26753c-3.39095,3.107-6.717,6.37085-9.88448,9.70165l-1.66626-1.58427c3.2041-3.36906,6.56773-6.67038,9.99771-9.81184ZM469.019,271.83665c-2.93583,3.54824-5.78284,7.24083-8.4626,10.974L458.68816,281.47c2.71046-3.77609,5.59013-7.51005,8.55911-11.09865Zm-16.155,22.50549c-2.42474,3.91979-4.74169,7.96882-6.88721,12.03165l-2.03255-1.07254c2.16879-4.10972,4.512-8.20455,6.964-12.16937Zm-12.93771,24.509c-1.86686,4.20737-3.61263,8.534-5.18914,12.86059l-2.16018-.78692c1.59431-4.37586,3.35987-8.75148,5.247-13.00681ZM430.43684,344.898c-1.27873,4.4299-2.42073,8.95561-3.39322,13.45138l-2.247-.48573c.9833-4.54672,2.13763-9.12411,3.43115-13.60311Zm-5.86227,27.10274c-.66334,4.56522-1.17736,9.20547-1.52682,13.792l-2.29293-.174c.35379-4.63945.87312-9.3318,1.54479-13.94929Zm-2.10326,27.65892c-.03365,4.61074.094,9.27847.37863,13.875l-2.29475.14189c-.28785-4.64835-.41668-9.37011-.38372-14.03385Zm1.71445,27.6927c.60133,4.56449,1.37,9.16578,2.28452,13.67752l-2.25337.45732c-.92529-4.56374-1.70268-9.218-2.31076-13.83386Zm5.50741,27.16514c1.22283,4.434,2.616,8.88608,4.14178,13.2337l-2.17049.76073c-1.54268-4.39676-2.95163-8.89969-4.1883-13.383Z" transform="translate(-71.01165 -108.6881)" fill="#e6e6e6"/><path d="M701.066,588.41212l.86774,2.129c-2.14976.87625-4.32509,1.72049-6.46616,2.50957l-.79522-2.15679C696.78887,590.11321,698.94011,589.27842,701.066,588.41212Z" transform="translate(-71.01165 -108.6881)" fill="#e6e6e6"/><path d="M306.29929,184.56618c-11.60691-19.61209-34.57027-20.5261-34.57027-20.5261s-22.37648-2.86149-36.73085,27.008c-13.37942,27.8408-31.84472,54.72165-2.97276,61.239l5.21511-16.23177,3.22969,17.44021a112.96691,112.96691,0,0,0,12.35324.21112c30.91954-.99826,60.36573.29207,59.41761-10.80316C310.98068,228.15389,317.46748,203.43694,306.29929,184.56618Z" transform="translate(-71.01165 -108.6881)" fill="#2f2e41"/><polygon points="142.477 505.665 142.477 536.665 126.477 534.665 126.477 508.665 142.477 505.665" fill="#ffb8b8"/><polygon points="253.477 525.665 259.477 549.665 273.477 544.665 263.477 521.665 253.477 525.665" fill="#ffb8b8"/><polygon points="145.477 173.665 147.477 228.665 160.477 232.665 164.477 179.665 145.477 173.665" fill="#ffb8b8"/><path d="M220.48835,333.35346l-2,4-18,17s-13,11-8,18l13-6v-4l30-21Z" transform="translate(-71.01165 -108.6881)" fill="#ffb8b8"/><polygon points="222.477 240.665 222.477 263.665 145.477 251.665 154.477 234.665 222.477 240.665" fill="#ffb8b8"/><path d="M328.48835,277.35346s7,19,8,21,13,48,13,48l30,48s22,26,8,27-24-22-24-22l-30-39-28-74Z" transform="translate(-71.01165 -108.6881)" fill="#ffb8b8"/><circle cx="199.9767" cy="97.16535" r="29" fill="#ffb8b8"/><path d="M262.48835,225.35346s0,21-11,24,9,25,9,25l40-20s-17-6-12-29Z" transform="translate(-71.01165 -108.6881)" fill="#ffb8b8"/><path d="M255.98836,246.85347h0l-21.20779,6.99977a33.56827,33.56827,0,0,0-20.886,28.28148,23.96071,23.96071,0,0,0,1.59375,11.21875c6,14,13,17,13,17s1,6,0,7-3,2-2,5,2,2,1,5-5,10-5,10,4,2,1,4-4,6-4,6,68,3,75,10l12-49s28-11,27-22-7-21-14-24-23.98682-11.00876-23.98682-11.00876-2.239,7.43724-22.71368,5.64642A22.35514,22.35514,0,0,1,255.98836,246.85347Z" transform="translate(-71.01165 -108.6881)" fill="#3f3d56"/><path d="M295.48835,365.35346s-66-4-76-18l-28,27,3,17-1,222s-1,11,2,11,19,2,20,0-3-6,4-8,7,5,7-2-1-37-3-42,23-120,23-120,66,178,71,182,6,10,9,9,17-5,18-6-1-9,0-12,4,1,0-5-5-10-5-13-37-196-37-196,8-18-4-28Z" transform="translate(-71.01165 -108.6881)" fill="#2f2e41"/><path d="M215.48835,637.35346s-10-10-14-10h-10s-9,19-12,20-23,25-5,25,25-6,25-6l16-8Z" transform="translate(-71.01165 -108.6881)" fill="#2f2e41"/><path d="M328.83041,651.72168l-2.34206,20.63178s20,8,20,9,32,16,34,3-16-24-16-24-19.18947-22.71912-22.59474-21.85956-3.40526,6.85956-3.40526,6.85956Z" transform="translate(-71.01165 -108.6881)" fill="#2f2e41"/><polygon points="463.977 432.836 183.977 432.836 183.977 308.084 323.977 371.014 463.977 308.084 463.977 432.836" fill="#3f3d56"/><polygon points="183.977 308.084 463.977 308.084 324.254 380.163 183.977 308.084" fill="#6c63ff"/><circle cx="324.25393" cy="380.16273" r="11.64356" fill="#e6e6e6"/><circle cx="203.52785" cy="55.45131" r="16.60376" fill="#2f2e41"/><path d="M256.188,159.77a16.6044,16.6044,0,0,1,14.856-16.51042,16.60376,16.60376,0,1,0,0,33.02084A16.6044,16.6044,0,0,1,256.188,159.77Z" transform="translate(-71.01165 -108.6881)" fill="#2f2e41"/><polygon points="230.156 73.988 207.469 62.104 176.14 66.965 169.658 95.594 185.794 94.973 190.301 84.456 190.301 94.8 197.747 94.514 202.068 77.769 204.769 95.594 231.236 95.054 230.156 73.988" fill="#2f2e41"/><rect x="574.9767" y="399.16535" width="483" height="235" fill="#3f3d56"/><rect x="574.9767" y="399.16535" width="483" height="30" fill="#6c63ff"/><circle cx="644.9767" cy="516.16535" r="44" fill="#e6e6e6"/><rect x="760.9767" y="491.66535" width="240" height="7" fill="#e6e6e6"/><rect x="760.9767" y="512.66535" width="240" height="7" fill="#e6e6e6"/><rect x="760.9767" y="533.66535" width="145" height="7" fill="#e6e6e6"/><path d="M960.01985,299.28367s-6.53213,21.46274-2.79948,27.99488-6.53214,20.52957-23.32907,13.99744-17.73009-13.99744-17.73009-13.99744,6.53214-10.26479,8.39847-31.72753Z" transform="translate(-71.01165 -108.6881)" fill="#a0616a"/><path d="M1045.40423,509.71183s33.59385,16.79692,18.66325,39.19282c-8.67858,13.01787-25.23922,38.33176-37.58667,57.249a190.92859,190.92859,0,0,0-23.51629,51.2709l-2.35209,8.12543-9.33163,11.19795L971.68439,654.352s28.928-53.19026,28.928-63.45505,23.32906-42.92548,23.32906-42.92548l-23.32906-14.9306S1026.741,503.17969,1045.40423,509.71183Z" transform="translate(-71.01165 -108.6881)" fill="#a0616a"/><path d="M936.22421,567.5679s-.93316,26.12856-1.86633,36.39334c-.76986,8.46845,6.717,32.18011,4.12116,58.55934a247.95933,247.95933,0,0,0,.56556,51.278l3.71175,33.86966-27.99488,2.79948-9.33162-76.51933s-5.599-54.12342-2.79949-71.85351l-.93317-37.3265S922.22677,557.30312,936.22421,567.5679Z" transform="translate(-71.01165 -108.6881)" fill="#a0616a"/><path d="M986.14841,458.85447s65.32137,41.99231,66.25454,55.05659c0,0-37.32651-3.73265-38.25967,28.928,0,0-22.3959-8.39847-27.99487-10.26479s-35.46018-21.46274-35.46018-21.46274-12.13111,9.33163-12.13111,24.26223.93316,41.05915,0,42.92547-22.39591-25.19539-40.126-1.86632L886.3,512.04473s-3.73265-39.19282,3.73265-41.99231L942.28977,450.456Z" transform="translate(-71.01165 -108.6881)" fill="#2f2e41"/><circle cx="875.47735" cy="174.26522" r="27.99488" fill="#a0616a"/><path d="M953.48772,331.94436s-31.57672,8.33979-35.85136-7.49464c0,0-38.80165,7.49464-45.33379,32.69s15.86377,85.851,15.86377,87.71728-18.66325,13.06427-10.26479,18.66325,15.86376-.93316,12.13111,6.53214-10.26478,9.33162-4.66581,11.19795,39.19283-27.06172,65.32138-19.59641,39.19283,1.86632,39.19283,1.86632L1001.597,362.26111a23.39069,23.39069,0,0,0-8.31622-20.75868c-5.848-4.81344-13.60734-10.01393-21.1298-11.42439-14.9306-2.79949-15.55088-4.332-15.55088-4.332Z" transform="translate(-71.01165 -108.6881)" fill="#d0cde1"/><path d="M983.34892,495.24781S974.95045,542.8391,963.7525,536.307s2.79949-41.05915,2.79949-41.05915Z" transform="translate(-71.01165 -108.6881)" fill="#a0616a"/><path d="M944.36637,501.4065s14.5518,46.08373,1.60254,45.46763-16.4972-37.70323-16.4972-37.70323Z" transform="translate(-71.01165 -108.6881)" fill="#a0616a"/><path d="M995.94661,663.68365s6.53214-7.4653,10.26479,2.79948,13.99744,23.32907,13.99744,23.32907,22.3959,25.19539,6.53214,26.12855-38.25967-22.3959-38.25967-22.3959l-26.12855-24.26223s8.66-21.09038,12.72847-21.27656S978.21652,673.01527,995.94661,663.68365Z" transform="translate(-71.01165 -108.6881)" fill="#2f2e41"/><path d="M935.29105,741.13614s6.57634,1.91976,6.08766-6.03884c0,0,23.77354,12.571,17.2414,21.9026q-.098.14-.19624.27994a88.09772,88.09772,0,0,1-36.42855,29.9192c-7.17607,3.17743-13.56077,5.292-14.69915,3.39471-2.79949-4.66581-2.79949-13.99743-.93316-17.73008s11.19795-10.26479,8.39846-15.86377.93316-20.52957,5.599-20.52957S935.29105,741.13614,935.29105,741.13614Z" transform="translate(-71.01165 -108.6881)" fill="#2f2e41"/><path d="M970.91976,259.232s-9.00566-19.51228-26.26652-15.00944-27.017,11.25708-27.76748,18.01133.37524,16.88563.37524,16.88563,1.87618-13.88374,13.88373-10.88185,30.76937.75047,30.76937.75047l3.00189,27.017s3.37712-4.87807,7.12948-1.87618S982.92732,265.23574,970.91976,259.232Z" transform="translate(-71.01165 -108.6881)" fill="#2f2e41"/><path d="M888.16634,356.20659s22.3959,60.65556,20.52957,68.12086,0,8.39847,2.79949,10.26479S921.76019,456.055,921.76019,456.055s4.66581,11.19795,8.39846,13.99744,3.73265,10.26479,3.73265,10.26479,9.33163,9.33162,7.4653,11.19795-1.86632,4.66581,1.86633,7.4653,7.4653,6.53213,5.599,7.4653-14.9306,11.198-18.66325,10.26479,1.86633-4.66582-2.79949-6.53214-7.4653-4.66582-5.599-5.599,7.4653-.93316,1.86632-2.79949-25.19538-13.99743-31.72752-28.928-37.82959-105.264-18.9148-117.95338C872.98419,354.89853,880.701,345.00864,888.16634,356.20659Z" transform="translate(-71.01165 -108.6881)" fill="#d0cde1"/><path d="M991.74738,345.9418l.379.1579a23.49827,23.49827,0,0,1,13.9605,16.89677c2.03768,9.753,4.04256,23.85964,2.45747,37.06876-2.79949,23.32906-4.66582,33.59385-8.39847,41.05915s-4.66581,4.66581-3.73265,10.26479,5.599.93316.93317,8.39846-7.4653,5.599-5.599,9.33163,4.66581,3.73265.93316,8.39846-3.73265,6.53214-4.66581,8.39846-3.73265,15.86376-3.73265,15.86376-14.9306-4.66581-23.32906-2.79948c0,0,7.4653-13.06428,5.599-15.86377s-4.66581-3.73265-1.86632-6.53213,7.4653-1.86633,2.79948-4.66582,3.73265-31.72752,3.73265-31.72752Z" transform="translate(-71.01165 -108.6881)" fill="#d0cde1"/><path d="M739.98835,647.12813c0,18.12716-10.77659,24.45728-24.06917,24.45728-.30948,0-.61729-.00335-.92342-.01171-.61561-.01339-1.22621-.04015-1.82844-.08364-11.99779-.84815-21.319-7.50447-21.319-24.36193,0-17.44463,22.28924-39.45785,23.97047-41.09225l.00335-.00167c.06357-.06356.097-.09535.097-.09535S739.98835,628.9993,739.98835,647.12813Z" transform="translate(-71.01165 -108.6881)" fill="#3f3d56"/><path d="M715.04092,668.8118l8.80429-12.30057-8.826,13.65057-.02341,1.4119c-.61561-.01339-1.22621-.04015-1.82844-.08364l.94851-18.13552-.00669-.14053.01673-.02676.08866-1.713-8.84778-13.68571,8.87455,12.401.02175.363.71765-13.70244L707.406,622.70933l7.66673,11.73347.7461-28.40692.00335-.097v.09535l-.1238,22.40133,7.5396-8.88124-7.57139,10.81-.19906,12.26879,7.04108-11.77362-7.0712,13.58032-.1104,6.82027,10.22119-16.38906-10.25967,18.76954Z" transform="translate(-71.01165 -108.6881)" fill="#f2f2f2"/><path d="M119.0745,599.46914c-.18431-.30118-4.53026-7.55776-6.037-22.62623-1.382-13.82453-.49334-37.12685,11.59155-69.63166,22.89447-61.5782-5.27616-111.26289-5.564-111.7578l1.38983-.80628c.07294.12549,7.34207,12.79313,11.63626,32.96442a143.813,143.813,0,0,1-5.95617,80.15967c-22.85526,61.4731-5.86362,90.57394-5.6895,90.861Z" transform="translate(-71.01165 -108.6881)" fill="#3f3d56"/><circle cx="39.11056" cy="272.70866" r="10.44094" fill="#6c63ff"/><circle cx="72.0397" cy="311.25984" r="10.44094" fill="#3f3d56"/><circle cx="49.55151" cy="336.96063" r="10.44094" fill="#6c63ff"/><circle cx="76.85859" cy="358.64567" r="10.44094" fill="#6c63ff"/><circle cx="41.52001" cy="392.37795" r="10.44094" fill="#3f3d56"/><path d="M125.38205,599.85346s-10.44094-25.70079,20.88189-44.97638Z" transform="translate(-71.01165 -108.6881)" fill="#3f3d56"/><path d="M112.54131,599.38726s-4.75177-27.33065-41.52966-27.09641Z" transform="translate(-71.01165 -108.6881)" fill="#3f3d56"/><rect x="450.9767" width="274" height="152.59843" fill="#3f3d56"/><rect x="501.31589" y="58.39855" width="172.66082" height="5.06104" fill="#fff"/><rect x="501.31589" y="78.64271" width="172.66082" height="5.06104" fill="#fff"/><rect x="501.31589" y="98.88686" width="172.66082" height="5.06104" fill="#fff"/><rect x="450.9767" y="0.16535" width="274" height="17" fill="#6c63ff"/><circle cx="462.16901" cy="9.16535" r="6.19231" fill="#e6e6e6"/><circle cx="478.9767" cy="9.16535" r="6.19231" fill="#e6e6e6"/><circle cx="495.7844" cy="9.16535" r="6.19231" fill="#e6e6e6"/><circle cx="589.9767" cy="414.16535" r="7" fill="#fff"/><circle cx="609.9767" cy="414.16535" r="7" fill="#fff"/><circle cx="629.9767" cy="414.16535" r="7" fill="#fff"/></svg>