<svg id="baf4e193-26a3-4e33-8217-1f962a842cc8" data-name="Layer 1" xmlns="http://www.w3.org/2000/svg" width="955.45721" height="755.52207" viewBox="0 0 955.45721 755.52207"><title>Booked</title><path d="M1035.56654,387.92918C993.93971,224.243,850.10591,106.08451,681.27615,101.34528c-89.25524-2.50549-183.17666,27.09649-251.55837,130.68464-122.23971,185.175,7.51191,313.13661,97.97131,373.94142A566.02666,566.02666,0,0,1,644.68464,711.12655c61.10238,72.50779,178.64943,162.60891,318.64265,21.43431C1064.79455,630.23733,1063.29412,496.96033,1035.56654,387.92918Z" transform="translate(-122.27139 -72.23896)" fill="#f2f2f2"/><path d="M511.57635,827.4174q43.8522-11.42184,84.32508-19.42446L585.5335,773.33085c3.60728-2.00268,19.22142,18.05548,19.22142,18.05548l-13.16148-100.2514c18.02789,4.02068,26.38007,106.274,26.38007,106.274l20.455-34.07034-10.08233,38.58184c82.56516-14.41836,153.80632-18.89036,213.68925-17.81842l-8.87393-29.66713c3.60728-2.00268,19.22141,18.05548,19.22141,18.05548L839.22147,672.239c18.02789,4.02068,26.38007,106.274,26.38007,106.274l20.455-34.07034-10.67878,40.86449c50.18694,2.75485,91.07833,9.35092,122.62338,16.54618-8.84482-46.10889-39.80325-90.44721-39.80325-90.44721,23.81725,12.37724,36.19979,32.5257,42.60385,51.19931.96566-56.67536-1.54433-161.84644-25.63761-278.74155,0,0,47.9715,180.46726,40.68645,300.75492l-.928,21.36749c41.823,10.90935,62.806,21.77474,62.806,21.77474Z" transform="translate(-122.27139 -72.23896)" fill="#3f3d56"/><path d="M692.81018,799.58025c-.20345-.33245-5.00048-8.34221-6.66355-24.97468-1.52542-15.25942-.54455-40.98036,12.79467-76.85895,25.27076-67.9696-5.82378-122.81122-6.14151-123.3575l1.53408-.89c.08051.13851,8.10413,14.121,12.844,36.38591a158.7396,158.7396,0,0,1-6.57438,88.47969c-25.22747,67.85359-6.47222,99.9749-6.28,100.29176Z" transform="translate(-122.27139 -72.23896)" fill="#3f3d56"/><circle cx="560.6573" cy="486.63448" r="11.52464" fill="#6c63ff"/><circle cx="597.00426" cy="529.18701" r="11.52464" fill="#3f3d56"/><circle cx="572.18195" cy="557.55537" r="11.52464" fill="#6c63ff"/><circle cx="602.32332" cy="581.49117" r="11.52464" fill="#6c63ff"/><circle cx="563.31684" cy="618.72463" r="11.52464" fill="#3f3d56"/><path d="M699.77241,800.00446s-11.52464-28.36836,23.04929-49.64462Z" transform="translate(-122.27139 -72.23896)" fill="#3f3d56"/><path d="M685.59888,799.48986s-5.245-30.16738-45.84015-29.90882Z" transform="translate(-122.27139 -72.23896)" fill="#3f3d56"/><path d="M862.0835,321.60849h0c-22.02161,0-39.87365,19.81184-39.87365,44.251v31.05019h9.54961l5.52869-11.50434-1.38219,11.50434h61.38126l5.02608-10.45849-1.2565,10.45849h6.91086v-24.38C907.96761,344.40672,887.4246,321.60849,862.0835,321.60849Z" transform="translate(-122.27139 -72.23896)" fill="#2f2e41"/><path d="M824.63123,465.165l-6.62276,25.38725,61.81242-2.20759-1.1038-20.97207S832.35778,455.23084,824.63123,465.165Z" transform="translate(-122.27139 -72.23896)" fill="#a0616a"/><polygon points="642.755 494.475 662.623 538.627 681.388 515.447 665.935 484.541 642.755 494.475" fill="#a0616a"/><polygon points="692.426 656.733 694.633 707.507 718.917 707.507 715.605 656.733 692.426 656.733" fill="#a0616a"/><path d="M785.99847,520.35463l11.03793,36.42518,16.5569,176.60691s15.4531,4.41517,26.491-1.10379l2.20759-24.28345,4.41517-139.07795s20.97207-11.03793,18.76449-26.491-7.72656-36.42518-7.72656-36.42518Z" transform="translate(-122.27139 -72.23896)" fill="#2f2e41"/><path d="M820.21606,767.60431H813.5933s-18.76449,19.86828-25.38725,22.07586-40.84034,20.97207-13.24552,24.28345,45.25553-11.03793,45.25553-11.03793,8.83034,5.519,20.97207,1.10379,5.519-17.66069,5.519-17.66069-6.16366-20.18748-6.39321-20.02788S833.46157,776.43465,820.21606,767.60431Z" transform="translate(-122.27139 -72.23896)" fill="#2f2e41"/><circle cx="732.16225" cy="292.48083" r="25.38724" fill="#a0616a"/><path d="M891.96261,397.83359l-11.67815,9.73546-1.56737,1.30247L877.6133,422.117H834.56537s5.87218-5.08847,11.32493-10.35359c.11035-.1214.23175-.25385.36427-.37531.73952-.71743,1.40177-1.37975,1.99786-1.97577.32008-.33112.6291-.64022.905-.92722.45259-.47462.89414-.92714,1.33561-1.37974a.03829.03829,0,0,0,.011-.022,43.07931,43.07931,0,0,0,3.17893-3.73082l.011-.011a12.81636,12.81636,0,0,0,.73952-1.09275c3.31138-5.519-4.41517-16.5569-4.41517-16.5569l24.28345-12.14172c.84994,11.96508,10.97171,19.95653,15.49723,22.95888C891.12372,397.381,891.96261,397.83359,891.96261,397.83359Z" transform="translate(-122.27139 -72.23896)" fill="#a0616a"/><path d="M951.56744,583.27085c-16.55689,4.41517-17.66069-28.69863-17.66069-28.69863l-22.59765-45.1953a104.51563,104.51563,0,0,1-9.73594-30.31979l-5.19537-32.65664-1.57842,1.88744v.011l-2.83676,1.41289L874.72137,422.117l-4.83462-7.72655v-8.83035l16.5569-7.72655h6.62276s.14349-.0221.39735-.04419c3.04648-.32008,22.87063-1.64465,23.8861,17.70488.39969,7.59414.36519,13.8857.15853,18.82226a145.76235,145.76235,0,0,0,3.84972,40.63178c1.16857,4.79412,2.44344,8.95771,3.7183,11.18872,4.41517,7.72656,19.86828,68.43518,19.86828,68.43518S968.12434,578.85567,951.56744,583.27085Z" transform="translate(-122.27139 -72.23896)" fill="#a0616a"/><path d="M850.01847,409.97531l-4.18335,7.62719-2.47255,4.51454L831.254,444.1929s-3.43278,2.80361-8.99594,6.42409c-9.2498,6.01562-24.4159,14.272-39.571,15.65178-24.28345,2.20758-1.1038-76.16173-1.1038-76.16173s7.72656-30.90621,18.76449-27.59483,2.20758,14.34931-5.519,35.32138-1.10379,44.15173-1.10379,44.15173,23.17966-14.34931,35.32138-25.38725c6.32471-5.75078,11.75543-7.3071,15.49723-7.4727h.011a14.05466,14.05466,0,0,1,3.69775.287A8.35114,8.35114,0,0,1,850.01847,409.97531Z" transform="translate(-122.27139 -72.23896)" fill="#a0616a"/><path d="M853.68307,403.35256c-.04412.1214-.56294,1.10379-4.52559,5.13259A53.27088,53.27088,0,0,0,853.68307,403.35256Z" transform="translate(-122.27139 -72.23896)" fill="#d0cde1"/><path d="M895.82589,446.95239l-1.02652,1.34659-16.08228,27.90393s-20.97207-7.72656-36.42517-9.93414a21.64728,21.64728,0,0,0-22.06482,9.901l4.40413-17.62754-2.37318-7.92523c-.276-.92722-.596-1.95374-.9382-3.11271-3.31138-11.03793,8.83034-23.17965,8.83034-23.17965l14.39344-15.19926h.011a14.05466,14.05466,0,0,1,3.69775.287c-.59609.596-1.25834,1.25834-1.99786,1.97577-.13252.12146-.25392.25391-.36427.37531-4.22755,4.31581-2.031,5.519-.05518,5.83905a9.7208,9.7208,0,0,0,1.97577.09937c4.60279.66225,14.68043-3.37761,22.07586-6.75521,5.03329-2.29591,8.83034-4.28272,8.83034-4.28272l9.6361-8.83035,1.446-1.32457c1.32457.872,2.16346,1.32457,2.16346,1.32457h1.1038s.14349-.0221.39735-.04419l-5.02587,3.72943a18.68467,18.68467,0,0,0-7.51321,16.183h0Z" transform="translate(-122.27139 -72.23896)" fill="#d0cde1"/><path d="M835.66916,478.41049,819.532,484.71214s-87.61937-33.89648-100.86489-6.30165,46.35932,93.82242,46.35932,93.82242l26.491-12.14172-11.03793-33.1138s64.02,54.08587,90.511,24.28345,8.83035-71.94211,8.83035-71.94211S863.264,466.26877,835.66916,478.41049Z" transform="translate(-122.27139 -72.23896)" fill="#2f2e41"/><path d="M789.30985,598.72395l-9.93414,7.72655s8.83034,35.32138,5.519,40.84035-9.93414,20.97207,2.20759,19.86828,25.38724-19.86828,26.491-26.491,8.83034-26.491,8.83034-26.491,13.24552-30.9062,3.31138-32.01-25.75662-1.84255-25.75662-1.84255Z" transform="translate(-122.27139 -72.23896)" fill="#2f2e41"/><path d="M873.41886,333.79817a20.91184,20.91184,0,0,0-16.50006-8.42011H856.136c-15.09366,0-27.32942,13.658-27.32942,30.50606v.00007H833.864l.81677-6.217,1.19755,6.217H865.874l2.51306-5.25968-.62828,5.25968h5.901q4.13041,20.51274-11.86948,41.02547h10.05222l5.02608-10.51935-1.25651,10.51935h19.162l3.76958-24.19457C898.54368,354.59559,888.01572,339.23062,873.41886,333.79817Z" transform="translate(-122.27139 -72.23896)" fill="#2f2e41"/><path d="M692.43557,119.45631V72.239H675.77063v47.21735h-245.345V72.239h-16.665v47.21735H311.91929V376.83716H794.27692V119.45631Zm-270.34246,60.179a25.92277,25.92277,0,0,1-8.33248-50.47v37.50839h16.665V129.16527a25.92276,25.92276,0,0,1-8.33247,50.47Zm262.01,0a25.92276,25.92276,0,0,1-8.33247-50.47v37.50839h16.66494V129.16527a25.92276,25.92276,0,0,1-8.33247,50.47Z" transform="translate(-122.27139 -72.23896)" fill="#3f3d56"/><rect x="212.79366" y="133.78249" width="83.32473" height="62.95647" fill="#d0cde1"/><rect x="330.37411" y="133.78249" width="83.32473" height="62.95647" fill="#d0cde1"/><rect x="447.95457" y="133.78249" width="83.32473" height="62.95647" fill="#d0cde1"/><rect x="565.53503" y="133.78249" width="83.32473" height="62.95647" fill="#d0cde1"/><rect x="212.79366" y="215.25556" width="83.32473" height="62.95647" fill="#d0cde1"/><rect x="330.37411" y="215.25556" width="83.32473" height="62.95647" fill="#d0cde1"/><rect x="447.95457" y="215.25556" width="83.32473" height="62.95647" fill="#d0cde1"/><rect x="565.53503" y="215.25556" width="83.32473" height="62.95647" fill="#d0cde1"/><polygon points="489.24 179.428 463.196 143.462 470.291 138.326 490.226 165.857 566.513 87.481 572.789 93.59 489.24 179.428" fill="#6c63ff"/><polygon points="369.808 266.456 343.764 230.49 350.858 225.354 370.794 252.885 447.081 174.509 453.356 180.618 369.808 266.456" fill="#6c63ff"/><polygon points="133.157 273.11 114.079 265.581 95 258.053 111.059 245.295 127.118 232.536 130.138 252.823 133.157 273.11" fill="#f2f2f2"/><polygon points="251.157 639.11 232.079 631.581 213 624.053 229.059 611.295 245.118 598.536 248.138 618.823 251.157 639.11" fill="#f2f2f2"/><polygon points="38.157 384.11 19.079 376.581 0 369.053 16.059 356.295 32.118 343.536 35.138 363.823 38.157 384.11" fill="#f2f2f2"/><polygon points="141.102 454.866 123.083 464.663 105.065 474.461 105.589 453.958 106.113 433.454 123.608 444.16 141.102 454.866" fill="#f2f2f2"/><polygon points="348.102 558.866 330.083 568.663 312.065 578.461 312.589 557.958 313.113 537.454 330.608 548.16 348.102 558.866" fill="#f2f2f2"/></svg>