<svg id="a6b890e1-6b41-4f3d-9564-2b3dd01a7f45" data-name="Layer 1" xmlns="http://www.w3.org/2000/svg" width="1152.49452" height="700" viewBox="0 0 1152.49452 700"><title>detailed_examination</title><ellipse cx="966" cy="669" rx="169" ry="31" fill="#3f3d56"/><circle cx="600" cy="283" r="240" fill="#f2f2f2"/><path d="M640.75274,626c-2.77441,0-5.57715-.04395-8.32812-.12988l.0625-1.99805c3.95019.12305,7.98144.15723,11.95019.10254l.02735,2Q642.61162,625.99951,640.75274,626Zm15.74512-.46387-.11719-1.99609c3.95606-.2334,7.96289-.56152,11.90918-.97461l.209,1.98828C664.52227,624.9707,660.48516,625.30176,656.49786,625.53613Zm-36.0957-.31152c-3.98926-.30566-8.02051-.70606-11.98243-1.19238l.24414-1.98438c3.93164.48145,7.93164.87988,11.89063,1.18262Zm60.03906-2.19922-.29981-1.97656c3.93067-.59668,7.8916-1.28906,11.76953-2.05957l.38965,1.96094C688.39239,621.72656,684.40216,622.4248,680.44122,623.02539Zm-83.93506-.73144c-3.94092-.668-7.91895-1.43555-11.82324-2.28321l.42431-1.95508c3.87451.8418,7.82178,1.60352,11.73291,2.26563ZM704.0545,618.332l-.48047-1.9414c3.8584-.95411,7.73828-2.00879,11.53223-3.13379l.56836,1.918C711.85137,616.30859,707.94219,617.37109,704.0545,618.332Zm-131.07617-1.14648c-3.86573-1.02832-7.75586-2.15918-11.5625-3.36328l.60254-1.90625c3.77783,1.19433,7.63818,2.3164,11.47363,3.33593Zm154.1582-5.70117-.65625-1.88868c3.74414-1.30175,7.50977-2.709,11.19434-4.18359l.74218,1.85742C734.70489,608.75488,730.91,610.17285,727.13653,611.48438ZM549.991,609.918c-3.75439-1.37988-7.53222-2.86914-11.22754-4.42578l.77637-1.84375c3.667,1.54492,7.41553,3.02246,11.1416,4.39258Zm199.47461-7.36817-.82812-1.82031c3.5957-1.63379,7.21-3.37793,10.74218-5.18359l.91016,1.78125C756.73028,599.14648,753.08868,600.90332,749.46563,602.5498Zm-221.71045-1.99414c-3.60888-1.71972-7.23144-3.54882-10.76562-5.4375l.94238-1.76367c3.50781,1.874,7.102,3.68946,10.68359,5.39649Zm243.10889-8.94433-.99024-1.73633c3.44825-1.96777,6.89063-4.03613,10.2295-6.14844l1.06836,1.68946C777.80743,587.54492,774.33966,589.62988,770.86407,591.61133Zm-264.376-2.418c-3.43261-2.042-6.87011-4.19531-10.21631-6.39941l1.10059-1.66993c3.32031,2.1875,6.73145,4.32422,10.13818,6.35059Zm284.69922-10.43945-1.14453-1.63868c3.24707-2.26855,6.4873-4.64453,9.63086-7.06054l1.21875,1.58594C797.7254,574.0752,794.45977,576.46875,791.18731,578.75391ZM486.36163,575.9375c-3.228-2.34473-6.45264-4.80078-9.585-7.30176l1.248-1.5625c3.1084,2.48145,6.3086,4.91895,9.51172,7.24512Zm323.90283-11.8457-1.28906-1.5293c3.02636-2.55371,6.03808-5.21484,8.95312-7.91016l1.35742,1.46875C816.34942,558.83691,813.31426,561.51855,810.26446,564.0918Zm-342.728-3.18555c-3.00635-2.63281-5.99316-5.37109-8.877-8.13965l1.38476-1.44336c2.86231,2.748,5.82618,5.46582,8.80958,8.0791Zm360.40088-13.16113-1.42383-1.4043c2.79-2.82715,5.54981-5.75293,8.20118-8.69531l1.48632,1.33789C833.52911,541.94922,830.74883,544.89648,827.93731,547.74512Zm-377.773-3.51172c-2.7583-2.90039-5.48242-5.89844-8.09668-8.91016l1.51074-1.31054c2.59424,2.98925,5.29737,5.96386,8.03516,8.84179Zm393.89307-14.37988-1.54492-1.26954c2.5205-3.06738,5.00195-6.23242,7.37793-9.40918l1.60156,1.19727C849.09844,523.57324,846.59747,526.76367,844.05743,529.85352Zm-409.6709-3.79688c-2.47705-3.12988-4.916-6.36133-7.24951-9.60449l1.623-1.168c2.31591,3.21777,4.73632,6.4248,7.19482,9.53223Zm424.09961-15.49707-1.6543-1.12305c2.23047-3.28418,4.415-6.66406,6.49219-10.04785l1.70508,1.04688C862.93438,503.84473,860.73321,507.251,858.48614,510.55957Zm-438.15088-4.0293c-2.1792-3.34082-4.312-6.77832-6.33984-10.21972l1.72265-1.01563c2.0127,3.415,4.1294,6.82715,6.292,10.1416Zm450.76611-16.51074-1.75-.9668c1.91993-3.4746,3.78516-7.043,5.5459-10.60644l1.793.88672C874.9168,482.92285,873.03594,486.51855,871.10137,490.01953Zm-462.9707-4.20508c-1.86523-3.52539-3.67383-7.14257-5.37549-10.75l1.8086-.85351c1.689,3.58008,3.48339,7.16992,5.33447,10.668Zm473.65137-17.416-1.832-.80274c1.59375-3.63965,3.124-7.36718,4.54882-11.07812l1.86719.7168C884.93048,460.97461,883.38751,464.73047,881.782,468.39844ZM397.87969,464.083c-1.5332-3.67969-3.00146-7.44434-4.36377-11.19043l1.87989-.6836c1.35156,3.71778,2.80859,7.45313,4.32959,11.1045Zm492.55079-18.21582-1.89844-.62891c1.248-3.76074,2.42578-7.60449,3.5-11.42578l1.92578.541C892.87481,438.2041,891.68731,442.07813,890.43048,445.86719Zm-500.76709-4.38281c-1.19-3.81153-2.30811-7.70508-3.32325-11.57422l1.93457-.50782c1.00733,3.83985,2.11719,7.70411,3.29786,11.48633ZM896.949,422.68945l-1.94824-.45312c.89551-3.85449,1.71387-7.791,2.43359-11.69824l1.9668.36132C898.67657,414.83789,897.85137,418.80371,896.949,422.68945Zm-513.394-4.49414c-.834-3.90625-1.58887-7.88574-2.24317-11.83008l1.97266-.32812c.6499,3.915,1.39893,7.86426,2.22656,11.74023Zm517.75244-19.18359-1.98242-.27149c.53808-3.917.99218-7.91113,1.35058-11.87207l1.99219.17969C902.30645,391.04,901.84844,395.06445,901.30743,399.01172Zm-521.69385-4.56641c-.47168-3.959-.85889-7.99121-1.15137-11.98437l1.99512-.14649c.28955,3.96387.67432,7.96485,1.14258,11.89453Zm523.86865-19.40918-1.998-.08984c.17773-3.96289.26855-7.98242.26855-11.94629h2C903.75274,366.99414,903.66192,371.044,903.48223,375.03613Zm-525.626-4.60156c-.06836-2.45215-.103-4.9541-.10352-7.43457q0-2.30859.03955-4.6084l2,.03516q-.03955,2.28222-.03955,4.57324c.00049,2.46191.03516,4.94531.10254,7.37988ZM901.73809,360.21c-.041-3.96533-.17383-7.98437-.39355-11.94629l1.99609-.11133c.22168,3.99219.35547,8.04151.39746,12.03614ZM380.2669,346.48682l-1.99609-.125c.24951-3.9961.59424-8.03223,1.02343-11.99659l1.98829.21534C380.85626,338.51514,380.515,342.52051,380.2669,346.48682ZM900.409,336.35205c-.39941-3.94287-.89648-7.93213-1.47656-11.85791l1.97851-.292c.584,3.95556,1.085,7.9751,1.48829,11.94775ZM382.83966,322.73389l-1.97657-.30567c.6128-3.95654,1.32471-7.94433,2.11621-11.854l1.96.39648C384.15411,314.85059,383.44757,318.80811,382.83966,322.73389Zm514.07421-10.01563c-.76269-3.90137-1.623-7.82861-2.55859-11.67236l1.94336-.47266c.94238,3.873,1.80957,7.83057,2.57812,11.76123ZM387.577,299.31689l-1.93994-.48632c.97119-3.87354,2.04687-7.7793,3.19726-11.60938l1.915.5752C389.60821,291.59717,388.54083,295.47314,387.577,299.31689Zm503.68457-9.81347c-1.11523-3.80811-2.334-7.63867-3.62207-11.38672l1.89062-.65039c1.29883,3.77685,2.52735,7.63769,3.65137,11.47461Zm-496.7998-13.1001-1.88672-.66309c1.3291-3.78076,2.76416-7.57959,4.26513-11.291l1.8545.75C397.20489,268.88184,395.78057,272.65186,394.46173,276.40332Zm489.0332-9.49463c-1.459-3.68066-3.02149-7.37451-4.64453-10.97949l1.82422-.82129c1.63574,3.63281,3.21,7.355,4.67968,11.06348ZM403.43829,254.20605l-1.81738-.835c1.67041-3.63769,3.44824-7.28564,5.28417-10.84228l1.77735.917C406.86016,246.97559,405.096,250.5957,403.43829,254.20605Zm470.26855-9.03564c-1.79-3.53076-3.68652-7.06885-5.63672-10.51465l1.74024-.98535c1.96582,3.47266,3.876,7.0376,5.67969,10.5957Zm-459.2915-12.22949-1.7334-.99805c1.99512-3.46435,4.09912-6.93213,6.25391-10.30615l1.68554,1.07617C418.48321,226.06152,416.39483,229.50293,414.41534,232.94092Zm447.5415-8.53516c-2.11328-3.36426-4.32617-6.71582-6.57715-9.96191l1.64258-1.13965c2.26856,3.271,4.499,6.64795,6.62793,10.03809ZM427.28839,212.78223l-1.63477-1.15235c2.30566-3.27,4.71631-6.52929,7.1665-9.6875l1.58008,1.22559C431.96905,206.30273,429.576,209.53711,427.28839,212.78223Zm421.064-7.99219c-2.41016-3.15674-4.91992-6.29492-7.46191-9.32715l1.5332-1.28467c2.56055,3.05567,5.08984,6.21729,7.51855,9.39795ZM441.94171,193.89111l-1.52247-1.29687c2.58741-3.03906,5.28418-6.064,8.01514-8.99072l1.46192,1.36425C447.18633,187.87256,444.51007,190.875,441.94171,193.89111Zm391.06982-7.4082c-2.68652-2.92432-5.47363-5.82275-8.28223-8.61377l1.41016-1.41894c2.83008,2.813,5.6377,5.73291,8.34473,8.67919ZM458.24639,176.419l-1.39843-1.42969c2.85986-2.79785,5.81933-5.564,8.79541-8.22119l1.332,1.49218C464.02178,170.897,461.08477,173.64209,458.24639,176.419Zm357.81787-6.77979c-2.94433-2.67041-5.98437-5.3042-9.03515-7.82812l1.27539-1.541c3.07324,2.543,6.13672,5.19678,9.10351,7.88769Zm-339.99951-9.13184-1.26269-1.55078c3.09326-2.519,6.29-5.00341,9.502-7.38427l1.19141,1.60644C482.30743,155.542,479.13458,158.00732,476.06475,160.50732Zm321.58155-6.10693c-3.17676-2.39209-6.44532-4.73926-9.71485-6.97607l1.12891-1.65039c3.29492,2.25341,6.58789,4.61816,9.78906,7.0288ZM495.24688,146.29l-1.11621-1.65918c3.31055-2.22754,6.71875-4.40869,10.13037-6.48438l1.03906,1.709C501.91485,141.915,498.53253,144.08008,495.24688,146.29Zm282.65918-5.39111c-3.37988-2.0918-6.85058-4.13086-10.31543-6.06153l.97266-1.74707c3.49219,1.94531,6.98926,4.00049,10.39551,6.10742Zm-262.27148-7.01026-.96-1.75488c3.50244-1.9165,7.09375-3.77588,10.67382-5.52734l.87891,1.79687C522.67462,130.14111,519.11065,131.98633,515.63458,133.88867Zm241.37011-4.63379c-3.55859-1.773-7.2041-3.48584-10.835-5.09082l.8086-1.8291c3.65918,1.61719,7.333,3.34326,10.91894,5.12988Zm-219.94824-5.84424-.79492-1.835c3.66016-1.58642,7.4043-3.10791,11.12793-4.52246l.71,1.87012C544.40411,120.32666,540.68878,121.83643,537.05645,123.41064Zm198.05176-3.83447c-3.70313-1.436-7.49316-2.80615-11.26563-4.07178l.63672-1.89648c3.80078,1.27588,7.62012,2.65625,11.35157,4.104Zm-175.74316-4.63672-.62305-1.90039c3.80078-1.24609,7.67871-2.41943,11.52539-3.48633l.53467,1.92676C566.98467,112.53857,563.13653,113.70264,559.36505,114.93945Zm153.06347-2.97363c-3.81445-1.0874-7.70508-2.1001-11.56347-3.00977l.459-1.94628c3.88867.9165,7.80859,1.937,11.65332,3.03222ZM582.387,108.55029l-.44531-1.9497c3.89648-.89014,7.86572-1.70118,11.79687-2.41016l.35547,1.96777C590.19219,106.8623,586.25372,107.667,582.387,108.55029Zm106.7876-2.06689c-3.89454-.731-7.86133-1.38135-11.791-1.93311l.27734-1.98047c3.96.55616,7.958,1.21143,11.88282,1.94776Zm-83.27539-2.17627-.26465-1.98242c3.959-.52832,7.98535-.97266,11.96679-1.31934l.17383,1.99219C613.824,103.34229,609.82891,103.78271,605.89923,104.30713Zm59.61621-1.14746c-3.93946-.3711-7.94922-.65723-11.91895-.84912l.09766-1.99805c3.999.19385,8.03906.48193,12.00879.856Zm-35.81446-.9292-.084-1.998c3.67578-.15332,7.42187-.23144,11.13574-.23242l.90527.00146-.00585,2L640.75274,102C637.06719,102.001,633.34844,102.07861,629.701,102.23047Z" transform="translate(-23.75274 -100)" fill="#3f3d56"/><path d="M334.32,233.49281c-8.38218,30.98558-37.093,50.17573-37.093,50.17573s-15.12067-31.0474-6.73848-62.033,37.093-50.17572,37.093-50.17572S342.70218,202.50724,334.32,233.49281Z" transform="translate(-23.75274 -100)" fill="#6c63ff"/><path d="M258.06553,233.49281c8.38218,30.98558,37.093,50.17573,37.093,50.17573s15.12066-31.0474,6.73848-62.033S264.804,171.45984,264.804,171.45984,249.68335,202.50724,258.06553,233.49281Z" transform="translate(-23.75274 -100)" fill="#6c63ff"/><path d="M270.38256,226.83368c23.00082,22.39038,25.81021,56.8096,25.81021,56.8096s-34.48233-1.88275-57.48315-24.27313-25.81022-56.8096-25.81022-56.8096S247.38173,204.4433,270.38256,226.83368Z" transform="translate(-23.75274 -100)" fill="#3f3d56"/><path d="M322.003,226.83368c-23.00083,22.39038-25.81021,56.8096-25.81021,56.8096s34.48232-1.88275,57.48315-24.27313,25.81021-56.8096,25.81021-56.8096S345.0038,204.4433,322.003,226.83368Z" transform="translate(-23.75274 -100)" fill="#3f3d56"/><rect x="28.61446" y="313.3253" width="639.28916" height="314.24096" fill="#6c63ff"/><rect x="133" y="387" width="6" height="2" fill="#fff"/><path d="M622.6502,489H610.54766v-2H622.6502Zm-24.20508,0H586.34258v-2h12.10254Zm-24.20507,0H562.13751v-2h12.10254ZM550.035,489H537.93243v-2H550.035Zm-24.20508,0H513.72735v-2h12.10254Zm-24.20557,0H489.52178v-2h12.10254Zm-24.20508,0H465.31671v-2h12.10253Zm-24.20507,0H441.11163v-2h12.10254Zm-24.20508,0H416.90655v-2h12.10254ZM404.804,489H392.70147v-2H404.804Zm-24.20508,0H368.49639v-2h12.10254Zm-24.20508,0H344.29132v-2h12.10253Zm-24.20507,0H320.08624v-2h12.10254Zm-24.20508,0H295.88116v-2H307.9837Zm-24.20557,0H271.67559v-2h12.10254Zm-24.20508,0H247.47051v-2h12.10254ZM235.368,489H223.26544v-2H235.368Zm-24.20508,0H199.06036v-2H211.1629Zm-24.20508,0H174.85528v-2h12.10254Z" transform="translate(-23.75274 -100)" fill="#fff"/><rect x="611" y="387" width="6" height="2" fill="#fff"/><rect x="133" y="429" width="6" height="2" fill="#fff"/><path d="M622.6502,531H610.54766v-2H622.6502Zm-24.20508,0H586.34258v-2h12.10254Zm-24.20507,0H562.13751v-2h12.10254ZM550.035,531H537.93243v-2H550.035Zm-24.20508,0H513.72735v-2h12.10254Zm-24.20557,0H489.52178v-2h12.10254Zm-24.20508,0H465.31671v-2h12.10253Zm-24.20507,0H441.11163v-2h12.10254Zm-24.20508,0H416.90655v-2h12.10254ZM404.804,531H392.70147v-2H404.804Zm-24.20508,0H368.49639v-2h12.10254Zm-24.20508,0H344.29132v-2h12.10253Zm-24.20507,0H320.08624v-2h12.10254Zm-24.20508,0H295.88116v-2H307.9837Zm-24.20557,0H271.67559v-2h12.10254Zm-24.20508,0H247.47051v-2h12.10254ZM235.368,531H223.26544v-2H235.368Zm-24.20508,0H199.06036v-2H211.1629Zm-24.20508,0H174.85528v-2h12.10254Z" transform="translate(-23.75274 -100)" fill="#fff"/><rect x="611" y="429" width="6" height="2" fill="#fff"/><rect x="133" y="471" width="6" height="2" fill="#fff"/><path d="M622.6502,573H610.54766v-2H622.6502Zm-24.20508,0H586.34258v-2h12.10254Zm-24.20507,0H562.13751v-2h12.10254ZM550.035,573H537.93243v-2H550.035Zm-24.20508,0H513.72735v-2h12.10254Zm-24.20557,0H489.52178v-2h12.10254Zm-24.20508,0H465.31671v-2h12.10253Zm-24.20507,0H441.11163v-2h12.10254Zm-24.20508,0H416.90655v-2h12.10254ZM404.804,573H392.70147v-2H404.804Zm-24.20508,0H368.49639v-2h12.10254Zm-24.20508,0H344.29132v-2h12.10253Zm-24.20507,0H320.08624v-2h12.10254Zm-24.20508,0H295.88116v-2H307.9837Zm-24.20557,0H271.67559v-2h12.10254Zm-24.20508,0H247.47051v-2h12.10254ZM235.368,573H223.26544v-2H235.368Zm-24.20508,0H199.06036v-2H211.1629Zm-24.20508,0H174.85528v-2h12.10254Z" transform="translate(-23.75274 -100)" fill="#fff"/><rect x="611" y="471" width="6" height="2" fill="#fff"/><rect x="133" y="513" width="6" height="2" fill="#fff"/><path d="M622.6502,615H610.54766v-2H622.6502Zm-24.20508,0H586.34258v-2h12.10254Zm-24.20507,0H562.13751v-2h12.10254ZM550.035,615H537.93243v-2H550.035Zm-24.20508,0H513.72735v-2h12.10254Zm-24.20557,0H489.52178v-2h12.10254Zm-24.20508,0H465.31671v-2h12.10253Zm-24.20507,0H441.11163v-2h12.10254Zm-24.20508,0H416.90655v-2h12.10254ZM404.804,615H392.70147v-2H404.804Zm-24.20508,0H368.49639v-2h12.10254Zm-24.20508,0H344.29132v-2h12.10253Zm-24.20507,0H320.08624v-2h12.10254Zm-24.20508,0H295.88116v-2H307.9837Zm-24.20557,0H271.67559v-2h12.10254Zm-24.20508,0H247.47051v-2h12.10254ZM235.368,615H223.26544v-2H235.368Zm-24.20508,0H199.06036v-2H211.1629Zm-24.20508,0H174.85528v-2h12.10254Z" transform="translate(-23.75274 -100)" fill="#fff"/><rect x="611" y="513" width="6" height="2" fill="#fff"/><rect x="133" y="555" width="6" height="2" fill="#fff"/><path d="M622.6502,657H610.54766v-2H622.6502Zm-24.20508,0H586.34258v-2h12.10254Zm-24.20507,0H562.13751v-2h12.10254ZM550.035,657H537.93243v-2H550.035Zm-24.20508,0H513.72735v-2h12.10254Zm-24.20557,0H489.52178v-2h12.10254Zm-24.20508,0H465.31671v-2h12.10253Zm-24.20507,0H441.11163v-2h12.10254Zm-24.20508,0H416.90655v-2h12.10254ZM404.804,657H392.70147v-2H404.804Zm-24.20508,0H368.49639v-2h12.10254Zm-24.20508,0H344.29132v-2h12.10253Zm-24.20507,0H320.08624v-2h12.10254Zm-24.20508,0H295.88116v-2H307.9837Zm-24.20557,0H271.67559v-2h12.10254Zm-24.20508,0H247.47051v-2h12.10254ZM235.368,657H223.26544v-2H235.368Zm-24.20508,0H199.06036v-2H211.1629Zm-24.20508,0H174.85528v-2h12.10254Z" transform="translate(-23.75274 -100)" fill="#fff"/><rect x="611" y="555" width="6" height="2" fill="#fff"/><circle cx="135" cy="556" r="14" fill="#3f3d56"/><circle cx="229" cy="514" r="14" fill="#3f3d56"/><circle cx="326" cy="472" r="14" fill="#3f3d56"/><circle cx="422" cy="430" r="14" fill="#3f3d56"/><circle cx="495" cy="470" r="14" fill="#3f3d56"/><circle cx="569" cy="388" r="14" fill="#3f3d56"/><circle cx="87" cy="388" r="9" fill="#fff"/><circle cx="87" cy="430" r="9" fill="#fff"/><circle cx="87" cy="472" r="9" fill="#fff"/><circle cx="87" cy="514" r="9" fill="#fff"/><circle cx="87" cy="556" r="9" fill="#fff"/><polygon points="570 365 568 365 568 185 651 185 651 187 570 187 570 365" fill="#3f3d56"/><circle cx="614" cy="235" r="26" fill="#fff"/><path d="M640.75293,363a33,33,0,1,1,33-33A33.03734,33.03734,0,0,1,640.75293,363Zm0-64a31,31,0,1,0,31,31A31.035,31.035,0,0,0,640.75293,299Z" transform="translate(-23.75274 -100)" fill="#3f3d56"/><polygon points="230 486 228 486 228 181 311 181 311 183 230 183 230 486" fill="#3f3d56"/><circle cx="274" cy="231" r="26" fill="#f2f2f2"/><path d="M300.75274,359a33,33,0,1,1,33-33A33.03734,33.03734,0,0,1,300.75274,359Zm0-64a31,31,0,1,0,31,31A31.03536,31.03536,0,0,0,300.75274,295Z" transform="translate(-23.75274 -100)" fill="#3f3d56"/><polygon points="143.5 518.5 141.5 518.5 141.5 215.5 60.5 215.5 60.5 213.5 143.5 213.5 143.5 518.5" fill="#3f3d56"/><circle cx="97.5" cy="263.5" r="26" fill="#f2f2f2"/><path d="M118.25274,391.5a33,33,0,1,1,33-33A33.03734,33.03734,0,0,1,118.25274,391.5Zm0-64a31,31,0,1,0,31,31A31.03536,31.03536,0,0,0,118.25274,327.5Z" transform="translate(-23.75274 -100)" fill="#3f3d56"/><rect y="627" width="1147" height="2" fill="#3f3d56"/><path d="M315.87384,381.80328H274.57018a144.46158,144.46158,0,0,1,0-49.24668h41.30366A88.61154,88.61154,0,0,0,315.87384,381.80328Z" transform="translate(-23.75274 -100)" fill="#ff6584"/><path d="M97.63164,408.781H138.9353a144.46152,144.46152,0,0,0,0-49.24667H97.63164A88.61132,88.61132,0,0,1,97.63164,408.781Z" transform="translate(-23.75274 -100)" fill="#6c63ff"/><path d="M617.63164,378.781H658.9353a144.46152,144.46152,0,0,0,0-49.24667H617.63164A88.61132,88.61132,0,0,1,617.63164,378.781Z" transform="translate(-23.75274 -100)" fill="#6c63ff"/><path d="M1139.10974,726.11974c-.17445-.28507-4.2879-7.15342-5.714-21.41573-1.308-13.08491-.46694-35.14055,10.97141-65.90636,21.66961-58.28377-4.99389-105.31032-5.26634-105.77875l1.31547-.76315c.069.11878,6.94927,12.1087,11.01372,31.20083a136.11886,136.11886,0,0,1-5.63752,75.87112c-21.63249,58.18429-5.54991,85.72823-5.38511,85.99994Z" transform="translate(-23.75274 -100)" fill="#3f3d56"/><circle cx="1106.88365" cy="419.71425" r="9.88235" fill="#3f3d56"/><circle cx="1138.05108" cy="456.20294" r="9.88235" fill="#3f3d56"/><circle cx="1116.76601" cy="480.52873" r="9.88235" fill="#6c63ff"/><circle cx="1142.61216" cy="501.05362" r="9.88235" fill="#6c63ff"/><circle cx="1109.1642" cy="532.98123" r="9.88235" fill="#3f3d56"/><path d="M1145.07983,726.4835s-9.88235-24.3258,19.76471-42.57014Z" transform="translate(-23.75274 -100)" fill="#3f3d56"/><path d="M1132.92607,726.04224s-4.49755-25.86846-39.30782-25.64675Z" transform="translate(-23.75274 -100)" fill="#3f3d56"/><path d="M928.2407,317.906l31.894-46.30584s27.77273-22.26912,19.81264-26.60525-28.80015,15.99258-28.80015,15.99258-60.12445,46.09337-50.20994,52.52635S928.2407,317.906,928.2407,317.906Z" transform="translate(-23.75274 -100)" fill="#a0616a"/><path d="M1040.26093,259.44519c-12.41227-20.97289-36.969-21.95032-36.969-21.95032s-23.92909-3.06-39.27945,28.882c-14.30776,29.77254-34.05429,58.51855-3.179,65.48808l5.577-17.358,3.45379,18.65031a120.80742,120.80742,0,0,0,13.21037.22578c33.06492-1.06754,64.55425.31232,63.54034-11.55276C1045.26714,306.05727,1052.204,279.62531,1040.26093,259.44519Z" transform="translate(-23.75274 -100)" fill="#2f2e41"/><path d="M974.26543,388.7253l-15.90018,36.57041,55.65063,8.7451s26.23529-35.7754,28.62032-38.16043Z" transform="translate(-23.75274 -100)" fill="#a0616a"/><circle cx="976.74799" cy="179.80907" r="29.41533" fill="#a0616a"/><path d="M993.34565,301.27432s13.51515,30.21034,11.92513,33.39037,28.62032-16.69519,28.62032-16.69519-12.72014-21.46524-11.92513-24.64527Z" transform="translate(-23.75274 -100)" fill="#a0616a"/><path d="M1037.86615,313.99446s23.85026-13.51515,37.36542,23.85027c0,0,44.5205,52.47059,36.57041,62.01069s-38.16043-23.05526-38.16043-23.05526l-19.08022-19.87522s-27.0303-7.15508-24.64527-22.26025S1037.86615,313.99446,1037.86615,313.99446Z" transform="translate(-23.75274 -100)" fill="#a0616a"/><path d="M982.21552,332.27966,926.5649,316.37949s-29.41533-11.92514-28.62033-4.77006,54.06061,47.70054,71.55081,45.31551S982.21552,332.27966,982.21552,332.27966Z" transform="translate(-23.75274 -100)" fill="#a0616a"/><path d="M1014.01588,326.7146s-18.28521-2.385-22.26025,1.59-11.52763.3975-11.52763.3975l-12.72014,23.05526s-9.14261,13.11765-1.98753,25.83779-3.18,29.41533-3.18,29.41533,57.24064,0,69.16578,6.36008,26.29776-53.068,26.29776-53.068-14.77013-18.08527-10.79509-29.2154,1.59-19.87522,1.59-19.87522l-17.4902,1.59Z" transform="translate(-23.75274 -100)" fill="#d0cde1"/><polygon points="921.892 578.109 928.252 639.324 952.898 626.604 944.948 573.338 921.892 578.109" fill="#a0616a"/><polygon points="1014.908 577.314 1035.604 632.654 1055.479 618.344 1030.809 564.593 1014.908 577.314" fill="#a0616a"/><path d="M976.65046,705.93386A49.64911,49.64911,0,0,1,971.0854,718.654c-3.97505,6.36007-13.51516,3.18-13.51516,3.18s-11.13012-8.7451-13.51515-4.77-15.10517,23.85027-15.10517,23.85027-42.13547,34.98039-6.36007,40.54545,42.93048-20.67023,42.93048-20.67023,27.03031-9.54011,27.82532-19.08021S976.65046,705.93386,976.65046,705.93386Z" transform="translate(-23.75274 -100)" fill="#2f2e41"/><path d="M1060.1264,717.52388s-12.72015-3.975-11.92514,2.385,5.56507,31.80036,5.56507,31.80036-8.7451,35.7754,15.90017,29.41533,25.44029-40.54546,25.44029-40.54546,12.72014-45.31551,3.18-46.11052-32.59537-3.18-32.59537-3.18S1080.00162,714.34385,1060.1264,717.52388Z" transform="translate(-23.75274 -100)" fill="#2f2e41"/><polygon points="1011.021 157.423 986.76 144.715 953.257 149.914 946.325 180.529 963.58 179.865 968.4 168.618 968.4 179.68 976.362 179.374 980.983 161.467 983.872 180.529 1012.176 179.951 1011.021 157.423" fill="#2f2e41"/><path d="M1022.761,431.65578l-66.78075-15.10517s-33.39038,57.24064-38.16043,104.94118-26.2353,162.18182,7.95009,163.77184,54.0606,1.59,55.65062-1.59-16.69519-128.79144-16.69519-128.79144,38.95544,154.23173,60.42068,143.89661,45.31551-23.85026,44.5205-31.80035-52.47059-92.221-52.47059-92.221l7.15509-73.14082s8.74509-29.41533-6.36008-56.44564Z" transform="translate(-23.75274 -100)" fill="#2f2e41"/><path d="M974.63164,411.781h41.30366a144.46152,144.46152,0,0,0,0-49.24667H974.63164A88.61132,88.61132,0,0,1,974.63164,411.781Z" transform="translate(-23.75274 -100)" fill="#6c63ff"/><path d="M1095.10679,376.00516l-69.96079-1.59s-31.00534-23.85027-31.80035-9.54011,32.59536,22.26025,32.59536,22.26025,71.78242,25.75843,82.79674,14.46924Z" transform="translate(-23.75274 -100)" fill="#a0616a"/></svg>