<svg id="afa8f846-9f09-4e7c-bda3-49d724cd1542" data-name="Layer 1" xmlns="http://www.w3.org/2000/svg" width="886" height="792.69462" viewBox="0 0 886 792.69462"><title>creative_process</title><ellipse cx="443" cy="738.19462" rx="443" ry="54.5" fill="#3f3d56"/><polygon points="411 457.695 411 711.695 238 740.695 49 717.695 49 462.695 238 445.695 411 457.695" fill="#3f3d56"/><polygon points="238 471.695 238 740.695 49 717.695 49 462.695 238 471.695" opacity="0.1"/><polygon points="411 457.695 238 471.695 49 462.695 238 445.695 411 457.695" fill="#fff" opacity="0.1"/><polygon points="788 632.695 788 727.695 667 754.695 424 734.695 424 649.695 427.98 649.025 428.35 648.965 638 613.695 785.43 632.365 788 632.695" fill="#d0cde1"/><polygon points="667 663.695 667 754.695 424 734.695 424 649.695 427.98 649.025 667 663.695" opacity="0.1"/><polygon points="785.43 632.365 667 663.695 428.35 648.965 638 613.695 785.43 632.365" fill="#fff" opacity="0.1"/><path d="M502,607.34731v195a265.608,265.608,0,0,0,132,0v-195Z" transform="translate(-157 -53.65269)" fill="#6c63ff"/><ellipse cx="411" cy="552.19462" rx="66" ry="7.5" fill="#6c63ff"/><ellipse cx="411" cy="552.19462" rx="66" ry="7.5" opacity="0.1"/><path d="M633.87325,338.028c.894,2.08315,1.84014,4.18894,2.81131,6.25818l-2.08144.9769c-.98214-2.09262-1.93829-4.221-2.84273-6.32777Z" transform="translate(-157 -53.65269)" fill="#e6e6e6"/><path d="M1005.09969,171.37572c1.31318,2.79795,2.57432,5.64886,3.7492,8.47451l-2.1233.88244c-1.75874-4.23086-3.704-8.49448-5.75619-12.61863l2.0595-1.02364Q1004.08511,169.214,1005.09969,171.37572ZM996.36122,154.752l-1.98459,1.16212c-2.33-3.98137-4.82261-7.9236-7.40827-11.72047l1.90047-1.29378C991.48307,146.73912,994.00424,150.72624,996.36122,154.752Zm17.43282,38.21907c1.49443,4.41816,2.85227,8.9364,4.036,13.42971l-2.22338.58464c-1.17041-4.44126-2.513-8.90839-3.99154-13.27694Zm-33.213-61.38259-1.80822,1.42163c-2.84626-3.61751-5.85606-7.18183-8.94549-10.59344l1.70377-1.54377C974.65669,124.32457,977.70165,127.92944,980.581,131.58846Zm40.35165,88.489c.87288,4.571,1.59681,9.23419,2.15245,13.85856l-2.282.27481c-.55038-4.57352-1.2666-9.1833-2.12919-13.70329ZM961.76384,110.809l-1.59311,1.658c-3.31744-3.18925-6.78645-6.30242-10.30875-9.25167l1.47717-1.76234C954.90079,104.43586,958.40812,107.58312,961.76384,110.809Zm62.51459,137.122c.23454,4.6616.30959,9.385.22211,14.03964l-2.2997-.043c.08641-4.6014.01256-9.27206-.21952-13.88087ZM940.29249,92.83289l-1.352,1.85987c-3.72476-2.70416-7.589-5.31435-11.485-7.75457l1.22064-1.94952C932.61664,87.45762,936.52432,90.097,940.29249,92.83289Zm83.46466,183.15493c-.40722,4.64716-.97964,9.33342-1.703,13.93055l-2.27129-.35776c.71455-4.54461,1.28166-9.17876,1.68458-13.77431ZM916.54935,77.957l-1.085,2.02722c-4.0594-2.17256-8.24416-4.23172-12.43967-6.12088l.94306-2.097C908.212,73.67722,912.44487,75.75967,916.54935,77.957Zm102.85274,225.74082c-1.03532,4.53765-2.241,9.1007-3.58435,13.5634l-2.20143-.66339c1.32751-4.41186,2.5199-8.924,3.54392-13.41172ZM890.9914,66.44668l-.79886,2.15587c-4.31771-1.5999-8.74556-3.07245-13.16205-4.37546l.65144-2.20573C882.14776,63.33966,886.62543,64.82851,890.9914,66.44668Zm120.32628,264.09951c-1.64385,4.35881-3.45891,8.71487-5.39316,12.94643l-2.0907-.956c1.913-4.18437,3.70649-8.49125,5.33231-12.80128ZM864.09652,58.51431l-.4997,2.24365c-4.49036-.998-9.07917-1.85425-13.63742-2.545l.34472-2.27262C854.914,56.63789,859.55473,57.5045,864.09652,58.51431ZM999.66388,356.0388c-2.21987,4.09338-4.60983,8.15994-7.10129,12.08686l-1.94222-1.23152c2.46375-3.88291,4.82672-7.90393,7.02311-11.95219ZM836.36256,54.31685l-.18748,2.29059c-4.59419-.37627-9.258-.59707-13.86464-.65623l.03-2.29852C826.99923,53.71215,831.71626,53.93527,836.36256,54.31685ZM984.65347,379.69623c-2.756,3.74909-5.67752,7.44936-8.68267,10.9979l-1.75409-1.486c2.97051-3.50871,5.85961-7.16711,8.58466-10.87377ZM808.30281,53.95446l.12982,2.29545c-4.60345.25934-9.25667.68217-13.83081,1.25764l-.28687-2.28127C798.9415,54.64357,803.64809,54.21553,808.30281,53.95446ZM966.55713,401.06465c-3.2473,3.33911-6.65251,6.606-10.12,9.71111l-1.53348-1.71356c3.42844-3.06943,6.79407-6.29912,10.00577-9.60045ZM780.46694,57.45935l.44418,2.25706c-4.51865.88924-9.06209,1.94763-13.50451,3.14463l-.59778-2.21969C771.30181,59.43054,775.89677,58.36037,780.46694,57.45935ZM945.67088,419.76267c-3.67406,2.85791-7.496,5.62526-11.35928,8.22408L933.028,426.079c3.81983-2.56977,7.59834-5.30555,11.23041-8.13136ZM753.40285,64.753l.74859,2.1737c-4.34592,1.49773-8.70164,3.16749-12.94745,4.96177l-.89464-2.11757C744.60188,67.95592,749.00728,66.26781,753.40285,64.753ZM922.41543,435.41175c-4.02543,2.32459-8.18865,4.54456-12.3741,6.59824l-1.01247-2.06474c4.13942-2.03022,8.25582-4.22573,12.23618-6.52483ZM728.6192,77.71806c-4.11568,2.0755-8.20784,4.31607-12.16243,6.6595l-1.17234-1.97731c3.99946-2.37069,8.13745-4.63649,12.29892-6.736ZM704.77687,91.85112c-3.79517,2.61835-7.54259,5.39659-11.13792,8.25972L692.207,98.31241c3.63582-2.89578,7.42572-5.70636,11.26481-8.354Zm-21.67918,17.26753c-3.39095,3.107-6.717,6.37085-9.88448,9.70164L671.547,117.236c3.2041-3.36906,6.56773-6.67038,9.99771-9.81184ZM664.019,129.184c-2.93583,3.54824-5.78284,7.24083-8.4626,10.974l-1.86819-1.34067c2.71046-3.77609,5.59013-7.51005,8.55911-11.09865Zm-16.155,22.50549c-2.42474,3.91979-4.74169,7.96882-6.88721,12.03165l-2.03255-1.07254c2.16879-4.10972,4.512-8.20455,6.964-12.16937Zm-12.93771,24.509c-1.86686,4.20737-3.61263,8.534-5.18914,12.86059l-2.16018-.78693c1.59431-4.37585,3.35987-8.75147,5.247-13.0068Zm-9.48936,26.04685c-1.27873,4.4299-2.42073,8.95561-3.39322,13.45138l-2.247-.48573c.9833-4.54673,2.13763-9.12411,3.43115-13.60311ZM619.57457,229.348c-.66334,4.56522-1.17736,9.20547-1.52682,13.792l-2.29293-.174c.35379-4.63945.87312-9.3318,1.54479-13.9493Zm-2.10326,27.65892c-.03365,4.61074.094,9.27847.37863,13.875l-2.29475.14189c-.28785-4.64835-.41668-9.37011-.38372-14.03385Zm1.71445,27.6927c.60133,4.56449,1.37,9.16577,2.28452,13.67752l-2.25337.45732c-.92529-4.56374-1.70268-9.218-2.31076-13.83386Zm5.50741,27.16514c1.22283,4.434,2.616,8.88608,4.14178,13.2337l-2.17049.76073c-1.54268-4.39676-2.95163-8.89969-4.1883-13.383Z" transform="translate(-157 -53.65269)" fill="#e6e6e6"/><path d="M896.066,445.75943l.86774,2.129c-2.14976.87625-4.32509,1.72048-6.46616,2.50957l-.79522-2.15679C891.78887,447.46052,893.94011,446.62573,896.066,445.75943Z" transform="translate(-157 -53.65269)" fill="#e6e6e6"/><circle cx="411" cy="462.69462" r="43" fill="#6c63ff"/><path d="M223.8789,595.12833h41.30366a144.46152,144.46152,0,0,0,0-49.24667H223.8789A88.6115,88.6115,0,0,1,223.8789,595.12833Z" transform="translate(-157 -53.65269)" fill="#6c63ff"/><path d="M322.1211,647.15059H280.81744a144.46158,144.46158,0,0,1,0-49.24668H322.1211A88.61154,88.61154,0,0,0,322.1211,647.15059Z" transform="translate(-157 -53.65269)" fill="#ff6584"/><path d="M300.8789,727.12833h41.30366a144.46152,144.46152,0,0,0,0-49.24667H300.8789A88.6115,88.6115,0,0,1,300.8789,727.12833Z" transform="translate(-157 -53.65269)" fill="#6c63ff"/><path d="M409.8012,435.298a118.14113,118.14113,0,1,0-54.815,44.01163,38.21536,38.21536,0,1,0,54.815-44.01163Z" transform="translate(-157 -53.65269)" fill="#6c63ff"/><rect x="84.38683" y="292.07388" width="140.5353" height="11.09489" fill="#fff"/><rect x="84.38683" y="310.56537" width="140.5353" height="11.09489" fill="#fff"/><rect x="84.38683" y="329.05685" width="140.5353" height="11.09489" fill="#fff"/><path d="M902.14648,687.86879c-.22949-.375-5.64062-9.41015-7.5166-28.17187-1.7207-17.21289-.61426-46.22656,14.43262-86.69824,28.50586-76.6709-6.56934-138.53321-6.92773-139.14942l1.73046-1.0039c.09082.15625,9.14161,15.92871,14.48829,41.04394a179.06122,179.06122,0,0,1-7.416,99.80664c-28.457,76.54-7.30078,112.77344-7.084,113.13086Z" transform="translate(-157 -53.65269)" fill="#3f3d56"/><circle cx="734" cy="362.69462" r="13" fill="#6c63ff"/><circle cx="775" cy="410.69462" r="13" fill="#3f3d56"/><circle cx="747" cy="442.69462" r="13" fill="#6c63ff"/><circle cx="781" cy="469.69462" r="13" fill="#6c63ff"/><circle cx="737" cy="511.69462" r="13" fill="#3f3d56"/><path d="M910,688.34731s-13-32,26-56Z" transform="translate(-157 -53.65269)" fill="#3f3d56"/><path d="M894.012,687.76684s-5.91642-34.02934-51.7085-33.73768Z" transform="translate(-157 -53.65269)" fill="#3f3d56"/><circle cx="657.44639" cy="177.79135" r="43.65502" fill="#2f2e41"/><path d="M752.62469,325.29506,740.4543,352.88128,727.47255,313.936s-1.62271-34.07709-12.98175-32.45437-1.62271,34.07709-1.62271,34.07709,7.30223,72.211,23.52942,68.15419,26.77486-27.58622,26.77486-27.58622l2.83975-24.87743Z" transform="translate(-157 -53.65269)" fill="#a0616a"/><path d="M797.65514,263.22607s4.86815,26.77486-5.67952,32.45438,40.568,4.05679,41.37933-4.86816c0,0-11.359-27.58622-11.359-34.07709Z" transform="translate(-157 -53.65269)" fill="#a0616a"/><path d="M720.576,483.10446s4.0568,46.24748,5.67951,55.98379,1.62272,24.34078,1.62272,24.34078-4.05679,31.643-2.43407,61.66331l2.43407,25.15214H746.5395l.71233-3.348,7.40126-34.78592s8.1136-28.39757,4.86816-49.49292l8.92495-68.15418Z" transform="translate(-157 -53.65269)" fill="#a0616a"/><path d="M778.18251,499.33164s19.47263,60.852,24.34078,67.34283,11.359,21.09534,11.359,21.09534,13.7931,34.0771,21.09534,39.75661l8.11359,14.60447,13.79311-4.0568-4.0568-32.45437s-1.62271-26.77486-19.47262-50.30428l-8.925-54.36108Z" transform="translate(-157 -53.65269)" fill="#a0616a"/><path d="M827.67543,290.00093s-24.02172,6.27759-33.1062,3.54447c0,0-9.08448-.299-12.32992.51233s-23.52942,8.11359-23.52942,9.73631,4.0568,17.84991,4.0568,17.84991-2.43408,9.73631-1.62272,16.22718-14.60447,26.77486-6.49088,28.39758,12.98175-1.62272,17.03855,1.62272S824.43,385.74133,824.43,385.74133l40.568-80.32457s-6.49087-13.79311-12.17039-13.79311-20.82106-4.15069-20.82106-4.15069Z" transform="translate(-157 -53.65269)" fill="#3f3d56"/><path d="M762.76669,304.6054l-4.0568-1.62272s-14.60447,22.71806-9.73631,25.15214,17.03854,8.11359,17.03854,8.11359Z" transform="translate(-157 -53.65269)" fill="#3f3d56"/><path d="M761.144,363.02327l-12.98175,21.09535s-20.284,3.24543-21.90671,30.83165c0,0-13.7931,4.86816-17.03854,30.0203,0,0-20.284,12.98175-9.73631,27.58622s67.34282,43.8134,127.38341,34.07709c0,0,11.359-22.71806,3.24544-38.13389,0,0,8.70278-16.36794-6.19628-27.65659,0,0,12.68716-16.15682-.29459-34.00672l.81136-25.9635Z" transform="translate(-157 -53.65269)" fill="#2f2e41"/><path d="M748.97358,647.81041H726.25551s-.81135,20.284-9.73631,25.15214-25.9635,30.83165-12.98175,34.07709,51.11564-21.09534,51.11564-26.77486S748.97358,647.81041,748.97358,647.81041Z" transform="translate(-157 -53.65269)" fill="#2f2e41"/><path d="M858.50709,634.82866l-19.47263,7.30223s14.60447,39.75661,14.60447,45.43612,2.43408,12.17039,17.03855,9.73632,12.17039-13.79311,12.17039-13.79311Z" transform="translate(-157 -53.65269)" fill="#2f2e41"/><circle cx="648.76873" cy="191.72348" r="25.15214" fill="#a0616a"/><path d="M861.75253,333.003s-11.359,40.568-12.98175,43.8134l-26.77486,68.96555s3.24544,34.88845-8.92495,29.20893-.81136-35.69981-.81136-35.69981l18.66126-73.8337L841.46854,333.003Z" transform="translate(-157 -53.65269)" fill="#a0616a"/><path d="M855.26165,298.92588l9.73631,6.49088s8.1136,31.643,0,30.83165-26.77485,4.0568-27.58621,2.43408S855.26165,298.92588,855.26165,298.92588Z" transform="translate(-157 -53.65269)" fill="#3f3d56"/><circle cx="671.00475" cy="132.05493" r="18.06415" fill="#2f2e41"/><path d="M803.91923,175.92287a18.066,18.066,0,0,1,16.18246-17.96647,18.26438,18.26438,0,0,0-1.88168-.09767,18.06414,18.06414,0,1,0,0,36.12829,18.26438,18.26438,0,0,0,1.88168-.09767A18.066,18.066,0,0,1,803.91923,175.92287Z" transform="translate(-157 -53.65269)" fill="#2f2e41"/><ellipse cx="650.14416" cy="163.55139" rx="30.10691" ry="18.06415" fill="#2f2e41"/><ellipse cx="675.54359" cy="190.50644" rx="2.0284" ry="4.86816" fill="#a0616a"/><rect x="286.98835" y="87.38272" width="274" height="152.59843" fill="#3f3d56"/><rect x="337.32753" y="145.78128" width="172.66082" height="5.06104" fill="#fff"/><rect x="337.32753" y="166.02543" width="172.66082" height="5.06104" fill="#fff"/><rect x="337.32753" y="186.26959" width="172.66082" height="5.06104" fill="#fff"/><rect x="286.98835" y="87.54808" width="274" height="17" fill="#6c63ff"/><circle cx="298.18066" cy="96.54808" r="6.19231" fill="#e6e6e6"/><circle cx="314.98835" cy="96.54808" r="6.19231" fill="#e6e6e6"/><circle cx="331.79604" cy="96.54808" r="6.19231" fill="#e6e6e6"/></svg>