<svg id="bf043aff-d5a6-4419-8950-3fc04a49c0cd" data-name="Layer 1" xmlns="http://www.w3.org/2000/svg" width="921.96994" height="726.74574" viewBox="0 0 921.96994 726.74574"><title>trends</title><ellipse cx="211.00006" cy="709.22497" rx="141" ry="17" fill="#f2f2f2"/><ellipse cx="508.00006" cy="709.22497" rx="141" ry="17" fill="#f2f2f2"/><path d="M830.68485,494.61764l12.33024-74.32455L689.067,387.67756l6.31964-189.589H620.04631L614.255,371.82779,407.017,327.92221l4.3278-129.83367H336.00443L332.205,312.07244,180.78869,279.99328l-12.33024,74.3245,161.2,34.152-4.91179,147.35372L151.34533,499.08656l-12.33025,74.3245L322.2,612.22075l-6.11314,183.39491h75.34037l5.58486-167.54513,207.238,43.90563-4.12133,123.6395h75.34037l3.593-107.78978,122.17937,25.885,12.33025-74.32455-131.963-27.95781,4.91179-147.35372ZM606.79664,595.57884l-207.238-43.90559,4.91179-147.35377,207.238,43.90563Z" transform="translate(-139.01503 -86.62713)" fill="#3f3d56"/><polygon points="488.565 508.952 493.477 361.598 286.239 317.692 286.093 322.065 472.693 361.598 467.927 504.579 488.565 508.952" opacity="0.2"/><polygon points="496.024 285.201 501.815 111.461 481.031 111.461 475.386 280.828 496.024 285.201" opacity="0.2"/><polygon points="568.289 377.448 568.143 381.82 691.67 407.991 692.376 403.737 568.289 377.448" opacity="0.2"/><polygon points="213.974 225.445 217.773 111.461 196.989 111.461 193.336 221.073 213.974 225.445" opacity="0.2"/><polygon points="560.831 601.199 560.685 605.571 662.226 627.084 662.932 622.83 560.831 601.199" opacity="0.2"/><polygon points="278.781 541.443 278.635 545.816 465.235 585.349 461.114 708.989 481.897 708.989 486.019 585.349 278.781 541.443" opacity="0.2"/><polygon points="185.877 444.824 206.515 449.196 211.427 301.843 50.227 267.691 61.851 197.62 41.774 193.366 29.443 267.691 190.643 301.843 185.877 444.824" opacity="0.2"/><polygon points="20.784 486.784 32.408 416.713 12.33 412.459 0 486.784 183.185 525.594 177.072 708.989 197.855 708.989 203.969 525.594 20.784 486.784" opacity="0.2"/><rect x="733.95985" y="116.34681" width="76.44942" height="130.56214" fill="#2f2e41"/><path d="M964.70158,197.49c-8.26,24.45585-20.92568,46.7388-46.73881,46.7388S872.6784,223.26208,871.224,197.49c-1.85847-32.93163,20.33021-46.87521,46.7388-46.7388C949.16024,150.9123,974.50424,168.46681,964.70158,197.49Z" transform="translate(-139.01503 -86.62713)" fill="#2f2e41"/><path d="M886.76913,381.00891,859.77466,482.55954s-35.99263,8.99816-32.13628,17.99631,42.41989-6.42725,42.41989-6.42725l34.70717-84.83977Z" transform="translate(-139.01503 -86.62713)" fill="#ffb9b9"/><path d="M908.6218,715.22617s24.42357,24.42357,8.99815,41.13444h32.13628l-20.56722-51.418Z" transform="translate(-139.01503 -86.62713)" fill="#ffb9b9"/><path d="M933.804,755.54152s0-10.55657-10.29635-4.22263-43.47351,23.22447-43.47351,23.22447-22.8808,12.66789,10.29635,14.77921,65.21027-5.27829,65.21027-9.50092-3.43212-24.44222-3.43212-24.44222S945.2444,762.93113,933.804,755.54152Z" transform="translate(-139.01503 -86.62713)" fill="#2f2e41"/><polygon points="799.172 649.166 797.887 691.586 822.31 695.442 822.31 654.308 799.172 649.166" fill="#ffb9b9"/><circle cx="776.03402" cy="132.41495" r="34.70718" fill="#ffb9b9"/><path d="M902.83727,246.67928s16.71086,38.56353,3.85635,51.418,19.28177,0,19.28177,0,16.71086-24.42357,29.56537-25.709c0,0-19.28177-10.28361-17.99632-37.27808Z" transform="translate(-139.01503 -86.62713)" fill="#ffb9b9"/><path d="M880.34187,433.7124l-2.5709,60.4162S831.49474,614.961,849.49105,643.24092s60.4162,79.698,60.4162,79.698,24.42357-11.56906,24.42357-17.99631c0,0-24.42357-60.4162-44.99079-74.55616,0,0,1.28545-24.42357,20.56722-50.13259l17.99631,62.9871,7.71271,96.40882s21.85267,7.71271,29.56537,3.85636c0,0,16.71086-61.70165,5.14181-97.69428l-2.57091-98.97973s33.42173-48.84714-8.99815-106.69243l-6.42726-20.56722S886.76913,425.9997,880.34187,433.7124Z" transform="translate(-139.01503 -86.62713)" fill="#2f2e41"/><path d="M940.75807,771.786s0-12.85451-11.56906-5.14181-48.84714,28.27993-48.84714,28.27993-25.709,15.42541,11.56906,17.99631,73.27071-6.42725,73.27071-11.56906-3.85635-29.76274-3.85635-29.76274S953.61258,780.78418,940.75807,771.786Z" transform="translate(-139.01503 -86.62713)" fill="#2f2e41"/><path d="M913.12088,294.241l40.3954-23.16175s59.86977,1.30908,56.01342,32.1599c0,0-11.56906,39.849-15.42541,35.99263l-7.71271-7.7127s-28.27992,57.84529-28.27992,69.41435a70.04087,70.04087,0,0,1-3.85635,21.85267L884.841,433.06968s7.71271-43.70534-3.85635-51.418-15.42541-28.27993-3.85635-46.27624A149.40828,149.40828,0,0,0,888.557,313.66657a38.54273,38.54273,0,0,1,21.3475-20.61009h0Z" transform="translate(-139.01503 -86.62713)" fill="#6c63ff"/><path d="M1003.10245,299.38277s68.1289,55.27439,56.55984,66.84345-74.55616,57.8453-74.55616,57.8453-6.42725,38.56353-19.28176,37.27808,2.5709-47.56169,2.5709-47.56169l53.98894-51.418-29.56537-30.85082Z" transform="translate(-139.01503 -86.62713)" fill="#ffb9b9"/><circle cx="778.94774" cy="55.51425" r="18.44953" fill="#2f2e41"/><path d="M895.82334,132.30163a18.4503,18.4503,0,0,1,16.60458-18.35636c-.607-.06029-1.22209-.09317-1.845-.09317a18.44953,18.44953,0,1,0,0,36.89906c.62287,0,1.238-.03288,1.845-.09317A18.45035,18.45035,0,0,1,895.82334,132.30163Z" transform="translate(-139.01503 -86.62713)" fill="#2f2e41"/><path d="M896.679,182.00618s-.38524-2.14454-15.452,3.50551-24.09831,47.34494-16.56491,71.82849c3.03593,9.86677.56626,16.98075-3.4646,21.95823-15.12625,18.67857-9.17167,46.73327,12.86088,56.33844q.93285.40668,1.90382.804l9.41675,5.65005s-12.00433-15.79518-5.99691-36.00011a103.59291,103.59291,0,0,0,1.86938-53.03255c-.68921-2.95888-1.4721-6.00891-2.36141-9.12149-7.5334-26.3669-3.86948-23.32192,22.49742-49.68882,0,0,15.0668,11.3001,28.25025,16.95015s24.48355,11.3001,15.0668,30.1336-32.01695,35.78365-16.95015,60.26719,16.95015,15.0668,15.0668,24.48355h0l-1.88335,9.41675,11.3001-11.3001-7.5334,15.0668s24.48355,0,32.017-18.8335l3.76669,3.7667s15.0668-26.3669-13.18344-50.85044c0,0-9.41675-5.65005,3.7667-24.48355s3.0584-59.32553-13.89175-66.85893S896.679,182.00618,896.679,182.00618Z" transform="translate(-139.01503 -86.62713)" fill="#2f2e41"/><polygon points="386.429 40.573 367.35 33.045 348.271 25.517 364.33 12.759 380.389 0 383.409 20.287 386.429 40.573" fill="#f2f2f2"/><polygon points="371.248 183.963 352.17 176.435 333.091 168.906 348.24 158.453 363.389 148 367.319 165.981 371.248 183.963" fill="#f2f2f2"/><polygon points="338.429 376.573 319.35 369.045 300.271 361.517 316.33 348.759 332.389 336 335.409 356.287 338.429 376.573" fill="#f2f2f2"/><polygon points="138.374 594.33 120.355 604.127 102.336 613.925 102.86 593.421 103.385 572.918 120.879 583.624 138.374 594.33" fill="#f2f2f2"/><polygon points="120.374 134.33 102.355 144.127 84.336 153.925 84.86 133.421 85.385 112.918 102.879 123.624 120.374 134.33" fill="#f2f2f2"/><path d="M350.8624,764.43644C363.17215,785.42883,387.99887,793.74,387.99887,793.74s4.86867-25.72425-7.44108-46.71665-37.13647-29.30353-37.13647-29.30353S338.55266,743.444,350.8624,764.43644Z" transform="translate(-139.01503 -86.62713)" fill="#f2f2f2"/><path d="M358.5436,757.10963c21.28835,11.79052,30.20667,36.40564,30.20667,36.40564s-25.59693,5.49892-46.88528-6.2916S311.65831,750.818,311.65831,750.818,337.25524,745.31911,358.5436,757.10963Z" transform="translate(-139.01503 -86.62713)" fill="#6c63ff"/><path d="M743.0348,747.04837c-14.29766,19.69232-11.96005,45.76868-11.96005,45.76868s25.51871-5.8512,39.81637-25.54351,11.96005-45.76868,11.96005-45.76868S757.33247,727.35606,743.0348,747.04837Z" transform="translate(-139.01503 -86.62713)" fill="#6c63ff"/><path d="M752.82622,751.14849c-2.26834,24.22942-21.24441,42.26688-21.24441,42.26688s-15.29835-21.24621-13.03-45.47564,21.24442-42.26688,21.24442-42.26688S755.09457,726.91906,752.82622,751.14849Z" transform="translate(-139.01503 -86.62713)" fill="#6c63ff"/><path d="M994.01509,288.8521l-5,38,5,12s22-27,15-42S994.01509,288.8521,994.01509,288.8521Z" transform="translate(-139.01503 -86.62713)" fill="#6c63ff"/></svg>