<svg width="678" height="240" viewBox="0 0 678 240" fill="none" xmlns="http://www.w3.org/2000/svg">
<path d="M352.976 115.283C355.476 115.283 357.815 114.845 359.976 113.963C362.143 113.085 364.204 111.967 366.169 110.615L371.443 117.921C369.111 119.916 366.276 121.531 362.944 122.769C359.613 124.001 356.169 124.619 352.619 124.619C347.139 124.619 342.445 123.461 338.536 121.145C334.63 118.828 331.647 115.581 329.608 111.402C327.559 107.225 326.532 102.329 326.532 96.712C326.532 91.268 327.579 86.404 329.656 82.126C331.738 77.844 334.739 74.462 338.663 71.975C342.587 69.49 347.305 68.247 352.82 68.247C359.995 68.247 366.182 70.395 371.393 74.691L366.167 81.846C364.067 80.391 361.919 79.283 359.72 78.521C357.522 77.76 355.292 77.378 353.025 77.378C348.761 77.378 345.296 78.936 342.621 82.046C339.945 85.158 338.614 90.046 338.614 96.71C338.614 103.41 339.968 108.179 342.675 111.022C345.379 113.863 348.812 115.283 352.976 115.283Z" fill="#EB007D"/>
<path d="M409.5 68.246C417.349 68.246 423.334 70.8 427.466 75.907C431.587 81.016 433.652 87.83 433.652 96.357C433.652 102.04 432.716 106.998 430.836 111.222C428.961 115.452 426.221 118.742 422.617 121.093C419.013 123.444 414.626 124.616 409.449 124.616C401.636 124.616 395.647 122.093 391.486 117.032C387.325 111.974 385.247 105.117 385.247 96.456C385.247 90.909 386.18 86.012 388.06 81.768C389.937 77.524 392.685 74.206 396.31 71.822C399.925 69.436 404.323 68.246 409.5 68.246ZM417.671 40.896L422.435 50.028L400.214 58.957L396.864 53.072L417.671 40.896ZM409.5 77.075C405.404 77.075 402.329 78.639 400.264 81.768C398.2 84.898 397.17 89.792 397.17 96.456C397.17 103.121 398.19 108.019 400.235 111.145C402.284 114.277 405.353 115.839 409.447 115.839C413.539 115.839 416.607 114.266 418.656 111.119C420.701 107.973 421.728 103.052 421.728 96.353C421.728 89.754 420.71 84.895 418.681 81.765C416.65 78.639 413.592 77.075 409.5 77.075Z" fill="#EB007D"/>
<path d="M480.384 46.882L491.752 48.152V123.25H481.752L480.941 116.655C479.117 119.19 476.934 121.153 474.397 122.54C471.859 123.926 469.017 124.618 465.871 124.618C461.271 124.618 457.489 123.444 454.533 121.095C451.567 118.742 449.364 115.454 447.911 111.224C446.454 106.999 445.726 102.075 445.726 96.459C445.726 91.014 446.572 86.167 448.264 81.922C449.956 77.678 452.372 74.335 455.517 71.901C458.664 69.465 462.455 68.248 466.885 68.248C472.402 68.248 476.9 70.191 480.382 74.083L480.384 46.882ZM469.881 76.971C466.059 76.971 463.081 78.554 460.95 81.718C458.82 84.88 457.755 89.792 457.755 96.456C457.755 103.289 458.725 108.237 460.672 111.296C462.617 114.361 465.349 115.891 468.865 115.891C471.437 115.891 473.671 115.148 475.564 113.66C477.459 112.171 479.069 110.38 480.382 108.281V82.91C479.069 81.016 477.523 79.553 475.765 78.519C474.01 77.489 472.045 76.971 469.881 76.971Z" fill="#EB007D"/>
<path d="M539.092 69.665V114.93H553.655V123.249H511.692V114.93H527.718V77.989H512.198V69.666H539.092V69.665ZM531.176 43.434C533.411 43.434 535.21 44.109 536.58 45.461C537.951 46.815 538.639 48.506 538.639 50.536C538.639 52.565 537.951 54.274 536.58 55.661C535.21 57.048 533.411 57.743 531.176 57.743C529.015 57.743 527.238 57.048 525.849 55.661C524.459 54.275 523.767 52.566 523.767 50.536C523.767 48.506 524.459 46.815 525.849 45.461C527.237 44.109 529.015 43.434 531.176 43.434Z" fill="#EB007D"/>
<path d="M615.811 62.866L618.858 72.305C616.724 73.017 614.383 73.489 611.829 73.725C609.278 73.963 606.427 74.08 603.281 74.08C606.494 75.501 608.911 77.319 610.542 79.535C612.16 81.75 612.974 84.466 612.974 87.68C612.974 91.163 612.126 94.276 610.436 97.016C608.744 99.756 606.316 101.904 603.154 103.458C599.993 105.016 596.231 105.793 591.866 105.793C590.307 105.793 588.968 105.727 587.834 105.588C586.697 105.455 585.595 105.234 584.507 104.931C582.918 105.979 582.123 107.452 582.123 109.347C582.123 110.43 582.568 111.368 583.47 112.162C584.363 112.957 586.149 113.352 588.821 113.352H598.16C601.982 113.352 605.355 114.004 608.282 115.308C611.206 116.609 613.512 118.385 615.182 120.631C616.859 122.885 617.693 125.428 617.693 128.272C617.693 133.615 615.394 137.757 610.794 140.703C606.193 143.647 599.563 145.117 590.903 145.117C584.745 145.117 579.936 144.489 576.47 143.24C572.998 141.988 570.559 140.128 569.135 137.659C567.707 135.189 567.002 132.161 567.002 128.579H577.201C577.201 130.472 577.563 132.027 578.291 133.244C579.021 134.461 580.381 135.366 582.377 135.958C584.372 136.551 587.249 136.851 591.005 136.851C596.582 136.851 600.526 136.163 602.822 134.792C605.127 133.423 606.278 131.503 606.278 129.033C606.278 126.833 605.328 125.15 603.435 123.983C601.539 122.818 599.003 122.233 595.822 122.233H586.639C581.566 122.233 577.849 121.201 575.499 119.14C573.146 117.076 571.975 114.669 571.975 111.933C571.975 108.077 573.97 104.847 577.957 102.241C574.746 100.552 572.402 98.494 570.935 96.076C569.46 93.658 568.727 90.723 568.727 87.271C568.727 83.483 569.671 80.167 571.572 77.325C573.461 74.484 576.09 72.27 579.46 70.679C582.823 69.09 586.705 68.294 591.106 68.294C595.403 68.327 598.988 68.108 601.863 67.635C604.736 67.161 607.25 66.512 609.399 65.68C611.541 64.854 613.683 63.915 615.811 62.866ZM591.199 76.109C587.584 76.109 584.856 77.131 583.033 79.179C581.204 81.227 580.291 83.89 580.291 87.169C580.291 90.553 581.223 93.27 583.085 95.315C584.945 97.362 587.701 98.384 591.355 98.384C594.703 98.384 597.263 97.404 599.043 95.442C600.813 93.479 601.705 90.691 601.705 87.068C601.705 79.764 598.205 76.109 591.199 76.109Z" fill="#EB007D"/>
<path d="M653.058 68.246C660.902 68.246 666.896 70.8 671.019 75.907C675.145 81.016 677.211 87.83 677.211 96.357C677.211 102.04 676.272 106.998 674.394 111.222C672.517 115.452 669.775 118.742 666.172 121.093C662.57 123.444 658.182 124.616 653.009 124.616C645.195 124.616 639.209 122.093 635.046 117.032C630.882 111.974 628.804 105.117 628.804 96.456C628.804 90.909 629.742 86.012 631.617 81.768C633.498 77.524 636.245 74.206 639.862 71.822C643.485 69.436 647.883 68.246 653.058 68.246ZM653.058 77.075C648.965 77.075 645.888 78.639 643.825 81.768C641.762 84.898 640.725 89.792 640.725 96.456C640.725 103.121 641.748 108.019 643.794 111.145C645.843 114.277 648.914 115.839 653.009 115.839C657.1 115.839 660.168 114.266 662.218 111.119C664.26 107.973 665.283 103.052 665.283 96.353C665.283 89.754 664.27 84.895 662.242 81.765C660.214 78.639 657.151 77.075 653.058 77.075Z" fill="#EB007D"/>
<path d="M359.721 151.562C363.003 151.562 365.94 151.841 368.528 152.401C371.115 152.959 373.507 153.713 375.705 154.657L372.357 162.523C370.567 161.78 368.694 161.24 366.752 160.9C364.809 160.561 362.837 160.391 360.84 160.391C353.939 160.391 350.487 163.165 350.487 168.714V178.201H368.398L367.186 186.572H350.487V227.928H339.17V186.572H326.996V178.201H339.17V168.61C339.17 163.537 341.048 159.425 344.806 156.28C348.563 153.136 353.532 151.562 359.721 151.562Z" fill="#EB007D"/>
<path d="M428.987 214.786C428.987 216.919 429.303 218.456 429.948 219.404C430.591 220.353 431.619 221.062 433.044 221.536L430.509 229.248C427.867 228.943 425.593 228.218 423.683 227.068C421.771 225.918 420.342 224.174 419.395 221.839C417.433 224.344 414.945 226.212 411.938 227.444C408.92 228.68 405.709 229.298 402.294 229.298C396.85 229.298 392.551 227.767 389.404 224.705C386.258 221.644 384.686 217.627 384.686 212.652C384.686 207.005 386.88 202.657 391.283 199.611C395.678 196.568 401.971 195.047 410.159 195.047H417.82V191.545C417.82 188.062 416.77 185.566 414.678 184.061C412.574 182.556 409.652 181.803 405.895 181.803C404.137 181.803 402.008 182.031 399.5 182.487C396.996 182.945 394.377 183.648 391.637 184.594L388.844 176.575C392.194 175.323 395.476 174.403 398.69 173.81C401.903 173.218 404.88 172.921 407.618 172.921C414.788 172.921 420.148 174.514 423.681 177.691C427.218 180.871 428.987 185.27 428.987 190.883V214.786ZM405.74 220.927C408.047 220.927 410.291 220.32 412.493 219.1C414.69 217.884 416.467 216.176 417.819 213.975V202.154H411.526C406.181 202.154 402.359 203.043 400.061 204.817C397.757 206.591 396.607 209.037 396.607 212.148C396.608 218.002 399.655 220.927 405.74 220.927Z" fill="#EB007D"/>
<path d="M472.474 152.829V213.315C472.474 215.784 473.222 217.535 474.728 218.566C476.234 219.599 478.186 220.114 480.592 220.114C482.113 220.114 483.572 219.954 484.98 219.635C486.38 219.312 487.742 218.88 489.063 218.339L491.956 226.255C490.362 227.068 488.407 227.776 486.099 228.385C483.778 228.994 481.132 229.3 478.156 229.3C472.776 229.3 468.591 227.778 465.595 224.732C462.604 221.688 461.108 217.544 461.108 212.3V161.203H444.919V152.828H472.474V152.829Z" fill="#EB007D"/>
<path d="M550.764 214.786C550.764 216.919 551.086 218.456 551.729 219.404C552.368 220.353 553.398 221.062 554.822 221.536L552.289 229.248C549.647 228.943 547.372 228.218 545.458 227.068C543.551 225.918 542.119 224.174 541.176 221.839C539.21 224.344 536.725 226.212 533.719 227.444C530.703 228.68 527.49 229.298 524.076 229.298C518.626 229.298 514.328 227.767 511.184 224.705C508.036 221.644 506.465 217.627 506.465 212.652C506.465 207.005 508.663 202.657 513.062 199.611C517.459 196.568 523.751 195.047 531.94 195.047H539.6V191.545C539.6 188.062 538.554 185.566 536.455 184.061C534.356 182.556 531.431 181.803 527.676 181.803C525.915 181.803 523.783 182.031 521.282 182.487C518.777 182.945 516.157 183.648 513.414 184.594L510.628 176.575C513.972 175.323 517.258 174.403 520.471 173.81C523.685 173.218 526.659 172.921 529.399 172.921C536.571 172.921 541.927 174.514 545.457 177.691C548.997 180.871 550.766 185.27 550.766 190.883L550.764 214.786ZM527.526 220.927C529.825 220.927 532.068 220.32 534.272 219.1C536.471 217.884 538.249 216.176 539.599 213.975V202.154H533.307C527.959 202.154 524.14 203.043 521.836 204.817C519.536 206.591 518.386 209.037 518.386 212.148C518.387 218.002 521.436 220.927 527.526 220.927Z" fill="#EB007D"/>
<path d="M602.16 151.562L613.527 152.83V227.932H603.532L602.719 221.332C600.894 223.869 598.712 225.831 596.174 227.22C593.633 228.61 590.799 229.302 587.65 229.302C583.046 229.302 579.268 228.125 576.309 225.775C573.347 223.422 571.141 220.134 569.688 215.907C568.232 211.678 567.506 206.758 567.506 201.138C567.506 195.693 568.349 190.848 570.041 186.604C571.732 182.356 574.149 179.016 577.298 176.581C580.443 174.143 584.233 172.929 588.665 172.929C594.179 172.929 598.677 174.873 602.158 178.764L602.16 151.562ZM591.66 181.652C587.837 181.652 584.856 183.234 582.73 186.397C580.597 189.56 579.525 194.474 579.525 201.135C579.525 207.968 580.504 212.915 582.45 215.98C584.395 219.041 587.125 220.572 590.642 220.572C593.217 220.572 595.447 219.828 597.338 218.34C599.233 216.852 600.841 215.059 602.158 212.962V187.593C600.841 185.697 599.3 184.235 597.546 183.2C595.785 182.17 593.826 181.652 591.66 181.652Z" fill="#EB007D"/>
<path d="M653.058 172.926C660.902 172.926 666.896 175.48 671.019 180.586C675.145 185.696 677.211 192.511 677.211 201.035C677.211 206.721 676.272 211.675 674.394 215.904C672.517 220.133 669.775 223.421 666.172 225.772C662.57 228.123 658.182 229.299 653.009 229.299C645.195 229.299 639.209 226.769 635.046 221.713C630.882 216.655 628.804 209.796 628.804 201.135C628.804 195.589 629.742 190.693 631.617 186.447C633.498 182.203 636.245 178.887 639.862 176.502C643.485 174.118 647.883 172.926 653.058 172.926ZM653.058 181.756C648.965 181.756 645.888 183.32 643.825 186.447C641.762 189.576 640.725 194.474 640.725 201.135C640.725 207.802 641.748 212.698 643.794 215.826C645.843 218.956 648.914 220.518 653.009 220.518C657.1 220.518 660.168 218.947 662.218 215.799C664.26 212.653 665.283 207.731 665.283 201.031C665.283 194.435 664.27 189.572 662.242 186.443C660.214 183.32 657.151 181.756 653.058 181.756Z" fill="#EB007D"/>
<path d="M302.357 70.528C300.609 69.935 299.954 68.293 300.532 66.591C301.12 64.847 302.678 64.003 304.327 64.566C305.977 65.123 306.743 66.753 306.152 68.5C305.571 70.199 304.01 71.088 302.357 70.528Z" fill="#EB007D"/>
<path d="M292.587 67.211C290.841 66.619 290.183 64.976 290.762 63.274C291.355 61.528 292.9 60.686 294.556 61.246C296.209 61.809 296.97 63.435 296.377 65.184C295.802 66.885 294.237 67.771 292.587 67.211Z" fill="#EB007D"/>
<path d="M282.811 63.894C281.069 63.302 280.418 61.659 280.991 59.959C281.588 58.212 283.134 57.371 284.788 57.932C286.436 58.492 287.202 60.12 286.61 61.865C286.032 63.565 284.464 64.455 282.811 63.894Z" fill="#EB007D"/>
<path d="M85.309 45.335L73.524 56.891L72.879 54.807L82.859 45.232L82.842 45.171L69.2 42.901L68.547 40.817L84.807 43.703L85.309 45.335Z" fill="#EB007D"/>
<path d="M73.025 58.847L71.684 54.494L80.672 45.874L68.383 43.832L67.042 39.481L85.621 42.781L86.499 45.636L73.025 58.847ZM83.761 44.583L83.948 45.197L84.119 45.034L83.987 44.626L83.761 44.583Z" fill="#EB007D"/>
<path d="M69.903 59.332L54.672 40.043L56.731 39.407L71.934 58.707L69.903 59.332Z" fill="#EB007D"/>
<path d="M73.703 59.259L69.527 60.547L52.903 39.492L57.109 38.19L73.703 59.259Z" fill="#EB007D"/>
<path d="M42.402 56.779L54.203 45.255L54.846 47.338L44.768 56.942L44.789 57L58.525 59.243L59.17 61.33L42.928 58.472L42.402 56.779Z" fill="#EB007D"/>
<path d="M60.68 62.659L42.111 59.393L41.209 56.474L54.693 43.298L56.043 47.648L46.974 56.293L59.339 58.311L60.68 62.659ZM43.741 57.545L43.866 57.569L43.69 56.992L43.595 57.08L43.741 57.545Z" fill="#EB007D"/>
<path d="M259.559 96.298C259.559 96.298 290.737 103.634 286.957 139.386C286.957 139.386 284.635 164.454 264.971 173.468L244.864 140.391L259.559 96.298Z" fill="#EB007D"/>
<path d="M254.438 130.814C254.438 130.814 259.781 118.566 260.456 110.103C260.456 110.103 274.927 114.335 276.044 133.04C276.044 133.04 276.487 149.963 262.902 160.209C262.902 160.209 253.79 144.776 249.542 141.945C245.286 139.119 249.542 140.836 249.542 140.836C249.542 140.836 253.774 133.709 268.025 135.156C268.025 135.156 263.796 131.926 254.438 130.814Z" fill="#E2CFC0"/>
<path d="M129.683 96.298C129.683 96.298 98.512 103.634 102.294 139.386C102.294 139.386 104.617 164.454 124.284 173.468L144.382 140.391L129.683 96.298Z" fill="#EB007D"/>
<path d="M134.804 130.814C134.804 130.814 129.465 118.566 128.796 110.103C128.796 110.103 114.32 114.335 113.21 133.04C113.21 133.04 112.764 149.963 126.346 160.209C126.346 160.209 135.453 144.776 139.712 141.945C143.961 139.119 139.712 140.836 139.712 140.836C139.712 140.836 135.473 133.709 121.218 135.156C121.216 135.156 125.453 131.926 134.804 130.814Z" fill="#E2CFC0"/>
<path d="M176.234 224.534C173.97 229.061 178.624 235.865 178.624 235.865C178.022 228.588 184.94 225.602 184.94 225.602C181.246 235.386 189.717 239.682 189.717 239.682C187.334 230.733 193.297 227.156 193.297 227.156C236.971 221.668 253.913 204.244 253.913 204.244C286.371 174.413 253.195 137.901 253.195 137.901C262.265 121.433 260.835 105.92 260.835 105.92C260.358 56.043 231.481 46.498 231.481 46.498L230.291 59.625C220.268 28.837 206.104 33.133 206.104 33.133C211.516 44.35 208.969 53.818 208.969 53.818C208.969 53.818 206.104 33.133 161.56 37.589C161.56 37.589 142.468 37.272 140.233 35.36C138.01 33.454 140 36.425 140.233 36.633C144.976 40.79 157.418 45.544 158.69 53.819H147.555C147.555 53.819 153.601 59.865 151.689 65.911C151.689 65.911 143.257 59.707 135.466 63.047C135.466 63.047 137.976 75.05 131.801 85.956C125.345 97.362 118.839 112.603 138.883 137.903L139.02 138.366C139.02 138.366 105.848 174.879 138.302 204.707C138.302 204.707 154.323 219.665 174.615 224.197L176.234 224.534Z" fill="#EB007D"/>
<path d="M195.446 217.37C182.562 215.936 179.221 209.255 179.221 209.255C145.051 204.724 140.72 175.608 144.143 163.436C147.267 152.321 161.794 140.287 161.794 140.287C150.825 133.128 143.903 121.911 143.903 121.911C131.254 96.138 150.343 79.196 150.343 79.196C172.297 59.389 191.631 81.58 191.631 81.58C193.777 84.208 196.401 83.73 196.401 83.73H195.815C195.815 83.73 198.44 84.208 200.592 81.58C200.592 81.58 219.918 59.39 241.878 79.196C241.878 79.196 260.968 96.137 248.319 121.911C248.319 121.911 241.398 133.128 230.422 140.287C230.422 140.287 244.956 152.321 248.08 163.436C251.506 175.608 246.72 207.11 212.998 209.255C212.998 209.255 209.662 215.938 196.769 217.37H195.446Z" fill="#E2CFC0"/>
<path opacity="0.2" d="M213.106 209.495C246.818 207.347 251.607 175.848 248.188 163.676C245.064 152.558 230.526 140.528 230.526 140.528C230.526 140.528 265.522 186.982 213.106 209.495Z" fill="#EB007D"/>
<path d="M161.757 91.763C161.757 91.763 162.457 91.148 163.652 90.488C164.249 90.154 164.965 89.808 165.752 89.496C166.543 89.171 167.415 88.909 168.301 88.681C168.747 88.595 169.188 88.486 169.646 88.426C170.093 88.354 170.54 88.316 170.98 88.3C171.412 88.265 171.837 88.28 172.241 88.319C172.64 88.332 173.03 88.404 173.38 88.488C173.554 88.531 173.722 88.558 173.878 88.61C174.032 88.673 174.18 88.734 174.312 88.786C174.582 88.894 174.808 88.998 174.978 89.14C175.319 89.391 175.486 89.536 175.486 89.536L175.437 89.619C175.437 89.619 175.234 89.532 174.88 89.382C174.713 89.29 174.482 89.246 174.218 89.193C173.958 89.124 173.664 89.07 173.332 89.062C173.002 89.031 172.642 89.014 172.267 89.041C171.883 89.043 171.49 89.08 171.071 89.138C170.658 89.172 170.241 89.254 169.815 89.333C169.377 89.399 168.956 89.519 168.524 89.61C165.063 90.412 161.796 91.857 161.796 91.857L161.757 91.763Z" fill="#EB007D"/>
<path d="M232.957 92.749C232.957 92.749 232.04 92.637 230.739 92.351C230.085 92.214 229.329 92.044 228.539 91.845C228.14 91.741 227.726 91.671 227.313 91.548C226.9 91.45 226.481 91.338 226.059 91.248C225.64 91.154 225.221 91.026 224.808 90.958C224.396 90.883 223.997 90.762 223.603 90.708C223.212 90.639 222.833 90.56 222.479 90.52C222.115 90.46 221.778 90.42 221.466 90.409C221.142 90.37 220.86 90.367 220.609 90.382C220.344 90.39 220.102 90.375 219.928 90.425C219.559 90.487 219.317 90.519 219.317 90.519L219.273 90.436C219.273 90.436 219.475 90.344 219.838 90.186C220.011 90.086 220.245 90.04 220.509 89.979C220.773 89.911 221.078 89.85 221.411 89.833C221.747 89.799 222.107 89.774 222.493 89.799C222.877 89.797 223.277 89.825 223.7 89.876C224.119 89.909 224.543 89.985 224.975 90.058C225.406 90.119 225.838 90.235 226.277 90.324C229.745 91.17 232.994 92.663 232.994 92.663L232.957 92.749Z" fill="#EB007D"/>
<path d="M179.765 116.857C179.296 118.534 177.78 119.768 175.952 119.768C173.758 119.768 171.974 117.988 171.974 115.79C171.974 114.292 172.812 113.004 174.035 112.327C173.371 112.166 172.685 112.073 171.974 112.073C167.146 112.073 163.225 115.992 163.225 120.824C163.225 125.655 167.145 129.573 171.974 129.573C176.809 129.573 180.728 125.655 180.728 120.824C180.729 119.396 180.375 118.05 179.765 116.857Z" fill="#EB007D"/>
<path d="M231.316 116.857C230.85 118.534 229.328 119.768 227.503 119.768C225.307 119.768 223.525 117.988 223.525 115.79C223.525 114.292 224.362 113.004 225.585 112.327C224.919 112.166 224.231 112.073 223.525 112.073C218.692 112.073 214.775 115.992 214.775 120.824C214.775 125.655 218.692 129.573 223.525 129.573C228.357 129.573 232.275 125.655 232.275 120.824C232.276 119.396 231.922 118.05 231.316 116.857Z" fill="#EB007D"/>
<path d="M167.485 41.009C167.485 41.009 191.113 37.188 204.953 52.466C204.952 52.466 199.223 44.827 167.485 41.009Z" fill="#E2CFC0"/>
<path d="M237.647 52.466C237.647 52.466 255.819 64.198 256.975 97.329C256.975 97.329 249.818 63.441 237.647 52.466Z" fill="#E2CFC0"/>
<path opacity="0.2" d="M200.591 81.578C200.591 81.578 250.438 57.192 244.021 127.664C243.627 132.004 248.319 121.805 248.319 121.805C260.966 96.033 241.878 79.09 241.878 79.09C219.919 59.282 200.592 81.476 200.592 81.476" fill="#EB007D"/>
<path d="M154.814 183.913C154.814 183.913 210.469 183.909 231.899 153.491C231.899 153.491 232.957 224.866 154.814 183.913Z" fill="#EB007D"/>
<path d="M1.725 39.966C3.384 34.316 6.933 29.566 12.383 25.726C17.828 21.879 25.392 18.372 35.07 15.196C38.054 14.216 40.238 13.098 41.633 11.839C43.022 10.583 43.256 8.554 42.336 5.752L54.948 1.60598C55.874 4.40998 57.264 5.90499 59.13 6.09499C60.994 6.28299 63.421 5.889 66.403 4.907C75.538 1.909 83.33 0.375989 89.763 0.318989C96.213 0.254989 101.695 2.034 106.248 5.652C110.787 9.273 114.404 15.191 117.106 23.421L106.396 26.942C105.057 22.871 103.056 20.277 100.383 19.152C97.705 18.021 94.449 17.864 90.609 18.68C86.765 19.486 80.776 21.229 72.642 23.898C70.197 24.702 68.09 25.163 66.338 25.294C64.575 25.419 62.525 24.838 60.204 23.551C57.871 22.261 55.391 19.891 52.765 16.447C52.772 20.752 52.224 24.117 51.118 26.532C50.001 28.948 48.705 30.631 47.214 31.571C45.713 32.509 43.751 33.384 41.308 34.187C32.627 37.037 26.36 39.315 22.517 41.032C18.665 42.741 15.96 44.856 14.382 47.386C12.804 49.907 12.688 53.199 14.023 57.267L3.308 60.787C0.605999 52.557 0.0769984 45.621 1.725 39.966Z" fill="#EB007D"/>
<path d="M8.414 76.352L19.14 72.831C20.468 76.9 22.517 79.481 25.283 80.58C28.048 81.677 31.487 81.773 35.594 80.873C39.706 79.973 46.108 78.101 54.792 75.249C57.23 74.447 59.334 73.98 61.092 73.854C62.857 73.729 64.899 74.311 67.222 75.598C69.553 76.888 71.984 79.267 74.527 82.74C74.606 78.408 75.201 75.032 76.317 72.613C77.429 70.201 78.725 68.52 80.221 67.579C81.712 66.638 83.681 65.765 86.127 64.962C94.262 62.29 100.109 60.142 103.69 58.519C107.265 56.898 109.794 54.835 111.276 52.345C112.77 49.853 112.843 46.574 111.508 42.505L122.223 38.986C124.926 47.212 125.518 54.133 124.001 59.742C122.477 65.342 119.12 70.031 113.889 73.804C108.668 77.575 101.486 80.956 92.356 83.955C89.376 84.936 87.185 86.055 85.793 87.309C84.399 88.57 84.168 90.6 85.085 93.403L74.076 97.017C73.159 94.215 70.156 93.246 68.295 93.049C66.433 92.867 64.004 93.262 61.023 94.239C51.339 97.419 43.172 99.074 36.509 99.207C29.839 99.341 24.16 97.623 19.484 94.056C14.809 90.482 11.117 84.575 8.414 76.352Z" fill="#EB007D"/>
<path d="M74.077 97.016L86.393 104.611L85.086 93.402L74.077 97.016Z" fill="#EB007D"/>
<path d="M321.013 68.791L316.102 67.181C316.714 65.317 316.66 63.81 315.937 62.658C315.214 61.498 313.978 60.531 312.212 59.747C310.451 58.959 307.581 57.918 303.608 56.613C302.489 56.243 301.585 55.842 300.903 55.416C300.215 54.983 299.624 54.212 299.112 53.107C298.609 51.997 298.35 50.457 298.357 48.484C297.153 50.063 296.021 51.148 294.948 51.739C293.886 52.329 292.949 52.593 292.138 52.535C291.338 52.477 290.376 52.264 289.251 51.897C285.528 50.671 282.78 49.876 281.022 49.502C279.262 49.129 277.769 49.202 276.549 49.725C275.32 50.239 274.404 51.427 273.792 53.288L268.886 51.679C270.122 47.908 271.782 45.2 273.862 43.539C275.941 41.884 278.454 41.067 281.417 41.097C284.358 41.126 287.929 41.828 292.111 43.2C293.475 43.649 294.579 43.826 295.44 43.742C296.295 43.656 296.933 42.97 297.354 41.685L303.131 43.585C302.714 44.867 302.821 45.797 303.452 46.373C304.094 46.949 305.096 47.461 306.461 47.906C310.892 49.364 314.359 50.974 316.854 52.73C319.349 54.491 320.975 56.666 321.735 59.254C322.489 61.847 322.25 65.023 321.013 68.791Z" fill="#EB007D"/>
<path d="M313.601 84.031C311.459 85.664 308.857 86.454 305.808 86.391C302.75 86.331 299.011 85.572 294.573 84.113C293.205 83.671 292.097 83.487 291.245 83.571C290.391 83.658 289.016 84.105 288.599 85.386L283.553 83.73C283.974 82.445 283.866 81.518 283.234 80.94C282.593 80.364 281.593 79.853 280.222 79.404C276.043 78.03 272.755 76.479 270.361 74.756C267.968 73.029 266.424 70.879 265.73 68.313C265.039 65.744 265.308 62.576 266.544 58.81L271.45 60.419C270.845 62.284 270.878 63.782 271.557 64.925C272.235 66.068 273.394 67.009 275.03 67.752C276.674 68.495 279.353 69.481 283.08 70.703C284.202 71.072 285.102 71.472 285.785 71.902C286.469 72.333 287.064 73.105 287.575 74.209C288.085 75.319 288.35 76.861 288.388 78.848C289.557 77.259 290.669 76.167 291.736 75.577C292.8 74.986 293.737 74.719 294.541 74.774C295.349 74.834 296.316 75.047 297.429 75.414C301.409 76.719 304.339 77.577 306.223 77.992C308.106 78.402 309.677 78.359 310.951 77.856C312.214 77.356 313.155 76.17 313.76 74.308L318.67 75.921C317.438 79.689 315.742 82.396 313.601 84.031Z" fill="#EB007D"/>
<path d="M288.598 85.386L282.953 88.866L283.552 83.73L288.598 85.386Z" fill="#EB007D"/>
<path opacity="0.2" d="M179.954 142.815C179.954 138.485 187.049 134.878 196.092 134.878C205.141 134.878 212.265 138.223 212.265 142.556C212.265 146.043 207.72 149.162 201.143 150.183C199.547 150.431 197.854 149.621 196.092 149.621C194.803 149.621 193.272 149.475 192.075 149.611C191.601 149.667 191.504 150.03 191.041 149.958C184.513 148.927 179.954 146.29 179.954 142.815Z" fill="#EB007D"/>
<path d="M211.396 145.26L195.782 149.682C195.783 149.681 206.44 152.285 211.396 145.26Z" fill="#EB007D"/>
<path d="M180.822 145.365L196.51 149.53C196.508 149.53 185.893 152.309 180.822 145.365Z" fill="#EB007D"/>
<path opacity="0.2" d="M186.932 210.939C186.932 212.93 190.898 214.543 195.784 214.543C200.672 214.543 204.635 212.932 204.635 210.939C204.635 208.952 200.673 207.337 195.784 207.337C190.898 207.339 186.932 208.952 186.932 210.939Z" fill="#EB007D"/>
</svg>
