<svg id="f3968afe-ca2d-43ec-955d-6a7e10c41a52" data-name="Layer 1" xmlns="http://www.w3.org/2000/svg" width="1154.5" height="834" viewBox="0 0 1154.5 834"><title>weather_notification</title><path d="M210.68066,867H209.75c-48.1958,0-93.93945-2.39648-128.8042-6.74805l-1.40625-.18457q-1.43042-.1875-2.82568-.37695c-5.47217-.72168-10.82764-1.53125-15.91309-2.40527C35.55127,852.88867,22.75,847.64844,22.75,841.71c0-4.92578,8.39648-9.21973,25.66943-13.126,8.31055-1.87793,18.56983-3.60937,30.49268-5.14648,2.17187-.29,4.4082-.56055,6.69482-.82031,34.15235-3.9961,78.2417-6.19727,124.14307-6.19727,9.07324,0,18.25488.08789,27.28906.25977C313.96045,818.1543,396.75,826.61523,396.75,841.71c0,9.01563-29.93408,14.834-55.0459,18.12793C306.74756,864.42188,260.21582,866.96582,210.68066,867ZM209.75,818.41992c-45.82617,0-89.833,2.19629-123.91357,6.1836q-3.41529.38964-6.66407.81738c-11.86572,1.5293-22.0625,3.249-30.31152,5.11426C27.09912,835.45605,24.75,839.98926,24.75,841.71c0,2.18555,3.5459,7.88574,36.3916,13.60449,5.05762.86914,10.38721,1.67481,15.83936,2.39453.93017.12793,1.86914.251,2.81836.375l1.40185.18457C115.979,862.60938,161.63428,865,209.75,865h.93018c110.106-.07617,184.06982-12.10352,184.06982-23.29,0-9.835-59.00586-21.13867-157.749-23.03027C227.97949,818.50684,218.81055,818.41992,209.75,818.41992Z" transform="translate(-22.75 -33)" fill="#3f3d56"/><path d="M336.25,841.71c0,13.38-48.7334,24.22-108.9525,24.29H226.75c-29.39427,0-56.08638-2.57-75.75516-6.74-.84185-.19-1.672-.37-2.48437-.56-3.34387-.75-6.46991-1.56-9.34871-2.4-13.75815-4.07-21.91176-9.12-21.91176-14.59,0-4.43,5.33371-8.57,14.653-12.15a125.92377,125.92377,0,0,1,17.89676-5.13c1.27752-.29,2.59033-.56,3.93257-.82,19.37446-3.85,44.96565-6.19,73.01768-6.19,5.45146,0,10.81459.09,16.05412.26C295.66435,819.4,336.25,829.5,336.25,841.71Z" transform="translate(-22.75 -33)" fill="#3f3d56"/><path d="M171.67857,621.60365l4.67347,36.45306s1.86939,12.151,3.73878,18.69387c0,0-1.86939,34.58368,13.08571,58.88572l9.34694,17.75918,1.86939,26.17143L227.7602,782.371l-4.67347-39.25714s-1.86938-18.69388,0-26.17143-9.34693-42.06122-9.34693-42.06122,14.9551-48.60409,3.73877-60.75511S171.67857,621.60365,171.67857,621.60365Z" transform="translate(-22.75 -33)" fill="#a0616a"/><path d="M212.8051,772.08936s-10.28163,0-11.21632,2.80408-15.8898,28.04082-15.8898,28.04082-13.08571,20.56326,5.60816,21.498,24.302-7.47755,24.302-7.47755,16.82449-27.10613,17.75919-31.7796-7.023-14.689-7.023-14.689S215.60918,777.69752,212.8051,772.08936Z" transform="translate(-22.75 -33)" fill="#2f2e41"/><circle cx="203.14082" cy="249.30977" r="31.77959" fill="#a0616a"/><path d="M200.18673,292.12405s0,34.58368-12.151,37.38776,16.82449,34.58367,32.71429,30.8449,22.43265-28.97551,22.43265-28.97551-14.02041-17.75919-8.41224-27.10613S200.18673,292.12405,200.18673,292.12405Z" transform="translate(-22.75 -33)" fill="#a0616a"/><path d="M213.7398,340.26079a27.98317,27.98317,0,0,1-22.42372-12.47234s-13.09465,2.19071-14.964,3.1254-34.58367,11.21633-42.06122,32.71429l29.9102,38.32244s-6.54286,54.21225,0,78.51429a68.87322,68.87322,0,0,1-2.80408,43.93061s-2.80408.9347,1.86939,2.80408S275.42959,507.571,277.299,501.96283s-1.86939-5.60816.93469-8.41225,10.28164-19.62857,2.80409-25.23673-12.151-67.298-12.151-67.298l19.62858-49.53878s-35.87388-28.67019-48.78184-25.08407C239.73347,326.393,237.10714,340.26079,213.7398,340.26079Z" transform="translate(-22.75 -33)" fill="#d0cde1"/><path d="M225.89082,602.90977s-1.86939,41.12653,1.86938,57.01632,3.73878,22.43266,3.73878,22.43266-5.60816,27.10612-2.80408,52.34285-3.27143,65.91523-3.27143,65.91523l22.9,6.9909L262.34388,736.571s11.21632-43.93061,4.67347-64.49388c0,0,3.73877-62.62448,6.54285-69.16734S225.89082,602.90977,225.89082,602.90977Z" transform="translate(-22.75 -33)" fill="#a0616a"/><path d="M200.80973,287.96972c.42136-2.98086,1.31241-6.23256,3.8542-7.84575,2.63879-1.67475,6.04512-.9878,9.16218-.75985s6.93655-.55165,7.96108-3.50433c.63882-1.84106-.05146-4.04122.94519-5.71581,1.58608-2.665,6.42844-2.36082,7.26362-5.34748.26453-.946.00742-2.00178.38924-2.90679.51507-1.22084,1.96137-1.70745,3.25225-2.00642a52.02178,52.02178,0,0,1,14.4072-1.26967,1.91375,1.91375,0,0,0,1.36724-.27056,1.67165,1.67165,0,0,0,.44117-.76829c1.09455-3.27274-.06469-6.98608-2.24254-9.663a23.62109,23.62109,0,0,0-8.35365-5.969,61.17362,61.17362,0,0,0-22.5415-5.99036c-5.962-.37452-12.22038.27453-17.29866,3.42044a24.48262,24.48262,0,0,0-4.16534,3.32061,36.56616,36.56616,0,0,0-10.27632,20.44428A46.05509,46.05509,0,0,0,187.48551,286.03c1.61347,4.39147,4.15847,8.92708,8.09615,11.63319,2.11055,1.45045,3.93021,2.78944,4.80667.32662C201.31776,295.37815,200.40063,290.86394,200.80973,287.96972Z" transform="translate(-22.75 -33)" fill="#2f2e41"/><path d="M166.07041,518.78732S152.05,537.4812,154.85408,550.56691s13.08572,34.58367,13.08572,34.58367-5.60817,42.06123,3.73877,42.06123,49.53878-1.86939,50.47347-6.54286-2.80408-51.40816-2.80408-51.40816,4.67347,41.12653,7.47755,41.12653,51.40816,4.67347,53.27755,1.86939,5.60816-74.77551,5.60816-74.77551,5.098-33.94323-11.00406-38.46958S166.07041,518.78732,166.07041,518.78732Z" transform="translate(-22.75 -33)" fill="#2f2e41"/><path d="M240.84592,800.13018s-16.82449-9.34694-17.75919-1.86939-11.21632,34.58367-11.21632,34.58367-10.28163,21.498,12.151,22.43265,28.04081-9.34693,28.04081-14.0204-2.51408-36.73642-2.51408-36.73642Z" transform="translate(-22.75 -33)" fill="#2f2e41"/><path d="M298.79694,401.95058l4.67347,41.12653s5.60816,22.43266,1.86939,31.7796-17.75919,52.34285-17.75919,52.34285-3.73877-23.36734-13.08571-26.17142l5.60816-53.27756s-13.38209-33.24649-10.42982-37.65385S298.79694,401.95058,298.79694,401.95058Z" transform="translate(-22.75 -33)" fill="#a0616a"/><path d="M132.42143,404.75467l1.86939,37.38775s-6.54286,32.71429,6.54285,67.298l1.86939,14.9551,12.151,23.36735s2.80408-22.43265,8.41225-22.43265c0,0-5.60817-14.95511-3.73878-23.36735s-.93469-53.27755-.93469-53.27755l4.67347-36.29483Z" transform="translate(-22.75 -33)" fill="#a0616a"/><path d="M278.23367,350.54242h10.28164s24.302,56.08163,14.9551,57.01633-39.25714,8.41224-40.19184,4.67347S278.23367,350.54242,278.23367,350.54242Z" transform="translate(-22.75 -33)" fill="#d0cde1"/><path d="M142.70306,355.21589l-8.41224,8.41225s-11.21633,42.06122-2.80409,46.73469,40.19184,10.28163,42.06123,6.54286S142.70306,355.21589,142.70306,355.21589Z" transform="translate(-22.75 -33)" fill="#d0cde1"/><path d="M119.4873,820.46582l-1.07324-.40234c-.23584-.08887-23.70849-9.082-34.7041-29.47364-10.99609-20.39257-5.61182-44.94531-5.55615-45.19043l.25342-1.11816,1.07275.40234c.23584.08887,23.708,9.082,34.7041,29.47364,10.9961,20.39257,5.61182,44.94531,5.55615,45.19043ZM85.4707,789.64063c9.29639,17.24121,27.84522,26.0791,32.54493,28.09667.89355-5.0371,3.6958-25.40625-5.59229-42.63085-9.28711-17.22266-27.84326-26.07422-32.54492-28.09668C78.98438,752.0498,76.18311,772.417,85.4707,789.64063Z" transform="translate(-22.75 -33)" fill="#3f3d56"/><path d="M92.11315,783.4368c19.76057,11.88861,27.371,35.50266,27.371,35.50266s-24.42779,4.33881-44.18836-7.5498-27.371-35.50266-27.371-35.50266S72.35258,771.54819,92.11315,783.4368Z" transform="translate(-22.75 -33)" fill="#6c63ff"/><path d="M844.25,65.32819V784.694a32.27853,32.27853,0,0,1-11.31015,24.58188A31.84481,31.84481,0,0,1,812.07567,817H521.42433a32.03455,32.03455,0,0,1-17.98142-5.49347A32.40808,32.40808,0,0,1,489.25,784.694V65.32819A32.24874,32.24874,0,0,1,521.42433,33h43.49555v5.60443A26.55743,26.55743,0,0,0,591.406,65.22828H739.23339a26.19263,26.19263,0,0,0,15.70608-5.19381,24.64128,24.64128,0,0,0,2.60662-2.19737,26.60344,26.60344,0,0,0,8.17339-19.23267V33h46.35619A32.24167,32.24167,0,0,1,844.25,65.32819Z" transform="translate(-22.75 -33)" fill="#3f3d56"/><ellipse cx="647.74395" cy="627.47091" rx="88.38768" ry="17.67754" opacity="0.1"/><polygon points="1154.5 460.124 647.744 460.124 647.744 509.639 647.744 585.045 647.744 627.471 690.17 585.045 1154.5 585.045 1154.5 460.124" fill="#6c63ff"/><rect x="726.70361" y="488.40762" width="348.83673" height="28.28406" fill="#fff"/><rect x="726.70361" y="530.83371" width="348.83673" height="28.28406" fill="#fff"/><path d="M798.41937,217.46985a15.97957,15.97957,0,0,0-21.92977-17.92522,29.34975,29.34975,0,0,0-33.47173-9.31287,41.44046,41.44046,0,0,0-72.485,27.23809Z" transform="translate(-22.75 -33)" fill="#efefef"/><path d="M617.43241,274.23981a41.442,41.442,0,0,0-72.48777-27.45395,29.36117,29.36117,0,0,0-37.06051,15.16553,15.9638,15.9638,0,0,0-18.341,12.50428H617.42967C617.43,274.38357,617.43241,274.312,617.43241,274.23981Z" transform="translate(-22.75 -33)" fill="#efefef"/><path d="M777.5971,320.46784a34.72706,34.72706,0,0,0-60.74246-23.00554,24.60371,24.60371,0,0,0-31.05553,12.70823,13.37716,13.37716,0,0,0-15.36917,10.47819H777.5948C777.59511,320.5883,777.5971,320.52831,777.5971,320.46784Z" transform="translate(-22.75 -33)" fill="#efefef"/><path d="M699.88916,269.39168l-3.01765-3.23351-4.62363,4.31279,4.31279,4.62363,3.32849-3.104,1.29514-1.20879Zm-3.30689,5.0165-3.648-3.91562,3.9113-3.648,3.04355,3.25941.60871.65189-.60871.56986Z" transform="translate(-22.75 -33)" fill="#efefef"/><path d="M739.17916,240.25553l-4.62363,4.31278,4.31279,4.62364,4.62363-4.31279Zm-3.9372,4.33439,3.9113-3.648,3.65226,3.9113-3.9156,3.65228Z" transform="translate(-22.75 -33)" fill="#efefef"/><path d="M564.28451,342.96384l-4.62363,4.31279,4.31279,4.62363,4.62363-4.31281Zm-3.9372,4.33869,3.9113-3.65228,3.65226,3.91562-3.9113,3.648Z" transform="translate(-22.75 -33)" fill="#efefef"/><path d="M745.6505,362.19655l-2.63774-2.8277-4.62363,4.31279,4.31278,4.62363,2.94859-2.75,1.675-1.56279Zm-2.92269,5.42229-3.65225-3.9113,3.9113-3.65228,2.66364,2.85363.98861,1.062-.98861.92386Z" transform="translate(-22.75 -33)" fill="#efefef"/><path d="M535.83908,316.24958l-.04748-.0518-4.62363,4.31278,4.31279,4.62364.35832-.33243,4.26531-3.98039Zm-.33242,8.19818-3.65226-3.91129,3.9113-3.65229.07338.07771,3.57888,3.83791-3.57888,3.33712Z" transform="translate(-22.75 -33)" fill="#efefef"/><path d="M590.28644,297.686v6.32025H596.611V297.686Zm5.83674,5.83671h-5.3489v-5.3532h5.3489Z" transform="translate(-22.75 -33)" fill="#efefef"/><path d="M704.68979,347.33275V353.653h6.32457v-6.32026Zm5.83673,5.83672h-5.3489v-5.3532h5.3489Z" transform="translate(-22.75 -33)" fill="#efefef"/><path d="M515.98039,193.82936v182.346A164.02744,164.02744,0,0,1,503.02907,365.702V204.44082A166.51821,166.51821,0,0,1,515.98039,193.82936Z" transform="translate(-22.75 -33)" opacity="0.2"/><path d="M548.79041,174.21675v221.2q-6.68289-3.12775-12.95133-6.60517V180.96439Q542.10752,177.42219,548.79041,174.21675Z" transform="translate(-22.75 -33)" opacity="0.2"/><path d="M581.60042,161.39493V407.87154q-6.60518-1.97506-12.95132-4.261V165.80271Q574.98876,163.44556,581.60042,161.39493Z" transform="translate(-22.75 -33)" opacity="0.2"/><path d="M614.41044,153.42125V415.48261q-6.56633-1.10088-12.95132-2.491v-256.937Q607.83763,154.59765,614.41044,153.42125Z" transform="translate(-22.75 -33)" opacity="0.2"/><path d="M647.22046,149.45383V419.08738q-6.5404-.34967-12.95133-.97564V150.57194Q640.68006,149.879,647.22046,149.45383Z" transform="translate(-22.75 -33)" opacity="0.2"/><path d="M680.03047,149.10414V419.0658q-6.41736.34971-12.95132.42739V148.8192Q673.60662,148.82568,680.03047,149.10414Z" transform="translate(-22.75 -33)" opacity="0.2"/><path d="M712.84049,152.36355V415.44374q-6.398,1.075-12.95133,1.87364V150.62807Q706.436,151.35334,712.84049,152.36355Z" transform="translate(-22.75 -33)" opacity="0.2"/><path d="M745.6505,159.58174V407.8629q-6.36558,1.89741-12.95132,3.50119v-255.141Q739.28492,157.7513,745.6505,159.58174Z" transform="translate(-22.75 -33)" opacity="0.2"/><path d="M778.46052,171.53149V395.54621q-6.30729,2.914-12.95132,5.50431V166.16965Q772.14675,168.68871,778.46052,171.53149Z" transform="translate(-22.75 -33)" opacity="0.2"/><path d="M811.27054,190.00874v186.689q-6.19074,4.40349-12.95133,8.41836V181.74146Q805.06684,185.6722,811.27054,190.00874Z" transform="translate(-22.75 -33)" opacity="0.2"/><path d="M844.08055,220.52205v125.2954a139.9986,139.9986,0,0,1-12.95132,14.42776V206.24105A137.32417,137.32417,0,0,1,844.08055,220.52205Z" transform="translate(-22.75 -33)" opacity="0.2"/></svg>