<svg id="adc5ebb5-adad-487b-beff-d206cdc968e3" data-name="Layer 1" xmlns="http://www.w3.org/2000/svg" width="661.10511" height="803.61043" viewBox="0 0 661.10511 803.61043"><title>fresh_notification</title><polygon points="661.105 451.9 546.835 803.61 177.015 803.61 62.745 451.9 361.925 234.53 661.105 451.9" fill="#3f3d56"/><polygon points="212.406 636.791 210.584 636.791 210.584 634.968 210.228 634.968 210.228 636.791 208.406 636.791 208.406 637.146 210.228 637.146 210.228 638.968 210.584 638.968 210.584 637.146 212.406 637.146 212.406 636.791" fill="#f2f2f2"/><polygon points="191.406 746.791 189.584 746.791 189.584 744.968 189.228 744.968 189.228 746.791 187.406 746.791 187.406 747.146 189.228 747.146 189.228 748.968 189.584 748.968 189.584 747.146 191.406 747.146 191.406 746.791" fill="#f2f2f2"/><polygon points="311.406 779.791 309.584 779.791 309.584 777.968 309.228 777.968 309.228 779.791 307.406 779.791 307.406 780.146 309.228 780.146 309.228 781.968 309.584 781.968 309.584 780.146 311.406 780.146 311.406 779.791" fill="#f2f2f2"/><circle cx="290.40574" cy="692.96837" r="4" fill="#ff6584"/><polygon points="510.406 396.791 508.584 396.791 508.584 394.968 508.228 394.968 508.228 396.791 506.406 396.791 506.406 397.146 508.228 397.146 508.228 398.968 508.584 398.968 508.584 397.146 510.406 397.146 510.406 396.791" fill="#f2f2f2"/><polygon points="489.406 506.791 487.584 506.791 487.584 504.968 487.228 504.968 487.228 506.791 485.406 506.791 485.406 507.146 487.228 507.146 487.228 508.968 487.584 508.968 487.584 507.146 489.406 507.146 489.406 506.791" fill="#f2f2f2"/><polygon points="609.406 539.791 607.584 539.791 607.584 537.968 607.228 537.968 607.228 539.791 605.406 539.791 605.406 540.146 607.228 540.146 607.228 541.968 607.584 541.968 607.584 540.146 609.406 540.146 609.406 539.791" fill="#f2f2f2"/><circle cx="588.40574" cy="452.96837" r="4" fill="#ff6584"/><circle cx="178.42512" cy="402.61043" r="7" fill="#f2f2f2"/><path d="M440.5532,647.96315l-2.27.35c.71,4.54,1.27,9.18,1.68,13.77l2.29-.2C441.84318,657.23316,441.27317,652.55317,440.5532,647.96315Z" transform="translate(-269.44745 -48.19478)" fill="#e6e6e6"/><path d="M434.34318,620.62312l-2.2.67c1.33,4.4,2.52,8.91,3.53,13.4l2.25-.51C436.89316,629.64314,435.6832,625.08314,434.34318,620.62312Z" transform="translate(-269.44745 -48.19478)" fill="#e6e6e6"/><path d="M424.4332,594.40315l-2.09.96c1.92,4.19,3.72,8.49,5.35,12.79l2.15-.81C428.19321,602.99311,426.38321,598.63313,424.4332,594.40315Z" transform="translate(-269.44745 -48.19478)" fill="#e6e6e6"/><path d="M411.03318,569.82313l-1.94,1.23c2.47,3.88,4.84,7.9,7.04,11.93l2.02-1.1C415.9332,577.80317,413.53318,573.74311,411.03318,569.82313Z" transform="translate(-269.44745 -48.19478)" fill="#e6e6e6"/><path d="M394.3732,547.29316l-1.75,1.49c2.98,3.5,5.88,7.16,8.62,10.86l1.84-1.37C400.32316,554.53315,397.39316,550.83314,394.3732,547.29316Z" transform="translate(-269.44745 -48.19478)" fill="#e6e6e6"/><path d="M374.79319,527.23316l-1.53,1.71c3.44,3.07,6.81,6.3,10.02,9.59l1.65-1.61C381.6832,533.59315,378.27317,530.33314,374.79319,527.23316Z" transform="translate(-269.44745 -48.19478)" fill="#e6e6e6"/><path d="M352.67319,510.01313l-1.29,1.9c3.82,2.57,7.6,5.31,11.23,8.14l1.42-1.81006C360.35318,515.38313,356.53318,512.61317,352.67319,510.01313Z" transform="translate(-269.44745 -48.19478)" fill="#e6e6e6"/><path d="M332.54319,498.05317v2.6c2.39,1.25,4.76,2.56,7.08,3.9l1.15-1.99Q336.72316,500.22312,332.54319,498.05317Z" transform="translate(-269.44745 -48.19478)" fill="#e6e6e6"/><path d="M440.70816,676.26887l2.29862-.04178c.04223,2.3211.04537,4.65451.00942,6.93607l-2.29843-.03589C440.75272,680.87166,440.7497,678.56414,440.70816,676.26887Z" transform="translate(-269.44745 -48.19478)" fill="#e6e6e6"/><path d="M630.34629,216.80525h.00014c55.88822,0,101.19459,50.28011,101.19459,112.30374V407.9107H707.30523L693.27409,378.714l3.50782,29.19667H541.00356L528.248,381.36827l3.18886,26.54243h-17.539V346.03724C513.89786,274.66446,566.0336,216.80525,630.34629,216.80525Z" transform="translate(-269.44745 -48.19478)" fill="#2f2e41"/><path d="M531.9541,586.72057s14.13976,64.27165,3.8563,95.12205-6.42717,48.84645-6.42717,48.84645l203.09843-3.8563s-5.14174-79.69685-34.7067-88.69488S531.9541,586.72057,531.9541,586.72057Z" transform="translate(-269.44745 -48.19478)" fill="#d0cde1"/><circle cx="373.0539" cy="277.58287" r="61.70079" fill="#ffb9b9"/><path d="M603.93835,363.05522s3.8563,46.27559-10.28346,48.84645,41.13385,46.27559,41.13385,46.27559l50.13189-38.563s-32.13582-25.70866-17.99606-50.13189Z" transform="translate(-269.44745 -48.19478)" fill="#ffb9b9"/><path d="M627.07615,423.47057l-25.236-22.25095s-13.327-12.45574-18.46875-4.74314-16.71063-2.57087-16.71063-2.57087L513.958,458.17726s-30.8504,26.9941-16.71063,75.84055,28.27952,80.98229,28.27952,80.98229-3.8563-20.56693,11.5689-12.85433,127.25787,39.84842,133.685,47.561,8.998,15.4252,16.71063,8.998,5.14173-10.28346,12.85433-7.7126,19.2815-15.42519,19.2815-15.42519-23.1378-12.85433-12.85433-26.9941,25.70866-95.12205,25.70866-95.12205l34.70669-42.41929s-1.28543-21.85236-28.27953-34.70669-47.561-17.99606-50.13189-21.85236-15.42519-3.8563-15.42519-3.8563Z" transform="translate(-269.44745 -48.19478)" fill="#6c63ff"/><path d="M764.49256,851.77519c0,.01.01.02,0,.03h-278.07c-.89-2.32-2.75-9.98005-4.6-34.99-2.57-34.71,35.99-61.7,34.71-64.27-1.29-2.57,2.57-3.86,3.85-6.43,1.29-2.57,0-3.86-2.57-10.28-2.57-6.43,2.57-5.15,5.14-9,2.57-3.86,1.29-6.43,0-12.86-1.28-6.42,8.81-17.8,8.81-17.8s.19,24.23,85.03,25.52c84.84,1.28,109.42-25.52,109.42-25.52,15.09,6.31,27.54,77.64,33.87994,121.84.91,6.36,1.7,12.15,2.34,17.11C763.53254,843.49522,764.23255,849.48521,764.49256,851.77519Z" transform="translate(-269.44745 -48.19478)" fill="#575a88"/><path d="M767.762,830.72989s-34.96674,31.61838-49.56139,14.90332,32.95369-42.415,32.95369-42.415Z" transform="translate(-269.44745 -48.19478)" fill="#ffb9b9"/><path d="M816.03254,703.69523c-9,68.12994-15.42,136.26-25.71,134.97-8.66-1.09-21.88,9.69-25.83,13.11l-.03.03h-1.76l-7.32-11.59-17.94-28.4-4.96-7.86005S743.46922,774.75494,745,761c.80743-7.25523,11.06-38.37,6-65-1.34481-7.05634-.34069-13.28383-2-20-5.20539-21.06918-11.01485-46.3883-13-68L718.34253,499.31523l20.57-44.99006L760,454s20.04254,36.31523,20.04254,40.1652C780.04254,498.02519,825.03254,635.56523,816.03254,703.69523Z" transform="translate(-269.44745 -48.19478)" fill="#6c63ff"/><path d="M700.34583,203.66151s46.27559-8.998,50.13189,12.85434-50.13189,19.28149-50.13189,19.28149Z" transform="translate(-269.44745 -48.19478)" fill="#ffb9b9"/><path d="M601.5785,247.74121c10.16042-13.08267,25.14625-21.36923,41.87518-21.36923h1.98675c38.3059,0,69.3588,34.66243,69.3588,77.42076v.00017H701.96394l-2.07287-15.778-3.03924,15.778H620.72642l-6.37787-13.34844,1.5945,13.34844H600.967Q590.48448,355.8518,631.09033,407.9107H605.579l-12.7556-26.69687,3.18886,26.69687H547.38143l-9.56674-61.403C537.81469,300.5226,564.5334,261.52813,601.5785,247.74121Z" transform="translate(-269.44745 -48.19478)" fill="#2f2e41"/><path d="M513.958,464.60443s-26.9941-47.561-20.56693-104.12008-2.57087-134.97047,29.565-142.68307,185.10236-17.99606,185.10236-17.99606,3.8563,42.41929,0,47.561-15.4252-1.28543-23.1378,1.28543-87.40945,5.14173-97.69291,28.27953L576.94426,300.069s2.57086,29.565-10.28347,34.70669-1.28543,34.70669-2.57087,37.27756,2.57087,21.85236,2.57087,21.85236l-1.28543,38.563Z" transform="translate(-269.44745 -48.19478)" fill="#6c63ff"/><path d="M739.08544,176.26924a82.0126,82.0126,0,1,1,38.0521,30.55251,26.52879,26.52879,0,1,1-38.0521-30.55251Z" transform="translate(-269.44745 -48.19478)" fill="#3f3d56"/><circle cx="505.47621" cy="80.42363" r="9.49088" fill="#6c63ff"/><circle cx="537.85688" cy="80.42363" r="9.49088" fill="#6c63ff"/><circle cx="570.23754" cy="80.42363" r="9.49088" fill="#6c63ff"/><polygon points="137.406 470.791 135.584 470.791 135.584 468.968 135.228 468.968 135.228 470.791 133.406 470.791 133.406 471.146 135.228 471.146 135.228 472.968 135.584 472.968 135.584 471.146 137.406 471.146 137.406 470.791" fill="#f2f2f2"/><polygon points="116.406 580.791 114.584 580.791 114.584 578.968 114.228 578.968 114.228 580.791 112.406 580.791 112.406 581.146 114.228 581.146 114.228 582.968 114.584 582.968 114.584 581.146 116.406 581.146 116.406 580.791" fill="#f2f2f2"/><polygon points="236.406 613.791 234.584 613.791 234.584 611.968 234.228 611.968 234.228 613.791 232.406 613.791 232.406 614.146 234.228 614.146 234.228 615.968 234.584 615.968 234.584 614.146 236.406 614.146 236.406 613.791" fill="#f2f2f2"/><circle cx="215.40574" cy="526.96837" r="4" fill="#ff6584"/><polygon points="123.157 335.154 104.079 327.626 85 320.097 101.059 307.339 117.118 294.58 120.138 314.867 123.157 335.154" fill="#3f3d56"/><polygon points="38.157 620.154 19.079 612.626 0 605.097 16.059 592.339 32.118 579.58 35.138 599.867 38.157 620.154" fill="#3f3d56"/><polygon points="643.102 339.91 625.083 349.708 607.065 359.505 607.589 339.002 608.113 318.498 625.608 329.204 643.102 339.91" fill="#3f3d56"/></svg>