<svg width="171" height="89" viewBox="0 0 171 89" fill="none" xmlns="http://www.w3.org/2000/svg">
<g clip-path="url(#clip0)">
<path d="M8.88297 67.777C10.1494 67.777 11.176 66.7504 11.176 65.484C11.176 64.2177 10.1494 63.191 8.88297 63.191C7.61658 63.191 6.58997 64.2177 6.58997 65.484C6.58997 66.7504 7.61658 67.777 8.88297 67.777Z" fill="#4a5568"/>
<path d="M7.11598 58.288C7.90741 58.288 8.54898 57.6464 8.54898 56.855C8.54898 56.0636 7.90741 55.422 7.11598 55.422C6.32456 55.422 5.68298 56.0636 5.68298 56.855C5.68298 57.6464 6.32456 58.288 7.11598 58.288Z" fill="#4a5568"/>
<path d="M3.94497 51.481C4.34095 51.481 4.66197 51.16 4.66197 50.764C4.66197 50.368 4.34095 50.047 3.94497 50.047C3.54898 50.047 3.22797 50.368 3.22797 50.764C3.22797 51.16 3.54898 51.481 3.94497 51.481Z" fill="#4a5568"/>
<path d="M11.3259 41.481C11.7219 41.481 12.0429 41.16 12.0429 40.764C12.0429 40.368 11.7219 40.047 11.3259 40.047C10.93 40.047 10.6089 40.368 10.6089 40.764C10.6089 41.16 10.93 41.481 11.3259 41.481Z" fill="#4a5568"/>
<path d="M54.663 55.446C55.9294 55.446 56.956 54.4194 56.956 53.153C56.956 51.8866 55.9294 50.86 54.663 50.86C53.3966 50.86 52.37 51.8866 52.37 53.153C52.37 54.4194 53.3966 55.446 54.663 55.446Z" fill="#4a5568"/>
<path d="M58.637 48.7359C59.429 48.7359 60.071 48.0939 60.071 47.3019C60.071 46.5099 59.429 45.8679 58.637 45.8679C57.845 45.8679 57.203 46.5099 57.203 47.3019C57.203 48.0939 57.845 48.7359 58.637 48.7359Z" fill="#4a5568"/>
<path d="M55.578 42.587C55.974 42.587 56.295 42.2659 56.295 41.87C56.295 41.474 55.974 41.153 55.578 41.153C55.182 41.153 54.861 41.474 54.861 41.87C54.861 42.2659 55.182 42.587 55.578 42.587Z" fill="#4a5568"/>
<path d="M56.851 34.383C57.247 34.383 57.568 34.062 57.568 33.666C57.568 33.27 57.247 32.949 56.851 32.949C56.455 32.949 56.134 33.27 56.134 33.666C56.134 34.062 56.455 34.383 56.851 34.383Z" fill="#0A9BD9"/>
<path d="M71.007 43.029C71.403 43.029 71.724 42.708 71.724 42.312C71.724 41.916 71.403 41.595 71.007 41.595C70.611 41.595 70.29 41.916 70.29 42.312C70.29 42.708 70.611 43.029 71.007 43.029Z" fill="#4a5568"/>
<path d="M160.431 71.402C161.697 71.402 162.724 70.3754 162.724 69.109C162.724 67.8427 161.697 66.816 160.431 66.816C159.165 66.816 158.138 67.8427 158.138 69.109C158.138 70.3754 159.165 71.402 160.431 71.402Z" fill="#4a5568"/>
<path d="M163.654 64.1651C164.445 64.1651 165.087 63.5235 165.087 62.7321C165.087 61.9406 164.445 61.2991 163.654 61.2991C162.863 61.2991 162.221 61.9406 162.221 62.7321C162.221 63.5235 162.863 64.1651 163.654 64.1651Z" fill="#4a5568"/>
<path d="M159.667 56.877C160.063 56.877 160.384 56.556 160.384 56.16C160.384 55.764 160.063 55.443 159.667 55.443C159.271 55.443 158.95 55.764 158.95 56.16C158.95 56.556 159.271 56.877 159.667 56.877Z" fill="#4a5568"/>
<path d="M162.215 49.947C162.61 49.947 162.931 49.6265 162.931 49.231C162.931 48.8356 162.61 48.515 162.215 48.515C161.82 48.515 161.499 48.8356 161.499 49.231C161.499 49.6265 161.82 49.947 162.215 49.947Z" fill="#4a5568"/>
<path d="M113.456 46.731C114.722 46.731 115.748 45.7048 115.748 44.439C115.748 43.1731 114.722 42.147 113.456 42.147C112.19 42.147 111.164 43.1731 111.164 44.439C111.164 45.7048 112.19 46.731 113.456 46.731Z" fill="#4a5568"/>
<path d="M110.233 39.4961C111.025 39.4961 111.667 38.854 111.667 38.0621C111.667 37.2701 111.025 36.6281 110.233 36.6281C109.441 36.6281 108.799 37.2701 108.799 38.0621C108.799 38.854 109.441 39.4961 110.233 39.4961Z" fill="#4a5568"/>
<path d="M114.221 32.2069C114.617 32.2069 114.938 31.8859 114.938 31.4899C114.938 31.094 114.617 30.7729 114.221 30.7729C113.825 30.7729 113.504 31.094 113.504 31.4899C113.504 31.8859 113.825 32.2069 114.221 32.2069Z" fill="#4a5568"/>
<path d="M111.672 25.278C112.068 25.278 112.389 24.957 112.389 24.561C112.389 24.165 112.068 23.844 111.672 23.844C111.276 23.844 110.955 24.165 110.955 24.561C110.955 24.957 111.276 25.278 111.672 25.278Z" fill="#4a5568"/>
<path d="M51.245 77.111C49.549 77.109 48.074 76.87 46.859 76.402C45.586 75.91 44.535 75.36 43.738 74.77C42.762 74.061 41.968 73.249 41.297 72.279C40.362 70.857 39.63 69.283 39.137 67.635C38.628 65.927 38.24 64.274 37.986 62.711C37.699 60.925 37.537 59.109 37.505 57.317C37.435 55.993 37.492 54.861 37.673 53.899C37.851 52.932 38.111 52.079 38.448 51.358C38.776 50.656 39.152 50.065 39.568 49.601C40.01 49.106 40.465 48.695 40.922 48.375C42.039 47.572 43.283 47.097 44.754 46.913C44.888 46.907 45.111 46.9 45.33 46.9C46.319 46.9 47.203 47.046 47.96 47.331C48.899 47.689 49.715 48.188 50.387 48.814C51.083 49.468 51.68 50.236 52.158 51.097C52.666 52.009 53.077 52.937 53.381 53.856C54.092 55.948 54.492 58.312 54.571 60.894C54.595 61.704 55.259 62.343 56.064 62.343C56.073 62.343 56.084 62.343 56.092 62.343C56.91 62.33 57.567 61.66 57.563 60.842C57.557 59.431 57.765 58.273 58.163 57.496C58.648 56.545 59.185 55.822 59.758 55.35C60.419 54.807 61.159 54.465 62.021 54.308C62.367 54.244 62.689 54.211 62.973 54.211C63.197 54.211 63.4 54.231 63.577 54.271C64.015 54.365 64.384 54.505 64.673 54.688C64.97 54.878 65.218 55.106 65.426 55.377C65.66 55.683 65.846 56.005 65.984 56.338C66.315 57.211 66.505 58.309 66.537 59.566C66.559 60.378 67.225 61.024 68.035 61.024C68.041 61.024 68.048 61.024 68.055 61.024C68.873 61.013 69.532 60.345 69.532 59.527C69.532 57.523 69.665 55.697 69.928 54.102C70.193 52.498 70.547 51.039 70.981 49.769C71.412 48.504 71.9 47.406 72.436 46.502C72.979 45.583 73.537 44.797 74.099 44.167C75.394 42.694 76.839 41.677 78.403 41.134C79.202 40.948 79.931 40.852 80.572 40.852C80.778 40.852 80.977 40.86 81.167 40.88C81.929 40.959 82.583 41.143 83.11 41.432C83.648 41.725 84.086 42.081 84.449 42.522C84.837 42.992 85.152 43.52 85.39 44.089C86.025 45.54 86.375 47.332 86.442 49.442C86.442 52.398 86.243 55.185 85.849 57.672C85.451 60.195 84.996 62.401 84.493 64.231C83.919 66.335 83.269 68.225 82.562 69.856C82.122 70.886 81.641 71.768 81.133 72.48C80.621 73.198 80.083 73.817 79.531 74.327C78.992 74.821 78.432 75.244 77.863 75.578C77.305 75.904 76.765 76.16 76.268 76.335C75.032 76.795 73.785 77.014 72.423 77.016C71.236 77.016 70.202 76.894 69.324 76.648C68.45 76.405 67.685 76.099 67.048 75.738C66.446 75.394 65.941 75.003 65.547 74.576C65.136 74.129 64.81 73.677 64.578 73.232C63.934 72.052 63.611 70.731 63.58 69.164C63.565 68.389 62.958 67.754 62.184 67.701C62.149 67.699 62.117 67.697 62.081 67.697C61.352 67.697 60.722 68.231 60.603 68.962C60.338 70.643 59.813 72.115 59.039 73.337C58.711 73.879 58.323 74.374 57.875 74.832C57.441 75.271 56.921 75.661 56.325 75.989C55.725 76.323 54.997 76.597 54.163 76.803C53.334 77.009 52.352 77.111 51.245 77.111ZM99.329 77.043C98.411 77.043 97.591 76.881 96.888 76.564C96.145 76.225 95.477 75.794 94.906 75.284C94.33 74.774 93.844 74.199 93.46 73.568C93.037 72.879 92.667 72.167 92.363 71.46C91.68 69.771 91.24 67.915 91.033 65.814C90.809 64.23 90.676 62.554 90.623 60.772C90.568 58.918 90.558 57.194 90.596 55.647C90.63 53.793 90.704 51.898 90.817 50.012C90.985 47.811 91.422 45.732 92.115 43.861C92.413 43.091 92.793 42.29 93.239 41.495C93.66 40.746 94.177 40.044 94.778 39.403C95.376 38.766 96.089 38.191 96.892 37.694C97.667 37.215 98.578 36.858 99.599 36.637C99.927 36.596 100.246 36.574 100.555 36.574C101.369 36.574 102.102 36.718 102.796 37.018C103.198 37.193 103.624 37.451 104.059 37.786C104.465 38.101 104.858 38.541 105.227 39.099C105.62 39.694 105.976 40.445 106.284 41.327C106.604 42.24 106.851 43.347 107.022 44.622C107.306 47.225 107.47 49.861 107.509 52.424C107.544 55.026 107.527 57.383 107.454 59.427C107.346 61.788 107.196 64.095 107.015 66.268C106.772 68.347 106.318 70.265 105.666 71.918C105.383 72.558 105.02 73.251 104.609 73.925C104.24 74.538 103.782 75.103 103.253 75.599C102.768 76.055 102.196 76.415 101.558 76.669C100.927 76.916 100.179 77.043 99.329 77.043ZM19.592 77.03C18.667 77.03 17.811 77.002 17.049 76.945C15.504 76.831 14.241 76.634 13.193 76.345C12.16 76.065 11.297 75.718 10.618 75.31C9.97299 74.923 9.456 74.498 9.079 74.047C8.061 72.955 7.54299 71.719 7.48199 70.312C7.48399 69.371 7.61299 68.548 7.85599 67.997C8.07499 67.498 8.35099 67.143 8.70199 66.912C9.10799 66.643 9.58299 66.466 10.148 66.374C10.663 66.288 11.199 66.247 11.737 66.247C11.875 66.247 12.015 66.249 12.153 66.254C13.719 66.339 15.682 66.729 18.133 67.444C18.271 67.484 18.411 67.503 18.549 67.503C19.177 67.503 19.762 67.105 19.971 66.482C20.225 65.718 19.831 64.89 19.08 64.607C17.592 64.045 16.288 63.379 15.205 62.631C14.155 61.906 13.246 61.11 12.502 60.262C11.78 59.442 11.18 58.595 10.721 57.743C10.263 56.894 9.89399 56.069 9.62199 55.292C9.03099 53.518 8.83 51.756 9.027 50.084C9.182 49.031 9.44899 48.143 9.81899 47.489C10.177 46.845 10.593 46.344 11.057 45.992C11.554 45.616 12.07 45.345 12.641 45.16C13.243 44.972 13.864 44.852 14.479 44.81C14.772 44.79 15.07 44.782 15.372 44.782C16.698 44.782 18.171 44.976 19.749 45.364C22.869 45.99 25.778 46.6 27.77 47.368C29.696 48.104 31.037 48.817 31.879 49.556C32.663 50.244 33.142 50.926 33.304 51.585C33.504 52.39 33.575 53.101 33.516 53.699C33.444 54.27 33.268 54.745 32.988 55.108C32.669 55.522 32.279 55.85 31.796 56.11C31.26 56.397 30.641 56.615 29.953 56.756C29.257 56.9 28.539 56.972 27.82 56.972C27.807 56.972 27.702 56.972 27.688 56.972L27.338 56.977C25.518 56.977 23.552 56.651 21.498 56.01C21.349 55.964 21.2 55.942 21.052 55.942C20.422 55.942 19.837 56.34 19.629 56.97C19.376 57.747 19.789 58.585 20.564 58.852C22.394 59.484 24.311 60.163 25.93 60.832C27.505 61.484 28.768 62.082 29.794 62.664C30.875 63.276 31.72 63.844 32.372 64.397C33.044 64.966 33.598 65.513 34.02 66.025C34.92 67.124 35.373 68.202 35.403 69.32C35.403 70.314 35.245 71.167 34.922 71.885C34.6 72.598 34.182 73.182 33.642 73.671C33.073 74.187 32.432 74.609 31.677 74.96C30.883 75.334 30.06 75.653 29.228 75.911C27.259 76.485 24.946 76.841 22.374 76.959C21.391 77.006 20.462 77.03 19.592 77.03ZM152.722 76.847C151.525 76.838 150.536 76.593 149.701 76.098C148.789 75.566 147.986 74.828 147.311 73.905C146.598 72.929 145.988 71.796 145.495 70.539C144.99 69.25 144.572 67.907 144.252 66.552C143.463 63.353 143.047 59.814 143.014 56.017C143.008 55.214 142.367 54.559 141.565 54.533C141.55 54.533 141.535 54.533 141.519 54.533C140.737 54.533 140.081 55.135 140.025 55.921C139.808 58.901 139.351 60.47 139.005 61.262C138.367 62.718 137.862 63.275 137.615 63.479C137.125 63.912 136.784 63.958 136.565 63.958C136.495 63.958 136.422 63.952 136.348 63.941C136.293 63.932 136.241 63.927 136.186 63.925C135.188 63.882 134.47 63.527 133.928 62.802C133.218 61.861 132.68 60.809 132.325 59.671C131.878 58.301 131.603 56.748 131.5 55.036C131.449 54.244 130.795 53.631 130.006 53.631C129.99 53.631 129.975 53.631 129.959 53.631C129.151 53.657 128.509 54.319 128.509 55.128C128.509 57.798 128.372 60.218 128.107 62.325C127.835 64.462 127.483 66.328 127.06 67.875C126.64 69.428 126.161 70.75 125.635 71.805C125.106 72.873 124.569 73.762 124.04 74.449C122.913 75.841 121.7 76.617 120.358 76.802C119.202 76.793 118.212 76.609 117.406 76.252C116.549 75.874 115.804 75.388 115.191 74.804C114.566 74.209 114.045 73.526 113.644 72.771C113.206 71.952 112.848 71.114 112.583 70.28C111.965 68.26 111.65 65.966 111.65 63.477C111.65 59.903 111.853 56.769 112.276 53.894C112.682 51.091 113.148 48.646 113.661 46.628C114.259 44.363 114.948 42.284 115.705 40.463C116.579 38.264 117.611 36.618 118.782 35.548C119.962 34.471 121.093 33.697 122.145 33.241C123.277 32.764 124.445 32.519 125.607 32.519L125.8 32.521L126.148 32.516C127.095 32.516 127.954 32.65 128.7 32.915C129.516 33.204 130.22 33.584 130.785 34.044C131.365 34.515 131.857 35.062 132.25 35.672C132.673 36.33 133.018 37.011 133.278 37.692C133.917 39.395 134.278 41.39 134.345 43.62C134.368 44.406 135 45.04 135.785 45.069C135.805 45.069 135.824 45.071 135.844 45.071C136.606 45.071 137.249 44.495 137.33 43.732C137.566 41.502 138.078 39.583 138.851 38.031C139.163 37.425 139.557 36.817 140.014 36.243C140.428 35.72 140.924 35.271 141.492 34.903C142.028 34.56 142.667 34.317 143.391 34.188C143.664 34.138 143.955 34.114 144.258 34.114C144.777 34.114 145.345 34.186 145.953 34.328C147.483 34.685 148.849 35.431 150.014 36.547C151.249 37.729 152.304 39.003 153.151 40.337C154.128 41.856 154.979 43.55 155.686 45.377C156.642 48.031 157.399 50.669 157.924 53.185C158.449 55.704 158.845 57.971 159.101 59.925C159.388 62.206 159.552 64.365 159.587 66.34C159.622 67.804 159.545 69.073 159.361 70.122C159.18 71.146 158.926 72.026 158.606 72.732C158.297 73.428 157.942 74.008 157.54 74.464C157.109 74.956 156.67 75.359 156.228 75.665C155.169 76.419 153.994 76.813 152.722 76.847Z" fill="#4a5568"/>
<path d="M122.4 10.776C122.962 9.36605 123.679 8.38205 124.55 7.74105C125.42 7.10205 126.284 6.68205 127.142 6.45505C128.133 6.17905 129.165 6.08405 130.238 6.16405C131.093 6.22805 131.825 6.34205 132.428 6.50705C133.031 6.67305 133.533 6.86805 133.935 7.09705C134.337 7.32605 134.652 7.57905 134.879 7.85705C135.108 8.13405 135.288 8.41705 135.422 8.70005C135.689 9.37505 135.717 10.136 135.503 10.985C135.154 11.997 134.577 12.894 133.774 13.659C132.97 14.424 132.152 15.066 131.322 15.575C130.357 16.182 129.312 16.704 128.187 17.142C128.722 18.454 128.963 19.679 128.91 20.787C128.855 21.895 128.71 22.865 128.468 23.677C128.173 24.628 127.759 25.494 127.222 26.27C126.606 27.047 125.91 27.619 125.133 27.977C124.356 28.335 123.445 28.541 122.4 28.602C121.543 28.652 120.798 28.618 120.17 28.494C119.54 28.37 119.024 28.217 118.622 28.032C118.141 27.83 117.739 27.586 117.417 27.3C116.988 26.903 116.634 26.467 116.352 25.991C116.071 25.515 115.849 25.014 115.689 24.489C115.529 23.964 115.42 23.431 115.368 22.892C115.314 22.354 115.287 21.847 115.287 21.371C115.287 20.238 115.433 19.082 115.728 17.916C114.363 17.557 113.116 17.081 111.991 16.478C111.509 16.224 111.033 15.932 110.564 15.603C110.095 15.274 109.66 14.905 109.258 14.497C108.857 14.089 108.513 13.639 108.233 13.149C107.951 12.66 107.757 12.128 107.65 11.56C107.516 10.891 107.504 10.297 107.611 9.78205C107.716 9.26605 107.891 8.81505 108.132 8.42605C108.373 8.03805 108.661 7.70905 108.996 7.43705C109.33 7.16505 109.685 6.94405 110.061 6.77305C110.945 6.35605 111.976 6.10405 113.156 5.99805C114.04 5.96205 114.857 6.00805 115.608 6.12605C116.357 6.24605 117.035 6.41005 117.637 6.62105C118.24 6.83105 118.775 7.07505 119.244 7.35305C119.714 7.63105 120.121 7.92405 120.47 8.23405C121.301 8.93705 121.943 9.77505 122.4 10.776Z" fill="#4a5568"/>
<path d="M44.935 6.966C46.836 7.073 48.37 7.521 49.536 8.29C50.7 9.06 51.617 9.876 52.286 10.745C53.063 11.75 53.626 12.883 53.975 14.139C54.376 16.012 54.428 17.56 54.135 18.834C53.841 20.106 53.425 21.151 52.889 21.983C52.272 22.952 51.51 23.762 50.599 24.417C51.83 24.788 52.781 25.339 53.451 26.079C54.119 26.818 54.602 27.542 54.897 28.264C55.246 29.104 55.447 30.011 55.5 30.988C55.553 32.24 55.448 33.358 55.179 34.352C54.912 35.347 54.537 36.221 54.054 36.975C53.573 37.73 53.011 38.394 52.367 38.967C51.723 39.541 51.069 40.021 50.399 40.41C48.792 41.333 46.958 41.96 44.896 42.258C43.77 42.413 42.74 42.443 41.802 42.358C40.864 42.271 40.02 42.111 39.271 41.883C38.521 41.654 37.85 41.38 37.262 41.065C36.671 40.749 36.163 40.405 35.735 40.038C34.69 39.208 33.9 38.23 33.363 37.113C32.561 35.53 32.038 33.806 31.797 31.939C31.557 30.072 31.436 28.298 31.436 26.635C31.436 24.939 31.518 23.38 31.677 21.97C31.838 20.56 32.025 19.352 32.239 18.355C32.482 17.188 32.747 16.126 33.044 15.177C33.391 13.983 33.833 12.942 34.368 12.062C34.904 11.182 35.488 10.42 36.117 9.779C36.746 9.139 37.402 8.632 38.084 8.26C38.769 7.889 39.431 7.591 40.074 7.365C41.601 6.881 43.221 6.747 44.935 6.966ZM43.528 17.784C43.073 17.793 42.691 17.983 42.383 18.352C42.075 18.724 41.922 19.204 41.922 19.789C41.922 20.342 42.035 20.846 42.262 21.301C42.49 21.758 42.911 21.978 43.527 21.961C44.063 21.946 44.465 21.705 44.733 21.236C45.001 20.769 45.135 20.262 45.135 19.712C45.135 19.197 45.001 18.745 44.733 18.354C44.466 17.963 44.064 17.773 43.528 17.784ZM43.89 29.813C43.435 29.831 43.04 30.053 42.705 30.479C42.371 30.904 42.229 31.37 42.283 31.873C42.337 32.534 42.504 32.982 42.785 33.222C43.066 33.463 43.435 33.573 43.889 33.552C44.345 33.532 44.719 33.357 45.015 33.031C45.308 32.703 45.457 32.274 45.457 31.739C45.457 31.236 45.322 30.783 45.055 30.384C44.787 29.982 44.398 29.792 43.89 29.813Z" fill="#4a5568"/>
<path d="M97.5019 6.56205C99.4029 6.61205 100.938 6.86005 102.104 7.28305C103.268 7.70805 104.185 8.15605 104.854 8.64105C105.631 9.20305 106.194 9.84505 106.543 10.581C106.944 11.685 106.996 12.642 106.703 13.463C106.409 14.284 105.992 14.99 105.457 15.574C104.84 16.255 104.079 16.858 103.168 17.381C104.399 17.546 105.35 17.868 106.02 18.348C106.688 18.828 107.171 19.321 107.466 19.829C107.815 20.421 108.016 21.082 108.068 21.818C108.122 22.762 108.016 23.639 107.748 24.444C107.481 25.25 107.106 25.983 106.623 26.636C106.142 27.29 105.579 27.887 104.935 28.425C104.292 28.965 103.638 29.437 102.967 29.842C101.361 30.804 99.5259 31.586 97.4629 32.182C96.3369 32.501 95.3069 32.715 94.3689 32.82C93.4309 32.924 92.5879 32.96 91.8389 32.92C91.0879 32.881 90.4179 32.792 89.8299 32.651C89.2389 32.51 88.7299 32.331 88.3029 32.111C87.2579 31.637 86.4669 30.983 85.9319 30.146C85.1299 28.972 84.6059 27.618 84.3659 26.092C84.1259 24.568 84.0049 23.118 84.0049 21.758C84.0049 20.371 84.0859 19.103 84.2459 17.964C84.4069 16.823 84.5939 15.86 84.8079 15.069C85.0509 14.145 85.3169 13.316 85.6129 12.584C85.9609 11.666 86.4019 10.876 86.9369 10.216C87.4729 9.55605 88.0569 8.99705 88.6859 8.53605C89.3149 8.07505 89.9699 7.72005 90.6539 7.46205C91.3389 7.20405 92.0009 7.00305 92.6439 6.85305C94.1679 6.52805 95.7899 6.44505 97.5019 6.56205ZM96.0959 13.453C95.6409 13.496 95.2579 13.656 94.9509 13.936C94.6429 14.217 94.4899 14.563 94.4899 14.97C94.4899 15.355 94.6029 15.697 94.8299 15.992C95.0589 16.29 95.4799 16.398 96.0959 16.321C96.6319 16.254 97.0339 16.044 97.3019 15.695C97.5699 15.347 97.7039 14.989 97.7039 14.617C97.7039 14.269 97.5689 13.977 97.3019 13.737C97.0339 13.498 96.6319 13.401 96.0959 13.453ZM96.4579 22.033C96.0039 22.11 95.6089 22.338 95.2739 22.719C94.9389 23.1 94.7969 23.488 94.8519 23.878C94.9049 24.393 95.0719 24.725 95.3539 24.872C95.6339 25.02 96.0029 25.049 96.4579 24.964C96.9149 24.878 97.2889 24.684 97.5849 24.382C97.8789 24.081 98.0269 23.722 98.0269 23.305C98.0269 22.913 97.8919 22.583 97.6249 22.311C97.3559 22.041 96.9659 21.946 96.4579 22.033Z" fill="#4a5568"/>
<path d="M79.905 35.87C79.262 36.237 78.593 36.529 77.898 36.745C77.31 36.935 76.662 37.06 75.952 37.115C75.243 37.169 74.54 37.069 73.846 36.812C73.043 36.498 72.396 36.066 71.9 35.518C71.405 34.971 71.011 34.409 70.717 33.835C70.423 33.262 70.223 32.722 70.114 32.216C70.007 31.712 69.94 31.374 69.914 31.208C69.887 31.384 69.821 31.748 69.713 32.294C69.606 32.842 69.406 33.463 69.112 34.159C68.818 34.854 68.423 35.583 67.928 36.343C67.432 37.105 66.785 37.817 65.983 38.481C65.287 39.039 64.585 39.443 63.878 39.691C63.169 39.938 62.519 40.086 61.931 40.138C61.237 40.207 60.568 40.185 59.925 40.069C59.391 39.961 58.93 39.775 58.542 39.509C58.153 39.244 57.834 38.921 57.579 38.542C57.324 38.163 57.11 37.746 56.937 37.29C56.763 36.835 56.636 36.377 56.555 35.915C56.342 34.826 56.262 33.625 56.315 32.317C56.395 30.157 56.608 28.109 56.956 26.199C57.304 24.289 57.739 22.501 58.26 20.858C58.781 19.213 59.348 17.717 59.965 16.379C60.58 15.043 61.181 13.831 61.77 12.745C62.653 11.119 63.555 9.88304 64.478 9.03904C65.4 8.19504 66.256 7.58704 67.046 7.20804C67.834 6.82704 68.49 6.61604 69.011 6.56504C69.533 6.51404 69.833 6.48904 69.913 6.48804C69.992 6.48804 70.293 6.51004 70.815 6.55504C71.336 6.59704 71.993 6.79704 72.78 7.13804C73.568 7.47704 74.431 8.01304 75.367 8.72104C76.303 9.42904 77.212 10.45 78.096 11.754C78.684 12.626 79.279 13.582 79.881 14.619C80.482 15.657 81.044 16.814 81.566 18.091C82.086 19.368 82.521 20.773 82.869 22.313C83.216 23.854 83.43 25.557 83.512 27.439C83.59 28.572 83.524 29.67 83.311 30.733C83.231 31.18 83.104 31.644 82.93 32.124C82.756 32.606 82.536 33.071 82.268 33.523C82.001 33.975 81.673 34.4 81.285 34.8C80.9 35.199 80.439 35.556 79.905 35.87ZM70.075 22.634C69.621 22.699 69.226 22.949 68.893 23.383C68.557 23.819 68.417 24.272 68.47 24.737C68.524 25.351 68.692 25.752 68.971 25.942C69.252 26.133 69.62 26.189 70.074 26.114C70.529 26.039 70.903 25.831 71.198 25.491C71.493 25.154 71.638 24.738 71.638 24.243C71.638 23.78 71.504 23.377 71.237 23.036C70.971 22.698 70.584 22.561 70.075 22.634Z" fill="#4a5568"/>
<path d="M93.5585 52.0888C94.3984 52.3127 95.7642 49.9256 96.609 46.757C97.4537 43.5883 97.4577 40.8381 96.6178 40.6142C95.7779 40.3903 94.4121 42.7774 93.5674 45.946C92.7226 49.1147 92.7186 51.8649 93.5585 52.0888Z" fill="white"/>
<path d="M72.6734 55.7735C73.4928 56.0638 75.045 53.7933 76.1404 50.7021C77.2357 47.6108 77.4594 44.8695 76.64 44.5792C75.8206 44.2888 74.2684 46.5594 73.1731 49.6506C72.0777 52.7419 71.854 55.4832 72.6734 55.7735Z" fill="white"/>
<path d="M40.1631 58.2279C41.1456 58.5315 42.5389 56.8459 43.2752 54.463C44.0115 52.0801 43.8119 49.9023 42.8294 49.5987C41.8469 49.2952 40.4536 50.9808 39.7173 53.3637C38.981 55.7465 39.1806 57.9243 40.1631 58.2279Z" fill="white"/>
<path d="M11.6154 53.1977C12.5292 53.4803 13.7001 52.319 14.2306 50.6038C14.7612 48.8886 14.4505 47.269 13.5367 46.9863C12.6229 46.7036 11.452 47.865 10.9215 49.5802C10.3909 51.2954 10.7016 52.915 11.6154 53.1977Z" fill="white"/>
<path d="M39.73 13.429C38.537 14.77 36.994 15.346 36.277 14.715C35.56 14.079 35.947 12.476 37.136 11.131C38.327 9.78699 39.873 9.21299 40.589 9.84499C41.306 10.479 40.92 12.083 39.73 13.429Z" fill="white"/>
<path d="M87.8736 13.2062C88.4296 13.6988 89.6296 13.2522 90.554 12.2088C91.4783 11.1655 91.7769 9.92033 91.2209 9.42776C90.6649 8.93519 89.4648 9.38172 88.5405 10.4251C87.6162 11.4685 87.3176 12.7136 87.8736 13.2062Z" fill="white"/>
<path d="M109.986 10.8171C110.497 11.2698 111.387 11.0997 111.974 10.4371C112.562 9.77457 112.623 8.87045 112.113 8.41774C111.602 7.96502 110.712 8.13514 110.124 8.79771C109.537 9.46028 109.475 10.3644 109.986 10.8171Z" fill="white"/>
<path d="M141.079 10.685C138.151 12.599 134.094 18.403 134.094 24.014C143.57 16.77 147.541 23.623 151.686 20.955C154.615 19.1 154.615 14.451 151.686 11.598C148.755 8.76997 144.007 8.78297 141.079 10.685Z" fill="#4a5568"/>
<path d="M142.613 23.604C140.583 23.217 136.297 23.917 134.093 25.713C140.662 26.372 139.74 29.772 142.613 30.291C144.645 30.708 146.29 29.577 146.29 27.697C146.29 25.815 144.645 23.961 142.613 23.604Z" fill="#4a5568"/>
<path d="M146.472 13.09C144.784 12.869 143.493 12.099 143.587 11.367C143.685 10.635 145.13 10.222 146.815 10.438C148.503 10.66 149.794 11.431 149.701 12.162C149.603 12.895 148.158 13.307 146.472 13.09Z" fill="white"/>
<path d="M142.823 25.693C142.113 25.402 141.653 24.89 141.792 24.549C141.936 24.208 142.623 24.171 143.33 24.46C144.037 24.752 144.499 25.265 144.358 25.605C144.217 25.946 143.53 25.984 142.823 25.693Z" fill="white"/>
<path d="M67.391 13.921C65.722 16.104 63.758 17.403 62.996 16.827C62.235 16.244 62.973 14.004 64.638 11.819C66.305 9.63397 68.273 8.33496 69.033 8.91196C69.794 9.49396 69.059 11.735 67.391 13.921Z" fill="white"/>
<path d="M59.7928 59.9751C60.2734 60.1238 60.8911 59.5074 61.1724 58.5984C61.4537 57.6893 61.2921 56.8318 60.8114 56.6831C60.3308 56.5344 59.7131 57.1507 59.4318 58.0598C59.1506 58.9689 59.3122 59.8263 59.7928 59.9751Z" fill="white"/>
<path d="M116.767 48.8375C117.844 49.284 119.939 46.6983 121.446 43.0621C122.953 39.4259 123.301 36.1162 122.223 35.6697C121.146 35.2232 119.051 37.8089 117.544 41.4451C116.037 45.0813 115.689 48.391 116.767 48.8375Z" fill="white"/>
<path d="M139.868 42.9551C140.413 43.1629 141.423 41.8408 142.125 40.0019C142.827 38.1631 142.955 36.504 142.411 36.2961C141.867 36.0883 140.856 37.4105 140.154 39.2493C139.452 41.0881 139.324 42.7473 139.868 42.9551Z" fill="white"/>
<path d="M22.175 21.567C25.104 23.481 29.161 29.285 29.16 34.896C19.684 27.652 15.713 34.505 11.569 31.837C8.64 29.982 8.64 25.332 11.569 22.479C14.499 19.653 19.247 19.666 22.175 21.567Z" fill="#4a5568"/>
<path d="M20.641 34.487C22.671 34.1 26.958 34.8 29.161 36.596C22.591 37.255 23.515 40.655 20.641 41.174C18.61 41.591 16.965 40.46 16.965 38.58C16.965 36.698 18.61 34.843 20.641 34.487Z" fill="#4a5568"/>
<path d="M19.903 36.6849C20.466 36.1049 20.665 35.5109 20.341 35.3579C20.014 35.2059 19.299 35.5539 18.731 36.1319C18.169 36.7119 17.973 37.3069 18.297 37.4599C18.62 37.6119 19.34 37.2649 19.903 36.6849Z" fill="white"/>
<path d="M11.6827 24.7496C12.032 25.2594 13.2774 25.0136 14.4643 24.2004C15.6512 23.3873 16.3303 22.3147 15.981 21.8049C15.6317 21.295 14.3863 21.5409 13.1994 22.3541C12.0125 23.1672 11.3334 24.2397 11.6827 24.7496Z" fill="white"/>
</g>
<defs>
<clipPath id="clip0">
<rect width="170.079" height="88.486" fill="white"/>
</clipPath>
</defs>
</svg>
