<?xml version="1.0" encoding="utf-8"?>
<!-- Generator: Adobe Illustrator 22.0.0, SVG Export Plug-In . SVG Version: 6.00 Build 0)  -->
<svg version="1.1" id="Layer_1" xmlns="http://www.w3.org/2000/svg" xmlns:xlink="http://www.w3.org/1999/xlink" x="0px" y="0px"
	 viewBox="0 0 429.1 50.8" style="enable-background:new 0 0 429.1 50.8;" xml:space="preserve">
<style type="text/css">
	.st0{fill:#AA0000;}
	.st1{fill:#FFFFFF;}
</style>
<g>
	<path class="st0" d="M24.9,14.9c-5.6,0-10.2,4.6-10.2,10.1c0,5.2,3.8,9.4,8.9,10.1c0,0,0,0,0,0c0,0,0,0,0,0
		c0.4,0.1,0.8,0.1,1.3,0.1c5.7,0,10.2-4.5,10.2-10.1C35.1,19.5,30.6,14.9,24.9,14.9z"/>
	<path class="st0" d="M49.6,20.8c-0.4-2.4-1.2-4.7-2.2-6.9C43.5,6.2,36.2,1.1,27.7,0.1c-1.1-0.1-4.1-0.1-5.2,0
		c-4.6,0.5-8.8,2.1-12.4,4.8c-5.2,3.8-8.7,9.6-9.7,15.8C0,22.4,0,23,0,25.1c0,1.7,0,2.1,0.1,2.9C0.8,33.5,3,38.1,6.7,42.2
		c1.6,1.7,3.9,3.5,5.9,4.7c3.3,1.9,7.1,3,10.9,3.2c0.8,0,2.2,0,3,0c8.8-0.6,16.7-5.8,20.7-13.7c1.3-2.6,2.1-5.2,2.5-8.3
		c0.1-0.8,0.1-1.3,0.1-2.9C49.9,23,49.8,22.4,49.6,20.8z M44.8,31.7c-0.1,1.8-0.2,3.2-0.3,3.5c-0.3,0.9-0.8,1.4-2,1.6
		c-1.3,0.2-5.3,0.5-9.3,0.7c-2,0.1-12.2,0.1-14.6,0.1c-4.2-0.1-7.6-0.3-10.5-0.6c-0.9-0.1-1.2-0.2-1.6-0.3c-0.6-0.2-1-0.7-1.1-1.4
		c-0.1-0.4-0.2-1.7-0.3-3.5c-0.1-1.8-0.1-11.6,0-13.3c0.1-1.6,0.2-3.1,0.3-3.5c0.2-0.9,0.8-1.4,1.9-1.6c1.5-0.3,6.4-0.6,11-0.7
		c2.7-0.1,13.8,0,15.8,0.1c4.2,0.2,7.7,0.5,8.8,0.7c1,0.2,1.6,0.7,1.8,1.6c0.1,0.3,0.2,1.8,0.3,3.5C44.9,20.2,44.9,29.9,44.8,31.7z"
		/>
</g>
<rect x="43.8" y="0" class="st0" width="251.5" height="50.1"/>
<g>
	<path class="st1" d="M77.3,5.8V26c0,7.6,3.4,10.9,7.9,10.9c5.1,0,8.3-3.3,8.3-10.9V5.8H98v19.9c0,10.5-5.5,14.8-12.9,14.8
		c-7,0-12.3-4-12.3-14.6V5.8H77.3z"/>
	<path class="st1" d="M105.6,6.3c2.2-0.5,5.4-0.7,8.5-0.7c4.7,0,7.7,0.9,9.9,2.8c1.7,1.5,2.7,3.8,2.7,6.5c0,4.5-2.8,7.5-6.4,8.7v0.2
		c2.6,0.9,4.2,3.3,5,6.9c1.1,4.8,1.9,8,2.6,9.4h-4.6c-0.6-1-1.3-3.9-2.3-8.2c-1-4.7-2.8-6.5-6.8-6.6H110v14.8h-4.4V6.3z M110,21.8
		h4.5c4.7,0,7.7-2.6,7.7-6.5c0-4.4-3.2-6.3-7.8-6.4c-2.1,0-3.6,0.2-4.4,0.4V21.8z"/>
	<path class="st1" d="M159,38.4c-2,0.7-5.9,1.9-10.5,1.9c-5.2,0-9.4-1.3-12.8-4.5c-2.9-2.8-4.8-7.4-4.8-12.7
		c0.1-10.2,7-17.6,18.5-17.6c3.9,0,7,0.9,8.5,1.6l-1.1,3.6c-1.8-0.8-4.1-1.5-7.5-1.5c-8.3,0-13.7,5.2-13.7,13.7
		c0,8.7,5.2,13.8,13.2,13.8c2.9,0,4.9-0.4,5.9-0.9V25.6h-6.9V22H159V38.4z"/>
	<path class="st1" d="M183.4,23.9h-13.3v12.3h14.8v3.7h-19.2V5.8h18.4v3.7h-14v10.8h13.3V23.9z"/>
	<path class="st1" d="M190.6,39.9V5.8h4.8l10.9,17.3c2.5,4,4.5,7.6,6.1,11.1l0.1-0.1c-0.4-4.6-0.5-8.7-0.5-14V5.8h4.2v34.1h-4.5
		l-10.8-17.3c-2.4-3.8-4.7-7.7-6.4-11.4l-0.2,0.1c0.3,4.3,0.4,8.4,0.4,14.1v14.6H190.6z"/>
	<path class="st1" d="M230.4,9.6H220V5.8h25.3v3.7h-10.4v30.4h-4.5V9.6z"/>
	<path class="st1" d="M266.7,23.9h-13.3v12.3h14.8v3.7H249V5.8h18.4v3.7h-14v10.8h13.3V23.9z"/>
</g>
<path class="st0" d="M350.8,26.6h-16v18.1h21.7v5.4h-31.1V0h31.1v5.4h-21.7v15.9h16V26.6z"/>
<path class="st0" d="M400.7,42.5c2.9,1.8,7,3.2,11.4,3.2c6.5,0,10.3-3.4,10.3-8.4c0-4.6-2.6-7.3-9.3-9.8c-8.1-2.9-13-7-13-14
	c0-7.7,6.4-13.4,16-13.4c5.1,0,8.7,1.2,10.9,2.4l-1.8,5.2c-1.6-0.9-4.9-2.3-9.4-2.3c-6.7,0-9.3,4-9.3,7.4c0,4.6,3,6.9,9.8,9.5
	c8.4,3.2,12.6,7.3,12.6,14.5c0,7.6-5.6,14.2-17.3,14.2c-4.8,0-10-1.4-12.6-3.2L400.7,42.5z"/>
<path class="st0" d="M329,52.7"/>
<polygon class="st0" points="295.3,18.6 319.4,50.1 325.5,50.2 325.5,39.9 295.3,0 "/>
<polygon class="st0" points="356.5,0 356.5,50.2 367.6,50 380.4,20.8 375.8,50.1 388.2,50.1 411.1,0 401.8,0 387.4,31.7 389.4,0 
	379.1,0 365.8,31.7 367.3,0 "/>
<polygon class="st0" points="409.9,0 409.5,1.1 417,0.1 "/>
<path class="st0" d="M294.8,18.9h-1.5c-0.9,0-1.7-0.8-1.7-1.7V1.7c0-0.9,0.8-1.7,1.7-1.7h1.5c0.9,0,1.7,0.8,1.7,1.7v15.4
	C296.5,18.1,295.7,18.9,294.8,18.9z"/>
<path class="st0" d="M356.2,5.2h-1.5c-0.9,0-1.7-0.8-1.7-1.7V1.7c0-0.9,0.8-1.7,1.7-1.7h1.5c0.9,0,1.7,0.8,1.7,1.7v1.8
	C357.9,4.5,357.1,5.2,356.2,5.2z"/>
<path class="st0" d="M326.2,50.1h-1.5c-0.9,0-1.7-0.8-1.7-1.7v-6.8c0-0.9,0.8-1.7,1.7-1.7h1.5c0.9,0,1.7,0.8,1.7,1.7v6.8
	C327.9,49.3,327.2,50.1,326.2,50.1z"/>
<path class="st0" d="M411.5,5.9h-1.4c-0.9,0-1.7-0.8-1.7-1.7V1.7c0-0.9,0.8-1.7,1.7-1.7h1.4c0.9,0,1.7,0.8,1.7,1.7v2.5
	C413.2,5.2,412.5,5.9,411.5,5.9z"/>
</svg>
