<?xml version="1.0" encoding="UTF-8" standalone="no"?>
<svg
   xmlns:dc="http://purl.org/dc/elements/1.1/"
   xmlns:cc="http://creativecommons.org/ns#"
   xmlns:rdf="http://www.w3.org/1999/02/22-rdf-syntax-ns#"
   xmlns:svg="http://www.w3.org/2000/svg"
   xmlns="http://www.w3.org/2000/svg"
   xmlns:sodipodi="http://sodipodi.sourceforge.net/DTD/sodipodi-0.dtd"
   xmlns:inkscape="http://www.inkscape.org/namespaces/inkscape"
   version="1.1"
   id="svg2"
   viewBox="0 0 499.99999 319.31887"
   height="319.31888"
   width="500"
   sodipodi:docname="logo-g1.svg"
   inkscape:version="0.92.4 (5da689c313, 2019-01-14)">
  <sodipodi:namedview
     pagecolor="#ffffff"
     bordercolor="#666666"
     borderopacity="1"
     objecttolerance="10"
     gridtolerance="10"
     guidetolerance="10"
     inkscape:pageopacity="0"
     inkscape:pageshadow="2"
     inkscape:window-width="1920"
     inkscape:window-height="1027"
     id="namedview841"
     showgrid="false"
     inkscape:zoom="2.6869692"
     inkscape:cx="250"
     inkscape:cy="159.65944"
     inkscape:window-x="-8"
     inkscape:window-y="-8"
     inkscape:window-maximized="1"
     inkscape:current-layer="svg2" />
  <title
     id="title4143">G1</title>
  <defs
     id="defs4" />
  <metadata
     id="metadata7">
    <rdf:RDF>
      <cc:Work
         rdf:about="">
        <dc:format>image/svg+xml</dc:format>
        <dc:type
           rdf:resource="http://purl.org/dc/dcmitype/StillImage" />
        <dc:title>G1</dc:title>
      </cc:Work>
    </rdf:RDF>
  </metadata>
  <g
     transform="translate(-75.895968,-290.01389)"
     id="layer1">
    <g
       transform="matrix(12.499335,0,0,12.499335,-2531.0825,-6450.0229)"
       id="text4136"
       style="font-style:normal;font-weight:normal;font-size:40px;line-height:125%;font-family:sans-serif;letter-spacing:0px;word-spacing:0px;fill:#000000;fill-opacity:1;stroke:none;stroke-width:1px;stroke-linecap:butt;stroke-linejoin:miter;stroke-opacity:1">
      <path
         id="path4141"
         style="font-style:normal;font-variant:normal;font-weight:normal;font-stretch:normal;font-size:40px;line-height:125%;font-family:g1-iconset;-inkscape-font-specification:'g1-iconset, Normal';text-align:start;writing-mode:lr-tb;text-anchor:start;fill:#a80000;fill-opacity:1"
         d="m 208.57143,547.9035 0,8.63282 q 0,1.71875 0.66406,3.24218 0.70312,1.48438 1.875,2.61719 1.21094,1.09375 2.8125,1.75781 1.60156,0.625 3.4375,0.625 l 17.57812,0 0,-15.3125 -9.33593,0 0,7.61719 -5.50782,0 q -0.42968,0 -0.85937,-0.15625 -0.39063,-0.15625 -0.70313,-0.42969 -0.27343,-0.27343 -0.46875,-0.625 -0.15625,-0.39062 -0.15625,-0.82031 l 0,-7.85156 q 0,-0.42969 0.11719,-0.78125 0.11719,-0.39063 0.3125,-0.66406 0.23438,-0.27344 0.58594,-0.39063 0.35156,-0.15625 0.78125,-0.15625 l 8.24219,0 4.41406,-5.9375 -15.03906,0 q -1.79688,0 -3.4375,0.70313 -1.60157,0.70312 -2.77344,1.91406 -1.17188,1.17187 -1.875,2.73437 -0.70313,1.5625 -0.66406,3.28125 l 0,0 z m 30.625,-0.74218 0.0391,17.61718 9.29687,0 0.0391,-23.47656 q -0.0391,-0.42969 -0.19532,-0.78125 -0.15625,-0.39062 -0.46875,-0.66406 -0.3125,-0.3125 -0.70312,-0.46875 -0.39063,-0.15625 -0.85938,-0.15625 l -9.57031,0 -4.45312,5.97656 4.6875,0 q 0.42968,0 0.82031,0.15625 0.42969,0.11719 0.70312,0.39063 0.3125,0.27343 0.50782,0.66406 0.19531,0.35156 0.15625,0.74219 l 0,0 z" />
    </g>
  </g>
  <path
     style="fill:#ffffff;stroke-width:0.37216651"
     d="M 99.458641,318.7434 C 94.142566,318.32453 85.320913,316.84428 79.919898,315.46486 61.599714,310.78589 42.099115,299.76558 29.53812,286.99278 16.109621,273.33786 6.5737836,256.29388 2.7208727,239.0607 0.33528216,228.3905 0.4623452,232.76124 0.4623452,161.37141 c 0,-72.085881 -0.1649963,-66.894135 2.470874,-77.748097 C 5.568324,72.772508 10.713401,61.342749 17.722064,50.769975 34.249485,25.837879 59.22661,8.6985481 87.549312,2.8544386 98.072395,0.68310466 90.866559,0.82346927 198.38526,0.69543219 c 83.7342,-0.0997137 98.50896,-0.0401014 98.25196,0.39642081 -0.16637,0.2825806 -12.52146,16.950251 -27.45576,37.039268 l -27.15327,36.525484 -53.2347,0.0055 c -46.15913,0.0048 -53.55153,0.08018 -55.61845,0.567394 -3.61965,0.853214 -8.15524,3.133683 -10.08382,5.070084 -2.09052,2.098986 -4.23207,6.389213 -5.5233,11.064935 l -0.9873,3.575162 -10e-4,53.40589 -0.001,53.4059 0.8442,2.9705 c 2.39615,8.43142 10.12354,15.43223 19.52044,17.68503 2.96565,0.71097 4.4605,0.73893 39.64721,0.74144 l 36.56527,0.003 v -47.45123 -47.45124 h 58.05798 58.05798 v 95.46072 95.46071 l -112.8595,-0.052 c -62.07272,-0.0286 -114.70172,-0.19717 -116.953329,-0.37459 z"
     id="path843"
     inkscape:connector-curvature="0" />
  <path
     style="fill:#ffffff;stroke-width:0.37216651"
     d="m 383.46792,295.63048 c -0.1261,-12.94674 -0.29443,-63.48231 -0.37409,-112.30125 l -0.14482,-88.761716 -0.78984,-2.206125 c -1.23893,-3.46055 -3.85024,-7.286537 -7.07783,-10.370156 -3.32935,-3.180844 -4.91567,-4.091528 -10.26797,-5.894716 l -3.72166,-1.253829 -31.89499,-0.186083 -31.89499,-0.186083 27.61508,-37.116964 27.61507,-37.11696407 62.71006,0.0863946 62.71006,0.0863946 2.97733,1.01393487 c 4.3128,1.4687311 7.35462,3.4010312 11.00139,6.9885802 2.6323,2.5895538 3.4943,3.7388088 4.74546,6.3268308 0.84088,1.739365 1.86941,4.586018 2.28561,6.325896 0.74453,3.112413 0.75677,4.126971 0.75934,62.927334 10e-4,32.870151 -0.10892,99.232101 -0.24524,147.470981 l -0.24785,87.70707 h -57.76543 -57.76543 z"
     id="path845"
     inkscape:connector-curvature="0" />
</svg>
