<?xml version="1.0" encoding="UTF-8" standalone="no"?>
<svg
   xmlns:dc="http://purl.org/dc/elements/1.1/"
   xmlns:cc="http://creativecommons.org/ns#"
   xmlns:rdf="http://www.w3.org/1999/02/22-rdf-syntax-ns#"
   xmlns:svg="http://www.w3.org/2000/svg"
   xmlns="http://www.w3.org/2000/svg"
   xmlns:sodipodi="http://sodipodi.sourceforge.net/DTD/sodipodi-0.dtd"
   xmlns:inkscape="http://www.inkscape.org/namespaces/inkscape"
   width="200"
   height="200.56596"
   version="1.1"
   id="svg44"
   sodipodi:docname="logo.svg"
   inkscape:version="0.92.4 (5da689c313, 2019-01-14)">
  <defs
     id="defs48" />
  <sodipodi:namedview
     pagecolor="#ffffff"
     bordercolor="#666666"
     borderopacity="1"
     objecttolerance="10"
     gridtolerance="10"
     guidetolerance="10"
     inkscape:pageopacity="0"
     inkscape:pageshadow="2"
     inkscape:window-width="1920"
     inkscape:window-height="1027"
     id="namedview46"
     showgrid="false"
     inkscape:zoom="4.2778943"
     inkscape:cx="62.014022"
     inkscape:cy="100.28298"
     inkscape:window-x="-8"
     inkscape:window-y="-8"
     inkscape:window-maximized="1"
     inkscape:current-layer="g40" />
  <title
     id="title30">Globo</title>
  <metadata
     id="metadata32">
    <rdf:RDF>
      <cc:Work
         rdf:about="">
        <dc:format>image/svg+xml</dc:format>
        <dc:type
           rdf:resource="http://purl.org/dc/dcmitype/StillImage" />
        <dc:title>Globo</dc:title>
      </cc:Work>
    </rdf:RDF>
  </metadata>
  <g
     transform="translate(-848.95717,-66.293363)"
     id="g42">
    <g
       transform="matrix(5.0383913,0,0,5.0383913,-3428.4211,-1077.6823)"
       id="g40">
      <path
         d="m 860.73617,246.94453 0,0 c 0,-4.43014 3.5934,-8.05105 8.05837,-8.05105 4.48622,0 8.07934,3.62091 8.07934,8.05105 0,4.45143 -3.59312,8.05106 -8.07934,8.05106 -4.46497,0 -8.05837,-3.59963 -8.05837,-8.05106 z"
         style="fill:#000000;fill-opacity:1;fill-rule:evenodd;stroke:none"
         id="path38" />
    </g>
  </g>
  <path
     style="fill:#aa0000;stroke-width:0.23375987"
     d="M 94.389763,200.31312 C 79.43985,199.46589 63.950629,194.90097 50.895295,187.4946 42.670989,182.82891 33.37748,175.47217 27.128883,168.68112 12.390294,152.66305 3.6884072,134.03035 0.83782246,112.38604 0.39992256,109.0611 0.32274625,107.33655 0.31292822,100.657 0.30048235,92.189638 0.47229648,89.85678 1.5974688,83.215756 5.8489887,58.12231 19.891611,35.266575 40.508114,19.88489 55.011381,9.0642057 71.844461,2.5182366 90.182086,0.56790961 94.582304,0.09991729 106.45176,0.17043348 110.86983,0.69081508 145.06887,4.7189417 174.16676,25.121532 189.43027,55.775104 c 4.36342,8.763005 7.36105,17.930938 8.97226,27.440652 1.1265,6.648841 1.2972,8.9711 1.28203,17.441244 -0.0119,6.65146 -0.091,8.41808 -0.52489,11.72904 -1.58101,12.06352 -4.79501,22.59091 -10.08583,33.03597 -16.0754,31.73577 -47.36472,52.4875 -82.64544,54.81218 -3.24557,0.21385 -8.992893,0.25153 -12.038637,0.0789 z M 133.1939,149.99503 c 15.8011,-0.61548 31.95485,-1.75193 37.05094,-2.60661 4.71525,-0.79081 6.95674,-2.58191 7.97532,-6.37283 0.37615,-1.39995 0.87302,-6.76651 1.30181,-14.06061 0.41907,-7.12879 0.42121,-46.178551 0.003,-53.297247 -0.38535,-6.558013 -0.91552,-12.567559 -1.22476,-13.882582 -0.86631,-3.684016 -3.08168,-5.646942 -7.27354,-6.444708 -4.37305,-0.832251 -18.50366,-1.926181 -35.14446,-2.720731 -7.93694,-0.378967 -52.178157,-0.543162 -62.998279,-0.233809 -18.342641,0.524426 -37.654324,1.821903 -43.787435,2.94191 -4.288741,0.783194 -6.52041,2.731484 -7.396559,6.457338 -0.309233,1.315023 -0.839409,7.324569 -1.224754,13.882582 -0.41829,7.118696 -0.416146,46.168457 0.0029,53.297247 0.42879,7.2941 0.925655,12.66066 1.301807,14.06061 0.748476,2.78566 2.267381,4.59892 4.592396,5.48235 1.680661,0.6386 2.834495,0.86227 6.461756,1.25257 11.343163,1.22057 25.134513,2.03282 41.803062,2.46201 9.639385,0.24819 50.497256,0.0964 58.556846,-0.21749 z"
     id="path54"
     inkscape:connector-curvature="0" />
  <path
     style="fill:#aa0000;stroke-width:0.23375987"
     d="m 94.803313,140.36815 c -15.383193,-1.98123 -28.337196,-12.6384 -33.238196,-27.34483 -1.579966,-4.741 -1.870077,-6.70351 -1.879906,-12.71696 -0.0078,-4.790392 0.05141,-5.656783 0.543418,-7.947838 1.412791,-6.578694 4.304894,-12.689157 8.373866,-17.692382 1.869848,-2.299172 5.512527,-5.69665 8.0323,-7.491619 4.072638,-2.901157 10.222987,-5.56431 15.18361,-6.574631 6.219069,-1.266626 13.209575,-1.007971 19.168305,0.709246 14.71141,4.239605 25.48957,15.843842 28.80338,31.010966 0.4542,2.078843 0.51913,3.063091 0.51913,7.869378 0,4.84049 -0.0632,5.78506 -0.53201,7.94783 -1.1665,5.38179 -3.12574,10.08688 -5.98627,14.37597 -6.70229,10.04941 -16.98919,16.36459 -29.10961,17.87054 -2.30067,0.28585 -7.602155,0.27745 -9.878017,-0.0157 z"
     id="path56"
     inkscape:connector-curvature="0" />
</svg>
