<?xml version="1.0" encoding="utf-8"?>
<!-- Generator: Adobe Illustrator 16.0.0, SVG Export Plug-In . SVG Version: 6.00 Build 0)  -->
<!DOCTYPE svg PUBLIC "-//W3C//DTD SVG 1.1//EN" "http://www.w3.org/Graphics/SVG/1.1/DTD/svg11.dtd">
<svg version="1.1" id="Layer_1" xmlns="http://www.w3.org/2000/svg" xmlns:xlink="http://www.w3.org/1999/xlink" x="0px" y="0px"
	 width="800px" height="800px" viewBox="0 0 800 800" enable-background="new 0 0 800 800" xml:space="preserve">
<g>
	<g>
		<g>
			<g>
				<path fill="#EB007D" d="M699.26,294.91c-3.707-1.254-5.1-4.744-3.873-8.354c1.254-3.708,4.545-5.501,8.057-4.311
					c3.504,1.189,5.131,4.646,3.875,8.357C706.096,294.214,702.762,296.098,699.26,294.91z"/>
				<path fill="#EB007D" d="M678.502,287.868c-3.707-1.257-5.094-4.751-3.871-8.358c1.258-3.713,4.545-5.494,8.057-4.313
					c3.508,1.2,5.133,4.653,3.871,8.364C685.338,287.177,682.014,289.057,678.502,287.868z"/>
				<path fill="#EB007D" d="M657.74,280.819c-3.707-1.253-5.098-4.744-3.863-8.354c1.256-3.715,4.539-5.496,8.053-4.309
					c3.508,1.192,5.135,4.646,3.877,8.357C664.59,280.123,661.256,282.008,657.74,280.819z"/>
			</g>
		</g>
		<g>
			<g>
				<g>
					<path fill="#EB007D" d="M238.2,241.396l-25.035,24.55l-1.366-4.429l21.194-20.338l-0.032-0.127l-28.972-4.824l-1.382-4.431
						l34.529,6.134L238.2,241.396z"/>
					<path fill="#EB007D" d="M212.12,270.103l-2.856-9.245l19.094-18.311l-26.104-4.345l-2.855-9.241l39.468,7.021l1.868,6.06
						L212.12,270.103z M234.913,239.802l0.401,1.304l0.354-0.35l-0.271-0.86L234.913,239.802z"/>
				</g>
				<g>
					<path fill="#EB007D" d="M205.49,271.128l-32.357-40.975l4.371-1.348l32.291,40.994L205.49,271.128z"/>
					<polygon fill="#EB007D" points="213.546,270.969 204.69,273.716 169.361,228.987 178.303,226.222 					"/>
				</g>
				<g>
					<path fill="#EB007D" d="M147.066,265.707l25.064-24.478l1.364,4.422l-21.403,20.403l0.045,0.124l29.178,4.762l1.369,4.437
						l-34.509-6.078L147.066,265.707z"/>
					<path fill="#EB007D" d="M185.895,278.199l-39.445-6.937l-1.913-6.201l28.644-27.993l2.858,9.249l-19.267,18.36l26.265,4.278
						L185.895,278.199z M149.911,267.337l0.267,0.049l-0.379-1.227l-0.203,0.192L149.911,267.337z"/>
				</g>
			</g>
		</g>
		<g>
			<g>
				<path fill="#EB007D" d="M608.358,349.655c0,0,66.223,15.584,58.184,91.523c0,0-4.932,53.26-46.697,72.397l-42.713-70.261
					L608.358,349.655z"/>
				<path fill="#E2CFC0" d="M597.473,422.978c0,0,11.35-26.021,12.775-43.988c0,0,30.75,8.987,33.104,48.716
					c0,0,0.957,35.943-27.906,57.71c0,0-19.348-32.782-28.375-38.793c-9.039-5.998,0-2.361,0-2.361s8.994-15.134,39.264-12.063
					C626.334,432.198,617.346,425.34,597.473,422.978z"/>
			</g>
		</g>
		<g>
			<g>
				<path fill="#EB007D" d="M332.473,349.655c0,0-66.229,15.584-58.188,91.523c0,0,4.932,53.26,46.698,72.397l42.711-70.261
					L332.473,349.655z"/>
				<path fill="#E2CFC0" d="M343.348,422.978c0,0-11.345-26.021-12.771-43.988c0,0-30.75,8.987-33.112,48.716
					c0,0-0.937,35.943,27.909,57.71c0,0,19.354-32.782,28.384-38.793c9.039-5.998,0-2.361,0-2.361s-8.998-15.134-39.271-12.063
					C314.484,432.198,323.481,425.34,343.348,422.978z"/>
			</g>
		</g>
		<path fill="#EB007D" d="M431.348,622.052c-4.813,9.626,5.069,24.069,5.069,24.069c-1.271-15.46,13.429-21.796,13.429-21.796
			c-7.854,20.785,10.145,29.907,10.145,29.907c-5.069-19.013,7.605-26.608,7.605-26.608
			c92.771-11.653,128.758-48.671,128.758-48.671c68.945-63.363-1.514-140.928-1.514-140.928
			c19.266-34.98,16.217-67.931,16.217-67.931c-1.01-105.951-62.353-126.229-62.353-126.229l-2.536,27.881
			c-21.289-65.394-51.375-56.268-51.375-56.268c11.496,23.825,6.08,43.935,6.08,43.935s-6.08-43.935-100.699-34.472
			c0,0-40.563-0.675-45.291-4.734c-4.729-4.055-0.508,2.264,0,2.704c10.071,8.828,36.498,18.925,39.201,36.502h-23.65
			c0,0,12.841,12.844,8.783,25.688c0,0-17.916-13.18-34.472-6.089c0,0,5.343,25.499-7.772,48.672
			c-13.713,24.224-27.539,56.602,15.041,110.34l0.285,0.984c0,0-70.463,77.563-1.515,140.928c0,0,34.029,31.77,77.127,41.401
			L431.348,622.052z"/>
		<path fill="#E2CFC0" d="M472.165,606.838c-27.375-3.04-34.474-17.234-34.474-17.234c-72.586-9.634-81.784-71.477-74.52-97.33
			c6.637-23.607,37.512-49.176,37.512-49.176c-23.313-15.21-38.021-39.035-38.021-39.035
			c-26.868-54.753,13.687-90.737,13.687-90.737c46.644-42.08,87.699,5.063,87.699,5.063c4.564,5.58,10.143,4.565,10.143,4.565
			h-1.254c0,0,5.591,1.015,10.146-4.565c0,0,41.063-47.144,87.702-5.063c0,0,40.553,35.984,13.688,90.737
			c0,0-14.703,23.825-38.016,39.035c0,0,30.879,25.566,37.516,49.176c7.264,25.854-2.904,92.771-74.524,97.33
			c0,0-7.104,14.194-34.479,17.234H472.165z"/>
		<path opacity="0.2" fill="#EB007D" enable-background="new    " d="M509.669,590.108c71.624-4.563,81.786-71.481,74.519-97.337
			c-6.631-23.606-37.506-49.164-37.506-49.164S621.016,542.288,509.669,590.108z"/>
		<g>
			<g>
				<path fill="#EB007D" d="M400.602,340.022c0,0,1.486-1.31,4.022-2.711c1.261-0.71,2.774-1.442,4.457-2.104
					c1.679-0.694,3.524-1.254,5.403-1.737c0.959-0.184,1.902-0.41,2.863-0.54c0.949-0.153,1.892-0.236,2.83-0.267
					c0.928-0.08,1.826-0.051,2.694,0.036c0.843,0.021,1.668,0.174,2.406,0.358c0.373,0.094,0.723,0.145,1.055,0.257
					c0.322,0.13,0.644,0.261,0.925,0.377c0.575,0.229,1.055,0.453,1.414,0.75c0.726,0.529,1.075,0.841,1.075,0.841l-0.098,0.177
					c0,0-0.437-0.185-1.179-0.5c-0.364-0.202-0.854-0.296-1.418-0.413c-0.543-0.138-1.178-0.25-1.887-0.269
					c-0.695-0.069-1.462-0.105-2.263-0.05c-0.805,0.007-1.647,0.08-2.522,0.203c-0.881,0.07-1.769,0.246-2.688,0.42
					c-0.91,0.138-1.819,0.392-2.735,0.587c-7.352,1.696-14.275,4.769-14.275,4.769L400.602,340.022z"/>
				<path fill="#EB007D" d="M551.835,342.125c0,0-1.948-0.247-4.707-0.854c-1.396-0.29-2.985-0.646-4.677-1.076
					c-0.842-0.221-1.729-0.366-2.6-0.634c-0.882-0.199-1.765-0.442-2.666-0.627c-0.886-0.199-1.77-0.477-2.65-0.62
					c-0.881-0.16-1.725-0.42-2.555-0.533c-0.84-0.148-1.646-0.315-2.397-0.402c-0.771-0.124-1.489-0.203-2.146-0.237
					c-0.693-0.08-1.291-0.08-1.83-0.06c-0.555,0.022-1.063-0.007-1.44,0.094c-0.784,0.133-1.298,0.203-1.298,0.203l-0.102-0.181
					c0,0,0.428-0.196,1.211-0.529c0.362-0.206,0.858-0.311,1.424-0.435c0.563-0.152,1.205-0.283,1.914-0.313
					c0.713-0.08,1.486-0.118,2.305-0.08c0.818,0,1.664,0.065,2.556,0.167c0.89,0.072,1.791,0.232,2.72,0.393
					c0.912,0.131,1.825,0.37,2.766,0.559c7.363,1.797,14.265,4.974,14.265,4.974L551.835,342.125z"/>
			</g>
		</g>
		<g>
			<g>
				<path fill="#EB007D" d="M438.85,393.326c-0.992,3.559-4.215,6.183-8.096,6.183c-4.668,0-8.447-3.782-8.447-8.442
					c0-3.184,1.769-5.915,4.367-7.357c-1.396-0.336-2.859-0.543-4.367-0.543c-10.269,0-18.592,8.328-18.592,18.592
					c0,10.271,8.323,18.594,18.592,18.594c10.26,0,18.588-8.321,18.588-18.594C440.895,398.719,440.148,395.855,438.85,393.326z"/>
				<path fill="#EB007D" d="M548.35,393.326c-0.99,3.559-4.223,6.183-8.098,6.183c-4.666,0-8.451-3.782-8.451-8.442
					c0-3.184,1.783-5.915,4.375-7.357c-1.406-0.336-2.867-0.543-4.375-0.543c-10.271,0-18.584,8.328-18.584,18.592
					c0,10.271,8.313,18.594,18.584,18.594c10.269,0,18.596-8.321,18.596-18.594C550.397,398.719,549.639,395.855,548.35,393.326z"/>
			</g>
		</g>
		<path fill="#E2CFC0" d="M412.764,232.205c0,0,50.188-8.114,79.577,24.336C492.342,256.541,480.18,240.323,412.764,232.205z"/>
		<path fill="#E2CFC0" d="M561.785,256.541c0,0,38.611,24.923,41.076,95.305C602.864,351.844,587.649,279.862,561.785,256.541z"/>
		<path opacity="0.2" fill="#EB007D" enable-background="new    " d="M483.081,318.386c0,0,105.892-51.805,92.267,97.895
			c-0.844,9.226,9.123-12.441,9.123-12.441c26.865-54.753-13.688-90.743-13.688-90.743c-46.638-42.072-87.701,5.065-87.701,5.065"/>
		<path fill="#EB007D" d="M385.848,535.768c0,0,118.223-0.007,163.743-64.621C549.592,471.146,551.835,622.765,385.848,535.768z"/>
		<g>
			<g>
				<g>
					<g>
						<path fill="#EB007D" d="M60.659,229.994c3.517-12.002,11.053-22.093,22.631-30.25c11.573-8.165,27.636-15.616,48.196-22.368
							c6.345-2.08,10.979-4.454,13.939-7.132c2.957-2.667,3.442-6.979,1.491-12.928l26.802-8.814
							c1.957,5.968,4.912,9.139,8.873,9.539c3.963,0.398,9.116-0.435,15.455-2.515c19.396-6.371,35.944-9.633,49.618-9.756
							c13.696-0.14,25.356,3.648,35.013,11.329c9.647,7.696,17.338,20.263,23.075,37.749l-22.758,7.477
							c-2.841-8.644-7.089-14.156-12.771-16.551c-5.687-2.396-12.604-2.729-20.763-1c-8.168,1.714-20.894,5.414-38.162,11.089
							c-5.196,1.703-9.666,2.688-13.391,2.964c-3.753,0.267-8.102-0.975-13.031-3.704c-4.951-2.738-10.222-7.775-15.806-15.09
							c0.015,9.147-1.149,16.294-3.506,21.426c-2.362,5.131-5.116,8.705-8.291,10.702c-3.179,1.997-7.354,3.854-12.548,5.563
							c-18.441,6.048-31.743,10.886-39.905,14.536c-8.185,3.628-13.935,8.12-17.282,13.49c-3.352,5.356-3.593,12.35-0.758,20.991
							l-22.771,7.48C58.275,256.74,57.156,242.005,60.659,229.994z"/>
					</g>
				</g>
				<g>
					<g>
						<path fill="#EB007D" d="M74.868,307.286l22.771-7.479c2.838,8.644,7.187,14.131,13.057,16.457
							c5.875,2.329,13.175,2.535,21.908,0.624c8.733-1.913,22.328-5.891,40.771-11.945c5.181-1.696,9.653-2.689,13.388-2.964
							c3.743-0.261,8.09,0.971,13.024,3.711c4.942,2.734,10.11,7.792,15.521,15.167c0.162-9.202,1.42-16.37,3.791-21.518
							c2.36-5.115,5.118-8.688,8.295-10.689c3.164-2.001,7.346-3.856,12.534-5.556c17.291-5.681,29.718-10.242,37.322-13.692
							c7.588-3.443,12.959-7.821,16.119-13.112c3.168-5.295,3.319-12.261,0.489-20.902l22.754-7.472
							c5.746,17.474,7.004,32.171,3.78,44.084c-3.223,11.902-10.368,21.86-21.473,29.877c-11.099,8.006-26.349,15.188-45.752,21.562
							c-6.342,2.081-10.979,4.458-13.94,7.121c-2.947,2.675-3.442,6.995-1.483,12.943l-23.396,7.682
							c-1.961-5.955-8.322-8.015-12.279-8.428c-3.965-0.392-9.114,0.449-15.448,2.53c-20.57,6.755-37.92,10.271-52.086,10.553
							c-14.156,0.279-26.222-3.365-36.158-10.943C88.445,337.297,80.604,324.762,74.868,307.286z"/>
					</g>
				</g>
				<polygon fill="#EB007D" points="214.352,351.181 240.501,367.316 237.745,343.501 				"/>
			</g>
		</g>
		<g>
			<g>
				<g>
					<path fill="#EB007D" d="M738.891,291.224l-10.438-3.421c1.307-3.961,1.188-7.161-0.348-9.611
						c-1.537-2.457-4.168-4.521-7.912-6.188s-9.832-3.881-18.279-6.652c-2.373-0.786-4.295-1.631-5.742-2.544
						c-1.457-0.917-2.725-2.557-3.809-4.904c-1.066-2.358-1.605-5.628-1.594-9.811c-2.57,3.342-4.975,5.652-7.244,6.906
						c-2.252,1.254-4.248,1.819-5.971,1.692c-1.695-0.127-3.746-0.573-6.131-1.355c-7.916-2.599-13.742-4.298-17.477-5.085
						c-3.74-0.79-6.908-0.638-9.51,0.474c-2.605,1.094-4.553,3.616-5.852,7.572l-10.43-3.421
						c2.633-8.009,6.156-13.765,10.574-17.294c4.422-3.516,9.756-5.248,16.037-5.186c6.256,0.062,13.84,1.555,22.727,4.468
						c2.898,0.957,5.256,1.334,7.074,1.153c1.813-0.188,3.172-1.641,4.066-4.367l12.273,4.034c-0.889,2.725-0.672,4.7,0.68,5.922
						c1.359,1.225,3.484,2.312,6.389,3.262c9.418,3.088,16.773,6.512,22.068,10.245c5.309,3.74,8.77,8.361,10.373,13.855
						C742.026,276.47,741.516,283.222,738.891,291.224z"/>
				</g>
				<g>
					<path fill="#EB007D" d="M723.145,323.591c-4.553,3.478-10.076,5.146-16.557,5.018c-6.482-0.119-14.438-1.739-23.857-4.834
						c-2.9-0.946-5.262-1.333-7.08-1.153c-1.809,0.189-4.727,1.131-5.613,3.86l-10.719-3.522c0.895-2.729,0.664-4.696-0.688-5.926
						c-1.355-1.221-3.486-2.309-6.385-3.261c-8.891-2.914-15.873-6.208-20.955-9.876c-5.086-3.664-8.355-8.231-9.832-13.689
						c-1.475-5.45-0.902-12.184,1.73-20.186l10.418,3.421c-1.297,3.965-1.225,7.146,0.23,9.575c1.441,2.425,3.898,4.429,7.379,6.009
						c3.488,1.573,9.172,3.668,17.096,6.266c2.377,0.783,4.299,1.62,5.748,2.548c1.449,0.91,2.713,2.553,3.797,4.9
						c1.084,2.352,1.656,5.635,1.729,9.85c2.48-3.369,4.85-5.688,7.109-6.942c2.273-1.253,4.26-1.822,5.961-1.703
						c1.723,0.13,3.771,0.577,6.141,1.358c8.453,2.766,14.672,4.596,18.672,5.473c4.002,0.874,7.348,0.779,10.039-0.293
						c2.686-1.06,4.682-3.574,5.969-7.531l10.436,3.425C731.285,314.372,727.696,320.126,723.145,323.591z"/>
				</g>
				<polygon fill="#EB007D" points="670.033,326.479 658.043,333.865 659.319,322.957 				"/>
			</g>
		</g>
		<path opacity="0.2" fill="#EB007D" enable-background="new    " d="M439.247,448.471c0-9.198,15.077-16.859,34.284-16.859
			c19.225,0,34.354,7.104,34.354,16.31c0,7.407-9.66,14.04-23.635,16.198c-3.379,0.529-6.979-1.181-10.721-1.181
			c-2.738,0-5.986-0.323-8.535-0.03c-1.004,0.116-1.219,0.887-2.191,0.733C448.926,461.452,439.247,455.849,439.247,448.471z"/>
		<g>
			<g>
				<path fill="#EB007D" d="M506.04,453.656l-33.168,9.397C472.872,463.054,495.514,468.587,506.04,453.656z"/>
				<path fill="#EB007D" d="M441.09,453.885l33.327,8.843C474.417,462.728,451.863,468.636,441.09,453.885z"/>
			</g>
		</g>
	</g>
	<path opacity="0.2" fill="#EB007D" enable-background="new    " d="M454.072,593.176c0,4.227,8.426,7.661,18.801,7.661
		c10.385,0,18.809-3.437,18.809-7.661c0-4.22-8.424-7.646-18.809-7.646C462.497,585.527,454.072,588.956,454.072,593.176z"/>
</g>
</svg>
