<?xml version="1.0" encoding="utf-8"?>
<!-- Generator: Adobe Illustrator 16.0.0, SVG Export Plug-In . SVG Version: 6.00 Build 0)  -->
<!DOCTYPE svg PUBLIC "-//W3C//DTD SVG 1.1//EN" "http://www.w3.org/Graphics/SVG/1.1/DTD/svg11.dtd">
<svg version="1.1" id="Layer_1" xmlns="http://www.w3.org/2000/svg" xmlns:xlink="http://www.w3.org/1999/xlink" x="0px" y="0px"
	 width="800px" height="800px" viewBox="0 0 800 800" enable-background="new 0 0 800 800" xml:space="preserve">
<g>
	<g>
		<path fill="#EB007D" d="M413.976,395.283c2.5,0,4.839-0.438,7-1.32c2.167-0.878,4.228-1.996,6.193-3.348l5.274,7.306
			c-2.332,1.995-5.167,3.61-8.499,4.848c-3.331,1.232-6.775,1.85-10.325,1.85c-5.48,0-10.174-1.158-14.083-3.474
			c-3.906-2.317-6.889-5.564-8.928-9.743c-2.049-4.177-3.076-9.073-3.076-14.69c0-5.444,1.047-10.308,3.124-14.586
			c2.082-4.282,5.083-7.664,9.007-10.151c3.924-2.485,8.642-3.728,14.157-3.728c7.175,0,13.362,2.148,18.573,6.444l-5.226,7.155
			c-2.1-1.455-4.248-2.563-6.447-3.325c-2.198-0.761-4.428-1.143-6.695-1.143c-4.264,0-7.729,1.558-10.404,4.668
			c-2.676,3.112-4.007,8-4.007,14.664c0,6.7,1.354,11.469,4.061,14.312C406.379,393.863,409.812,395.283,413.976,395.283z"/>
		<path fill="#EB007D" d="M470.5,348.246c7.849,0,13.834,2.554,17.966,7.661c4.121,5.109,6.186,11.923,6.186,20.45
			c0,5.683-0.936,10.641-2.816,14.865c-1.875,4.23-4.615,7.52-8.219,9.871c-3.604,2.351-7.991,3.523-13.168,3.523
			c-7.813,0-13.802-2.523-17.963-7.584c-4.161-5.058-6.239-11.915-6.239-20.576c0-5.547,0.933-10.444,2.813-14.688
			c1.877-4.244,4.625-7.562,8.25-9.946C460.925,349.436,465.323,348.246,470.5,348.246z M478.671,320.896l4.764,9.132l-22.221,8.929
			l-3.35-5.885L478.671,320.896z M470.5,357.075c-4.096,0-7.171,1.564-9.236,4.693c-2.064,3.13-3.094,8.024-3.094,14.688
			c0,6.665,1.02,11.563,3.065,14.689c2.049,3.132,5.118,4.694,9.212,4.694c4.092,0,7.16-1.573,9.209-4.72
			c2.045-3.146,3.072-8.067,3.072-14.766c0-6.599-1.018-11.458-3.047-14.588C477.65,358.639,474.592,357.075,470.5,357.075z"/>
		<path fill="#EB007D" d="M541.384,326.882l11.368,1.27v75.098h-10l-0.811-6.595c-1.824,2.535-4.007,4.498-6.544,5.885
			c-2.538,1.386-5.38,2.078-8.526,2.078c-4.6,0-8.382-1.174-11.338-3.523c-2.966-2.353-5.169-5.641-6.622-9.871
			c-1.457-4.225-2.185-9.149-2.185-14.765c0-5.445,0.846-10.292,2.538-14.537c1.692-4.244,4.108-7.587,7.253-10.021
			c3.147-2.436,6.938-3.653,11.368-3.653c5.517,0,10.015,1.943,13.497,5.835L541.384,326.882L541.384,326.882z M530.881,356.971
			c-3.822,0-6.8,1.583-8.931,4.747c-2.13,3.162-3.195,8.074-3.195,14.738c0,6.833,0.97,11.781,2.917,14.84
			c1.945,3.065,4.677,4.595,8.193,4.595c2.572,0,4.806-0.743,6.699-2.231c1.895-1.489,3.505-3.28,4.818-5.379V362.91
			c-1.313-1.894-2.859-3.357-4.617-4.391C535.01,357.489,533.045,356.971,530.881,356.971z"/>
		<path fill="#EB007D" d="M600.092,349.665v45.265h14.563v8.319h-41.963v-8.319h16.026v-36.941h-15.52v-8.323H600.092z
			 M592.176,323.434c2.235,0,4.034,0.675,5.404,2.027c1.371,1.354,2.059,3.045,2.059,5.075c0,2.029-0.688,3.738-2.059,5.125
			c-1.37,1.387-3.169,2.082-5.404,2.082c-2.161,0-3.938-0.695-5.327-2.082c-1.39-1.386-2.082-3.095-2.082-5.125
			s0.692-3.721,2.082-5.075C588.237,324.109,590.015,323.434,592.176,323.434z"/>
		<path fill="#EB007D" d="M676.811,342.866l3.047,9.439c-2.134,0.712-4.475,1.184-7.029,1.42c-2.551,0.238-5.402,0.355-8.548,0.355
			c3.213,1.421,5.63,3.239,7.261,5.455c1.618,2.215,2.432,4.931,2.432,8.145c0,3.483-0.848,6.596-2.538,9.336
			c-1.692,2.74-4.12,4.888-7.282,6.442c-3.161,1.558-6.923,2.335-11.288,2.335c-1.559,0-2.898-0.066-4.032-0.205
			c-1.137-0.133-2.239-0.354-3.327-0.657c-1.589,1.048-2.384,2.521-2.384,4.416c0,1.083,0.445,2.021,1.347,2.815
			c0.893,0.795,2.679,1.19,5.351,1.19h9.339c3.822,0,7.195,0.652,10.122,1.956c2.924,1.301,5.23,3.077,6.9,5.323
			c1.677,2.254,2.511,4.797,2.511,7.641c0,5.343-2.299,9.485-6.899,12.431c-4.601,2.944-11.231,4.414-19.891,4.414
			c-6.158,0-10.967-0.628-14.433-1.877c-3.472-1.252-5.911-3.112-7.335-5.581c-1.428-2.47-2.133-5.498-2.133-9.08h10.199
			c0,1.893,0.362,3.448,1.09,4.665c0.73,1.217,2.09,2.122,4.086,2.714c1.995,0.593,4.872,0.893,8.628,0.893
			c5.577,0,9.521-0.688,11.817-2.059c2.305-1.369,3.456-3.289,3.456-5.759c0-2.2-0.95-3.883-2.843-5.05
			c-1.896-1.165-4.432-1.75-7.613-1.75h-9.183c-5.073,0-8.79-1.032-11.14-3.093c-2.353-2.064-3.524-4.471-3.524-7.207
			c0-3.856,1.995-7.086,5.982-9.692c-3.211-1.689-5.555-3.747-7.022-6.165c-1.475-2.418-2.208-5.353-2.208-8.805
			c0-3.788,0.944-7.104,2.845-9.946c1.889-2.841,4.518-5.055,7.888-6.646c3.363-1.589,7.245-2.385,11.646-2.385
			c4.297,0.033,7.882-0.186,10.757-0.659c2.873-0.474,5.387-1.123,7.536-1.955C672.541,344.854,674.683,343.915,676.811,342.866z
			 M652.199,356.109c-3.615,0-6.343,1.022-8.166,3.07c-1.829,2.048-2.742,4.711-2.742,7.99c0,3.384,0.932,6.101,2.794,8.146
			c1.86,2.047,4.616,3.069,8.27,3.069c3.348,0,5.908-0.98,7.688-2.942c1.77-1.963,2.662-4.751,2.662-8.374
			C662.705,359.764,659.205,356.109,652.199,356.109z"/>
		<path fill="#EB007D" d="M714.058,348.246c7.844,0,13.838,2.554,17.961,7.661c4.126,5.109,6.192,11.923,6.192,20.45
			c0,5.683-0.939,10.641-2.817,14.865c-1.877,4.23-4.619,7.52-8.222,9.871c-3.602,2.351-7.99,3.523-13.163,3.523
			c-7.814,0-13.8-2.523-17.963-7.584c-4.164-5.058-6.242-11.915-6.242-20.576c0-5.547,0.938-10.444,2.813-14.688
			c1.881-4.244,4.628-7.562,8.245-9.946C704.485,349.436,708.883,348.246,714.058,348.246z M714.058,357.075
			c-4.093,0-7.17,1.564-9.233,4.693c-2.063,3.13-3.1,8.024-3.1,14.688c0,6.665,1.023,11.563,3.069,14.689
			c2.049,3.132,5.12,4.694,9.215,4.694c4.091,0,7.159-1.573,9.209-4.72c2.042-3.146,3.065-8.067,3.065-14.766
			c0-6.599-1.013-11.458-3.041-14.588C721.214,358.639,718.151,357.075,714.058,357.075z"/>
		<path fill="#EB007D" d="M420.721,431.562c3.282,0,6.219,0.279,8.807,0.839c2.587,0.558,4.979,1.312,7.177,2.256l-3.348,7.866
			c-1.79-0.743-3.663-1.283-5.605-1.623c-1.943-0.339-3.915-0.509-5.912-0.509c-6.901,0-10.353,2.774-10.353,8.323v9.487h17.911
			l-1.212,8.371h-16.699v41.356H400.17v-41.356h-12.174v-8.371h12.174v-9.591c0-5.073,1.878-9.185,5.636-12.33
			C409.563,433.136,414.532,431.562,420.721,431.562z"/>
		<path fill="#EB007D" d="M489.987,494.786c0,2.133,0.316,3.67,0.961,4.618c0.643,0.949,1.671,1.658,3.096,2.132l-2.535,7.712
			c-2.642-0.305-4.916-1.03-6.826-2.18c-1.912-1.15-3.341-2.894-4.288-5.229c-1.962,2.505-4.45,4.373-7.457,5.605
			c-3.018,1.236-6.229,1.854-9.644,1.854c-5.444,0-9.743-1.531-12.89-4.593c-3.146-3.061-4.718-7.078-4.718-12.053
			c0-5.647,2.194-9.995,6.597-13.041c4.395-3.043,10.688-4.564,18.876-4.564h7.661v-3.502c0-3.483-1.05-5.979-3.142-7.484
			c-2.104-1.505-5.026-2.258-8.783-2.258c-1.758,0-3.887,0.228-6.395,0.684c-2.504,0.458-5.123,1.161-7.863,2.107l-2.793-8.019
			c3.35-1.252,6.632-2.172,9.846-2.765c3.213-0.592,6.19-0.889,8.928-0.889c7.17,0,12.53,1.593,16.063,4.77
			c3.537,3.18,5.306,7.579,5.306,13.192V494.786L489.987,494.786z M466.74,500.927c2.307,0,4.551-0.607,6.753-1.827
			c2.197-1.216,3.974-2.924,5.326-5.125v-11.821h-6.293c-5.345,0-9.167,0.889-11.465,2.663c-2.304,1.774-3.454,4.22-3.454,7.331
			C457.608,498.002,460.655,500.927,466.74,500.927z"/>
		<path fill="#EB007D" d="M533.474,432.829v60.486c0,2.469,0.748,4.22,2.254,5.251c1.506,1.033,3.458,1.548,5.864,1.548
			c1.521,0,2.98-0.16,4.388-0.479c1.4-0.323,2.762-0.755,4.083-1.296l2.893,7.916c-1.594,0.813-3.549,1.521-5.857,2.13
			c-2.321,0.609-4.967,0.915-7.943,0.915c-5.38,0-9.565-1.522-12.561-4.568c-2.991-3.044-4.487-7.188-4.487-12.432v-51.097h-16.189
			v-8.375H533.474z"/>
		<path fill="#EB007D" d="M611.764,494.786c0,2.133,0.322,3.67,0.965,4.618c0.639,0.949,1.669,1.658,3.093,2.132l-2.533,7.712
			c-2.642-0.305-4.917-1.03-6.831-2.18c-1.907-1.15-3.339-2.894-4.282-5.229c-1.966,2.505-4.451,4.373-7.457,5.605
			c-3.016,1.236-6.229,1.854-9.643,1.854c-5.45,0-9.748-1.531-12.892-4.593c-3.148-3.061-4.719-7.078-4.719-12.053
			c0-5.647,2.198-9.995,6.597-13.041c4.397-3.043,10.689-4.564,18.878-4.564h7.66v-3.502c0-3.483-1.046-5.979-3.145-7.484
			s-5.024-2.258-8.779-2.258c-1.761,0-3.893,0.228-6.394,0.684c-2.505,0.458-5.125,1.161-7.868,2.107l-2.786-8.019
			c3.344-1.252,6.63-2.172,9.843-2.765c3.214-0.592,6.188-0.889,8.928-0.889c7.172,0,12.528,1.593,16.058,4.77
			c3.54,3.18,5.309,7.579,5.309,13.192L611.764,494.786L611.764,494.786z M588.526,500.927c2.299,0,4.542-0.607,6.746-1.827
			c2.199-1.216,3.977-2.924,5.327-5.125v-11.821h-6.292c-5.348,0-9.167,0.889-11.471,2.663c-2.3,1.774-3.45,4.22-3.45,7.331
			C579.387,498.002,582.436,500.927,588.526,500.927z"/>
		<path fill="#EB007D" d="M663.16,431.562l11.367,1.268v75.102h-9.995l-0.813-6.6c-1.825,2.537-4.007,4.499-6.545,5.888
			c-2.541,1.39-5.375,2.082-8.524,2.082c-4.604,0-8.382-1.177-11.341-3.527c-2.962-2.353-5.168-5.641-6.621-9.868
			c-1.456-4.229-2.182-9.149-2.182-14.769c0-5.445,0.843-10.29,2.535-14.534c1.691-4.248,4.108-7.588,7.257-10.023
			c3.145-2.438,6.935-3.652,11.367-3.652c5.514,0,10.012,1.944,13.493,5.835L663.16,431.562L663.16,431.562z M652.66,461.652
			c-3.823,0-6.804,1.582-8.93,4.745c-2.133,3.163-3.205,8.077-3.205,14.738c0,6.833,0.979,11.78,2.925,14.845
			c1.945,3.061,4.675,4.592,8.192,4.592c2.575,0,4.805-0.744,6.696-2.232c1.895-1.488,3.503-3.281,4.82-5.378v-25.369
			c-1.317-1.896-2.858-3.358-4.612-4.393C656.785,462.17,654.826,461.652,652.66,461.652z"/>
		<path fill="#EB007D" d="M714.058,452.926c7.844,0,13.838,2.554,17.961,7.66c4.126,5.11,6.192,11.925,6.192,20.449
			c0,5.686-0.939,10.64-2.817,14.869c-1.877,4.229-4.619,7.517-8.222,9.868c-3.602,2.351-7.99,3.527-13.163,3.527
			c-7.814,0-13.8-2.53-17.963-7.586c-4.164-5.058-6.242-11.917-6.242-20.578c0-5.546,0.938-10.442,2.813-14.688
			c1.881-4.244,4.628-7.56,8.245-9.945C704.485,454.118,708.883,452.926,714.058,452.926z M714.058,461.756
			c-4.093,0-7.17,1.564-9.233,4.691c-2.063,3.129-3.1,8.027-3.1,14.688c0,6.667,1.023,11.563,3.069,14.691
			c2.049,3.13,5.12,4.692,9.215,4.692c4.091,0,7.159-1.571,9.209-4.719c2.042-3.146,3.065-8.068,3.065-14.768
			c0-6.596-1.013-11.459-3.041-14.588C721.214,463.32,718.151,461.756,714.058,461.756z"/>
	</g>
	<g>
		<g>
			<g>
				<path fill="#EB007D" d="M363.357,350.528c-1.748-0.593-2.403-2.235-1.825-3.937c0.588-1.744,2.146-2.588,3.795-2.025
					c1.65,0.557,2.416,2.187,1.825,3.934C366.571,350.199,365.01,351.088,363.357,350.528z"/>
				<path fill="#EB007D" d="M353.587,347.211c-1.746-0.592-2.404-2.235-1.825-3.937c0.593-1.746,2.138-2.588,3.794-2.028
					c1.653,0.563,2.414,2.189,1.821,3.938C356.802,346.885,355.237,347.771,353.587,347.211z"/>
				<path fill="#EB007D" d="M343.811,343.894c-1.742-0.592-2.393-2.235-1.82-3.935c0.597-1.747,2.143-2.588,3.797-2.027
					c1.648,0.56,2.414,2.188,1.822,3.933C347.032,343.565,345.464,344.455,343.811,343.894z"/>
			</g>
		</g>
		<g>
			<g>
				<g>
					<path fill="#EB007D" d="M146.309,325.335l-11.785,11.556l-0.645-2.084l9.98-9.575l-0.017-0.061l-13.642-2.27l-0.653-2.084
						l16.26,2.886L146.309,325.335z"/>
					<path fill="#EB007D" d="M134.025,338.847l-1.341-4.353l8.988-8.62l-12.289-2.042l-1.341-4.351l18.579,3.3l0.878,2.855
						L134.025,338.847z M144.761,324.583l0.187,0.614l0.171-0.163l-0.132-0.408L144.761,324.583z"/>
				</g>
				<g>
					<path fill="#EB007D" d="M130.903,339.332l-15.231-19.289l2.059-0.636l15.203,19.3L130.903,339.332z"/>
					<polygon fill="#EB007D" points="134.703,339.259 130.527,340.547 113.903,319.492 118.109,318.19 					"/>
				</g>
				<g>
					<path fill="#EB007D" d="M103.402,336.779l11.801-11.524l0.643,2.083l-10.078,9.604l0.021,0.058l13.736,2.243l0.645,2.087
						l-16.242-2.858L103.402,336.779z"/>
					<path fill="#EB007D" d="M121.68,342.659l-18.569-3.266l-0.902-2.919l13.484-13.176l1.35,4.35l-9.069,8.645l12.365,2.018
						L121.68,342.659z M104.741,337.545l0.125,0.024l-0.176-0.577l-0.095,0.088L104.741,337.545z"/>
				</g>
			</g>
		</g>
		<g>
			<g>
				<path fill="#EB007D" d="M320.559,376.298c0,0,31.178,7.336,27.398,43.088c0,0-2.322,25.068-21.986,34.082l-20.107-33.077
					L320.559,376.298z"/>
				<path fill="#E2CFC0" d="M315.438,410.814c0,0,5.343-12.248,6.018-20.711c0,0,14.471,4.232,15.588,22.937
					c0,0,0.443,16.923-13.142,27.169c0,0-9.112-15.433-13.36-18.264c-4.256-2.826,0-1.109,0-1.109s4.232-7.127,18.483-5.68
					C329.025,415.156,324.796,411.926,315.438,410.814z"/>
			</g>
		</g>
		<g>
			<g>
				<path fill="#EB007D" d="M190.683,376.298c0,0-31.171,7.336-27.389,43.088c0,0,2.323,25.068,21.99,34.082l20.098-33.077
					L190.683,376.298z"/>
				<path fill="#E2CFC0" d="M195.804,410.814c0,0-5.339-12.248-6.008-20.711c0,0-14.476,4.232-15.586,22.937
					c0,0-0.446,16.923,13.136,27.169c0,0,9.107-15.433,13.366-18.264c4.249-2.826,0-1.109,0-1.109s-4.239-7.127-18.494-5.68
					C182.216,415.156,186.453,411.926,195.804,410.814z"/>
			</g>
		</g>
		<path fill="#EB007D" d="M237.234,504.534c-2.264,4.527,2.39,11.331,2.39,11.331c-0.602-7.277,6.316-10.263,6.316-10.263
			c-3.694,9.784,4.777,14.08,4.777,14.08c-2.383-8.949,3.58-12.526,3.58-12.526c43.674-5.488,60.616-22.912,60.616-22.912
			c32.458-29.831-0.718-66.343-0.718-66.343c9.07-16.468,7.64-31.981,7.64-31.981c-0.477-49.877-29.354-59.422-29.354-59.422
			l-1.19,13.127c-10.023-30.788-24.187-26.492-24.187-26.492c5.412,11.217,2.865,20.685,2.865,20.685s-2.865-20.685-47.409-16.229
			c0,0-19.092-0.317-21.327-2.229c-2.223-1.906-0.233,1.065,0,1.273c4.743,4.157,17.185,8.911,18.457,17.186h-11.135
			c0,0,6.046,6.046,4.134,12.092c0,0-8.432-6.204-16.223-2.864c0,0,2.51,12.003-3.665,22.909
			c-6.456,11.406-12.962,26.647,7.082,51.947l0.137,0.463c0,0-33.172,36.513-0.718,66.341c0,0,16.021,14.958,36.313,19.49
			L237.234,504.534z"/>
		<path fill="#E2CFC0" d="M256.446,497.37c-12.884-1.434-16.225-8.115-16.225-8.115c-34.17-4.531-38.501-33.647-35.078-45.819
			c3.124-11.115,17.651-23.149,17.651-23.149c-10.969-7.159-17.891-18.376-17.891-18.376c-12.649-25.773,6.44-42.715,6.44-42.715
			c21.954-19.807,41.288,2.384,41.288,2.384c2.146,2.628,4.77,2.15,4.77,2.15h-0.586c0,0,2.625,0.478,4.777-2.15
			c0,0,19.326-22.19,41.286-2.384c0,0,19.09,16.941,6.441,42.715c0,0-6.921,11.217-17.897,18.376c0,0,14.534,12.034,17.658,23.149
			c3.426,12.172-1.36,43.674-35.082,45.819c0,0-3.336,6.683-16.229,8.115H256.446z"/>
		<path opacity="0.2" fill="#EB007D" enable-background="new    " d="M274.106,489.495c33.712-2.148,38.501-33.647,35.082-45.819
			c-3.124-11.118-17.662-23.148-17.662-23.148S326.522,466.982,274.106,489.495z"/>
		<g>
			<g>
				<path fill="#EB007D" d="M222.757,371.763c0,0,0.7-0.615,1.895-1.275c0.597-0.334,1.313-0.68,2.1-0.992
					c0.791-0.325,1.663-0.587,2.549-0.815c0.446-0.086,0.887-0.195,1.345-0.255c0.447-0.072,0.894-0.11,1.334-0.126
					c0.432-0.035,0.857-0.02,1.261,0.019c0.399,0.013,0.789,0.085,1.139,0.169c0.174,0.043,0.342,0.07,0.498,0.122
					c0.154,0.063,0.302,0.124,0.434,0.176c0.27,0.108,0.496,0.212,0.666,0.354c0.341,0.251,0.508,0.396,0.508,0.396l-0.049,0.083
					c0,0-0.203-0.087-0.557-0.237c-0.167-0.092-0.398-0.136-0.662-0.189c-0.26-0.069-0.554-0.123-0.886-0.131
					c-0.33-0.031-0.69-0.048-1.065-0.021c-0.384,0.002-0.777,0.039-1.196,0.097c-0.413,0.034-0.83,0.116-1.256,0.195
					c-0.438,0.066-0.859,0.186-1.291,0.277c-3.461,0.802-6.728,2.247-6.728,2.247L222.757,371.763z"/>
				<path fill="#EB007D" d="M293.957,372.749c0,0-0.917-0.112-2.218-0.398c-0.654-0.137-1.41-0.307-2.2-0.506
					c-0.399-0.104-0.813-0.174-1.226-0.297c-0.413-0.098-0.832-0.21-1.254-0.3c-0.419-0.094-0.838-0.222-1.251-0.29
					c-0.412-0.075-0.811-0.196-1.205-0.25c-0.391-0.069-0.77-0.148-1.124-0.188c-0.364-0.06-0.701-0.1-1.013-0.111
					c-0.324-0.039-0.606-0.042-0.857-0.027c-0.265,0.008-0.507-0.007-0.681,0.043c-0.369,0.062-0.611,0.094-0.611,0.094
					l-0.044-0.083c0,0,0.202-0.092,0.565-0.25c0.173-0.1,0.407-0.146,0.671-0.207c0.264-0.068,0.569-0.129,0.902-0.146
					c0.336-0.034,0.696-0.059,1.082-0.034c0.384-0.002,0.784,0.026,1.207,0.077c0.419,0.033,0.843,0.109,1.275,0.182
					c0.431,0.061,0.863,0.177,1.302,0.266c3.468,0.846,6.717,2.339,6.717,2.339L293.957,372.749z"/>
			</g>
		</g>
		<g>
			<g>
				<path fill="#EB007D" d="M240.765,396.857c-0.469,1.677-1.985,2.911-3.813,2.911c-2.194,0-3.978-1.78-3.978-3.978
					c0-1.498,0.838-2.786,2.061-3.463c-0.664-0.161-1.35-0.254-2.061-0.254c-4.828,0-8.749,3.919-8.749,8.751
					c0,4.831,3.92,8.749,8.749,8.749c4.835,0,8.754-3.918,8.754-8.749C241.729,399.396,241.375,398.05,240.765,396.857z"/>
				<path fill="#EB007D" d="M292.316,396.857c-0.466,1.677-1.988,2.911-3.813,2.911c-2.196,0-3.978-1.78-3.978-3.978
					c0-1.498,0.837-2.786,2.06-3.463c-0.666-0.161-1.354-0.254-2.06-0.254c-4.833,0-8.75,3.919-8.75,8.751
					c0,4.831,3.917,8.749,8.75,8.749c4.832,0,8.75-3.918,8.75-8.749C293.276,399.396,292.922,398.05,292.316,396.857z"/>
			</g>
		</g>
		<path fill="#E2CFC0" d="M228.485,321.009c0,0,23.628-3.821,37.468,11.457C265.952,332.466,260.223,324.827,228.485,321.009z"/>
		<path fill="#E2CFC0" d="M298.647,332.466c0,0,18.172,11.732,19.328,44.863C317.975,377.329,310.818,343.441,298.647,332.466z"/>
		<path opacity="0.2" fill="#EB007D" enable-background="new    " d="M261.591,361.578c0,0,49.847-24.386,43.43,46.086
			c-0.394,4.34,4.298-5.859,4.298-5.859c12.647-25.772-6.441-42.715-6.441-42.715c-21.959-19.808-41.286,2.386-41.286,2.386"/>
		<path fill="#EB007D" d="M215.814,463.913c0,0,55.655-0.004,77.085-30.422C292.899,433.491,293.957,504.866,215.814,463.913z"/>
		<g>
			<g>
				<g>
					<g>
						<path fill="#EB007D" d="M62.725,319.966c1.659-5.65,5.208-10.4,10.658-14.24c5.445-3.847,13.009-7.354,22.687-10.53
							c2.984-0.98,5.168-2.098,6.563-3.357c1.389-1.256,1.623-3.285,0.703-6.087l12.612-4.146c0.926,2.804,2.316,4.299,4.182,4.489
							c1.864,0.188,4.291-0.206,7.273-1.188c9.135-2.998,16.927-4.531,23.36-4.588c6.45-0.064,11.932,1.715,16.485,5.333
							c4.539,3.621,8.156,9.539,10.858,17.769l-10.71,3.521c-1.339-4.071-3.34-6.665-6.013-7.79
							c-2.678-1.131-5.934-1.288-9.774-0.472c-3.844,0.806-9.833,2.549-17.967,5.218c-2.445,0.804-4.552,1.265-6.304,1.396
							c-1.763,0.125-3.813-0.456-6.134-1.743c-2.333-1.29-4.813-3.66-7.439-7.104c0.007,4.305-0.541,7.67-1.647,10.085
							c-1.117,2.416-2.413,4.099-3.904,5.039c-1.501,0.938-3.463,1.813-5.906,2.616c-8.681,2.85-14.948,5.128-18.791,6.845
							c-3.852,1.709-6.557,3.824-8.135,6.354c-1.578,2.521-1.694,5.813-0.359,9.881l-10.715,3.52
							C61.606,332.557,61.077,325.621,62.725,319.966z"/>
					</g>
				</g>
				<g>
					<g>
						<path fill="#EB007D" d="M69.414,356.352l10.726-3.521c1.328,4.069,3.377,6.65,6.143,7.749
							c2.765,1.097,6.204,1.193,10.311,0.293c4.112-0.9,10.514-2.772,19.198-5.624c2.438-0.802,4.542-1.269,6.3-1.395
							c1.765-0.125,3.807,0.457,6.13,1.744c2.331,1.29,4.762,3.669,7.305,7.142c0.079-4.332,0.674-7.708,1.79-10.127
							c1.112-2.412,2.408-4.093,3.904-5.034c1.491-0.941,3.46-1.814,5.906-2.617c8.135-2.672,13.982-4.82,17.563-6.443
							c3.575-1.621,6.104-3.684,7.586-6.174c1.494-2.492,1.567-5.771,0.232-9.84l10.715-3.519
							c2.703,8.226,3.295,15.147,1.778,20.756c-1.524,5.6-4.881,10.289-10.112,14.062c-5.221,3.771-12.403,7.152-21.533,10.151
							c-2.98,0.981-5.171,2.1-6.563,3.354c-1.394,1.261-1.625,3.291-0.708,6.094l-11.009,3.614c-0.917-2.802-3.92-3.771-5.781-3.968
							c-1.862-0.182-4.291,0.213-7.272,1.19c-9.684,3.18-17.851,4.835-24.514,4.968c-6.67,0.134-12.349-1.584-17.025-5.151
							C75.809,370.482,72.117,364.575,69.414,356.352z"/>
					</g>
				</g>
				<polygon fill="#EB007D" points="135.077,377.016 147.393,384.611 146.086,373.402 				"/>
			</g>
		</g>
		<g>
			<g>
				<g>
					<path fill="#EB007D" d="M382.013,348.791l-4.911-1.61c0.612-1.864,0.558-3.371-0.165-4.523
						c-0.723-1.16-1.959-2.127-3.725-2.911c-1.761-0.788-4.631-1.829-8.604-3.134c-1.119-0.37-2.023-0.771-2.705-1.197
						c-0.688-0.433-1.279-1.204-1.791-2.309c-0.503-1.11-0.762-2.65-0.755-4.623c-1.204,1.579-2.336,2.664-3.409,3.255
						c-1.062,0.59-1.999,0.854-2.81,0.796c-0.8-0.058-1.762-0.271-2.887-0.638c-3.723-1.226-6.471-2.021-8.229-2.395
						c-1.76-0.373-3.253-0.3-4.473,0.223c-1.229,0.514-2.145,1.702-2.757,3.563l-4.906-1.609c1.236-3.771,2.896-6.479,4.976-8.14
						c2.079-1.655,4.592-2.472,7.555-2.442c2.941,0.029,6.512,0.731,10.694,2.103c1.364,0.449,2.468,0.626,3.329,0.542
						c0.855-0.086,1.493-0.772,1.914-2.057l5.777,1.9c-0.417,1.282-0.31,2.212,0.321,2.788c0.642,0.576,1.644,1.088,3.009,1.533
						c4.431,1.458,7.898,3.068,10.393,4.824c2.495,1.761,4.121,3.936,4.881,6.524C383.489,341.847,383.25,345.023,382.013,348.791z"
						/>
				</g>
				<g>
					<path fill="#EB007D" d="M374.601,364.031c-2.142,1.633-4.744,2.423-7.793,2.36c-3.058-0.06-6.797-0.819-11.235-2.278
						c-1.368-0.442-2.476-0.626-3.328-0.542c-0.854,0.087-2.229,0.534-2.646,1.815l-5.046-1.656c0.421-1.285,0.313-2.212-0.319-2.79
						c-0.641-0.576-1.641-1.087-3.012-1.536c-4.179-1.374-7.467-2.925-9.861-4.648c-2.393-1.727-3.937-3.877-4.631-6.443
						c-0.691-2.569-0.422-5.737,0.814-9.503l4.906,1.609c-0.605,1.865-0.572,3.363,0.107,4.506c0.678,1.143,1.837,2.084,3.473,2.827
						c1.644,0.743,4.323,1.729,8.05,2.951c1.122,0.369,2.022,0.769,2.705,1.199c0.684,0.431,1.279,1.203,1.79,2.307
						c0.51,1.11,0.775,2.652,0.813,4.639c1.169-1.589,2.281-2.681,3.348-3.271c1.064-0.591,2.001-0.858,2.805-0.803
						c0.808,0.06,1.775,0.273,2.888,0.64c3.98,1.305,6.91,2.163,8.794,2.578c1.883,0.41,3.454,0.367,4.728-0.136
						c1.263-0.5,2.204-1.686,2.809-3.548l4.91,1.613C378.438,359.689,376.742,362.396,374.601,364.031z"/>
				</g>
				<polygon fill="#EB007D" points="349.598,365.386 343.953,368.866 344.552,363.73 				"/>
			</g>
		</g>
		<path opacity="0.2" fill="#EB007D" enable-background="new    " d="M240.954,422.815c0-4.33,7.095-7.937,16.138-7.937
			c9.049,0,16.173,3.345,16.173,7.678c0,3.487-4.545,6.606-11.122,7.627c-1.596,0.248-3.289-0.562-5.051-0.562
			c-1.289,0-2.82-0.146-4.017-0.01c-0.474,0.056-0.571,0.419-1.034,0.347C245.513,428.927,240.954,426.29,240.954,422.815z"/>
		<g>
			<g>
				<path fill="#EB007D" d="M272.396,425.26l-15.614,4.422C256.783,429.681,267.44,432.285,272.396,425.26z"/>
				<path fill="#EB007D" d="M241.822,425.365l15.688,4.165C257.508,429.53,246.893,432.309,241.822,425.365z"/>
			</g>
		</g>
	</g>
	<path opacity="0.2" fill="#EB007D" enable-background="new    " d="M247.932,490.939c0,1.991,3.966,3.604,8.852,3.604
		c4.888,0,8.851-1.611,8.851-3.604c0-1.987-3.962-3.602-8.851-3.602C251.898,487.339,247.932,488.952,247.932,490.939z"/>
</g>
</svg>
