<svg width="553" height="400" fill="none" xmlns="http://www.w3.org/2000/svg"><g clip-path="url(#clip0)"><path d="M150.853 142.14s-75.421-16.864 20.545-115.532c0 0 41.365 39.208 26.193 87.944-6.1 19.596-25.732 31.693-45.62 27.818l-1.118-.23z" fill="#3198AF"/><path opacity=".4" d="M150.854 142.14c-1.656-.369-73.813-18.53 20.544-115.532 0 0 41.365 39.208 26.193 87.944-6.1 19.596-25.732 31.693-45.62 27.818l-1.117-.23z" fill="#fff"/><path d="M151.853 142.703s39.838-60.013 19.555-116.09" stroke="#535461" stroke-miterlimit="10"/><path d="M461.126 200.415s-13-52.34 6.699-89.605c8.273-15.639 11.559-33.456 8.796-50.93a137.36 137.36 0 00-6.223-24.348" stroke="#535461" stroke-width="2" stroke-miterlimit="10"/><path d="M482.675 11.974c-.272 6.335-12.528 24.21-12.528 24.21s-10.682-18.859-10.41-25.194A11.478 11.478 0 01471.688.238a11.482 11.482 0 0110.987 11.736zM500.133 47.87c-3.67 5.172-23.676 13.517-23.676 13.517s1.281-21.636 4.952-26.808a11.475 11.475 0 0112.002-4.767 11.473 11.473 0 017.26 5.155 11.48 11.48 0 01-.543 12.903h.005zM496.735 107.791c-5.777 2.609-27.259-.282-27.259-.282s12.03-18.027 17.807-20.641a11.482 11.482 0 019.452 20.923zM483.956 152.55c-5.254 3.547-26.916 4.326-26.916 4.326s8.812-19.801 14.066-23.353a11.479 11.479 0 0115.77 3.202 11.485 11.485 0 01-2.92 15.825zM452.325 61.602c4.351 4.614 25.326 10.088 25.326 10.088s-4.285-21.247-8.637-25.855a11.481 11.481 0 00-16.689 15.767zM438.044 114.117c5.536 3.075 27.167 2.05 27.167 2.05S454.79 97.171 449.249 94.08a11.481 11.481 0 00-11.205 20.037zM431.17 167.082c4.931 3.983 26.444 6.612 26.444 6.612s-7.083-20.503-12.015-24.471a11.482 11.482 0 00-14.429 17.859z" fill="#3198AF"/><path d="M482.675 11.974c-.272 6.335-12.528 24.21-12.528 24.21s-10.682-18.859-10.41-25.194A11.478 11.478 0 01471.688.238a11.482 11.482 0 0110.987 11.736zM500.133 47.87c-3.67 5.172-23.676 13.517-23.676 13.517s1.281-21.636 4.952-26.808a11.475 11.475 0 0112.002-4.767 11.473 11.473 0 017.26 5.155 11.48 11.48 0 01-.543 12.903h.005zM496.735 107.791c-5.777 2.609-27.259-.282-27.259-.282s12.03-18.027 17.807-20.641a11.482 11.482 0 019.452 20.923zM483.956 152.55c-5.254 3.547-26.916 4.326-26.916 4.326s8.812-19.801 14.066-23.353a11.479 11.479 0 0115.77 3.202 11.485 11.485 0 01-2.92 15.825zM452.325 61.602c4.351 4.614 25.326 10.088 25.326 10.088s-4.285-21.247-8.637-25.855a11.481 11.481 0 00-16.689 15.767zM438.044 114.117c5.536 3.075 27.167 2.05 27.167 2.05S454.79 97.171 449.249 94.08a11.481 11.481 0 00-11.205 20.037zM431.17 167.082c4.931 3.983 26.444 6.612 26.444 6.612s-7.083-20.503-12.015-24.471a11.482 11.482 0 00-14.429 17.859z" fill="#FC6681"/><path d="M413.537 166.61s54.519-45.686 66.636-68.727c12.118-23.04 27.562-42.888 27.562-42.888" stroke="#535461" stroke-width="2" stroke-miterlimit="10"/><path d="M478.102 101.41l-13.573-20.33c-11.396 19.59 7.784 20.444 12.545 20.368.681 2.68 6.624 23.369 23.51 5.041l-22.504-5.078.022-.001zM477.979 69.22l10.642 13.91s-18.838 1.774-10.642-13.91zM509.862 87.38l-21.559-3.783s13.547 20.601 21.559 3.783zM499.334 66.303c.282-2.6-7.217-16.264-7.217-16.264s-8.719 2.08-6.464 11.932c2.255 9.852 13.399 6.93 13.681 4.332zM519.96 69.076c-2.127-1.753-20.503-2.63-20.503-2.63s3.762 11.313 10.764 12.99c7.002 1.675 11.866-8.607 9.739-10.36z" fill="#3198AF"/><path d="M508.811 53.202a5.126 5.126 0 10-2.002 3.072 5.126 5.126 0 102.002-3.072z" fill="#FFD037"/><path d="M168.568 178.338s22.041-16.402-5.638-73.812c0 0-36.906-45.62 0-88.677 0 0-80.476 2.05-78.938 76.888 1.538 74.837 40.238 85.601 40.238 85.601h44.338z" fill="#3198AF"/><path d="M147.983 178.338s-5.551-39.469-20.416-63.56a51.701 51.701 0 01-6.249-15.757c-4.967-21.852 2.117-44.703 18.166-60.341l23.451-22.846" stroke="#535461" stroke-width="2" stroke-miterlimit="10"/><path d="M214.47 46.578s5.065 6.623-2.337 16.618c-7.402 9.996-13.502 18.454-11.036 24.666 0 0 11.164-18.566 20.252-18.827 9.088-.262 3.117-11.292-6.879-22.456z" fill="#3198AF"/><path opacity=".1" d="M214.47 46.578c.438.64.784 1.34 1.025 2.076 8.868 10.416 13.589 20.14 5.07 20.386-7.94.225-17.464 14.424-19.745 18.007.075.276.166.549.272.815 0 0 11.164-18.566 20.252-18.827 9.088-.262 3.122-11.292-6.874-22.456z" fill="#000"/><path d="M223.881 55.016c0 2.332-.261 4.218-.584 4.218-.323 0-.584-1.891-.584-4.218 0-2.328.328-1.236.651-1.236s.517-1.092.517 1.236z" fill="#FFD037"/><path d="M227.111 57.799c-2.051 1.117-3.829 1.789-3.983 1.507-.154-.282 1.379-1.415 3.424-2.532 2.045-1.118 1.24-.303 1.394 0 .154.302 1.21-.093-.835 1.025z" fill="#FFD037"/><path d="M187.734 46.578s-5.065 6.623 2.337 16.618c7.402 9.996 13.502 18.454 11.036 24.666 0 0-11.164-18.566-20.252-18.827-9.088-.262-3.127-11.292 6.879-22.456z" fill="#3198AF"/><path opacity=".1" d="M187.734 46.578a8.212 8.212 0 00-1.025 2.076c-8.868 10.416-13.589 20.14-5.07 20.386 7.94.225 17.464 14.424 19.745 18.007a7.554 7.554 0 01-.272.815s-11.179-18.57-20.267-18.822c-9.088-.251-3.117-11.297 6.889-22.462z" fill="#000"/><path d="M178.312 55.016c0 2.332.262 4.218.585 4.218.323 0 .584-1.891.584-4.218 0-2.328-.328-1.236-.651-1.236s-.518-1.092-.518 1.236z" fill="#FFD037"/><path d="M175.083 57.799c2.051 1.117 3.829 1.789 3.983 1.507.154-.282-1.379-1.415-3.424-2.532-2.045-1.118-1.24-.303-1.394 0-.154.302-1.21-.093.835 1.025z" fill="#FFD037"/><path d="M552.822 331.022l-44.908-197.591H491.23c-.667-7.551-1.113-14.865-1.282-21.754 0 0-60.485 13.235-108.719-25.056-48.234-38.29-104.941 3.312-104.941 3.312l-.221-.16v-.076.097c-3.936-2.788-58.26-40.017-104.705-3.142-48.214 38.29-108.72 25.055-108.72 25.055-.168 6.977-.62 14.353-1.301 21.975H45.86L0 331.734s186.427 6.981 251.756.543c2.342 4.952 12.44 8.673 24.537 8.673 13.594 0 24.65-4.7 25.035-10.559 50.853 3.87 160.279 10.057 251.494.631z" fill="url(#paint0_linear)"/><path d="M50.664 135.168L5.767 329.099s247.152 9.258 267.056-3.7c0 0 153.432 15.505 274.232 3.008l-43.969-193.464-452.422.225z" fill="#E2E2EC"/><path opacity=".1" d="M65.939 141.868L24.08 322.672s230.427 8.631 248.983-3.45c0 0 143.047 14.455 255.672 2.804l-41.007-180.373-421.79.215z" fill="#000"/><path d="M485.499 113.65s-59.245 12.958-106.454-24.532c-47.209-37.49-102.752 3.24-102.752 3.24s-55.539-40.73-102.748-3.24c-47.208 37.49-106.453 24.532-106.453 24.532-1.866 75.442-37.024 197.632-37.024 197.632s64.796 17.587 150.423-18.048 95.807 12.497 95.807 12.497 10.18-48.137 95.807-12.497c85.627 35.64 150.423 18.048 150.423 18.048s-35.179-122.19-37.029-197.632z" fill="#F1F2FB"/><path opacity=".1" d="M161.977 307.13s78.22-17.587 114.306 8.33c0 0 34.712-31.473 115.244-6.941" fill="#000"/><path d="M276.293 338.126c13.549 0 24.532-4.767 24.532-10.646 0-5.88-10.983-10.647-24.532-10.647s-24.532 4.767-24.532 10.647c0 5.879 10.983 10.646 24.532 10.646z" fill="#E8EAF8"/><path opacity=".1" d="M276.062 92.127s17.587 89.328.462 215.218z" fill="#000"/><path opacity=".1" d="M84.038 141.653s36.839 8.56 68.727 0c31.888-8.561 90.436-36.563 109.693 0M84.038 157.389s36.839 8.56 68.727 0c31.888-8.56 100.933-8.099 109.693 0M84.038 185.135s36.839 8.56 68.727 0c31.888-8.56 90.436-36.563 109.693 0M84.038 200.892s36.839 8.56 68.727 0c31.888-8.56 100.933-8.099 109.693 0M468.553 141.653s-36.839 8.56-68.727 0c-31.888-8.561-90.435-36.563-109.693 0M468.553 157.389s-36.839 8.56-68.727 0c-31.888-8.56-100.933-8.099-109.693 0M468.553 185.135s-36.839 8.56-68.727 0c-31.888-8.56-90.435-36.563-109.693 0M468.553 200.892s-36.839 8.56-68.727 0c-31.888-8.56-100.933-8.099-109.693 0" stroke="#000" stroke-width="4" stroke-miterlimit="10"/><path d="M469.301 367.507c1.538-1.174 2.999-2.563 3.445-4.239a3.59 3.59 0 00-2.404-4.316c-2.209-.687-4.567.559-6.361 1.82-1.794 1.261-3.839 2.701-6.182 2.435 2.425-1.753 3.588-4.614 2.911-7.176a2.779 2.779 0 00-.809-1.461c-1.226-1.072-3.45-.61-4.916.23-4.67 2.681-5.972 7.853-5.997 12.512-.472-1.681-.072-3.429-.087-5.156-.016-1.728-.59-3.634-2.374-4.562a8.486 8.486 0 00-3.619-.692c-2.096-.062-4.439.108-5.869 1.363-1.778 1.538-1.317 4.168.231 5.88 1.548 1.712 3.906 2.788 6.074 3.972 1.656.902 3.327 1.953 4.342 3.378.13.189.238.392.323.605h13.158a37.82 37.82 0 008.134-4.593z" fill="#3198AF"/><path d="M378.323 182.926s.128.738.343 2.05c-.113.205-.225.41-.343.61-4.203 7.074-4.849 17.264-4.455 25.629a83.9 83.9 0 003.522 19.889 92.965 92.965 0 013.588 25.834 18.786 18.786 0 005.884 4.285c.113.343.231.692.334 1.025a104.876 104.876 0 013.911 19.791l1.322 16.741s10.134 37.89 13.214 44.938c2.194 5.013 1.712 15.378 1.251 20.934-1.317 3.737-2.922 7.299-4.336 7.689-2.563.728-5.126 6.899-1.395 10a6 6 0 00.898.616l.148.082.272.138.4.179.205.077.425.144.185.056c.2.057.405.113.625.164 2.598.511 5.294.085 7.607-1.204 2.809-.421 5.305-1.928 7.176-3.45l-.051 2.671h3.075l-.143-5.336c.553-.621.861-1.026.861-1.026s.092-3.224.446-6.976l-.226 12.041h3.076l-.831-22.221c.156-.332.361-.638.61-.907 2.563-2.563-1.866-10.831-4.157-12.21 1.025-5.433 4.936-13.281 9.447-28.325 6.607-22.041-1.763-43.616-1.763-43.616v-16.915c2.219-.954 3.526-1.605 3.526-1.605s-3.075-18.063 0-30.837c1.994-8.257 2.512-15.593.846-22.61 2.215-7.627 4.004-13.517 4.004-13.517l3.075-31.718c.784-4.762 1.312-8.837 1.651-12.302.056-.431.097-.867.117-1.297.564-6.454.441-10.764.072-13.584.179-1.292.241-2.597.185-3.9.071-.669.098-1.342.082-2.015a54.6 54.6 0 001.281-1.538 22.046 22.046 0 002.763-4.408c3.388-6.392 3.486-14.198-1.246-19.832-2.911-3.47-3.818-7.207-6.335-10.902-2.302-3.383-2.737-7.438-3.291-11.334a138.796 138.796 0 00-2.819-14.388c-.354-1.394-2.291-2.25-3.255-3.409-1.861-2.24-7.294-2.163-10.426-2.66-5.259-.835-10.954-1.614-15.741.451-3.332 1.44-5.726 4.06-8.33 6.372-2.804 2.486-8.545 3.685-9.437 6.663-.794 1.138-.835 2.563.513 4.47 1.302 1.835 3.352 3.147 5.264 4.521.246.174.477.359.718.513a18.723 18.723 0 0010.175 19.806c-.052.333-.108.661-.17.984a59.308 59.308 0 01-2.316 8.463c-.569 1.701-7.151 4.674-11.79 6.581a5.891 5.891 0 00-1.881-1.297c-3.527-.881-15.419 5.726-16.3 7.93-.246.615.4 2.317 1.45 4.46.07.976.23 1.944.477 2.891-.261 4.51.21 11.789 2.481 23.491l3.532 32.16zm49.464 4.956c-.164-.312-.333-.63-.512-.958-4.896-9.898-7.802-25.901-.79-35.445.625.066 1.251.128 1.876.169.415 12.989.174 34.343.174 34.343s-.276.718-.748 1.891zm-17.474 75.443c.995 4.997 2.163 10.805 3.255 16.084a42.31 42.31 0 01-.256 18.618l-4.142-12.426-.964-21.861-.061-.897a73.933 73.933 0 001.984-.364l.184.846z" fill="url(#paint1_linear)"/><path d="M413.512 278.456a41.652 41.652 0 01-.251 18.325 23.685 23.685 0 01-1.026 3.357l1.169 47.517.133 5.387c1.083.228 2.179.389 3.281.482 1.022.106 2.053.106 3.075 0 1.026-.128 1.928-.436 2.41-1.025.481-.59.584-1.538-.098-2.917a8.666 8.666 0 01-.835-4.895c.041-.471.118-.969.21-1.481 1.025-5.347 4.854-13.076 9.298-27.88 6.505-21.682-1.732-42.929-1.732-42.929v-19.96l-21.247-2.168s1.025 5.372 2.435 12.353c.953 4.921 2.101 10.637 3.178 15.834zM419.454 99.118c5.994-3.04 10.101-9.262 10.101-16.443 0-10.177-8.25-18.428-18.427-18.428s-18.427 8.25-18.427 18.428c0 7.242 4.178 13.509 10.255 16.52-.052.327-.108.65-.168.969a58.353 58.353 0 01-2.286 8.314c-.866 2.599-16.044 8.237-16.044 8.237l17.346 27.321 20.381 2.604s12.573-24.717 12.143-26.019c-.205-.62-1.792-1.535-4.053-2.84-2.483-1.432-5.78-3.335-8.957-5.833-2.797-2.199-2.739-7.622-1.864-12.83z" fill="#FDC2CC"/><path opacity=".1" d="M413.512 278.456a41.652 41.652 0 01-.251 18.325 23.685 23.685 0 01-1.026 3.357l1.169 47.517.133 5.387c1.083.228 2.179.389 3.281.482 1.022.106 2.053.106 3.075 0 1.026-.128 1.928-.436 2.41-1.025.481-.59.584-1.538-.098-2.917a8.666 8.666 0 01-.835-4.895c.041-.471.118-.969.21-1.481 1.025-5.347 4.854-13.076 9.298-27.88 6.505-21.682-1.732-42.929-1.732-42.929v-19.96l-21.247-2.168s1.025 5.372 2.435 12.353c.953 4.921 2.101 10.637 3.178 15.834z" fill="#000"/><path d="M384.023 252.437a65.097 65.097 0 013.521 9.14 103.132 103.132 0 013.85 19.478l1.302 16.48s9.974 37.29 13.009 44.23c2.158 4.937 1.686 15.137 1.23 20.616-.184 2.225-.364 3.671-.364 3.671l4.424-5.418 5.797-7.11 2.645-3.245.579-.707a26.638 26.638 0 01-1.691-4.526 77.362 77.362 0 01-2.64-14.532c-1.302-13.44-1.733-31.657-1.733-31.657l-.686-2.05-4.101-12.256-.948-21.529-.354-7.97-23.84-2.615z" fill="#FDC2CC"/><path d="M417.566 345.979a30.86 30.86 0 00-5.156 10.195c-1.379 4.69-3.804 11.897-5.839 12.476-3.034.867-6.069 9.54 1.733 11.277 7.801 1.738 14.311-6.94 14.311-6.94s.436-15.178 3.035-17.777c2.598-2.598-2.169-11.276-4.337-12.143-.866-.353-2.332 1.082-3.747 2.912z" fill="#5F5D7E"/><path d="M425.035 355.574l.835 22.4h-3.034l.42-22.384a.859.859 0 01.892-.815.861.861 0 01.887.799z" fill="#5F5D7E"/><path opacity=".15" d="M425.035 355.574l.835 22.4h-3.034l.42-22.384a.859.859 0 01.892-.815.861.861 0 01.887.799z" fill="#000"/><path d="M413.666 347.281a30.843 30.843 0 00-5.157 10.195c-1.379 4.69-3.803 11.897-5.838 12.476-3.035.867-6.069 9.539 1.732 11.277 7.802 1.738 14.311-6.951 14.311-6.951s.436-15.177 3.035-17.776-2.168-11.277-4.336-12.143c-.877-.323-2.333 1.092-3.747 2.922z" fill="#5F5D7E"/><path opacity=".1" fill-rule="evenodd" clip-rule="evenodd" d="M411.885 380.039c-2.187 1.121-4.755 1.785-7.482 1.18a7.173 7.173 0 01-3.106-1.43l.097.027c.142.04.268.076.41.101 2.04.427 4.161.234 6.09-.554a13.607 13.607 0 008.519-11.692c.369-4.644 1.148-10.887 2.732-12.471 2.05-2.05-.513-7.894-2.717-10.687a1.169 1.169 0 01.979-.154c1.801.72 5.399 6.825 5.074 10.365.176-.338.364-.615.565-.816 2.05-2.05-.513-7.893-2.717-10.687a1.17 1.17 0 01.979-.154c2.168.867 6.94 9.54 4.337 12.143-2.604 2.604-3.035 17.777-3.035 17.777s-4.607 6.152-10.725 7.052zm6.947-8.364a13.601 13.601 0 001.482-5.295c.258-3.256.719-7.299 1.517-9.97a1.89 1.89 0 01-.087.092c-1.925 1.925-2.659 10.718-2.912 15.173z" fill="#000"/><path d="M421.129 356.851l.835 22.4h-3.055l.421-22.385a.859.859 0 01.891-.815.86.86 0 01.908.8z" fill="#5F5D7E"/><path opacity=".15" d="M421.129 356.851l.835 22.4h-3.055l.421-22.385a.859.859 0 01.891-.815.86.86 0 01.908.8z" fill="#000"/><path opacity=".1" d="M407.873 250.269s1.025 5.372 2.435 12.353a99.457 99.457 0 0018.817-6.007v-4.178l-21.252-2.168zM387.047 74.72c1.282 1.804 3.301 3.075 5.182 4.449a56.975 56.975 0 016.572 5.5 19.438 19.438 0 013.675 4.551c1.461 2.727 1.656 5.813 1.83 8.817l1.789 31.026c.118 2.051.235 4.147-.287 6.152a21.007 21.007 0 01-2.22 4.859c-2.363 4.193-4.792 8.468-8.596 11.789-1.271 1.102-2.819 2.527-2.148 3.973.544 1.163 2.215 1.538 3.65 1.707 6.023.81 12.697 1.502 17.766-1.436 1.912-1.107 3.496-2.696 5.639-3.383 2.983-.948 6.274.041 9.452.036 3.372 0 6.591-1.122 9.739-2.229a3.495 3.495 0 001.599-.903c.251-.364.408-.785.456-1.225.477-2.516.928-5.126.149-7.591-.846-2.671-3.076-4.982-3.327-7.74-.328-3.834 3.209-6.956 5.751-10.108 5.413-6.71 6.618-16.372 1.061-22.99-2.865-3.413-3.762-7.094-6.238-10.728-2.265-3.327-2.696-7.32-3.239-11.154a136.632 136.632 0 00-2.778-14.163c-.344-1.373-2.256-2.214-3.204-3.357-1.835-2.204-7.176-2.127-10.252-2.62-5.177-.82-10.764-1.588-15.495.447-3.281 1.414-5.639 3.998-8.202 6.269-3.629 3.24-12.435 4.254-8.324 10.051zM384.023 252.437a65.097 65.097 0 013.521 9.14c6.033 2.722 13.537 2.645 20.678 1.43l-.354-7.971-23.845-2.599z" fill="#000"/><path d="M378.82 186.094c-4.137 6.966-4.772 16.987-4.383 25.249a82.514 82.514 0 003.466 19.571 91.508 91.508 0 013.536 25.429c14.742 16.044 51.166-2.168 51.166-2.168s-3.034-17.776 0-30.355c2.112-8.745 2.563-16.449.421-23.83a37.581 37.581 0 00-4.321-9.56 34.514 34.514 0 01-1.671-3.004c-5.024-10.159-7.925-26.849.154-36.055a16.81 16.81 0 012.819-2.563c7.043-5.1 10.251-10.764 11.605-15.557a20.927 20.927 0 00.512-9.16c-.866-4.772-13.009-9.108-13.009-9.108.435 14.311-17.777 26.449-17.777 26.449s-20.816-26.885-24.281-27.751c-3.465-.866-15.177 5.638-16.044 7.806-.866 2.169 9.54 18.213 9.54 18.213s6.509 32.518-1.733 46.394z" fill="#D39999"/><path opacity=".1" d="M429.991 148.803c7.043-5.1 10.252-10.764 11.605-15.557-.338-7.176-2.05-8.288-2.05-8.288s-14.327 13.87-13.025 18.658c.297 1.102.513 3.983.651 7.771a16.891 16.891 0 012.819-2.584zM405.705 247.67c3.034 9.109 18.212-6.94 18.648-13.875.277-4.439 5.172-21.842 8.657-33.8a37.546 37.546 0 00-4.321-9.56 34.514 34.514 0 01-1.671-3.004c-1.645 4.045-8.252 20.622-7.868 25.553.436 5.638-2.604 13.875-2.604 13.875s-13.876 11.703-10.841 20.811z" fill="#000"/><path d="M440.397 124.953s4.772 3.034 0 32.087l-3.035 31.222s-11.707 38.592-12.143 45.533c-.436 6.94-15.608 22.979-18.648 13.875-3.039-9.103 10.842-20.816 10.842-20.816s3.034-8.237 2.603-13.875c-.43-5.639 8.238-26.45 8.238-26.45s.435-38.156-.867-42.929c-1.302-4.772 13.01-18.647 13.01-18.647z" fill="#FDC2CC"/><path opacity=".1" d="M376.221 121.482s-5.638 1.302 0 30.356l3.47 31.657s7.807 45.533 7.371 50.746c-.435 5.213 16.916 18.647 18.213 11.276 1.296-7.37-8.673-19.514-8.673-19.514s-4.347-9.554-4.347-27.336l-.866-14.311-6.064-51.597-9.104-11.277z" fill="#000"/><path d="M375.339 121.482s-5.638 1.302 0 30.356l3.471 31.657s7.806 45.533 7.371 50.746c-.436 5.213 16.915 18.647 18.212 11.276 1.297-7.37-8.673-19.514-8.673-19.514s-4.337-9.539-4.337-27.32l-.866-14.312-6.059-51.612-9.119-11.277z" fill="#FDC2CC"/><path opacity=".1" d="M372.536 123s-2.604 13.875 15.608 18.647c18.212 4.773-2.168-16.484-2.168-16.484s-6.936-10.401-13.44-2.163z" fill="#000"/><path d="M372.966 122.569s-2.599 13.871 15.614 18.643c18.212 4.772-2.169-16.48-2.169-16.48s-6.94-10.405-13.445-2.163z" fill="#D39999"/><path opacity=".1" d="M442.35 123s2.604 13.875-15.608 18.647c-18.213 4.773 2.163-16.484 2.163-16.484s6.92-10.401 13.445-2.163z" fill="#000"/><path d="M441.914 122.569s2.624 13.871-15.608 18.643c-18.233 4.772 2.168-16.48 2.168-16.48s6.935-10.405 13.44-2.163z" fill="#D39999"/><path d="M387.483 73.853c1.281 1.804 3.301 3.076 5.182 4.45a56.936 56.936 0 016.571 5.51 19.415 19.415 0 013.675 4.551c1.461 2.727 1.656 5.813 1.83 8.817l1.805 31.016c.118 2.051.236 4.147-.287 6.151a20.969 20.969 0 01-2.22 4.859c-2.363 4.193-4.793 8.468-8.596 11.79-1.271 1.102-2.819 2.527-2.148 3.972.544 1.164 2.215 1.538 3.65 1.707 6.023.81 12.697 1.502 17.766-1.435 1.912-1.107 3.496-2.696 5.639-3.383 2.983-.948 6.274.041 9.452.036 3.372 0 6.592-1.123 9.739-2.23a3.485 3.485 0 001.599-.902c.251-.364.408-.785.456-1.225.477-2.517.928-5.126.149-7.591-.846-2.671-3.076-4.983-3.327-7.74-.328-3.835 3.209-6.956 5.751-10.109 5.413-6.709 6.618-16.372 1.061-22.989-2.865-3.414-3.762-7.094-6.238-10.728-2.265-3.327-2.696-7.32-3.239-11.154a136.642 136.642 0 00-2.778-14.163c-.344-1.374-2.256-2.214-3.204-3.357-1.835-2.204-7.176-2.128-10.252-2.62-5.177-.82-10.764-1.589-15.495.446-3.281 1.415-5.639 3.999-8.202 6.27-3.67 3.239-12.45 4.254-8.339 10.051z" fill="#865A61"/></g><defs><linearGradient id="paint0_linear" x1="276.411" y1="340.945" x2="276.411" y2="70.434" gradientUnits="userSpaceOnUse"><stop stop-color="gray" stop-opacity=".25"/><stop offset=".54" stop-color="gray" stop-opacity=".12"/><stop offset="1" stop-color="gray" stop-opacity=".1"/></linearGradient><linearGradient id="paint1_linear" x1="-71287.2" y1="267375" x2="-71287.2" y2="54382.3" gradientUnits="userSpaceOnUse"><stop stop-color="gray" stop-opacity=".25"/><stop offset=".54" stop-color="gray" stop-opacity=".12"/><stop offset="1" stop-color="gray" stop-opacity=".1"/></linearGradient><clipPath id="clip0"><path fill="#fff" d="M0 0h552.822v400H0z"/></clipPath></defs></svg>