<svg width="553" height="400" viewBox="0 0 553 400" fill="none" xmlns="http://www.w3.org/2000/svg">
<g clip-path="url(#clip0)">
<path d="M150.853 142.14C150.853 142.14 75.4319 125.276 171.398 26.6082C171.398 26.6082 212.763 65.8158 197.591 114.552C191.491 134.148 171.859 146.245 151.971 142.37L150.853 142.14Z" fill="#3198AF"/>
<path opacity="0.4" d="M150.853 142.14C149.198 141.77 77.0413 123.61 171.398 26.6082C171.398 26.6082 212.763 65.8158 197.591 114.552C191.491 134.148 171.859 146.245 151.971 142.37L150.853 142.14Z" fill="white"/>
<path d="M151.853 142.703C151.853 142.703 191.691 82.69 171.408 26.6133" stroke="#535461" stroke-miterlimit="10"/>
<path d="M461.126 200.415C461.126 200.415 448.126 148.075 467.825 110.81C476.098 95.1715 479.384 77.3541 476.621 59.8801C475.295 51.5911 473.212 43.4412 470.398 35.5323" stroke="#535461" stroke-width="2" stroke-miterlimit="10"/>
<path d="M482.675 11.9739C482.403 18.3095 470.147 36.1833 470.147 36.1833C470.147 36.1833 459.465 17.3253 459.737 10.9898C459.925 7.98999 461.282 5.1837 463.517 3.17348C465.751 1.16327 468.685 0.109445 471.688 0.238286C474.691 0.367127 477.524 1.66836 479.578 3.86259C481.632 6.05681 482.744 8.96904 482.675 11.9739Z" fill="#3198AF"/>
<path d="M500.133 47.8703C496.463 53.0422 476.457 61.3871 476.457 61.3871C476.457 61.3871 477.738 39.7509 481.409 34.579C482.266 33.3131 483.368 32.2314 484.649 31.3971C485.931 30.5629 487.366 29.993 488.87 29.7208C490.375 29.4487 491.919 29.4798 493.411 29.8123C494.904 30.1449 496.315 30.7721 497.561 31.6573C498.808 32.5425 499.865 33.6678 500.671 34.9672C501.477 36.2665 502.016 37.7137 502.255 39.2239C502.494 40.7341 502.429 42.2769 502.064 43.7616C501.699 45.2464 501.04 46.6433 500.128 47.8703H500.133Z" fill="#3198AF"/>
<path d="M496.735 107.791C490.958 110.4 469.476 107.509 469.476 107.509C469.476 107.509 481.506 89.4818 487.283 86.8676C490.046 85.6823 493.165 85.6285 495.968 86.7177C498.771 87.807 501.034 89.9525 502.272 92.693C503.51 95.4335 503.624 98.5503 502.588 101.374C501.553 104.197 499.451 106.501 496.735 107.791Z" fill="#3198AF"/>
<path d="M483.956 152.55C478.702 156.097 457.04 156.876 457.04 156.876C457.04 156.876 465.852 137.075 471.106 133.523C473.629 131.883 476.696 131.3 479.646 131.899C482.595 132.498 485.191 134.231 486.876 136.725C488.56 139.219 489.198 142.275 488.652 145.235C488.106 148.194 486.42 150.821 483.956 152.55Z" fill="#3198AF"/>
<path d="M452.325 61.6024C456.676 66.2156 477.651 71.69 477.651 71.69C477.651 71.69 473.366 50.4434 469.014 45.8353C466.908 43.6881 464.043 42.4531 461.036 42.3959C458.029 42.3387 455.119 43.4638 452.933 45.5293C450.746 47.5949 449.458 50.4359 449.344 53.4416C449.23 56.4472 450.3 59.3775 452.325 61.6024Z" fill="#3198AF"/>
<path d="M438.044 114.117C443.58 117.192 465.211 116.167 465.211 116.167C465.211 116.167 454.79 97.1705 449.249 94.0797C446.599 92.6797 443.506 92.3718 440.631 93.2217C437.757 94.0716 435.328 96.012 433.865 98.6282C432.402 101.244 432.02 104.329 432.801 107.223C433.582 110.117 435.464 112.591 438.044 114.117Z" fill="#3198AF"/>
<path d="M431.17 167.082C436.101 171.065 457.614 173.694 457.614 173.694C457.614 173.694 450.531 153.191 445.599 149.223C443.224 147.381 440.222 146.544 437.236 146.891C434.251 147.238 431.52 148.742 429.631 151.08C427.742 153.418 426.845 156.403 427.133 159.395C427.421 162.387 428.87 165.147 431.17 167.082Z" fill="#3198AF"/>
<path d="M482.675 11.9739C482.403 18.3095 470.147 36.1833 470.147 36.1833C470.147 36.1833 459.465 17.3253 459.737 10.9898C459.925 7.98999 461.282 5.1837 463.517 3.17348C465.751 1.16327 468.685 0.109445 471.688 0.238286C474.691 0.367127 477.524 1.66836 479.578 3.86259C481.632 6.05681 482.744 8.96904 482.675 11.9739Z" fill="#FC6681"/>
<path d="M500.133 47.8703C496.463 53.0422 476.457 61.3871 476.457 61.3871C476.457 61.3871 477.738 39.7509 481.409 34.579C482.266 33.3131 483.368 32.2314 484.649 31.3971C485.931 30.5629 487.366 29.993 488.87 29.7208C490.375 29.4487 491.919 29.4798 493.411 29.8123C494.904 30.1449 496.315 30.7721 497.561 31.6573C498.808 32.5425 499.865 33.6678 500.671 34.9672C501.477 36.2665 502.016 37.7137 502.255 39.2239C502.494 40.7341 502.429 42.2769 502.064 43.7616C501.699 45.2464 501.04 46.6433 500.128 47.8703H500.133Z" fill="#FC6681"/>
<path d="M496.735 107.791C490.958 110.4 469.476 107.509 469.476 107.509C469.476 107.509 481.506 89.4818 487.283 86.8676C490.046 85.6823 493.165 85.6285 495.968 86.7177C498.771 87.807 501.034 89.9525 502.272 92.693C503.51 95.4335 503.624 98.5503 502.588 101.374C501.553 104.197 499.451 106.501 496.735 107.791Z" fill="#FC6681"/>
<path d="M483.956 152.55C478.702 156.097 457.04 156.876 457.04 156.876C457.04 156.876 465.852 137.075 471.106 133.523C473.629 131.883 476.696 131.3 479.646 131.899C482.595 132.498 485.191 134.231 486.876 136.725C488.56 139.219 489.198 142.275 488.652 145.235C488.106 148.194 486.42 150.821 483.956 152.55Z" fill="#FC6681"/>
<path d="M452.325 61.6024C456.676 66.2156 477.651 71.69 477.651 71.69C477.651 71.69 473.366 50.4434 469.014 45.8353C466.908 43.6881 464.043 42.4531 461.036 42.3959C458.029 42.3387 455.119 43.4638 452.933 45.5293C450.746 47.5949 449.458 50.4359 449.344 53.4416C449.23 56.4472 450.3 59.3775 452.325 61.6024Z" fill="#FC6681"/>
<path d="M438.044 114.117C443.58 117.192 465.211 116.167 465.211 116.167C465.211 116.167 454.79 97.1705 449.249 94.0797C446.599 92.6797 443.506 92.3718 440.631 93.2217C437.757 94.0716 435.328 96.012 433.865 98.6282C432.402 101.244 432.02 104.329 432.801 107.223C433.582 110.117 435.464 112.591 438.044 114.117Z" fill="#FC6681"/>
<path d="M431.17 167.082C436.101 171.065 457.614 173.694 457.614 173.694C457.614 173.694 450.531 153.191 445.599 149.223C443.224 147.381 440.222 146.544 437.236 146.891C434.251 147.238 431.52 148.742 429.631 151.08C427.742 153.418 426.845 156.403 427.133 159.395C427.421 162.387 428.87 165.147 431.17 167.082Z" fill="#FC6681"/>
<path d="M413.537 166.61C413.537 166.61 468.056 120.924 480.173 97.883C492.291 74.8424 507.735 54.9951 507.735 54.9951" stroke="#535461" stroke-width="2" stroke-miterlimit="10"/>
<path d="M500.584 106.489L477.005 101.169C477.005 101.169 482.562 126.05 500.584 106.489Z" fill="#3198AF"/>
<path d="M464.529 81.0806L478.102 101.41C478.102 101.41 451.581 103.337 464.529 81.0806Z" fill="#3198AF"/>
<path d="M509.862 87.3802L488.303 83.5973C488.303 83.5973 501.85 104.198 509.862 87.3802Z" fill="#3198AF"/>
<path d="M477.979 69.2193L488.621 83.1308C488.621 83.1308 469.783 84.9044 477.979 69.2193Z" fill="#3198AF"/>
<path d="M499.457 66.4462C499.457 66.4462 517.833 67.3227 519.96 69.0758C522.087 70.8288 517.223 81.1113 510.221 79.4351C503.219 77.759 499.457 66.4462 499.457 66.4462Z" fill="#3198AF"/>
<path d="M492.116 50.0385C492.116 50.0385 499.616 63.7039 499.334 66.3027C499.052 68.9015 487.908 71.8233 485.653 61.9714C483.397 52.1195 492.116 50.0385 492.116 50.0385Z" fill="#3198AF"/>
<path d="M516.707 58.8992C517.562 56.2003 516.067 53.3197 513.368 52.4651C510.669 51.6106 507.788 53.1057 506.934 55.8045C506.079 58.5034 507.574 61.384 510.273 62.2386C512.972 63.0931 515.853 61.598 516.707 58.8992Z" fill="#FFD037"/>
<path d="M508.686 53.6713C509.541 50.9724 508.045 48.0918 505.347 47.2372C502.648 46.3827 499.767 47.8777 498.913 50.5766C498.058 53.2755 499.553 56.1561 502.252 57.0107C504.951 57.8652 507.831 56.3701 508.686 53.6713Z" fill="#FFD037"/>
<path d="M168.568 178.338C168.568 178.338 190.609 161.935 162.93 104.526C162.93 104.526 126.024 58.9061 162.93 15.8491C162.93 15.8491 82.4542 17.8994 83.992 92.7366C85.5297 167.574 124.23 178.338 124.23 178.338H168.568Z" fill="#3198AF"/>
<path d="M147.983 178.338C147.983 178.338 142.432 138.869 127.567 114.778C124.631 109.905 122.52 104.581 121.318 99.021C116.351 77.1695 123.435 54.3185 139.484 38.6796L162.935 15.8337" stroke="#535461" stroke-width="2" stroke-miterlimit="10"/>
<path d="M214.47 46.5785C214.47 46.5785 219.535 53.2011 212.133 63.1965C204.731 73.1919 198.631 81.6495 201.097 87.862C201.097 87.862 212.261 69.2962 221.349 69.0348C230.437 68.7734 224.466 57.7426 214.47 46.5785Z" fill="#3198AF"/>
<path opacity="0.1" d="M214.47 46.5785C214.908 47.2185 215.254 47.9175 215.495 48.6545C224.363 59.0702 229.084 68.7939 220.565 69.0399C212.625 69.2655 203.101 83.464 200.82 87.047C200.895 87.3235 200.986 87.5956 201.092 87.862C201.092 87.862 212.256 69.2962 221.344 69.0348C230.432 68.7734 224.466 57.7426 214.47 46.5785Z" fill="black"/>
<path d="M223.881 55.0156C223.881 57.3479 223.62 59.2342 223.297 59.2342C222.974 59.2342 222.713 57.3427 222.713 55.0156C222.713 52.6885 223.041 53.7803 223.364 53.7803C223.687 53.7803 223.881 52.6885 223.881 55.0156Z" fill="#FFD037"/>
<path d="M227.111 57.799C225.06 58.9164 223.282 59.5879 223.128 59.3059C222.974 59.024 224.507 57.8912 226.552 56.7738C228.597 55.6564 227.792 56.4714 227.946 56.7738C228.1 57.0762 229.156 56.6815 227.111 57.799Z" fill="#FFD037"/>
<path d="M187.734 46.5785C187.734 46.5785 182.669 53.2011 190.071 63.1965C197.473 73.1919 203.573 81.6495 201.107 87.862C201.107 87.862 189.943 69.2962 180.855 69.0348C171.767 68.7734 177.728 57.7426 187.734 46.5785Z" fill="#3198AF"/>
<path opacity="0.1" d="M187.734 46.5785C187.296 47.2185 186.951 47.9175 186.709 48.6545C177.841 59.0702 173.12 68.7939 181.639 69.0399C189.579 69.2655 199.103 83.464 201.384 87.047C201.309 87.3235 201.218 87.5956 201.112 87.862C201.112 87.862 189.933 69.2911 180.845 69.0399C171.757 68.7888 177.728 57.7426 187.734 46.5785Z" fill="black"/>
<path d="M178.313 55.0156C178.313 57.3479 178.574 59.2342 178.897 59.2342C179.22 59.2342 179.481 57.3427 179.481 55.0156C179.481 52.6885 179.153 53.7803 178.83 53.7803C178.507 53.7803 178.313 52.6885 178.313 55.0156Z" fill="#FFD037"/>
<path d="M175.083 57.799C177.134 58.9164 178.912 59.5879 179.066 59.3059C179.22 59.024 177.687 57.8912 175.642 56.7738C173.597 55.6564 174.402 56.4714 174.248 56.7738C174.094 57.0762 173.038 56.6815 175.083 57.799Z" fill="#FFD037"/>
<path d="M552.822 331.022L507.914 133.431H491.23C490.563 125.88 490.117 118.566 489.948 111.677C489.948 111.677 429.463 124.912 381.229 86.6215C332.995 48.3315 276.288 89.9328 276.288 89.9328L276.067 89.7739V89.697V89.7944C272.131 87.006 217.807 49.777 171.362 86.6523C123.148 124.942 62.6429 111.707 62.6429 111.707C62.4737 118.684 62.0227 126.06 61.3409 133.682H45.8609L0 331.734C0 331.734 186.427 338.715 251.756 332.277C254.098 337.229 264.196 340.95 276.293 340.95C289.887 340.95 300.943 336.25 301.328 330.391C352.181 334.261 461.607 340.448 552.822 331.022Z" fill="url(#paint0_linear)"/>
<path d="M50.6638 135.168L5.7666 329.099C5.7666 329.099 252.919 338.357 272.823 325.398C272.823 325.398 426.255 340.904 547.055 328.407L503.086 134.943L50.6638 135.168Z" fill="#E2E2EC"/>
<path opacity="0.1" d="M65.9388 141.868L24.0812 322.672C24.0812 322.672 254.508 331.303 273.064 319.222C273.064 319.222 416.111 333.677 528.735 322.026L487.729 141.653L65.9388 141.868Z" fill="black"/>
<path d="M485.499 113.65C485.499 113.65 426.254 126.608 379.045 89.1178C331.836 51.6274 276.293 92.3574 276.293 92.3574C276.293 92.3574 220.754 51.6274 173.545 89.1178C126.337 126.608 67.092 113.65 67.092 113.65C65.2262 189.092 30.0681 311.282 30.0681 311.282C30.0681 311.282 94.8638 328.869 180.491 293.234C266.118 257.599 276.298 305.731 276.298 305.731C276.298 305.731 286.478 257.594 372.105 293.234C457.732 328.874 522.528 311.282 522.528 311.282C522.528 311.282 487.349 189.092 485.499 113.65Z" fill="#F1F2FB"/>
<path opacity="0.1" d="M161.977 307.13C161.977 307.13 240.197 289.543 276.283 315.46C276.283 315.46 310.995 283.987 391.527 308.519" fill="black"/>
<path d="M276.293 338.126C289.842 338.126 300.825 333.359 300.825 327.48C300.825 321.6 289.842 316.833 276.293 316.833C262.744 316.833 251.761 321.6 251.761 327.48C251.761 333.359 262.744 338.126 276.293 338.126Z" fill="#E8EAF8"/>
<path opacity="0.1" d="M276.062 92.1267C276.062 92.1267 293.649 181.455 276.524 307.345L276.062 92.1267Z" fill="black"/>
<path opacity="0.1" d="M84.0381 141.653C84.0381 141.653 120.877 150.213 152.765 141.653C184.653 133.092 243.201 105.09 262.458 141.653" stroke="black" stroke-width="4" stroke-miterlimit="10"/>
<path opacity="0.1" d="M84.0381 157.389C84.0381 157.389 120.877 165.949 152.765 157.389C184.653 148.829 253.698 149.29 262.458 157.389" stroke="black" stroke-width="4" stroke-miterlimit="10"/>
<path opacity="0.1" d="M84.0381 185.135C84.0381 185.135 120.877 193.695 152.765 185.135C184.653 176.575 243.201 148.572 262.458 185.135" stroke="black" stroke-width="4" stroke-miterlimit="10"/>
<path opacity="0.1" d="M84.0381 200.892C84.0381 200.892 120.877 209.452 152.765 200.892C184.653 192.332 253.698 192.793 262.458 200.892" stroke="black" stroke-width="4" stroke-miterlimit="10"/>
<path opacity="0.1" d="M468.553 141.653C468.553 141.653 431.714 150.213 399.826 141.653C367.938 133.092 309.391 105.09 290.133 141.653" stroke="black" stroke-width="4" stroke-miterlimit="10"/>
<path opacity="0.1" d="M468.553 157.389C468.553 157.389 431.714 165.949 399.826 157.389C367.938 148.829 298.893 149.29 290.133 157.389" stroke="black" stroke-width="4" stroke-miterlimit="10"/>
<path opacity="0.1" d="M468.553 185.135C468.553 185.135 431.714 193.695 399.826 185.135C367.938 176.575 309.391 148.572 290.133 185.135" stroke="black" stroke-width="4" stroke-miterlimit="10"/>
<path opacity="0.1" d="M468.553 200.892C468.553 200.892 431.714 209.452 399.826 200.892C367.938 192.332 298.893 192.793 290.133 200.892" stroke="black" stroke-width="4" stroke-miterlimit="10"/>
<path d="M469.301 367.507C470.839 366.333 472.3 364.944 472.746 363.268C472.974 362.378 472.852 361.434 472.405 360.631C471.958 359.828 471.219 359.227 470.342 358.952C468.133 358.265 465.775 359.511 463.981 360.772C462.187 362.033 460.142 363.473 457.799 363.207C460.224 361.454 461.387 358.593 460.71 356.031C460.596 355.472 460.314 354.962 459.901 354.57C458.675 353.498 456.451 353.96 454.985 354.8C450.315 357.481 449.013 362.653 448.988 367.312C448.516 365.631 448.916 363.883 448.901 362.156C448.885 360.428 448.311 358.522 446.527 357.594C445.386 357.101 444.151 356.865 442.908 356.902C440.812 356.84 438.469 357.01 437.039 358.265C435.261 359.803 435.722 362.433 437.27 364.145C438.818 365.857 441.176 366.933 443.344 368.117C445 369.019 446.671 370.07 447.686 371.495C447.816 371.684 447.924 371.887 448.009 372.1H461.167C464.058 370.911 466.79 369.368 469.301 367.507Z" fill="#3198AF"/>
<path d="M378.323 182.926C378.323 182.926 378.451 183.664 378.666 184.976C378.554 185.181 378.441 185.386 378.323 185.586C374.12 192.66 373.474 202.85 373.869 211.215C374.237 217.962 375.419 224.64 377.39 231.104C379.794 239.504 381.002 248.201 380.978 256.938C382.641 258.736 384.64 260.192 386.863 261.223C386.975 261.566 387.093 261.915 387.196 262.248C389.133 268.704 390.443 275.332 391.107 282.039L392.429 298.78C392.429 298.78 402.563 336.67 405.644 343.718C407.837 348.731 407.356 359.096 406.894 364.652C405.577 368.389 403.973 371.951 402.558 372.341C399.995 373.069 397.432 379.24 401.164 382.341C401.443 382.573 401.743 382.779 402.061 382.957L402.209 383.039L402.481 383.177L402.881 383.356L403.086 383.433L403.511 383.577L403.696 383.633C403.896 383.69 404.101 383.746 404.321 383.797C406.919 384.308 409.615 383.882 411.928 382.593C414.737 382.172 417.233 380.665 419.104 379.143L419.053 381.814H422.128L421.985 376.478C422.538 375.857 422.846 375.452 422.846 375.452C422.846 375.452 422.938 372.228 423.292 368.476L423.066 380.517H426.142L425.311 358.296C425.467 357.964 425.672 357.658 425.921 357.389C428.484 354.826 424.056 346.558 421.764 345.179C422.79 339.746 426.701 331.898 431.211 316.854C437.818 294.813 429.448 273.238 429.448 273.238V256.323C431.667 255.369 432.975 254.718 432.975 254.718C432.975 254.718 429.899 236.655 432.975 223.881C434.969 215.624 435.486 208.288 433.82 201.271C436.035 193.644 437.824 187.754 437.824 187.754L440.899 156.036C441.683 151.274 442.211 147.199 442.55 143.734C442.606 143.303 442.647 142.867 442.668 142.437C443.231 135.983 443.108 131.673 442.739 128.853C442.919 127.561 442.98 126.256 442.924 124.953C442.995 124.284 443.023 123.611 443.006 122.938C443.447 122.426 443.877 121.913 444.287 121.4C445.379 120.045 446.306 118.565 447.05 116.992C450.438 110.6 450.536 102.794 445.805 97.1603C442.893 93.6901 441.986 89.9533 439.469 86.2576C437.167 82.8746 436.732 78.82 436.178 74.9244C435.493 70.082 434.552 65.2792 433.359 60.5361C433.005 59.1419 431.068 58.2859 430.104 57.1275C428.243 54.8875 422.81 54.9644 419.678 54.4672C414.419 53.6316 408.724 52.8525 403.937 54.9182C400.605 56.3586 398.211 58.9779 395.607 61.2896C392.803 63.7757 387.062 64.9751 386.171 67.9532C385.376 69.0912 385.335 70.5162 386.683 72.423C387.985 74.258 390.035 75.5702 391.947 76.944C392.193 77.1182 392.424 77.3028 392.665 77.4565C392.017 81.4122 392.656 85.4715 394.487 89.037C396.319 92.6024 399.247 95.4858 402.84 97.2628C402.789 97.596 402.732 97.924 402.671 98.2469C402.108 101.121 401.334 103.95 400.354 106.71C399.785 108.411 393.203 111.384 388.564 113.291C388.028 112.74 387.389 112.3 386.683 111.994C383.157 111.113 371.265 117.72 370.383 119.924C370.137 120.539 370.783 122.241 371.834 124.384C371.903 125.36 372.063 126.328 372.31 127.275C372.049 131.785 372.52 139.064 374.791 150.766L378.323 182.926ZM427.787 187.882C427.623 187.57 427.454 187.252 427.275 186.924C422.379 177.026 419.473 161.023 426.485 151.479C427.111 151.545 427.736 151.607 428.361 151.648C428.777 164.637 428.536 185.991 428.536 185.991C428.536 185.991 428.259 186.709 427.787 187.882ZM410.313 263.325C411.308 268.322 412.476 274.13 413.568 279.409C414.867 285.557 414.779 291.917 413.312 298.027L409.17 285.601L408.207 263.74L408.145 262.843C408.811 262.73 409.473 262.609 410.129 262.479L410.313 263.325Z" fill="url(#paint1_linear)"/>
<path d="M413.512 278.456C414.79 284.507 414.704 290.767 413.261 296.781C413.002 297.924 412.66 299.046 412.235 300.138L413.404 347.655L413.537 353.042C414.62 353.27 415.716 353.431 416.818 353.524C417.84 353.63 418.871 353.63 419.893 353.524C420.919 353.396 421.821 353.088 422.303 352.499C422.784 351.909 422.887 350.961 422.205 349.582C421.455 348.067 421.165 346.365 421.37 344.687C421.411 344.216 421.488 343.718 421.58 343.206C422.605 337.859 426.434 330.13 430.878 315.326C437.383 293.644 429.146 272.397 429.146 272.397V252.437L407.899 250.269C407.899 250.269 408.924 255.641 410.334 262.622C411.287 267.543 412.435 273.259 413.512 278.456Z" fill="#FDC2CC"/>
<path opacity="0.1" d="M413.512 278.456C414.79 284.507 414.704 290.767 413.261 296.781C413.002 297.924 412.66 299.046 412.235 300.138L413.404 347.655L413.537 353.042C414.62 353.27 415.716 353.431 416.818 353.524C417.84 353.63 418.871 353.63 419.893 353.524C420.919 353.396 421.821 353.088 422.303 352.499C422.784 351.909 422.887 350.961 422.205 349.582C421.455 348.067 421.165 346.365 421.37 344.687C421.411 344.216 421.488 343.718 421.58 343.206C422.605 337.859 426.434 330.13 430.878 315.326C437.383 293.644 429.146 272.397 429.146 272.397V252.437L407.899 250.269C407.899 250.269 408.924 255.641 410.334 262.622C411.287 267.543 412.435 273.259 413.512 278.456Z" fill="black"/>
<path d="M384.023 252.437C385.424 255.391 386.602 258.446 387.544 261.577C389.451 267.931 390.74 274.454 391.394 281.055L392.696 297.535C392.696 297.535 402.67 334.825 405.705 341.765C407.863 346.702 407.391 356.902 406.935 362.381C406.751 364.606 406.571 366.052 406.571 366.052L410.995 360.634L416.792 353.524L419.437 350.279L420.016 349.572C419.317 348.118 418.75 346.603 418.325 345.046C416.983 340.297 416.1 335.431 415.685 330.514C414.383 317.074 413.952 298.857 413.952 298.857L413.266 296.807L409.165 284.551L408.217 263.022L407.863 255.052L384.023 252.437Z" fill="#FDC2CC"/>
<path d="M417.566 345.979C415.228 349.027 413.479 352.484 412.41 356.174C411.031 360.864 408.606 368.071 406.571 368.65C403.537 369.517 400.502 378.19 408.304 379.927C416.105 381.665 422.615 372.987 422.615 372.987C422.615 372.987 423.051 357.809 425.65 355.21C428.249 352.612 423.481 343.934 421.313 343.067C420.447 342.714 418.981 344.149 417.566 345.979Z" fill="#5F5D7E"/>
<path opacity="0.1" d="M405.705 378.625C407.745 379.053 409.865 378.86 411.795 378.072C414.17 377.121 416.23 375.519 417.736 373.451C419.243 371.383 420.137 368.932 420.314 366.38C420.683 361.736 421.462 355.492 423.046 353.908C425.096 351.858 422.533 346.015 420.329 343.221C420.471 343.126 420.632 343.062 420.802 343.036C420.971 343.009 421.144 343.02 421.308 343.067C423.476 343.934 428.249 352.607 425.645 355.21C423.041 357.814 422.61 372.987 422.61 372.987C422.61 372.987 416.116 381.66 408.309 379.917C407.173 379.698 406.108 379.207 405.203 378.487C405.367 378.538 405.531 378.584 405.705 378.625Z" fill="black"/>
<path d="M425.035 355.574L425.87 377.974H422.836L423.256 355.59C423.268 355.364 423.368 355.152 423.535 355C423.702 354.847 423.922 354.766 424.148 354.775C424.37 354.768 424.587 354.847 424.752 354.996C424.918 355.145 425.019 355.352 425.035 355.574Z" fill="#5F5D7E"/>
<path opacity="0.15" d="M425.035 355.574L425.87 377.974H422.836L423.256 355.59C423.268 355.364 423.368 355.152 423.535 355C423.702 354.847 423.922 354.766 424.148 354.775C424.37 354.768 424.587 354.847 424.752 354.996C424.918 355.145 425.019 355.352 425.035 355.574Z" fill="black"/>
<path d="M413.666 347.281C411.327 350.329 409.578 353.786 408.509 357.476C407.13 362.166 404.706 369.373 402.671 369.952C399.636 370.819 396.602 379.491 404.403 381.229C412.205 382.967 418.714 374.278 418.714 374.278C418.714 374.278 419.15 359.101 421.749 356.502C424.348 353.903 419.581 345.225 417.413 344.359C416.536 344.036 415.08 345.451 413.666 347.281Z" fill="#5F5D7E"/>
<path opacity="0.1" d="M401.804 379.917C403.844 380.344 405.965 380.151 407.894 379.363C410.269 378.413 412.329 376.811 413.836 374.743C415.342 372.675 416.236 370.224 416.413 367.671C416.782 363.027 417.561 356.784 419.145 355.2C421.195 353.15 418.632 347.306 416.428 344.513C416.57 344.417 416.732 344.354 416.901 344.328C417.07 344.301 417.243 344.312 417.407 344.359C419.576 345.225 424.348 353.898 421.744 356.502C419.14 359.106 418.714 374.279 418.714 374.279C418.714 374.279 412.21 382.951 404.403 381.219C403.268 381 402.202 380.509 401.297 379.789C401.481 379.84 401.63 379.886 401.804 379.917Z" fill="black"/>
<path d="M421.129 356.851L421.964 379.251H418.909L419.33 356.866C419.341 356.64 419.442 356.428 419.609 356.276C419.775 356.123 419.996 356.043 420.221 356.051C420.447 356.038 420.669 356.115 420.839 356.265C421.009 356.414 421.113 356.625 421.129 356.851Z" fill="#5F5D7E"/>
<path opacity="0.15" d="M421.129 356.851L421.964 379.251H418.909L419.33 356.866C419.341 356.64 419.442 356.428 419.609 356.276C419.775 356.123 419.996 356.043 420.221 356.051C420.447 356.038 420.669 356.115 420.839 356.265C421.009 356.414 421.113 356.625 421.129 356.851Z" fill="black"/>
<path d="M384.458 116.715L401.804 144.036L422.185 146.64C422.185 146.64 434.758 121.923 434.328 120.621C433.897 119.319 427.387 116.721 421.318 111.948C415.249 107.176 422.62 87.2316 422.62 87.2316L402.676 88.9641C402.753 89.2306 402.829 89.4767 402.886 89.774C403.68 93.1417 403.398 96.8784 402.788 100.164C402.232 102.988 401.468 105.767 400.502 108.478C399.636 111.077 384.458 116.715 384.458 116.715Z" fill="#FDC2CC"/>
<path opacity="0.1" d="M407.873 250.269C407.873 250.269 408.898 255.641 410.308 262.622C416.764 261.249 423.067 259.237 429.125 256.615V252.437L407.873 250.269Z" fill="black"/>
<path opacity="0.1" d="M384.023 252.437C385.424 255.391 386.602 258.446 387.544 261.577C393.577 264.299 401.081 264.222 408.222 263.007L407.868 255.036L384.023 252.437Z" fill="black"/>
<path d="M378.82 186.094C374.683 193.06 374.048 203.081 374.437 211.344C374.8 217.983 375.963 224.554 377.903 230.914C380.271 239.182 381.461 247.743 381.439 256.343C396.181 272.387 432.605 254.175 432.605 254.175C432.605 254.175 429.571 236.399 432.605 223.82C434.717 215.075 435.168 207.371 433.026 199.99C432.04 196.617 430.585 193.399 428.705 190.43C428.131 189.518 427.572 188.508 427.034 187.426C422.01 177.267 419.109 160.577 427.188 151.371C428.027 150.413 428.973 149.553 430.007 148.808C437.05 143.708 440.258 138.044 441.612 133.251C442.458 130.274 442.633 127.145 442.124 124.091C441.258 119.319 429.115 114.983 429.115 114.983C429.55 129.294 411.338 141.432 411.338 141.432C411.338 141.432 390.522 114.547 387.057 113.681C383.592 112.815 371.88 119.319 371.013 121.488C370.147 123.656 380.553 139.7 380.553 139.7C380.553 139.7 387.062 172.218 378.82 186.094Z" fill="#D39999"/>
<path opacity="0.1" d="M429.991 148.803C437.034 143.703 440.243 138.039 441.596 133.246C441.258 126.07 439.546 124.958 439.546 124.958C439.546 124.958 425.219 138.828 426.521 143.616C426.818 144.718 427.034 147.599 427.172 151.387C428.011 150.421 428.956 149.554 429.991 148.803Z" fill="black"/>
<path opacity="0.1" d="M405.705 247.67C408.74 256.779 423.917 240.73 424.353 233.795C424.63 229.356 429.525 211.953 433.01 199.995C432.024 196.622 430.57 193.404 428.689 190.435C428.115 189.523 427.557 188.513 427.018 187.431C425.373 191.476 418.766 208.053 419.15 212.984C419.586 218.622 416.546 226.859 416.546 226.859C416.546 226.859 402.671 238.562 405.705 247.67Z" fill="black"/>
<path d="M440.397 124.953C440.397 124.953 445.169 127.987 440.397 157.04L437.362 188.262C437.362 188.262 425.655 226.854 425.219 233.795C424.783 240.735 409.611 256.774 406.571 247.67C403.532 238.567 417.413 226.854 417.413 226.854C417.413 226.854 420.447 218.617 420.016 212.979C419.586 207.34 428.254 186.529 428.254 186.529C428.254 186.529 428.689 148.373 427.387 143.6C426.085 138.828 440.397 124.953 440.397 124.953Z" fill="#FDC2CC"/>
<path opacity="0.1" d="M376.221 121.482C376.221 121.482 370.583 122.784 376.221 151.838L379.691 183.495C379.691 183.495 387.498 229.028 387.062 234.241C386.627 239.454 403.978 252.888 405.274 245.517C406.571 238.147 396.601 226.003 396.601 226.003C396.601 226.003 392.255 216.449 392.255 198.667L391.389 184.356L385.325 132.759L376.221 121.482Z" fill="black"/>
<path d="M375.34 121.482C375.34 121.482 369.701 122.784 375.34 151.838L378.81 183.495C378.81 183.495 386.616 229.028 386.181 234.241C385.745 239.454 403.096 252.888 404.393 245.517C405.69 238.147 395.72 226.003 395.72 226.003C395.72 226.003 391.383 216.464 391.383 198.683L390.517 184.371L384.458 132.759L375.34 121.482Z" fill="#FDC2CC"/>
<path opacity="0.1" d="M372.536 123C372.536 123 369.932 136.875 388.144 141.647C406.356 146.42 385.976 125.163 385.976 125.163C385.976 125.163 379.04 114.762 372.536 123Z" fill="black"/>
<path d="M372.966 122.569C372.966 122.569 370.368 136.44 388.58 141.212C406.792 145.984 386.411 124.732 386.411 124.732C386.411 124.732 379.471 114.327 372.966 122.569Z" fill="#D39999"/>
<path opacity="0.1" d="M442.35 123C442.35 123 444.954 136.875 426.742 141.647C408.529 146.42 428.905 125.163 428.905 125.163C428.905 125.163 435.825 114.762 442.35 123Z" fill="black"/>
<path d="M441.914 122.569C441.914 122.569 444.538 136.44 426.306 141.212C408.073 145.984 428.474 124.732 428.474 124.732C428.474 124.732 435.409 114.327 441.914 122.569Z" fill="#D39999"/>
<path opacity="0.1" d="M402.788 100.159C405.182 100.856 407.863 95.2483 410.692 95.2483C413.691 95.2483 416.515 101.251 419.017 99.9795C419.746 95.9373 420.806 91.9617 422.185 88.0927L402.886 89.7944C403.675 93.1416 403.398 96.8732 402.788 100.159Z" fill="black"/>
<path d="M411.128 101.102C421.305 101.102 429.556 92.8519 429.556 82.6747C429.556 72.4975 421.305 64.2473 411.128 64.2473C400.951 64.2473 392.701 72.4975 392.701 82.6747C392.701 92.8519 400.951 101.102 411.128 101.102Z" fill="#FDC2CC"/>
<path opacity="0.1" d="M387.047 74.7194C388.328 76.5236 390.348 77.7949 392.229 79.1686C394.555 80.8343 396.751 82.6728 398.801 84.6686C400.248 85.9916 401.487 87.5263 402.476 89.2204C403.937 91.9473 404.131 95.0331 404.306 98.0368L406.095 129.063C406.212 131.114 406.33 133.21 405.808 135.215C405.277 136.922 404.532 138.555 403.588 140.074C401.225 144.267 398.795 148.542 394.992 151.863C393.721 152.965 392.173 154.39 392.844 155.836C393.388 156.999 395.059 157.374 396.494 157.543C402.517 158.353 409.191 159.045 414.26 156.107C416.172 155 417.756 153.411 419.898 152.724C422.882 151.776 426.172 152.765 429.351 152.76C432.723 152.76 435.942 151.638 439.09 150.531C439.694 150.378 440.246 150.066 440.689 149.628C440.94 149.264 441.097 148.843 441.145 148.403C441.622 145.887 442.073 143.277 441.294 140.812C440.448 138.141 438.218 135.83 437.967 133.072C437.639 129.238 441.176 126.116 443.718 122.964C449.131 116.254 450.336 106.592 444.779 99.9744C441.914 96.5606 441.017 92.8802 438.541 89.246C436.276 85.9193 435.845 81.9263 435.302 78.0922C434.626 73.3256 433.698 68.5981 432.523 63.9295C432.18 62.5557 430.268 61.7151 429.32 60.572C427.485 58.3679 422.144 58.4448 419.068 57.9527C413.891 57.1326 408.304 56.3637 403.573 58.3987C400.292 59.8134 397.934 62.3968 395.371 64.6676C391.742 67.9071 382.936 68.922 387.047 74.7194Z" fill="black"/>
<path d="M387.483 73.8531C388.764 75.6574 390.784 76.9286 392.665 78.3023C394.991 79.9713 397.187 81.8132 399.236 83.8126C400.684 85.1356 401.923 86.6703 402.911 88.3643C404.372 91.0913 404.567 94.177 404.741 97.1808L406.546 128.197C406.664 130.248 406.782 132.344 406.259 134.348C405.729 136.056 404.983 137.689 404.039 139.208C401.676 143.4 399.246 147.675 395.443 150.997C394.172 152.099 392.624 153.524 393.295 154.969C393.839 156.133 395.51 156.507 396.945 156.676C402.968 157.486 409.642 158.178 414.711 155.241C416.623 154.134 418.207 152.545 420.35 151.858C423.333 150.91 426.624 151.899 429.802 151.894C433.174 151.894 436.394 150.771 439.541 149.664C440.145 149.512 440.697 149.2 441.14 148.762C441.391 148.398 441.548 147.977 441.596 147.537C442.073 145.02 442.524 142.411 441.745 139.946C440.899 137.275 438.669 134.963 438.418 132.206C438.09 128.372 441.627 125.25 444.169 122.097C449.582 115.388 450.787 105.726 445.23 99.1081C442.365 95.6943 441.468 92.0139 438.992 88.3797C436.727 85.053 436.296 81.06 435.753 77.2259C435.077 72.4593 434.15 67.7318 432.975 63.0632C432.631 61.6895 430.719 60.8488 429.771 59.7058C427.936 57.5017 422.595 57.5785 419.519 57.0865C414.342 56.2663 408.755 55.4975 404.024 57.5324C400.743 58.9471 398.385 61.5306 395.822 63.8013C392.152 67.0408 383.372 68.0558 387.483 73.8531Z" fill="#865A61"/>
</g>
<defs>
<linearGradient id="paint0_linear" x1="276.411" y1="340.945" x2="276.411" y2="70.4341" gradientUnits="userSpaceOnUse">
<stop stop-color="#808080" stop-opacity="0.25"/>
<stop offset="0.54" stop-color="#808080" stop-opacity="0.12"/>
<stop offset="1" stop-color="#808080" stop-opacity="0.1"/>
</linearGradient>
<linearGradient id="paint1_linear" x1="-71287.2" y1="267375" x2="-71287.2" y2="54382.3" gradientUnits="userSpaceOnUse">
<stop stop-color="#808080" stop-opacity="0.25"/>
<stop offset="0.54" stop-color="#808080" stop-opacity="0.12"/>
<stop offset="1" stop-color="#808080" stop-opacity="0.1"/>
</linearGradient>
<clipPath id="clip0">
<rect width="552.822" height="400" fill="white"/>
</clipPath>
</defs>
</svg>
