<svg width="755" height="600" fill="none" xmlns="http://www.w3.org/2000/svg"><g clip-path="url(#clip0)"><path opacity=".1" d="M442.614 101.397c-47.754-1.66-93.244-17.074-136.674-33.942-43.431-16.867-86.448-35.557-133.059-44.493-29.979-5.748-64.268-6.56-88.418 9.511-23.25 15.495-30.761 42.17-34.797 66.947-3.04 18.638-4.826 38.25 3.504 55.701 5.778 12.115 16.041 22.298 23.132 33.941 24.697 40.376 7.246 90.167-19.516 129.591-12.544 18.498-27.117 36.155-36.797 55.827-9.681 19.671-14.167 42.242-5.697 62.327 8.405 19.922 28.423 34.857 50.101 45.371 44.043 21.361 95.922 27.471 146.547 30.931 112.03 7.667 224.65 4.346 336.974 1.026 41.571-1.232 83.32-2.479 124.212-8.906 22.711-3.571 46.153-9.231 62.645-22.911 20.925-17.362 26.112-46.765 12.093-68.532-23.53-36.517-88.543-45.585-105.012-84.781-9.047-21.567.25-45.592 13.399-65.603 28.216-42.914 75.506-80.567 77.999-129.62 1.712-33.698-21.029-67.433-56.18-83.379-36.842-16.771-87.946-14.646-115.114 13.016-27.995 28.504-77.181 39.439-119.342 37.978z" fill="#3198AF"/><path d="M321.302 509.494l-252.555-1.232-25.095-58.86 88.735-6.441-15.465-64.534 175.508-22.748-168.063-58.424 14.845-3.527 270.242 44.087-14.882 100.711-21.273 55.347-51.997 15.621z" fill="#3198AF"/><path d="M72.62 483.61s15.495-2.48 24.793 8.47c0 0-6.818 5.372-21.487-2.066l-3.306-6.404zM70.997 483.366s-9.887 12.167-5.017 25.715c0 0 8.057-3.225 8.935-19.65l-3.918-6.065zM62.113 463.363s6.198-11.371 30.99 4.545c0 0-3.305 7.644-14.255 7.024-10.95-.619-13.842-5.578-16.735-11.569zM60.512 462.544s-12.86-1.476-14.108 27.965c0 0 8.153 1.689 13.946-7.622 5.792-9.312 3.416-14.536.162-20.343zM53.023 439.058s7.23-20.041 33.47-5.785c0 0-5.992 18.387-30.784 12.602l-2.686-6.817zM44.965 409.1s13.636-20.247 37.808-1.475c0 0-8.47 19.007-35.742 8.677l-2.066-7.202zM42.073 380.589s15.908-18.601 39.845 0c0 0-15.082 16.322-39.845 4.752v-4.752zM39.594 352.897s16.115-19.42 39.047-1.033c0 0-18.18 17.148-39.047 5.579v-4.546zM41.04 328.312s16.97-24.999 38.428-8.058c0 0-18.181 21.487-38.428 12.81v-4.752zM44.965 299.594s17.975-24.792 38.841-5.785c0 0-21.28 21.487-38.84 10.33v-4.545zM50.957 273.924s21.28-23.302 39.844-14.019c0 0-22.172 24.747-40.774 20.202l.93-6.183zM58.394 249.589s24.557-28.54 38.842-19.007c0 0-18.093 22.136-40.583 24.349l1.741-5.342zM69.13 221.366s21.494-23.302 37.196-17.517c0 0-18.388 24.173-40.08 24.792l2.884-7.275zM78.848 194.965s23.759-22.313 34.089-18.387c0 0-17.148 24.792-35.122 23.346l1.033-4.959zM88.352 170.586s20.453-26.659 31.617-24.593c0 0-12.403 23.767-31.617 27.301v-2.708zM98.667 137.715s18.078-20.432 27.847-20.388c0 0-14.27 27.301-28.592 27.05l.745-6.662zM104.776 115.83l17.466-42.56s.87 38.472-19.687 50.455l2.221-7.895zM111.867 68.894s2.893-35.543 1.033-38.435c0 0 12.485 29.551-1.151 54.137l.118-15.702zM52.344 438.585s-18.107-11.223-29.832 16.233c0 0 16.115 10.699 31.964-9.23l-2.132-7.003zM44.382 407.957s-22.21-10.131-32.982 18.535c0 0 17.155 11.806 35.004-11.29l-2.022-7.245zM41.04 382.294s-15.908-18.602-39.845 0c0 0 15.082 16.321 39.845 4.752v-4.752zM39.048 352.897S22.933 333.477 0 351.864c0 0 18.18 17.148 39.048 5.579v-4.546z" fill="#3198AF"/><path d="M41.04 329.02s-11.304-28.002-35.875-15.96c0 0 13.282 24.829 34.871 20.609l1.004-4.649zM46.39 299.454s-11.238-28.489-36.156-15.281c0 0 15.26 26.113 35.049 19.679l1.106-4.398zM53.355 274.064s-4.427-31.234-25.087-34.03c0 0 4.382 32.938 22.305 39.66l2.782-5.63zM58.918 249.648s-1.726-37.631-18.808-38.944c0 0 .576 28.563 16.883 44.272l1.925-5.328zM70.901 220.311s-5.091-31.293-21.398-35.115c0 0 2.022 30.304 19.782 42.796l1.616-7.681zM80.781 195.224s-.17-32.599-10.13-37.388c0 0-6.177 29.515 7.245 41.549l2.885-4.161zM89.112 170.217s-1.395-33.565-11.71-38.295c0 0-3.527 26.563 10.168 40.494l1.542-2.199zM100.106 140.393s-.059-27.301-7.423-33.706c0 0-7.32 29.906 3.578 39.196l3.845-5.49z" fill="#3198AF"/><path d="M103.913 114.487l-7.164-45.438s-9.733 37.233 7.504 53.643l-.34-8.205zM105.308 69.322S86.92 38.775 87.296 35.38c0 0 1.956 32.016 25.088 47.961l-7.076-14.019zM107.462 60.298S90.108 16.912 82.257 13.4c0 0 24.792 12.602 26.651 45.659l-1.446 1.24z" fill="#3198AF"/><path d="M97.833 144.636l-1.188-.362c14.647-47.762 18.299-78.213 10.293-85.85l.849-.9c8.493 8.057 5.047 38.177-9.954 87.112z" fill="#444053"/><path d="M57.502 256.466l-1.757-.627a355.242 355.242 0 014.988-13.193c15.289-38.103 28.305-73.55 36.65-100.762l1.527-.738c-8.36 27.264-21.147 64.068-36.45 102.223a290.937 290.937 0 00-4.958 13.097z" fill="#444053"/><path d="M94.454 519.352c-.236-.259-23.973-26.991-40.524-72.628a268.718 268.718 0 01-15.99-83.216c-1.135-35.514 6.317-75.166 19.082-111.189l1.387 1.624c-28.658 80.847-17.273 150.125-2.17 191.844 16.374 45.223 39.845 71.661 40.074 71.927l-1.86 1.638z" fill="#444053"/><path d="M465.392 462.595s-16.728 20.417-3.446 51.282l-133.553 57.922-12.817 2.686-5.903-25.825 3.948-32.592v-17.812l151.771-35.661z" fill="#D5D6DB"/><path d="M43.652 449.402L228.5 415.704l244.934 39.018-152.133 54.772-277.65-60.092z" fill="#3198AF"/><path d="M43.652 449.402L228.5 415.704l244.934 39.018-152.133 54.772-277.65-60.092z" fill="#3198AF"/><path d="M43.652 449.395s-17.288 32.754 2.634 63.006l274.116 59.398s-17.015-26.091.878-62.305L43.652 449.395z" fill="#3198AF"/><path opacity=".1" d="M43.652 449.395s-17.288 32.754 2.634 63.006l274.116 59.398s-17.015-26.091.878-62.305L43.652 449.395z" fill="#000"/><path opacity=".1" d="M51.82 460.751s-9.88 23.965 0 39.475v-39.475z" fill="#000"/><path d="M320.402 571.799l153.033-65.301s8.559 1.845 3.025 8.117c-5.534 6.271-153.107 63.456-153.107 63.456l-277.067-65.67 274.116 59.398z" fill="#3198AF"/><path opacity=".1" d="M320.402 571.799l153.033-65.301s8.559 1.845 3.025 8.117c-5.534 6.271-153.107 63.456-153.107 63.456l-277.067-65.67 274.116 59.398z" fill="#000"/><path opacity=".1" d="M307.858 516.09s-14.757 17.709 0 44.272V516.09zM379.303 515.791l-66.193 22.084.234.699 66.193-22.083-.234-.7zM392.561 513.593l-79.472 30.221.263.689 79.472-30.22-.263-.69zM404.738 513.487l-91.205 37.332.28.683 91.204-37.332-.279-.683zM417.978 510.291l-103.38 46.699.303.673 103.381-46.7-.304-.672zM429.102 510.306l-113.686 49.692.295.676 113.686-49.692-.295-.676zM453.433 506.174l-136.303 58.87.293.678 136.302-58.871-.292-.677z" fill="#000"/><path opacity=".3" d="M112.325 453.003l129.864-27.301 79.113 15.126-106.414 34.311-102.563-22.136z" fill="#fff"/><path d="M473.435 454.722s6.714 2.708 2.774 6.892c-3.94 4.184-154.929 47.88-154.929 47.88l152.155-54.772z" fill="#3198AF"/><path d="M538.654 391.628s-16.72 20.409-3.438 51.281l-133.553 57.922-12.817 2.701-5.903-25.825 4.007-32.584v-17.834l151.704-35.661z" fill="#D5D6DB"/><path d="M116.922 378.427l184.841-33.69 244.941 39.018-152.132 54.771-277.65-60.099z" fill="#3A3768"/><path d="M116.892 378.427s-17.295 32.754 2.627 63.006l274.116 59.398s-17.008-26.113.907-62.312l-277.65-60.092z" fill="#3A3768"/><path opacity=".1" d="M116.892 378.427s-17.295 32.754 2.627 63.006l274.116 59.398s-17.008-26.113.907-62.312l-86.684-18.764-190.966-41.328z" fill="#000"/><path opacity=".1" d="M125.082 389.783s-9.872 23.958 0 39.476v-39.476z" fill="#000"/><path d="M393.664 500.831l153.04-65.3s8.552 1.844 3.018 8.116c-5.534 6.272-153.106 63.456-153.106 63.456l-277.068-65.67 274.116 59.398z" fill="#3A3768"/><path opacity=".1" d="M393.664 500.831l153.04-65.3s8.552 1.844 3.018 8.116c-5.534 6.272-153.106 63.456-153.106 63.456l-277.068-65.67 274.116 59.398z" fill="#000"/><path opacity=".1" d="M381.121 445.123s-14.758 17.708 0 44.272v-44.272zM452.571 444.831l-66.192 22.084.233.7 66.193-22.084-.234-.7zM465.839 442.63l-79.472 30.22.262.69 79.472-30.22-.262-.69zM478.004 442.514l-91.205 37.331.28.683 91.204-37.331-.279-.683zM491.253 439.319l-103.38 46.699.303.673 103.381-46.7-.304-.672zM502.366 439.325L388.68 489.016l.296.676 113.686-49.691-.296-.676zM526.703 435.192L390.4 494.063l.293.677 136.303-58.87-.293-.678z" fill="#000"/><path opacity=".45" d="M185.594 382.036l129.864-27.301 79.114 15.126-106.415 34.31-102.563-22.135z" fill="#fff"/><path d="M546.704 383.755s6.707 2.708 2.775 6.884c-3.933 4.176-154.907 47.88-154.907 47.88l152.132-54.764z" fill="#3A3768"/><path d="M545.59 310.441s-16.727 36.649-3.446 67.514l-133.553 41.689-12.787 2.708-5.903-25.825 3.948-32.591v-17.834l151.741-35.661z" fill="#D5D6DB"/><path d="M123.88 297.248l184.849-33.698 244.941 39.018-152.14 54.771-277.65-60.091z" fill="#3198AF"/><path d="M123.88 297.24s-17.318 32.754 2.604 63.006L400.6 419.644s-17.015-26.113.9-62.305L123.88 297.24z" fill="#3198AF"/><path opacity=".1" d="M123.88 297.24s-17.318 32.754 2.604 63.006L400.6 419.644s-17.015-26.113.9-62.305L123.88 297.24z" fill="#000"/><path opacity=".1" d="M132.048 308.596s-9.88 23.966 0 39.476v-39.476z" fill="#000"/><path d="M400.63 419.644l153.032-49.067s8.559 1.844 3.025 8.116c-5.533 6.272-153.106 47.223-153.106 47.223l-277.067-65.67 274.116 59.398z" fill="#3198AF"/><path opacity=".1" d="M400.63 419.644l153.032-49.067s8.559 1.844 3.025 8.116c-5.533 6.272-153.106 47.223-153.106 47.223l-277.067-65.67 274.116 59.398z" fill="#000"/><path opacity=".1" d="M388.086 363.936s-14.757 17.708 0 44.272v-44.272zM459.539 363.643l-66.193 22.083.233.7 66.193-22.083-.233-.7zM472.801 361.445l-79.472 30.221.263.689 79.472-30.22-.263-.69zM484.96 361.333l-91.205 37.331.28.683 91.204-37.331-.279-.683zM498.219 358.131l-103.38 46.7.303.672 103.381-46.7-.304-.672zM509.336 358.144L395.65 407.836l.296.676 113.685-49.692-.295-.676zM533.67 354.017l-136.302 58.87.292.677 136.303-58.87-.293-.677z" fill="#000"/><path opacity=".3" d="M192.553 300.849l129.863-27.301 79.114 15.126-106.415 34.31-102.562-22.135z" fill="#fff"/><path d="M553.662 302.568s6.715 2.708 2.775 6.891c-3.941 4.184-154.907 47.88-154.907 47.88l152.132-54.771zM229.047 78.582s-28.039-1.69-24.762 17.982c0 0-.657 3.475 2.494 5.054 0 0 .051-1.475 2.877-.966 1.009.173 2.034.223 3.055.147a6.355 6.355 0 003.726-1.534s7.888-3.262 10.957-16.16c0 0 2.273-2.81 2.214-3.534l-4.752 2.022s1.616 3.416.347 6.257c0 0-.155-6.132-1.07-5.992-.184 0-2.457 1.188-2.457 1.188s2.782 5.955.679 10.279c0 0 .797-7.335-1.55-9.85l-3.335 1.947s3.254 6.147 1.048 11.164c0 0 .568-7.696-1.749-10.692l-3.025 2.362s3.062 6.058 1.195 10.22c0 0-.243-8.959-1.844-9.637 0 0-2.649 2.331-3.048 3.29 0 0 2.096 4.428.79 6.722 0 0-.79-5.969-1.476-5.998 0 0-2.634 3.955-2.907 6.64a14.35 14.35 0 012.265-7.039 7.904 7.904 0 00-4.029 2.088s.406-2.796 4.686-3.04c0 0 2.176-3.003 2.759-3.18 0 0-4.257-.362-6.832.782 0 0 2.272-2.634 7.607-1.475l2.952-2.435s-5.593-.738-7.969.08c0 0 2.737-2.33 8.773-.634l3.254-1.94s-4.774-1.026-7.615-.657c0 0 2.996-1.616 8.567.133l2.317-1.04s-3.491-.687-4.516-.798c-1.026-.11-1.077-.39-1.077-.39a12.183 12.183 0 016.567.737s4.98-1.793 4.884-2.103z" fill="#3198AF"/><path opacity=".1" d="M623.508 159.437s-28.038-1.689-24.762 17.982c0 0-.657 3.475 2.494 5.054 0 0 .051-1.475 2.877-.966 1.009.169 2.035.218 3.055.147a6.334 6.334 0 003.689-1.534s7.895-3.262 10.958-16.16c0 0 2.272-2.811 2.213-3.534l-4.737 2.022s1.616 3.416.347 6.257c0 0-.155-6.132-1.063-5.992-.184 0-2.464 1.188-2.464 1.188s2.782 5.955.686 10.279c0 0 .797-7.335-1.557-9.851l-3.335 1.948s3.254 6.147 1.048 11.164c0 0 .568-7.696-1.749-10.692l-3.018 2.362s3.055 6.057 1.188 10.219c0 0-.243-8.958-1.844-9.636 0 0-2.642 2.331-3.048 3.29 0 0 2.096 4.428.797 6.722 0 0-.797-5.969-1.476-5.998 0 0-2.634 3.954-2.907 6.64a14.32 14.32 0 012.273-7.039 7.942 7.942 0 00-4.036 2.088s.413-2.796 4.685-3.04c0 0 2.177-3.003 2.76-3.187 0 0-4.25-.355-6.833.789 0 0 2.273-2.634 7.607-1.476l2.952-2.434s-5.6-.738-7.969.081c0 0 2.73-2.332 8.773-.635l3.247-1.94s-4.774-1.026-7.615-.657c0 0 2.996-1.616 8.567.133l2.324-1.041s-3.498-.686-4.523-.797c-1.026-.11-1.077-.391-1.077-.391a12.093 12.093 0 016.566.738s4.996-1.793 4.907-2.103zM276.27 200.108s-12.219-25.331-27.773-12.846c0 0-3.357 1.122-3.195 4.641 0 0 1.292-.671 2.214 2.044.344.96.8 1.876 1.358 2.73a6.365 6.365 0 003.165 2.509s6.692 5.298 19.45 1.682c0 0 3.564.613 4.147.185l-4.073-3.151s-2.214 3.077-5.298 3.35c0 0 5.283-3.121 4.715-3.844-.118-.148-2.214-1.572-2.214-1.572s-3.844 5.335-8.64 5.608c0 0 6.788-2.878 7.836-6.161l-3.32-1.963s-3.786 5.844-9.238 6.36c0 0 6.995-3.254 8.478-6.736l-3.527-1.476s-3.8 5.622-8.346 6.028c0 0 7.704-4.582 7.512-6.316 0 0-3.328-1.166-4.361-1.055 0 0-2.819 3.977-5.475 3.977 0 0 4.818-3.608 4.523-4.191 0 0-4.737-.369-7.231.738a14.368 14.368 0 017.253-1.476 7.945 7.945 0 00-3.792-2.501s2.641-1.004 4.936 2.604c0 0 3.689.436 4.125.856 0 0-1.764-3.881-4.014-5.571 0 0 3.409.687 4.966 5.903l3.578 1.417s-2.058-5.253-3.955-6.914c0 0 3.365 1.247 4.833 7.379l3.276 1.889s-1.424-4.671-3.136-6.966c0 0 2.871 1.83 4.059 7.541l2.044 1.52s-1.107-3.386-1.476-4.331c-.369-.944-.185-1.136-.185-1.136a12.104 12.104 0 012.568 6.087s3.948 3.38 4.213 3.158zM559.447 123.651s-12.211-25.33-27.773-12.846c0 0-3.35 1.121-3.195 4.641 0 0 1.299-.664 2.214 2.044a12.77 12.77 0 001.365 2.737 6.33 6.33 0 003.158 2.502s6.699 5.297 19.45 1.689c0 0 3.564.605 4.154.177l-4.051-3.158s-2.214 3.085-5.29 3.358c0 0 5.275-3.129 4.707-3.852-.118-.148-2.213-1.572-2.213-1.572s-3.837 5.335-8.641 5.608c0 0 6.796-2.878 7.844-6.154l-3.372-1.948s-3.778 5.837-9.238 6.361c0 0 6.995-3.262 8.485-6.744l-3.534-1.476s-3.8 5.63-8.338 6.028c0 0 7.696-4.582 7.504-6.308 0 0-3.321-1.174-4.354-1.056 0 0-2.818 3.97-5.482 3.97 0 0 4.826-3.608 4.531-4.191 0 0-4.737-.369-7.239.738a14.366 14.366 0 017.253-1.476 7.9 7.9 0 00-3.785-2.501s2.642-1.004 4.936 2.605c0 0 3.69.442 4.125.863 0 0-1.763-3.889-4.021-5.578 0 0 3.409.693 4.966 5.939l3.586 1.417s-2.059-5.261-3.955-6.921c0 0 3.364 1.247 4.825 7.379l3.284 1.888s-1.432-4.663-3.144-6.965c0 0 2.878 1.83 4.059 7.541l2.044 1.52s-1.1-3.387-1.476-4.331c-.376-.945-.185-1.129-.185-1.129a12.137 12.137 0 012.561 6.087s4.006 3.35 4.235 3.114zM598.473 248.947s-12.212-25.338-27.796-12.853c0 0-3.35 1.121-3.195 4.641 0 0 1.299-.664 2.214 2.044.341.963.797 1.882 1.358 2.737a6.33 6.33 0 003.158 2.502s6.699 5.305 19.457 1.689c0 0 3.557.613 4.147.177l-4.073-3.15s-2.214 3.084-5.298 3.357c0 0 5.276-3.129 4.708-3.852-.118-.147-2.214-1.571-2.214-1.571s-3.837 5.334-8.64 5.615c0 0 6.795-2.885 7.843-6.161l-3.328-1.963s-3.777 5.844-9.238 6.36c0 0 6.995-3.261 8.486-6.744l-3.535-1.475s-3.8 5.622-8.337 6.028c0 0 7.703-4.582 7.511-6.316 0 0-3.328-1.173-4.361-1.055 0 0-2.818 3.969-5.482 3.969 0 0 4.826-3.608 4.53-4.191 0 0-4.737-.369-7.238.738a14.417 14.417 0 017.261-1.476 7.898 7.898 0 00-3.793-2.501s2.641-1.011 4.936 2.605c0 0 3.69.435 4.125.856 0 0-1.764-3.881-4.014-5.579 0 0 3.409.694 4.966 5.94l3.578 1.417s-2.058-5.261-3.955-6.914c0 0 3.365 1.24 4.826 7.379l3.284 1.881s-1.432-4.663-3.144-6.965c0 0 2.878 1.83 4.066 7.548l2.044 1.476s-1.107-3.387-1.476-4.331c-.369-.945-.184-1.129-.184-1.129a12.063 12.063 0 012.56 6.087s4.014 3.402 4.243 3.18zM149.011 578.602c9.369 0 16.964-.849 16.964-1.896 0-1.048-7.595-1.897-16.964-1.897-9.368 0-16.963.849-16.963 1.897 0 1.047 7.595 1.896 16.963 1.896zM37.808 546.372c9.369 0 16.964-.849 16.964-1.896s-7.595-1.896-16.964-1.896-16.963.849-16.963 1.896 7.594 1.896 16.963 1.896zM233.777 600.007c9.369 0 16.963-.849 16.963-1.896s-7.594-1.896-16.963-1.896-16.964.849-16.964 1.896 7.595 1.896 16.964 1.896zM668.156 553.382c9.369 0 16.964-.849 16.964-1.896 0-1.048-7.595-1.897-16.964-1.897-9.368 0-16.963.849-16.963 1.897 0 1.047 7.595 1.896 16.963 1.896zM526.996 544.181c9.369 0 16.963-.849 16.963-1.897 0-1.047-7.594-1.896-16.963-1.896s-16.964.849-16.964 1.896c0 1.048 7.595 1.897 16.964 1.897zM435.678 589.058c11.08 0 20.063-1.543 20.063-3.446 0-1.903-8.983-3.446-20.063-3.446-11.08 0-20.062 1.543-20.062 3.446 0 1.903 8.982 3.446 20.062 3.446z" fill="#3198AF"/><path d="M444.628 550.977s-27.935 14.432-13.503 31.432c0 0 1.358 3.69 5.284 3.431 0 0-.783-1.431 2.213-2.575a14.379 14.379 0 003.018-1.601 7.092 7.092 0 002.701-3.608s5.711-7.644 1.283-21.789c0 0 .576-3.999.074-4.649l-3.394 4.656s3.505 2.354 3.911 5.815c0 0-3.69-5.807-4.427-5.165-.163.132-1.683 2.545-1.683 2.545s6.08 4.125 6.53 9.482c0 0-3.423-7.504-7.12-8.574l-2.118 3.778s6.641 4.043 7.379 10.123c0 0-3.859-7.711-7.799-9.267l-1.557 3.991s6.404 4.073 6.995 9.135c0 0-5.357-8.463-7.283-8.197 0 0-1.21 3.748-1.048 4.906 0 0 4.523 3.026 4.605 5.999 0 0-4.177-5.276-4.819-4.929 0 0-.265 5.305 1.019 8.065 0 0-2.214-3.94-1.852-8.065a8.855 8.855 0 00-2.679 4.309s-1.203-2.914 2.76-5.6c0 0 .376-4.125.833-4.634 0 0-4.287 2.096-6.109 4.663 0 0 .671-3.829 6.486-5.733l1.476-4.043s-5.815 2.464-7.608 4.634c0 0 1.291-3.8 8.065-5.623l2.007-3.689s-5.165 1.741-7.689 3.689c0 0 1.956-3.269 8.309-4.774l1.63-2.324s-3.748 1.335-4.796 1.815c-1.047.48-1.254.243-1.254.243a13.564 13.564 0 016.722-3.054s3.697-4.568 3.438-4.818z" fill="#3198AF"/><path d="M527.542 278.388c-4.826-13.112-31.389-14.344-42.914-11.002-8.19 2.384-25.456 5.07-34.68 6.42l-.597-.568c1.195-.354 1.225-1.225 1.077-2.516a39.367 39.367 0 01.074-5.106c5.652 1.756 10.684-2.398 10.684-2.398 6.641-2.952 4.855-15.584 6.124-19.037.952-2.583 1.978-17.798 2.435-25.383h.096l.052-2.545c.066-1.1.096-1.742.096-1.742s.649-18.55 1.918-22.305c1.181-3.453 2.14-20.852 2.288-23.612v-.361l-.096-1.609a62.92 62.92 0 00.088-3.852c0-6.308-.657-14.255-.738-15.539v-.671c.052-2.694-.288-16.182-11.761-21.28-4.228-1.889-9.312-4.14-14.234-6.331-1.269-10.957-4.169-21.856-3.918-32.894 0-1.66.148-3.32.31-4.973 0 .48-.051.966-.059 1.475v3.218c.436-13.806 5.652-27.685 5.165-41.195a65.936 65.936 0 01-.265 3.977c.254-4.57-.224-9.151-1.417-13.57-.443-1.556-1.04-3.165-2.317-4.205a9.541 9.541 0 00-4.043-1.601 81.323 81.323 0 00-10.618-1.978 16.392 16.392 0 00-2.391-4.641C420.419 12.293 409.336 2.642 396.232.428c-6.574-1.107-14.137-.185-18.609 4.516-.467.413-.906.856-1.313 1.328-2.406 2.87-3.439 6.64-5.903 9.503-.163.192-.347.37-.524.554-4.826 4.316-12.345 5.217-17.709 9.09a21.287 21.287 0 00-2.649 2.31 44.996 44.996 0 00-5.785 7.032c-2.412 3.394-4.892 6.928-5.659 10.98-1.542 8.116 3.985 15.812 5.01 23.98 2.288 18.276-17.937 34.495-14.108 52.528a24.06 24.06 0 006.508 11.68C327.603 141.072 320.889 148 320.889 148v.414h-1.247l.125 1.475h-.125l.686 8.006-.686 11.658v1.1h.044c.229 4.272 1.136 19.634 2.214 22.873 1.269 3.756 1.911 22.306 1.911 22.306s1.402 26.216 2.686 29.684-.539 16.064 6.124 19.037a14.015 14.015 0 006.692 2.774c-.339 2.76-.125 4.76.974 5.387a3.23 3.23 0 001.55.443c-.452.67-.854 1.373-1.203 2.102a31.25 31.25 0 01-7.733-1.822c-7.157-2.951-30.909-9.592-37.808-4.922-6.899 4.671-23.501 8.906-15.834 27.707 7.666 18.801 11.237 19.273 11.237 19.273a27.302 27.302 0 016.132 6.161c2.302 3.461 23.752 11.378 29.116 11.378 2.28-.035 4.56.078 6.825.34 0 0-5.821 5.105-5.047 8.072.775 2.966-1.771 26.71-1.771 26.71s5.903 5.947 8.427-1.852l.088.118c.473.642 3.026 3.542 7.829-.118a43.993 43.993 0 016.242-3.955l23.258-3.291a66.008 66.008 0 017.282-.051c3.69.302 7.313-1.882 9.593-3.571 4.818 1.829 10.234 3.829 12.809 4.56 5.224 1.475 29.234 7.917 34.849 5.902a7.8 7.8 0 003.025-2.154l5.357.17-2.508.501s4.884.082 11.525.17l-.28.162 8.33-.073c12.19.11 25.884.147 27.685-.259 2.818-.627 17.465-.184 21.781 0h1.203s16.093-3.209 9.452-19.538c-5.106-12.544-20.8-16.189-27.766-17.192a127.68 127.68 0 014.774-.871c4.863-.738 14.307-5.165 15.075-6.678.767-1.512 8.684-5.903 10.728-8.404 2.044-2.501 7.881-20.232 3.033-33.344zm-133.295 36.694l-.789.258-.532.177-1.018 1.004a197.833 197.833 0 00-2.59-1.712c1.601.096 3.247.192 4.929.273z" fill="url(#paint0_linear)"/><path d="M441.293 237.282s11.289 29.514 17.709 26.563c6.419-2.952 4.678-15.495 5.903-18.934 1.225-3.438 2.582-29.514 2.582-29.514s.62-18.447 1.845-22.18c1.136-3.431 2.059-20.734 2.214-23.457v-.362L470.328 148l-6.892-1.719-15.982 5.903-2.213 12.64-.864 4.936-.368 2.103-2.716 65.419z" fill="#BE6F72"/><path opacity=".1" d="M445.012 232.338s10.773 8.817 14.019 9.592c3.247.775 5.239 7.652 5.239 7.652" fill="#000"/><path d="M353.008 238.573s-11.289 29.514-17.709 26.563c-6.419-2.951-4.678-15.495-5.903-18.934-1.224-3.438-2.582-29.514-2.582-29.514s-.62-18.447-1.845-22.18c-1.136-3.431-2.058-20.734-2.213-23.457v-.361l1.225-21.398 6.891-1.72 15.982 5.903 2.214 12.64.863 4.936.369 2.103 2.708 65.419z" fill="#BE6F72"/><path d="M426.521 80.626h-25.198v39.277h25.198V80.626z" fill="#3E373A"/><path opacity=".1" d="M426.521 80.626h-25.198v39.277h25.198V80.626z" fill="#000"/><path d="M348.581 267.969s-8.611 9.467-5.416 11.186c3.195 1.72 23.862 33.942 23.862 33.942s67.884 8.36 80.686-4.184c12.802-12.543 12.543-34.952 12.543-34.952s-10.286 2.213-11.407 1.011c-1.122-1.203-7.283-7.003-7.283-7.003s-87.082-5.283-92.985 0z" fill="#4B4B5B"/><path opacity=".02" d="M348.581 267.969s-8.611 9.467-5.416 11.186c3.195 1.72 23.862 33.942 23.862 33.942s67.884 8.36 80.686-4.184c12.802-12.543 12.543-34.952 12.543-34.952s-10.286 2.213-11.407 1.011c-1.122-1.203-7.283-7.003-7.283-7.003s-87.082-5.283-92.985 0z" fill="#000"/><path d="M470.786 148.31l-22.136 17.709-6.693.487-2.457.177-41.268 3.025-42.796-3.128-6.368-.465-8.117-.59-16.97-16.233s12.012-12.869 22.534-21.553c4.147-3.431 8.065-6.206 10.92-7.298l.487-.169a12.15 12.15 0 004.678-3.262c8.309-8.566 15.99-29.706 15.99-29.706s36.649-18.934 32.222 5.903c-4.427 24.836 16.477 18.697 16.477 18.697l6.891 3.143 2.723 1.247 6.943 3.181 15.665 7.186c12.293 5.66 11.275 21.649 11.275 21.649z" fill="#BE6F72"/><path opacity=".1" d="M396.512 107.529c18.204 0 32.961-14.757 32.961-32.96 0-18.204-14.757-32.961-32.961-32.961-18.203 0-32.96 14.757-32.96 32.96 0 18.204 14.757 32.961 32.96 32.961zM470.837 171.789H322.756v-.361l1.225-21.398s12.012-12.869 22.534-21.553l92.97-3.69 4.324-4.56 15.665 7.187c12.3 5.652 11.312 21.642 11.312 21.642s1.682 18.527.051 22.733z" fill="#000"/><path d="M470.837 171.051H322.756v-.361l1.225-21.398s12.012-12.869 22.534-21.553l92.97-3.69 4.324-4.56 15.665 7.187c12.3 5.652 11.312 21.642 11.312 21.642s1.682 18.527.051 22.733z" fill="#E7C7CA"/><path opacity=".1" d="M372.775 111.048s23.361 29.766 54.477-.612c31.115-30.378 3.446 67.758 3.446 67.758l-67.146 7.969 9.223-75.115z" fill="#000"/><path d="M372.775 112.524s23.361 29.765 54.477-.612c31.115-30.378 3.446 67.757 3.446 67.757l-67.146 7.969 9.223-75.114z" fill="#E7C7CA"/><path opacity=".1" d="M436.866 117.748l2.472 37.697 2.649 12.544 2.022 9.592s5.165 73.787 3.689 77.476c-1.476 3.689.738 6.641 1.048 8.603.31 1.963-.31 6.892-.067 9.106.244 2.213 0 3.194-5.652 2.405-5.652-.79-13.532-2.162-13.532-2.162s-19.922 1.476-26.807-.981c-6.884-2.457-19.922-2.465-19.922-2.465s-19.679.495-26.069-.243c-6.39-.738-9.843 7.873-14.019 5.408-4.176-2.464 4.914-26.312 7.866-33.204 2.951-6.891-3.933-24.349-3.933-24.349l8.854-49.12 1.97-11.134v-35.004l.487-.17c1.796-.7 3.4-1.818 4.678-3.261l2.214 35.225 69.359 2.465v-39.645" fill="#000"/><path d="M436.866 116.272l2.472 37.698 2.649 12.543 2.022 9.593s5.165 73.786 3.689 77.475c-1.476 3.689.738 6.641 1.048 8.604.31 1.962-.31 6.891-.067 9.105.244 2.213 0 3.195-5.652 2.405-5.652-.789-13.532-2.162-13.532-2.162s-19.922 1.476-26.807-.981c-6.884-2.457-19.922-2.465-19.922-2.465s-19.679.495-26.069-.243c-6.39-.738-9.843 7.873-14.019 5.409-4.176-2.465 4.914-26.313 7.866-33.204 2.951-6.892-3.933-24.35-3.933-24.35l8.854-49.119 1.97-11.135v-35.004l.487-.169a12.15 12.15 0 004.678-3.262l2.214 35.226 69.359 2.464v-39.645" fill="#E7C7CA"/><path opacity=".1" d="M444.842 37.602c-.42-1.543-1.003-3.144-2.213-4.177a9.06 9.06 0 00-3.896-1.594 76.96 76.96 0 00-10.242-1.962 16.386 16.386 0 00-2.213-4.597C419.047 15.06 408.348 5.43 395.76 3.254c-6.589-1.144-14.226-.118-18.447 5.076-2.317 2.856-3.313 6.641-5.652 9.445-4.508 5.446-12.647 6.117-18.328 10.33-3.033 2.214-5.232 5.424-7.379 8.537-2.324 3.372-4.715 6.884-5.453 10.913-1.475 8.05 3.845 15.724 4.826 23.848 2.214 18.173-17.266 34.296-13.584 52.226 2.147 10.455 11.806 17.819 21.796 21.553 3.52 1.321 7.541 2.634 9.187 6.013.738 1.476.863 3.181 1.557 4.671 2.331 4.973 9.998 5.165 14.115 1.542 4.117-3.623 5.416-9.481 5.903-14.949 1.977-23.877-7.585-47.467-6.471-71.403.332-7.238 2.368-15.45 8.854-18.727 8.729-4.427 19.229 2.952 28.836 1.542a57.205 57.205 0 012.759 34.909c-1.527 6.367-4.169 12.543-4.36 19.11-.288 9.998 5.106 19.133 9.769 27.973a14.89 14.89 0 011.97 5.393 13.007 13.007 0 01-1.055 5.645c-2.634 7.091-7.18 13.673-7.696 21.221a3.432 3.432 0 00.553 2.523 3.17 3.17 0 001.904.856c7.969 1.365 14.861-5.696 18.749-12.787a59.925 59.925 0 007.393-25.471c.805-15.023-4.582-29.802-4.25-44.84.384-17.096 8.11-34.31 3.586-50.802z" fill="#000"/><path d="M445.58 36.864c-.42-1.542-1.003-3.144-2.213-4.177a9.068 9.068 0 00-3.896-1.593 77.006 77.006 0 00-10.242-1.963 16.387 16.387 0 00-2.213-4.597c-7.231-10.212-17.93-19.841-30.518-22.018-6.589-1.144-14.226-.118-18.447 5.077-2.317 2.855-3.313 6.64-5.652 9.444-4.508 5.446-12.647 6.117-18.328 10.33-3.033 2.214-5.232 5.424-7.379 8.537-2.324 3.372-4.715 6.885-5.453 10.913-1.476 8.05 3.844 15.724 4.826 23.848 2.213 18.174-17.266 34.296-13.584 52.226 2.147 10.455 11.805 17.819 21.796 21.553 3.52 1.321 7.541 2.634 9.187 6.013.737 1.476.863 3.181 1.556 4.671 2.332 4.973 9.998 5.165 14.116 1.542 4.117-3.623 5.416-9.481 5.903-14.949 1.977-23.877-7.586-47.467-6.471-71.403.332-7.238 2.368-15.45 8.854-18.727 8.729-4.427 19.229 2.952 28.836 1.542a57.204 57.204 0 012.759 34.909c-1.527 6.367-4.169 12.543-4.361 19.11-.287 9.998 5.106 19.133 9.77 27.973 1 1.653 1.669 3.485 1.97 5.393a13.007 13.007 0 01-1.055 5.645c-2.634 7.091-7.18 13.673-7.696 21.221a3.43 3.43 0 00.553 2.524c.52.491 1.191.793 1.904.855 7.969 1.366 14.86-5.696 18.749-12.787a59.935 59.935 0 007.393-25.471c.805-15.023-4.582-29.802-4.25-44.84.384-17.096 8.109-34.31 3.586-50.801z" fill="#3E373A"/><path d="M429.281 363.567l29.271.937-4.199-21.708-22.423 2.132-2.649 18.639z" fill="#C3C7D9"/><path d="M519.979 312.116c-1.97 2.457-9.592 6.884-10.33 8.36-.738 1.475-9.836 5.903-14.514 6.64-4.678.738-19.428 3.941-22.136 5.66-1.94 1.239-17.517 5.165-27.751 7.342a78.98 78.98 0 01-8.404 1.512c-4.427.244-52.875-16.233-52.875-16.233l9.341-9.592.517-.177c2.641-.893 14.845-5.018 21.619-6.98 7.629-2.214 16.484-11.312 16.484-11.312s13.03-4.427 14.757-4.921c1.727-.495-4.427-17.215-4.427-17.215s28.282-3.925 39.35-7.253c11.068-3.327 36.65-2.095 41.32 10.943 4.671 13.038-.952 30.769-2.951 33.226z" fill="#4B4B5B"/><path d="M391.096 353.679s-5.652 5.903-11.311 5.416c-5.659-.487-25.449 1.476-25.449 1.476a39.681 39.681 0 00-9.968 5.778c-4.627 3.645-7.084.737-7.541.118l-.081-.118c-2.465 7.755-8.117 1.844-8.117 1.844s2.457-23.611 1.705-26.563c-.753-2.951 4.862-8.02 4.862-8.02l6.641-1.69 16.823-4.309 24.106 8.36 8.33 17.708z" fill="#E7C7CA"/><path opacity=".1" d="M341.807 331.92l-4.98 34.547-.081-.118c-2.465 7.755-8.117 1.844-8.117 1.844s2.457-23.611 1.705-26.563c-.753-2.951 4.862-8.02 4.862-8.02l6.611-1.69zM376.62 233.651s13.03 4.428 24.349 0H376.62zM421.105 242.019s5.409 2.7 9.593 0h-9.593zM421.105 248.423s9.098 1.218 10.825-1.239l-10.825 1.239zM418.154 262.185s17.089-2.214 21.331-5.165l-21.331 5.165zM366.009 257.02s9.592 5.408 16.727 5.165l-16.727-5.165zM445.241 340.118a79.026 79.026 0 01-8.404 1.512c-4.428.244-52.876-16.233-52.876-16.233l9.342-9.592.516-.177a87.862 87.862 0 013.549 2.612c4.066 3.202 7.991-.981 9.467-.981 1.476 0 14.263 10.573 14.263 10.573s11.806 2.708 13.776 5.165c1.97 2.457 8.854 1.97 10.079 3.69.369.531.413 1.837.288 3.431z" fill="#000"/><path d="M354.336 276.204s-11.938.686-18.823-2.214c-6.884-2.899-29.758-9.592-36.398-4.892-6.641 4.701-22.631 8.855-15.252 27.552 7.379 18.698 10.824 19.185 10.824 19.185a26.626 26.626 0 015.903 6.124c2.214 3.446 22.874 11.311 28.039 11.311 5.165 0 14.263 0 27.05 8.855 12.787 8.854 24.35 9.843 24.35 9.843s16.232 6.64 21.287 8.116c5.054 1.476 28.149 7.866 33.565 5.903 5.416-1.963 8.855-14.27 8.855-14.27s2.457-11.068 1.224-12.787c-1.232-1.72-8.116-1.233-10.079-3.69-1.962-2.457-13.776-5.165-13.776-5.165s-12.757-10.581-14.233-10.581c-1.476 0-5.401 4.177-9.467.982a215.91 215.91 0 00-25.463-16.233c-9.342-4.922-17.606-28.039-17.606-28.039z" fill="#4B4B5B"/><path opacity=".1" d="M330.333 283.339a14.1 14.1 0 0112.094 3.195c5.903 4.922 25.766 14.802 25.766 14.802M477.921 283.029s-26.32 3.985-31.234 9.393l31.234-9.393z" fill="#000"/><path d="M508.173 364.504h-1.158c-4.162-.148-18.262-.59-20.978 0-3.195.738-45.504 0-45.504 0l8.272-1.719s-3.07-10.758-1.122-11.651c0 0-11.068-7.29-2.723-12.212 8.346-4.921 17.34-2.848 17.34-2.848l20.948-7.098 4.021-1.365s23.612 1.232 30.002 17.465c6.39 16.233-9.098 19.428-9.098 19.428z" fill="#E7C7CA"/><path opacity=".1" d="M508.173 364.504h-1.158c6.869-5.667 22.408-22.918-23.767-35.491l4.021-1.365s23.612 1.232 30.002 17.465c6.39 16.233-9.098 19.391-9.098 19.391z" fill="#000"/><path d="M464.765 345.379a1.292 1.292 0 10-.002-2.584 1.292 1.292 0 00.002 2.584zM457.261 347.511a1.291 1.291 0 100-2.582 1.291 1.291 0 000 2.582z" fill="#4B4B5B"/><g opacity=".1" fill="#000"><path opacity=".1" d="M420.699 73.35a57.233 57.233 0 00-4.235-23.714c-9.592 1.431-20.099-5.97-28.836-1.542-6.463 3.276-8.492 11.488-8.854 18.727a87.693 87.693 0 00-.066 5.733c0-.679 0-1.365.066-2.044.34-7.238 2.369-15.45 8.854-18.727 8.737-4.427 19.229 2.952 28.836 1.542a57.086 57.086 0 014.235 20.026zM346.367 72a24.55 24.55 0 00-.096-4.825c-.782-6.493-4.331-12.699-4.973-19.03-.826 7.637 4.036 14.972 4.973 22.72.096.398.096.752.096 1.136zM385.245 138.216c-.457 5.475-1.748 11.327-5.903 14.957-4.154 3.63-11.805 3.431-14.115-1.542-.738-1.476-.848-3.195-1.564-4.671-1.638-3.379-5.667-4.693-9.187-6.014-9.998-3.741-19.641-11.068-21.789-21.553a22.836 22.836 0 01-.391-2.877 23.271 23.271 0 00.391 6.567c2.148 10.455 11.806 17.812 21.789 21.553 3.52 1.321 7.549 2.634 9.187 6.013.738 1.476.863 3.181 1.564 4.671 2.324 4.973 9.991 5.165 14.115 1.542 4.125-3.623 5.409-9.481 5.903-14.956.225-2.882.301-5.773.229-8.663 0 1.675-.096 3.328-.229 4.973zM442.238 84.168v3.195c.413-13.724 5.445-27.522 4.951-40.959-.384 12.426-4.671 25.132-4.951 37.764zM426.403 139.685a9.494 9.494 0 00.17-2.664 14.765 14.765 0 00-1.97-5.394c-4.265-8.116-9.128-16.425-9.703-25.434 0 .384-.052.738-.059 1.151-.295 9.991 5.098 19.133 9.762 27.973a17.712 17.712 0 011.8 4.368zM446.48 129.008a60.022 60.022 0 01-7.445 25.471c-3.896 7.091-10.78 14.152-18.756 12.787a3.137 3.137 0 01-1.904-.863 1.85 1.85 0 01-.347-.576 22.812 22.812 0 00-.206 1.749 3.4 3.4 0 00.553 2.516 3.132 3.132 0 001.904.863c7.976 1.365 14.86-5.696 18.756-12.787a60.022 60.022 0 007.445-25.471c.089-1.726.096-3.446.045-5.165-.015.494-.015.981-.045 1.476z"/></g><path opacity=".1" d="M447.683 351.134s18.675 7.836 30.99-9.504M451.358 364.829s15.251-9.917 34.679-.325M349.267 362.578s6.405-14.447 23.508-3.431" stroke="#000" stroke-miterlimit="10"/><path opacity=".1" d="M328.504 148.923l13.06-11.806s50.639-3.32 52.735 13.894c0 0 17.952-20.409 55.708-15.864l15.975 12.721-44.154 19.376-42.906 14.883-31.603-14.145-18.815-19.059z" fill="#000"/><path d="M328.504 149.661l13.06-11.806s50.639-3.321 52.735 13.894c0 0 17.952-20.41 55.708-15.864l15.975 12.72-44.154 19.377-42.906 14.882-31.603-14.144-18.815-19.059z" fill="#D5D6DB"/><path opacity=".1" d="M322.726 151.136l5.778 69.116 61.242 3.077-2.656-68.821-.052-1.158-64.312-2.214z" fill="#000"/><path d="M322.726 149.661l5.778 69.115 61.242 3.077-2.656-68.82-.052-1.159-64.312-2.213z" fill="#3198AF"/><path opacity=".1" d="M468.786 149.661l-63.176 9.474v69.425l61.737-8.921 1.439-69.978z" fill="#000"/><path d="M468.786 148.185l-63.176 9.474v69.425l61.737-8.92 1.439-69.979z" fill="#3198AF"/><path opacity=".3" d="M453.889 165.126l-34.127 3.793.746 11.629 33.358-3.646.023-11.776z" fill="#fff"/><path d="M331.824 255.787l3.475 9.349s5.165 4.427 10.817 2.214c5.652-2.214 10.581-3.313 13.038-5.468 2.458-2.154 5.903-12.979 5.903-12.979s3.446-11.806 6.885-14.757c3.438-2.952 12.543-43.615 0-39.638-12.544 3.977-22.136 40.87-22.136 40.87s-2.214 2.701-5.409 2.952c-3.195.25-9.592-.495-10.824 2.213-1.233 2.708-5.438 9.836-1.749 15.244z" fill="#BE6F72"/><path opacity=".1" d="M405.61 159.127a21.25 21.25 0 01-18.528-4.619l2.664 68.813s6.272 6.789 15.864 5.239v-69.433z" fill="#000"/><path d="M405.61 157.652a21.263 21.263 0 01-18.528-4.619l2.664 68.813s6.272 6.788 15.864 5.238v-69.432z" fill="#3198AF"/><path opacity=".1" d="M405.61 157.652a21.263 21.263 0 01-18.528-4.619l2.664 68.813s6.272 6.788 15.864 5.238v-69.432zM407.086 149.897s25.7-7.859 32.4-6.752l-32.4 6.752zM378.339 146.466s-24.91-5.903-29.072-4.228l29.072 4.228zM423.289 150.878s17.185-6.301 23.398-3.306l-23.398 3.306zM414.634 308.95c2.663-2 5.498-3.76 8.471-5.261 4.427-2.132 12.544-7.666 12.544-7.666M349.267 233.651s-10.78 8.818-14.019 9.593c-3.24.774-5.239 7.651-5.239 7.651" fill="#000"/><path d="M462.448 254.474l-3.439 9.371s-5.165 4.427-10.824 2.213c-5.66-2.213-10.574-3.313-13.038-5.467-2.465-2.155-5.903-12.979-5.903-12.979s-3.439-11.806-6.884-14.757c-3.446-2.952-12.544-43.615 0-39.638 12.543 3.977 22.136 40.87 22.136 40.87s2.213 2.7 5.408 2.951c3.195.251 9.592-.494 10.825 2.214 1.232 2.708 5.408 9.836 1.719 15.222z" fill="#BE6F72"/><path opacity=".1" d="M456.419 237.237s7.047 4.531 7.017 9.947l-7.017-9.947z" fill="#000"/><path d="M396.63 105.913c18.204 0 32.961-14.757 32.961-32.96 0-18.204-14.757-32.96-32.961-32.96-18.203 0-32.96 14.756-32.96 32.96 0 18.203 14.757 32.96 32.96 32.96z" fill="#BE6F72"/><path d="M375.933 64.106c4-.628 7.504-2.952 11.327-4.287 8.551-3.004 18.011-.945 26.666 1.763 3.32 1.04 6.692 2.214 10.175 2.214 3.483 0 7.179-1.425 8.958-4.428 1.638-2.76 1.32-6.345-.059-9.245-1.38-2.9-3.69-5.231-6.021-7.43-7.674-7.246-17.192-14.02-27.722-13.282-4.235.303-8.286 1.815-12.182 3.49a134.337 134.337 0 00-14.3 7.202c-3.549 2.058-10.123 4.81-12.167 8.574-4.648 8.478 8.094 16.565 15.325 15.429z" fill="#3E373A"/><path opacity=".1" d="M433.059 56.27c-1.779 3.002-5.475 4.426-8.958 4.426-3.483 0-6.855-1.128-10.182-2.169-8.656-2.708-18.108-4.774-26.667-1.763-3.815 1.335-7.327 3.69-11.326 4.28-5.829.914-15.215-4.162-16.233-10.618-1.144 7.46 9.74 13.85 16.233 12.83 3.999-.626 7.511-2.95 11.326-4.279 8.559-3.01 18.011-.944 26.667 1.764 3.327 1.04 6.692 2.213 10.182 2.17 3.49-.045 7.179-1.418 8.958-4.428a8.648 8.648 0 001.033-5.394 7.964 7.964 0 01-1.033 3.18z" fill="#000"/><path d="M700.541 456.154s4.376 5.718-2.022 14.359c-6.397 8.64-11.665 15.93-9.54 21.316 0 0 9.651-16.041 17.502-16.269 7.851-.229 2.686-9.762-5.94-19.406z" fill="#3198AF"/><path opacity=".1" d="M700.541 456.154c.381.552.682 1.156.893 1.793 7.659 9.002 11.747 17.406 4.375 17.613-6.862.199-15.089 12.469-17.059 15.561.063.25.139.496.229.738 0 0 9.651-16.041 17.502-16.27 7.851-.229 2.686-9.791-5.94-19.435z" fill="#000"/><path d="M708.658 463.444c0 2.014-.229 3.645-.502 3.645s-.509-1.631-.509-3.645c0-2.015.28-1.063.56-1.063.281 0 .451-.952.451 1.063z" fill="#FFD037"/><path d="M711.454 465.849c-1.763.96-3.306 1.542-3.438 1.299-.133-.244 1.188-1.225 2.951-2.214 1.764-.988 1.07-.265 1.203 0 .133.266 1.055-.051-.716.915z" fill="#FFD037"/><path d="M677.416 456.154s-4.375 5.718 2.022 14.359c6.398 8.64 11.666 15.93 9.533 21.316 0 0-9.643-16.041-17.502-16.269-7.858-.229-2.656-9.762 5.947-19.406z" fill="#3198AF"/><path opacity=".1" d="M677.416 456.154a7.07 7.07 0 00-.892 1.793c-7.659 9.002-11.747 17.406-4.376 17.613 6.855.199 15.089 12.469 17.06 15.561a5.611 5.611 0 01-.237.738s-9.643-16.041-17.502-16.27c-7.858-.229-2.656-9.791 5.947-19.435z" fill="#000"/><path d="M669.285 463.444c0 2.014.222 3.645.502 3.645s.509-1.631.509-3.645c0-2.015-.288-1.063-.561-1.063-.273 0-.45-.952-.45 1.063z" fill="#FFD037"/><path d="M666.496 465.849c1.764.96 3.306 1.542 3.439 1.299.132-.244-1.188-1.225-2.952-2.214-1.763-.988-1.07-.265-1.203 0-.132.266-1.055-.051.716.915z" fill="#FFD037"/><path opacity=".1" d="M688.979 535.599c25.265 0 45.747-3.141 45.747-7.017 0-3.875-20.482-7.017-45.747-7.017-25.266 0-45.748 3.142-45.748 7.017 0 3.876 20.482 7.017 45.748 7.017z" fill="#3198AF"/><path d="M712.524 484.119l-.221 1.785-.31 2.524-.126 1.055-.31 2.523-.132 1.056-.303 2.516-3.505 28.703c-.31 2.56-4.493 4.56-9.548 4.56h-18.188c-5.054 0-9.231-2-9.548-4.56l-3.505-28.703-.31-2.516-.125-1.056-.31-2.523-.133-1.055-.302-2.524-.222-1.785c-.169-1.476 2.088-2.671 4.951-2.671h37.203c2.856 0 5.121 1.217 4.944 2.671z" fill="#65617D"/><path d="M712.303 485.904l-.303 2.524h-46.043l-.309-2.524h46.655zM711.867 489.483l-.302 2.524h-45.172l-.31-2.524h45.784zM711.432 493.062l-.31 2.523h-44.294l-.302-2.523h44.906z" fill="#9D9CB5"/></g><defs><linearGradient id="paint0_linear" x1="403.345" y1="370.348" x2="403.345" y2="0" gradientUnits="userSpaceOnUse"><stop stop-color="gray" stop-opacity=".25"/><stop offset=".54" stop-color="gray" stop-opacity=".12"/><stop offset="1" stop-color="gray" stop-opacity=".1"/></linearGradient><clipPath id="clip0"><path fill="#fff" d="M0 0h754.715v600H0z"/></clipPath></defs></svg>