<svg width="755" height="600" viewBox="0 0 755 600" fill="none" xmlns="http://www.w3.org/2000/svg">
<g clip-path="url(#clip0)">
<path opacity="0.1" d="M442.614 101.397C394.86 99.7368 349.37 84.3229 305.94 67.4554C262.509 50.5878 219.492 31.8978 172.881 22.9623C142.902 17.2143 108.613 16.4027 84.4631 32.4733C61.213 47.9684 53.7016 74.6421 49.6655 99.4195C46.6255 118.058 44.8399 137.67 53.1703 155.121C58.9478 167.236 69.2115 177.419 76.3023 189.062C100.999 229.438 83.5481 279.229 56.7859 318.653C44.2422 337.151 29.6694 354.808 19.9887 374.48C10.3079 394.151 5.82173 416.722 14.2924 436.807C22.6966 456.729 42.7148 471.664 64.3932 482.178C108.436 503.539 160.315 509.649 210.94 513.109C322.97 520.776 435.59 517.455 547.914 514.135C589.485 512.903 631.234 511.656 672.126 505.229C694.837 501.658 718.279 495.998 734.771 482.318C755.696 464.956 760.883 435.553 746.864 413.786C723.334 377.269 658.321 368.201 641.852 329.005C632.805 307.438 642.102 283.413 655.251 263.402C683.467 220.488 730.757 182.835 733.25 133.782C734.962 100.084 712.221 66.3486 677.07 50.4034C640.228 33.6318 589.124 35.7568 561.956 63.4193C533.961 91.9229 484.775 102.858 442.614 101.397Z" fill="#3198AF"/>
<path d="M321.302 509.494L68.7466 508.262L43.6519 449.402L132.387 442.961L116.922 378.427L292.43 355.679L124.367 297.255L139.212 293.728L409.454 337.815L394.572 438.526L373.299 493.873L321.302 509.494Z" fill="#3198AF"/>
<path d="M72.6204 483.61C72.6204 483.61 88.1155 481.13 97.4126 492.08C97.4126 492.08 90.5947 497.452 75.926 490.014L72.6204 483.61Z" fill="#3198AF"/>
<path d="M70.9971 483.366C70.9971 483.366 61.1098 495.533 65.9796 509.081C65.9796 509.081 74.0371 505.856 74.9152 489.431L70.9971 483.366Z" fill="#3198AF"/>
<path d="M62.1132 463.363C62.1132 463.363 68.3113 451.992 93.1034 467.908C93.1034 467.908 89.7978 475.552 78.8479 474.932C67.8981 474.313 65.0056 469.354 62.1132 463.363Z" fill="#3198AF"/>
<path d="M60.5121 462.544C60.5121 462.544 47.6511 461.068 46.4041 490.509C46.4041 490.509 54.5575 492.198 60.3497 482.887C66.1419 473.575 63.766 468.351 60.5121 462.544Z" fill="#3198AF"/>
<path d="M53.0228 439.058C53.0228 439.058 60.2538 419.017 86.4922 433.273C86.4922 433.273 80.5007 451.66 55.7086 445.875L53.0228 439.058Z" fill="#3198AF"/>
<path d="M44.9653 409.1C44.9653 409.1 58.601 388.853 82.7734 407.625C82.7734 407.625 74.3027 426.632 47.0313 416.302L44.9653 409.1Z" fill="#3198AF"/>
<path d="M42.0729 380.589C42.0729 380.589 57.9812 361.988 81.9175 380.589C81.9175 380.589 66.8356 396.911 42.0729 385.341V380.589Z" fill="#3198AF"/>
<path d="M39.5937 352.897C39.5937 352.897 55.7086 333.477 78.6414 351.864C78.6414 351.864 60.4604 369.012 39.5937 357.443V352.897Z" fill="#3198AF"/>
<path d="M41.0399 328.312C41.0399 328.312 58.0107 303.313 79.4677 320.254C79.4677 320.254 61.2868 341.741 41.0399 333.064V328.312Z" fill="#3198AF"/>
<path d="M44.9653 299.594C44.9653 299.594 62.9397 274.802 83.8064 293.809C83.8064 293.809 62.5265 315.296 44.9653 304.139V299.594Z" fill="#3198AF"/>
<path d="M50.9568 273.924C50.9568 273.924 72.2367 250.622 90.8013 259.905C90.8013 259.905 68.6286 284.652 50.0271 280.107L50.9568 273.924Z" fill="#3198AF"/>
<path d="M58.3944 249.589C58.3944 249.589 82.9505 221.049 97.2355 230.582C97.2355 230.582 79.1431 252.718 56.653 254.931L58.3944 249.589Z" fill="#3198AF"/>
<path d="M69.1303 221.366C69.1303 221.366 90.6242 198.064 106.326 203.849C106.326 203.849 87.9384 228.022 66.2453 228.641L69.1303 221.366Z" fill="#3198AF"/>
<path d="M78.848 194.965C78.848 194.965 102.607 172.652 112.937 176.578C112.937 176.578 95.7893 201.37 77.8149 199.924L78.848 194.965Z" fill="#3198AF"/>
<path d="M88.3516 170.586C88.3516 170.586 108.805 143.927 119.969 145.993C119.969 145.993 107.566 169.76 88.3516 173.294V170.586Z" fill="#3198AF"/>
<path d="M98.6669 137.715C98.6669 137.715 116.745 117.283 126.514 117.327C126.514 117.327 112.244 144.628 97.9217 144.377L98.6669 137.715Z" fill="#3198AF"/>
<path d="M104.776 115.83L122.242 73.2697C122.242 73.2697 123.112 111.742 102.555 123.725L104.776 115.83Z" fill="#3198AF"/>
<path d="M111.867 68.8942C111.867 68.8942 114.76 33.3514 112.9 30.459C112.9 30.459 125.385 60.0103 111.749 84.5959L111.867 68.8942Z" fill="#3198AF"/>
<path d="M52.3439 438.585C52.3439 438.585 34.2368 427.362 22.5122 454.818C22.5122 454.818 38.6271 465.517 54.4764 445.588L52.3439 438.585Z" fill="#3198AF"/>
<path d="M44.3824 407.957C44.3824 407.957 22.1728 397.826 11.4 426.492C11.4 426.492 28.5553 438.298 46.4041 415.202L44.3824 407.957Z" fill="#3198AF"/>
<path d="M41.0399 382.294C41.0399 382.294 25.1316 363.692 1.19534 382.294C1.19534 382.294 16.2772 398.615 41.0399 387.046V382.294Z" fill="#3198AF"/>
<path d="M39.0477 352.897C39.0477 352.897 22.9328 333.477 0 351.864C0 351.864 18.1809 369.012 39.0477 357.443V352.897Z" fill="#3198AF"/>
<path d="M41.0399 329.02C41.0399 329.02 29.7358 301.018 5.16504 313.06C5.16504 313.06 18.4466 337.889 40.0364 333.669L41.0399 329.02Z" fill="#3198AF"/>
<path d="M46.3894 299.454C46.3894 299.454 35.1518 270.965 10.2342 284.173C10.2342 284.173 25.4932 310.286 45.2826 303.852L46.3894 299.454Z" fill="#3198AF"/>
<path d="M53.3548 274.064C53.3548 274.064 48.9276 242.83 28.2675 240.034C28.2675 240.034 32.6504 272.972 50.5731 279.694L53.3548 274.064Z" fill="#3198AF"/>
<path d="M58.9183 249.648C58.9183 249.648 57.1917 212.017 40.1102 210.704C40.1102 210.704 40.6857 239.267 56.9925 254.976L58.9183 249.648Z" fill="#3198AF"/>
<path d="M70.9012 220.311C70.9012 220.311 65.8099 189.018 49.5032 185.196C49.5032 185.196 51.5249 215.5 69.2852 227.992L70.9012 220.311Z" fill="#3198AF"/>
<path d="M80.7812 195.224C80.7812 195.224 80.6114 162.625 70.6503 157.836C70.6503 157.836 64.4744 187.351 77.8961 199.385L80.7812 195.224Z" fill="#3198AF"/>
<path d="M89.1116 170.217C89.1116 170.217 87.717 136.652 77.4017 131.922C77.4017 131.922 73.8747 158.485 87.5695 172.416L89.1116 170.217Z" fill="#3198AF"/>
<path d="M100.106 140.393C100.106 140.393 100.047 113.092 92.6829 106.687C92.6829 106.687 85.3633 136.593 96.2615 145.883L100.106 140.393Z" fill="#3198AF"/>
<path d="M103.913 114.487L96.7485 69.0491C96.7485 69.0491 87.0161 106.282 104.253 122.692L103.913 114.487Z" fill="#3198AF"/>
<path d="M105.308 69.3221C105.308 69.3221 86.9202 38.7747 87.2965 35.3805C87.2965 35.3805 89.2518 67.3963 112.384 83.3415L105.308 69.3221Z" fill="#3198AF"/>
<path d="M107.462 60.2981C107.462 60.2981 90.1077 16.9118 82.2569 13.3996C82.2569 13.3996 107.049 26.0023 108.908 59.0585L107.462 60.2981Z" fill="#3198AF"/>
<path d="M97.8332 144.636L96.6452 144.274C111.292 96.5124 114.944 66.0608 106.938 58.4239L107.787 57.5237C116.28 65.5812 112.834 95.7007 97.8332 144.636Z" fill="#444053"/>
<path d="M57.5016 256.466L55.7455 255.839C57.3024 251.463 58.9773 247.021 60.7334 242.646C76.0219 204.543 89.0378 169.096 97.383 141.884L98.9104 141.146C90.5504 168.41 77.7633 205.214 62.46 243.369C60.7113 247.663 59.0437 252.083 57.5016 256.466Z" fill="#444053"/>
<path d="M94.4537 519.352C94.2176 519.093 70.4806 492.361 53.9303 446.724C44.2329 420.005 38.836 391.918 37.9409 363.508C36.8046 327.994 44.257 288.342 57.022 252.319L58.4092 253.943C29.7506 334.79 41.1358 404.068 56.2398 445.787C72.613 491.01 96.0844 517.448 96.3131 517.714L94.4537 519.352Z" fill="#444053"/>
<path d="M465.392 462.595C465.392 462.595 448.664 483.012 461.946 513.877L328.393 571.799L315.576 574.485L309.673 548.66L313.621 516.068V498.256L465.392 462.595Z" fill="#D5D6DB"/>
<path d="M43.6519 449.402L228.501 415.704L473.435 454.722L321.302 509.494L43.6519 449.402Z" fill="#3198AF"/>
<path d="M43.6519 449.402L228.501 415.704L473.435 454.722L321.302 509.494L43.6519 449.402Z" fill="#3198AF"/>
<path d="M43.6519 449.395C43.6519 449.395 26.3638 482.149 46.2861 512.401L320.402 571.799C320.402 571.799 303.387 545.708 321.28 509.494L43.6519 449.395Z" fill="#3198AF"/>
<path opacity="0.1" d="M43.6519 449.395C43.6519 449.395 26.3638 482.149 46.2861 512.401L320.402 571.799C320.402 571.799 303.387 545.708 321.28 509.494L43.6519 449.395Z" fill="black"/>
<path opacity="0.1" d="M51.8201 460.751C51.8201 460.751 41.9401 484.716 51.8201 500.226V460.751Z" fill="black"/>
<path d="M320.402 571.799L473.435 506.498C473.435 506.498 481.994 508.343 476.46 514.615C470.926 520.886 323.353 578.071 323.353 578.071L46.2861 512.401L320.402 571.799Z" fill="#3198AF"/>
<path opacity="0.1" d="M320.402 571.799L473.435 506.498C473.435 506.498 481.994 508.343 476.46 514.615C470.926 520.886 323.353 578.071 323.353 578.071L46.2861 512.401L320.402 571.799Z" fill="black"/>
<path opacity="0.1" d="M307.858 516.09C307.858 516.09 293.101 533.799 307.858 560.362V516.09Z" fill="black"/>
<path opacity="0.1" d="M379.303 515.791L313.11 537.875L313.344 538.574L379.537 516.491L379.303 515.791Z" fill="black"/>
<path opacity="0.1" d="M392.561 513.593L313.089 543.814L313.352 544.503L392.824 514.283L392.561 513.593Z" fill="black"/>
<path opacity="0.1" d="M404.738 513.487L313.533 550.819L313.813 551.502L405.017 514.17L404.738 513.487Z" fill="black"/>
<path opacity="0.1" d="M417.978 510.291L314.598 556.99L314.901 557.663L418.282 510.963L417.978 510.291Z" fill="black"/>
<path opacity="0.1" d="M429.102 510.306L315.416 559.998L315.711 560.674L429.397 510.982L429.102 510.306Z" fill="black"/>
<path opacity="0.1" d="M453.433 506.174L317.13 565.044L317.423 565.722L453.725 506.851L453.433 506.174Z" fill="black"/>
<path opacity="0.3" d="M112.325 453.003L242.189 425.702L321.302 440.828L214.888 475.139L112.325 453.003Z" fill="white"/>
<path d="M473.435 454.722C473.435 454.722 480.149 457.43 476.209 461.614C472.269 465.798 321.28 509.494 321.28 509.494L473.435 454.722Z" fill="#3198AF"/>
<path d="M538.654 391.628C538.654 391.628 521.934 412.037 535.216 442.909L401.663 500.831L388.846 503.532L382.943 477.707L386.95 445.123V427.289L538.654 391.628Z" fill="#D5D6DB"/>
<path d="M116.922 378.427L301.763 344.737L546.704 383.755L394.572 438.526L116.922 378.427Z" fill="#3A3768"/>
<path d="M116.892 378.427C116.892 378.427 99.5966 411.181 119.519 441.433L393.635 500.831C393.635 500.831 376.627 474.718 394.542 438.519L116.892 378.427Z" fill="#3A3768"/>
<path opacity="0.1" d="M116.892 378.427C116.892 378.427 99.5966 411.181 119.519 441.433L393.635 500.831C393.635 500.831 376.627 474.718 394.542 438.519L307.858 419.755L116.892 378.427Z" fill="black"/>
<path opacity="0.1" d="M125.082 389.783C125.082 389.783 115.21 413.741 125.082 429.259V389.783Z" fill="black"/>
<path d="M393.664 500.831L546.704 435.531C546.704 435.531 555.256 437.375 549.722 443.647C544.188 449.919 396.616 507.103 396.616 507.103L119.548 441.433L393.664 500.831Z" fill="#3A3768"/>
<path opacity="0.1" d="M393.664 500.831L546.704 435.531C546.704 435.531 555.256 437.375 549.722 443.647C544.188 449.919 396.616 507.103 396.616 507.103L119.548 441.433L393.664 500.831Z" fill="black"/>
<path opacity="0.1" d="M381.121 445.123C381.121 445.123 366.363 462.831 381.121 489.395V445.123Z" fill="black"/>
<path opacity="0.1" d="M452.571 444.831L386.379 466.915L386.612 467.615L452.805 445.531L452.571 444.831Z" fill="black"/>
<path opacity="0.1" d="M465.839 442.63L386.367 472.85L386.629 473.54L466.101 443.32L465.839 442.63Z" fill="black"/>
<path opacity="0.1" d="M478.004 442.514L386.799 479.845L387.079 480.528L478.283 443.197L478.004 442.514Z" fill="black"/>
<path opacity="0.1" d="M491.253 439.319L387.873 486.018L388.176 486.691L491.557 439.991L491.253 439.319Z" fill="black"/>
<path opacity="0.1" d="M502.366 439.325L388.68 489.016L388.976 489.692L502.662 440.001L502.366 439.325Z" fill="black"/>
<path opacity="0.1" d="M526.703 435.192L390.4 494.063L390.693 494.74L526.996 435.87L526.703 435.192Z" fill="black"/>
<path opacity="0.45" d="M185.594 382.036L315.458 354.735L394.572 369.861L288.157 404.171L185.594 382.036Z" fill="white"/>
<path d="M546.704 383.755C546.704 383.755 553.411 386.463 549.479 390.639C545.546 394.815 394.572 438.519 394.572 438.519L546.704 383.755Z" fill="#3A3768"/>
<path d="M545.59 310.441C545.59 310.441 528.863 347.09 542.144 377.955L408.591 419.644L395.804 422.352L389.901 396.527L393.849 363.936V346.102L545.59 310.441Z" fill="#D5D6DB"/>
<path d="M123.88 297.248L308.729 263.55L553.67 302.568L401.53 357.339L123.88 297.248Z" fill="#3198AF"/>
<path d="M123.88 297.24C123.88 297.24 106.562 329.994 126.484 360.246L400.6 419.644C400.6 419.644 383.585 393.531 401.5 357.339L123.88 297.24Z" fill="#3198AF"/>
<path opacity="0.1" d="M123.88 297.24C123.88 297.24 106.562 329.994 126.484 360.246L400.6 419.644C400.6 419.644 383.585 393.531 401.5 357.339L123.88 297.24Z" fill="black"/>
<path opacity="0.1" d="M132.048 308.596C132.048 308.596 122.168 332.562 132.048 348.072V308.596Z" fill="black"/>
<path d="M400.63 419.644L553.662 370.577C553.662 370.577 562.221 372.421 556.687 378.693C551.154 384.965 403.581 425.916 403.581 425.916L126.514 360.246L400.63 419.644Z" fill="#3198AF"/>
<path opacity="0.1" d="M400.63 419.644L553.662 370.577C553.662 370.577 562.221 372.421 556.687 378.693C551.154 384.965 403.581 425.916 403.581 425.916L126.514 360.246L400.63 419.644Z" fill="black"/>
<path opacity="0.1" d="M388.086 363.936C388.086 363.936 373.329 381.644 388.086 408.208V363.936Z" fill="black"/>
<path opacity="0.1" d="M459.539 363.643L393.346 385.726L393.579 386.426L459.772 364.343L459.539 363.643Z" fill="black"/>
<path opacity="0.1" d="M472.801 361.445L393.329 391.666L393.592 392.355L473.064 362.135L472.801 361.445Z" fill="black"/>
<path opacity="0.1" d="M484.96 361.333L393.755 398.664L394.035 399.347L485.239 362.016L484.96 361.333Z" fill="black"/>
<path opacity="0.1" d="M498.219 358.131L394.839 404.831L395.142 405.503L498.523 358.803L498.219 358.131Z" fill="black"/>
<path opacity="0.1" d="M509.336 358.144L395.65 407.836L395.946 408.512L509.631 358.82L509.336 358.144Z" fill="black"/>
<path opacity="0.1" d="M533.67 354.017L397.368 412.887L397.66 413.564L533.963 354.694L533.67 354.017Z" fill="black"/>
<path opacity="0.3" d="M192.553 300.849L322.416 273.548L401.53 288.674L295.115 322.984L192.553 300.849Z" fill="white"/>
<path d="M553.662 302.568C553.662 302.568 560.377 305.276 556.437 309.459C552.496 313.643 401.53 357.339 401.53 357.339L553.662 302.568Z" fill="#3198AF"/>
<path d="M229.047 78.5823C229.047 78.5823 201.008 76.8926 204.285 96.564C204.285 96.564 203.628 100.039 206.779 101.618C206.779 101.618 206.83 100.143 209.656 100.652C210.665 100.825 211.69 100.875 212.711 100.799C214.087 100.705 215.394 100.167 216.437 99.2646C216.437 99.2646 224.325 96.0032 227.394 83.1054C227.394 83.1054 229.667 80.2942 229.608 79.571L224.856 81.5928C224.856 81.5928 226.472 85.0091 225.203 87.8499C225.203 87.8499 225.048 81.7182 224.133 81.8584C223.949 81.8584 221.676 83.0464 221.676 83.0464C221.676 83.0464 224.458 89.0009 222.355 93.3248C222.355 93.3248 223.152 85.9905 220.805 83.4743L217.47 85.4223C217.47 85.4223 220.724 91.5687 218.518 96.5862C218.518 96.5862 219.086 88.8903 216.769 85.8945L213.744 88.2557C213.744 88.2557 216.806 94.3135 214.939 98.4751C214.939 98.4751 214.696 89.5174 213.095 88.8386C213.095 88.8386 210.446 91.1702 210.047 92.1295C210.047 92.1295 212.143 96.5566 210.837 98.8514C210.837 98.8514 210.047 92.8821 209.361 92.8526C209.361 92.8526 206.727 96.8075 206.454 99.4933C206.581 96.9894 207.362 94.5625 208.719 92.4541C207.201 92.7414 205.8 93.4673 204.69 94.5423C204.69 94.5423 205.096 91.7458 209.376 91.5023C209.376 91.5023 211.552 88.4992 212.135 88.3221C212.135 88.3221 207.878 87.9605 205.303 89.1042C205.303 89.1042 207.575 86.4701 212.91 87.6285L215.862 85.1936C215.862 85.1936 210.269 84.4557 207.893 85.2747C207.893 85.2747 210.63 82.9431 216.666 84.6402L219.92 82.6996C219.92 82.6996 215.146 81.674 212.305 82.0429C212.305 82.0429 215.301 80.427 220.872 82.1757L223.189 81.1353C223.189 81.1353 219.698 80.4491 218.673 80.3384C217.647 80.2278 217.596 79.9474 217.596 79.9474C219.811 79.5836 222.083 79.8389 224.163 80.6852C224.163 80.6852 229.143 78.8922 229.047 78.5823Z" fill="#3198AF"/>
<path opacity="0.1" d="M623.508 159.437C623.508 159.437 595.47 157.748 598.746 177.419C598.746 177.419 598.089 180.894 601.24 182.473C601.24 182.473 601.291 180.998 604.117 181.507C605.126 181.676 606.152 181.725 607.172 181.654C608.535 181.554 609.829 181.016 610.861 180.12C610.861 180.12 618.756 176.858 621.819 163.96C621.819 163.96 624.091 161.149 624.032 160.426L619.295 162.448C619.295 162.448 620.911 165.864 619.642 168.705C619.642 168.705 619.487 162.573 618.579 162.713C618.395 162.713 616.115 163.901 616.115 163.901C616.115 163.901 618.897 169.856 616.801 174.18C616.801 174.18 617.598 166.845 615.244 164.329L611.909 166.277C611.909 166.277 615.163 172.424 612.957 177.441C612.957 177.441 613.525 169.745 611.208 166.749L608.19 169.111C608.19 169.111 611.245 175.168 609.378 179.33C609.378 179.33 609.135 170.372 607.534 169.694C607.534 169.694 604.892 172.025 604.486 172.984C604.486 172.984 606.582 177.412 605.283 179.706C605.283 179.706 604.486 173.737 603.807 173.708C603.807 173.708 601.173 177.662 600.9 180.348C601.028 177.843 601.812 175.416 603.173 173.309C601.653 173.597 600.25 174.323 599.137 175.397C599.137 175.397 599.55 172.601 603.822 172.357C603.822 172.357 605.999 169.354 606.582 169.17C606.582 169.17 602.332 168.815 599.749 169.959C599.749 169.959 602.022 167.325 607.356 168.483L610.308 166.049C610.308 166.049 604.708 165.311 602.339 166.13C602.339 166.13 605.069 163.798 611.112 165.495L614.359 163.555C614.359 163.555 609.585 162.529 606.744 162.898C606.744 162.898 609.74 161.282 615.311 163.031L617.635 161.99C617.635 161.99 614.137 161.304 613.112 161.193C612.086 161.083 612.035 160.802 612.035 160.802C614.25 160.434 616.523 160.689 618.601 161.54C618.601 161.54 623.597 159.747 623.508 159.437Z" fill="#3198AF"/>
<path opacity="0.1" d="M276.27 200.108C276.27 200.108 264.051 174.777 248.497 187.262C248.497 187.262 245.14 188.384 245.302 191.903C245.302 191.903 246.594 191.232 247.516 193.947C247.86 194.907 248.316 195.823 248.874 196.677C249.628 197.835 250.74 198.715 252.039 199.186C252.039 199.186 258.731 204.484 271.489 200.868C271.489 200.868 275.053 201.481 275.636 201.053L271.563 197.902C271.563 197.902 269.349 200.979 266.265 201.252C266.265 201.252 271.548 198.131 270.98 197.408C270.862 197.26 268.766 195.836 268.766 195.836C268.766 195.836 264.922 201.171 260.126 201.444C260.126 201.444 266.914 198.566 267.962 195.283L264.642 193.32C264.642 193.32 260.856 199.164 255.404 199.68C255.404 199.68 262.399 196.426 263.882 192.944L260.355 191.468C260.355 191.468 256.555 197.09 252.009 197.496C252.009 197.496 259.713 192.914 259.521 191.18C259.521 191.18 256.193 190.014 255.16 190.125C255.16 190.125 252.341 194.102 249.685 194.102C249.685 194.102 254.503 190.494 254.208 189.911C254.208 189.911 249.471 189.542 246.977 190.649C249.225 189.532 251.725 189.023 254.23 189.173C253.237 187.988 251.918 187.119 250.438 186.672C250.438 186.672 253.079 185.668 255.374 189.276C255.374 189.276 259.063 189.712 259.499 190.132C259.499 190.132 257.735 186.251 255.485 184.561C255.485 184.561 258.894 185.248 260.451 190.464L264.029 191.881C264.029 191.881 261.971 186.628 260.074 184.967C260.074 184.967 263.439 186.214 264.907 192.346L268.183 194.235C268.183 194.235 266.759 189.564 265.047 187.269C265.047 187.269 267.918 189.099 269.106 194.81L271.15 196.33C271.15 196.33 270.043 192.944 269.674 191.999C269.305 191.055 269.489 190.863 269.489 190.863C270.893 192.615 271.782 194.722 272.057 196.95C272.057 196.95 276.005 200.33 276.27 200.108Z" fill="#3198AF"/>
<path opacity="0.1" d="M559.447 123.651C559.447 123.651 547.236 98.3201 531.674 110.805C531.674 110.805 528.324 111.926 528.479 115.446C528.479 115.446 529.778 114.782 530.693 117.49C531.037 118.454 531.495 119.373 532.058 120.227C532.81 121.383 533.919 122.261 535.216 122.729C535.216 122.729 541.915 128.026 554.666 124.418C554.666 124.418 558.23 125.023 558.82 124.595L554.769 121.437C554.769 121.437 552.555 124.522 549.479 124.795C549.479 124.795 554.754 121.666 554.186 120.943C554.068 120.795 551.973 119.371 551.973 119.371C551.973 119.371 548.136 124.706 543.332 124.979C543.332 124.979 550.128 122.101 551.176 118.825L547.804 116.877C547.804 116.877 544.026 122.714 538.566 123.238C538.566 123.238 545.561 119.976 547.051 116.494L543.517 115.018C543.517 115.018 539.717 120.648 535.179 121.046C535.179 121.046 542.875 116.464 542.683 114.738C542.683 114.738 539.362 113.564 538.329 113.682C538.329 113.682 535.511 117.652 532.847 117.652C532.847 117.652 537.673 114.044 537.378 113.461C537.378 113.461 532.641 113.092 530.139 114.199C532.386 113.082 534.887 112.573 537.392 112.723C536.402 111.537 535.086 110.668 533.607 110.222C533.607 110.222 536.249 109.218 538.543 112.827C538.543 112.827 542.233 113.269 542.668 113.69C542.668 113.69 540.905 109.801 538.647 108.112C538.647 108.112 542.056 108.805 543.613 114.051L547.199 115.468C547.199 115.468 545.14 110.207 543.244 108.547C543.244 108.547 546.608 109.794 548.069 115.926L551.353 117.814C551.353 117.814 549.921 113.151 548.209 110.849C548.209 110.849 551.087 112.679 552.268 118.39L554.312 119.91C554.312 119.91 553.212 116.523 552.836 115.579C552.46 114.634 552.651 114.45 552.651 114.45C554.051 116.203 554.937 118.31 555.212 120.537C555.212 120.537 559.218 123.887 559.447 123.651Z" fill="#3198AF"/>
<path opacity="0.1" d="M598.473 248.947C598.473 248.947 586.261 223.609 570.677 236.094C570.677 236.094 567.327 237.215 567.482 240.735C567.482 240.735 568.781 240.071 569.696 242.779C570.037 243.742 570.493 244.661 571.054 245.516C571.806 246.672 572.915 247.55 574.212 248.018C574.212 248.018 580.911 253.323 593.669 249.707C593.669 249.707 597.226 250.32 597.816 249.884L593.743 246.734C593.743 246.734 591.529 249.818 588.445 250.091C588.445 250.091 593.721 246.962 593.153 246.239C593.035 246.092 590.939 244.668 590.939 244.668C590.939 244.668 587.102 250.002 582.299 250.283C582.299 250.283 589.094 247.398 590.142 244.122L586.814 242.159C586.814 242.159 583.037 248.003 577.576 248.519C577.576 248.519 584.571 245.258 586.062 241.775L582.527 240.3C582.527 240.3 578.727 245.922 574.19 246.328C574.19 246.328 581.893 241.746 581.701 240.012C581.701 240.012 578.373 238.839 577.34 238.957C577.34 238.957 574.522 242.926 571.858 242.926C571.858 242.926 576.684 239.318 576.388 238.735C576.388 238.735 571.651 238.366 569.15 239.473C571.4 238.357 573.903 237.848 576.411 237.997C575.419 236.81 574.1 235.94 572.618 235.496C572.618 235.496 575.259 234.485 577.554 238.101C577.554 238.101 581.244 238.536 581.679 238.957C581.679 238.957 579.915 235.076 577.665 233.378C577.665 233.378 581.074 234.072 582.631 239.318L586.209 240.735C586.209 240.735 584.151 235.474 582.254 233.821C582.254 233.821 585.619 235.061 587.08 241.2L590.364 243.081C590.364 243.081 588.932 238.418 587.22 236.116C587.22 236.116 590.098 237.946 591.286 243.664L593.33 245.14C593.33 245.14 592.223 241.753 591.854 240.809C591.485 239.864 591.67 239.68 591.67 239.68C593.073 241.431 593.959 243.539 594.23 245.767C594.23 245.767 598.244 249.169 598.473 248.947Z" fill="#3198AF"/>
<path opacity="0.1" d="M149.011 578.602C158.38 578.602 165.975 577.753 165.975 576.706C165.975 575.658 158.38 574.809 149.011 574.809C139.643 574.809 132.048 575.658 132.048 576.706C132.048 577.753 139.643 578.602 149.011 578.602Z" fill="#3198AF"/>
<path opacity="0.1" d="M37.8081 546.372C47.1767 546.372 54.7715 545.523 54.7715 544.476C54.7715 543.429 47.1767 542.58 37.8081 542.58C28.4394 542.58 20.8446 543.429 20.8446 544.476C20.8446 545.523 28.4394 546.372 37.8081 546.372Z" fill="#3198AF"/>
<path opacity="0.1" d="M233.777 600.007C243.146 600.007 250.74 599.158 250.74 598.111C250.74 597.064 243.146 596.215 233.777 596.215C224.408 596.215 216.813 597.064 216.813 598.111C216.813 599.158 224.408 600.007 233.777 600.007Z" fill="#3198AF"/>
<path opacity="0.1" d="M668.156 553.382C677.525 553.382 685.12 552.533 685.12 551.486C685.12 550.438 677.525 549.589 668.156 549.589C658.788 549.589 651.193 550.438 651.193 551.486C651.193 552.533 658.788 553.382 668.156 553.382Z" fill="#3198AF"/>
<path opacity="0.1" d="M526.996 544.181C536.365 544.181 543.959 543.332 543.959 542.284C543.959 541.237 536.365 540.388 526.996 540.388C517.627 540.388 510.032 541.237 510.032 542.284C510.032 543.332 517.627 544.181 526.996 544.181Z" fill="#3198AF"/>
<path opacity="0.1" d="M435.678 589.058C446.758 589.058 455.741 587.515 455.741 585.612C455.741 583.709 446.758 582.166 435.678 582.166C424.598 582.166 415.616 583.709 415.616 585.612C415.616 587.515 424.598 589.058 435.678 589.058Z" fill="#3198AF"/>
<path d="M444.628 550.977C444.628 550.977 416.693 565.409 431.125 582.409C431.125 582.409 432.483 586.099 436.409 585.84C436.409 585.84 435.626 584.409 438.622 583.265C439.688 582.853 440.701 582.316 441.64 581.664C442.909 580.787 443.857 579.52 444.341 578.056C444.341 578.056 450.052 570.412 445.624 556.267C445.624 556.267 446.2 552.268 445.698 551.618L442.304 556.274C442.304 556.274 445.809 558.628 446.215 562.089C446.215 562.089 442.525 556.282 441.788 556.924C441.625 557.056 440.105 559.469 440.105 559.469C440.105 559.469 446.185 563.594 446.635 568.951C446.635 568.951 443.212 561.447 439.515 560.377L437.397 564.155C437.397 564.155 444.038 568.198 444.776 574.278C444.776 574.278 440.917 566.567 436.977 565.011L435.42 569.002C435.42 569.002 441.824 573.075 442.415 578.137C442.415 578.137 437.058 569.674 435.132 569.94C435.132 569.94 433.922 573.688 434.084 574.846C434.084 574.846 438.607 577.872 438.689 580.845C438.689 580.845 434.512 575.569 433.87 575.916C433.87 575.916 433.605 581.221 434.889 583.981C434.889 583.981 432.675 580.041 433.037 575.916C431.743 577.061 430.811 578.558 430.358 580.225C430.358 580.225 429.155 577.311 433.118 574.625C433.118 574.625 433.494 570.5 433.951 569.991C433.951 569.991 429.664 572.087 427.842 574.654C427.842 574.654 428.513 570.825 434.328 568.921L435.804 564.878C435.804 564.878 429.989 567.342 428.196 569.512C428.196 569.512 429.487 565.712 436.261 563.889L438.268 560.2C438.268 560.2 433.103 561.941 430.579 563.889C430.579 563.889 432.535 560.62 438.888 559.115L440.518 556.791C440.518 556.791 436.77 558.126 435.722 558.606C434.675 559.086 434.468 558.849 434.468 558.849C436.383 557.229 438.71 556.172 441.19 555.795C441.19 555.795 444.887 551.227 444.628 550.977Z" fill="#3198AF"/>
<path d="M527.542 278.388C522.716 265.276 496.153 264.044 484.628 267.386C476.438 269.77 459.172 272.456 449.948 273.806L449.351 273.238C450.546 272.884 450.576 272.013 450.428 270.722C450.342 269.02 450.367 267.314 450.502 265.616C456.154 267.372 461.186 263.218 461.186 263.218C467.827 260.266 466.041 247.634 467.31 244.181C468.262 241.598 469.288 226.383 469.745 218.798H469.841L469.893 216.253C469.959 215.153 469.989 214.511 469.989 214.511C469.989 214.511 470.638 195.961 471.907 192.206C473.088 188.753 474.047 171.354 474.195 168.594C474.195 168.358 474.195 168.233 474.195 168.233L474.099 166.624C474.165 165.451 474.195 164.145 474.187 162.772C474.187 156.464 473.53 148.517 473.449 147.233C473.449 147.049 473.449 146.827 473.449 146.562C473.501 143.868 473.161 130.38 461.688 125.282C457.46 123.393 452.376 121.142 447.454 118.951C446.185 107.994 443.285 97.0953 443.536 86.0569C443.536 84.3967 443.684 82.7365 443.846 81.0837C443.846 81.5633 443.795 82.0503 443.787 82.5594C443.787 83.6293 443.787 84.7066 443.787 85.7765C444.223 71.9711 449.439 58.0919 448.952 44.5816C448.908 45.9024 448.812 47.2306 448.687 48.5587C448.941 43.989 448.463 39.408 447.27 34.9894C446.827 33.4325 446.23 31.824 444.953 30.7836C443.746 29.9457 442.363 29.3978 440.91 29.1825C437.418 28.2887 433.871 27.6281 430.292 27.205C429.748 25.5402 428.941 23.9733 427.901 22.5638C420.419 12.2928 409.336 2.64155 396.232 0.427961C389.658 -0.678832 382.095 0.243495 377.623 4.94368C377.156 5.35658 376.717 5.80029 376.31 6.27183C373.904 9.14211 372.871 12.9126 370.407 15.7755C370.244 15.9673 370.06 16.1444 369.883 16.3289C365.057 20.6454 357.538 21.5456 352.174 25.4194C351.229 26.1148 350.343 26.8872 349.525 27.7289C347.364 29.8708 345.426 32.2269 343.74 34.7607C341.328 38.1549 338.848 41.6892 338.081 45.7401C336.539 53.8566 342.066 61.5525 343.091 69.7206C345.379 87.9974 325.154 104.216 328.983 122.249C330.005 126.679 332.262 130.729 335.491 133.929C327.603 141.072 320.889 148 320.889 148V148.414H319.642L319.767 149.889H319.642L320.328 157.895L319.642 169.553C319.642 169.553 319.642 169.679 319.642 169.915V169.974V170.291C319.642 170.291 319.642 170.417 319.642 170.653H319.686C319.915 174.925 320.822 190.287 321.9 193.526C323.169 197.282 323.811 215.832 323.811 215.832C323.811 215.832 325.213 242.048 326.497 245.516C327.781 248.984 325.958 261.58 332.621 264.553C334.57 266.048 336.878 267.005 339.313 267.327C338.974 270.087 339.188 272.087 340.287 272.714C340.758 272.99 341.291 273.143 341.837 273.157C341.385 273.827 340.983 274.53 340.634 275.259C337.989 274.983 335.391 274.371 332.901 273.437C325.744 270.486 301.992 263.845 295.093 268.515C288.194 273.186 271.592 277.421 279.259 296.222C286.925 315.023 290.496 315.495 290.496 315.495C292.856 317.208 294.926 319.288 296.628 321.656C298.93 325.117 320.38 333.034 325.744 333.034C328.024 332.999 330.304 333.112 332.569 333.374C332.569 333.374 326.748 338.479 327.522 341.446C328.297 344.412 325.751 368.156 325.751 368.156C325.751 368.156 331.654 374.103 334.178 366.304L334.266 366.422C334.739 367.064 337.292 369.964 342.095 366.304C344.061 364.813 346.149 363.49 348.337 362.349L371.595 359.058C374.02 358.907 376.451 358.89 378.877 359.007C382.567 359.309 386.19 357.125 388.47 355.436C393.288 357.265 398.704 359.265 401.279 359.996C406.503 361.471 430.513 367.913 436.128 365.898C437.295 365.434 438.333 364.695 439.153 363.744L444.51 363.914L442.002 364.415C442.002 364.415 446.886 364.497 453.527 364.585L453.247 364.747L461.577 364.674C473.767 364.784 487.461 364.821 489.262 364.415C492.08 363.788 506.727 364.231 511.043 364.415H512.246C512.246 364.415 528.339 361.206 521.698 344.877C516.592 332.333 500.898 328.688 493.932 327.685C495.895 327.293 497.585 326.991 498.706 326.814C503.569 326.076 513.013 321.649 513.781 320.136C514.548 318.624 522.465 314.233 524.509 311.732C526.553 309.231 532.39 291.5 527.542 278.388ZM394.247 315.082L393.458 315.34L392.926 315.517L391.908 316.521C391.096 315.975 390.226 315.399 389.318 314.809C390.919 314.905 392.565 315.001 394.247 315.082Z" fill="url(#paint0_linear)"/>
<path d="M441.293 237.282C441.293 237.282 452.582 266.796 459.002 263.845C465.421 260.893 463.68 248.35 464.905 244.911C466.13 241.473 467.487 215.397 467.487 215.397C467.487 215.397 468.107 196.95 469.332 193.217C470.468 189.786 471.391 172.483 471.546 169.76C471.546 169.524 471.546 169.398 471.546 169.398L470.328 148L463.436 146.281L447.454 152.184L445.241 164.824L444.377 169.76L444.009 171.863L441.293 237.282Z" fill="#BE6F72"/>
<path opacity="0.1" d="M445.012 232.338C445.012 232.338 455.785 241.155 459.031 241.93C462.278 242.705 464.27 249.582 464.27 249.582" fill="black"/>
<path d="M353.008 238.573C353.008 238.573 341.719 268.087 335.299 265.136C328.88 262.185 330.621 249.641 329.396 246.202C328.172 242.764 326.814 216.688 326.814 216.688C326.814 216.688 326.194 198.241 324.969 194.508C323.833 191.077 322.911 173.774 322.756 171.051C322.756 170.815 322.756 170.69 322.756 170.69L323.981 149.292L330.872 147.572L346.854 153.475L349.068 166.115L349.931 171.051L350.3 173.154L353.008 238.573Z" fill="#BE6F72"/>
<path d="M426.521 80.6262H401.323V119.903H426.521V80.6262Z" fill="#3E373A"/>
<path opacity="0.1" d="M426.521 80.6262H401.323V119.903H426.521V80.6262Z" fill="black"/>
<path d="M348.581 267.969C348.581 267.969 339.97 277.436 343.165 279.155C346.36 280.875 367.027 313.097 367.027 313.097C367.027 313.097 434.911 321.457 447.713 308.913C460.515 296.37 460.256 273.961 460.256 273.961C460.256 273.961 449.97 276.174 448.849 274.972C447.727 273.769 441.566 267.969 441.566 267.969C441.566 267.969 354.484 262.686 348.581 267.969Z" fill="#4B4B5B"/>
<path opacity="0.02" d="M348.581 267.969C348.581 267.969 339.97 277.436 343.165 279.155C346.36 280.875 367.027 313.097 367.027 313.097C367.027 313.097 434.911 321.457 447.713 308.913C460.515 296.37 460.256 273.961 460.256 273.961C460.256 273.961 449.97 276.174 448.849 274.972C447.727 273.769 441.566 267.969 441.566 267.969C441.566 267.969 354.484 262.686 348.581 267.969Z" fill="black"/>
<path d="M470.786 148.31L448.65 166.019L441.957 166.506L439.5 166.683L398.232 169.708L355.436 166.58L349.068 166.115L340.951 165.525L323.981 149.292C323.981 149.292 335.993 136.423 346.515 127.739C350.662 124.308 354.58 121.533 357.435 120.441L357.922 120.272C359.718 119.571 361.322 118.453 362.6 117.01C370.909 108.444 378.59 87.3039 378.59 87.3039C378.59 87.3039 415.239 68.3703 410.812 93.2068C406.385 118.043 427.289 111.904 427.289 111.904L434.18 115.047L436.903 116.294L443.846 119.475L459.511 126.661C471.804 132.321 470.786 148.31 470.786 148.31Z" fill="#BE6F72"/>
<path opacity="0.1" d="M396.512 107.529C414.716 107.529 429.473 92.7718 429.473 74.5683C429.473 56.3649 414.716 41.608 396.512 41.608C378.309 41.608 363.552 56.3649 363.552 74.5683C363.552 92.7718 378.309 107.529 396.512 107.529Z" fill="black"/>
<path opacity="0.1" d="M470.837 171.789H322.756C322.756 171.553 322.756 171.428 322.756 171.428L323.981 150.03C323.981 150.03 335.993 137.161 346.515 128.477L439.485 124.787L443.809 120.227L459.474 127.414C471.774 133.066 470.786 149.056 470.786 149.056C470.786 149.056 472.468 167.583 470.837 171.789Z" fill="black"/>
<path d="M470.837 171.051H322.756C322.756 170.815 322.756 170.69 322.756 170.69L323.981 149.292C323.981 149.292 335.993 136.423 346.515 127.739L439.485 124.049L443.809 119.489L459.474 126.676C471.774 132.328 470.786 148.318 470.786 148.318C470.786 148.318 472.468 166.845 470.837 171.051Z" fill="#E7C7CA"/>
<path opacity="0.1" d="M372.775 111.048C372.775 111.048 396.136 140.814 427.252 110.436C458.367 80.0581 430.698 178.194 430.698 178.194L363.552 186.163L372.775 111.048Z" fill="black"/>
<path d="M372.775 112.524C372.775 112.524 396.136 142.289 427.252 111.912C458.367 81.5338 430.698 179.669 430.698 179.669L363.552 187.638L372.775 112.524Z" fill="#E7C7CA"/>
<path opacity="0.1" d="M436.866 117.748L439.338 155.445L441.987 167.989L444.009 177.581C444.009 177.581 449.174 251.368 447.698 255.057C446.222 258.746 448.436 261.698 448.746 263.66C449.056 265.623 448.436 270.552 448.679 272.766C448.923 274.979 448.679 275.96 443.027 275.171C437.375 274.381 429.495 273.009 429.495 273.009C429.495 273.009 409.573 274.485 402.688 272.028C395.804 269.571 382.766 269.563 382.766 269.563C382.766 269.563 363.087 270.058 356.697 269.32C350.307 268.582 346.854 277.193 342.678 274.728C338.502 272.264 347.592 248.416 350.544 241.524C353.495 234.633 346.611 217.175 346.611 217.175L355.465 168.055L357.435 156.921V121.917L357.922 121.747C359.718 121.047 361.322 119.929 362.6 118.486L364.814 153.711L434.173 156.176V116.531" fill="black"/>
<path d="M436.866 116.272L439.338 153.97L441.987 166.513L444.009 176.106C444.009 176.106 449.174 249.892 447.698 253.581C446.222 257.27 448.436 260.222 448.746 262.185C449.056 264.147 448.436 269.076 448.679 271.29C448.923 273.503 448.679 274.485 443.027 273.695C437.375 272.906 429.495 271.533 429.495 271.533C429.495 271.533 409.573 273.009 402.688 270.552C395.804 268.095 382.766 268.087 382.766 268.087C382.766 268.087 363.087 268.582 356.697 267.844C350.307 267.106 346.854 275.717 342.678 273.253C338.502 270.788 347.592 246.94 350.544 240.049C353.495 233.157 346.611 215.699 346.611 215.699L355.465 166.58L357.435 155.445V120.441L357.922 120.272C359.718 119.571 361.322 118.453 362.6 117.01L364.814 152.236L434.173 154.7V115.055" fill="#E7C7CA"/>
<path opacity="0.1" d="M444.842 37.6015C444.422 36.0593 443.839 34.4582 442.629 33.4252C441.473 32.5954 440.139 32.0494 438.733 31.8314C435.367 30.9464 431.946 30.2906 428.491 29.8687C427.998 28.2302 427.251 26.6792 426.278 25.2718C419.047 15.0598 408.348 5.43067 395.76 3.25397C389.171 2.11029 381.534 3.13591 377.313 8.33046C374.996 11.186 374 14.9712 371.661 17.7751C367.153 23.2205 359.014 23.892 353.333 28.1052C350.3 30.3188 348.101 33.5285 345.954 36.6422C343.63 40.0143 341.239 43.5265 340.501 47.5552C339.026 55.6053 344.346 63.2791 345.327 71.4029C347.541 89.5765 328.061 105.699 331.743 123.629C333.89 134.084 343.549 141.448 353.539 145.182C357.059 146.503 361.08 147.816 362.726 151.195C363.464 152.671 363.589 154.376 364.283 155.866C366.614 160.839 374.281 161.031 378.398 157.408C382.515 153.785 383.814 147.927 384.301 142.459C386.278 118.582 376.716 94.9924 377.83 71.0561C378.162 63.8177 380.198 55.6053 386.684 52.3292C395.413 47.902 405.913 55.2806 415.52 53.8713C420.066 64.9329 421.031 77.1411 418.279 88.7796C416.752 95.1473 414.11 101.323 413.919 107.89C413.631 117.888 419.025 127.023 423.688 135.863C424.688 137.516 425.358 139.348 425.658 141.256C425.731 143.193 425.371 145.122 424.603 146.901C421.969 153.992 417.423 160.574 416.907 168.122C416.756 169.003 416.954 169.908 417.46 170.645C417.98 171.137 418.651 171.439 419.364 171.501C427.333 172.866 434.225 165.805 438.113 158.714C442.449 150.882 444.975 142.179 445.506 133.243C446.311 118.22 440.924 103.441 441.256 88.4033C441.64 71.307 449.366 54.0927 444.842 37.6015Z" fill="black"/>
<path d="M445.58 36.8636C445.16 35.3215 444.577 33.7203 443.367 32.6873C442.211 31.8576 440.876 31.3116 439.471 31.0935C436.105 30.2085 432.683 29.5528 429.229 29.1308C428.736 27.4924 427.989 25.9413 427.016 24.5339C419.785 14.3219 409.086 4.69281 396.498 2.51611C389.909 1.37243 382.272 2.39805 378.051 7.5926C375.734 10.4481 374.738 14.2334 372.399 17.0372C367.891 22.4827 359.752 23.1541 354.071 27.3673C351.038 29.5809 348.839 32.7906 346.692 35.9044C344.368 39.2764 341.977 42.7886 341.239 46.8174C339.763 54.8674 345.083 62.5412 346.065 70.6651C348.278 88.8386 328.799 104.961 332.481 122.891C334.628 133.346 344.286 140.71 354.277 144.444C357.797 145.765 361.818 147.078 363.464 150.457C364.201 151.933 364.327 153.638 365.02 155.128C367.352 160.101 375.018 160.293 379.136 156.67C383.253 153.047 384.552 147.189 385.039 141.721C387.016 117.844 377.453 94.2545 378.568 70.3183C378.9 63.0798 380.936 54.8674 387.422 51.5913C396.151 47.1642 406.651 54.5428 416.258 53.1335C420.804 64.195 421.769 76.4032 419.017 88.0417C417.49 94.4095 414.848 100.585 414.656 107.152C414.369 117.15 419.762 126.285 424.426 135.125C425.426 136.778 426.095 138.61 426.396 140.518C426.469 142.455 426.109 144.384 425.341 146.163C422.707 153.254 418.161 159.836 417.645 167.384C417.493 168.265 417.692 169.171 418.198 169.908C418.718 170.399 419.389 170.701 420.102 170.763C428.071 172.129 434.962 165.067 438.851 157.976C443.186 150.145 445.713 141.441 446.244 132.505C447.049 117.482 441.662 102.703 441.994 87.6654C442.378 70.5691 450.103 53.3548 445.58 36.8636Z" fill="#3E373A"/>
<path d="M429.281 363.567L458.552 364.504L454.353 342.796L431.93 344.928L429.281 363.567Z" fill="#C3C7D9"/>
<path d="M519.979 312.116C518.009 314.573 510.387 319 509.649 320.476C508.911 321.951 499.813 326.379 495.135 327.116C490.457 327.854 475.707 331.057 472.999 332.776C471.059 334.015 455.482 337.941 445.248 340.118C442.476 340.773 439.671 341.278 436.844 341.63C432.417 341.874 383.969 325.397 383.969 325.397L393.31 315.805L393.827 315.628C396.468 314.735 408.672 310.61 415.446 308.648C423.075 306.434 431.93 297.336 431.93 297.336C431.93 297.336 444.96 292.909 446.687 292.415C448.414 291.92 442.26 275.2 442.26 275.2C442.26 275.2 470.542 271.275 481.61 267.947C492.678 264.62 518.26 265.852 522.93 278.89C527.601 291.928 521.978 309.659 519.979 312.116Z" fill="#4B4B5B"/>
<path d="M391.096 353.679C391.096 353.679 385.444 359.582 379.785 359.095C374.126 358.608 354.336 360.571 354.336 360.571C350.75 362.002 347.392 363.948 344.368 366.349C339.741 369.994 337.284 367.086 336.827 366.467L336.746 366.349C334.281 374.104 328.629 368.193 328.629 368.193C328.629 368.193 331.086 344.582 330.334 341.63C329.581 338.679 335.196 333.61 335.196 333.61L341.837 331.92L358.66 327.611L382.766 335.971L391.096 353.679Z" fill="#E7C7CA"/>
<path opacity="0.1" d="M341.807 331.92L336.827 366.467L336.746 366.349C334.281 374.104 328.629 368.193 328.629 368.193C328.629 368.193 331.086 344.582 330.334 341.63C329.581 338.679 335.196 333.61 335.196 333.61L341.807 331.92Z" fill="black"/>
<path opacity="0.1" d="M376.62 233.651C376.62 233.651 389.65 238.079 400.969 233.651H376.62Z" fill="black"/>
<path opacity="0.1" d="M421.105 242.019C421.105 242.019 426.514 244.719 430.698 242.019H421.105Z" fill="black"/>
<path opacity="0.1" d="M421.105 248.423C421.105 248.423 430.203 249.641 431.93 247.184L421.105 248.423Z" fill="black"/>
<path opacity="0.1" d="M418.154 262.185C418.154 262.185 435.243 259.971 439.485 257.02L418.154 262.185Z" fill="black"/>
<path opacity="0.1" d="M366.009 257.02C366.009 257.02 375.601 262.428 382.736 262.185L366.009 257.02Z" fill="black"/>
<path opacity="0.1" d="M445.241 340.118C442.469 340.773 439.663 341.278 436.837 341.63C432.409 341.874 383.961 325.397 383.961 325.397L393.303 315.805L393.819 315.628C395.295 316.668 396.505 317.561 397.368 318.24C401.434 321.442 405.359 317.259 406.835 317.259C408.311 317.259 421.098 327.832 421.098 327.832C421.098 327.832 432.904 330.54 434.874 332.997C436.844 335.454 443.728 334.967 444.953 336.687C445.322 337.218 445.366 338.524 445.241 340.118Z" fill="black"/>
<path d="M354.336 276.204C354.336 276.204 342.398 276.89 335.513 273.99C328.629 271.091 305.755 264.398 299.115 269.098C292.474 273.799 276.484 277.953 283.863 296.65C291.242 315.348 294.687 315.835 294.687 315.835C296.97 317.547 298.963 319.614 300.59 321.959C302.804 325.405 323.464 333.27 328.629 333.27C333.794 333.27 342.892 333.27 355.679 342.125C368.466 350.979 380.029 351.968 380.029 351.968C380.029 351.968 396.261 358.608 401.316 360.084C406.37 361.56 429.465 367.95 434.881 365.987C440.297 364.024 443.736 351.717 443.736 351.717C443.736 351.717 446.193 340.649 444.96 338.93C443.728 337.21 436.844 337.697 434.881 335.24C432.919 332.783 421.105 330.075 421.105 330.075C421.105 330.075 408.348 319.494 406.872 319.494C405.396 319.494 401.471 323.671 397.405 320.476C389.306 314.477 380.798 309.053 371.942 304.243C362.6 299.321 354.336 276.204 354.336 276.204Z" fill="#4B4B5B"/>
<path opacity="0.1" d="M330.333 283.339C332.459 282.905 334.656 282.967 336.754 283.521C338.852 284.076 340.793 285.107 342.427 286.534C348.33 291.456 368.193 301.336 368.193 301.336" fill="black"/>
<path opacity="0.1" d="M477.921 283.029C477.921 283.029 451.601 287.014 446.687 292.422L477.921 283.029Z" fill="black"/>
<path d="M508.173 364.504H507.015C502.853 364.356 488.753 363.914 486.037 364.504C482.842 365.242 440.533 364.504 440.533 364.504L448.805 362.785C448.805 362.785 445.735 352.027 447.683 351.134C447.683 351.134 436.615 343.844 444.96 338.922C453.306 334.001 462.3 336.074 462.3 336.074L483.248 328.976L487.269 327.611C487.269 327.611 510.881 328.843 517.271 345.076C523.661 361.309 508.173 364.504 508.173 364.504Z" fill="#E7C7CA"/>
<path opacity="0.1" d="M508.173 364.504H507.015C513.884 358.837 529.423 341.586 483.248 329.013L487.269 327.648C487.269 327.648 510.881 328.88 517.271 345.113C523.661 361.346 508.173 364.504 508.173 364.504Z" fill="black"/>
<path d="M464.765 345.379C465.478 345.379 466.056 344.8 466.056 344.087C466.056 343.374 465.478 342.796 464.765 342.796C464.052 342.796 463.473 343.374 463.473 344.087C463.473 344.8 464.052 345.379 464.765 345.379Z" fill="#4B4B5B"/>
<path d="M457.261 347.511C457.974 347.511 458.552 346.933 458.552 346.22C458.552 345.507 457.974 344.928 457.261 344.928C456.547 344.928 455.969 345.507 455.969 346.22C455.969 346.933 456.547 347.511 457.261 347.511Z" fill="#4B4B5B"/>
<g opacity="0.1">
<path opacity="0.1" d="M420.699 73.3509C420.986 65.235 419.542 57.1511 416.464 49.636C406.872 51.0674 396.365 43.6667 387.628 48.0939C381.165 51.37 379.136 59.5824 378.774 66.8208C378.686 68.7319 378.671 70.6429 378.708 72.554C378.708 71.8752 378.708 71.1889 378.774 70.5101C379.114 63.2717 381.143 55.0593 387.628 51.7832C396.365 47.356 406.857 54.7346 416.464 53.3253C419.071 59.6909 420.505 66.4751 420.699 73.3509Z" fill="black"/>
<path opacity="0.1" d="M346.367 72.0006C346.494 70.3928 346.461 68.7765 346.271 67.175C345.489 60.6818 341.94 54.4764 341.298 48.1455C340.472 55.7824 345.334 63.1167 346.271 70.8643C346.367 71.2627 346.367 71.6169 346.367 72.0006Z" fill="black"/>
<path opacity="0.1" d="M385.245 138.216C384.788 143.691 383.497 149.543 379.342 153.173C375.188 156.803 367.537 156.604 365.227 151.631C364.489 150.155 364.379 148.436 363.663 146.96C362.025 143.581 357.996 142.267 354.476 140.946C344.478 137.205 334.835 129.878 332.687 119.393C332.496 118.444 332.365 117.482 332.296 116.516C332.115 118.712 332.246 120.923 332.687 123.083C334.835 133.538 344.493 140.895 354.476 144.636C357.996 145.957 362.025 147.27 363.663 150.649C364.401 152.125 364.526 153.83 365.227 155.32C367.551 160.293 375.218 160.485 379.342 156.862C383.467 153.239 384.751 147.381 385.245 141.906C385.47 139.024 385.546 136.133 385.474 133.243C385.474 134.918 385.378 136.571 385.245 138.216Z" fill="black"/>
<path opacity="0.1" d="M442.238 84.1679C442.238 85.2378 442.238 86.3004 442.238 87.3629C442.651 73.6387 447.683 59.8406 447.189 46.4042C446.805 58.8298 442.518 71.5357 442.238 84.1679Z" fill="black"/>
<path opacity="0.1" d="M426.403 139.685C426.585 138.809 426.642 137.912 426.573 137.021C426.276 135.111 425.606 133.279 424.603 131.627C420.338 123.511 415.475 115.202 414.9 106.193C414.9 106.577 414.848 106.931 414.841 107.344C414.546 117.335 419.939 126.477 424.603 135.317C425.395 136.686 426.001 138.155 426.403 139.685Z" fill="black"/>
<path opacity="0.1" d="M446.48 129.008C445.93 137.947 443.386 146.65 439.035 154.479C435.139 161.57 428.255 168.631 420.279 167.266C419.564 167.204 418.892 166.9 418.375 166.403C418.225 166.234 418.108 166.039 418.028 165.827C417.94 166.403 417.866 166.986 417.822 167.576C417.669 168.455 417.868 169.358 418.375 170.092C418.892 170.589 419.564 170.894 420.279 170.955C428.255 172.32 435.139 165.259 439.035 158.168C443.386 150.339 445.93 141.636 446.48 132.697C446.569 130.971 446.576 129.251 446.525 127.532C446.51 128.026 446.51 128.513 446.48 129.008Z" fill="black"/>
</g>
<path opacity="0.1" d="M447.683 351.134C447.683 351.134 466.358 358.97 478.673 341.63" stroke="black" stroke-miterlimit="10"/>
<path opacity="0.1" d="M451.358 364.829C451.358 364.829 466.609 354.912 486.037 364.504" stroke="black" stroke-miterlimit="10"/>
<path opacity="0.1" d="M349.267 362.578C349.267 362.578 355.672 348.131 372.775 359.147" stroke="black" stroke-miterlimit="10"/>
<path opacity="0.1" d="M328.504 148.923L341.564 137.117C341.564 137.117 392.203 133.797 394.299 151.011C394.299 151.011 412.251 130.602 450.007 135.147L465.982 147.868L421.828 167.244L378.922 182.127L347.319 167.982L328.504 148.923Z" fill="black"/>
<path d="M328.504 149.661L341.564 137.855C341.564 137.855 392.203 134.534 394.299 151.749C394.299 151.749 412.251 131.339 450.007 135.885L465.982 148.605L421.828 167.982L378.922 182.864L347.319 168.72L328.504 149.661Z" fill="#D5D6DB"/>
<path opacity="0.1" d="M322.726 151.136L328.504 220.252L389.746 223.329L387.09 154.508L387.038 153.35L322.726 151.136Z" fill="black"/>
<path d="M322.726 149.661L328.504 218.776L389.746 221.853L387.09 153.033L387.038 151.874L322.726 149.661Z" fill="#3198AF"/>
<path opacity="0.1" d="M468.786 149.661L405.61 159.135V228.56L467.347 219.639L468.786 149.661Z" fill="black"/>
<path d="M468.786 148.185L405.61 157.659V227.084L467.347 218.164L468.786 148.185Z" fill="#3198AF"/>
<path opacity="0.3" d="M453.889 165.126L419.762 168.919L420.508 180.548L453.866 176.902L453.889 165.126Z" fill="white"/>
<path d="M331.824 255.787L335.299 265.136C335.299 265.136 340.464 269.563 346.116 267.35C351.768 265.136 356.697 264.037 359.154 261.882C361.612 259.728 365.057 248.903 365.057 248.903C365.057 248.903 368.503 237.097 371.942 234.146C375.38 231.194 384.485 190.531 371.942 194.508C359.398 198.485 349.806 235.378 349.806 235.378C349.806 235.378 347.592 238.079 344.397 238.33C341.202 238.58 334.805 237.835 333.573 240.543C332.34 243.251 328.135 250.379 331.824 255.787Z" fill="#BE6F72"/>
<path opacity="0.1" d="M405.61 159.127C402.376 159.856 399.015 159.818 395.798 159.016C392.581 158.214 389.596 156.67 387.082 154.508L389.746 223.321C389.746 223.321 396.018 230.11 405.61 228.56V159.127Z" fill="black"/>
<path d="M405.61 157.652C402.376 158.38 399.015 158.342 395.798 157.54C392.581 156.738 389.596 155.195 387.082 153.033L389.746 221.846C389.746 221.846 396.018 228.634 405.61 227.084V157.652Z" fill="#3198AF"/>
<path opacity="0.1" d="M405.61 157.652C402.376 158.38 399.015 158.342 395.798 157.54C392.581 156.738 389.596 155.195 387.082 153.033L389.746 221.846C389.746 221.846 396.018 228.634 405.61 227.084V157.652Z" fill="black"/>
<path opacity="0.1" d="M407.086 149.897C407.086 149.897 432.786 142.038 439.486 143.145L407.086 149.897Z" fill="black"/>
<path opacity="0.1" d="M378.339 146.466C378.339 146.466 353.429 140.563 349.267 142.238L378.339 146.466Z" fill="black"/>
<path opacity="0.1" d="M423.289 150.878C423.289 150.878 440.474 144.577 446.687 147.572L423.289 150.878Z" fill="black"/>
<path opacity="0.1" d="M414.634 308.95C417.297 306.95 420.132 305.19 423.105 303.689C427.532 301.557 435.649 296.023 435.649 296.023" fill="black"/>
<path opacity="0.1" d="M349.267 233.651C349.267 233.651 338.487 242.469 335.248 243.244C332.008 244.018 330.009 250.895 330.009 250.895" fill="black"/>
<path d="M462.448 254.474L459.009 263.845C459.009 263.845 453.844 268.272 448.185 266.058C442.525 263.845 437.611 262.745 435.147 260.591C432.682 258.436 429.244 247.612 429.244 247.612C429.244 247.612 425.805 235.806 422.36 232.855C418.914 229.903 409.816 189.24 422.36 193.217C434.903 197.194 444.496 234.087 444.496 234.087C444.496 234.087 446.709 236.787 449.904 237.038C453.099 237.289 459.496 236.544 460.729 239.252C461.961 241.96 466.137 249.088 462.448 254.474Z" fill="#BE6F72"/>
<path opacity="0.1" d="M456.419 237.237C456.419 237.237 463.466 241.768 463.436 247.184L456.419 237.237Z" fill="black"/>
<path d="M396.63 105.913C414.834 105.913 429.591 91.1559 429.591 72.9524C429.591 54.749 414.834 39.9921 396.63 39.9921C378.427 39.9921 363.67 54.749 363.67 72.9524C363.67 91.1559 378.427 105.913 396.63 105.913Z" fill="#BE6F72"/>
<path d="M375.933 64.1055C379.933 63.4783 383.437 61.154 387.26 59.8185C395.811 56.8154 405.271 58.874 413.926 61.582C417.246 62.6224 420.618 63.7956 424.101 63.7956C427.584 63.7956 431.28 62.3715 433.059 59.3684C434.697 56.6088 434.379 53.0228 433 50.123C431.62 47.2232 429.31 44.8915 426.979 42.6927C419.305 35.4469 409.787 28.6733 399.257 29.4112C395.022 29.7137 390.971 31.2263 387.075 32.9013C382.17 35.0153 377.394 37.42 372.775 40.1028C369.226 42.1614 362.652 44.9137 360.608 48.6768C355.96 57.1548 368.702 65.2418 375.933 64.1055Z" fill="#3E373A"/>
<path opacity="0.1" d="M433.059 56.2694C431.28 59.2725 427.584 60.6965 424.101 60.6965C420.618 60.6965 417.246 59.5676 413.919 58.5272C405.263 55.8193 395.811 53.7533 387.252 56.7637C383.437 58.0993 379.925 60.4531 375.926 61.0433C370.097 61.9583 360.711 56.8818 359.693 50.4255C358.549 57.8853 369.433 64.2752 375.926 63.2569C379.925 62.6297 383.437 60.3055 387.252 58.9773C395.811 55.9668 405.263 58.0329 413.919 60.7408C417.246 61.7812 420.611 62.9544 424.101 62.9101C427.591 62.8659 431.28 61.4934 433.059 58.483C433.98 56.8452 434.343 54.9516 434.092 53.0892C433.977 54.2105 433.624 55.2945 433.059 56.2694Z" fill="black"/>
<path d="M700.541 456.154C700.541 456.154 704.917 461.872 698.519 470.513C692.122 479.153 686.854 486.443 688.979 491.829C688.979 491.829 698.63 475.788 706.481 475.56C714.332 475.331 709.167 465.798 700.541 456.154Z" fill="#3198AF"/>
<path opacity="0.1" d="M700.541 456.154C700.922 456.706 701.223 457.31 701.434 457.947C709.093 466.949 713.181 475.353 705.809 475.56C698.947 475.759 690.72 488.029 688.75 491.121C688.813 491.371 688.889 491.617 688.979 491.859C688.979 491.859 698.63 475.818 706.481 475.589C714.332 475.36 709.167 465.798 700.541 456.154Z" fill="black"/>
<path d="M708.658 463.444C708.658 465.458 708.429 467.089 708.156 467.089C707.883 467.089 707.647 465.458 707.647 463.444C707.647 461.429 707.927 462.381 708.207 462.381C708.488 462.381 708.658 461.429 708.658 463.444Z" fill="#FFD037"/>
<path d="M711.454 465.849C709.691 466.809 708.148 467.391 708.016 467.148C707.883 466.904 709.204 465.923 710.967 464.934C712.731 463.946 712.037 464.669 712.17 464.934C712.303 465.2 713.225 464.883 711.454 465.849Z" fill="#FFD037"/>
<path d="M677.416 456.154C677.416 456.154 673.041 461.872 679.438 470.513C685.836 479.153 691.104 486.443 688.971 491.829C688.971 491.829 679.328 475.788 671.469 475.56C663.611 475.331 668.813 465.798 677.416 456.154Z" fill="#3198AF"/>
<path opacity="0.1" d="M677.416 456.154C677.035 456.706 676.735 457.31 676.524 457.947C668.865 466.949 664.777 475.353 672.148 475.56C679.003 475.759 687.237 488.029 689.208 491.121C689.146 491.372 689.067 491.619 688.971 491.859C688.971 491.859 679.328 475.818 671.469 475.589C663.611 475.36 668.813 465.798 677.416 456.154Z" fill="black"/>
<path d="M669.285 463.444C669.285 465.458 669.507 467.089 669.787 467.089C670.067 467.089 670.296 465.458 670.296 463.444C670.296 461.429 670.008 462.381 669.735 462.381C669.462 462.381 669.285 461.429 669.285 463.444Z" fill="#FFD037"/>
<path d="M666.496 465.849C668.26 466.809 669.802 467.391 669.935 467.148C670.067 466.904 668.747 465.923 666.983 464.934C665.22 463.946 665.913 464.669 665.78 464.934C665.648 465.2 664.725 464.883 666.496 465.849Z" fill="#FFD037"/>
<path opacity="0.1" d="M688.979 535.599C714.244 535.599 734.726 532.458 734.726 528.582C734.726 524.707 714.244 521.565 688.979 521.565C663.713 521.565 643.231 524.707 643.231 528.582C643.231 532.458 663.713 535.599 688.979 535.599Z" fill="#3198AF"/>
<path d="M712.524 484.119L712.303 485.904L711.993 488.428L711.867 489.483L711.557 492.006L711.425 493.062L711.122 495.578L707.617 524.281C707.307 526.841 703.124 528.841 698.069 528.841H679.881C674.827 528.841 670.65 526.841 670.333 524.281L666.828 495.578L666.518 493.062L666.393 492.006L666.083 489.483L665.95 488.428L665.648 485.904L665.426 484.119C665.257 482.643 667.514 481.448 670.377 481.448H707.58C710.436 481.448 712.701 482.665 712.524 484.119Z" fill="#65617D"/>
<path d="M712.303 485.904L712 488.428H665.957L665.648 485.904H712.303Z" fill="#9D9CB5"/>
<path d="M711.867 489.483L711.565 492.007H666.393L666.083 489.483H711.867Z" fill="#9D9CB5"/>
<path d="M711.432 493.062L711.122 495.585H666.828L666.526 493.062H711.432Z" fill="#9D9CB5"/>
</g>
<defs>
<linearGradient id="paint0_linear" x1="403.345" y1="370.348" x2="403.345" y2="-9.32302e-07" gradientUnits="userSpaceOnUse">
<stop stop-color="#808080" stop-opacity="0.25"/>
<stop offset="0.54" stop-color="#808080" stop-opacity="0.12"/>
<stop offset="1" stop-color="#808080" stop-opacity="0.1"/>
</linearGradient>
<clipPath id="clip0">
<rect width="754.715" height="600" fill="white"/>
</clipPath>
</defs>
</svg>
