<svg width="433" height="400" fill="none" xmlns="http://www.w3.org/2000/svg"><g clip-path="url(#clip0)"><path d="M341.963 12.737s12.738-9.68 39.741 3.567c27.004 13.247 46.364 2.038 46.364 2.038l-3.057 44.326s-27.512 10.7-52.987-4.585-33.627 0-33.627 0l3.566-45.346zM366.419 215.008a149.378 149.378 0 01-93.773 138.614 146.325 146.325 0 01-15.458 5.232 150.233 150.233 0 01-80.062.01 146.177 146.177 0 01-10.577-3.368 147.443 147.443 0 01-22.821-10.48c-45.3-25.622-75.874-74.244-75.874-130.008A149.195 149.195 0 01217.137 65.725c2.552 0 5.091.063 7.617.189a149.262 149.262 0 01141.665 149.094z" fill="#3198AF"/><path d="M214.08 363.781a159.24 159.24 0 01-42.605-5.778 154.635 154.635 0 01-11.264-3.587 157.46 157.46 0 01-24.3-11.16 159.051 159.051 0 018.008-281.114 157.414 157.414 0 0162.772-16.12c4.921-.228 10.134-.227 15.499.033a158.997 158.997 0 0150.999 306.365 156.401 156.401 0 01-16.461 5.572 159.285 159.285 0 01-42.648 5.789zm0-316.907c-2.488 0-4.958.056-7.342.167a156.39 156.39 0 00-62.369 16.015 158.025 158.025 0 0016.188 290.402 153.891 153.891 0 0011.19 3.563 158.96 158.96 0 0084.709-.011 155.523 155.523 0 0016.354-5.536 157.967 157.967 0 0097.073-172.576A157.97 157.97 0 00222.139 47.073c-2.732-.132-5.444-.2-8.059-.2z" fill="#3F3D56"/><path fill-rule="evenodd" clip-rule="evenodd" d="M37.784 398.253c-3.402-1.593-11.771-6.175-16.188-14.367-5.603-10.39-2.86-22.899-2.831-23.024l.129-.57.546.205c.12.045 12.08 4.627 17.682 15.017 5.132 9.517 3.261 20.813 2.889 22.739h193.108v1.019H0v-1.019h37.784zm1.29-.535c-2.394-1.028-11.845-5.531-16.581-14.315-4.732-8.776-3.305-19.153-2.85-21.721 2.396 1.031 11.85 5.541 16.582 14.315 4.732 8.776 3.304 19.154 2.85 21.721z" fill="#3F3D56"/><path d="M25.877 380.242c10.068 6.057 13.945 18.088 13.945 18.088s-12.445 2.211-22.513-3.846C7.24 388.426 3.363 376.395 3.363 376.395s12.446-2.21 22.514 3.847z" fill="#3198AF"/><path d="M149.964 359.875l-2.503 13.141s-35.041 20.649-18.146 26.281c16.895 5.631 37.544-24.404 37.544-24.404l-3.754-15.018h-13.141zM174.368 261.008l27.532 29.41 75.715-52.562s-17.521-13.766-23.153-13.766c-5.631 0-80.094 36.918-80.094 36.918zM323.293 106.451s8.135-56.942 22.527-52.562c14.392 4.38-8.135 60.696-8.135 60.696l-14.392-8.134z" fill="#A0616A"/><path d="M333.435 308.607a149.605 149.605 0 01-60.789 45.015l-3.164-6.889-12.294 12.121a150.233 150.233 0 01-80.062.01l-5.263-3.368 28.16-32.541s.626-16.268 0-18.77c-.627-2.502-8.84-25.215-8.84-25.215 28.537-1.809 69.342-38.008 78.794-46.736 1.299-1.203 2.007-1.885 2.007-1.885 52.56 7.505 60.07 68.828 60.07 68.828l1.381 9.43zM110.143 19.87A19.865 19.865 0 01127.72.136a19.869 19.869 0 00-15.811 34.322c2.358 8.341 10.027 14.454 19.123 14.454a20.01 20.01 0 003.269-.268 47.47 47.47 0 00-7.545 25.755c0 26.34 21.353 47.692 47.693 47.692 26.34 0 47.693-21.352 47.693-47.692s-21.353-47.693-47.693-47.693c-8.74 0-16.93 2.35-23.974 6.454.28-1.328.427-2.706.427-4.119 0-10.974-8.896-19.87-19.87-19.87-10.142 0-18.509 7.598-19.72 17.413a19.865 19.865 0 01-1.169-6.714z" fill="#2F2E41"/><path d="M185.022 121.463c18.365-.343 33.148-15.337 33.148-33.784 0-18.662-15.129-33.79-33.79-33.79-16.953 0-30.989 12.484-33.418 28.76a1.555 1.555 0 00-.57-.11c-1.688 0-3.057 2.85-3.057 6.368 0 3.518 1.369 6.369 3.057 6.369.343 0 .673-.118.98-.334a33.584 33.584 0 004.236 10.464c-2.776 12.44-9.038 32.472-21.287 37.963-18.147 8.135 50.059 3.755 50.059 3.755s0-14.655.642-25.661z" fill="#A0616A"/><path fill-rule="evenodd" clip-rule="evenodd" d="M372.143 57.633c11.254 6.752 22.944 8.719 32.75 8.718 13.568 0 23.526-3.768 23.696-3.834l.301-.117 3.318-48.122-.829.478c-.201.117-20.577 11.537-48.519-2.17-28.529-13.996-39.431-4.109-39.881-3.681l-.138.13-.271 2.683h-5.701v74.896h7.133V52.8a13.312 13.312 0 012.773-1.233c6.536-2.152 15.072-.111 25.368 6.067zm-28.141-5.993a14.65 14.65 0 012.455-1.042 18.252 18.252 0 015.741-.879c5.804 0 12.66 2.355 20.47 7.04 24.953 14.972 52.1 6.04 55.25 4.919l3.146-45.617c-4.136 1.994-23.383 9.836-48.653-2.56C356.191.638 345.137 8.46 343.816 9.53l-.221 2.19h.407v39.92z" fill="#2F2E41"/><path d="M143.769 58.592s9.171 19.361 20.38 19.87c11.209.51 52.988-7.642 52.988-7.642L203.38 42.288l-36.684 4.586-22.927 11.718z" fill="#2F2E41"/><path d="M248.205 203.44s1.051-2.628 1.347-6.559c17.271 6.679 42.889 15.478 56.221 14.694 21.275-1.252 40.047-100.744 40.047-100.744l-23.778-8.135-28.784 78.218s-23.778-5.632-37.544-22.527c-13.767-16.895-33.79-21.901-33.79-21.901s-27.305-4.38-37.43 0c-10.126 4.38-40.714 7.866-44.505 2.994-3.168-4.069-27.273 6.616-35.121 14.257-2.927 1.673-5.589 4.587-5.589 9.656 0 11.263 1.878 50.059 13.141 66.954 8.891 13.337 17.002 39.932 20.332 50.85.889 2.912 1.437 4.709 1.569 4.841.625.626 12.514 79.469 12.514 79.469l20.024-1.877-3.754-98.241-12.961-33.447a4915.5 4915.5 0 0025.475 36.575s75.714-21.275 85.726-43.802c0 0-8.76-6.257-8.76-11.263s-4.38-10.012-4.38-10.012z" fill="#D0CDE1"/></g><defs><clipPath id="clip0"><path fill="#fff" d="M0 0h432.209v400H0z"/></clipPath></defs></svg>