<svg width="1470" height="836" fill="none" xmlns="http://www.w3.org/2000/svg"><mask id="a" maskUnits="userSpaceOnUse" x="0" y="0" width="1470" height="836"><path fill="#C4C4C4" d="M0 0h1470v836H0z"/></mask><g mask="url(#a)"><path opacity=".1" d="M1005.51 398.451c-73.575-32.674-131.034-96.823-183.928-163.205C768.687 168.863 718.106 98.378 652.97 49.022c-41.893-31.747-95.069-54.3-147.714-30.45-50.703 23.018-86.864 82.186-115.828 138.917-21.794 42.672-42.505 88.423-45.335 135.095-1.975 32.4 4.869 62.882 5.39 94.944 1.977 111.246-70.914 219.632-148.984 297.668-36.61 36.624-75.643 70.02-108.822 111.166-33.18 41.146-60.838 92.338-65.852 145.383-4.97 52.618 12.874 100.305 37.364 138.445 49.755 77.48 125.755 123.26 202.2 161.95 169.162 85.66 349.281 145.44 528.935 205.04 66.493 22.05 133.278 44.18 203.445 53.42 38.971 5.12 81.001 5.7 119.421-17.04 48.75-28.87 83.75-95.96 81.57-156.36-3.66-101.33-97.61-162.06-87.73-265.55 5.46-56.93 42.01-108.698 80.95-148.569 83.55-85.495 192.28-146.963 240.98-262.579 33.45-79.426 28.49-173.642-12.23-232.845-42.62-62.192-124.92-87.842-192.89-38.131-70.04 51.223-157.37 47.761-222.33 18.925z" fill="#3198AF"/></g></svg>