<svg width="1375" height="1182" fill="none" xmlns="http://www.w3.org/2000/svg"><g clip-path="url(#clip0)"><path opacity=".1" d="M883.147 364.397c-74.093-31.319-136.359-82.895-194.514-135.517-58.155-52.623-114.566-107.862-182.488-149.93-43.687-27.057-97.116-48.947-144.748-38.207-45.871 10.377-73.712 47.787-94.949 84.305-15.981 27.468-30.574 57.221-27.962 89.657 1.804 22.517 11.823 44.692 15.976 67.256 14.57 78.31-42.792 146.079-108.566 191.956-30.841 21.534-64.367 40.526-91.41 65.625-27.044 25.099-47.663 57.879-46.413 94.541 1.243 36.366 23.745 71.874 51.514 101.434 56.418 60.054 134.323 100.846 211.848 136.721 171.553 79.403 350.636 141.892 529.255 204.202 66.109 23.06 132.505 46.19 200.67 60.68 37.86 8.04 78.12 13.24 112.27 1.65 43.34-14.71 69.17-57.81 60.2-100.45-15.05-71.542-111.83-124.881-114.18-196.389-1.26-39.339 27.8-71.511 60.5-95.059 70.16-50.488 167.14-81.24 200.54-156.842 22.95-51.937 7.46-118.633-38.23-164.829-47.85-48.51-129.49-75.894-188.83-48.748-61.15 27.971-145.064 15.588-210.483-12.056z" fill="#3198AF"/></g><defs><clipPath id="clip0"><path fill="#fff" d="M0 0h1375v1182H0z"/></clipPath></defs></svg>