<svg width="1375" height="1182" viewBox="0 0 1375 1182" fill="none" xmlns="http://www.w3.org/2000/svg">
<g clip-path="url(#clip0)">
<path opacity="0.1" d="M883.147 364.397C809.054 333.078 746.788 281.502 688.633 228.88C630.478 176.257 574.067 121.018 506.145 78.9509C462.458 51.8927 409.029 30.0027 361.397 40.7432C315.526 51.1202 287.685 88.5297 266.448 125.048C250.467 152.516 235.874 182.269 238.486 214.705C240.29 237.222 250.309 259.397 254.462 281.961C269.032 360.271 211.67 428.04 145.896 473.917C115.055 495.451 81.5294 514.443 54.4854 539.542C27.4415 564.641 6.82302 597.421 8.07272 634.083C9.31556 670.449 31.8181 705.957 59.5873 735.517C116.005 795.571 193.91 836.363 271.435 872.238C442.988 951.641 622.071 1014.13 800.69 1076.44C866.799 1099.5 933.195 1122.63 1001.36 1137.12C1039.22 1145.16 1079.48 1150.36 1113.63 1138.77C1156.97 1124.06 1182.8 1080.96 1173.83 1038.32C1158.78 966.778 1062 913.439 1059.65 841.931C1058.39 802.592 1087.45 770.42 1120.15 746.872C1190.31 696.384 1287.29 665.632 1320.69 590.03C1343.64 538.093 1328.15 471.397 1282.46 425.201C1234.61 376.691 1152.97 349.307 1093.63 376.453C1032.48 404.424 948.566 392.041 883.147 364.397Z" fill="#3198AF"/>
</g>
<defs>
<clipPath id="clip0">
<rect width="1375" height="1182" fill="white"/>
</clipPath>
</defs>
</svg>
