<svg width="1470" height="836" viewBox="0 0 1470 836" fill="none" xmlns="http://www.w3.org/2000/svg">
<mask id="mask0" mask-type="alpha" maskUnits="userSpaceOnUse" x="0" y="0" width="1470" height="836">
<rect width="1470" height="836" fill="#C4C4C4"/>
</mask>
<g mask="url(#mask0)">
<path opacity="0.1" d="M1005.51 398.451C931.935 365.777 874.476 301.628 821.582 235.246C768.687 168.863 718.106 98.3781 652.97 49.0218C611.077 17.2748 557.901 -5.27734 505.256 18.5727C454.553 41.5898 418.392 100.758 389.428 157.489C367.634 200.161 346.923 245.912 344.093 292.584C342.118 324.984 348.962 355.466 349.483 387.528C351.46 498.774 278.569 607.16 200.499 685.196C163.889 721.82 124.856 755.216 91.6767 796.362C58.4975 837.508 30.8393 888.7 25.8248 941.745C20.8541 994.363 38.6988 1042.05 63.1886 1080.19C112.944 1157.67 188.944 1203.45 265.389 1242.14C434.551 1327.8 614.67 1387.58 794.324 1447.18C860.817 1469.23 927.602 1491.36 997.769 1500.6C1036.74 1505.72 1078.77 1506.3 1117.19 1483.56C1165.94 1454.69 1200.94 1387.6 1198.76 1327.2C1195.1 1225.87 1101.15 1165.14 1111.03 1061.65C1116.49 1004.72 1153.04 952.952 1191.98 913.081C1275.53 827.586 1384.26 766.118 1432.96 650.502C1466.41 571.076 1461.45 476.86 1420.73 417.657C1378.11 355.465 1295.81 329.815 1227.84 379.526C1157.8 430.749 1070.47 427.287 1005.51 398.451Z" fill="#3198AF"/>
</g>
</svg>
