<svg width="537" height="400" fill="none" xmlns="http://www.w3.org/2000/svg"><g clip-path="url(#clip0)"><path opacity=".1" d="M527.873 178.118c-.097.567-.193 1.135-.299 1.702-3.436 19.326-9.045 37.958-17.385 55.064-.274.568-.553 1.135-.836 1.703a157.427 157.427 0 01-19.59 30.21c-4.155 5.011-8.685 9.769-14.071 13.205-7.55 4.813-16.377 6.769-25.052 8.37-9.014 1.667-18.145 3.041-27.255 4.561-3.23.527-6.439 1.079-9.628 1.657-8.801 1.591-17.537 3.43-26.065 5.867-10.544 3.041-20.775 6.957-30.402 12.506a80.25 80.25 0 00-2.286 1.353 83.56 83.56 0 00-2.254 1.398c-.735.477-1.475.948-2.205 1.429l-1.124.76c-.37.244-.735.507-1.1.75-1.084.74-2.154 1.52-3.223 2.27l-.04.031c-.705.506-1.404 1.013-2.103 1.52-3.947 2.924-7.808 5.984-11.654 9.055l-2.428 1.94c-1.253.994-2.506 1.985-3.759 2.975-.735.582-1.48 1.16-2.22 1.738-.537.42-1.069.841-1.616 1.256a217.68 217.68 0 01-8.351 6.157c-.674.471-1.358.942-2.026 1.403a106.837 106.837 0 01-18.009 9.922l-.081.035a71.34 71.34 0 01-9.567 3.299 57.1 57.1 0 01-5.634 1.221 49.822 49.822 0 01-15.277.264c-9.977-1.414-19.326-6.081-29.278-7.642-20.532-3.187-40.471 7.094-59.791 15.166a297.859 297.859 0 01-14.345 5.574 302.347 302.347 0 01-9.653 3.299 303.922 303.922 0 01-60.567 12.956c-8.401.917-17.162 1.353-25.715.694a86.85 86.85 0 01-9.628-1.251c-10.828-2.027-20.937-6.329-29.08-14.188-6.764-6.43-11.537-14.836-15.175-23.608a114.984 114.984 0 01-3.867-10.813 120.59 120.59 0 01-3.937-17.648 84.342 84.342 0 01-.506-4.054c-.264-2.321-.46-4.652-.588-6.993a121.101 121.101 0 013.602-36.989c3.451-13.372 9.207-26.177 11.74-39.675.107-.568.204-1.135.3-1.703.338-2.027.594-4.091.77-6.192 1.277-16.508-3.663-32.667-7.565-48.852a233.242 233.242 0 01-1.606-7.088c-3.613-17.117-4.601-35.434-1.394-52.516.102-.567.218-1.14.335-1.702 2.163-10.58 5.984-20.643 11.836-29.607 6.005-9.202 13.89-16.858 22.295-23.587a162.46 162.46 0 0112.734-9.197 170.451 170.451 0 019.627-5.812c26.395-14.694 56.508-21.875 86.283-20.268 1.577.08 3.151.189 4.722.324 1.649.142 3.292.31 4.93.507 19.169 2.214 37.821 7.702 56.361 13.706 6.213 2.027 12.41 4.054 18.607 6.08 2.756.9 5.511 1.786 8.264 2.66 13.504 4.262 27.231 8.108 41.084 11.007 3.212.675 6.422 1.292 9.627 1.85a227.557 227.557 0 0033.742 3.475c4.391.108 8.783.063 13.174-.137 2.22-.101 4.441-.25 6.664-.446 22.959-1.966 45.097-8.558 67.326-14.75 3.212-.897 6.43-1.789 9.627-2.65a467.182 467.182 0 0112.703-3.248c26.44-6.349 50.002-2.7 74.583 10.393 5.573 2.974 11.147 6.562 14.593 12.115 3.446 5.553 4.282 12.43 4.92 19.047.902 9.415 1.52 18.961 1.718 28.548 0 .568 0 1.135.035 1.703.446 19.412-.734 38.97-3.967 57.891z" fill="#3198AF"/><path opacity=".1" d="M352.506 234.884h-1.728V236.587h1.956l-.228-1.703zm-19.584 0a.14.14 0 000 .041l-.152 1.408v.254h14.999v-.102l1.069-1.601h-15.916zm-40.106 0V179.82h17.228c-.182-.152-.37-.304-.562-.446l-.254-.192a4.716 4.716 0 00-.324-.243c-.111-.076-.375-.269-.572-.401-.198-.131-.32-.217-.507-.324l-.117-.076H292.816v-3.015l-.4.193-.426.238h-.03l-.091.056-.264.172c-.091.056-.182.111-.268.172-.264.178-.507.37-.786.568l-.253.202c-.172.132-.335.269-.507.406-.674.552-1.338 1.13-2.027 1.662-.172.137-.344.268-.506.395-.369.27-.751.52-1.146.75a5.409 5.409 0 01-.506.279l-.284.131-.258.112c-.609.257-1.24.457-1.885.598v53.827h-25.843c0 .061.036.117.051.178.142.506.284 1.013.421 1.52h25.376v59.026h.395l.451.031.821.06 1.327.132.598.071.659.081h.096c.38.051.765.112 1.155.172l.249.041.557.091.801.142 1.92-.101.264.055c.106 0 .212.041.324.066v-59.862h39.934v-.254l.152-1.408a.095.095 0 010-.041h-40.071zm59.69 0h-1.728V236.587h1.956l-.228-1.703zm-20.663 0l-.172 1.703h16.685l1.135-1.703h-17.648zm-39.017 0V179.82h17.228c-.182-.152-.37-.304-.562-.446l-.253-.192a4.99 4.99 0 00-.325-.243c-.111-.076-.375-.269-.572-.401-.198-.131-.32-.217-.507-.324l-.117-.076H292.816v-3.015l-.4.193-.426.238h-.03l-.091.056-.264.172c-.091.056-.182.111-.268.172-.264.178-.507.37-.786.568l-.253.202c-.172.132-.335.269-.507.406-.674.552-1.338 1.13-2.027 1.662-.172.137-.344.268-.506.395-.369.27-.751.52-1.146.75a5.409 5.409 0 01-.506.279l-.284.131-.258.112c-.609.257-1.24.457-1.885.598v53.827h-25.843c0 .061.036.117.051.178.142.506.289 1.013.426 1.52h25.371v59.021l.395.025.451.031.821.061 1.327.131.598.071.659.081h.096c.38.051.765.112 1.155.173l.249.04.557.091.801.142 1.92-.101.264.056c.106 0 .212.04.324.066v-59.883h38.87l.182-1.703h-39.027zm130.559-114.668h108.552c0-.567 0-1.135-.036-1.702H423.385V51.659a759.253 759.253 0 00-9.628 2.65v64.205H295.694l-.299-.324.451-.507 43.912-48.193a184.24 184.24 0 01-13.175.137l-33.767 37.04V66.166a263.975 263.975 0 01-9.627-1.85v40.486L233.82 50.65c-6.197-2.026-12.394-4.089-18.606-6.08l67.103 73.62-.299.324H158.853v-87.66a241.306 241.306 0 00-4.93-.507 122.207 122.207 0 00-4.723-.325v88.492H62.918V50.311a162.129 162.129 0 00-9.628 5.812v62.391H6.364a63.161 63.161 0 00-.334 1.702h47.22v57.902H8.644c.132.567.269 1.135.406 1.702h44.22v55.064H15.83c-.097.568-.193 1.135-.3 1.703h37.74V390.55a86.852 86.852 0 009.628 1.251V236.587H149.2v141.564a331.33 331.33 0 009.653-3.299V236.587h124.315v123.687a71.34 71.34 0 009.567-3.299l.081-.035V236.587h120.911v58.003c3.205-.578 6.415-1.13 9.627-1.657v-56.346h85.973c.284-.568.563-1.135.836-1.703h-86.778V179.82h104.194c.106-.567.203-1.135.299-1.702H423.385v-57.902zm-360.462 0H149.2v57.902H62.918l.005-57.902zm0 114.668V179.82H149.2v55.064H62.923zm95.935-114.668h124.31v57.902H158.853l.005-57.902zm0 114.668V179.82h124.31v55.064h-124.31zm254.874 0H292.816V179.82h120.911l.005 55.064zm0-56.751H292.816v-56.366l1.698-1.551h119.213l.005 57.917zm-80.805 56.751a.14.14 0 000 .041l-.152 1.408v.254h14.999v-.102l1.069-1.601h-15.916zm19.584 0h-1.727V236.587h1.955l-.228-1.703zm-59.69 0V179.82h17.228c-.182-.152-.37-.304-.562-.446l-.254-.192a4.716 4.716 0 00-.324-.243c-.111-.076-.375-.269-.572-.401-.198-.131-.32-.217-.507-.324l-.117-.076h-14.897v-3.015l-.4.193-.426.238h-.03l-.091.056-.264.172c-.091.056-.182.111-.268.172-.264.178-.507.37-.786.568l-.253.202c-.172.132-.335.269-.507.406-.674.552-1.338 1.13-2.027 1.662-.172.137-.344.268-.506.395-.369.27-.751.52-1.146.75a5.409 5.409 0 01-.506.279l-.284.131-.258.112c-.609.257-1.24.457-1.885.598v53.827h-25.843c0 .061.036.117.051.178.142.506.284 1.013.421 1.52h25.376v59.026h.395l.451.031.821.06 1.327.132.598.071.659.081h.096c.38.051.765.112 1.155.172l.249.041.557.091.801.142 1.92-.101.264.055c.106 0 .212.041.324.066v-59.862h39.934v-.254l.152-1.408a.095.095 0 010-.041h-40.066z" fill="#3198AF"/><path opacity=".1" d="M104.402 80.349h.77a1.847 1.847 0 01-.917-1.485c0-1.176 1.439-2.133 3.197-2.133h22.372c1.758 0 3.197.957 3.197 2.133 0 1.17-1.439 2.133-3.197 2.133h-.745a1.849 1.849 0 01.912 1.485c0 1.013-1.044 1.844-2.443 2.072h6.441c1.753 0 3.192.958 3.192 2.133 0 1.176-1.439 2.129-3.192 2.129h-22.397c-1.753 0-3.192-.958-3.192-2.129 0-1.013 1.044-1.844 2.442-2.072h-6.44c-1.753 0-3.192-.958-3.192-2.133 0-1.176 1.429-2.133 3.192-2.133zM346.872 100.652h.75a1.844 1.844 0 01-.918-1.49c0-1.17 1.44-2.128 3.198-2.128h22.371c1.758 0 3.197.958 3.197 2.129 0 1.175-1.439 2.133-3.197 2.133h-.745c.263.154.483.371.642.631.16.26.252.555.27.859 0 1.013-1.044 1.839-2.442 2.067h6.44c1.753 0 3.192.963 3.192 2.133 0 1.171-1.439 2.134-3.192 2.134h-22.366c-1.753 0-3.192-.958-3.192-2.134 0-1.013 1.044-1.844 2.442-2.067h-6.45c-1.754 0-3.193-.963-3.193-2.133 0-1.171 1.45-2.134 3.193-2.134zM70.083 187.538h.75a1.86 1.86 0 01-.912-1.49c0-1.171 1.433-2.133 3.192-2.133h22.37c1.76 0 3.198.962 3.198 2.133 0 1.175-1.439 2.133-3.197 2.133h-.745a1.85 1.85 0 01.912 1.49c0 1.013-1.044 1.839-2.442 2.067h6.44c1.758 0 3.192.958 3.192 2.133 0 1.176-1.434 2.134-3.192 2.134H77.273c-1.753 0-3.192-.963-3.192-2.134 0-1.013 1.048-1.844 2.442-2.072h-6.44c-1.754 0-3.193-.958-3.193-2.128 0-1.171 1.44-2.133 3.193-2.133z" fill="#3198AF"/><path d="M328.813 333.49l-3.76 2.974c-.735.583-1.48 1.16-2.219 1.738-.538.421-1.07.841-1.617 1.257a218.406 218.406 0 01-10.377 7.56 106.902 106.902 0 01-18.009 9.921l-.081.035V333.49h36.063z" fill="#65617D"/><path d="M385.199 241.188l.568-17.507c-.34-.264-.684-.507-1.014-.75a93.273 93.273 0 00-.892-15.612c-2.29-17.506-17.162-17.886-21.357-14.274-.556.48-1.163.898-1.809 1.247.38-2.498.851-5.001 1.19-7.474 1.835-13.337-1.013-28.34-11.36-36.959-4.332-3.603-9.627-5.817-14.385-8.832-8.523-5.376-15.257-13.316-23.876-18.551-8.62-5.234-20.725-7.195-28.244-.466-2.914 2.605-4.794 6.217-7.783 8.731-5.574 4.682-14.264 4.991-19.129 10.22-.243.263-.476.532-.699.816-4.053 5.199-2.944 12.571-1.652 19.022 1.556 7.762.912 13.985 7.571 16.214.025.309.045.618.081.922a32.878 32.878 0 0014.471 23.674l-1.079.385c-2.878 1.013-5.467 1.996-7.124 2.67-6.081 2.478-18.88 5.706-18.88 5.706s-.304 3.648-.249 9.029c-4.266 4.637-11.385 12.784-13.478 17.613-3.04 7.044-20.218 27.216-24.793 30.261-4.576 3.045-9.536 6.658-9.536 6.658s-7.246 3.998-10.677 4.378c-2.376.264-9.729-1.145-9.729-1.145s-29.363-35.976-27.458-8.371c1.905 27.606 25.361 28.543 25.361 28.543l23.648-.38s12.779 1.713 18.5-3.04c4.884-4.054 30.199-26.293 38.332-36.382.188.208.375.41.573.608 0 0 3.237-4.185 3.623 0 .385 4.185-2.103 6.081-.766 7.601 1.338 1.52 5.341 6.85 5.529 8.943.187 2.093-5.336 10.641 4.003 17.127.147.101.304.197.476.294 1.667 3.795 6.967 7.509 6.967 7.509l28.604-.38 53.969 4.185s1.606-1.413 3.78-3.724c2.904 2.665 6.932 4.951 11.472 3.547 0 0 6.486-7.798 6.678-12.936 0 0-4.195-10.849-6.08-14.082-1.885-3.232 1.338-10.276 1.338-10.276s2.285-6.85 3.623-6.85c1.337 0 .38-4.561.38-4.561a5.541 5.541 0 01-.573-5.138c1.12-2.883 1.885-8.213 1.885-8.213z" fill="url(#paint0_linear)"/><path d="M350.819 239.617l2.027-2.371 28.573-4.353s1.125-2.98 1.277-9.881a96.353 96.353 0 00-.902-14.532c-2.27-17.406-17.03-17.786-21.19-14.188a10.605 10.605 0 01-9.086 2.27l-.024.024-.001-.039s-22.082 7.21-28.968-4.191a7.808 7.808 0 01-.315-.567 13.515 13.515 0 01-1.368-3.942l-25.183 11.492-.365.167-.567.258a32.416 32.416 0 012.695 8.31c.066.37.122.745.162 1.12.315 2.721.056 5.604-1.52 7.788-4.337 6.056 18.748 33.874 18.748 33.874l27.819-1.703 8.188-9.536z" fill="#EE8E9E"/><path d="M375.931 303.847s6.431-7.757 6.623-12.865l-6.435-10.788-5.675-6.08-10.6 20.46s7.002 12.111 16.087 9.273z" fill="#DFE5EE"/><path opacity=".1" d="M375.931 303.847s6.431-7.757 6.623-12.865l-6.435-10.788-5.675-6.08-10.6 20.46s7.002 12.111 16.087 9.273z" fill="#000"/><path d="M322.834 338.202c-.538.421-1.07.841-1.617 1.257a218.406 218.406 0 01-10.377 7.56H149.2l-47.823-1.713-38.46-.324-9.627-.507-48.035-2.534a120.595 120.595 0 01-3.958-17.663 84.342 84.342 0 01-.506-4.054l52.48 2.908 9.627.543 86.282 4.813 9.653.538 124.315 6.941 9.567.538h.081l30.038 1.697z" fill="#D48A9B"/><path d="M387.662 300.457c-10.545 3.041-20.775 6.957-30.403 12.506-.765.441-1.52.892-2.285 1.353-.765.461-1.52.922-2.255 1.398-.735.477-1.474.948-2.204 1.429l-1.125.76-1.1.75c-1.084.745-2.153 1.52-3.222 2.27l-.041.031c-.704.506-1.403 1.013-2.103 1.52-3.947 2.923-7.808 5.984-11.654 9.055-.811.648-1.623 1.295-2.437 1.94l-3.75 2.975c-.734.582-1.479 1.16-2.219 1.738-.537.42-1.069.841-1.617 1.256l-28.375-1.353h-.081l-9.567-.445-124.371-5.893-9.653-.462-86.282-4.099-9.628-.461-51.993-2.447a84.33 84.33 0 01-.507-4.054c-.263-2.321-.459-4.652-.587-6.993l53.082-18.748 9.628-3.41 8.746-3.091 15.935.831 36.833 1.89 24.788 1.302 9.653.507 6.167.324 1.474.082 51.897 2.71.547.036 23.157 1.206H242.525l2.316.116 7.895.416 9.87.507 3.253.172.613.035 4.601.238 1.313.066 4.393.233 1.748.097h.421l4.109.218 6.364.334h.031l1.976.101h.213l1.18.066 2.899.152 2.533.132h.025l2.843.147h.046l2.153.116 1.652.087 5.863.309 1.054.055h.364l.507.031 1.718.091.77.041 5.979.309h.547l8.827-.076h.061l33.559-.274h3.319l10.803-.086h1.612l7.707-.046z" fill="#EFC6CD"/><path d="M161.168 301.152l3.122 16.604 84.863-1.277s6.385 1.845 6.243-3.263c0 0 12.916-12.206 78.337 1.987l-25.118-19.727-68.659 3.689-79.613-2.128.825 4.115z" fill="#3198AF"/><path d="M162.729 297.179l2.98 18.023s72.966-2.128 84.437-.141l-8.669-16.463s-44.119-4.115-78.748-1.419z" fill="#fff"/><path opacity=".1" d="M162.729 297.179l2.98 18.023s72.966-2.128 84.437-.141l-8.669-16.463s-44.119-4.115-78.748-1.419z" fill="#000"/><path d="M163.819 297.113l2.939 16.762s72.038-1.976 83.388-.132l-8.548-15.307s-43.587-3.831-77.779-1.323z" fill="#fff"/><path opacity=".1" d="M165.141 297.63l2.863 15.677s70.458-1.849 81.58-.121l-8.361-14.325s-42.634-3.597-76.082-1.231z" fill="#000"/><path d="M115.859 254.428s3.689 4.819-1.698 12.1c-5.386 7.282-9.835 13.423-8.036 17.963 0 0 8.107-13.519 14.745-13.681 6.638-.162 2.27-8.254-5.011-16.382z" fill="#3198AF"/><path opacity=".1" d="M115.859 254.428c.324.467.578.979.755 1.52 6.455 7.601 9.896 14.695 3.689 14.847-5.782.162-12.714 10.499-14.376 13.113.058.196.124.394.198.593 0 0 8.107-13.519 14.745-13.681 6.638-.162 2.27-8.264-5.011-16.392z" fill="#000"/><path d="M122.715 260.574c0 1.693-.193 3.071-.426 3.071-.233 0-.426-1.378-.426-3.071 0-1.692.238-.902.472-.902.233 0 .38-.795.38.902z" fill="#FFD037"/><path d="M125.066 262.596c-1.49.816-2.787 1.307-2.899 1.1-.111-.208 1.014-1.014 2.493-1.845 1.48-.831.902-.223 1.014 0 .111.223.881-.066-.608.745z" fill="#FFD037"/><path d="M96.386 254.428s-3.689 4.819 1.702 12.1c5.392 7.282 9.83 13.423 8.037 17.963 0 0-8.133-13.519-14.75-13.681-6.618-.162-2.27-8.254 5.01-16.382z" fill="#3198AF"/><path opacity=".1" d="M96.386 254.428a6.091 6.091 0 00-.755 1.52c-6.456 7.601-9.896 14.695-3.689 14.847 5.782.162 12.718 10.499 14.38 13.113-.054.196-.12.394-.197.593 0 0-8.133-13.519-14.75-13.681-6.618-.162-2.27-8.264 5.01-16.392z" fill="#000"/><path d="M89.53 260.574c0 1.693.193 3.071.426 3.071.233 0 .425-1.378.425-3.071 0-1.692-.238-.902-.47-.902-.234 0-.38-.795-.38.902z" fill="#FFD037"/><path d="M87.179 262.596c1.49.816 2.792 1.307 2.903 1.1.112-.208-1.013-1.014-2.493-1.845s-.901-.223-1.013 0c-.111.223-.887-.066.603.745z" fill="#FFD037"/><path d="M125.947 277.99l-.182 1.52-.259 2.123-.106.887-.258 2.128-.112.887-.263 2.128-2.949 24.18c-.264 2.159-3.791 3.841-8.047 3.841H98.458c-4.256 0-7.778-1.682-8.041-3.841l-2.954-24.18-.259-2.128-.106-.887-.264-2.128-.106-.887-.258-2.123-.188-1.52c-.147-1.221 1.758-2.25 4.17-2.25h31.345c2.407 0 4.317 1.029 4.15 2.25z" fill="#65617D"/><path d="M125.78 279.495l-.258 2.128H86.728l-.258-2.128h39.31zM125.415 282.51l-.258 2.128H87.098l-.263-2.128h38.58zM125.045 285.525l-.258 2.123H87.463l-.259-2.123h37.841z" fill="#9D9CB5"/><path d="M172.711 276.034s-9.84-9.46-9.46 2.838c.38 12.297 9.46-2.838 9.46-2.838z" fill="#EE8E9E"/><path d="M261.076 254.463c-.218.953-1.277 2.534-2.929 4.515-8.533 10.276-32.809 31.634-37.567 35.596-5.675 4.733-18.353 3.041-18.353 3.041l-23.46.38s-23.274-.948-25.169-28.376c-1.895-27.428 27.246 8.325 27.246 8.325s7.297 1.399 9.653 1.135c3.405-.375 10.595-4.347 10.595-4.347s4.92-3.598 9.46-6.623c4.54-3.025 21.571-23.085 24.601-30.088 1.92-4.444 8.107-11.71 12.379-16.423 2.452-2.71 4.271-4.56 4.271-4.56s10.596 31.558 9.273 37.425z" fill="#EE8E9E"/><path opacity=".1" d="M261.076 254.463c-.218.953-1.277 2.534-2.929 4.515-8.614-8.771-10.413-26.273-10.615-37.4 2.452-2.711 4.271-4.56 4.271-4.56s10.596 31.578 9.273 37.445zM350.814 239.617l-8.183 9.536-10.697.649-17.122 1.054s-23.085-27.819-18.748-33.874c1.576-2.184 1.835-5.067 1.52-7.788-.04-.375-.096-.75-.162-1.12a32.416 32.416 0 00-2.695-8.31l.567-.258.365-.167a36.292 36.292 0 011.854 7.757c.056.36.107.735.158 1.12.177 1.368.339 2.888.506 4.561 1.318 15.312 10.95 21.074 15.298 22.908a44.076 44.076 0 014.094 1.981 21.843 21.843 0 0013.732 2.483c10.732-1.409 19.483-9.207 19.483-9.207l.045 7.677-.015.998z" fill="#000"/><path d="M351.143 299.12s-70.386-.193-79.664-6.623c-9.278-6.43-3.78-14.948-3.973-17.03-.192-2.083-4.16-7.378-5.482-8.898-1.323-1.52 1.135-3.405.755-7.565s-3.593 0-3.593 0c-13.25-13.438-10.413-47.494-10.413-47.494s12.668-3.213 18.748-5.68c1.647-.669 4.211-1.622 7.094-2.65l1.069-.385c7.434-2.661 16.271-5.665 16.271-5.665s1.697-1.201 3.405 2.391c.78 1.652 1.566 4.312 2.194 8.564.056.359.106.734.157 1.119.177 1.369.34 2.889.507 4.561 1.317 15.312 10.95 21.074 15.297 22.908a44.207 44.207 0 014.094 1.981 21.844 21.844 0 0013.732 2.483c10.732-1.409 19.483-9.207 19.483-9.207l.046 7.677.131 23.065.142 36.448z" fill="#DFE5EE"/><path d="M348.113 269.224l-1.135 7.19s-28.006 6.998-38.976 9.08c-10.97 2.083-34.628-.567-36.331 3.973-1.702 4.54 7.19 10.788 7.19 10.788l28.376-.38 53.549 4.165s20.435-17.978 13.813-30.469c-6.623-12.49-26.486-4.347-26.486-4.347z" fill="#EE8E9E"/><path opacity=".1" d="M290.404 212.457s-12.87 10.596-10.408 15.708c2.463 5.113 10.408-15.708 10.408-15.708zM274.509 231.565s-13.058 22.518-12.298 24.221c.76 1.703 4.353 7.758 4.16 3.218-.192-4.541 8.138-27.439 8.138-27.439zM279.809 235.543s-3.04 14-6.055 19.868c-3.015 5.868 6.055-19.868 6.055-19.868zM322.55 192.372a32.73 32.73 0 01-24.88 16.832h-.06a32.676 32.676 0 01-23.035-6.029c7.6-2.747 17.339-6.051 17.339-6.051s1.698-1.2 3.405 2.392l25.549-11.654a13.541 13.541 0 001.682 4.51z" fill="#000"/><path d="M326.543 175.559a32.595 32.595 0 01-4.307 16.245 33.007 33.007 0 01-4.88 6.496 32.596 32.596 0 01-19.843 9.81h-.066a32.032 32.032 0 01-3.638.208 32.735 32.735 0 1132.734-32.739v-.02z" fill="#EE8E9E"/><path opacity=".1" d="M347.738 237.499l3.041-4.56s16.65-19.868 32.936-7.191l-.568 17.411s-.76 5.295-1.895 8.107a5.537 5.537 0 00.567 5.113s.948 4.56-.375 4.56c-1.322 0-3.597 6.81-3.597 6.81s-3.218 7.003-1.323 10.221c1.895 3.217 6.055 14 6.055 14s-6.622-3.973-8.517-10.595c0 0-16.083-12.491-28.573-4.561l2.249-39.315z" fill="#000"/><path opacity=".1" d="M382.696 223.012c-.152 6.901-1.277 9.881-1.277 9.881l-28.573 4.353-1.069-7.419c3.739-3.901 17.339-16.306 30.919-6.815z" fill="#000"/><path d="M347.738 236.486l3.041-4.561s16.65-19.868 32.936-7.19l-.568 17.41s-.76 5.296-1.895 8.108a5.536 5.536 0 00.567 5.112s.948 4.561-.375 4.561c-1.322 0-3.597 6.81-3.597 6.81s-3.218 7.003-1.323 10.22c1.895 3.218 6.055 14.001 6.055 14.001s-6.622-3.973-8.517-10.596c0 0-16.083-12.49-28.573-4.56l2.249-39.315z" fill="#DFE5EE"/><path opacity=".1" d="M374.604 223.62s-27.433 16.843-26.111 31.614c0 0 15.328-27.074 26.111-31.614z" fill="#000"/><path opacity=".1" d="M350.809 239.622l.132 23.065c-5.189.233-10.079-.44-13.945-3.8-2.691-2.341-4.256-5.574-5.067-9.07a32.138 32.138 0 01-.659-8.579.617.617 0 010-.086c.32-6.369 1.784-12.738 1.014-19.067-.771-6.329-4.606-13.007-10.869-14.34-1.237-.268-2.625-.365-3.507-1.272-.972-1.013-.927-2.589-.82-3.993l.182-2.366c.046-.608.066-1.211.066-1.814a23.22 23.22 0 00-18.748-22.771l-.203-.036c-1.763-.355-3.598-.704-5.361-.299-3.354.775-5.523 4.029-8.614 5.574-5.929 2.959-15.814-.279-22.022-1.297-.405-.066-.79-.142-1.16-.228a32.75 32.75 0 013.165-18.151 32.734 32.734 0 1157.787 30.702c.096.192.203.385.314.567 6.886 11.401 28.969 4.191 28.969 4.191l1.327 40.683-1.981 2.387z" fill="#000"/><path d="M285.601 180.205c3.07-1.55 5.239-4.803 8.614-5.573 1.758-.406 3.592-.056 5.366.294l.202.04a23.238 23.238 0 0114.003 8.75 23.235 23.235 0 014.659 15.841l-.182 2.366c-.111 1.398-.157 2.984.826 3.988.877.907 2.265 1.013 3.501 1.267 6.263 1.337 10.099 7.98 10.869 14.344.77 6.365-.719 12.754-1.013 19.149-.294 6.395.881 13.453 5.715 17.654 7.601 6.587 19.154 2.837 29.212 2.234-4.449 0-7.783-4.591-8.026-9.029-.243-4.439 1.733-8.665 3.623-12.668 1.89-4.003 3.785-8.31 3.364-12.739-.577-6.08-5.371-10.95-7.205-16.802-2.138-6.81-.076-14.122.892-21.201 1.819-13.255-1.014-28.178-11.274-36.746-4.297-3.583-9.552-5.787-14.274-8.786-8.462-5.367-15.136-13.236-23.689-18.455-8.553-5.219-20.562-7.154-28.026-.466-2.888 2.589-4.753 6.182-7.722 8.68-5.802 4.89-15.024 4.981-19.676 10.98-4.003 5.164-2.918 12.496-1.636 18.906 1.707 8.548.745 15.201 9.881 16.721 6.181.978 16.062 4.216 21.996 1.251z" fill="#603556"/><path opacity=".1" d="M360.877 256.475c-7.322.897-14.578 1.358-19.908-3.263-4.834-4.201-6.025-11.254-5.716-17.654.309-6.4 1.789-12.794 1.013-19.153-.775-6.36-4.606-13.003-10.869-14.34-1.236-.264-2.619-.36-3.501-1.267-.978-1.013-.937-2.594-.826-3.993l.183-2.366a23.236 23.236 0 00-18.662-24.586l-.203-.04c-1.774-.35-3.608-.699-5.366-.294-3.355.775-5.523 4.054-8.614 5.574-5.934 2.964-15.809-.274-22.027-1.292-9.12-1.495-8.168-8.158-9.881-16.722-.957-4.783-1.803-10.083-.506-14.613a7.97 7.97 0 00-.7.816c-4.003 5.163-2.918 12.495-1.636 18.905 1.707 8.548.745 15.201 9.881 16.721 6.212 1.014 16.093 4.257 22.026 1.292 3.071-1.55 5.24-4.803 8.614-5.573 1.758-.406 3.593-.056 5.366.293l.203.041a23.24 23.24 0 0118.662 24.59l-.182 2.367c-.112 1.398-.158 2.984.825 3.988.877.907 2.265 1.013 3.502 1.266 6.263 1.338 10.099 7.981 10.869 14.345.77 6.365-.715 12.754-1.014 19.149-.299 6.394.882 13.453 5.716 17.653 7.601 6.588 19.154 2.838 29.212 2.235-2.731.015-5.027-1.718-6.461-4.079z" fill="#000"/><path d="M155.235 273.379l31.239-11.654a2.975 2.975 0 013.825 1.743 2.971 2.971 0 01-1.743 3.825l-31.238 11.655-6.699-.669 4.616-4.9z" fill="#5C5C8E"/><path opacity=".1" d="M189.357 262.515a2.976 2.976 0 01-1.748 3.826l-31.259 11.695-5.027-.507-.724.77 6.698.669 31.239-11.654a2.976 2.976 0 001.743-3.826 2.974 2.974 0 00-1.216-1.485c.112.162.211.333.294.512z" fill="#fff"/><path d="M155.24 273.379l2.078 5.569-5.493-.553-1.201-.121 1.642-1.743 2.974-3.152z" fill="#EFC8C4"/><path d="M152.261 276.515c.128.096.238.215.324.35a.509.509 0 010 .542 1.105 1.105 0 01-.299.218 1.007 1.007 0 00-.446.75l-1.206-.117 1.627-1.743z" fill="#727A9C"/><path d="M253.318 308.945s27.059-5.68 72.46 1.52l-17.786-13.053-32.358-6.623-22.893 6.081.577 12.075z" fill="#fff"/><path opacity=".1" d="M253.318 308.945s27.059-5.68 72.46 1.52l-17.786-13.053-32.358-6.623-22.893 6.081.577 12.075z" fill="#000"/><path d="M250.146 315.086s13.626-36.858 83.607.117l-25.118-16.164s-60.171-16.625-67.123 2.533l8.634 13.514z" fill="#fff"/><path opacity=".1" d="M250.146 315.061s13.626-39.407 83.607.709l-25.117-17.532s-60.192-19.883-67.159.927l8.669 15.896z" fill="#000"/><path d="M250.146 315.076s13.626-39.99 83.607.126l-25.118-17.532s-60.171-19.315-67.123 1.521l8.634 15.885z" fill="#fff"/><path opacity=".1" d="M250.146 315.086s13.626-44.443 83.607.684l-25.138-19.726s-60.171-20.268-67.123 3.121l8.654 15.921z" fill="#000"/><path d="M333.753 315.202c-69.981-45.127-83.607-.141-83.607-.141l-1.359-2.586c-14.586-1.432-80.2.29-80.2.29l-2.879-15.708c32.122-2.253 72.712.971 75.88 1.23 7.391-22.899 67.027-2.811 67.027-2.811l25.138 19.726z" fill="#fff"/><path opacity=".1" d="M460.096 310.825s-16.798 17.993-1.678 26.733c0 0 1.977 2.382 4.799 1.135 0 0-.953-.846.958-2.477a11.354 11.354 0 001.798-1.976 5.574 5.574 0 001.044-3.375s2.199-7.14-4.788-16.407c0 0-.634-3.101-1.171-3.441l-1.277 4.322s3.208.816 4.414 3.258c0 0-4.226-3.318-4.637-2.624-.081.142-.572 2.326-.572 2.326s5.574 1.439 7.317 5.269c0 0-4.505-4.626-7.51-4.444l-.547 3.335s5.964 1.236 8.107 5.523c0 0-4.874-4.677-8.188-4.784l-.096 3.35s5.791 1.317 7.56 4.895c0 0-6.177-4.829-7.53-4.125 0 0 .096 3.086.507 3.891 0 0 4.135 1.014 4.976 3.213 0 0-4.469-2.792-4.855-2.366 0 0 1.201 3.982 2.873 5.68 0 0-2.655-2.326-3.486-5.463 0 0-1.125 1.961-.841 3.887 0 0-1.657-1.834.563-4.854 0 0-.811-3.142-.608-3.638 0 0-2.61 2.67-3.279 5.067 0 0-.506-3 3.274-5.934v-3.375s-3.639 3.35-4.389 5.422c0 0-.05-3.141 4.465-6.268l.506-3.278s-3.354 2.645-4.687 4.773c0 0 .578-2.929 4.865-5.706l.592-2.148s-2.411 1.976-3.04 2.604c-.628.629-.866.507-.866.507a10.641 10.641 0 014.155-4.023s1.55-4.368 1.272-4.484zM535.185 18.049s-22.442 10.134-11.862 24.013c0 0 .907 2.964 3.987 2.903 0 0-.552-1.15 1.84-1.92a11.1 11.1 0 002.422-1.13 5.573 5.573 0 002.265-2.711s4.783-5.736 1.91-16.98c0 0 .613-3.106.248-3.628l-2.847 3.497s2.645 1.986 2.817 4.707c0 0-2.615-4.692-3.263-4.206-.132.096-1.424 1.92-1.424 1.92s4.56 3.477 4.717 7.687c0 0-2.371-6.01-5.219-7.002l-1.788 2.868s5.026 3.44 5.361 8.223c0 0-2.696-6.191-5.711-7.57l-1.383 3.04s4.839 3.451 5.067 7.434c0 0-3.836-6.84-5.356-6.709 0 0-1.1 2.878-1.014 3.785 0 0 3.416 2.534 3.355 4.885 0 0-3.04-4.297-3.547-4.054 0 0-.431 4.135.461 6.35 0 0-1.556-3.173-1.11-6.385 0 0-1.799 1.378-2.275 3.263 0 0-.821-2.336 2.392-4.267 0 0 .461-3.207.841-3.587 0 0-3.441 1.454-4.971 3.39 0 0 .684-2.965 5.31-4.211l1.318-3.101s-4.647 1.682-6.141 3.304c0 0 1.165-2.919 6.536-4.054l1.728-2.827s-4.114 1.15-6.167 2.594c0 0 1.667-2.473 6.694-3.385l1.373-1.753s-2.989.892-3.825 1.226c-.837.335-1.014.137-1.014.137a10.642 10.642 0 015.417-2.108s3.04-3.435 2.858-3.638zM322.18 24.322s-33.716 9.628-17.324 23.957c0 0 1.454 3.04 6.121 3.04 0 0-.872-1.175 2.736-1.89 1.242-.25 2.46-.609 3.638-1.074a6.487 6.487 0 003.354-2.68s7.094-5.675 2.438-17.117c0 0 .846-3.121.278-3.658l-4.215 3.455s4.053 2.083 4.393 4.834c0 0-4.089-4.808-5.067-4.337-.198.096-2.108 1.9-2.108 1.9s7.033 3.638 7.352 7.9c0 0-3.749-6.136-8.107-7.216l-2.635 2.848s7.702 3.613 8.335 8.457c0 0-4.246-6.329-8.847-7.803l-2.027 3.04s7.419 3.618 7.905 7.651c0 0-5.994-7.018-8.295-6.932 0 0-1.586 2.889-1.444 3.806 0 0 5.239 2.675 5.214 5.026 0 0-4.733-4.428-5.513-4.195 0 0-.537 4.17.872 6.43 0 0-2.443-3.248-1.855-6.481 0 0-2.68 1.343-3.354 3.233 0 0-1.308-2.377 3.506-4.241 0 0 .613-3.233 1.176-3.608 0 0-5.169 1.378-7.434 3.294 0 0 .953-2.98 7.925-4.115l1.915-3.101s-6.992 1.58-9.211 3.177c0 0 1.687-2.919 9.794-3.932l2.534-2.812s-6.202 1.049-9.273 2.457c0 0 2.458-2.457 10.043-3.243l2.027-1.733s-4.505.821-5.761 1.136c-1.257.314-1.521.11-1.521.11a19.963 19.963 0 018.108-1.985s4.621-3.385 4.327-3.598zM421.652 400.005s16.974-17.831 1.94-26.719c0 0-1.956-2.401-4.788-1.185 0 0 .947.856-.978 2.472a11.47 11.47 0 00-1.819 1.956 5.536 5.536 0 00-1.074 3.365s-2.275 7.119 4.626 16.453c0 0 .603 3.106 1.135 3.455l1.322-4.312s-3.202-.846-4.383-3.298c0 0 4.191 3.354 4.606 2.665.087-.142.598-2.316.598-2.316s-5.573-1.52-7.266-5.34c0 0 4.459 4.671 7.469 4.514l.578-3.329s-5.949-1.292-8.062-5.574c0 0 4.829 4.723 8.143 4.865l.126-3.355s-5.781-1.398-7.534-4.996c0 0 6.131 4.895 7.489 4.201 0 0-.066-3.081-.507-3.892 0 0-4.125-1.084-4.945-3.263 0 0 4.443 2.838 4.829 2.412 0 0-1.161-3.993-2.818-5.705 0 0 2.635 2.351 3.436 5.492 0 0 1.145-1.951.876-3.876 0 0 1.642 1.855-.608 4.849 0 0 .781 3.152.573 3.643 0 0 2.635-2.645 3.324-5.011 0 0 .507 3.005-3.329 5.898l-.051 3.375s3.669-3.314 4.439-5.381c0 0 0 3.146-4.525 6.227l-.507 3.273s3.38-2.614 4.733-4.727c0 0-.608 2.918-4.92 5.655l-.613 2.143s2.432-1.951 3.08-2.574c.649-.623.872-.507.872-.507a10.599 10.599 0 01-4.196 3.983s-1.525 4.342-1.271 4.464zM256.095.628s2.893 24.444 19.331 18.546c0 0 3.096.025 3.967-2.934 0 0-1.266.182-1.276-2.33a11.391 11.391 0 00-.35-2.651 5.535 5.535 0 00-1.9-2.974s-4.034-6.294-15.642-6.912c0 0-2.777-1.52-3.385-1.327l2.478 3.764s2.69-1.925 5.335-1.266c0 0-5.259 1.084-4.991 1.844.051.157 1.399 1.936 1.399 1.936s4.737-3.345 8.791-2.205c0 0-6.44.446-8.244 2.863l2.164 2.574s4.793-3.76 9.46-2.64c0 0-6.719.71-8.944 3.167l2.524 2.24s4.743-3.577 8.614-2.615c0 0-7.682 1.602-8.016 3.086 0 0 2.417 1.916 3.309 2.118 0 0 3.465-2.488 5.665-1.728 0 0-5.017 1.612-4.941 2.18 0 0 3.816 1.651 6.192 1.469 0 0-3.491.507-6.42-.862 0 0 .77 2.123 2.427 3.152 0 0-2.472.076-3.349-3.547 0 0-2.919-1.409-3.167-1.88 0 0 .355 3.714 1.738 5.756 0 0-2.625-1.52-2.422-6.328l-2.534-2.194s.208 4.94 1.303 6.855c0 0-2.433-1.991-1.906-7.458l-2.173-2.498s-.147 4.266.613 6.658c0 0-1.86-2.331-1.211-7.398l-1.262-1.84s-.046 3.117 0 4.019c.046.902-.172.988-.172.988a10.637 10.637 0 01-.395-5.792s-2.357-3.957-2.61-3.836zM378.951 344.566s-23.724-6.587-24.484 10.864c0 0-1.196 2.858 1.211 4.783 0 0 .309-1.236 2.64-.299a11.34 11.34 0 002.584.684 5.53 5.53 0 003.476-.638s7.348-1.348 12.334-11.827c0 0 2.457-1.991 2.533-2.629l-4.423.866s.76 3.223-.852 5.422c0 0 1.014-5.28.188-5.321-.167 0-2.326.563-2.326.563s1.297 5.604-1.292 8.923c0 0 2.027-6.131.471-8.715l-3.212 1.059s1.662 5.857-1.145 9.749c0 0 1.895-6.481.456-9.471l-3.01 1.465s1.52 5.746-.846 8.968c0 0 1.428-7.712.177-8.588 0 0-2.686 1.52-3.208 2.26 0 0 1.014 4.15-.547 5.898 0 0 .406-5.255-.147-5.397 0 0-2.979 2.904-3.709 5.174 0 0 .836-3.431 3.233-5.615 0 0-2.26-.091-3.836 1.049 0 0 .862-2.315 4.561-1.743 0 0 2.411-2.174 2.944-2.219 0 0-3.547-1.084-5.99-.578 0 0 2.422-1.844 6.775.162l3-1.52s-4.652-1.677-6.836-1.388c0 0 2.762-1.52 7.601 1.059l3.131-1.069s-3.891-1.748-6.394-1.951c0 0 2.862-.836 7.306 1.682l2.179-.471s-2.868-1.226-3.724-1.52c-.857-.294-.851-.507-.851-.507 1.962.09 3.861.721 5.487 1.824 0 0 4.561-.709 4.545-.988z" fill="#3198AF"/></g><defs><linearGradient id="paint0_linear" x1="269.776" y1="303.66" x2="269.776" y2="117.693" gradientUnits="userSpaceOnUse"><stop stop-color="gray" stop-opacity=".25"/><stop offset=".54" stop-color="gray" stop-opacity=".12"/><stop offset="1" stop-color="gray" stop-opacity=".1"/></linearGradient><clipPath id="clip0"><path fill="#fff" d="M0 0h536.669v400H0z"/></clipPath></defs></svg>