<svg width="532" height="400" viewBox="0 0 532 400" fill="none" xmlns="http://www.w3.org/2000/svg">
<g clip-path="url(#clip0)">
<path opacity="0.1" d="M522.475 178.118C522.38 178.685 522.285 179.253 522.18 179.82C518.78 199.146 513.23 217.778 504.978 234.884C504.707 235.452 504.431 236.019 504.151 236.587C498.855 247.373 492.351 257.509 484.768 266.797C480.657 271.808 476.174 276.566 470.845 280.002C463.375 284.815 454.641 286.771 446.058 288.372C437.138 290.039 428.104 291.413 419.089 292.933C415.894 293.46 412.719 294.012 409.563 294.59C400.855 296.181 392.211 298.02 383.773 300.457C373.34 303.498 363.217 307.414 353.691 312.963C352.929 313.402 352.176 313.853 351.43 314.316C350.683 314.772 349.926 315.238 349.199 315.714C348.472 316.191 347.74 316.662 347.018 317.143L345.905 317.903C345.539 318.147 345.178 318.41 344.817 318.653C343.744 319.393 342.686 320.173 341.629 320.923L341.588 320.954C340.892 321.46 340.2 321.967 339.508 322.474C335.602 325.398 331.782 328.458 327.976 331.529L325.575 333.469C324.335 334.463 323.095 335.454 321.855 336.444C321.128 337.026 320.391 337.604 319.659 338.182C319.127 338.602 318.601 339.023 318.059 339.438C315.347 341.551 312.6 343.619 309.797 345.595C309.13 346.066 308.453 346.537 307.792 346.998C302.181 350.877 296.214 354.199 289.973 356.92L289.893 356.955C286.819 358.28 283.655 359.382 280.427 360.254C278.577 360.761 276.727 361.161 274.852 361.475C269.857 362.348 264.758 362.437 259.736 361.739C249.864 360.325 240.614 355.658 230.767 354.097C210.452 350.91 190.723 361.191 171.606 369.263C166.927 371.243 162.195 373.101 157.412 374.837C154.244 375.992 151.06 377.092 147.862 378.136C128.374 384.506 108.294 388.847 87.9335 391.092C79.6209 392.009 70.9523 392.445 62.4893 391.786C59.2934 391.549 56.1131 391.131 52.9634 390.535C42.2493 388.508 32.2471 384.206 24.1901 376.347C17.4969 369.917 12.7741 361.511 9.17431 352.739C7.72704 349.216 6.4519 345.612 5.3489 341.926C3.61519 336.15 2.313 330.251 1.45331 324.278C1.25777 322.93 1.0823 321.577 0.951942 320.224C0.691233 317.903 0.49737 315.572 0.370358 313.231C-0.331611 300.79 0.870776 288.313 3.93505 276.242C7.34934 262.87 13.0448 250.065 15.5517 236.567C15.6569 235.999 15.7522 235.432 15.8475 234.864C16.1817 232.837 16.4357 230.773 16.6095 228.672C17.873 212.164 12.9847 196.005 9.12417 179.82C8.9888 179.253 8.85343 178.685 8.72308 178.118C8.30527 176.324 7.9092 174.529 7.53484 172.732C3.96012 155.615 2.98246 137.298 6.15609 120.216C6.25637 119.649 6.37168 119.076 6.487 118.514C8.62782 107.934 12.4081 97.8706 18.1989 88.907C24.14 79.7052 31.9412 72.0488 40.2589 65.3197C44.3199 62.043 48.5197 58.9774 52.8581 56.123C55.9766 54.0759 59.1519 52.1386 62.384 50.3111C88.5001 35.6165 118.296 28.4365 147.756 30.0428C149.317 30.1238 150.875 30.2319 152.429 30.367C154.06 30.5089 155.686 30.6778 157.307 30.8738C176.274 33.0881 194.729 38.5757 213.074 44.5802C219.221 46.607 225.352 48.6339 231.484 50.6607C234.211 51.5592 236.937 52.446 239.661 53.3209C253.023 57.5823 266.604 61.4282 280.312 64.3266C283.49 65.0022 286.666 65.6187 289.838 66.1761C300.865 68.1726 312.025 69.3345 323.223 69.6521C327.569 69.7602 331.914 69.7146 336.259 69.5153C338.455 69.4139 340.653 69.2653 342.852 69.0694C365.569 67.1033 387.473 60.5111 409.468 54.3191C412.647 53.4222 415.83 52.5304 418.994 51.669C423.175 50.534 427.362 49.4345 431.563 48.421C457.724 42.072 481.038 45.7203 505.359 58.8136C510.874 61.788 516.389 65.3755 519.798 70.929C523.207 76.4825 524.035 83.3585 524.666 89.9761C525.559 99.3907 526.17 108.937 526.366 118.524C526.366 119.092 526.366 119.659 526.401 120.227C526.842 139.639 525.674 159.197 522.475 178.118Z" fill="#3198AF"/>
<path opacity="0.1" d="M348.958 234.884H347.249V235.639V236.587H349.184L348.958 234.884ZM329.581 234.884C329.578 234.898 329.578 234.911 329.581 234.925L329.43 236.333V236.46V236.587H344.271V236.485L345.329 234.884H329.581ZM289.898 234.884V179.82H306.944C306.764 179.668 306.578 179.516 306.388 179.374L306.137 179.182C306.032 179.096 305.926 179.015 305.816 178.939C305.706 178.863 305.445 178.67 305.25 178.538C305.054 178.407 304.934 178.321 304.748 178.214L304.633 178.138H304.608H289.898V175.123L289.502 175.316L289.081 175.554H289.051L288.96 175.61L288.7 175.782C288.609 175.838 288.519 175.893 288.434 175.954C288.173 176.132 287.932 176.324 287.657 176.522L287.406 176.724C287.236 176.856 287.075 176.993 286.905 177.13C286.238 177.682 285.581 178.26 284.899 178.792C284.729 178.929 284.558 179.06 284.398 179.187C284.033 179.457 283.655 179.707 283.265 179.937C283.103 180.039 282.935 180.132 282.763 180.216L282.483 180.347L282.227 180.459C281.625 180.716 281 180.916 280.362 181.057V234.884H254.792C254.792 234.945 254.827 235.001 254.842 235.062C254.983 235.568 255.123 236.075 255.259 236.582H280.367V295.608H280.758L281.204 295.639L282.016 295.699L283.33 295.831L283.922 295.902L284.573 295.983H284.669C285.045 296.034 285.426 296.095 285.812 296.155L286.057 296.196L286.609 296.287L287.401 296.429L289.301 296.328L289.562 296.383C289.667 296.383 289.772 296.424 289.883 296.449V236.587H329.395V236.46V236.333L329.546 234.925C329.543 234.911 329.543 234.898 329.546 234.884H289.898ZM348.958 234.884H347.249V235.639V236.587H349.184L348.958 234.884ZM328.513 234.884L328.342 236.587H344.852L345.975 234.884H328.513ZM289.908 234.884V179.82H306.954C306.774 179.668 306.588 179.516 306.398 179.374L306.147 179.182C306.042 179.096 305.936 179.015 305.826 178.939C305.716 178.863 305.455 178.67 305.26 178.538C305.064 178.407 304.944 178.321 304.758 178.214L304.643 178.138H304.608H289.898V175.123L289.502 175.316L289.081 175.554H289.051L288.96 175.61L288.7 175.782C288.609 175.838 288.519 175.893 288.434 175.954C288.173 176.132 287.932 176.324 287.657 176.522L287.406 176.724C287.236 176.856 287.075 176.993 286.905 177.13C286.238 177.682 285.581 178.26 284.899 178.792C284.729 178.929 284.558 179.06 284.398 179.187C284.033 179.457 283.655 179.707 283.265 179.937C283.103 180.039 282.935 180.132 282.763 180.216L282.483 180.347L282.227 180.459C281.625 180.716 281 180.916 280.362 181.057V234.884H254.792C254.792 234.945 254.827 235.001 254.842 235.062C254.983 235.568 255.128 236.075 255.264 236.582H280.367V295.603L280.758 295.628L281.204 295.659L282.016 295.72L283.33 295.851L283.922 295.922L284.573 296.003H284.669C285.045 296.054 285.426 296.115 285.812 296.176L286.057 296.216L286.609 296.307L287.401 296.449L289.301 296.348L289.562 296.404C289.667 296.404 289.772 296.444 289.883 296.47V236.587H328.342L328.523 234.884H289.908ZM419.089 120.216H526.496C526.496 119.649 526.496 119.081 526.461 118.514H419.089V51.6589C415.901 52.5203 412.717 53.4121 409.563 54.309V118.514H292.746L292.45 118.19L292.896 117.683L336.344 69.4899C331.999 69.6926 327.654 69.7382 323.309 69.6267L289.898 106.667V66.1659C286.709 65.6085 283.534 64.992 280.372 64.3164V104.802L231.524 50.6505C225.392 48.6237 219.261 46.5614 213.114 44.57L279.51 118.19L279.214 118.514H157.347V30.8535C155.723 30.6677 154.097 30.4988 152.469 30.3468C150.915 30.2083 149.357 30.1002 147.796 30.0225V118.514H62.4241V50.311C59.1853 52.1352 56.01 54.0725 52.8982 56.123V118.514H6.46689C6.35157 119.076 6.23626 119.649 6.13599 120.216H52.8581V178.118H8.72302C8.85338 178.685 8.98875 179.253 9.12412 179.82H52.8781V234.884H15.8324C15.7371 235.452 15.6418 236.019 15.5366 236.587H52.8781V390.55C56.0279 391.146 59.2081 391.564 62.404 391.801V236.587H147.796V378.151C150.998 377.1 154.182 376.001 157.347 374.852V236.587H280.352V360.274C283.58 359.402 286.743 358.3 289.818 356.975L289.898 356.94V236.587H409.533V294.59C412.705 294.012 415.88 293.46 419.059 292.933V236.587H504.126C504.406 236.019 504.682 235.452 504.953 234.884H419.089V179.82H522.185C522.29 179.253 522.385 178.685 522.48 178.118H419.089V120.216ZM62.4291 120.216H147.796V178.118H62.4241L62.4291 120.216ZM62.4291 234.884V179.82H147.796V234.884H62.4291ZM157.352 120.216H280.352V178.118H157.347L157.352 120.216ZM157.352 234.884V179.82H280.352V234.884H157.352ZM409.538 234.884H289.898V179.82H409.533L409.538 234.884ZM409.538 178.133H289.898V121.767L291.577 120.216H409.533L409.538 178.133ZM329.586 234.884C329.583 234.898 329.583 234.911 329.586 234.925L329.435 236.333V236.46V236.587H344.276V236.485L345.334 234.884H329.586ZM348.964 234.884H347.254V235.639V236.587H349.189L348.964 234.884ZM289.903 234.884V179.82H306.949C306.769 179.668 306.583 179.516 306.393 179.374L306.142 179.182C306.037 179.096 305.931 179.015 305.821 178.939C305.711 178.863 305.45 178.67 305.255 178.538C305.059 178.407 304.939 178.321 304.753 178.214L304.638 178.138H304.613H289.898V175.123L289.502 175.316L289.081 175.554H289.051L288.96 175.61L288.7 175.782C288.609 175.838 288.519 175.893 288.434 175.954C288.173 176.132 287.932 176.324 287.657 176.522L287.406 176.724C287.236 176.856 287.075 176.993 286.905 177.13C286.238 177.682 285.581 178.26 284.899 178.792C284.729 178.929 284.558 179.06 284.398 179.187C284.033 179.457 283.655 179.707 283.265 179.937C283.103 180.039 282.935 180.132 282.763 180.216L282.483 180.347L282.227 180.459C281.625 180.716 281 180.916 280.362 181.057V234.884H254.792C254.792 234.945 254.827 235.001 254.842 235.062C254.983 235.568 255.123 236.075 255.259 236.582H280.367V295.608H280.758L281.204 295.639L282.016 295.699L283.33 295.831L283.922 295.902L284.573 295.983H284.669C285.045 296.034 285.426 296.095 285.812 296.155L286.057 296.196L286.609 296.287L287.401 296.429L289.301 296.328L289.562 296.383C289.667 296.383 289.772 296.424 289.883 296.449V236.587H329.395V236.46V236.333L329.546 234.925C329.543 234.911 329.543 234.898 329.546 234.884H289.903Z" fill="#3198AF"/>
<path opacity="0.1" d="M103.471 80.3486H104.233C103.972 80.1961 103.753 79.9807 103.594 79.7216C103.436 79.4625 103.344 79.1679 103.325 78.8639C103.325 77.6884 104.749 76.7307 106.489 76.7307H128.624C130.364 76.7307 131.788 77.6884 131.788 78.8639C131.788 80.0344 130.364 80.9972 128.624 80.9972H127.887C128.147 81.1507 128.365 81.3664 128.522 81.6254C128.68 81.8843 128.771 82.1785 128.79 82.4818C128.79 83.4953 127.757 84.3263 126.373 84.5543H132.745C134.48 84.5543 135.904 85.512 135.904 86.6875C135.904 87.8631 134.48 88.8157 132.745 88.8157H110.585C108.85 88.8157 107.426 87.858 107.426 86.6875C107.426 85.6741 108.459 84.8431 109.843 84.6151H103.471C101.736 84.6151 100.312 83.6574 100.312 82.4818C100.312 81.3063 101.726 80.3486 103.471 80.3486Z" fill="#3198AF"/>
<path opacity="0.1" d="M343.383 100.652H344.125C343.864 100.499 343.645 100.283 343.486 100.023C343.328 99.7629 343.236 99.4674 343.218 99.1627C343.218 97.9922 344.642 97.0345 346.382 97.0345H368.517C370.257 97.0345 371.68 97.9922 371.68 99.1627C371.68 100.338 370.257 101.296 368.517 101.296H367.78C368.04 101.45 368.258 101.667 368.415 101.927C368.573 102.187 368.664 102.482 368.682 102.786C368.682 103.799 367.649 104.625 366.266 104.853H372.638C374.373 104.853 375.797 105.816 375.797 106.986C375.797 108.157 374.373 109.12 372.638 109.12H350.508C348.773 109.12 347.349 108.162 347.349 106.986C347.349 105.973 348.382 105.142 349.766 104.919H343.383C341.649 104.919 340.225 103.956 340.225 102.786C340.225 101.615 341.659 100.652 343.383 100.652Z" fill="#3198AF"/>
<path opacity="0.1" d="M69.5135 187.538H70.2555C69.9955 187.383 69.7772 187.167 69.6198 186.907C69.4624 186.647 69.3708 186.352 69.353 186.048C69.353 184.877 70.7719 183.915 72.5116 183.915H94.6468C96.3866 183.915 97.8104 184.877 97.8104 186.048C97.8104 187.223 96.3866 188.181 94.6468 188.181H93.9098C94.1697 188.335 94.388 188.552 94.5454 188.812C94.7028 189.072 94.7945 189.367 94.8123 189.671C94.8123 190.684 93.7795 191.51 92.3957 191.738H98.768C100.508 191.738 101.927 192.696 101.927 193.871C101.927 195.047 100.508 196.005 98.768 196.005H76.6278C74.8931 196.005 73.4692 195.042 73.4692 193.871C73.4692 192.858 74.507 192.027 75.8858 191.799H69.5135C67.7787 191.799 66.3549 190.841 66.3549 189.671C66.3549 188.5 67.7787 187.538 69.5135 187.538Z" fill="#3198AF"/>
<path d="M325.515 333.49C324.275 334.483 323.035 335.474 321.795 336.464C321.068 337.047 320.331 337.624 319.599 338.202C319.067 338.623 318.541 339.043 317.999 339.459C315.287 341.572 312.539 343.639 309.737 345.615C309.07 346.086 308.393 346.558 307.731 347.019C302.121 350.897 296.154 354.219 289.913 356.94L289.833 356.975V333.49H325.515Z" fill="#65617D"/>
<path d="M381.307 241.188L381.868 223.681C381.532 223.417 381.191 223.174 380.865 222.931C381.004 217.711 380.709 212.489 379.983 207.319C377.717 189.813 363.002 189.433 358.85 193.045C358.3 193.525 357.7 193.943 357.061 194.292C357.437 191.794 357.903 189.291 358.239 186.818C360.054 173.481 357.236 158.478 346.998 149.859C342.712 146.256 337.472 144.042 332.764 141.027C324.332 135.651 317.668 127.711 309.14 122.476C300.612 117.242 288.634 115.281 281.194 122.01C278.311 124.615 276.451 128.227 273.493 130.741C267.978 135.423 259.38 135.732 254.567 140.961C254.326 141.224 254.096 141.493 253.875 141.777C249.864 146.976 250.962 154.348 252.24 160.799C253.78 168.561 253.143 174.784 259.731 177.013C259.756 177.322 259.776 177.631 259.811 177.935C260.347 182.697 261.906 187.284 264.38 191.373C266.853 195.462 270.181 198.956 274.13 201.609L273.062 201.994C270.214 203.007 267.652 203.99 266.013 204.664C259.997 207.142 247.332 210.37 247.332 210.37C247.332 210.37 247.031 214.018 247.086 219.399C242.865 224.036 235.821 232.183 233.75 237.012C230.742 244.056 213.746 264.228 209.218 267.273C204.691 270.318 199.783 273.931 199.783 273.931C199.783 273.931 192.613 277.929 189.219 278.309C186.868 278.573 179.593 277.164 179.593 277.164C179.593 277.164 150.539 241.188 152.424 268.793C154.309 296.399 177.517 297.336 177.517 297.336L200.916 296.956C200.916 296.956 213.56 298.669 219.221 293.916C224.054 289.862 249.102 267.623 257.149 257.534C257.334 257.742 257.52 257.944 257.715 258.142C257.715 258.142 260.919 253.957 261.3 258.142C261.681 262.327 259.219 264.223 260.543 265.743C261.867 267.263 265.827 272.593 266.013 274.686C266.198 276.779 260.734 285.327 269.974 291.813C270.119 291.914 270.275 292.01 270.445 292.107C272.094 295.902 277.339 299.616 277.339 299.616L305.641 299.236L359.041 303.421C359.041 303.421 360.63 302.008 362.781 299.697C365.654 302.362 369.64 304.648 374.132 303.244C374.132 303.244 380.549 295.446 380.74 290.308C380.74 290.308 376.589 279.459 374.724 276.226C372.859 272.994 376.047 265.95 376.047 265.95C376.047 265.95 378.308 259.1 379.632 259.1C380.956 259.1 380.008 254.539 380.008 254.539C379.508 253.794 379.195 252.936 379.096 252.041C378.997 251.146 379.116 250.24 379.441 249.401C380.549 246.518 381.307 241.188 381.307 241.188Z" fill="url(#paint0_linear)"/>
<path d="M349.294 237.246L347.289 239.617L339.187 249.153L328.603 249.802L311.662 250.856C311.662 250.856 288.82 223.038 293.112 216.982C294.671 214.798 294.926 211.915 294.616 209.194C294.576 208.819 294.52 208.444 294.455 208.074C293.942 205.195 293.044 202.4 291.788 199.764L292.349 199.506L292.71 199.339L312.685 190.127L317.628 187.847C317.874 189.224 318.331 190.554 318.982 191.789C319.077 191.981 319.182 192.174 319.293 192.356C326.106 203.757 347.956 196.547 347.956 196.547L349.294 237.246Z" fill="#EE8E9E"/>
<path d="M378.83 223.012C378.679 229.914 377.566 232.893 377.566 232.893L349.294 237.246L348.236 229.827L344.05 200.535L347.981 196.562C349.551 196.904 351.178 196.878 352.737 196.484C354.295 196.09 355.744 195.341 356.97 194.292C361.086 190.694 375.691 191.074 377.937 208.48C378.597 213.294 378.895 218.152 378.83 223.012Z" fill="#EE8E9E"/>
<path d="M372.137 303.847C372.137 303.847 378.499 296.09 378.689 290.982L372.322 280.194L366.707 274.114L356.218 294.574C356.218 294.574 363.147 306.685 372.137 303.847Z" fill="#DFE5EE"/>
<path opacity="0.1" d="M372.137 303.847C372.137 303.847 378.499 296.09 378.689 290.982L372.322 280.194L366.707 274.114L356.218 294.574C356.218 294.574 363.147 306.685 372.137 303.847Z" fill="black"/>
<path d="M319.599 338.202C319.067 338.623 318.541 339.043 317.999 339.459C315.287 341.572 312.539 343.639 309.737 345.615C309.07 346.086 308.393 346.558 307.731 347.019H280.352H157.347H147.796L100.478 345.306L62.4241 344.982L52.8982 344.475L5.36892 341.941C3.62769 336.161 2.31879 330.256 1.45327 324.278C1.25774 322.93 1.08226 321.577 0.951904 320.224L52.8782 323.132L62.4041 323.675L147.776 328.488L157.327 329.026L280.332 335.967L289.798 336.505H289.878L319.599 338.202Z" fill="#D48A9B"/>
<path d="M383.743 300.457C373.31 303.498 363.187 307.414 353.661 312.963C352.904 313.404 352.157 313.855 351.4 314.316C350.643 314.777 349.896 315.238 349.169 315.714C348.442 316.191 347.71 316.662 346.988 317.143L345.875 317.903L344.787 318.653C343.714 319.398 342.656 320.173 341.598 320.923L341.558 320.954C340.862 321.46 340.17 321.967 339.478 322.474C335.572 325.397 331.752 328.458 327.946 331.529C327.144 332.177 326.34 332.824 325.535 333.469L321.825 336.444C321.098 337.026 320.361 337.604 319.629 338.182C319.097 338.602 318.571 339.023 318.029 339.438L289.953 338.085H289.873L280.407 337.64L157.347 331.747L147.796 331.285L62.4241 327.186L52.8982 326.725L1.45331 324.278C1.25778 322.93 1.0823 321.577 0.951945 320.224C0.691236 317.903 0.497373 315.572 0.370361 313.231L52.8932 294.483L62.4191 291.073L71.0727 287.982L86.8406 288.813L123.285 290.703L147.811 292.005L157.362 292.512L163.464 292.836L164.923 292.918L216.273 295.628L216.814 295.664L239.726 296.87H239.987H240.138L242.429 296.986L250.24 297.402L260.007 297.909L263.225 298.081L263.832 298.116L268.384 298.354L269.683 298.42L274.03 298.653L275.759 298.75H275.815H276.176L280.242 298.968L286.539 299.302H286.569L288.524 299.403H288.735L289.903 299.469L292.771 299.621L295.277 299.753H295.303L298.115 299.9H298.16L300.291 300.016L301.926 300.103L307.726 300.412L308.769 300.467H309.13L309.632 300.498L311.331 300.589L312.093 300.63L318.009 300.939H318.551L327.285 300.863H327.345L360.55 300.589H361.187H361.859H363.834L374.523 300.503H376.117L383.743 300.457Z" fill="#EFC6CD"/>
<path d="M159.639 301.152L162.727 317.756L246.695 316.479C246.695 316.479 253.012 318.324 252.872 313.216C252.872 313.216 265.652 301.01 330.383 315.203L305.53 295.476L237.596 299.165L158.821 297.037L159.639 301.152Z" fill="#3198AF"/>
<path d="M161.183 297.179L164.131 315.202C164.131 315.202 236.327 313.074 247.678 315.061L239.1 298.598C239.1 298.598 195.446 294.483 161.183 297.179Z" fill="white"/>
<path opacity="0.1" d="M161.183 297.179L164.131 315.202C164.131 315.202 236.327 313.074 247.678 315.061L239.1 298.598C239.1 298.598 195.446 294.483 161.183 297.179Z" fill="black"/>
<path d="M162.261 297.113L165.169 313.875C165.169 313.875 236.448 311.899 247.678 313.743L239.22 298.436C239.22 298.436 196.093 294.605 162.261 297.113Z" fill="white"/>
<path opacity="0.1" d="M163.569 297.63L166.402 313.307C166.402 313.307 236.117 311.458 247.121 313.186L238.849 298.861C238.849 298.861 196.664 295.264 163.569 297.63Z" fill="black"/>
<path d="M164.131 297.057L166.978 312.765C166.978 312.765 236.693 310.916 247.698 312.644L239.405 298.304C239.405 298.304 197.226 294.711 164.131 297.057Z" fill="white"/>
<path d="M114.807 254.428C114.807 254.428 118.456 259.247 113.127 266.528C107.797 273.81 103.395 279.951 105.175 284.491C105.175 284.491 113.197 270.972 119.765 270.81C126.333 270.648 122.011 262.556 114.807 254.428Z" fill="#3198AF"/>
<path opacity="0.1" d="M114.807 254.428C115.127 254.895 115.379 255.407 115.554 255.948C121.941 263.549 125.345 270.643 119.204 270.795C113.483 270.957 106.624 281.294 104.98 283.908C105.037 284.104 105.102 284.302 105.175 284.501C105.175 284.501 113.197 270.982 119.765 270.82C126.333 270.658 122.011 262.556 114.807 254.428Z" fill="black"/>
<path d="M121.59 260.574C121.59 262.267 121.4 263.645 121.169 263.645C120.938 263.645 120.748 262.267 120.748 260.574C120.748 258.882 120.983 259.672 121.214 259.672C121.445 259.672 121.59 258.877 121.59 260.574Z" fill="#FFD037"/>
<path d="M123.916 262.596C122.442 263.412 121.159 263.903 121.049 263.696C120.938 263.488 122.051 262.682 123.515 261.851C124.979 261.02 124.408 261.628 124.518 261.851C124.628 262.074 125.39 261.785 123.916 262.596Z" fill="#FFD037"/>
<path d="M95.5391 254.428C95.5391 254.428 91.8892 259.247 97.2237 266.528C102.558 273.81 106.95 279.951 105.175 284.491C105.175 284.491 97.1285 270.972 90.5807 270.81C84.0328 270.648 88.3345 262.556 95.5391 254.428Z" fill="#3198AF"/>
<path opacity="0.1" d="M95.5391 254.428C95.221 254.897 94.9696 255.409 94.7921 255.948C88.4047 263.549 85.0005 270.643 91.1422 270.795C96.8627 270.957 103.726 281.294 105.371 283.908C105.317 284.104 105.252 284.302 105.175 284.501C105.175 284.501 97.1285 270.982 90.5807 270.82C84.0328 270.658 88.3345 262.556 95.5391 254.428Z" fill="black"/>
<path d="M88.7557 260.574C88.7557 262.267 88.9463 263.645 89.1769 263.645C89.4075 263.645 89.598 262.267 89.598 260.574C89.598 258.882 89.3624 259.672 89.1318 259.672C88.9011 259.672 88.7557 258.877 88.7557 260.574Z" fill="#FFD037"/>
<path d="M86.4295 262.596C87.9035 263.412 89.192 263.903 89.3023 263.696C89.4126 263.488 88.2996 262.682 86.8356 261.851C85.3716 261.02 85.9432 261.628 85.8329 261.851C85.7226 262.074 84.9555 261.785 86.4295 262.596Z" fill="#FFD037"/>
<path d="M124.789 277.99L124.608 279.51L124.353 281.633L124.247 282.52L123.992 284.648L123.881 285.535L123.621 287.663L120.703 311.843C120.442 314.002 116.952 315.684 112.741 315.684H97.5898C93.3784 315.684 89.8939 314.002 89.6332 311.843L86.7102 287.663L86.4545 285.535L86.3493 284.648L86.0885 282.52L85.9833 281.633L85.7276 279.51L85.5421 277.99C85.3967 276.769 87.2818 275.74 89.6683 275.74H120.683C123.064 275.74 124.954 276.769 124.789 277.99Z" fill="#65617D"/>
<path d="M124.623 279.495L124.368 281.623H85.9832L85.7275 279.495H124.623Z" fill="#9D9CB5"/>
<path d="M124.262 282.51L124.007 284.638H86.3492L86.0885 282.51H124.262Z" fill="#9D9CB5"/>
<path d="M123.896 285.525L123.641 287.648H86.7102L86.4545 285.525H123.896Z" fill="#9D9CB5"/>
<path d="M171.06 276.034C171.06 276.034 161.323 266.574 161.699 278.872C162.075 291.169 171.06 276.034 171.06 276.034Z" fill="#EE8E9E"/>
<path d="M258.492 254.463C258.277 255.416 257.229 256.997 255.595 258.978C247.152 269.254 223.131 290.612 218.423 294.574C212.808 299.307 200.264 297.615 200.264 297.615L177.051 297.995C177.051 297.995 154.023 297.047 152.148 269.619C150.273 242.191 179.107 277.944 179.107 277.944C179.107 277.944 186.326 279.343 188.658 279.079C192.027 278.704 199.141 274.732 199.141 274.732C199.141 274.732 204.009 271.134 208.501 268.109C212.994 265.084 229.845 245.024 232.843 238.021C234.743 233.577 240.865 226.311 245.091 221.598C247.518 218.888 249.318 217.038 249.318 217.038C249.318 217.038 259.801 248.596 258.492 254.463Z" fill="#EE8E9E"/>
<path opacity="0.1" d="M258.493 254.463C258.277 255.416 257.229 256.997 255.595 258.978C247.071 250.207 245.292 232.705 245.091 221.578C247.518 218.867 249.318 217.018 249.318 217.018C249.318 217.018 259.801 248.596 258.493 254.463Z" fill="black"/>
<path opacity="0.1" d="M347.284 239.617L339.187 249.153L328.603 249.802L311.662 250.856C311.662 250.856 288.82 223.037 293.112 216.982C294.671 214.798 294.926 211.915 294.616 209.194C294.576 208.819 294.52 208.444 294.455 208.074C293.942 205.195 293.044 202.4 291.788 199.764L292.349 199.506L292.71 199.339C293.602 201.849 294.217 204.45 294.545 207.096C294.601 207.456 294.651 207.831 294.701 208.216C294.876 209.584 295.037 211.104 295.202 212.777C296.506 228.089 306.037 233.851 310.338 235.685C311.722 236.274 313.074 236.936 314.389 237.666C318.528 239.973 323.301 240.845 327.976 240.149C338.595 238.74 347.254 230.942 347.254 230.942L347.299 238.619L347.284 239.617Z" fill="black"/>
<path d="M347.61 299.12C347.61 299.12 277.965 298.927 268.785 292.497C259.605 286.067 265.045 277.549 264.855 275.467C264.664 273.384 260.739 268.089 259.43 266.569C258.121 265.049 260.553 263.164 260.177 259.004C259.801 254.844 256.622 259.004 256.622 259.004C243.512 245.566 246.319 211.51 246.319 211.51C246.319 211.51 258.853 208.297 264.87 205.83C266.499 205.161 269.036 204.208 271.889 203.18L272.947 202.795C280.302 200.134 289.046 197.13 289.046 197.13C289.046 197.13 290.725 195.929 292.415 199.521C293.187 201.173 293.964 203.833 294.586 208.085C294.641 208.444 294.691 208.819 294.741 209.204C294.917 210.573 295.077 212.093 295.242 213.765C296.546 229.077 306.077 234.839 310.379 236.673C311.762 237.263 313.114 237.924 314.43 238.654C318.568 240.961 323.341 241.833 328.017 241.137C338.635 239.728 347.294 231.93 347.294 231.93L347.339 239.607L347.47 262.672L347.61 299.12Z" fill="#DFE5EE"/>
<path d="M344.612 269.224L343.489 276.414C343.489 276.414 315.778 283.412 304.924 285.494C294.069 287.577 270.661 284.927 268.976 289.467C267.291 294.007 276.09 300.255 276.09 300.255L304.167 299.875L357.151 304.04C357.151 304.04 377.371 286.062 370.818 273.571C364.265 261.081 344.612 269.224 344.612 269.224Z" fill="#EE8E9E"/>
<path opacity="0.1" d="M287.511 212.457C287.511 212.457 274.777 223.053 277.213 228.165C279.65 233.278 287.511 212.457 287.511 212.457Z" fill="black"/>
<path opacity="0.1" d="M271.784 231.565C271.784 231.565 258.863 254.083 259.615 255.786C260.368 257.489 263.922 263.544 263.732 259.004C263.541 254.463 271.784 231.565 271.784 231.565Z" fill="black"/>
<path opacity="0.1" d="M277.028 235.543C277.028 235.543 274.02 249.543 271.036 255.411C268.053 261.279 277.028 235.543 277.028 235.543Z" fill="black"/>
<path opacity="0.1" d="M319.318 192.372C316.842 196.96 313.315 200.882 309.033 203.81C304.75 206.739 299.836 208.588 294.701 209.204H294.641C286.563 210.163 278.425 208.01 271.849 203.175C279.369 200.428 289.005 197.124 289.005 197.124C289.005 197.124 290.685 195.924 292.375 199.516L317.653 187.862C317.937 189.453 318.501 190.981 319.318 192.372Z" fill="black"/>
<path d="M323.269 175.559C323.278 181.257 321.809 186.859 319.007 191.804C317.669 194.162 316.047 196.344 314.179 198.3C308.967 203.784 302.022 207.255 294.546 208.11H294.48C293.285 208.248 292.083 208.318 290.881 208.318C282.923 208.318 275.243 205.357 269.307 200C263.371 194.643 259.595 187.265 258.698 179.273C258.559 178.047 258.49 176.814 258.492 175.579C258.492 166.898 261.905 158.572 267.979 152.433C274.053 146.295 282.291 142.846 290.881 142.846C299.47 142.846 307.708 146.295 313.782 152.433C319.856 158.572 323.269 166.898 323.269 175.579V175.559Z" fill="#EE8E9E"/>
<path opacity="0.1" d="M344.241 237.499L347.249 232.939C347.249 232.939 363.724 213.071 379.837 225.748L379.276 243.159C379.276 243.159 378.524 248.454 377.401 251.266C377.078 252.101 376.961 253.002 377.059 253.892C377.156 254.783 377.467 255.636 377.962 256.379C377.962 256.379 378.9 260.939 377.591 260.939C376.283 260.939 374.032 267.749 374.032 267.749C374.032 267.749 370.848 274.752 372.723 277.97C374.598 281.187 378.714 291.97 378.714 291.97C378.714 291.97 372.162 287.997 370.287 281.375C370.287 281.375 354.373 268.884 342.015 276.814L344.241 237.499Z" fill="black"/>
<path opacity="0.1" d="M378.83 223.012C378.679 229.913 377.566 232.893 377.566 232.893L349.294 237.246L348.237 229.827C351.937 225.926 365.393 213.521 378.83 223.012Z" fill="black"/>
<path d="M344.241 236.486L347.249 231.925C347.249 231.925 363.724 212.057 379.837 224.735L379.276 242.145C379.276 242.145 378.524 247.441 377.401 250.253C377.078 251.087 376.961 251.989 377.059 252.879C377.156 253.77 377.467 254.623 377.962 255.365C377.962 255.365 378.9 259.926 377.591 259.926C376.283 259.926 374.032 266.736 374.032 266.736C374.032 266.736 370.848 273.739 372.723 276.956C374.598 280.174 378.714 290.957 378.714 290.957C378.714 290.957 372.162 286.984 370.287 280.361C370.287 280.361 354.373 267.871 342.015 275.801L344.241 236.486Z" fill="#DFE5EE"/>
<path opacity="0.1" d="M370.823 223.62C370.823 223.62 343.679 240.463 344.988 255.234C344.988 255.234 360.154 228.16 370.823 223.62Z" fill="black"/>
<path opacity="0.1" d="M347.279 239.622L347.409 262.687C342.275 262.92 337.437 262.247 333.612 258.887C330.95 256.546 329.4 253.313 328.598 249.817C328.001 247 327.782 244.115 327.946 241.238C327.944 241.21 327.944 241.181 327.946 241.152C328.262 234.783 329.711 228.414 328.949 222.085C328.187 215.756 324.392 209.078 318.195 207.745C316.972 207.477 315.598 207.38 314.725 206.473C313.763 205.46 313.808 203.884 313.913 202.48L314.094 200.114C314.139 199.506 314.159 198.903 314.159 198.3C314.155 192.92 312.304 187.709 308.92 183.556C305.537 179.402 300.832 176.565 295.608 175.529L295.408 175.493C293.663 175.138 291.848 174.789 290.103 175.194C286.784 175.969 284.639 179.223 281.58 180.768C275.714 183.727 265.933 180.489 259.791 179.471C259.39 179.405 259.009 179.329 258.643 179.243C258.503 178.017 258.435 176.783 258.437 175.549C258.44 170.535 259.581 165.589 261.775 161.092C263.968 156.595 267.154 152.667 271.087 149.612C275.02 146.556 279.595 144.455 284.459 143.469C289.323 142.484 294.345 142.64 299.14 143.928C303.934 145.215 308.372 147.598 312.111 150.893C315.85 154.188 318.79 158.307 320.705 162.932C322.619 167.557 323.457 172.565 323.153 177.569C322.849 182.573 321.412 187.44 318.952 191.794C319.047 191.986 319.152 192.179 319.263 192.361C326.076 203.762 347.926 196.552 347.926 196.552L349.239 237.235L347.279 239.622Z" fill="black"/>
<path d="M282.758 180.205C285.797 178.655 287.943 175.402 291.282 174.632C293.021 174.226 294.836 174.576 296.591 174.926L296.792 174.966C302.314 176.07 307.244 179.184 310.647 183.716C314.05 188.248 315.69 193.884 315.257 199.557L315.076 201.923C314.966 203.321 314.921 204.907 315.894 205.911C316.761 206.818 318.135 206.924 319.358 207.178C325.555 208.515 329.35 215.158 330.112 221.522C330.874 227.887 329.4 234.276 329.11 240.671C328.819 247.066 329.982 254.124 334.765 258.325C342.285 264.912 353.716 261.162 363.669 260.559C359.267 260.559 355.968 255.968 355.727 251.53C355.486 247.091 357.442 242.865 359.312 238.862C361.182 234.859 363.057 230.552 362.641 226.123C362.069 220.043 357.326 215.173 355.511 209.321C353.396 202.511 355.436 195.199 356.394 188.12C358.194 174.865 355.391 159.942 345.238 151.374C340.987 147.791 335.788 145.587 331.115 142.588C322.742 137.221 316.139 129.352 307.676 124.133C299.213 118.914 287.331 116.979 279.946 123.667C277.088 126.256 275.243 129.849 272.305 132.347C266.564 137.237 257.44 137.328 252.837 143.327C248.876 148.491 249.949 155.823 251.218 162.233C252.907 170.781 251.955 177.434 260.994 178.954C267.111 179.932 276.887 183.17 282.758 180.205Z" fill="#603556"/>
<path opacity="0.1" d="M357.241 256.475C349.996 257.372 342.817 257.833 337.543 253.212C332.76 249.011 331.581 241.958 331.887 235.558C332.193 229.158 333.657 222.764 332.89 216.405C332.123 210.045 328.332 203.402 322.136 202.065C320.912 201.801 319.544 201.705 318.671 200.798C317.704 199.785 317.744 198.204 317.854 196.805L318.034 194.439C318.468 188.767 316.827 183.131 313.424 178.6C310.021 174.069 305.091 170.957 299.569 169.853L299.369 169.813C297.614 169.463 295.799 169.114 294.059 169.519C290.74 170.294 288.594 173.573 285.536 175.093C279.665 178.057 269.894 174.819 263.742 173.801C254.717 172.306 255.66 165.643 253.965 157.079C253.018 152.296 252.18 146.996 253.464 142.466C253.223 142.724 252.993 142.973 252.772 143.282C248.811 148.445 249.884 155.777 251.153 162.187C252.842 170.735 251.89 177.388 260.929 178.908C267.076 179.922 276.852 183.165 282.723 180.2C285.762 178.65 287.908 175.397 291.247 174.627C292.986 174.221 294.801 174.571 296.556 174.92L296.757 174.961C302.279 176.065 307.209 179.178 310.612 183.711C314.015 188.243 315.655 193.879 315.222 199.551L315.041 201.918C314.931 203.316 314.886 204.902 315.859 205.906C316.726 206.813 318.1 206.919 319.323 207.172C325.52 208.51 329.315 215.153 330.077 221.517C330.839 227.882 329.37 234.271 329.075 240.666C328.779 247.06 329.947 254.119 334.73 258.319C342.25 264.907 353.681 261.157 363.634 260.554C360.931 260.569 358.66 258.836 357.241 256.475Z" fill="black"/>
<path d="M153.768 273.379L184.677 261.725C185.407 261.449 186.216 261.478 186.926 261.804C187.636 262.131 188.188 262.729 188.462 263.468C188.735 264.206 188.706 265.024 188.383 265.741C188.06 266.459 187.468 267.017 186.737 267.293L155.828 278.948L149.2 278.279L153.768 273.379Z" fill="#5C5C8E"/>
<path opacity="0.1" d="M187.529 262.515C187.802 263.254 187.773 264.072 187.448 264.79C187.124 265.507 186.531 266.065 185.8 266.341L154.871 278.035L149.897 277.529L149.18 278.299L155.808 278.968L186.717 267.313C187.448 267.037 188.039 266.479 188.363 265.761C188.686 265.044 188.715 264.226 188.442 263.488C188.214 262.872 187.791 262.35 187.239 262.003C187.35 262.165 187.447 262.336 187.529 262.515Z" fill="white"/>
<path d="M153.773 273.379L155.828 278.948L150.393 278.395L149.205 278.274L150.83 276.531L153.773 273.379Z" fill="#EFC8C4"/>
<path d="M150.825 276.515C150.952 276.611 151.06 276.73 151.145 276.865C151.196 276.946 151.223 277.04 151.223 277.136C151.223 277.232 151.196 277.326 151.145 277.407C151.06 277.496 150.96 277.57 150.85 277.625C150.726 277.709 150.621 277.82 150.545 277.95C150.469 278.079 150.422 278.225 150.408 278.375L149.215 278.258L150.825 276.515Z" fill="#727A9C"/>
<path d="M250.817 308.945C250.817 308.945 277.589 303.264 322.512 310.465L304.914 297.412L272.897 290.789L250.245 296.87L250.817 308.945Z" fill="white"/>
<path opacity="0.1" d="M250.817 308.945C250.817 308.945 277.589 303.264 322.512 310.465L304.914 297.412L272.897 290.789L250.245 296.87L250.817 308.945Z" fill="black"/>
<path d="M247.678 315.086C247.678 315.086 261.16 278.228 330.403 315.203L305.55 299.039C305.55 299.039 246.013 282.414 239.135 301.572L247.678 315.086Z" fill="white"/>
<path opacity="0.1" d="M247.678 315.061C247.678 315.061 261.16 275.654 330.403 315.77L305.55 298.238C305.55 298.238 245.993 278.355 239.1 299.165L247.678 315.061Z" fill="black"/>
<path d="M247.678 315.076C247.678 315.076 261.16 275.086 330.403 315.202L305.55 297.67C305.55 297.67 246.013 278.355 239.135 299.191L247.678 315.076Z" fill="white"/>
<path opacity="0.1" d="M247.678 315.086C247.678 315.086 261.16 270.643 330.403 315.77L305.53 296.044C305.53 296.044 245.993 275.776 239.115 299.165L247.678 315.086Z" fill="black"/>
<path d="M247.678 315.061C247.678 315.061 261.16 270.075 330.403 315.202L305.53 295.476C305.53 295.476 245.993 275.208 239.115 298.598L247.678 315.061Z" fill="white"/>
<path opacity="0.1" d="M455.413 310.825C455.413 310.825 438.793 328.818 453.754 337.558C453.754 337.558 455.709 339.94 458.501 338.693C458.501 338.693 457.559 337.847 459.449 336.216C460.117 335.63 460.715 334.967 461.229 334.24C461.926 333.258 462.289 332.073 462.262 330.865C462.262 330.865 464.438 323.725 457.524 314.458C457.524 314.458 456.897 311.357 456.366 311.017L455.102 315.339C455.102 315.339 458.276 316.155 459.469 318.597C459.469 318.597 455.288 315.279 454.882 315.973C454.801 316.115 454.315 318.299 454.315 318.299C454.315 318.299 459.83 319.738 461.555 323.568C461.555 323.568 457.098 318.942 454.125 319.124L453.583 322.459C453.583 322.459 459.484 323.695 461.605 327.982C461.605 327.982 456.782 323.305 453.503 323.198L453.408 326.548C453.408 326.548 459.138 327.865 460.888 331.443C460.888 331.443 454.776 326.614 453.438 327.318C453.438 327.318 453.533 330.404 453.939 331.209C453.939 331.209 458.03 332.223 458.862 334.422C458.862 334.422 454.44 331.63 454.059 332.056C454.059 332.056 455.248 336.038 456.902 337.736C456.902 337.736 454.275 335.41 453.453 332.273C453.453 332.273 452.34 334.234 452.62 336.16C452.62 336.16 450.981 334.326 453.177 331.306C453.177 331.306 452.375 328.164 452.575 327.668C452.575 327.668 449.993 330.338 449.332 332.735C449.332 332.735 448.83 329.735 452.57 326.801V323.426C452.57 323.426 448.971 326.776 448.229 328.848C448.229 328.848 448.178 325.707 452.646 322.58L453.147 319.302C453.147 319.302 449.828 321.947 448.509 324.075C448.509 324.075 449.081 321.146 453.322 318.369L453.909 316.221C453.909 316.221 451.522 318.197 450.901 318.825C450.279 319.454 450.043 319.332 450.043 319.332C451.02 317.633 452.443 316.241 454.155 315.309C454.155 315.309 455.689 310.941 455.413 310.825Z" fill="#3198AF"/>
<path opacity="0.1" d="M529.71 18.049C529.71 18.049 507.505 28.1831 517.973 42.0618C517.973 42.0618 518.871 45.0261 521.919 44.9653C521.919 44.9653 521.372 43.815 523.739 43.0448C524.58 42.7671 525.384 42.3877 526.135 41.9149C527.153 41.2807 527.94 40.3293 528.376 39.204C528.376 39.204 533.109 33.4681 530.267 22.2242C530.267 22.2242 530.873 19.1181 530.512 18.5962L527.695 22.0925C527.695 22.0925 530.312 24.0788 530.482 26.7998C530.482 26.7998 527.895 22.1077 527.253 22.5941C527.123 22.6904 525.845 24.5145 525.845 24.5145C525.845 24.5145 530.357 27.9905 530.512 32.2013C530.512 32.2013 528.166 26.1917 525.348 25.1986L523.578 28.0666C523.578 28.0666 528.552 31.5071 528.883 36.2904C528.883 36.2904 526.216 30.0985 523.232 28.7202L521.864 31.7605C521.864 31.7605 526.652 35.2111 526.877 39.1939C526.877 39.1939 523.082 32.3533 521.578 32.485C521.578 32.485 520.49 35.3631 520.575 36.2702C520.575 36.2702 523.954 38.8037 523.894 41.1548C523.894 41.1548 520.886 36.8579 520.385 37.1011C520.385 37.1011 519.959 41.2359 520.841 43.4502C520.841 43.4502 519.302 40.2782 519.743 37.0657C519.743 37.0657 517.963 38.4439 517.492 40.3289C517.492 40.3289 516.68 37.993 519.858 36.0624C519.858 36.0624 520.315 32.8549 520.691 32.4749C520.691 32.4749 517.286 33.9292 515.772 35.8648C515.772 35.8648 516.449 32.9005 521.026 31.654L522.33 28.553C522.33 28.553 517.733 30.2353 516.254 31.8567C516.254 31.8567 517.407 28.9381 522.721 27.8031L524.431 24.9756C524.431 24.9756 520.36 26.1259 518.329 27.57C518.329 27.57 519.979 25.0972 524.952 24.1852L526.311 22.432C526.311 22.432 523.353 23.3238 522.526 23.6582C521.698 23.9926 521.523 23.795 521.523 23.795C523.081 22.6033 524.937 21.8734 526.882 21.6871C526.882 21.6871 529.891 18.2516 529.71 18.049Z" fill="#3198AF"/>
<path opacity="0.1" d="M318.952 24.322C318.952 24.322 285.591 33.9495 301.81 48.2792C301.81 48.2792 303.249 51.3194 307.867 51.3194C307.867 51.3194 307.004 50.1438 310.574 49.4294C311.803 49.1796 313.008 48.8201 314.174 48.3552C315.549 47.8681 316.719 46.9228 317.493 45.6747C317.493 45.6747 324.512 39.9996 319.904 28.5581C319.904 28.5581 320.742 25.4368 320.18 24.8997L316.009 28.3554C316.009 28.3554 320.02 30.438 320.356 33.1894C320.356 33.1894 316.31 28.3807 315.342 28.852C315.146 28.9483 313.256 30.7521 313.256 30.7521C313.256 30.7521 320.215 34.3903 320.531 38.6517C320.531 38.6517 316.821 32.5155 312.509 31.4362L309.902 34.2839C309.902 34.2839 317.523 37.8967 318.15 42.7408C318.15 42.7408 313.948 36.4121 309.396 34.9375L307.39 37.9778C307.39 37.9778 314.73 41.5957 315.212 45.6291C315.212 45.6291 309.281 38.6112 307.004 38.6973C307.004 38.6973 305.435 41.5855 305.575 42.5027C305.575 42.5027 310.76 45.1781 310.734 47.5292C310.734 47.5292 306.052 43.1006 305.28 43.3337C305.28 43.3337 304.748 47.5039 306.142 49.7638C306.142 49.7638 303.725 46.5158 304.307 43.283C304.307 43.283 301.655 44.6258 300.988 46.5158C300.988 46.5158 299.694 44.1394 304.457 42.2747C304.457 42.2747 305.064 39.0419 305.621 38.6669C305.621 38.6669 300.507 40.0452 298.266 41.9605C298.266 41.9605 299.208 38.9811 306.107 37.846L308.002 34.745C308.002 34.745 301.083 36.3259 298.887 37.9221C298.887 37.9221 300.557 35.0034 308.579 33.99L311.085 31.1778C311.085 31.1778 304.949 32.2267 301.91 33.6353C301.91 33.6353 304.342 31.1778 311.847 30.3924L313.853 28.6594C313.853 28.6594 309.396 29.4803 308.152 29.7945C306.909 30.1086 306.648 29.9059 306.648 29.9059C309.154 28.6798 311.888 28.0029 314.67 27.9196C314.67 27.9196 319.243 24.5348 318.952 24.322Z" fill="#3198AF"/>
<path opacity="0.1" d="M417.375 400.005C417.375 400.005 434.17 382.174 419.295 373.286C419.295 373.286 417.36 370.885 414.557 372.101C414.557 372.101 415.494 372.957 413.589 374.573C412.916 375.152 412.312 375.809 411.789 376.529C411.081 377.504 410.708 378.685 410.727 379.894C410.727 379.894 408.475 387.013 415.304 396.347C415.304 396.347 415.901 399.453 416.427 399.802L417.736 395.49C417.736 395.49 414.567 394.644 413.399 392.192C413.399 392.192 417.545 395.546 417.956 394.857C418.041 394.715 418.548 392.541 418.548 392.541C418.548 392.541 413.033 391.021 411.358 387.201C411.358 387.201 415.77 391.872 418.748 391.715L419.32 388.386C419.32 388.386 413.434 387.094 411.343 382.812C411.343 382.812 416.121 387.535 419.4 387.677L419.525 384.322C419.525 384.322 413.805 382.924 412.07 379.326C412.07 379.326 418.137 384.221 419.48 383.527C419.48 383.527 419.415 380.446 418.979 379.635C418.979 379.635 414.898 378.551 414.086 376.372C414.086 376.372 418.483 379.21 418.864 378.784C418.864 378.784 417.715 374.791 416.076 373.079C416.076 373.079 418.683 375.43 419.475 378.571C419.475 378.571 420.608 376.62 420.343 374.695C420.343 374.695 421.967 376.55 419.741 379.544C419.741 379.544 420.513 382.696 420.308 383.187C420.308 383.187 422.915 380.542 423.596 378.176C423.596 378.176 424.098 381.181 420.303 384.074L420.252 387.449C420.252 387.449 423.882 384.135 424.644 382.068C424.644 382.068 424.644 385.214 420.167 388.295L419.666 391.568C419.666 391.568 423.01 388.954 424.349 386.841C424.349 386.841 423.747 389.759 419.48 392.496L418.874 394.639C418.874 394.639 421.28 392.688 421.922 392.065C422.564 391.442 422.784 391.558 422.784 391.558C421.792 393.249 420.355 394.628 418.633 395.541C418.633 395.541 417.124 399.883 417.375 400.005Z" fill="#3198AF"/>
<path opacity="0.1" d="M253.564 0.62826C253.564 0.62826 256.427 25.0718 272.691 19.1738C272.691 19.1738 275.754 19.1991 276.617 16.2399C276.617 16.2399 275.363 16.4223 275.353 13.9091C275.342 13.015 275.226 12.1255 275.007 11.259C274.719 10.0867 274.058 9.04206 273.127 8.28461C273.127 8.28461 269.136 1.9913 257.65 1.37312C257.65 1.37312 254.903 -0.147001 254.301 0.0455476L256.753 3.81038C256.753 3.81038 259.415 1.8849 262.032 2.54362C262.032 2.54362 256.828 3.62797 257.094 4.38803C257.144 4.54511 258.477 6.32365 258.477 6.32365C258.477 6.32365 263.165 2.97938 267.176 4.11947C267.176 4.11947 260.804 4.56538 259.019 6.98237L261.16 9.55645C261.16 9.55645 265.903 5.79668 270.52 6.9165C270.52 6.9165 263.872 7.62589 261.671 10.0834L264.168 12.3231C264.168 12.3231 268.861 8.74571 272.691 9.70846C272.691 9.70846 265.09 11.3097 264.759 12.7943C264.759 12.7943 267.151 14.7097 268.033 14.9123C268.033 14.9123 271.463 12.4244 273.639 13.1845C273.639 13.1845 268.675 14.7958 268.75 15.3633C268.75 15.3633 272.526 17.0152 274.877 16.8328C274.877 16.8328 271.423 17.3395 268.525 15.9714C268.525 15.9714 269.287 18.0945 270.926 19.1231C270.926 19.1231 268.48 19.1991 267.612 15.5761C267.612 15.5761 264.724 14.1675 264.479 13.6962C264.479 13.6962 264.83 17.4104 266.198 19.4524C266.198 19.4524 263.601 17.9323 263.802 13.1237L261.295 10.9296C261.295 10.9296 261.501 15.87 262.584 17.7854C262.584 17.7854 260.177 15.794 260.698 10.3266L258.548 7.82857C258.548 7.82857 258.402 12.095 259.154 14.4867C259.154 14.4867 257.314 12.1559 257.956 7.08878L256.708 5.24943C256.708 5.24943 256.662 8.36568 256.708 9.26762C256.753 10.1696 256.537 10.2557 256.537 10.2557C255.878 8.39909 255.743 6.39391 256.146 4.46404C256.146 4.46404 253.815 0.50665 253.564 0.62826Z" fill="#3198AF"/>
<path opacity="0.1" d="M375.125 344.566C375.125 344.566 351.651 337.979 350.899 355.43C350.899 355.43 349.716 358.288 352.097 360.213C352.097 360.213 352.403 358.977 354.709 359.914C355.532 360.243 356.39 360.473 357.266 360.598C358.451 360.771 359.659 360.547 360.705 359.96C360.705 359.96 367.975 358.612 372.909 348.133C372.909 348.133 375.34 346.142 375.415 345.504L371.039 346.37C371.039 346.37 371.791 349.593 370.196 351.792C370.196 351.792 371.199 346.512 370.382 346.471C370.216 346.471 368.081 347.034 368.081 347.034C368.081 347.034 369.364 352.638 366.802 355.957C366.802 355.957 368.808 349.826 367.268 347.242L364.09 348.301C364.09 348.301 365.734 354.158 362.957 358.05C362.957 358.05 364.832 351.569 363.408 348.579L360.43 350.044C360.43 350.044 361.934 355.79 359.592 359.012C359.592 359.012 361.006 351.3 359.768 350.424C359.768 350.424 357.111 351.944 356.594 352.684C356.594 352.684 357.597 356.834 356.053 358.582C356.053 358.582 356.454 353.327 355.907 353.185C355.907 353.185 352.959 356.089 352.237 358.359C352.237 358.359 353.065 354.928 355.436 352.744C355.436 352.744 353.2 352.653 351.641 353.793C351.641 353.793 352.493 351.478 356.153 352.05C356.153 352.05 358.54 349.876 359.066 349.831C359.066 349.831 355.556 348.747 353.14 349.253C353.14 349.253 355.536 347.409 359.843 349.415L362.811 347.895C362.811 347.895 358.209 346.218 356.048 346.507C356.048 346.507 358.78 344.987 363.568 347.566L366.667 346.497C366.667 346.497 362.816 344.749 360.339 344.546C360.339 344.546 363.172 343.71 367.569 346.228L369.725 345.757C369.725 345.757 366.887 344.531 366.04 344.237C365.193 343.943 365.198 343.73 365.198 343.73C367.14 343.82 369.019 344.451 370.627 345.554C370.627 345.554 375.14 344.845 375.125 344.566Z" fill="#3198AF"/>
</g>
<defs>
<linearGradient id="paint0_linear" x1="267.101" y1="303.66" x2="267.101" y2="117.693" gradientUnits="userSpaceOnUse">
<stop stop-color="#808080" stop-opacity="0.25"/>
<stop offset="0.54" stop-color="#808080" stop-opacity="0.12"/>
<stop offset="1" stop-color="#808080" stop-opacity="0.1"/>
</linearGradient>
<clipPath id="clip0">
<rect x="0.1698" width="531.009" height="400" fill="white"/>
</clipPath>
</defs>
</svg>
