<svg width="379" height="613" fill="none" xmlns="http://www.w3.org/2000/svg"><path className="shape" d="M24.753 56.5a13.706 13.706 0 10-13.707-13.706A13.722 13.722 0 0024.753 56.5zm0-25.129A11.422 11.422 0 1113.33 42.794 11.435 11.435 0 0124.753 31.37z" fill="#3F3D56" /><path className="shape" d="M0 454.064H22.55v-22.549H0v22.549zm20.814-1.735H1.734V433.25h19.08v19.079z" fill="#3F3D56" /><path className="shape" d="M363.254 100.595l15.38-16.489-16.49-15.38-15.38 16.49 16.49 15.379zm12.928-16.404l-13.014 13.953-13.952-13.014 13.014-13.953 13.952 13.014z" fill="#3F3D56" /><path d="M119.537 303.174l31.72 38.487-46.945 55.404-31.297-36.795 46.522-57.096z" fill="#3198AF"/><path opacity=".1" d="M119.537 303.174l31.72 38.487-46.945 55.404-31.297-36.795 46.522-57.096z" fill="#000"/><path d="M149.988 342.084a15.955 15.955 0 00-2.586-3.453l-29.134-29.536s-10.15-1.691-12.265 3.384l37.218 30.451 6.767-.846z" fill="#F2F2F2"/><path d="M151.468 341.45l-43.139 65.977s-4.229 2.961-8.458 1.269l-44.197-29.817 46.946-71.052 42.293 32.988 6.555.635z" fill="#3198AF"/><path d="M96.853 334.108l29.01 19.53-7.242 10.756-29.009-19.53 7.241-10.756z" fill="#3F3D56"/><path d="M115.174 287.521s-4 30 10 29 7-27 7-27l-17-2zM211.174 79.521c-15.464 0-28-12.536-28-28s12.536-28 28-28 28 12.536 28 28-12.536 28-28 28z" fill="#FFB8B8"/><path d="M210.174 70.521s-11 25-3 36-43-18-43-18 25-24 26-35l20 17z" fill="#FFB8B8"/><path d="M164.174 84.521s26 16 47 10l52 85-86 16-19-108 6-3z" fill="#D0CDE1"/><path d="M225.174 179.521l17-2v-2l16-2s35 66 33 108-29 226-29 226-3.03-.289-7.579-.943c.747 6.146 2.821 15.024 8.579 16.943 9 3 36 27 4 26s-29-16-29-16v-4l-8 4-16-4s-5-35 0-38l7-41 4-49s-27 137-39 137c-1.853 0-4.254-.167-6.98-.468.247 8.923 1.855 28.822 10.98 39.468 12 14 25 33 9 35s-45-10-44-17 0-9 0-9h-5l-8-6s-4.171-40.879 1.964-51.009c-1.739-1.028-2.531-2.045-1.964-2.991 3-5 39-159 39-159l4-75 9-110 31-3z" fill="#2F2E41"/><path d="M204.879 88.428s35.295 15.093 36.295 20.093 39 95 39 95l8 7-4 3 29 64s-1 8-16 8h-9s-15-76-25-90-74.59-94.185-58.295-107.092z" fill="#575A89"/><path d="M167.174 79.521c5-3 9 2 9 2l55 79s3 22 11 58 3 66-32 75-26 12-26 12l-8 2s-12.007-47.547-24.018-97.572l-13.982 85.572-28-3 13-136s-1-17 2-43c.653-5.66 1.78-9.898 3.144-13.066-.203-1.86-.257-3.196-.144-3.934 1.426-9.266 18.093-12.436 29.36-14.578 4.54-.864 8.204-1.56 9.64-2.422z" fill="#575A89"/><path d="M265.174 155.521l-7-10s-13-12-22-6 16.847 23.403 16.847 23.403h7.222l2.931 2.003 2-9.406z" fill="#FFB8B8"/><path d="M226.674 179.021a4 4 0 110-8 4 4 0 010 8zM227.674 194.021a4 4 0 110-8 4 4 0 010 8z" fill="#2F2E41"/><path d="M275.174 168.521l-12-23s-.146 21.242-7.573 21.621l15.573 22.379 4-21z" fill="#575A89"/><path d="M247.624 43.256s16.173-45.819-36.546-40.975c0 0-33.892-14.05-54.94 27.598l-21.65 43.746 6.378-1.882 1.412 6.39 8.749 4.33 5.647-7.008-.134 9.955 74.16 23.828s-29.631-27.361-22.444-63.452l4.998 8.22 34.37-10.75z" fill="#2F2E41"/></svg>
