<?xml version="1.0" encoding="iso-8859-1"?>
<!-- Generator: Adobe Illustrator 19.0.0, SVG Export Plug-In . SVG Version: 6.00 Build 0)  -->
<svg version="1.1" id="Capa_1" xmlns="http://www.w3.org/2000/svg" xmlns:xlink="http://www.w3.org/1999/xlink" x="0px" y="0px"
	 viewBox="0 0 459.375 459.375" style="enable-background:new 0 0 459.375 459.375;" xml:space="preserve">
<g>
	<g>
		<path d="M148.66,20.375c-44.183-0.009-80.008,35.8-80.017,79.983c-0.005,21.239,8.437,41.607,23.463,56.617
			c14.976,15.009,35.317,23.431,56.52,23.4c44.183,0.009,80.008-35.8,80.017-79.983C228.652,56.209,192.842,20.384,148.66,20.375z
			 M197.865,149.6c-27.157,27.172-71.2,27.185-98.373,0.027c-13.057-13.049-20.391-30.753-20.387-49.213
			c-0.023-18.443,7.304-36.134,20.36-49.16c27.157-27.172,71.2-27.185,98.373-0.027C225.011,78.385,225.023,122.428,197.865,149.6z"
			/>
	</g>
</g>
<g>
	<g>
		<path d="M365.146,101.735c-5.286-1.539-10.775-2.267-16.28-2.16h-99.8C248.588,44.105,203.233-0.474,147.764,0.004
			C92.294,0.482,47.715,45.836,48.193,101.306c0.436,50.543,38.363,92.889,88.553,98.869v231.2c0,15.464,12.536,28,28,28h184
			c34.448-0.088,62.352-27.992,62.44-62.44v-235.2C410.979,133.691,392.18,109.192,365.146,101.735z M307.906,109.735h31.52v29.12
			l-12-13.64c-1.881-2.159-5.153-2.392-7.32-0.52l-0.56,0.56l-12,13.56L307.906,109.735z M84.913,164.127
			c-16.891-16.9-26.376-39.818-26.368-63.712c-0.022-23.894,9.479-46.811,26.4-63.68c35.187-35.169,92.223-35.155,127.392,0.032
			s35.155,92.223-0.032,127.392C177.118,199.329,120.083,199.314,84.913,164.127z M195.906,189.015
			c2.827-1.52,5.587-3.173,8.28-4.96h108.4c3.468,0,6.28,2.812,6.28,6.28v15.4c-0.007,1.652-0.668,3.235-1.84,4.4
			c-1.159,1.057-2.671,1.642-4.24,1.64h-110.6c-1.652-0.011-3.232-0.672-4.4-1.84c-1.135-1.112-1.807-2.613-1.88-4.2v-15.4
			C195.86,189.896,195.86,189.453,195.906,189.015z M147.106,200.895c13.16,0.166,26.223-2.267,38.44-7.16v12
			c0.005,4.361,1.73,8.543,4.8,11.64c3.103,3.119,7.32,4.875,11.72,4.88h110.4c4.294,0.049,8.438-1.572,11.56-4.52l0.32-0.32
			c3.106-3.096,4.86-7.295,4.88-11.68v-15.4c-0.044-9.165-7.475-16.578-16.64-16.6h-95.2l2.28-2.2
			c16.602-16.567,26.853-38.441,28.96-61.8h48.88v43.12c0.034,2.872,2.39,5.172,5.261,5.138c1.461-0.017,2.846-0.648,3.819-1.738
			l17.04-19.6l16.92,19.48c1.835,2.209,5.113,2.513,7.323,0.678c1.178-0.978,1.865-2.426,1.877-3.958v-43.12
			c2.465,0.038,4.925,0.252,7.36,0.64c6.189,1.948,10.409,7.672,10.44,14.16v242.8c-0.011,0.2-0.011,0.4,0,0.6
			c0.36,12.92-2.44,22.32-8.2,28.48c-5.76,6.16-14.88,9.36-27,9.76h-170.4c-5.336-0.009-10.535,1.687-14.84,4.84V200.895z
			 M161.945,416.535h170.64c15.04-0.48,26.6-4.72,34.4-13c7.8-8.28,11.48-20,11-36v-242.84c-0.003-2.161-0.286-4.312-0.84-6.4
			c1.333,0.853,2.627,1.773,3.88,2.76h0c2.224,5.866,3.363,12.087,3.36,18.36v235.12c-0.131,28.664-23.336,51.869-52,52h-184.44
			C150.027,420.575,155.633,416.571,161.945,416.535z M400.945,396.855c-0.131,28.664-23.336,51.869-52,52h-184
			c-7.585-0.012-14.329-4.829-16.8-12h184.16c34.448-0.088,62.352-27.992,62.44-62.44v-235c0-0.693-0.013-1.387-0.04-2.08
			c4.063,7.493,6.207,15.876,6.24,24.4V396.855z"/>
	</g>
</g>
<g>
	<g>
		<path d="M180.625,95.135l-26.88,0.08v-45c0-2.85-2.31-5.16-5.16-5.16s-5.16,2.31-5.16,5.16v50.24
			c-0.066,2.849,2.189,5.212,5.038,5.279c0.054,0.001,0.108,0.002,0.162,0.001l32-0.28c2.85,0,5.16-2.311,5.159-5.161
			C185.784,97.445,183.475,95.135,180.625,95.135z"/>
	</g>
</g>
<g>
</g>
<g>
</g>
<g>
</g>
<g>
</g>
<g>
</g>
<g>
</g>
<g>
</g>
<g>
</g>
<g>
</g>
<g>
</g>
<g>
</g>
<g>
</g>
<g>
</g>
<g>
</g>
<g>
</g>
</svg>
