<svg width="1153" height="700" viewBox="0 0 1153 700" fill="none" xmlns="http://www.w3.org/2000/svg">
<g clip-path="url(#clip0)">
<path d="M966 700C1059.34 700 1135 686.121 1135 669C1135 651.879 1059.34 638 966 638C872.664 638 797 651.879 797 669C797 686.121 872.664 700 966 700Z" fill="#3F3D56"/>
<path d="M600 523C732.548 523 840 415.548 840 283C840 150.452 732.548 43 600 43C467.452 43 360 150.452 360 283C360 415.548 467.452 523 600 523Z" fill="#F2F2F2"/>
<path d="M617 526C614.226 526 611.423 525.956 608.672 525.87L608.734 523.872C612.685 523.995 616.716 524.029 620.685 523.975L620.712 525.975C619.477 525.991 618.239 526 617 526ZM632.745 525.536L632.628 523.54C636.584 523.307 640.591 522.979 644.537 522.565L644.746 524.554C640.77 524.971 636.732 525.302 632.745 525.536V525.536ZM596.649 525.225C592.66 524.919 588.629 524.519 584.667 524.032L584.911 522.048C588.843 522.529 592.843 522.928 596.802 523.23L596.649 525.225ZM656.688 523.025L656.389 521.049C660.319 520.452 664.28 519.76 668.158 518.989L668.548 520.95C664.64 521.727 660.649 522.425 656.688 523.025ZM572.753 522.294C568.812 521.626 564.834 520.858 560.93 520.011L561.354 518.056C565.229 518.897 569.176 519.659 573.087 520.321L572.753 522.294ZM680.302 518.332L679.821 516.391C683.68 515.437 687.56 514.382 691.354 513.257L691.922 515.175C688.099 516.309 684.189 517.371 680.302 518.332ZM549.226 517.186C545.36 516.157 541.47 515.026 537.663 513.822L538.266 511.916C542.043 513.11 545.904 514.232 549.739 515.252L549.226 517.186ZM703.384 511.484L702.728 509.596C706.472 508.294 710.237 506.887 713.922 505.412L714.664 507.269C710.952 508.755 707.157 510.173 703.384 511.484V511.484ZM526.238 509.918C522.484 508.538 518.706 507.049 515.011 505.492L515.787 503.648C519.454 505.193 523.203 506.671 526.929 508.041L526.238 509.918ZM725.713 502.55L724.885 500.729C728.48 499.096 732.095 497.352 735.627 495.546L736.537 497.327C732.978 499.147 729.336 500.903 725.713 502.55V502.55ZM504.002 500.556C500.394 498.836 496.771 497.007 493.237 495.118L494.179 493.354C497.687 495.228 501.281 497.044 504.863 498.751L504.002 500.556ZM747.111 491.611L746.121 489.875C749.569 487.907 753.012 485.839 756.351 483.727L757.419 485.416C754.055 487.545 750.587 489.63 747.111 491.611V491.611ZM482.735 489.193C479.303 487.151 475.865 484.998 472.519 482.794L473.62 481.124C476.94 483.312 480.351 485.448 483.758 487.475L482.735 489.193ZM767.435 478.754L766.29 477.115C769.537 474.847 772.777 472.471 775.921 470.055L777.14 471.641C773.973 474.075 770.707 476.469 767.435 478.754H767.435ZM462.609 475.938C459.381 473.593 456.156 471.137 453.024 468.636L454.272 467.073C457.38 469.555 460.58 471.992 463.784 474.318L462.609 475.938ZM786.512 464.092L785.223 462.562C788.249 460.009 791.261 457.348 794.176 454.652L795.533 456.121C792.597 458.837 789.562 461.519 786.512 464.092ZM443.784 460.906C440.777 458.273 437.791 455.535 434.907 452.767L436.291 451.323C439.154 454.071 442.118 456.789 445.101 459.402L443.784 460.906ZM804.185 447.745L802.761 446.341C805.551 443.514 808.311 440.588 810.962 437.646L812.448 438.983C809.776 441.949 806.996 444.896 804.185 447.745V447.745ZM426.412 444.233C423.653 441.333 420.929 438.335 418.315 435.323L419.826 434.013C422.42 437.002 425.123 439.977 427.861 442.854L426.412 444.233ZM820.305 429.854L818.76 428.584C821.28 425.517 823.762 422.352 826.138 419.175L827.739 420.372C825.346 423.573 822.845 426.764 820.305 429.854V429.854ZM410.634 426.057C408.157 422.927 405.718 419.695 403.384 416.452L405.007 415.284C407.323 418.502 409.744 421.709 412.202 424.816L410.634 426.057ZM834.733 410.56L833.079 409.437C835.31 406.152 837.494 402.772 839.571 399.389L841.276 400.436C839.182 403.845 836.98 407.251 834.733 410.56V410.56ZM396.582 406.53C394.403 403.189 392.27 399.752 390.243 396.311L391.965 395.295C393.978 398.71 396.095 402.122 398.257 405.437L396.582 406.53ZM847.349 390.02L845.599 389.053C847.519 385.578 849.384 382.01 851.145 378.446L852.938 379.333C851.164 382.923 849.283 386.519 847.349 390.02V390.02ZM384.378 385.814C382.513 382.289 380.704 378.672 379.002 375.064L380.811 374.211C382.5 377.791 384.294 381.381 386.145 384.879L384.378 385.814ZM858.029 368.398L856.197 367.596C857.791 363.956 859.321 360.229 860.746 356.518L862.613 357.234C861.178 360.975 859.635 364.73 858.029 368.398H858.029ZM374.127 364.083C372.594 360.403 371.125 356.639 369.763 352.893L371.643 352.209C372.995 355.927 374.452 359.662 375.973 363.313L374.127 364.083ZM866.678 345.867L864.779 345.238C866.027 341.478 867.205 337.634 868.279 333.812L870.205 334.353C869.122 338.204 867.935 342.078 866.678 345.867V345.867ZM365.911 341.484C364.721 337.673 363.603 333.779 362.587 329.91L364.522 329.402C365.529 333.242 366.639 337.106 367.82 340.889L365.911 341.484ZM873.196 322.689L871.248 322.236C872.144 318.382 872.962 314.445 873.682 310.538L875.648 310.899C874.924 314.838 874.099 318.804 873.196 322.689ZM359.802 318.195C358.968 314.289 358.213 310.31 357.559 306.365L359.532 306.037C360.182 309.952 360.931 313.901 361.758 317.777L359.802 318.195ZM877.555 299.012L875.572 298.74C876.11 294.823 876.564 290.829 876.923 286.868L878.915 287.048C878.554 291.04 878.096 295.064 877.555 299.012V299.012ZM355.861 294.445C355.389 290.486 355.002 286.454 354.709 282.461L356.705 282.314C356.994 286.278 357.379 290.279 357.847 294.209L355.861 294.445ZM879.729 275.036L877.732 274.946C877.909 270.983 878 266.964 878 263H880C880 266.994 879.909 271.044 879.729 275.036V275.036ZM354.103 270.435C354.035 267.982 354 265.48 354 263C354 261.461 354.013 259.925 354.04 258.392L356.04 258.427C356.013 259.948 356 261.473 356 263C356 265.462 356.035 267.945 356.103 270.38L354.103 270.435ZM877.985 260.21C877.944 256.245 877.811 252.226 877.592 248.264L879.588 248.152C879.81 252.145 879.943 256.194 879.985 260.189L877.985 260.21ZM356.514 246.487L354.518 246.362C354.768 242.366 355.112 238.33 355.542 234.365L357.53 234.581C357.104 238.515 356.762 242.521 356.514 246.487ZM876.656 236.352C876.257 232.409 875.76 228.42 875.18 224.494L877.158 224.202C877.742 228.158 878.243 232.177 878.646 236.15L876.656 236.352ZM359.087 222.734L357.11 222.428C357.723 218.472 358.435 214.484 359.227 210.574L361.187 210.971C360.401 214.851 359.695 218.808 359.087 222.734ZM873.161 212.718C872.398 208.817 871.538 204.89 870.603 201.046L872.546 200.573C873.488 204.446 874.355 208.404 875.124 212.334L873.161 212.718ZM363.824 199.317L361.884 198.831C362.855 194.957 363.931 191.051 365.082 187.221L366.997 187.796C365.855 191.597 364.788 195.473 363.824 199.317ZM867.509 189.503C866.394 185.695 865.175 181.865 863.887 178.117L865.777 177.466C867.076 181.243 868.305 185.104 869.429 188.941L867.509 189.503ZM370.709 176.403L368.822 175.74C370.151 171.959 371.586 168.161 373.087 164.449L374.942 165.199C373.452 168.882 372.028 172.652 370.709 176.403H370.709ZM859.742 166.909C858.283 163.228 856.721 159.534 855.098 155.929L856.922 155.108C858.558 158.741 860.132 162.463 861.602 166.171L859.742 166.909ZM379.686 154.206L377.868 153.371C379.539 149.733 381.316 146.085 383.152 142.529L384.93 143.446C383.107 146.976 381.343 150.596 379.686 154.206ZM849.954 145.17C848.164 141.64 846.268 138.102 844.317 134.656L846.058 133.67C848.023 137.143 849.934 140.708 851.737 144.266L849.954 145.17ZM390.663 132.941L388.929 131.943C390.924 128.479 393.028 125.011 395.183 121.637L396.869 122.713C394.73 126.062 392.642 129.503 390.663 132.941V132.941ZM838.204 124.406C836.091 121.042 833.878 117.69 831.627 114.444L833.27 113.304C835.538 116.575 837.769 119.952 839.897 123.342L838.204 124.406ZM403.536 112.782L401.901 111.63C404.207 108.36 406.617 105.101 409.067 101.942L410.647 103.168C408.216 106.303 405.823 109.537 403.536 112.782ZM824.6 104.79C822.19 101.633 819.68 98.4951 817.138 95.4629L818.671 94.1782C821.232 97.2339 823.761 100.396 826.189 103.576L824.6 104.79ZM418.189 93.8911L416.667 92.5942C419.254 89.5552 421.951 86.5302 424.682 83.6035L426.144 84.9678C423.434 87.8726 420.757 90.875 418.189 93.8911ZM809.259 86.4829C806.572 83.5586 803.785 80.6602 800.977 77.8691L802.387 76.4502C805.217 79.2632 808.024 82.1831 810.731 85.1294L809.259 86.4829ZM434.494 76.419L433.095 74.9893C435.955 72.1915 438.915 69.4253 441.891 66.7681L443.223 68.2603C440.269 70.897 437.332 73.6421 434.494 76.419ZM792.312 69.6392C789.367 66.9688 786.327 64.335 783.276 61.8111L784.552 60.2701C787.625 62.8131 790.688 65.4669 793.655 68.1578L792.312 69.6392ZM452.312 60.5074L451.049 58.9566C454.143 56.4376 457.339 53.9532 460.551 51.5723L461.743 53.1788C458.555 55.542 455.382 58.0073 452.312 60.5073V60.5074ZM773.894 54.4004C770.717 52.0084 767.448 49.6612 764.179 47.4244L765.308 45.774C768.603 48.0274 771.896 50.3921 775.097 52.8028L773.894 54.4004ZM471.494 46.29L470.378 44.6308C473.688 42.4033 477.097 40.2221 480.508 38.1464L481.547 39.8554C478.162 41.915 474.78 44.0801 471.494 46.29ZM754.153 40.8989C750.773 38.8071 747.303 36.768 743.838 34.8374L744.811 33.0903C748.303 35.0356 751.8 37.0908 755.206 39.1977L754.153 40.8989ZM491.882 33.8886L490.922 32.1338C494.424 30.2173 498.016 28.3579 501.596 26.6064L502.475 28.4033C498.922 30.1411 495.358 31.9863 491.882 33.8887V33.8886ZM733.252 29.2548C729.693 27.4818 726.048 25.769 722.417 24.164L723.226 22.3349C726.885 23.9521 730.559 25.6782 734.144 27.4648L733.252 29.2548ZM513.304 23.4106L512.509 21.5756C516.169 19.9892 519.913 18.4677 523.637 17.0531L524.347 18.9233C520.651 20.3267 516.936 21.8364 513.304 23.4106V23.4106ZM711.355 19.5761C707.652 18.1401 703.862 16.77 700.09 15.5044L700.727 13.6079C704.527 14.8838 708.347 16.2641 712.078 17.7119L711.355 19.5761ZM535.612 14.9394L534.989 13.039C538.79 11.7929 542.668 10.6196 546.515 9.5527L547.049 11.4795C543.232 12.5386 539.384 13.7027 535.612 14.9395V14.9394ZM688.676 11.9658C684.861 10.8784 680.971 9.86569 677.112 8.95602L677.571 7.00974C681.46 7.92624 685.38 8.94673 689.225 10.042L688.676 11.9658ZM558.634 8.5503L558.189 6.6006C562.085 5.71046 566.055 4.89942 569.986 4.19044L570.341 6.15821C566.439 6.86231 562.501 7.66701 558.634 8.5503ZM665.422 6.48341C661.527 5.75241 657.561 5.10206 653.631 4.5503L653.908 2.56982C657.868 3.12598 661.866 3.78126 665.791 4.51759L665.422 6.48341ZM582.146 4.30714L581.882 2.32471C585.841 1.79639 589.867 1.35206 593.849 1.00538L594.022 2.99757C590.071 3.3423 586.076 3.78272 582.146 4.30714V4.30714ZM641.763 3.15968C637.823 2.78858 633.813 2.50244 629.844 2.31055L629.941 0.312508C633.94 0.506358 637.98 0.79444 641.95 1.16851L641.763 3.15968ZM605.948 2.23048L605.864 0.232475C609.54 0.0791553 613.286 0.00104104 617 6.10352e-05L617.905 0.00151825L617.899 2.00152L617 2.00001C613.314 2.00101 609.596 2.07862 605.948 2.23048V2.23048Z" fill="#3F3D56"/>
<path d="M310.567 133.493C302.185 164.478 273.474 183.669 273.474 183.669C273.474 183.669 258.354 152.621 266.736 121.636C275.118 90.65 303.829 71.4598 303.829 71.4598C303.829 71.4598 318.949 102.507 310.567 133.493Z" fill="#EB007D"/>
<path d="M234.313 133.493C242.695 164.478 271.406 183.669 271.406 183.669C271.406 183.669 286.526 152.621 278.144 121.636C269.762 90.6499 241.051 71.4598 241.051 71.4598C241.051 71.4598 225.931 102.507 234.313 133.493Z" fill="#EB007D"/>
<path d="M246.63 126.834C269.631 149.224 272.44 183.643 272.44 183.643C272.44 183.643 237.958 181.761 214.957 159.37C191.956 136.98 189.147 102.561 189.147 102.561C189.147 102.561 223.629 104.443 246.63 126.834Z" fill="#3F3D56"/>
<path d="M298.25 126.834C275.249 149.224 272.44 183.643 272.44 183.643C272.44 183.643 306.922 181.761 329.923 159.37C352.924 136.98 355.733 102.561 355.733 102.561C355.733 102.561 321.251 104.443 298.25 126.834Z" fill="#3F3D56"/>
<path d="M667.904 313.325H28.6144V627.566H667.904V313.325Z" fill="#EB007D"/>
<path d="M139 387H133V389H139V387Z" fill="white"/>
<path d="M598.897 389H586.795V387H598.897V389ZM574.692 389H562.59V387H574.692V389ZM550.487 389H538.385V387H550.487V389ZM526.282 389H514.18V387H526.282V389ZM502.077 389H489.975V387H502.077V389ZM477.872 389H465.769V387H477.872L477.872 389ZM453.667 389H441.564V387H453.667L453.667 389ZM429.461 389H417.359V387H429.461L429.461 389ZM405.256 389H393.154V387H405.256L405.256 389ZM381.051 389H368.949V387H381.051V389ZM356.846 389H344.744V387H356.846L356.846 389ZM332.641 389H320.539V387H332.641L332.641 389ZM308.436 389H296.333V387H308.436V389ZM284.231 389H272.128V387H284.231V389ZM260.025 389H247.923V387H260.025L260.025 389ZM235.82 389H223.718V387H235.82L235.82 389ZM211.615 389H199.513V387H211.615V389ZM187.41 389H175.308V387H187.41L187.41 389ZM163.205 389H151.103V387H163.205L163.205 389Z" fill="white"/>
<path d="M617 387H611V389H617V387Z" fill="white"/>
<path d="M139 429H133V431H139V429Z" fill="white"/>
<path d="M598.897 431H586.795V429H598.897V431ZM574.692 431H562.59V429H574.692V431ZM550.487 431H538.385V429H550.487V431ZM526.282 431H514.18V429H526.282V431ZM502.077 431H489.975V429H502.077V431ZM477.872 431H465.769V429H477.872L477.872 431ZM453.667 431H441.564V429H453.667L453.667 431ZM429.461 431H417.359V429H429.461L429.461 431ZM405.256 431H393.154V429H405.256L405.256 431ZM381.051 431H368.949V429H381.051V431ZM356.846 431H344.744V429H356.846L356.846 431ZM332.641 431H320.539V429H332.641L332.641 431ZM308.436 431H296.333V429H308.436V431ZM284.231 431H272.128V429H284.231V431ZM260.025 431H247.923V429H260.025L260.025 431ZM235.82 431H223.718V429H235.82L235.82 431ZM211.615 431H199.513V429H211.615V431ZM187.41 431H175.308V429H187.41L187.41 431ZM163.205 431H151.103V429H163.205L163.205 431Z" fill="white"/>
<path d="M617 429H611V431H617V429Z" fill="white"/>
<path d="M139 471H133V473H139V471Z" fill="white"/>
<path d="M598.897 473H586.795V471H598.897V473ZM574.692 473H562.59V471H574.692V473ZM550.487 473H538.385V471H550.487V473ZM526.282 473H514.18V471H526.282V473ZM502.077 473H489.975V471H502.077V473ZM477.872 473H465.769V471H477.872L477.872 473ZM453.667 473H441.564V471H453.667L453.667 473ZM429.461 473H417.359V471H429.461L429.461 473ZM405.256 473H393.154V471H405.256L405.256 473ZM381.051 473H368.949V471H381.051V473ZM356.846 473H344.744V471H356.846L356.846 473ZM332.641 473H320.539V471H332.641L332.641 473ZM308.436 473H296.333V471H308.436V473ZM284.231 473H272.128V471H284.231V473ZM260.025 473H247.923V471H260.025L260.025 473ZM235.82 473H223.718V471H235.82L235.82 473ZM211.615 473H199.513V471H211.615V473ZM187.41 473H175.308V471H187.41L187.41 473ZM163.205 473H151.103V471H163.205L163.205 473Z" fill="white"/>
<path d="M617 471H611V473H617V471Z" fill="white"/>
<path d="M139 513H133V515H139V513Z" fill="white"/>
<path d="M598.897 515H586.795V513H598.897V515ZM574.692 515H562.59V513H574.692V515ZM550.487 515H538.385V513H550.487V515ZM526.282 515H514.18V513H526.282V515ZM502.077 515H489.975V513H502.077V515ZM477.872 515H465.769V513H477.872L477.872 515ZM453.667 515H441.564V513H453.667L453.667 515ZM429.461 515H417.359V513H429.461L429.461 515ZM405.256 515H393.154V513H405.256L405.256 515ZM381.051 515H368.949V513H381.051V515ZM356.846 515H344.744V513H356.846L356.846 515ZM332.641 515H320.539V513H332.641L332.641 515ZM308.436 515H296.333V513H308.436V515ZM284.231 515H272.128V513H284.231V515ZM260.025 515H247.923V513H260.025L260.025 515ZM235.82 515H223.718V513H235.82L235.82 515ZM211.615 515H199.513V513H211.615V515ZM187.41 515H175.308V513H187.41L187.41 515ZM163.205 515H151.103V513H163.205L163.205 515Z" fill="white"/>
<path d="M617 513H611V515H617V513Z" fill="white"/>
<path d="M139 555H133V557H139V555Z" fill="white"/>
<path d="M598.897 557H586.795V555H598.897V557ZM574.692 557H562.59V555H574.692V557ZM550.487 557H538.385V555H550.487V557ZM526.282 557H514.18V555H526.282V557ZM502.077 557H489.975V555H502.077V557ZM477.872 557H465.769V555H477.872L477.872 557ZM453.667 557H441.564V555H453.667L453.667 557ZM429.461 557H417.359V555H429.461L429.461 557ZM405.256 557H393.154V555H405.256L405.256 557ZM381.051 557H368.949V555H381.051V557ZM356.846 557H344.744V555H356.846L356.846 557ZM332.641 557H320.539V555H332.641L332.641 557ZM308.436 557H296.333V555H308.436V557ZM284.231 557H272.128V555H284.231V557ZM260.025 557H247.923V555H260.025L260.025 557ZM235.82 557H223.718V555H235.82L235.82 557ZM211.615 557H199.513V555H211.615V557ZM187.41 557H175.308V555H187.41L187.41 557ZM163.205 557H151.103V555H163.205L163.205 557Z" fill="white"/>
<path d="M617 555H611V557H617V555Z" fill="white"/>
<path d="M135 570C142.732 570 149 563.732 149 556C149 548.268 142.732 542 135 542C127.268 542 121 548.268 121 556C121 563.732 127.268 570 135 570Z" fill="#3F3D56"/>
<path d="M229 528C236.732 528 243 521.732 243 514C243 506.268 236.732 500 229 500C221.268 500 215 506.268 215 514C215 521.732 221.268 528 229 528Z" fill="#3F3D56"/>
<path d="M326 486C333.732 486 340 479.732 340 472C340 464.268 333.732 458 326 458C318.268 458 312 464.268 312 472C312 479.732 318.268 486 326 486Z" fill="#3F3D56"/>
<path d="M422 444C429.732 444 436 437.732 436 430C436 422.268 429.732 416 422 416C414.268 416 408 422.268 408 430C408 437.732 414.268 444 422 444Z" fill="#3F3D56"/>
<path d="M495 484C502.732 484 509 477.732 509 470C509 462.268 502.732 456 495 456C487.268 456 481 462.268 481 470C481 477.732 487.268 484 495 484Z" fill="#3F3D56"/>
<path d="M569 402C576.732 402 583 395.732 583 388C583 380.268 576.732 374 569 374C561.268 374 555 380.268 555 388C555 395.732 561.268 402 569 402Z" fill="#3F3D56"/>
<path d="M87 397C91.9706 397 96 392.971 96 388C96 383.029 91.9706 379 87 379C82.0294 379 78 383.029 78 388C78 392.971 82.0294 397 87 397Z" fill="white"/>
<path d="M87 439C91.9706 439 96 434.971 96 430C96 425.029 91.9706 421 87 421C82.0294 421 78 425.029 78 430C78 434.971 82.0294 439 87 439Z" fill="white"/>
<path d="M87 481C91.9706 481 96 476.971 96 472C96 467.029 91.9706 463 87 463C82.0294 463 78 467.029 78 472C78 476.971 82.0294 481 87 481Z" fill="white"/>
<path d="M87 523C91.9706 523 96 518.971 96 514C96 509.029 91.9706 505 87 505C82.0294 505 78 509.029 78 514C78 518.971 82.0294 523 87 523Z" fill="white"/>
<path d="M87 565C91.9706 565 96 560.971 96 556C96 551.029 91.9706 547 87 547C82.0294 547 78 551.029 78 556C78 560.971 82.0294 565 87 565Z" fill="white"/>
<path d="M570 365H568V185H651V187H570V365Z" fill="#3F3D56"/>
<path d="M614 261C628.359 261 640 249.359 640 235C640 220.641 628.359 209 614 209C599.641 209 588 220.641 588 235C588 249.359 599.641 261 614 261Z" fill="white"/>
<path d="M617 263C610.473 263 604.093 261.065 598.666 257.439C593.24 253.812 589.01 248.659 586.512 242.629C584.014 236.599 583.361 229.963 584.634 223.562C585.908 217.161 589.051 211.281 593.666 206.665C598.281 202.05 604.161 198.907 610.562 197.634C616.964 196.361 623.599 197.014 629.629 199.512C635.659 202.01 640.813 206.239 644.439 211.666C648.065 217.093 650 223.473 650 230C649.99 238.749 646.51 247.137 640.324 253.324C634.137 259.51 625.749 262.99 617 263ZM617 199C610.869 199 604.875 200.818 599.778 204.224C594.68 207.631 590.706 212.472 588.36 218.137C586.014 223.801 585.4 230.034 586.596 236.048C587.792 242.061 590.744 247.585 595.08 251.92C599.415 256.256 604.939 259.208 610.952 260.404C616.966 261.601 623.199 260.987 628.863 258.64C634.528 256.294 639.369 252.321 642.776 247.223C646.182 242.125 648 236.131 648 230C647.991 221.781 644.722 213.902 638.91 208.09C633.099 202.278 625.219 199.009 617 199V199Z" fill="#3F3D56"/>
<path d="M230 486H228V181H311V183H230V486Z" fill="#3F3D56"/>
<path d="M274 257C288.359 257 300 245.359 300 231C300 216.641 288.359 205 274 205C259.641 205 248 216.641 248 231C248 245.359 259.641 257 274 257Z" fill="#F2F2F2"/>
<path d="M277 259C270.473 259 264.093 257.065 258.666 253.439C253.239 249.812 249.01 244.659 246.512 238.629C244.014 232.599 243.361 225.963 244.634 219.562C245.907 213.161 249.05 207.281 253.665 202.665C258.281 198.05 264.161 194.907 270.562 193.634C276.963 192.361 283.599 193.014 289.629 195.512C295.659 198.01 300.812 202.239 304.438 207.666C308.065 213.093 310 219.473 310 226C309.99 234.749 306.51 243.137 300.324 249.324C294.137 255.51 285.749 258.99 277 259V259ZM277 195C270.869 195 264.875 196.818 259.777 200.224C254.679 203.631 250.706 208.472 248.36 214.137C246.013 219.801 245.4 226.034 246.596 232.048C247.792 238.061 250.744 243.585 255.08 247.92C259.415 252.256 264.939 255.208 270.952 256.404C276.966 257.601 283.199 256.987 288.863 254.64C294.528 252.294 299.369 248.321 302.776 243.223C306.182 238.125 308 232.131 308 226C307.991 217.781 304.722 209.902 298.91 204.09C293.098 198.278 285.219 195.009 277 195Z" fill="#3F3D56"/>
<path d="M143.5 518.5H141.5V215.5H60.5V213.5H143.5V518.5Z" fill="#3F3D56"/>
<path d="M97.5 289.5C111.859 289.5 123.5 277.859 123.5 263.5C123.5 249.141 111.859 237.5 97.5 237.5C83.1406 237.5 71.5 249.141 71.5 263.5C71.5 277.859 83.1406 289.5 97.5 289.5Z" fill="#F2F2F2"/>
<path d="M94.5 291.5C87.9732 291.5 81.593 289.565 76.1662 285.939C70.7394 282.312 66.5097 277.159 64.012 271.129C61.5143 265.099 60.8608 258.463 62.1341 252.062C63.4074 245.661 66.5504 239.781 71.1655 235.165C75.7806 230.55 81.6607 227.407 88.062 226.134C94.4634 224.861 101.099 225.514 107.129 228.012C113.159 230.51 118.312 234.739 121.939 240.166C125.565 245.593 127.5 251.973 127.5 258.5C127.49 267.249 124.01 275.637 117.824 281.824C111.637 288.01 103.249 291.49 94.5 291.5V291.5ZM94.5 227.5C88.3688 227.5 82.3753 229.318 77.2773 232.724C72.1794 236.131 68.2061 240.972 65.8597 246.637C63.5134 252.301 62.8995 258.534 64.0957 264.548C65.2918 270.561 68.2443 276.085 72.5797 280.42C76.9151 284.756 82.4388 287.708 88.4522 288.904C94.4656 290.101 100.699 289.487 106.363 287.14C112.028 284.794 116.869 280.821 120.276 275.723C123.682 270.625 125.5 264.631 125.5 258.5C125.491 250.281 122.222 242.402 116.41 236.59C110.598 230.778 102.719 227.509 94.5 227.5V227.5Z" fill="#3F3D56"/>
<path d="M1147 627H0V629H1147V627Z" fill="#3F3D56"/>
<path d="M292.121 281.803H250.817C247.999 265.509 247.999 248.851 250.817 232.557H292.121C287.468 248.642 287.468 265.717 292.121 281.803Z" fill="#FF6584"/>
<path d="M73.8789 308.781H115.183C118.001 292.486 118.001 275.829 115.183 259.534H73.8789C78.5321 275.62 78.5321 292.695 73.8789 308.781V308.781Z" fill="#EB007D"/>
<path d="M593.879 278.781H635.183C638.001 262.486 638.001 245.829 635.183 229.534H593.879C598.532 245.62 598.532 262.695 593.879 278.781V278.781Z" fill="#EB007D"/>
<path d="M1115.36 626.12C1115.18 625.835 1111.07 618.966 1109.64 604.704C1108.34 591.619 1109.18 569.563 1120.61 538.798C1142.28 480.514 1115.62 433.487 1115.35 433.019L1116.66 432.256C1116.73 432.375 1123.61 444.364 1127.68 463.457C1133.05 488.769 1131.09 515.087 1122.04 539.328C1100.41 597.512 1116.49 625.056 1116.65 625.328L1115.36 626.12Z" fill="#3F3D56"/>
<path d="M1106.88 429.597C1112.34 429.597 1116.77 425.172 1116.77 419.714C1116.77 414.256 1112.34 409.832 1106.88 409.832C1101.43 409.832 1097 414.256 1097 419.714C1097 425.172 1101.43 429.597 1106.88 429.597Z" fill="#3F3D56"/>
<path d="M1138.05 466.085C1143.51 466.085 1147.93 461.661 1147.93 456.203C1147.93 450.745 1143.51 446.321 1138.05 446.321C1132.59 446.321 1128.17 450.745 1128.17 456.203C1128.17 461.661 1132.59 466.085 1138.05 466.085Z" fill="#3F3D56"/>
<path d="M1116.77 490.411C1122.22 490.411 1126.65 485.987 1126.65 480.529C1126.65 475.071 1122.22 470.646 1116.77 470.646C1111.31 470.646 1106.88 475.071 1106.88 480.529C1106.88 485.987 1111.31 490.411 1116.77 490.411Z" fill="#EB007D"/>
<path d="M1142.61 510.936C1148.07 510.936 1152.49 506.511 1152.49 501.054C1152.49 495.596 1148.07 491.171 1142.61 491.171C1137.15 491.171 1132.73 495.596 1132.73 501.054C1132.73 506.511 1137.15 510.936 1142.61 510.936Z" fill="#EB007D"/>
<path d="M1109.16 542.864C1114.62 542.864 1119.05 538.439 1119.05 532.981C1119.05 527.523 1114.62 523.099 1109.16 523.099C1103.71 523.099 1099.28 527.523 1099.28 532.981C1099.28 538.439 1103.71 542.864 1109.16 542.864Z" fill="#3F3D56"/>
<path d="M1121.33 626.484C1121.33 626.484 1111.44 602.158 1141.09 583.913L1121.33 626.484Z" fill="#3F3D56"/>
<path d="M1109.17 626.042C1109.17 626.042 1104.68 600.174 1069.87 600.396L1109.17 626.042Z" fill="#3F3D56"/>
<path d="M904.488 217.906L936.382 171.6C936.382 171.6 964.155 149.331 956.195 144.995C948.235 140.659 927.394 160.987 927.394 160.987C927.394 160.987 867.27 207.081 877.185 213.514C887.099 219.947 904.488 217.906 904.488 217.906Z" fill="#A0616A"/>
<path d="M1016.51 159.445C1004.1 138.472 979.539 137.495 979.539 137.495C979.539 137.495 955.61 134.435 940.26 166.377C925.952 196.149 906.205 224.895 937.081 231.865L942.658 214.507L946.112 233.157C950.508 233.473 954.918 233.549 959.322 233.383C992.387 232.315 1023.88 233.695 1022.86 221.83C1021.51 206.057 1028.45 179.625 1016.51 159.445Z" fill="#2F2E41"/>
<path d="M950.513 288.725L934.612 325.296L990.263 334.041C990.263 334.041 1016.5 298.265 1018.88 295.88L950.513 288.725Z" fill="#A0616A"/>
<path d="M976.748 209.224C992.994 209.224 1006.16 196.055 1006.16 179.809C1006.16 163.563 992.994 150.394 976.748 150.394C960.502 150.394 947.333 163.563 947.333 179.809C947.333 196.055 960.502 209.224 976.748 209.224Z" fill="#A0616A"/>
<path d="M969.593 201.274C969.593 201.274 983.108 231.485 981.518 234.665C979.928 237.845 1010.14 217.97 1010.14 217.97C1010.14 217.97 997.418 196.504 998.213 193.324L969.593 201.274Z" fill="#A0616A"/>
<path d="M1014.11 213.994C1014.11 213.994 1037.96 200.479 1051.48 237.845C1051.48 237.845 1096 290.315 1088.05 299.855C1080.1 309.396 1049.89 276.8 1049.89 276.8L1030.81 256.925C1030.81 256.925 1003.78 249.77 1006.16 234.665C1008.55 219.56 1014.11 213.994 1014.11 213.994Z" fill="#A0616A"/>
<path d="M958.463 232.28L902.812 216.38C902.812 216.38 873.397 204.454 874.192 211.609C874.987 218.765 928.252 259.31 945.743 256.925C963.233 254.54 958.463 232.28 958.463 232.28Z" fill="#A0616A"/>
<path d="M990.263 226.715C990.263 226.715 971.978 224.33 968.003 228.305C964.028 232.28 956.475 228.702 956.475 228.702L943.755 251.757C943.755 251.757 934.612 264.875 941.768 277.595C948.923 290.315 938.588 307.01 938.588 307.01C938.588 307.01 995.828 307.01 1007.75 313.371C1019.68 319.731 1034.05 260.303 1034.05 260.303C1034.05 260.303 1019.28 242.217 1023.26 231.087C1027.23 219.957 1024.85 211.212 1024.85 211.212L1007.36 212.802L990.263 226.715Z" fill="#D0CDE1"/>
<path d="M921.892 578.109L928.252 639.324L952.898 626.604L944.948 573.338L921.892 578.109Z" fill="#A0616A"/>
<path d="M1014.91 577.314L1035.6 632.654L1055.48 618.344L1030.81 564.593L1014.91 577.314Z" fill="#A0616A"/>
<path d="M952.898 605.934C951.648 610.414 949.774 614.696 947.333 618.654C943.358 625.014 933.817 621.834 933.817 621.834C933.817 621.834 922.687 613.089 920.302 617.064C917.917 621.039 905.197 640.914 905.197 640.914C905.197 640.914 863.062 675.895 898.837 681.46C934.612 687.025 941.768 660.789 941.768 660.789C941.768 660.789 968.798 651.249 969.593 641.709C970.388 632.169 952.898 605.934 952.898 605.934Z" fill="#2F2E41"/>
<path d="M1036.37 617.524C1036.37 617.524 1023.65 613.549 1024.45 619.909C1025.24 626.269 1030.01 651.709 1030.01 651.709C1030.01 651.709 1021.27 687.485 1045.91 681.125C1070.56 674.765 1071.35 640.579 1071.35 640.579C1071.35 640.579 1084.07 595.264 1074.53 594.469C1064.99 593.674 1041.94 591.289 1041.94 591.289C1041.94 591.289 1056.25 614.344 1036.37 617.524Z" fill="#2F2E41"/>
<path d="M1011.02 157.423L986.76 144.715L953.257 149.914L946.325 180.529L963.58 179.865L968.4 168.618V179.68L976.362 179.374L980.983 161.467L983.872 180.529L1012.18 179.951L1011.02 157.423Z" fill="#2F2E41"/>
<path d="M999.008 331.656L932.227 316.551C932.227 316.551 898.837 373.791 894.067 421.492C889.297 469.192 867.832 583.674 902.017 585.264C936.203 586.854 956.078 586.854 957.668 583.674C959.258 580.494 940.973 454.882 940.973 454.882C940.973 454.882 979.928 609.114 1001.39 598.779C1022.86 588.444 1046.71 574.929 1045.91 566.978C1045.12 559.028 993.443 474.757 993.443 474.757L1000.6 401.617C1000.6 401.617 1009.34 372.201 994.238 345.171L999.008 331.656Z" fill="#2F2E41"/>
<path d="M950.879 311.781H992.183C995.001 295.486 995.001 278.829 992.183 262.534H950.879C955.532 278.62 955.532 295.695 950.879 311.781V311.781Z" fill="#EB007D"/>
<path d="M1071.35 276.005L1001.39 274.415C1001.39 274.415 970.388 250.565 969.593 264.875C968.798 279.185 1002.19 287.135 1002.19 287.135C1002.19 287.135 1073.97 312.894 1084.99 301.605L1071.35 276.005Z" fill="#A0616A"/>
</g>
<defs>
<clipPath id="clip0">
<rect width="1152.49" height="700" fill="white"/>
</clipPath>
</defs>
</svg>
