<svg width="676" height="676" viewBox="0 0 676 676" fill="none" xmlns="http://www.w3.org/2000/svg">
<g clip-path="url(#clip0)">
<path d="M676 338C676.06 383.755 666.799 429.042 648.78 471.1L647.66 473.68C617.181 543.019 564.33 600.135 497.56 635.894C430.791 671.653 353.958 683.989 279.35 670.93C277.32 670.57 275.293 670.197 273.27 669.81C252.363 665.757 231.891 659.72 212.13 651.78C208.92 650.49 205.733 649.153 202.57 647.77C200.41 646.83 198.25 645.86 196.11 644.86C137.569 617.728 88.0051 574.426 53.2593 520.058C18.5135 465.69 0.0343666 402.522 0 338C0 151.33 151.33 0 338 0C524.67 0 676 151.33 676 338Z" fill="#EB007D"/>
<path opacity="0.2" d="M279.35 670.93C277.32 670.57 275.293 670.197 273.27 669.81C271.95 631.5 267.42 552.87 251.97 470.52C243.52 425.45 231.79 379.25 215.52 337.95C209.946 323.66 203.579 309.691 196.45 296.11C180.01 265.06 160.07 238.92 135.89 221.21L139.45 216.35C159.56 231.09 177.633 251.783 193.67 278.43C198.48 286.41 203.1 294.923 207.53 303.97C212.28 313.65 216.81 323.927 221.12 334.8C223.87 341.72 226.527 348.88 229.09 356.28C240.25 388.41 249.737 425.07 257.55 466.26C259.28 475.36 260.927 484.683 262.49 494.23C274.6 568.2 278.25 636.59 279.35 670.93Z" fill="black"/>
<path opacity="0.2" d="M202.57 647.77C200.41 646.83 198.25 645.86 196.11 644.86C194.02 622.16 190.18 594 183.16 567.27C180.085 555.265 176.138 543.5 171.35 532.07C163.34 513.32 152.97 497.38 139.56 487.55L143.12 482.7C157.16 492.98 167.99 509.23 176.36 528.24C185.79 549.66 192.08 574.59 196.27 598.41C199.38 616.1 201.34 633.19 202.57 647.77Z" fill="black"/>
<path opacity="0.2" d="M102.262 221.07C118.879 221.07 132.35 207.599 132.35 190.982C132.35 174.364 118.879 160.893 102.262 160.893C85.6443 160.893 72.1732 174.364 72.1732 190.982C72.1732 207.599 85.6443 221.07 102.262 221.07Z" fill="black"/>
<path opacity="0.2" d="M111.951 480.079C128.569 480.079 142.04 466.608 142.04 449.991C142.04 433.373 128.569 419.902 111.951 419.902C95.3339 419.902 81.8628 433.373 81.8628 449.991C81.8628 466.608 95.3339 480.079 111.951 480.079Z" fill="black"/>
<path opacity="0.2" d="M221.714 241.521C215.334 277.519 229.419 310.114 229.419 310.114C229.419 310.114 253.849 284.345 260.229 248.348C266.61 212.351 252.525 179.756 252.525 179.756C252.525 179.756 228.095 205.524 221.714 241.521Z" fill="black"/>
<path opacity="0.2" d="M121.718 326.971C156.053 339.526 190.554 331.469 190.554 331.469C190.554 331.469 169.388 303.056 135.053 290.501C100.718 277.946 66.2166 286.003 66.2166 286.003C66.2166 286.003 87.3827 314.416 121.718 326.971Z" fill="black"/>
<path opacity="0.2" d="M115.895 556.333C139.961 565.133 164.178 559.392 164.178 559.392C164.178 559.392 149.377 539.384 125.311 530.584C101.245 521.784 77.0277 527.524 77.0277 527.524C77.0277 527.524 91.8293 547.533 115.895 556.333Z" fill="black"/>
<path d="M337.306 412.849C410.081 412.849 469.076 353.853 469.076 281.079C469.076 208.304 410.081 149.309 337.306 149.309C264.531 149.309 205.536 208.304 205.536 281.079C205.536 353.853 264.531 412.849 337.306 412.849Z" fill="#D0CDE1"/>
<path d="M285.833 381.965C285.833 381.965 302.305 460.204 302.305 468.439C302.305 476.675 380.543 513.735 380.543 513.735L450.546 501.382L475.253 427.261C475.253 427.261 434.075 365.494 434.075 340.787L285.833 381.965Z" fill="#D0CDE1"/>
<path d="M648.78 471.1L647.66 473.68C617.181 543.019 564.33 600.135 497.56 635.894C430.791 671.653 353.958 683.989 279.35 670.93C277.32 670.57 275.293 670.197 273.27 669.81C252.363 665.757 231.891 659.72 212.13 651.78C208.92 650.49 205.733 649.153 202.57 647.77C200.41 646.83 198.25 645.86 196.11 644.86C176.713 635.874 158.213 625.065 140.86 612.58L125.24 567.27L134.02 560.57L152.08 546.78L171.35 532.07L176.36 528.24L251.97 470.52L257.55 466.26L296.85 436.26L296.86 436.25C296.86 436.25 339.36 505.5 401.13 484.91C462.9 464.32 461.55 405.28 461.55 405.28L648.78 471.1Z" fill="#2F2E41"/>
<path d="M223.035 174.916C223.035 174.916 264.872 84.2702 345.059 105.188C425.245 126.107 470.568 157.484 474.055 188.862C477.541 220.239 472.311 267.305 472.311 267.305C472.311 267.305 463.595 202.807 407.813 216.753C352.031 230.698 264.872 220.239 264.872 220.239L250.926 345.749C250.926 345.749 235.238 323.087 217.806 337.033C200.374 350.978 167.253 202.807 223.035 174.916Z" fill="#2F2E41"/>
<path d="M212.13 651.78C208.92 650.49 205.733 649.153 202.57 647.77C200.41 646.83 198.25 645.86 196.11 644.86C164.029 629.984 134.475 610.177 108.52 586.16C117.71 573.64 125.24 567.27 125.24 567.27H187.01L196.27 598.41L212.13 651.78Z" fill="#2F2E41"/>
<path d="M594.67 464.32L647.66 473.68C633.479 505.985 614.327 535.87 590.9 562.25L594.67 464.32Z" fill="#2F2E41"/>
</g>
<defs>
<clipPath id="clip0">
<rect width="676" height="676" fill="white"/>
</clipPath>
</defs>
</svg>
