<svg width="956" height="756" viewBox="0 0 956 756" fill="none" xmlns="http://www.w3.org/2000/svg">
<g clip-path="url(#clip0)">
<path d="M913.295 315.69C871.668 152.004 727.834 33.8456 559.005 29.1063C469.749 26.6008 375.828 56.2028 307.446 159.791C185.207 344.966 314.958 472.928 405.418 533.732C449.121 563.168 488.499 598.561 522.413 638.888C583.516 711.395 701.063 801.496 841.056 660.322C942.523 557.998 941.023 424.721 913.295 315.69Z" fill="#F2F2F2"/>
<path d="M389.305 755.178C418.54 747.564 446.648 741.089 473.63 735.754L463.262 701.092C466.869 699.089 482.484 719.147 482.484 719.147L469.322 618.896C487.35 622.917 495.702 725.17 495.702 725.17L516.157 691.1L506.075 729.681C588.64 715.263 659.881 710.791 719.764 711.863L710.89 682.196C714.497 680.193 730.112 700.251 730.112 700.251L716.95 600C734.978 604.021 743.33 706.274 743.33 706.274L763.785 672.204L753.106 713.068C803.293 715.823 844.185 722.419 875.73 729.614C866.885 683.505 835.926 639.167 835.926 639.167C859.744 651.544 872.126 671.693 878.53 690.366C879.496 633.691 876.986 528.52 852.893 411.625C852.893 411.625 900.864 592.092 893.579 712.38L892.651 733.747C934.474 744.657 955.457 755.522 955.457 755.522L389.305 755.178Z" fill="#3F3D56"/>
<path d="M570.539 727.341C570.335 727.009 565.538 718.999 563.875 702.367C562.35 687.107 563.331 661.386 576.67 625.508C601.941 557.538 570.846 502.696 570.528 502.15L572.062 501.26C572.143 501.399 580.167 515.381 584.906 537.646C591.169 567.165 588.889 597.857 578.332 626.126C553.105 693.979 571.86 726.101 572.052 726.418L570.539 727.341Z" fill="#3F3D56"/>
<path d="M560.657 498.159C567.022 498.159 572.182 492.999 572.182 486.635C572.182 480.27 567.022 475.11 560.657 475.11C554.292 475.11 549.133 480.27 549.133 486.635C549.133 492.999 554.292 498.159 560.657 498.159Z" fill="#EB007D"/>
<path d="M597.004 540.712C603.369 540.712 608.529 535.552 608.529 529.187C608.529 522.822 603.369 517.662 597.004 517.662C590.639 517.662 585.48 522.822 585.48 529.187C585.48 535.552 590.639 540.712 597.004 540.712Z" fill="#3F3D56"/>
<path d="M572.182 569.08C578.547 569.08 583.707 563.92 583.707 557.555C583.707 551.19 578.547 546.031 572.182 546.031C565.817 546.031 560.657 551.19 560.657 557.555C560.657 563.92 565.817 569.08 572.182 569.08Z" fill="#EB007D"/>
<path d="M602.323 593.016C608.688 593.016 613.848 587.856 613.848 581.491C613.848 575.126 608.688 569.967 602.323 569.967C595.958 569.967 590.799 575.126 590.799 581.491C590.799 587.856 595.958 593.016 602.323 593.016Z" fill="#EB007D"/>
<path d="M563.317 630.249C569.682 630.249 574.841 625.089 574.841 618.725C574.841 612.36 569.682 607.2 563.317 607.2C556.952 607.2 551.792 612.36 551.792 618.725C551.792 625.089 556.952 630.249 563.317 630.249Z" fill="#3F3D56"/>
<path d="M577.501 727.766C577.501 727.766 565.976 699.397 600.55 678.121L577.501 727.766Z" fill="#3F3D56"/>
<path d="M563.327 727.251C563.327 727.251 558.082 697.084 517.487 697.342L563.327 727.251Z" fill="#3F3D56"/>
<path d="M739.812 249.37C717.791 249.37 699.938 269.181 699.938 293.621V324.671H709.488L715.017 313.166L713.635 324.671H775.016L780.042 314.212L778.785 324.671H785.696V300.291C785.696 272.168 765.153 249.37 739.812 249.37Z" fill="#2F2E41"/>
<path d="M702.36 392.926L695.737 418.313L757.549 416.106L756.446 395.134C756.446 395.134 710.086 382.992 702.36 392.926Z" fill="#A0616A"/>
<path d="M642.755 494.475L662.623 538.627L681.388 515.447L665.935 484.541L642.755 494.475Z" fill="#A0616A"/>
<path d="M692.426 656.733L694.633 707.507H718.917L715.605 656.733H692.426Z" fill="#A0616A"/>
<path d="M663.727 448.116L674.765 484.541L691.322 661.148C691.322 661.148 706.775 665.563 717.813 660.044L720.021 635.76L724.436 496.683C724.436 496.683 745.408 485.645 743.2 470.192C740.993 454.738 735.474 433.766 735.474 433.766L663.727 448.116Z" fill="#2F2E41"/>
<path d="M697.945 695.365H691.322C691.322 695.365 672.557 715.234 665.935 717.441C659.312 719.649 625.094 738.413 652.689 741.725C680.284 745.036 697.945 730.687 697.945 730.687C697.945 730.687 706.775 736.206 718.917 731.791C731.058 727.375 724.436 714.13 724.436 714.13C724.436 714.13 718.272 693.942 718.043 694.102C717.813 694.262 711.19 704.196 697.945 695.365Z" fill="#2F2E41"/>
<path d="M732.162 317.868C746.183 317.868 757.549 306.502 757.549 292.481C757.549 278.46 746.183 267.094 732.162 267.094C718.141 267.094 706.775 278.46 706.775 292.481C706.775 306.502 718.141 317.868 732.162 317.868Z" fill="#A0616A"/>
<path d="M769.691 325.595L758.013 335.33L756.446 336.633L755.342 349.878H712.294C712.294 349.878 718.166 344.79 723.619 339.524C723.729 339.403 723.851 339.271 723.983 339.149C724.723 338.432 725.385 337.769 725.981 337.173C726.301 336.842 726.61 336.533 726.886 336.246C727.339 335.772 727.78 335.319 728.222 334.866C728.228 334.861 728.232 334.853 728.233 334.844C729.362 333.662 730.424 332.417 731.412 331.114L731.423 331.103C731.688 330.751 731.935 330.387 732.162 330.01C735.473 324.491 727.747 313.453 727.747 313.453L752.03 301.311C752.88 313.276 763.002 321.268 767.528 324.27C768.852 325.142 769.691 325.595 769.691 325.595Z" fill="#A0616A"/>
<path d="M829.296 511.032C812.739 515.447 811.635 482.333 811.635 482.333L789.038 437.138C784.263 427.588 780.979 417.363 779.302 406.818L774.106 374.162L772.528 376.049V376.06L769.691 377.473L752.45 349.878L747.615 342.151V333.321L764.172 325.595H770.795C770.795 325.595 770.939 325.573 771.192 325.55C774.239 325.23 794.063 323.906 795.078 343.255C795.478 350.849 795.444 357.141 795.237 362.078C794.608 375.735 795.904 389.413 799.087 402.709C800.255 407.503 801.53 411.667 802.805 413.898C807.22 421.625 822.673 482.333 822.673 482.333C822.673 482.333 845.853 506.617 829.296 511.032Z" fill="#A0616A"/>
<path d="M727.747 337.736L723.564 345.364L721.091 349.878L708.983 371.954C708.983 371.954 705.55 374.758 699.987 378.378C690.737 384.394 675.571 392.65 660.416 394.03C636.132 396.237 659.312 317.868 659.312 317.868C659.312 317.868 667.039 286.962 678.076 290.273C689.114 293.585 680.284 304.623 672.557 325.595C664.831 346.567 671.454 369.746 671.454 369.746C671.454 369.746 694.633 355.397 706.775 344.359C713.1 338.608 718.53 337.052 722.272 336.886H722.283C723.523 336.818 724.766 336.915 725.981 337.173C726.589 337.295 727.181 337.484 727.747 337.736V337.736Z" fill="#A0616A"/>
<path d="M731.412 331.114C731.368 331.235 730.849 332.217 726.886 336.246C728.503 334.634 730.015 332.92 731.412 331.114V331.114Z" fill="#D0CDE1"/>
<path d="M773.555 374.713L772.528 376.06L756.446 403.964C756.446 403.964 735.474 396.237 720.021 394.03C715.775 393.297 711.407 393.848 707.477 395.612C703.546 397.375 700.231 400.272 697.956 403.931L702.36 386.303L699.987 378.378C699.711 377.451 699.391 376.424 699.048 375.265C695.737 364.227 707.879 352.086 707.879 352.086L722.272 336.886H722.283C723.523 336.818 724.767 336.915 725.981 337.173C725.385 337.769 724.723 338.432 723.983 339.149C723.851 339.271 723.729 339.403 723.619 339.525C719.391 343.84 721.588 345.044 723.564 345.364C724.217 345.464 724.879 345.497 725.539 345.463C730.142 346.125 740.22 342.085 747.615 338.708C752.649 336.412 756.446 334.425 756.446 334.425L766.082 325.595L767.528 324.27C768.852 325.142 769.691 325.595 769.691 325.595H770.795C770.795 325.595 770.939 325.573 771.192 325.55L766.167 329.28C763.664 331.137 761.666 333.59 760.354 336.417C759.041 339.243 758.457 342.353 758.653 345.463V345.463L773.555 374.713Z" fill="#D0CDE1"/>
<path d="M713.398 406.172L697.261 412.473C697.261 412.473 609.641 378.577 596.396 406.172C583.15 433.766 642.755 499.994 642.755 499.994L669.246 487.852L658.208 454.738C658.208 454.738 722.228 508.824 748.719 479.022C775.21 449.219 757.549 407.08 757.549 407.08C757.549 407.08 740.993 394.03 713.398 406.172Z" fill="#2F2E41"/>
<path d="M667.039 526.485L657.104 534.212C657.104 534.212 665.935 569.533 662.623 575.052C659.312 580.571 652.689 596.024 664.831 594.92C676.973 593.816 690.218 575.052 691.322 568.429C692.426 561.806 700.152 541.938 700.152 541.938C700.152 541.938 713.398 511.032 703.464 509.928C693.53 508.824 677.707 508.086 677.707 508.086L667.039 526.485Z" fill="#2F2E41"/>
<path d="M751.148 261.559C749.229 258.983 746.742 256.883 743.881 255.422C741.019 253.962 737.86 253.181 734.647 253.139H733.865C718.771 253.139 706.535 266.797 706.535 283.645V283.645H711.593L712.409 277.428L713.607 283.645H743.603L746.116 278.386L745.487 283.645H751.388C754.142 297.32 750.186 310.996 739.519 324.671H749.571L754.597 314.151L753.341 324.671H772.503L776.272 300.476C776.272 282.357 765.744 266.992 751.148 261.559Z" fill="#2F2E41"/>
<path d="M570.164 47.2174V4.57764e-05H553.499V47.2174H308.154V4.57764e-05H291.489V47.2174H189.648V304.598H672.006V47.2174H570.164ZM299.822 107.396C293.679 107.396 287.735 105.215 283.051 101.241C278.366 97.2662 275.246 91.7574 274.245 85.6962C273.244 79.6351 274.429 73.4155 277.587 68.1463C280.745 62.8772 285.672 58.9009 291.489 56.9264V94.4348H308.154V56.9263C313.972 58.9008 318.898 62.8771 322.057 68.1463C325.215 73.4155 326.399 79.635 325.399 85.6962C324.398 91.7573 321.277 97.2661 316.593 101.24C311.909 105.215 305.965 107.396 299.822 107.396L299.822 107.396ZM561.832 107.396C555.689 107.396 549.745 105.215 545.061 101.241C540.376 97.2662 537.255 91.7574 536.255 85.6962C535.254 79.6351 536.439 73.4155 539.597 68.1463C542.755 62.8772 547.682 58.9009 553.499 56.9264V94.4348H570.164V56.9263C575.982 58.9008 580.908 62.8771 584.067 68.1463C587.225 73.4155 588.409 79.635 587.409 85.6962C586.408 91.7573 583.287 97.2661 578.603 101.24C573.919 105.215 567.975 107.396 561.832 107.396V107.396Z" fill="#3F3D56"/>
<path d="M296.118 133.782H212.794V196.739H296.118V133.782Z" fill="#D0CDE1"/>
<path d="M413.699 133.782H330.374V196.739H413.699V133.782Z" fill="#D0CDE1"/>
<path d="M531.279 133.782H447.955V196.739H531.279V133.782Z" fill="#D0CDE1"/>
<path d="M648.86 133.782H565.535V196.739H648.86V133.782Z" fill="#D0CDE1"/>
<path d="M296.118 215.256H212.794V278.212H296.118V215.256Z" fill="#D0CDE1"/>
<path d="M413.699 215.256H330.374V278.212H413.699V215.256Z" fill="#D0CDE1"/>
<path d="M531.279 215.256H447.955V278.212H531.279V215.256Z" fill="#D0CDE1"/>
<path d="M648.86 215.256H565.535V278.212H648.86V215.256Z" fill="#D0CDE1"/>
<path d="M489.24 179.428L463.196 143.462L470.291 138.326L490.226 165.857L566.513 87.481L572.789 93.59L489.24 179.428Z" fill="#EB007D"/>
<path d="M369.808 266.456L343.764 230.49L350.858 225.354L370.794 252.885L447.081 174.509L453.356 180.618L369.808 266.456Z" fill="#EB007D"/>
<path d="M133.157 273.11L114.079 265.581L95 258.053L111.059 245.295L127.118 232.536L130.138 252.823L133.157 273.11Z" fill="#F2F2F2"/>
<path d="M251.157 639.11L232.079 631.581L213 624.053L229.059 611.295L245.118 598.536L248.138 618.823L251.157 639.11Z" fill="#F2F2F2"/>
<path d="M38.157 384.11L19.079 376.581L0 369.053L16.059 356.295L32.118 343.536L35.138 363.823L38.157 384.11Z" fill="#F2F2F2"/>
<path d="M141.102 454.866L123.083 464.663L105.065 474.461L105.589 453.958L106.113 433.454L123.608 444.16L141.102 454.866Z" fill="#F2F2F2"/>
<path d="M348.102 558.866L330.083 568.663L312.065 578.461L312.589 557.958L313.113 537.454L330.608 548.16L348.102 558.866Z" fill="#F2F2F2"/>
</g>
<defs>
<clipPath id="clip0">
<rect width="955.457" height="755.522" fill="white"/>
</clipPath>
</defs>
</svg>
