<svg width="926" height="749" viewBox="0 0 926 749" fill="none" xmlns="http://www.w3.org/2000/svg">
<g clip-path="url(#clip0)">
<path d="M237.905 310.915C284.285 310.915 321.884 273.316 321.884 226.935C321.884 180.555 284.285 142.956 237.905 142.956C191.525 142.956 153.926 180.555 153.926 226.935C153.926 273.316 191.525 310.915 237.905 310.915Z" fill="#FF6584"/>
<path d="M926 200.96V421.84C926.001 464.651 917.57 507.043 901.187 546.596C884.804 586.149 860.791 622.087 830.519 652.359C800.247 682.631 764.309 706.644 724.756 723.027C685.204 739.41 642.811 747.841 600 747.84H0V526.96C0 408.93 62.73 305.54 156.68 248.33C172.87 238.462 189.895 230.036 207.56 223.15C217.956 219.089 228.557 215.574 239.32 212.62C239.53 212.55 239.75 212.49 239.96 212.44C243.14 211.57 246.34 210.75 249.56 209.98C249.74 209.93 249.91 209.89 250.09 209.85C269.935 205.121 290.181 202.266 310.56 201.32C312.97 201.21 315.38 201.12 317.81 201.07C318.68 201.04 319.56 201.02 320.45 201.02C322.29 200.98 324.14 200.96 326 200.96H926Z" fill="#3F3D56"/>
<path d="M432 605.5C193.914 605.5 0.819001 669.701 0.00952148 749H863.991C863.181 669.701 670.086 605.5 432 605.5Z" fill="#F2F2F2"/>
<g opacity="0.1">
<path opacity="0.1" d="M352 714.222C396.183 714.222 432 704.273 432 692C432 679.727 396.183 669.778 352 669.778C307.817 669.778 272 679.727 272 692C272 704.273 307.817 714.222 352 714.222Z" fill="black"/>
</g>
<g opacity="0.1">
<path opacity="0.1" d="M525 674.222C569.183 674.222 605 664.273 605 652C605 639.727 569.183 629.778 525 629.778C480.817 629.778 445 639.727 445 652C445 664.273 480.817 674.222 525 674.222Z" fill="black"/>
</g>
<g opacity="0.1">
<path opacity="0.1" d="M352 712C391.765 712 424 703.046 424 692C424 680.954 391.765 672 352 672C312.235 672 280 680.954 280 692C280 703.046 312.235 712 352 712Z" fill="black"/>
</g>
<g opacity="0.1">
<path opacity="0.1" d="M525 672C564.765 672 597 663.046 597 652C597 640.954 564.765 632 525 632C485.235 632 453 640.954 453 652C453 663.046 485.235 672 525 672Z" fill="black"/>
</g>
<path d="M138 297C141.866 297 145 293.866 145 290C145 286.134 141.866 283 138 283C134.134 283 131 286.134 131 290C131 293.866 134.134 297 138 297Z" fill="#F2F2F2"/>
<path d="M740 571C743.866 571 747 567.866 747 564C747 560.134 743.866 557 740 557C736.134 557 733 560.134 733 564C733 567.866 736.134 571 740 571Z" fill="#F2F2F2"/>
<path d="M410 346C413.866 346 417 342.866 417 339C417 335.134 413.866 332 410 332C406.134 332 403 335.134 403 339C403 342.866 406.134 346 410 346Z" fill="#F2F2F2"/>
<path d="M757 301C759.209 301 761 299.209 761 297C761 294.791 759.209 293 757 293C754.791 293 753 294.791 753 297C753 299.209 754.791 301 757 301Z" fill="#FF6584"/>
<path d="M154 501C156.209 501 158 499.209 158 497C158 494.791 156.209 493 154 493C151.791 493 150 494.791 150 497C150 499.209 151.791 501 154 501Z" fill="#FF6584"/>
<path d="M94 581.322H92.178V579.5H91.822V581.322H90V581.678H91.822V583.5H92.178V581.678H94V581.322Z" fill="#F2F2F2"/>
<path d="M679 433.322H677.178V431.5H676.822V433.322H675V433.678H676.822V435.5H677.178V433.678H679V433.322Z" fill="#F2F2F2"/>
<path d="M830 403.322H828.178V401.5H827.822V403.322H826V403.678H827.822V405.5H828.178V403.678H830V403.322Z" fill="#F2F2F2"/>
<path d="M505 483.322H503.178V481.5H502.822V483.322H501V483.678H502.822V485.5H503.178V483.678H505V483.322Z" fill="#F2F2F2"/>
<path d="M786 493.322H784.178V491.5H783.822V493.322H782V493.678H783.822V495.5H784.178V493.678H786V493.322Z" fill="#F2F2F2"/>
<path d="M447 536.322H445.178V534.5H444.822V536.322H443V536.678H444.822V538.5H445.178V536.678H447V536.322Z" fill="#F2F2F2"/>
<path d="M575 538.322H573.178V536.5H572.822V538.322H571V538.678H572.822V540.5H573.178V538.678H575V538.322Z" fill="#F2F2F2"/>
<path d="M96 368.322H94.178V366.5H93.822V368.322H92V368.678H93.822V370.5H94.178V368.678H96V368.322Z" fill="#F2F2F2"/>
<path d="M679.872 230.689H676.997V288.753H679.872V230.689Z" fill="#E6E6E6"/>
<path d="M611.748 385.046L585.303 445.984L590.477 454.607L588.752 457.481L600.825 463.805V460.356L605.424 459.206L624.97 423.563L611.748 385.046Z" fill="#E6E6E6"/>
<path d="M591.052 456.906C591.052 456.906 571.506 487.375 593.351 491.974C615.197 496.574 597.375 459.781 597.375 459.781L591.052 456.906Z" fill="#E6E6E6"/>
<path d="M619.221 443.109L612.323 465.53L609.448 494.274L604.274 504.622L610.023 551.188L619.221 560.386L623.245 606.377V627.073L634.168 646.044L620.102 666.008C619.439 666.946 619.042 668.047 618.953 669.192C618.865 670.338 619.089 671.486 619.6 672.515C620.112 673.543 620.893 674.414 621.86 675.035C622.827 675.655 623.944 676.002 625.093 676.039C628.198 676.121 632.292 675.243 637.617 672.489C654.289 663.865 653.714 655.817 653.714 655.817C653.714 655.817 664.062 655.817 664.637 647.768C665.212 639.72 658.313 582.232 658.313 582.232L651.99 557.511V490.25H654.289L655.439 547.738L660.613 569.009L661.188 578.207L668.661 670.189C668.661 670.189 702.005 679.387 703.729 671.914C705.454 664.44 691.082 659.841 691.082 659.841L699.705 643.169V610.976L696.831 604.077L691.657 557.511L700.28 548.313L704.879 542.564V496.574L699.13 478.752L697.405 463.805L688.207 440.81C688.207 440.81 646.241 427.013 619.221 443.109Z" fill="white"/>
<path d="M693.956 313.185C693.956 320.1 692.315 326.916 689.168 333.073C686.02 339.23 681.456 344.553 675.851 348.602C670.246 352.652 663.76 355.313 656.926 356.367C650.092 357.421 643.105 356.838 636.54 354.666C629.975 352.494 624.02 348.795 619.163 343.872C614.307 338.95 610.688 332.945 608.604 326.352C606.521 319.758 606.032 312.764 607.178 305.945C608.324 299.126 611.072 292.676 615.197 287.126L615.208 287.114C620.689 279.742 628.353 274.285 637.112 271.519C645.871 268.753 655.28 268.818 664 271.705C672.72 274.592 680.308 280.154 685.686 287.6C691.064 295.047 693.958 304 693.956 313.185Z" fill="#EB007D"/>
<g opacity="0.1">
<path opacity="0.1" d="M687.747 295.071L684.183 315.485C657.399 245.958 614.795 288.666 614.059 289.414C618.462 283.492 624.293 278.782 631.009 275.724C637.724 272.665 645.105 271.357 652.463 271.922C659.821 272.486 666.915 274.906 673.085 278.954C679.255 283.002 684.3 288.546 687.747 295.071Z" fill="black"/>
</g>
<path d="M688.897 292.771L685.333 313.185C658.549 243.659 615.944 286.367 615.208 287.114C619.612 281.193 625.443 276.483 632.159 273.424C638.874 270.365 646.255 269.057 653.613 269.622C660.97 270.187 668.065 272.606 674.235 276.654C680.405 280.702 685.449 286.247 688.897 292.771Z" fill="white"/>
<path d="M682.908 284.153L688.897 304.943C688.897 304.943 676.465 342.206 618.811 343.505L616.922 348.828L610.598 350.553L607.723 362.625L615.772 439.085C615.772 439.085 612.323 446.559 618.071 445.984C618.071 445.984 656.014 433.336 688.782 444.834C688.782 444.834 695.681 447.708 693.956 441.385C693.956 441.385 716.952 427.013 715.227 412.066C713.502 397.119 716.952 327.557 716.952 327.557C716.952 327.557 720.401 307.436 710.053 302.837C710.053 302.837 694.855 281.565 682.908 284.153Z" fill="white"/>
<path d="M670.304 429.417C670.304 429.417 634.286 433.035 644.256 453.009C654.227 472.983 671.981 436.158 671.981 436.158L670.304 429.417Z" fill="#E6E6E6"/>
<path d="M688.782 340.205C688.782 340.205 682.459 347.678 684.758 359.751C687.058 371.823 695.681 398.843 695.681 398.843L665.212 427.012L674.41 439.66L715.802 418.389L725 412.64C722.713 389.388 717.021 366.598 708.108 345L706.604 341.355C706.604 341.355 695.681 336.755 688.782 340.205Z" fill="#E6E6E6"/>
<path d="M685.908 319.796C691.782 319.796 696.543 315.035 696.543 309.161C696.543 303.287 691.782 298.526 685.908 298.526C680.034 298.526 675.272 303.287 675.272 309.161C675.272 315.035 680.034 319.796 685.908 319.796Z" fill="#E6E6E6"/>
<path d="M678.434 238.163C682.721 238.163 686.195 234.688 686.195 230.402C686.195 226.115 682.721 222.641 678.434 222.641C674.148 222.641 670.673 226.115 670.673 230.402C670.673 234.688 674.148 238.163 678.434 238.163Z" fill="#E6E6E6"/>
<path d="M481 352.322H479.178V350.5H478.822V352.322H477V352.678H478.822V354.5H479.178V352.678H481V352.322Z" fill="#F2F2F2"/>
<path d="M645 296.322H643.178V294.5H642.822V296.322H641V296.678H642.822V298.5H643.178V296.678H645V296.322Z" fill="#F2F2F2"/>
<path d="M627 313.322H625.178V311.5H624.822V313.322H623V313.678H624.822V315.5H625.178V313.678H627V313.322Z" fill="#F2F2F2"/>
<path d="M556 271C558.209 271 560 269.209 560 267C560 264.791 558.209 263 556 263C553.791 263 552 264.791 552 267C552 269.209 553.791 271 556 271Z" fill="#F2F2F2"/>
<path d="M239.797 95.8956V95.8951C243.396 85.5897 247.03 75.9177 250.557 66.9866C258.705 46.3752 266.326 29.6859 271.91 18.1508C274.702 12.3833 276.984 7.90457 278.568 4.86854C279.36 3.35053 279.977 2.19321 280.396 1.41584C280.469 1.27973 280.537 1.15526 280.598 1.04254C280.72 1.26778 280.867 1.53996 281.037 1.85823C281.61 2.92689 282.451 4.51529 283.521 6.59216C285.661 10.7459 288.719 16.8535 292.389 24.6649C299.73 40.2878 309.519 62.7245 319.307 89.9745C338.887 144.48 358.458 218.218 358.458 295.195C358.458 364.948 356.265 417.25 352.302 456.467C348.338 495.69 342.605 521.795 335.541 539.17C328.482 556.533 320.112 565.135 310.886 569.426C301.629 573.731 291.438 573.739 280.598 573.739C269.389 573.739 258.874 573.73 249.372 568.974C239.898 564.232 231.351 554.721 224.241 535.519C220.152 524.48 216.534 510.229 213.498 491.861L213.005 491.943L213.498 491.861C206.662 450.569 202.738 388.488 202.738 295.194C202.738 259.356 206.98 224.216 213.495 191.39L213.005 191.293L213.495 191.39C216.628 175.588 220.286 160.334 224.254 145.785L223.772 145.653L224.254 145.784C229.109 127.972 234.428 111.222 239.797 95.8956Z" fill="#F2F2F2" stroke="#F2F2F2"/>
<g opacity="0.1">
<path opacity="0.1" d="M250.092 66.803V553.303H239.325V95.7303C242.926 85.4179 246.563 75.7396 250.092 66.803Z" fill="black"/>
</g>
<path d="M278.205 235.677C301.991 235.677 321.273 216.395 321.273 192.609C321.273 168.823 301.991 149.541 278.205 149.541C254.42 149.541 235.138 168.823 235.138 192.609C235.138 216.395 254.42 235.677 278.205 235.677Z" fill="#3F3D56"/>
<path d="M372.716 547.919C363.14 524.348 350.844 520.281 342.807 520.634V516.815H217.193V520.634C209.156 520.281 196.86 524.348 187.284 547.919C171.732 586.202 196.855 652 196.855 652C196.855 652 183.429 560.233 228.013 559.629C231.874 564.666 236.613 568.964 242 572.319V597H314V574.566C321.038 570.996 327.185 565.892 331.987 559.629C376.571 560.233 363.145 652 363.145 652C363.145 652 388.268 586.202 372.716 547.919Z" fill="#EB007D"/>
<path d="M278.206 226.106C296.706 226.106 311.703 211.109 311.703 192.609C311.703 174.109 296.706 159.112 278.206 159.112C259.705 159.112 244.708 174.109 244.708 192.609C244.708 211.109 259.705 226.106 278.206 226.106Z" fill="#EB007D"/>
<path d="M846.01 200.96H844.01C844.154 222.619 852.852 243.344 868.21 258.618C883.568 273.891 904.34 282.476 926 282.5V280.5C904.87 280.477 884.606 272.104 869.623 257.205C854.639 242.306 846.152 222.089 846.01 200.96Z" fill="#EB007D"/>
<path d="M809.01 200.96H807.01C807.162 232.43 819.762 262.561 842.056 284.771C864.351 306.982 894.53 319.467 926 319.5V317.5C895.061 317.465 865.392 305.19 843.473 283.355C821.553 261.52 809.164 231.899 809.01 200.96Z" fill="#EB007D"/>
<path d="M771 200.96H769C769.25 287.32 839.58 357.5 926 357.5V355.5C840.68 355.5 771.25 286.22 771 200.96Z" fill="#EB007D"/>
</g>
<defs>
<clipPath id="clip0">
<rect width="926" height="749" fill="white"/>
</clipPath>
</defs>
</svg>
