<svg width="1048" height="787" viewBox="0 0 1048 787" fill="none" xmlns="http://www.w3.org/2000/svg">
<g clip-path="url(#clip0)">
<path d="M976 322.962H0V786.038H976V322.962Z" fill="#EB007D"/>
<path d="M814.645 510.554H161.355V786.038H814.645V510.554Z" fill="#F0F0F0"/>
<path d="M814.645 527.363H161.355V529.987H814.645V527.363Z" fill="#3F3D56"/>
<path d="M173.131 524.404C175.726 524.404 177.829 522.301 177.829 519.706C177.829 517.111 175.726 515.008 173.131 515.008C170.536 515.008 168.433 517.111 168.433 519.706C168.433 522.301 170.536 524.404 173.131 524.404Z" fill="#3F3D56"/>
<path d="M189.239 524.404C191.834 524.404 193.937 522.301 193.937 519.706C193.937 517.111 191.834 515.008 189.239 515.008C186.644 515.008 184.541 517.111 184.541 519.706C184.541 522.301 186.644 524.404 189.239 524.404Z" fill="#3F3D56"/>
<path d="M205.347 524.404C207.942 524.404 210.045 522.301 210.045 519.706C210.045 517.111 207.942 515.008 205.347 515.008C202.752 515.008 200.649 517.111 200.649 519.706C200.649 522.301 202.752 524.404 205.347 524.404Z" fill="#3F3D56"/>
<path d="M522.161 651.159L529.116 665.252L544.668 667.511L533.415 678.481L536.071 693.97L522.161 686.657L508.251 693.97L510.907 678.481L499.654 667.511L515.206 665.252L522.161 651.159Z" fill="#EB007D"/>
<path d="M584.736 651.159L591.691 665.252L607.243 667.511L595.989 678.481L598.646 693.97L584.736 686.657L570.826 693.97L573.482 678.481L562.229 667.511L577.781 665.252L584.736 651.159Z" fill="#EB007D"/>
<path d="M647.311 651.159L654.266 665.252L669.818 667.511L658.564 678.481L661.221 693.97L647.311 686.657L633.401 693.97L636.057 678.481L624.804 667.511L640.356 665.252L647.311 651.159Z" fill="#EB007D"/>
<path d="M709.886 651.159L716.841 665.252L732.393 667.511L721.139 678.481L723.796 693.97L709.886 686.657L695.976 693.97L698.632 678.481L687.379 667.511L702.931 665.252L709.886 651.159Z" fill="#EB007D"/>
<path d="M772.461 651.159L779.416 665.252L794.968 667.511L783.714 678.481L786.371 693.97L772.461 686.657L758.55 693.97L761.207 678.481L749.954 667.511L765.506 665.252L772.461 651.159Z" fill="#EB007D"/>
<path d="M460.452 591.887H205.957V753.242H460.452V591.887Z" fill="#3F3D56"/>
<path opacity="0.1" d="M257.853 322.962L0 499.98V409.294L125.752 322.962H257.853Z" fill="black"/>
<path opacity="0.1" d="M551.112 322.962L0 701.307V610.607L419.011 322.962H551.112Z" fill="black"/>
<path d="M149.081 454.987L131.417 436.049L150.355 418.385L168.019 437.323L149.081 454.987ZM134.233 436.147L149.179 452.171L165.204 437.225L150.257 421.2L134.233 436.147Z" fill="#F0F0F0"/>
<path d="M732 443.075H706.103V417.178H732V443.075ZM708.095 441.083H730.008V419.17H708.095V441.083Z" fill="#3F3D56"/>
<path d="M892.45 664.083C899.752 664.083 905.671 658.164 905.671 650.862C905.671 643.56 899.752 637.641 892.45 637.641C885.148 637.641 879.228 643.56 879.228 650.862C879.228 658.164 885.148 664.083 892.45 664.083Z" fill="#F0F0F0"/>
<path d="M892.45 689.057C884.896 689.057 877.511 686.817 871.23 682.62C864.949 678.423 860.053 672.458 857.162 665.479C854.271 658.499 853.515 650.82 854.989 643.411C856.462 636.001 860.1 629.196 865.442 623.854C870.783 618.512 877.589 614.875 884.998 613.401C892.407 611.927 900.087 612.683 907.066 615.574C914.046 618.465 920.011 623.361 924.208 629.642C928.405 635.923 930.645 643.308 930.645 650.862C930.634 660.989 926.606 670.697 919.445 677.858C912.285 685.018 902.576 689.046 892.45 689.057ZM892.45 615.605C885.477 615.605 878.66 617.673 872.862 621.547C867.064 625.421 862.545 630.927 859.877 637.37C857.208 643.812 856.51 650.901 857.87 657.74C859.231 664.58 862.588 670.862 867.519 675.793C872.45 680.723 878.732 684.081 885.571 685.442C892.411 686.802 899.5 686.104 905.942 683.435C912.384 680.767 917.891 676.248 921.765 670.45C925.639 664.652 927.707 657.835 927.707 650.862C927.696 641.515 923.978 632.553 917.369 625.943C910.759 619.334 901.797 615.616 892.45 615.605Z" fill="#2F2E41"/>
<path d="M300.409 717.87C306.482 740.32 327.284 754.224 327.284 754.224C327.284 754.224 338.239 731.729 332.166 709.279C326.093 686.829 305.291 672.925 305.291 672.925C305.291 672.925 294.335 695.42 300.409 717.87Z" fill="white"/>
<path d="M309.333 713.045C325.998 729.268 328.033 754.206 328.033 754.206C328.033 754.206 303.049 752.842 286.385 736.619C269.72 720.397 267.684 695.459 267.684 695.459C267.684 695.459 292.668 696.823 309.333 713.045Z" fill="#EB007D"/>
<path d="M355.657 717.87C349.584 740.32 328.782 754.224 328.782 754.224C328.782 754.224 317.827 731.729 323.9 709.279C329.973 686.829 350.775 672.925 350.775 672.925C350.775 672.925 361.731 695.42 355.657 717.87Z" fill="white"/>
<path d="M346.733 713.045C330.069 729.268 328.033 754.206 328.033 754.206C328.033 754.206 353.017 752.842 369.681 736.619C386.346 720.397 388.382 695.459 388.382 695.459C388.382 695.459 363.398 696.823 346.733 713.045Z" fill="#EB007D"/>
<path d="M847 25H744V145H847V25Z" fill="#F2F2F2"/>
<path d="M811.981 324.348L810.55 322.951C817.132 315.488 822.121 306.759 825.212 297.3C830.078 282.657 832.455 259.531 816.144 232.517C799.456 204.877 798.705 182.428 801.013 168.462C803.525 153.266 809.934 144.748 810.206 144.393L811.795 145.607C811.731 145.69 805.378 154.163 802.967 168.906C800.742 182.518 801.518 204.423 817.856 231.483C834.584 259.188 832.106 282.956 827.082 298.016C821.638 314.333 812.373 323.947 811.981 324.348Z" fill="#3F3D56"/>
<path d="M887 146H743V2H887V146ZM745 144H885V4H745V144Z" fill="#3F3D56"/>
<path d="M861 44H773V46H861V44Z" fill="#3F3D56"/>
<path d="M861 66H773V68H861V66Z" fill="#3F3D56"/>
<path d="M861 88H773V90H861V88Z" fill="#3F3D56"/>
<path d="M1008 112H905V232H1008V112Z" fill="#F2F2F2"/>
<path d="M972.981 411.348L971.55 409.951C978.132 402.488 983.121 393.759 986.212 384.3C991.078 369.657 993.455 346.531 977.144 319.517C960.456 291.877 959.705 269.428 962.013 255.462C964.525 240.266 970.934 231.748 971.206 231.393L972.795 232.607C972.731 232.69 966.378 241.163 963.967 255.906C961.742 269.518 962.518 291.423 978.856 318.483C995.583 346.188 993.105 369.956 988.082 385.016C982.638 401.334 973.373 410.947 972.981 411.348Z" fill="#3F3D56"/>
<path d="M1048 233H904V89H1048V233ZM906 231H1046V91H906V231Z" fill="#3F3D56"/>
<path d="M1022 131H934V133H1022V131Z" fill="#3F3D56"/>
<path d="M1022 153H934V155H1022V153Z" fill="#3F3D56"/>
<path d="M1022 175H934V177H1022V175Z" fill="#3F3D56"/>
<path d="M242 23H139V143H242V23Z" fill="#F2F2F2"/>
<path d="M206.981 322.348L205.55 320.951C212.132 313.488 217.121 304.759 220.212 295.3C225.078 280.657 227.455 257.531 211.144 230.517C194.456 202.877 193.705 180.428 196.013 166.462C198.525 151.266 204.934 142.748 205.206 142.393L206.795 143.607C206.731 143.69 200.378 152.163 197.967 166.906C195.742 180.518 196.518 202.423 212.856 229.483C229.584 257.188 227.105 280.956 222.082 296.016C216.638 312.333 207.373 321.947 206.981 322.348Z" fill="#3F3D56"/>
<path d="M282 144H138V0H282V144ZM140 142H280V2H140V142Z" fill="#3F3D56"/>
<path d="M256 42H168V44H256V42Z" fill="#3F3D56"/>
<path d="M256 64H168V66H256V64Z" fill="#3F3D56"/>
<path d="M256 86H168V88H256V86Z" fill="#3F3D56"/>
<path d="M469.461 366.159L476.416 380.252L491.968 382.511L480.714 393.481L483.371 408.97L469.461 401.657L455.55 408.97L458.207 393.481L446.954 382.511L462.506 380.252L469.461 366.159Z" fill="#F0F0F0"/>
<path d="M494.603 48.4109H494.603C518.635 48.4109 538.117 70.0314 538.117 96.7016V130.586H527.695L521.662 118.032L523.17 130.586H456.185L450.7 119.173L452.072 130.586H444.53V103.981C444.53 73.2904 466.948 48.4109 494.603 48.4109Z" fill="#2F2E41"/>
<path d="M544.462 269.796L571.179 281.151L664.021 356.627C667.435 360.822 669.527 365.936 670.032 371.321C670.7 380.004 698.753 425.423 688.734 431.435C678.715 437.446 642.647 455.48 640.643 443.457C638.64 431.435 627.953 380.004 627.953 380.004L538.451 299.853L544.462 269.796Z" fill="#2F2E41"/>
<path d="M649.326 433.438L660.681 466.835C660.681 466.835 648.659 479.525 654.67 490.212V526.948H664.021L666.693 507.578C666.693 507.578 677.343 526.703 682.723 526.948C694 527.461 716.332 531.472 717 525.461C717.668 519.45 700.089 513.59 700.089 513.59L681.387 462.159L673.372 430.767L649.326 433.438Z" fill="#2F2E41"/>
<path d="M474.997 261.113C474.997 261.113 468.986 319.891 486.352 330.578C503.718 341.264 580.53 375.329 580.53 375.329C580.53 375.329 547.802 406.053 554.481 413.401C561.16 420.748 591.217 440.786 595.224 436.778C599.232 432.77 643.983 384.68 638.64 369.317C633.296 353.955 559.156 303.86 559.156 303.86L550.473 272.468L547.802 247.087L519.749 229.053L474.997 261.113Z" fill="#2F2E41"/>
<path d="M505.598 124.264C520.977 124.264 533.443 111.798 533.443 96.4193C533.443 81.0411 520.977 68.5745 505.598 68.5745C490.22 68.5745 477.754 81.0411 477.754 96.4193C477.754 111.798 490.22 124.264 505.598 124.264Z" fill="#FFB9B9"/>
<path d="M484.015 107.824C484.015 107.824 485.35 133.205 464.645 141.22C443.939 149.235 516.075 201.334 516.075 201.334V143.224C516.075 143.224 506.724 133.205 516.075 117.843L484.015 107.824Z" fill="#FFB9B9"/>
<path d="M439.597 227.049L444.941 253.098L460.971 342.6C460.971 342.6 447.612 380.672 465.646 380.004C483.681 379.336 474.997 338.593 474.997 338.593L465.646 264.453V235.732L439.597 227.049Z" fill="#FFB9B9"/>
<path d="M554.481 214.358L560.492 237.736L587.877 303.86C587.877 303.86 606.579 335.253 591.217 334.585C575.854 333.917 575.854 303.86 575.854 303.86L544.462 250.426V220.37L554.481 214.358Z" fill="#FFB9B9"/>
<path d="M559.156 409.393L537.115 430.099C537.115 430.099 521.752 426.759 515.741 444.793C509.73 462.827 505.722 474.182 505.722 474.182L513.737 478.857L523.756 464.831C523.756 464.831 529.768 490.212 535.779 492.216C541.79 494.22 571.847 507.578 569.175 492.216L554.481 470.842C554.481 470.842 552.477 446.797 558.488 444.793C564.5 442.789 580.53 422.751 580.53 422.751L559.156 409.393Z" fill="#2F2E41"/>
<path d="M473.939 281.819C473.939 281.819 536.724 259.109 540.731 261.113C543.714 262.431 546.892 263.256 550.139 263.555L550.082 254.434C550.082 254.434 529.377 247.087 518.022 251.762C506.667 256.438 471.935 277.143 471.935 277.143L473.939 281.819Z" fill="#3F3D56"/>
<path d="M512.067 187.975C512.067 187.975 494.033 167.269 488.69 154.579C485.309 146.885 479.104 140.783 471.355 137.533C471.355 137.533 431.248 146.564 431.916 162.594C432.584 178.624 457.297 203.337 457.297 203.337C457.297 203.337 453.958 292.172 471.992 290.836C475.882 286.194 478.627 280.703 480.007 274.806C482.011 265.455 544.128 255.436 544.128 255.436C544.128 255.436 549.471 264.787 550.139 260.779C550.807 256.772 544.796 158.586 544.796 158.586L512.944 137.533L512.067 187.975Z" fill="#D0CDE1"/>
<path d="M437.061 156.141L436.614 156.392C435.186 157.193 433.998 158.36 433.171 159.773C432.344 161.186 431.908 162.793 431.909 164.43L431.916 213.999C431.911 215.346 431.612 216.676 431.042 217.897C430.471 219.117 429.642 220.199 428.612 221.067C426.039 223.256 423.653 226.409 428.577 228.051C436.592 230.722 467.984 244.081 468.652 239.406C469.32 234.73 470.656 229.387 468.652 229.387C467.083 229.387 457.737 181.491 450.227 161.012C449.768 159.759 449.042 158.619 448.1 157.674C447.158 156.728 446.021 155.998 444.769 155.535C443.517 155.072 442.18 154.886 440.849 154.991C439.518 155.096 438.225 155.488 437.061 156.141V156.141Z" fill="#D0CDE1"/>
<path d="M535.779 156.249L545.13 158.92L555.817 205.007C555.817 205.007 568.507 207.679 564.5 212.354C560.492 217.03 543.794 229.053 543.794 229.053L535.779 156.249Z" fill="#D0CDE1"/>
<path d="M482.233 61.7134C484.327 58.9016 487.04 56.61 490.163 55.0164C493.286 53.4229 496.733 52.5702 500.239 52.5246H501.093C517.565 52.5246 530.918 67.4295 530.918 85.8156V85.8157H525.398L524.507 79.0311L523.2 85.8157H490.466L487.724 80.0758L488.409 85.8157H481.97C478.965 100.739 483.282 115.663 494.923 130.586H483.953L478.468 119.107L479.839 130.586H458.928L454.814 104.183C454.814 84.4094 466.303 67.6418 482.233 61.7134Z" fill="#2F2E41"/>
</g>
<defs>
<clipPath id="clip0">
<rect width="1048" height="786.038" fill="white"/>
</clipPath>
</defs>
</svg>
