<svg width="988" height="647" viewBox="0 0 988 647" fill="none" xmlns="http://www.w3.org/2000/svg">
<g clip-path="url(#clip0)">
<path d="M293.91 640.228C373.991 640.228 438.91 575.309 438.91 495.228C438.91 415.147 373.991 350.228 293.91 350.228C213.829 350.228 148.91 415.147 148.91 495.228C148.91 575.309 213.829 640.228 293.91 640.228Z" fill="#F2F2F2"/>
<path d="M987.91 640.359H24.4004V642.6H987.91V640.359Z" fill="#2F2E41"/>
<path d="M287.77 496.148C287.77 604.508 223.35 642.348 143.89 642.348C142.04 642.348 140.2 642.328 138.37 642.278C134.69 642.198 131.04 642.038 127.44 641.778C55.72 636.708 -1.52588e-05 596.918 -1.52588e-05 496.148C-1.52588e-05 391.868 133.24 260.278 143.29 250.508C143.295 250.502 143.302 250.499 143.31 250.498C143.69 250.118 143.89 249.928 143.89 249.928C143.89 249.928 287.77 387.778 287.77 496.148Z" fill="#3F3D56"/>
<path d="M138.64 625.768L191.27 552.238L138.51 633.838L138.37 642.278C134.69 642.198 131.04 642.038 127.44 641.778L133.11 533.368L133.07 532.528L133.17 532.368L133.7 522.128L80.8101 440.318L133.86 514.448L133.99 516.618L138.28 434.708L93.0001 350.178L138.83 420.318L143.29 250.508L143.31 249.928V250.498L142.57 384.408L187.64 331.318L142.38 395.938L141.19 469.278L183.28 398.898L141.01 480.078L140.35 520.848L201.45 422.878L140.12 535.078L138.64 625.768Z" fill="#F2F2F2"/>
<path d="M803.41 201.728L783.41 180.728C783.41 180.728 761.41 147.728 745.41 156.728C729.41 165.728 768.41 186.728 768.41 186.728L788.41 219.728L803.41 201.728Z" fill="#A0616A"/>
<path d="M866.41 608.728C866.41 608.728 881.41 637.728 870.41 639.728C859.41 641.728 805.41 644.728 804.41 641.728C803.41 638.728 795.41 628.728 801.41 624.728C807.41 620.728 831.41 617.728 831.41 617.728L839.41 609.728L866.41 608.728Z" fill="#2F2E41"/>
<path d="M874.41 325.728C874.41 325.728 906.41 365.728 880.41 406.728L874.41 475.728C874.41 475.728 885.41 570.728 871.41 602.728L869.41 613.728H834.41L843.41 529.728C843.41 529.728 842.41 519.728 839.41 517.728C836.41 515.728 787.41 407.728 787.41 407.728C787.41 407.728 795.41 392.728 792.41 389.728C789.41 386.728 795.41 326.728 798.41 324.728C801.41 322.728 874.41 325.728 874.41 325.728Z" fill="#2F2E41"/>
<path d="M817.41 599.728L813.41 622.728L852.41 620.728L847.41 595.728L817.41 599.728Z" fill="#A0616A"/>
<path d="M824.41 191.728C840.979 191.728 854.41 178.297 854.41 161.728C854.41 145.159 840.979 131.728 824.41 131.728C807.841 131.728 794.41 145.159 794.41 161.728C794.41 178.297 807.841 191.728 824.41 191.728Z" fill="#A0616A"/>
<path d="M851.41 166.728L854.41 202.728L822.41 217.728C822.41 217.728 827.91 184.228 823.91 175.228L851.41 166.728Z" fill="#A0616A"/>
<path d="M818.41 215.728L821.41 203.728L862.41 188.728C862.41 188.728 866.41 188.728 865.41 195.728C864.41 202.728 864.41 201.728 864.41 201.728C864.41 201.728 878.41 207.728 879.41 217.728C880.41 227.728 896.41 230.728 895.41 245.728C894.41 260.728 889.41 268.728 889.41 268.728C889.41 268.728 894.41 280.728 886.41 287.728C886.41 287.728 878.41 301.728 882.41 311.728C886.41 321.728 891.41 338.728 880.41 335.728C869.41 332.728 793.41 327.728 793.41 327.728C793.41 327.728 782.41 286.728 794.41 271.728C794.41 271.728 794.41 262.728 803.41 244.728C812.41 226.728 818.41 215.728 818.41 215.728Z" fill="#575A89"/>
<path d="M871.41 328.728C871.41 328.728 858.41 383.728 842.41 389.728C842.41 389.728 839.41 429.728 822.41 427.728C805.41 425.728 822.41 389.728 822.41 389.728L841.41 320.728L871.41 328.728Z" fill="#A0616A"/>
<path d="M820.41 218.728C820.41 218.728 805.41 194.728 801.41 198.728C797.41 202.728 777.41 214.728 778.41 222.728C779.41 230.728 788.41 230.728 788.41 230.728L809.41 246.728L820.41 218.728Z" fill="#575A89"/>
<path d="M799.41 397.728L787.41 406.354L779.41 491.728C779.41 491.728 808.41 607.728 816.41 608.728C824.41 609.728 857.41 609.728 856.41 606.728C855.41 603.728 850.41 591.728 850.41 588.728C850.41 585.728 839.981 561.736 839.981 561.736L826.41 505.728L829.41 461.728L799.41 397.728Z" fill="#2F2E41"/>
<path d="M814.41 614.728C814.41 614.728 856.41 601.728 858.41 604.728C860.41 607.728 873.75 637.964 855.08 641.346C836.41 644.728 769.41 650.728 769.41 641.728C769.41 632.728 771.41 626.728 777.41 626.728C783.41 626.728 810.41 613.728 812.41 610.728C814.41 607.728 814.41 614.728 814.41 614.728Z" fill="#2F2E41"/>
<path d="M852.856 163.7C853.137 163.141 853.233 162.508 853.132 161.891C853.03 161.274 852.736 160.704 852.291 160.265C851.847 159.825 851.274 159.538 850.656 159.444C850.038 159.349 849.406 159.453 848.85 159.741L848.797 159.771C847.926 160.3 847.23 161.075 846.796 161.998C846.362 162.921 846.209 163.951 846.357 164.96C842.751 161.361 845.409 154.146 841.512 150.864C839.709 149.345 836.781 149.011 835.855 146.842C835.315 145.58 835.682 144.084 835.207 142.796C834.501 140.884 832.245 140.085 830.229 139.785C823.889 138.839 817.478 140.448 811.269 142.044C808.987 142.631 806.586 143.284 804.924 144.954C803.172 146.714 802.563 149.27 801.489 151.509C800.415 153.747 793.372 153.545 790.91 153.228C790.054 150.797 796.376 150.613 796.892 148.088C798.302 141.185 793.39 133.844 795.8 127.223C797.252 123.234 801.045 120.593 804.864 118.738C815.473 113.638 827.584 112.605 838.903 115.833C840.055 116.088 841.132 116.608 842.047 117.354C843.5 118.71 843.77 120.889 844.738 122.625C846.943 126.582 852.173 127.523 855.7 130.366C861.041 134.672 861.643 142.447 861.816 149.306C861.903 152.76 861.965 156.349 860.55 159.501C859.135 162.653 855.783 165.222 852.391 164.562C852.552 164.301 852.706 164.009 852.856 163.7Z" fill="#2F2E41"/>
<path d="M847.639 228.473C851.51 225.786 856.162 224.458 860.868 224.698C865.574 224.937 870.068 226.729 873.647 229.794C880.539 235.651 887.953 244.042 887.41 252.728C886.41 268.728 880.41 334.728 872.41 335.728C864.41 336.728 835.41 328.728 835.41 323.728C835.41 318.728 842.41 312.728 842.41 312.728L833.911 261.732C832.839 255.55 833.514 249.191 835.86 243.371C838.206 237.552 842.13 232.502 847.19 228.792C847.339 228.685 847.488 228.579 847.639 228.473Z" fill="#575A89"/>
<path d="M736.148 0.00111458H495.532C483.921 0.00111014 472.656 3.95146 463.588 11.2028C454.519 18.4542 448.188 28.575 445.634 39.9017L324.056 579.169C322.73 585.051 322.707 591.152 323.988 597.044C325.269 602.936 327.823 608.476 331.472 613.277C335.12 618.077 339.775 622.021 345.109 624.833C350.443 627.644 356.328 629.255 362.35 629.551L609.704 641.738C622.949 642.391 635.979 638.202 646.363 629.954C656.747 621.705 663.774 609.96 666.135 596.911L735.101 215.643L740.232 217.109L753.428 144.844L748.147 143.524L767.398 37.0985C768.222 32.5401 768.031 27.8559 766.838 23.3798C765.644 18.9038 763.478 14.7462 760.494 11.2033C757.509 7.66039 753.78 4.81953 749.572 2.88322C745.364 0.946904 740.78 -0.0371836 736.148 0.00111458V0.00111458Z" fill="#3F3D56"/>
<path d="M527.209 11.6263H499.122C491.056 11.6263 483.232 14.3849 476.95 19.4442C470.668 24.5035 466.305 31.5591 464.586 39.4398L347.887 574.307C347.215 577.387 347.216 580.575 347.889 583.654C348.562 586.733 349.892 589.631 351.788 592.149C353.683 594.667 356.1 596.747 358.873 598.245C361.646 599.744 364.709 600.627 367.855 600.833L614.409 616.992C621.364 617.448 628.245 615.326 633.736 611.033C639.227 606.74 642.946 600.574 644.181 593.714L743.761 40.8765C744.406 37.2983 744.257 33.6222 743.326 30.1077C742.394 26.5933 740.703 23.326 738.371 20.5365C736.039 17.7471 733.123 15.5034 729.83 13.9638C726.536 12.4242 722.945 11.6263 719.309 11.6263H692.664C690.085 11.6263 687.578 12.4765 685.531 14.0451C683.484 15.6138 682.012 17.8135 681.341 20.3037C680.749 22.5021 679.449 24.4441 677.642 25.8289C675.835 27.2138 673.622 27.9643 671.345 27.9643H544.852C540.394 27.9643 536.1 26.2816 532.829 23.2525C529.558 20.2234 527.551 16.0713 527.209 11.6263L527.209 11.6263Z" fill="#EB007D"/>
<path d="M703.786 149.872H448.66V151.128H703.786V149.872Z" fill="#2F2E41"/>
<path d="M696.245 190.717H438.606V191.973H696.245V190.717Z" fill="#2F2E41"/>
<path d="M687.675 147.881L681.877 140.152L682.883 139.399L687.893 146.078L707.199 130.283L707.994 131.256L687.675 147.881Z" fill="#2F2E41"/>
<path d="M654.37 330.114L648.573 322.385L649.578 321.631L654.589 328.311L673.894 312.515L674.69 313.489L654.37 330.114Z" fill="#2F2E41"/>
<path d="M410.342 330.219L410.315 331.476L677.38 337.131L677.407 335.874L410.342 330.219Z" fill="#2F2E41"/>
<path d="M402.174 367.294L402.145 368.55L674.237 374.834L674.266 373.577L402.174 367.294Z" fill="#2F2E41"/>
<path opacity="0.1" d="M568.997 474.434C568.997 490.266 562.707 505.45 551.512 516.646C540.316 527.841 525.132 534.13 509.3 534.13C493.467 534.13 478.283 527.841 467.088 516.646C455.892 505.45 449.603 490.266 449.603 474.434C449.603 473.686 449.616 472.944 449.647 472.203C450.231 456.575 456.925 441.799 468.289 431.055C479.653 420.311 494.78 414.455 510.417 414.747C526.053 415.039 540.95 421.456 551.905 432.618C562.86 443.78 568.997 458.794 568.997 474.434V474.434Z" fill="black"/>
<path opacity="0.1" d="M563.341 497.684C563.341 498.432 563.329 499.173 563.297 499.915C557.506 512.181 547.711 522.11 535.525 528.066C523.338 534.023 509.486 535.652 496.25 532.685C483.014 529.719 471.183 522.334 462.704 511.746C454.225 501.158 449.605 487.998 449.603 474.434C449.603 473.686 449.616 472.944 449.647 472.203C455.438 459.937 465.233 450.008 477.42 444.052C489.606 438.095 503.458 436.466 516.694 439.432C529.93 442.399 541.761 449.784 550.24 460.372C558.719 470.96 563.339 484.12 563.341 497.684H563.341Z" fill="black"/>
<path d="M497.217 490.858L475.995 462.562L481.022 458.791L498.311 481.843L566.379 426.152L570.358 431.016L497.217 490.858Z" fill="#F2F2F2"/>
</g>
<defs>
<clipPath id="clip0">
<rect width="987.91" height="646.459" fill="white"/>
</clipPath>
</defs>
</svg>
