<svg width="818" height="769" viewBox="0 0 818 769" fill="none" xmlns="http://www.w3.org/2000/svg">
<g clip-path="url(#clip0)">
<path d="M401.055 768.793C535.536 768.793 644.555 751.924 644.555 731.114C644.555 710.305 535.536 693.435 401.055 693.435C266.573 693.435 157.555 710.305 157.555 731.114C157.555 751.924 266.573 768.793 401.055 768.793Z" fill="#3F3D56"/>
<path d="M394.608 159.632C394.608 159.632 400.552 186.973 380.343 197.672C380.343 197.672 385.098 258.299 416.006 259.488C446.914 260.677 446.914 227.391 446.914 227.391L442.159 209.56C442.159 209.56 419.572 196.483 433.837 171.519L394.608 159.632Z" fill="#A0616A"/>
<path d="M420.166 174.491C451.024 174.491 476.038 149.476 476.038 118.619C476.038 87.7619 451.024 62.7471 420.166 62.7471C389.309 62.7471 364.294 87.7619 364.294 118.619C364.294 149.476 389.309 174.491 420.166 174.491Z" fill="#2F2E41"/>
<path d="M361.323 286.829V353.4L459.99 349.834L452.857 284.452L361.323 286.829Z" fill="#A0616A"/>
<path d="M420.761 178.652C440.457 178.652 456.424 162.685 456.424 142.989C456.424 123.293 440.457 107.326 420.761 107.326C401.065 107.326 385.098 123.293 385.098 142.989C385.098 162.685 401.065 178.652 420.761 178.652Z" fill="#A0616A"/>
<path d="M376.777 197.672C376.777 197.672 356.568 194.106 349.435 197.672C342.302 201.238 333.981 200.05 325.66 234.524L310.206 305.85C310.206 305.85 307.828 327.247 325.66 324.87C343.491 322.492 342.302 291.585 342.302 291.585L354.19 264.243L375.588 240.468L376.777 197.672Z" fill="#A0616A"/>
<path d="M444.536 211.937C444.536 211.937 473.067 215.503 475.444 230.957C477.822 246.411 464.745 309.416 464.745 309.416L444.536 289.207L455.235 249.978L444.536 211.937Z" fill="#A0616A"/>
<path d="M371.427 197.078L372.021 219.07L355.379 254.733L358.945 298.717L454.334 299.005L454.046 278.508C454.046 278.508 467.123 261.865 459.99 247.6C452.858 233.335 447.508 211.343 447.508 211.343L437.998 205.399C437.998 205.399 454.046 242.845 420.761 236.901C387.475 230.957 385.692 193.511 385.692 193.511L371.427 197.078Z" fill="#D0CDE1"/>
<path d="M343.491 436.614L326.848 530.526L307.828 667.234L299.507 682.688L306.639 698.142L326.848 688.632L335.17 651.78C335.17 651.78 363.7 617.306 358.945 573.322L410.062 450.879L343.491 436.614Z" fill="#A0616A"/>
<path d="M425.516 446.124L437.404 562.623C437.404 562.623 435.026 594.72 442.159 623.25C449.291 651.78 454.046 701.709 454.046 701.709H477.822L473.067 555.49L488.521 436.614L425.516 446.124Z" fill="#A0616A"/>
<path d="M408.873 339.135C408.873 339.135 358.945 335.569 358.945 341.513V353.4C358.945 353.4 349.435 368.854 350.624 383.119C351.812 397.385 305.451 429.481 335.17 443.746C364.889 458.012 404.118 462.767 410.062 458.012C416.006 453.257 419.572 434.236 419.572 434.236C419.572 434.236 419.572 455.634 430.271 456.823C440.97 458.012 505.163 444.935 505.163 434.236C505.163 423.537 457.591 327.842 457.591 327.842C457.591 327.842 423.138 340.324 408.873 339.135Z" fill="#2F2E41"/>
<path d="M305.451 683.877C305.451 683.877 300.695 675.556 295.94 681.5C291.185 687.443 273.354 701.709 273.354 701.709C273.354 701.709 229.37 713.596 259.089 731.428C259.089 731.428 285.242 731.428 295.94 723.106C306.639 714.785 317.338 718.351 317.338 718.351C317.338 718.351 333.981 717.163 335.17 710.03C336.359 702.897 328.942 679.359 328.942 679.359C328.942 679.359 320.905 689.821 305.451 683.877Z" fill="#2F2E41"/>
<path d="M463.556 691.01C463.556 691.01 449.291 687.443 449.291 691.01C449.291 694.576 429.082 715.974 445.725 725.484C462.368 734.994 464.745 732.616 465.934 742.127C467.123 751.637 498.031 758.769 502.786 752.826C507.541 746.882 511.107 736.183 505.163 731.428C499.219 726.673 480.199 696.954 480.199 691.01C480.199 685.066 463.556 691.01 463.556 691.01Z" fill="#2F2E41"/>
<path d="M434.741 229.563C437.046 229.563 438.915 228.629 438.915 227.477C438.915 226.324 437.046 225.39 434.741 225.39C432.437 225.39 430.568 226.324 430.568 227.477C430.568 228.629 432.437 229.563 434.741 229.563Z" fill="#3F3D56"/>
<path d="M435.216 236.297C439.93 236.297 443.752 234.344 443.752 231.934C443.752 229.525 439.93 227.571 435.216 227.571C430.501 227.571 426.679 229.525 426.679 231.934C426.679 234.344 430.501 236.297 435.216 236.297Z" fill="#EB007D"/>
<path d="M445.27 234.59H424.782V249.576H445.27V234.59Z" fill="#EB007D"/>
<path d="M459.212 258.018H410.65V331.43H459.212V258.018Z" fill="#EB007D"/>
<path d="M461.394 257.164C461.394 264.393 449.484 261.906 435.026 261.906C420.568 261.906 408.279 264.203 408.279 256.974C408.279 249.745 420.568 242.178 435.026 242.178C449.484 242.178 461.394 249.935 461.394 257.164Z" fill="#EB007D"/>
<path d="M461.394 264.942H408.848V270.633H461.394V264.942Z" fill="#3F3D56"/>
<path d="M461.773 319.954H409.227V325.645H461.773V319.954Z" fill="#3F3D56"/>
<path d="M461.394 295.293H408.848V306.675H461.394V295.293Z" fill="#3F3D56"/>
<path d="M461.014 328.869C461.014 331.279 461.779 338.165 435.595 338.165C406.002 338.165 408.468 330.9 408.468 328.49C408.468 326.08 421.556 329.438 435.595 329.438C449.634 329.438 461.014 326.46 461.014 328.869Z" fill="#EB007D"/>
<path d="M446.977 231.934H422.696V240.091H446.977V231.934Z" fill="#3F3D56"/>
<path opacity="0.1" d="M416.151 275.47H412.926V293.301H416.151V275.47Z" fill="white"/>
<path opacity="0.1" d="M416.151 309.425H412.926V316.065H416.151V309.425Z" fill="white"/>
<path d="M469.5 295.151C469.5 295.151 446.914 265.432 448.102 286.829C449.291 308.227 462.368 318.926 464.745 318.926C467.123 318.926 476.633 316.549 469.5 295.151Z" fill="#A0616A"/>
<path opacity="0.1" d="M361.323 318.044C363.106 318.332 391.636 307.633 391.636 307.633L409.468 305.255L361.323 325.389L361.323 318.044Z" fill="black"/>
<path d="M324.471 297.528C324.471 297.528 333.981 291.584 353.001 293.962L389.853 284.452C389.853 284.452 424.327 264.243 437.404 289.207C450.48 314.171 388.664 305.85 388.664 305.85C388.664 305.85 347.057 339.135 322.093 321.304L324.471 297.528Z" fill="#A0616A"/>
<path d="M369.049 94.8438C378.241 94.8438 385.692 87.3926 385.692 78.2011C385.692 69.0096 378.241 61.5583 369.049 61.5583C359.858 61.5583 352.407 69.0096 352.407 78.2011C352.407 87.3926 359.858 94.8438 369.049 94.8438Z" fill="#2F2E41"/>
<path d="M471.283 90.0887C480.475 90.0887 487.926 82.6375 487.926 73.446C487.926 64.2545 480.475 56.8033 471.283 56.8033C462.092 56.8033 454.641 64.2545 454.641 73.446C454.641 82.6375 462.092 90.0887 471.283 90.0887Z" fill="#2F2E41"/>
<path d="M453.452 66.3134C453.452 62.2087 454.97 58.2489 457.713 55.1951C460.456 52.1413 464.23 50.2088 468.311 49.7691C465.987 49.5152 463.636 49.7539 461.41 50.4696C459.184 51.1852 457.134 52.3619 455.393 53.9228C453.653 55.4836 452.26 57.3938 451.307 59.5287C450.354 61.6636 449.862 63.9754 449.862 66.3134C449.862 68.6515 450.354 70.9632 451.307 73.0981C452.26 75.2331 453.653 77.1432 455.393 78.7041C457.134 80.265 459.184 81.4416 461.41 82.1573C463.636 82.873 465.987 83.1116 468.311 82.8578C464.23 82.418 460.456 80.4856 457.713 77.4318C454.97 74.3779 453.452 70.4182 453.452 66.3134V66.3134Z" fill="#2F2E41"/>
<path d="M350.454 91.6631C347.581 88.7307 345.894 84.8403 345.716 80.7394C345.538 76.6385 346.882 72.6164 349.489 69.4461C349.021 69.8146 348.573 70.2078 348.147 70.6238C344.996 73.7133 343.201 77.9278 343.156 82.3405C343.112 86.7532 344.822 91.0029 347.911 94.1549C350.999 97.307 355.213 99.1034 359.626 99.1492C364.038 99.195 368.288 97.4863 371.442 94.399C371.866 93.9812 372.268 93.5412 372.646 93.0807C369.424 95.6229 365.375 96.8843 361.279 96.6226C357.182 96.3609 353.327 94.5946 350.454 91.6631V91.6631Z" fill="#2F2E41"/>
<path d="M420.166 92.4663C400.47 92.4663 384.503 101.78 384.503 113.27C384.503 118.411 387.713 123.109 393.011 126.739L399.876 121.764L398.009 129.557C398.784 129.916 399.575 130.264 400.4 130.585L410.656 118.619V133.319C413.801 133.823 416.981 134.075 420.166 134.073C439.863 134.073 455.829 124.759 455.829 113.27C455.829 101.78 439.863 92.4663 420.166 92.4663Z" fill="#2F2E41"/>
<path d="M454.641 73.446C454.641 73.446 452.056 85.3337 468.208 90.0887Z" fill="#EB007D"/>
<path d="M384.503 75.6097C384.503 75.6097 390.447 88.9 372.616 94.8438Z" fill="#EB007D"/>
<path d="M626.82 659.334C629.951 655.849 632.186 651.654 633.332 647.111C634.478 642.569 634.501 637.815 633.397 633.262C632.294 628.709 630.098 624.493 627 620.979C623.901 617.465 619.993 614.759 615.614 613.095C619.514 610.839 622.56 607.359 624.281 603.196C626.002 599.033 626.302 594.419 625.134 590.068C623.966 585.717 621.396 581.873 617.821 579.131C614.246 576.39 609.867 574.904 605.362 574.904C600.858 574.904 596.478 576.39 592.904 579.131C589.329 581.873 586.759 585.717 585.591 590.068C584.423 594.419 584.723 599.033 586.444 603.196C588.165 607.359 591.211 610.839 595.111 613.095C590.732 614.759 586.824 617.465 583.725 620.979C580.627 624.493 578.431 628.709 577.328 633.262C576.224 637.815 576.247 642.569 577.393 647.111C578.539 651.654 580.774 655.849 583.905 659.334C576.594 663.979 570.987 670.872 567.928 678.977C564.869 687.082 564.523 695.961 566.942 704.279C569.361 712.597 574.414 719.906 581.342 725.106C588.271 730.307 596.7 733.118 605.363 733.118C614.025 733.118 622.454 730.307 629.383 725.106C636.311 719.906 641.364 712.597 643.783 704.279C646.202 695.961 645.856 687.082 642.797 678.977C639.738 670.872 634.132 663.979 626.82 659.334V659.334Z" fill="#3F3D56"/>
<path d="M257.572 424.667C274.024 424.667 287.361 411.33 287.361 394.878C287.361 378.426 274.024 365.089 257.572 365.089C241.12 365.089 227.783 378.426 227.783 394.878C227.783 411.33 241.12 424.667 257.572 424.667Z" fill="#EB007D"/>
<path d="M251.157 419.235C254.064 416.882 252.224 409.792 247.048 403.398C241.872 397.005 235.32 393.729 232.414 396.081C229.508 398.434 231.348 405.524 236.524 411.918C241.699 418.311 248.251 421.587 251.157 419.235Z" fill="white"/>
<path d="M62.7221 336.766C79.1741 336.766 92.5111 323.429 92.5111 306.977C92.5111 290.525 79.1741 277.188 62.7221 277.188C46.27 277.188 32.933 290.525 32.933 306.977C32.933 323.429 46.27 336.766 62.7221 336.766Z" fill="#3F3D56"/>
<path d="M49.6485 303.452C51.7901 295.51 50.5995 288.282 46.9893 287.309C43.3792 286.335 38.7165 291.985 36.5749 299.927C34.4334 307.869 35.624 315.097 39.2341 316.07C42.8443 317.044 47.507 311.394 49.6485 303.452Z" fill="white"/>
<path d="M18.569 150.488C28.8219 150.488 37.1335 142.177 37.1335 131.924C37.1335 121.671 28.8219 113.359 18.569 113.359C8.3162 113.359 0.00462341 121.671 0.00462341 131.924C0.00462341 142.177 8.3162 150.488 18.569 150.488Z" fill="#3F3D56"/>
<path d="M10.4216 129.727C11.7562 124.777 11.0143 120.273 8.76446 119.666C6.51461 119.06 3.60885 122.58 2.27425 127.53C0.939649 132.48 1.6816 136.984 3.93145 137.591C6.18129 138.197 9.08704 134.677 10.4216 129.727Z" fill="white"/>
<path d="M210.916 609.746C221.169 609.746 229.48 601.434 229.48 591.181C229.48 580.929 221.169 572.617 210.916 572.617C200.663 572.617 192.351 580.929 192.351 591.181C192.351 601.434 200.663 609.746 210.916 609.746Z" fill="#3F3D56"/>
<path d="M202.771 588.986C204.106 584.036 203.364 579.532 201.114 578.925C198.864 578.318 195.958 581.839 194.624 586.789C193.289 591.738 194.031 596.243 196.281 596.849C198.531 597.456 201.436 593.935 202.771 588.986Z" fill="white"/>
<path d="M787.65 403.115C804.102 403.115 817.439 389.778 817.439 373.326C817.439 356.874 804.102 343.537 787.65 343.537C771.198 343.537 757.861 356.874 757.861 373.326C757.861 389.778 771.198 403.115 787.65 403.115Z" fill="#3F3D56"/>
<path d="M767.34 388.221C771.079 388.221 774.11 381.552 774.11 373.326C774.11 365.1 771.079 358.432 767.34 358.432C763.601 358.432 760.569 365.1 760.569 373.326C760.569 381.552 763.601 388.221 767.34 388.221Z" fill="white"/>
<path d="M691.513 212.195C707.965 212.195 721.302 198.858 721.302 182.406C721.302 165.954 707.965 152.617 691.513 152.617C675.061 152.617 661.724 165.954 661.724 182.406C661.724 198.858 675.061 212.195 691.513 212.195Z" fill="#EB007D"/>
<path d="M683.57 171.44C690.232 166.614 693.854 160.247 691.66 157.219C689.467 154.191 682.288 155.648 675.626 160.474C668.965 165.3 665.342 171.666 667.536 174.695C669.729 177.723 676.908 176.265 683.57 171.44Z" fill="white"/>
<path d="M767.34 37.1302C777.593 37.1302 785.904 28.8186 785.904 18.5658C785.904 8.31292 777.593 0.00134277 767.34 0.00134277C757.087 0.00134277 748.775 8.31292 748.775 18.5658C748.775 28.8186 757.087 37.1302 767.34 37.1302Z" fill="#EB007D"/>
<path d="M762.389 11.732C766.541 8.72467 768.799 4.75693 767.432 2.86982C766.065 0.982703 761.591 1.89084 757.439 4.89817C753.288 7.90551 751.03 11.8732 752.397 13.7604C753.764 15.6475 758.238 14.7393 762.389 11.732Z" fill="white"/>
<path d="M627.873 515.109C638.126 515.109 646.437 506.798 646.437 496.545C646.437 486.292 638.126 477.98 627.873 477.98C617.62 477.98 609.308 486.292 609.308 496.545C609.308 506.798 617.62 515.109 627.873 515.109Z" fill="#3F3D56"/>
<path d="M622.923 489.711C627.074 486.704 629.332 482.736 627.965 480.849C626.598 478.962 622.124 479.87 617.972 482.877C613.821 485.884 611.563 489.852 612.93 491.739C614.297 493.626 618.771 492.718 622.923 489.711Z" fill="white"/>
</g>
<defs>
<clipPath id="clip0">
<rect width="817.439" height="768.793" fill="white"/>
</clipPath>
</defs>
</svg>
