<svg width="676" height="676" viewBox="0 0 676 676" fill="none" xmlns="http://www.w3.org/2000/svg">
<g clip-path="url(#clip0)">
<path d="M676 338C676 458.33 613.12 563.98 518.42 623.87C509.58 629.47 500.467 634.653 491.08 639.42C488.96 640.51 486.83 641.56 484.68 642.59C482.91 643.45 481.12 644.29 479.33 645.12C460.736 653.696 441.396 660.548 421.55 665.59C420.26 665.92 418.96 666.24 417.66 666.55C416.69 666.79 415.71 667.02 414.73 667.24C414.609 667.279 414.485 667.31 414.36 667.33C412.35 667.8 410.34 668.25 408.31 668.66C407.17 668.9 406.03 669.14 404.89 669.37C404.2 669.52 403.5 669.65 402.81 669.78C401.94 669.95 401.08 670.11 400.21 670.28C399.73 670.38 399.25 670.46 398.76 670.54C397.66 670.74 396.56 670.94 395.47 671.13C393.61 671.45 391.73 671.76 389.86 672.04C388.5 672.25 387.15 672.45 385.79 672.64C384.19 672.87 382.59 673.08 380.98 673.28C380.54 673.35 380.1 673.4 379.66 673.45C379.09 673.52 378.52 673.59 377.95 673.66C376.21 673.87 374.45 674.06 372.7 674.24C371.56 674.36 370.42 674.47 369.28 674.57C367.81 674.71 366.34 674.83 364.86 674.95C363.06 675.09 361.27 675.22 359.46 675.33C358.3 675.4 357.14 675.47 355.97 675.53C352.99 675.69 350.01 675.8 347.01 675.88C345.52 675.92 344.02 675.95 342.52 675.97H342.49C341 675.99 339.5 676 338 676C293.607 676.023 249.644 667.296 208.626 650.317C167.608 633.339 130.338 608.443 98.9473 577.053C67.5566 545.662 42.6606 508.392 25.6825 467.374C8.70449 426.356 -0.022664 382.393 1.35649e-05 338C1.35649e-05 151.33 151.33 0 338 0C524.67 0 676 151.33 676 338Z" fill="#EB007D"/>
<path opacity="0.2" d="M552.11 206.21C534.75 218.92 519.58 235.98 506.32 256.08C468.58 313.27 446.3 395.11 433.14 471.58C429.78 491.12 427.01 510.31 424.74 528.64C416.92 591.69 414.89 644.69 414.36 667.33C412.35 667.8 410.34 668.25 408.31 668.66C408.66 651.33 409.91 613.82 414.32 567.07C414.89 561.03 415.517 554.843 416.2 548.51C416.96 541.39 417.8 534.11 418.72 526.67C420.62 511.32 422.86 495.41 425.51 479.23C425.93 476.68 426.353 474.147 426.78 471.63C443.45 373.84 469.03 299.58 503.11 249.74C516.87 229.6 532.017 213.47 548.55 201.35L552.11 206.21Z" fill="black"/>
<path opacity="0.2" d="M548.44 472.55C522.43 491.61 507.86 533.67 499.72 574.64C495.574 596.046 492.689 617.676 491.08 639.42C488.96 640.51 486.83 641.56 484.68 642.59C486.285 617.831 489.576 593.211 494.53 568.9C503.09 528.32 518.21 487.24 544.88 467.7L548.44 472.55Z" fill="black"/>
<path opacity="0.2" d="M585.738 206.07C602.356 206.07 615.827 192.599 615.827 175.982C615.827 159.364 602.356 145.893 585.738 145.893C569.121 145.893 555.65 159.364 555.65 175.982C555.65 192.599 569.121 206.07 585.738 206.07Z" fill="black"/>
<path opacity="0.2" d="M576.049 465.079C592.666 465.079 606.137 451.608 606.137 434.991C606.137 418.373 592.666 404.902 576.049 404.902C559.431 404.902 545.96 418.373 545.96 434.991C545.96 451.608 559.431 465.079 576.049 465.079Z" fill="black"/>
<path opacity="0.2" d="M466.286 226.521C472.666 262.519 458.581 295.114 458.581 295.114C458.581 295.114 434.151 269.345 427.771 233.348C421.39 197.351 435.475 164.756 435.475 164.756C435.475 164.756 459.905 190.524 466.286 226.521Z" fill="black"/>
<path opacity="0.2" d="M566.282 311.971C531.947 324.526 497.446 316.469 497.446 316.469C497.446 316.469 518.612 288.056 552.947 275.501C587.282 262.946 621.783 271.003 621.783 271.003C621.783 271.003 600.617 299.416 566.282 311.971Z" fill="black"/>
<path opacity="0.2" d="M572.105 541.333C548.039 550.133 523.822 544.392 523.822 544.392C523.822 544.392 538.623 524.384 562.689 515.584C586.755 506.784 610.972 512.525 610.972 512.525C610.972 512.525 596.171 532.533 572.105 541.333Z" fill="black"/>
<path d="M181.853 180.179C230.729 97.5948 327.424 93.746 327.424 93.746C327.424 93.746 421.649 81.6966 482.093 207.473C538.432 324.707 616.187 437.899 494.611 465.343L472.651 396.993L459.051 470.431C441.741 471.676 424.376 471.973 407.033 471.32C276.835 467.117 152.841 472.55 156.833 425.829C162.141 363.721 134.826 259.641 181.853 180.179Z" fill="#2F2E41"/>
<path d="M336.946 405.783C405.221 405.783 460.569 350.435 460.569 282.159C460.569 213.884 405.221 158.536 336.946 158.536C268.67 158.536 213.322 213.884 213.322 282.159C213.322 350.435 268.67 405.783 336.946 405.783Z" fill="#D0CDE1"/>
<path d="M396.468 350.839C396.468 350.839 346.103 497.355 405.625 538.563C465.147 579.771 309.474 607.243 268.266 579.771C227.058 552.299 195.008 506.513 195.008 506.513C195.008 506.513 300.316 401.204 277.423 341.682L396.468 350.839Z" fill="#D0CDE1"/>
<path d="M488.04 570.61L479.33 645.12C460.736 653.696 441.395 660.548 421.55 665.59C420.26 665.92 418.96 666.24 417.66 666.55C416.69 666.79 415.71 667.02 414.73 667.24C414.609 667.279 414.485 667.309 414.36 667.33C412.35 667.8 410.34 668.25 408.31 668.66C407.17 668.9 406.03 669.14 404.89 669.37C404.2 669.52 403.5 669.65 402.81 669.78C401.94 669.95 401.08 670.11 400.21 670.28C399.73 670.38 399.25 670.46 398.76 670.54C397.66 670.74 396.56 670.94 395.47 671.13C393.61 671.45 391.73 671.76 389.86 672.04C388.5 672.25 387.15 672.45 385.79 672.64C384.19 672.87 382.59 673.08 380.98 673.28C380.54 673.35 380.1 673.4 379.66 673.45C379.09 673.52 378.52 673.59 377.95 673.66C376.21 673.87 374.45 674.06 372.7 674.24C371.56 674.36 370.42 674.47 369.28 674.57C367.81 674.71 366.34 674.83 364.86 674.95C363.06 675.09 361.27 675.22 359.46 675.33C358.3 675.4 357.14 675.47 355.97 675.53C352.99 675.69 350.01 675.8 347.01 675.88C345.52 675.92 344.02 675.95 342.52 675.97H342.49C341 675.99 339.5 676 338 676C277.803 675.981 218.701 659.901 166.793 629.417C114.885 598.934 72.0505 555.153 42.71 502.59C57.7828 492.26 73.4757 482.866 89.7 474.46C94.87 471.85 101.88 470.25 109.89 469.43C127.98 467.55 151.42 469.65 171.75 473.5C190.29 476.98 206.27 481.93 213.32 486.6C231.64 498.73 304.9 538.56 304.9 538.56C304.9 538.56 368.97 547.72 394.85 528.64C394.86 528.64 394.86 528.63 394.87 528.63C400.97 524.11 409.41 524.08 418.72 526.67C420.69 527.22 422.697 527.877 424.74 528.64C430.422 530.84 435.931 533.464 441.22 536.49C441.34 536.56 441.45 536.62 441.57 536.69C443.44 537.74 445.3 538.84 447.14 539.97C468.93 553.25 488.04 570.61 488.04 570.61Z" fill="#2F2E41"/>
<path d="M118.25 594.82C115.29 539.84 111.93 494.8 109.89 469.43C127.98 467.55 151.42 469.65 171.75 473.5C188.3 506.66 225.6 583.2 259.93 666.94C207.627 654.543 159.049 629.815 118.25 594.82V594.82Z" fill="#2F2E41"/>
<path d="M439.96 536.27L441.18 536.9C441.06 538.2 440.77 539 439.96 536.27Z" fill="#2F2E41"/>
<path d="M441.57 536.69C441.58 536.83 441.6 536.98 441.61 537.12L441.18 536.9C441.19 536.77 441.2 536.63 441.22 536.49C441.32 534.74 441.2 532.67 441.57 536.69Z" fill="#2F2E41"/>
<path d="M518.42 623.87C509.58 629.47 500.467 634.653 491.08 639.42C488.96 640.51 486.83 641.56 484.68 642.59C482.91 643.45 481.12 644.29 479.33 645.12C460.736 653.696 441.396 660.548 421.55 665.59C435.96 619.06 445.09 573.12 441.61 537.12L447.14 539.97L473.79 553.7C481.46 557.643 488.46 562.773 494.53 568.9C496.356 570.724 498.089 572.64 499.72 574.64C510.989 588.328 517.534 605.29 518.38 623C518.39 623.29 518.41 623.58 518.42 623.87Z" fill="#2F2E41"/>
<path d="M217.198 172.218L312.728 122.178L372.665 131.478C393.896 134.773 413.647 144.374 429.353 159.036C445.059 173.698 455.994 192.744 460.739 213.699L471.947 263.2L404.002 260.586L385.021 216.297V259.856L353.67 258.65L335.474 188.14L324.101 263.2L212.648 260.925L217.198 172.218Z" fill="#2F2E41"/>
</g>
<defs>
<clipPath id="clip0">
<rect width="676" height="676" fill="white"/>
</clipPath>
</defs>
</svg>
