<?xml version="1.0" encoding="UTF-8" standalone="no"?>
<svg
   xmlns:dc="http://purl.org/dc/elements/1.1/"
   xmlns:cc="http://creativecommons.org/ns#"
   xmlns:rdf="http://www.w3.org/1999/02/22-rdf-syntax-ns#"
   xmlns:svg="http://www.w3.org/2000/svg"
   xmlns="http://www.w3.org/2000/svg"
   version="1.1"
   id="svg2"
   viewBox="0 0 499.99999 319.31887"
   height="319.31888"
   width="500">
  <title
     id="title4143">G1</title>
  <defs
     id="defs4" />
  <metadata
     id="metadata7">
    <rdf:RDF>
      <cc:Work
         rdf:about="">
        <dc:format>image/svg+xml</dc:format>
        <dc:type
           rdf:resource="http://purl.org/dc/dcmitype/StillImage" />
        <dc:title>G1</dc:title>
      </cc:Work>
    </rdf:RDF>
  </metadata>
  <g
     transform="translate(-75.895968,-290.01389)"
     id="layer1">
    <g
       transform="matrix(12.499335,0,0,12.499335,-2531.0825,-6450.0229)"
       id="text4136"
       style="font-style:normal;font-weight:normal;font-size:40px;line-height:125%;font-family:sans-serif;letter-spacing:0px;word-spacing:0px;fill:#000000;fill-opacity:1;stroke:none;stroke-width:1px;stroke-linecap:butt;stroke-linejoin:miter;stroke-opacity:1">
      <path
         id="path4141"
         style="font-style:normal;font-variant:normal;font-weight:normal;font-stretch:normal;font-size:40px;line-height:125%;font-family:g1-iconset;-inkscape-font-specification:'g1-iconset, Normal';text-align:start;writing-mode:lr-tb;text-anchor:start;fill:#a80000;fill-opacity:1"
         d="m 208.57143,547.9035 0,8.63282 q 0,1.71875 0.66406,3.24218 0.70312,1.48438 1.875,2.61719 1.21094,1.09375 2.8125,1.75781 1.60156,0.625 3.4375,0.625 l 17.57812,0 0,-15.3125 -9.33593,0 0,7.61719 -5.50782,0 q -0.42968,0 -0.85937,-0.15625 -0.39063,-0.15625 -0.70313,-0.42969 -0.27343,-0.27343 -0.46875,-0.625 -0.15625,-0.39062 -0.15625,-0.82031 l 0,-7.85156 q 0,-0.42969 0.11719,-0.78125 0.11719,-0.39063 0.3125,-0.66406 0.23438,-0.27344 0.58594,-0.39063 0.35156,-0.15625 0.78125,-0.15625 l 8.24219,0 4.41406,-5.9375 -15.03906,0 q -1.79688,0 -3.4375,0.70313 -1.60157,0.70312 -2.77344,1.91406 -1.17188,1.17187 -1.875,2.73437 -0.70313,1.5625 -0.66406,3.28125 l 0,0 z m 30.625,-0.74218 0.0391,17.61718 9.29687,0 0.0391,-23.47656 q -0.0391,-0.42969 -0.19532,-0.78125 -0.15625,-0.39062 -0.46875,-0.66406 -0.3125,-0.3125 -0.70312,-0.46875 -0.39063,-0.15625 -0.85938,-0.15625 l -9.57031,0 -4.45312,5.97656 4.6875,0 q 0.42968,0 0.82031,0.15625 0.42969,0.11719 0.70312,0.39063 0.3125,0.27343 0.50782,0.66406 0.19531,0.35156 0.15625,0.74219 l 0,0 z" />
    </g>
  </g>
</svg>
