<?xml version="1.0" encoding="utf-8"?>
<!-- Generator: Adobe Illustrator 19.0.0, SVG Export Plug-In . SVG Version: 6.00 Build 0)  -->
<svg version="1.1" xmlns="http://www.w3.org/2000/svg" xmlns:xlink="http://www.w3.org/1999/xlink" x="0px" y="0px"
	 viewBox="98.5 299.7 197.3 194.3" style="enable-background:new 98.5 299.7 197.3 194.3;" xml:space="preserve">
<style type="text/css">
	.st0{fill:#B91414;}
</style>
<g id="Layer_1">
	<g>
		<g>
			<path class="st0" d="M197.4,299.7c-53.8,0-97.4,43.6-97.4,97.2c0,53.5,43.6,97.1,97.4,97.1c53.8,0,97.4-43.6,97.4-97.1
				C294.8,343.3,251.2,299.7,197.4,299.7z M263.8,442.7c-21.1,2.2-44.5,2.7-66.4,2.6c-21.9,0.1-45.3-0.4-66.4-2.6
				c-6.1-0.7-9.4-2.2-10.1-8.7c-1.2-12-1.3-24.5-1.3-37.1s0.1-25.1,1.3-37.1c0.7-6.6,3.9-8.1,10.1-8.7c21.1-2.2,44.5-2.7,66.4-2.7
				c21.9-0.1,45.3,0.5,66.4,2.7c6.1,0.6,9.4,2.2,10.1,8.7c1.2,12,1.3,24.5,1.3,37.1s-0.1,25.1-1.3,37.1
				C273.2,440.6,269.9,442.1,263.8,442.7z"/>
		</g>
	</g>
	<g>
		<g>
			<path class="st0" d="M237,396.9c0,21.6-17.7,39.3-39.6,39.3c-21.9,0-39.6-17.7-39.6-39.3c0-21.7,17.7-39.3,39.6-39.3
				C219.3,357.5,237,375.2,237,396.9z"/>
		</g>
	</g>
</g>
<g id="Layer_2">
</g>
</svg>
