<?xml version="1.0" encoding="utf-8"?>
<!-- Generator: Adobe Illustrator 19.0.0, SVG Export Plug-In . SVG Version: 6.00 Build 0)  -->
<svg version="1.1" id="Layer_1" xmlns="http://www.w3.org/2000/svg" xmlns:xlink="http://www.w3.org/1999/xlink" x="0px" y="0px"
	 viewBox="278.6 299.7 634 194.3" style="enable-background:new 278.6 299.7 634 194.3;" xml:space="preserve">
<style type="text/css">
	.st0{fill:#B91414;}
</style>
<g>
	<path class="st0" d="M539.3,438.8h-89.9v-19.8h69.7v-44.2h-69.7v-19.8h89.9L539.3,438.8z M862.5,377.3c-25.3-7-50.8-9.8-51.8-22.5
		c0-7.7,7-9.3,12.8-9.3c4.3,0,10.4,1.3,13.9,3.6c3.7,2.5,6.4,6,6.4,11.1v0v0h61.4c-1.3-43.9-46.1-62.7-88.4-56.1h-64.1l-46.5,85.4
		v-85.4h-58.4l-54.1,99.2v-99.2H389.5v78.3l-42.6-78.3h-66V347l0,99.8v42.8h61.5v-81.5l45.8,81.5h206.2l53.6-94.7v94.7h59.9l55.1-98
		c11.4,12.1,30.5,16.9,48,21.9c29.6,8.4,37.1,10.8,37.1,19.8c0,8.7-11.6,13.3-17.5,13.3c-6.7,0-12.1-4.1-14.7-11.1
		c-0.7-1.8-1.3-4.3-1.3-8.1H746c1.2,56.1,64.1,63.2,84.3,63.2c39.8,0,82.4-15,82.4-61.6C912.6,396.1,887.8,384.3,862.5,377.3"/>
</g>
</svg>
